<?xml version="1.0" standalone="no"?>
<!DOCTYPE svg PUBLIC "-//W3C//DTD SVG 1.1//EN" "http://www.w3.org/Graphics/SVG/1.1/DTD/svg11.dtd">
<svg width="1047" height="850" viewBox="-425 -425 1047 850" xmlns="http://www.w3.org/2000/svg" version="1.1">
<title>OpenSCAD Model</title>
<path d="
M 24.1033,424.655 L 26.3655,424.29 L 28.5534,423.748 L 30.6348,423.048 L 32.5816,422.214 L 34.3708,421.274
 L 35.9857,420.262 L 37.4163,419.211 L 38.6595,418.16 L 39.7198,417.145 L 40.6085,416.201 L 41.3436,415.36
 L 41.9491,414.649 L 42.454,414.092 L 42.8911,413.705 L 43.2959,413.498 L 43.7051,413.473 L 44.1552,413.626
 L 44.6811,413.946 L 45.3147,414.414 L 46.0838,415.006 L 47.0109,415.692 L 48.1124,416.441 L 49.3978,417.216
 L 50.8694,417.98 L 52.5226,418.698 L 54.3455,419.334 L 56.3195,419.856 L 58.4203,420.237 L 60.6186,420.454
 L 62.8814,420.492 L 65.173,420.341 L 67.4567,419.999 L 69.696,419.47 L 71.8561,418.768 L 73.9053,417.91
 L 75.8161,416.921 L 77.5663,415.831 L 79.1401,414.672 L 80.5282,413.481 L 81.7288,412.294 L 82.747,411.148
 L 83.5952,410.077 L 84.2922,409.112 L 84.8627,408.282 L 85.3362,407.608 L 85.746,407.106 L 86.1279,406.784
 L 86.5185,406.645 L 86.9543,406.683 L 87.4698,406.885 L 88.0965,407.233 L 88.8615,407.701 L 89.7866,408.26
 L 90.8872,408.876 L 92.172,409.514 L 93.6425,410.137 L 95.2928,410.708 L 97.1104,411.193 L 99.0757,411.561
 L 101.164,411.784 L 103.345,411.842 L 105.585,411.718 L 107.85,411.405 L 110.101,410.901 L 112.302,410.212
 L 114.419,409.351 L 116.422,408.338 L 118.282,407.198 L 119.978,405.96 L 121.496,404.659 L 122.828,403.33
 L 123.971,402.01 L 124.934,400.735 L 125.727,399.541 L 126.372,398.457 L 126.894,397.51 L 127.323,396.722
 L 127.692,396.108 L 128.037,395.675 L 128.395,395.424 L 128.803,395.349 L 129.295,395.437 L 129.901,395.667
 L 130.648,396.014 L 131.557,396.448 L 132.643,396.934 L 133.913,397.438 L 135.368,397.922 L 137.001,398.349
 L 138.799,398.687 L 140.741,398.903 L 142.802,398.972 L 144.951,398.873 L 147.155,398.592 L 149.377,398.12
 L 151.58,397.458 L 153.729,396.613 L 155.789,395.598 L 157.73,394.433 L 159.525,393.146 L 161.154,391.766
 L 162.602,390.326 L 163.863,388.864 L 164.936,387.416 L 165.828,386.018 L 166.554,384.705 L 167.134,383.506
 L 167.593,382.447 L 167.963,381.55 L 168.278,380.828 L 168.574,380.289 L 168.887,379.931 L 169.253,379.747
 L 169.708,379.724 L 170.28,379.841 L 170.995,380.071 L 171.875,380.384 L 172.933,380.745 L 174.174,381.118
 L 175.6,381.467 L 177.202,381.756 L 178.966,381.95 L 180.871,382.02 L 182.891,381.939 L 184.994,381.688
 L 187.146,381.253 L 189.312,380.628 L 191.453,379.814 L 193.536,378.817 L 195.525,377.654 L 197.39,376.344
 L 199.106,374.915 L 200.653,373.398 L 202.018,371.827 L 203.195,370.238 L 204.184,368.668 L 204.993,367.153
 L 205.638,365.726 L 206.139,364.419 L 206.524,363.255 L 207.071,361.431 L 207.304,360.79 L 207.559,360.33
 L 207.872,360.044 L 208.276,359.917 L 208.801,359.925 L 209.473,360.044 L 211.326,360.482 L 212.526,360.731
 L 213.91,360.951 L 215.467,361.106 L 217.184,361.162 L 219.038,361.091 L 221.002,360.866 L 223.046,360.47
 L 225.133,359.888 L 227.229,359.117 L 229.296,358.156 L 231.298,357.015 L 233.202,355.71 L 234.978,354.263
 L 236.602,352.7 L 238.055,351.053 L 239.324,349.357 L 240.403,347.649 L 241.295,345.964 L 242.009,344.34
 L 242.56,342.808 L 242.971,341.399 L 243.268,340.136 L 243.484,339.04 L 243.654,338.122 L 243.812,337.387
 L 243.997,336.833 L 244.244,336.451 L 244.586,336.226 L 245.053,336.133 L 245.668,336.147 L 246.451,336.236
 L 247.413,336.364 L 248.559,336.495 L 249.887,336.592 L 251.388,336.621 L 253.044,336.547 L 254.835,336.342
 L 256.731,335.981 L 258.702,335.446 L 260.712,334.726 L 262.724,333.815 L 264.703,332.716 L 266.612,331.44
 L 268.419,330.001 L 270.094,328.424 L 271.613,326.736 L 272.959,324.968 L 274.119,323.156 L 275.09,321.337
 L 275.874,319.547 L 276.48,317.821 L 276.926,316.193 L 277.235,314.691 L 277.434,313.339 L 277.555,312.155
 L 277.634,311.151 L 277.707,310.331 L 277.811,309.691 L 277.981,309.221 L 278.25,308.906 L 278.646,308.721
 L 279.194,308.638 L 279.91,308.626 L 280.807,308.649 L 281.887,308.67 L 283.149,308.653 L 284.58,308.563
 L 286.165,308.367 L 287.88,308.037 L 289.697,307.548 L 291.582,306.884 L 293.503,306.034 L 295.42,304.993
 L 297.299,303.766 L 299.103,302.362 L 300.8,300.8 L 302.362,299.103 L 303.766,297.299 L 304.993,295.42
 L 306.034,293.503 L 306.884,291.582 L 307.548,289.697 L 308.037,287.88 L 308.367,286.165 L 308.563,284.58
 L 308.653,283.149 L 308.67,281.887 L 308.649,280.807 L 308.626,279.91 L 308.638,279.194 L 308.721,278.646
 L 308.906,278.25 L 309.221,277.981 L 309.691,277.811 L 310.331,277.707 L 311.151,277.634 L 312.155,277.555
 L 313.339,277.434 L 314.691,277.235 L 316.193,276.926 L 317.821,276.48 L 319.547,275.874 L 321.337,275.09
 L 323.156,274.119 L 324.968,272.959 L 326.736,271.613 L 328.424,270.094 L 330.001,268.419 L 331.44,266.612
 L 332.716,264.703 L 333.815,262.724 L 334.726,260.712 L 335.446,258.702 L 335.981,256.731 L 336.342,254.835
 L 336.547,253.044 L 336.621,251.388 L 336.592,249.887 L 336.495,248.559 L 336.364,247.413 L 336.236,246.451
 L 336.147,245.668 L 336.133,245.053 L 336.226,244.586 L 336.451,244.244 L 336.833,243.997 L 337.387,243.812
 L 338.122,243.654 L 339.04,243.484 L 340.136,243.268 L 341.399,242.971 L 342.808,242.56 L 344.34,242.009
 L 345.964,241.295 L 347.649,240.403 L 349.357,239.324 L 351.053,238.055 L 352.7,236.602 L 354.263,234.978
 L 355.71,233.202 L 357.015,231.298 L 358.156,229.296 L 359.117,227.229 L 359.888,225.133 L 360.47,223.046
 L 360.866,221.002 L 361.091,219.038 L 361.162,217.184 L 361.106,215.467 L 360.951,213.91 L 360.731,212.526
 L 360.482,211.326 L 360.044,209.473 L 359.925,208.801 L 359.917,208.276 L 360.044,207.872 L 360.33,207.559
 L 360.79,207.304 L 361.431,207.071 L 363.255,206.524 L 364.419,206.139 L 365.726,205.638 L 367.153,204.993
 L 368.668,204.184 L 370.238,203.195 L 371.827,202.018 L 373.398,200.653 L 374.915,199.106 L 376.344,197.39
 L 377.654,195.525 L 378.817,193.536 L 379.814,191.453 L 380.628,189.312 L 381.253,187.146 L 381.688,184.994
 L 381.939,182.891 L 382.02,180.871 L 381.95,178.966 L 381.756,177.202 L 381.467,175.6 L 381.118,174.174
 L 380.745,172.933 L 380.384,171.875 L 380.071,170.995 L 379.841,170.28 L 379.724,169.708 L 379.747,169.253
 L 379.931,168.887 L 380.289,168.574 L 380.828,168.278 L 381.55,167.963 L 382.447,167.593 L 383.506,167.134
 L 384.705,166.554 L 386.018,165.828 L 387.416,164.936 L 388.864,163.863 L 390.326,162.602 L 391.766,161.154
 L 393.146,159.525 L 394.433,157.73 L 395.598,155.789 L 396.613,153.729 L 397.458,151.58 L 398.12,149.377
 L 398.592,147.155 L 398.873,144.951 L 398.972,142.802 L 398.903,140.741 L 398.687,138.799 L 398.349,137.001
 L 397.922,135.368 L 397.438,133.913 L 396.934,132.643 L 396.448,131.557 L 396.014,130.648 L 395.667,129.901
 L 395.437,129.295 L 395.349,128.803 L 395.424,128.395 L 395.675,128.037 L 396.108,127.692 L 396.722,127.323
 L 397.51,126.894 L 398.457,126.372 L 399.541,125.727 L 400.735,124.934 L 402.01,123.971 L 403.33,122.828
 L 404.659,121.496 L 405.96,119.978 L 407.198,118.282 L 408.338,116.422 L 409.351,114.419 L 410.212,112.302
 L 410.901,110.101 L 411.405,107.85 L 411.718,105.585 L 411.842,103.345 L 411.784,101.164 L 411.561,99.0757
 L 411.193,97.1104 L 410.708,95.2928 L 410.137,93.6425 L 409.514,92.172 L 408.876,90.8872 L 408.26,89.7866
 L 407.701,88.8615 L 407.233,88.0965 L 406.885,87.4698 L 406.683,86.9543 L 406.645,86.5185 L 406.784,86.1279
 L 407.106,85.746 L 407.608,85.3362 L 408.282,84.8627 L 409.112,84.2922 L 410.077,83.5952 L 411.148,82.747
 L 412.294,81.7288 L 413.481,80.5282 L 414.672,79.1401 L 415.831,77.5663 L 416.921,75.8161 L 417.91,73.9053
 L 418.768,71.8561 L 419.47,69.696 L 419.999,67.4567 L 420.341,65.173 L 420.492,62.8814 L 420.454,60.6186
 L 420.237,58.4203 L 419.856,56.3195 L 419.334,54.3455 L 418.698,52.5226 L 417.98,50.8694 L 417.216,49.3978
 L 416.441,48.1124 L 415.692,47.0109 L 415.006,46.0838 L 414.414,45.3147 L 413.946,44.6811 L 413.626,44.1552
 L 413.473,43.7051 L 413.498,43.2959 L 413.705,42.8911 L 414.092,42.454 L 414.649,41.9491 L 415.36,41.3436
 L 416.201,40.6085 L 417.145,39.7198 L 418.16,38.6595 L 419.211,37.4163 L 420.262,35.9857 L 421.274,34.3708
 L 422.214,32.5816 L 423.048,30.6348 L 423.748,28.5534 L 424.29,26.3655 L 424.655,24.1033 L 424.833,21.8018
 L 424.82,19.4977 L 424.619,17.2276 L 424.239,15.0269 L 423.699,12.9283 L 423.021,10.9605 L 422.233,9.14705
 L 421.368,7.50565 L 420.46,6.04723 L 419.547,4.7757 L 418.665,3.68767 L 417.85,2.77264 L 416.544,1.38687
 L 416.105,0.864502 L 415.835,0.41394 L 415.743,-0 L 415.835,-0.41394 L 416.105,-0.864502 L 416.544,-1.38687
 L 417.85,-2.77264 L 418.665,-3.68767 L 419.547,-4.7757 L 420.46,-6.04723 L 421.368,-7.50565 L 422.233,-9.14705
 L 423.021,-10.9605 L 423.699,-12.9283 L 424.239,-15.0269 L 424.619,-17.2276 L 424.82,-19.4977 L 424.833,-21.8018
 L 424.655,-24.1033 L 424.29,-26.3655 L 423.748,-28.5534 L 423.048,-30.6348 L 422.214,-32.5816 L 421.274,-34.3708
 L 420.262,-35.9857 L 419.211,-37.4163 L 418.16,-38.6595 L 417.145,-39.7198 L 416.201,-40.6085 L 415.36,-41.3436
 L 414.649,-41.9491 L 414.092,-42.454 L 413.705,-42.8911 L 413.498,-43.2959 L 413.473,-43.7051 L 413.626,-44.1552
 L 413.946,-44.6811 L 414.414,-45.3147 L 415.006,-46.0838 L 415.692,-47.0109 L 416.441,-48.1124 L 417.216,-49.3978
 L 417.98,-50.8694 L 418.698,-52.5226 L 419.334,-54.3455 L 419.856,-56.3195 L 420.237,-58.4203 L 420.454,-60.6186
 L 420.492,-62.8814 L 420.341,-65.173 L 419.999,-67.4567 L 419.47,-69.696 L 418.768,-71.8561 L 417.91,-73.9053
 L 416.921,-75.8161 L 415.831,-77.5663 L 414.672,-79.1401 L 413.481,-80.5282 L 412.294,-81.7288 L 411.148,-82.747
 L 410.077,-83.5952 L 409.112,-84.2922 L 408.282,-84.8627 L 407.608,-85.3362 L 407.106,-85.746 L 406.784,-86.1279
 L 406.645,-86.5185 L 406.683,-86.9543 L 406.885,-87.4698 L 407.233,-88.0965 L 407.701,-88.8615 L 408.26,-89.7866
 L 408.876,-90.8872 L 409.514,-92.172 L 410.137,-93.6425 L 410.708,-95.2928 L 411.193,-97.1104 L 411.561,-99.0757
 L 411.784,-101.164 L 411.842,-103.345 L 411.718,-105.585 L 411.405,-107.85 L 410.901,-110.101 L 410.212,-112.302
 L 409.351,-114.419 L 408.338,-116.422 L 407.198,-118.282 L 405.96,-119.978 L 404.659,-121.496 L 403.33,-122.828
 L 402.01,-123.971 L 400.735,-124.934 L 399.541,-125.727 L 398.457,-126.372 L 397.51,-126.894 L 396.722,-127.323
 L 396.108,-127.692 L 395.675,-128.037 L 395.424,-128.395 L 395.349,-128.803 L 395.437,-129.295 L 395.667,-129.901
 L 396.014,-130.648 L 396.448,-131.557 L 396.934,-132.643 L 397.438,-133.913 L 397.922,-135.368 L 398.349,-137.001
 L 398.687,-138.799 L 398.903,-140.741 L 398.972,-142.802 L 398.873,-144.951 L 398.592,-147.155 L 398.12,-149.377
 L 397.458,-151.58 L 396.613,-153.729 L 395.598,-155.789 L 394.433,-157.73 L 393.146,-159.525 L 391.766,-161.154
 L 390.326,-162.602 L 388.864,-163.863 L 387.416,-164.936 L 386.018,-165.828 L 384.705,-166.554 L 383.506,-167.134
 L 382.447,-167.593 L 381.55,-167.963 L 380.828,-168.278 L 380.289,-168.574 L 379.931,-168.887 L 379.747,-169.253
 L 379.724,-169.708 L 379.841,-170.28 L 380.071,-170.995 L 380.384,-171.875 L 380.745,-172.933 L 381.118,-174.174
 L 381.467,-175.6 L 381.756,-177.202 L 381.95,-178.966 L 382.02,-180.871 L 381.939,-182.891 L 381.688,-184.994
 L 381.253,-187.146 L 380.628,-189.312 L 379.814,-191.453 L 378.817,-193.536 L 377.654,-195.525 L 376.344,-197.39
 L 374.915,-199.106 L 373.398,-200.653 L 371.827,-202.018 L 370.238,-203.195 L 368.668,-204.184 L 367.153,-204.993
 L 365.726,-205.638 L 364.419,-206.139 L 363.255,-206.524 L 361.431,-207.071 L 360.79,-207.304 L 360.33,-207.559
 L 360.044,-207.872 L 359.917,-208.276 L 359.925,-208.801 L 360.044,-209.473 L 360.482,-211.326 L 360.731,-212.526
 L 360.951,-213.91 L 361.106,-215.467 L 361.162,-217.184 L 361.091,-219.038 L 360.866,-221.002 L 360.47,-223.046
 L 359.888,-225.133 L 359.117,-227.229 L 358.156,-229.296 L 357.015,-231.298 L 355.71,-233.202 L 354.263,-234.978
 L 352.7,-236.602 L 351.053,-238.055 L 349.357,-239.324 L 347.649,-240.403 L 345.964,-241.295 L 344.34,-242.009
 L 342.808,-242.56 L 341.399,-242.971 L 340.136,-243.268 L 339.04,-243.484 L 338.122,-243.654 L 337.387,-243.812
 L 336.833,-243.997 L 336.451,-244.244 L 336.226,-244.586 L 336.133,-245.053 L 336.147,-245.668 L 336.236,-246.451
 L 336.364,-247.413 L 336.495,-248.559 L 336.592,-249.887 L 336.621,-251.388 L 336.547,-253.044 L 336.342,-254.835
 L 335.981,-256.731 L 335.446,-258.702 L 334.726,-260.712 L 333.815,-262.724 L 332.716,-264.703 L 331.44,-266.612
 L 330.001,-268.419 L 328.424,-270.094 L 326.736,-271.613 L 324.968,-272.959 L 323.156,-274.119 L 321.337,-275.09
 L 319.547,-275.874 L 317.821,-276.48 L 316.193,-276.926 L 314.691,-277.235 L 313.339,-277.434 L 312.155,-277.555
 L 311.151,-277.634 L 310.331,-277.707 L 309.691,-277.811 L 309.221,-277.981 L 308.906,-278.25 L 308.721,-278.646
 L 308.638,-279.194 L 308.626,-279.91 L 308.649,-280.807 L 308.67,-281.887 L 308.653,-283.149 L 308.563,-284.58
 L 308.367,-286.165 L 308.037,-287.88 L 307.548,-289.697 L 306.884,-291.582 L 306.034,-293.503 L 304.993,-295.42
 L 303.766,-297.299 L 302.362,-299.103 L 300.8,-300.8 L 299.103,-302.362 L 297.299,-303.766 L 295.42,-304.993
 L 293.503,-306.034 L 291.582,-306.884 L 289.697,-307.548 L 287.88,-308.037 L 286.165,-308.367 L 284.58,-308.563
 L 283.149,-308.653 L 281.887,-308.67 L 280.807,-308.649 L 279.91,-308.626 L 279.194,-308.638 L 278.646,-308.721
 L 278.25,-308.906 L 277.981,-309.221 L 277.811,-309.691 L 277.707,-310.331 L 277.634,-311.151 L 277.555,-312.155
 L 277.434,-313.339 L 277.235,-314.691 L 276.926,-316.193 L 276.48,-317.821 L 275.874,-319.547 L 275.09,-321.337
 L 274.119,-323.156 L 272.959,-324.968 L 271.613,-326.736 L 270.094,-328.424 L 268.419,-330.001 L 266.612,-331.44
 L 264.703,-332.716 L 262.724,-333.815 L 260.712,-334.726 L 258.702,-335.446 L 256.731,-335.981 L 254.835,-336.342
 L 253.044,-336.547 L 251.388,-336.621 L 249.887,-336.592 L 248.559,-336.495 L 247.413,-336.364 L 246.451,-336.236
 L 245.668,-336.147 L 245.053,-336.133 L 244.586,-336.226 L 244.244,-336.451 L 243.997,-336.833 L 243.812,-337.387
 L 243.654,-338.122 L 243.484,-339.04 L 243.268,-340.136 L 242.971,-341.399 L 242.56,-342.808 L 242.009,-344.34
 L 241.295,-345.964 L 240.403,-347.649 L 239.324,-349.357 L 238.055,-351.053 L 236.602,-352.7 L 234.978,-354.263
 L 233.202,-355.71 L 231.298,-357.015 L 229.296,-358.156 L 227.229,-359.117 L 225.133,-359.888 L 223.046,-360.47
 L 221.002,-360.866 L 219.038,-361.091 L 217.184,-361.162 L 215.467,-361.106 L 213.91,-360.951 L 212.526,-360.731
 L 211.326,-360.482 L 209.473,-360.044 L 208.801,-359.925 L 208.276,-359.917 L 207.872,-360.044 L 207.559,-360.33
 L 207.304,-360.79 L 207.071,-361.431 L 206.524,-363.255 L 206.139,-364.419 L 205.638,-365.726 L 204.993,-367.153
 L 204.184,-368.668 L 203.195,-370.238 L 202.018,-371.827 L 200.653,-373.398 L 199.106,-374.915 L 197.39,-376.344
 L 195.525,-377.654 L 193.536,-378.817 L 191.453,-379.814 L 189.312,-380.628 L 187.146,-381.253 L 184.994,-381.688
 L 182.891,-381.939 L 180.871,-382.02 L 178.966,-381.95 L 177.202,-381.756 L 175.6,-381.467 L 174.174,-381.118
 L 172.933,-380.745 L 171.875,-380.384 L 170.995,-380.071 L 170.28,-379.841 L 169.708,-379.724 L 169.253,-379.747
 L 168.887,-379.931 L 168.574,-380.289 L 168.278,-380.828 L 167.963,-381.55 L 167.593,-382.447 L 167.134,-383.506
 L 166.554,-384.705 L 165.828,-386.018 L 164.936,-387.416 L 163.863,-388.864 L 162.602,-390.326 L 161.154,-391.766
 L 159.525,-393.146 L 157.73,-394.433 L 155.789,-395.598 L 153.729,-396.613 L 151.58,-397.458 L 149.377,-398.12
 L 147.155,-398.592 L 144.951,-398.873 L 142.802,-398.972 L 140.741,-398.903 L 138.799,-398.687 L 137.001,-398.349
 L 135.368,-397.922 L 133.913,-397.438 L 132.643,-396.934 L 131.557,-396.448 L 130.648,-396.014 L 129.901,-395.667
 L 129.295,-395.437 L 128.803,-395.349 L 128.395,-395.424 L 128.037,-395.675 L 127.692,-396.108 L 127.323,-396.722
 L 126.894,-397.51 L 126.372,-398.457 L 125.727,-399.541 L 124.934,-400.735 L 123.971,-402.01 L 122.828,-403.33
 L 121.496,-404.659 L 119.978,-405.96 L 118.282,-407.198 L 116.422,-408.338 L 114.419,-409.351 L 112.302,-410.212
 L 110.101,-410.901 L 107.85,-411.405 L 105.585,-411.718 L 103.345,-411.842 L 101.164,-411.784 L 99.0757,-411.561
 L 97.1104,-411.193 L 95.2928,-410.708 L 93.6425,-410.137 L 92.172,-409.514 L 90.8872,-408.876 L 89.7866,-408.26
 L 88.8615,-407.701 L 88.0965,-407.233 L 87.4698,-406.885 L 86.9543,-406.683 L 86.5185,-406.645 L 86.1279,-406.784
 L 85.746,-407.106 L 85.3362,-407.608 L 84.8627,-408.282 L 84.2922,-409.112 L 83.5952,-410.077 L 82.747,-411.148
 L 81.7288,-412.294 L 80.5282,-413.481 L 79.1401,-414.672 L 77.5663,-415.831 L 75.8161,-416.921 L 73.9053,-417.91
 L 71.8561,-418.768 L 69.696,-419.47 L 67.4567,-419.999 L 65.173,-420.341 L 62.8814,-420.492 L 60.6186,-420.454
 L 58.4203,-420.237 L 56.3195,-419.856 L 54.3455,-419.334 L 52.5226,-418.698 L 50.8694,-417.98 L 49.3978,-417.216
 L 48.1124,-416.441 L 47.0109,-415.692 L 46.0838,-415.006 L 45.3147,-414.414 L 44.6811,-413.946 L 44.1552,-413.626
 L 43.7051,-413.473 L 43.2959,-413.498 L 42.8911,-413.705 L 42.454,-414.092 L 41.9491,-414.649 L 41.3436,-415.36
 L 40.6085,-416.201 L 39.7198,-417.145 L 38.6595,-418.16 L 37.4163,-419.211 L 35.9857,-420.262 L 34.3708,-421.274
 L 32.5816,-422.214 L 30.6348,-423.048 L 28.5534,-423.748 L 26.3655,-424.29 L 24.1033,-424.655 L 21.8018,-424.833
 L 19.4977,-424.82 L 17.2276,-424.619 L 15.0269,-424.239 L 12.9283,-423.699 L 10.9605,-423.021 L 9.14705,-422.233
 L 7.50565,-421.368 L 6.04723,-420.46 L 4.7757,-419.547 L 3.68767,-418.665 L 2.77264,-417.85 L 1.38687,-416.544
 L 0.864502,-416.105 L 0.41394,-415.835 L 0,-415.743 L -0.41394,-415.835 L -0.864502,-416.105 L -1.38687,-416.544
 L -2.77264,-417.85 L -3.68767,-418.665 L -4.7757,-419.547 L -6.04723,-420.46 L -7.50565,-421.368 L -9.14705,-422.233
 L -10.9605,-423.021 L -12.9283,-423.699 L -15.0269,-424.239 L -17.2276,-424.619 L -19.4977,-424.82 L -21.8018,-424.833
 L -24.1033,-424.655 L -26.3655,-424.29 L -28.5534,-423.748 L -30.6348,-423.048 L -32.5816,-422.214 L -34.3708,-421.274
 L -35.9857,-420.262 L -37.4163,-419.211 L -38.6595,-418.16 L -39.7198,-417.145 L -40.6085,-416.201 L -41.3436,-415.36
 L -41.9491,-414.649 L -42.454,-414.092 L -42.8911,-413.705 L -43.2959,-413.498 L -43.7051,-413.473 L -44.1552,-413.626
 L -44.6811,-413.946 L -45.3147,-414.414 L -46.0838,-415.006 L -47.0109,-415.692 L -48.1124,-416.441 L -49.3978,-417.216
 L -50.8694,-417.98 L -52.5226,-418.698 L -54.3455,-419.334 L -56.3195,-419.856 L -58.4203,-420.237 L -60.6186,-420.454
 L -62.8814,-420.492 L -65.173,-420.341 L -67.4567,-419.999 L -69.696,-419.47 L -71.8561,-418.768 L -73.9053,-417.91
 L -75.8161,-416.921 L -77.5663,-415.831 L -79.1401,-414.672 L -80.5282,-413.481 L -81.7288,-412.294 L -82.747,-411.148
 L -83.5952,-410.077 L -84.2922,-409.112 L -84.8627,-408.282 L -85.3362,-407.608 L -85.746,-407.106 L -86.1279,-406.784
 L -86.5185,-406.645 L -86.9543,-406.683 L -87.4698,-406.885 L -88.0965,-407.233 L -88.8615,-407.701 L -89.7866,-408.26
 L -90.8872,-408.876 L -92.172,-409.514 L -93.6425,-410.137 L -95.2928,-410.708 L -97.1104,-411.193 L -99.0757,-411.561
 L -101.164,-411.784 L -103.345,-411.842 L -105.585,-411.718 L -107.85,-411.405 L -110.101,-410.901 L -112.302,-410.212
 L -114.419,-409.351 L -116.422,-408.338 L -118.282,-407.198 L -119.978,-405.96 L -121.496,-404.659 L -122.828,-403.33
 L -123.971,-402.01 L -124.934,-400.735 L -125.727,-399.541 L -126.372,-398.457 L -126.894,-397.51 L -127.323,-396.722
 L -127.692,-396.108 L -128.037,-395.675 L -128.395,-395.424 L -128.803,-395.349 L -129.295,-395.437 L -129.901,-395.667
 L -130.648,-396.014 L -131.557,-396.448 L -132.643,-396.934 L -133.913,-397.438 L -135.368,-397.922 L -137.001,-398.349
 L -138.799,-398.687 L -140.741,-398.903 L -142.802,-398.972 L -144.951,-398.873 L -147.155,-398.592 L -149.377,-398.12
 L -151.58,-397.458 L -153.729,-396.613 L -155.789,-395.598 L -157.73,-394.433 L -159.525,-393.146 L -161.154,-391.766
 L -162.602,-390.326 L -163.863,-388.864 L -164.936,-387.416 L -165.828,-386.018 L -166.554,-384.705 L -167.134,-383.506
 L -167.593,-382.447 L -167.963,-381.55 L -168.278,-380.828 L -168.574,-380.289 L -168.887,-379.931 L -169.253,-379.747
 L -169.708,-379.724 L -170.28,-379.841 L -170.995,-380.071 L -171.875,-380.384 L -172.933,-380.745 L -174.174,-381.118
 L -175.6,-381.467 L -177.202,-381.756 L -178.966,-381.95 L -180.871,-382.02 L -182.891,-381.939 L -184.994,-381.688
 L -187.146,-381.253 L -189.312,-380.628 L -191.453,-379.814 L -193.536,-378.817 L -195.525,-377.654 L -197.39,-376.344
 L -199.106,-374.915 L -200.653,-373.398 L -202.018,-371.827 L -203.195,-370.238 L -204.184,-368.668 L -204.993,-367.153
 L -205.638,-365.726 L -206.139,-364.419 L -206.524,-363.255 L -207.071,-361.431 L -207.304,-360.79 L -207.559,-360.33
 L -207.872,-360.044 L -208.276,-359.917 L -208.801,-359.925 L -209.473,-360.044 L -211.326,-360.482 L -212.526,-360.731
 L -213.91,-360.951 L -215.467,-361.106 L -217.184,-361.162 L -219.038,-361.091 L -221.002,-360.866 L -223.046,-360.47
 L -225.133,-359.888 L -227.229,-359.117 L -229.296,-358.156 L -231.298,-357.015 L -233.202,-355.71 L -234.978,-354.263
 L -236.602,-352.7 L -238.055,-351.053 L -239.324,-349.357 L -240.403,-347.649 L -241.295,-345.964 L -242.009,-344.34
 L -242.56,-342.808 L -242.971,-341.399 L -243.268,-340.136 L -243.484,-339.04 L -243.654,-338.122 L -243.812,-337.387
 L -243.997,-336.833 L -244.244,-336.451 L -244.586,-336.226 L -245.053,-336.133 L -245.668,-336.147 L -246.451,-336.236
 L -247.413,-336.364 L -248.559,-336.495 L -249.887,-336.592 L -251.388,-336.621 L -253.044,-336.547 L -254.835,-336.342
 L -256.731,-335.981 L -258.702,-335.446 L -260.712,-334.726 L -262.724,-333.815 L -264.703,-332.716 L -266.612,-331.44
 L -268.419,-330.001 L -270.094,-328.424 L -271.613,-326.736 L -272.959,-324.968 L -274.119,-323.156 L -275.09,-321.337
 L -275.874,-319.547 L -276.48,-317.821 L -276.926,-316.193 L -277.235,-314.691 L -277.434,-313.339 L -277.555,-312.155
 L -277.634,-311.151 L -277.707,-310.331 L -277.811,-309.691 L -277.981,-309.221 L -278.25,-308.906 L -278.646,-308.721
 L -279.194,-308.638 L -279.91,-308.626 L -280.807,-308.649 L -281.887,-308.67 L -283.149,-308.653 L -284.58,-308.563
 L -286.165,-308.367 L -287.88,-308.037 L -289.697,-307.548 L -291.582,-306.884 L -293.503,-306.034 L -295.42,-304.993
 L -297.299,-303.766 L -299.103,-302.362 L -300.8,-300.8 L -302.362,-299.103 L -303.766,-297.299 L -304.993,-295.42
 L -306.034,-293.503 L -306.884,-291.582 L -307.548,-289.697 L -308.037,-287.88 L -308.367,-286.165 L -308.563,-284.58
 L -308.653,-283.149 L -308.67,-281.887 L -308.649,-280.807 L -308.626,-279.91 L -308.638,-279.194 L -308.721,-278.646
 L -308.906,-278.25 L -309.221,-277.981 L -309.691,-277.811 L -310.331,-277.707 L -311.151,-277.634 L -312.155,-277.555
 L -313.339,-277.434 L -314.691,-277.235 L -316.193,-276.926 L -317.821,-276.48 L -319.547,-275.874 L -321.337,-275.09
 L -323.156,-274.119 L -324.968,-272.959 L -326.736,-271.613 L -328.424,-270.094 L -330.001,-268.419 L -331.44,-266.612
 L -332.716,-264.703 L -333.815,-262.724 L -334.726,-260.712 L -335.446,-258.702 L -335.981,-256.731 L -336.342,-254.835
 L -336.547,-253.044 L -336.621,-251.388 L -336.592,-249.887 L -336.495,-248.559 L -336.364,-247.413 L -336.236,-246.451
 L -336.147,-245.668 L -336.133,-245.053 L -336.226,-244.586 L -336.451,-244.244 L -336.833,-243.997 L -337.387,-243.812
 L -338.122,-243.654 L -339.04,-243.484 L -340.136,-243.268 L -341.399,-242.971 L -342.808,-242.56 L -344.34,-242.009
 L -345.964,-241.295 L -347.649,-240.403 L -349.357,-239.324 L -351.053,-238.055 L -352.7,-236.602 L -354.263,-234.978
 L -355.71,-233.202 L -357.015,-231.298 L -358.156,-229.296 L -359.117,-227.229 L -359.888,-225.133 L -360.47,-223.046
 L -360.866,-221.002 L -361.091,-219.038 L -361.162,-217.184 L -361.106,-215.467 L -360.951,-213.91 L -360.731,-212.526
 L -360.482,-211.326 L -360.044,-209.473 L -359.925,-208.801 L -359.917,-208.276 L -360.044,-207.872 L -360.33,-207.559
 L -360.79,-207.304 L -361.431,-207.071 L -363.255,-206.524 L -364.419,-206.139 L -365.726,-205.638 L -367.153,-204.993
 L -368.668,-204.184 L -370.238,-203.195 L -371.827,-202.018 L -373.398,-200.653 L -374.915,-199.106 L -376.344,-197.39
 L -377.654,-195.525 L -378.817,-193.536 L -379.814,-191.453 L -380.628,-189.312 L -381.253,-187.146 L -381.688,-184.994
 L -381.939,-182.891 L -382.02,-180.871 L -381.95,-178.966 L -381.756,-177.202 L -381.467,-175.6 L -381.118,-174.174
 L -380.745,-172.933 L -380.384,-171.875 L -380.071,-170.995 L -379.841,-170.28 L -379.724,-169.708 L -379.747,-169.253
 L -379.931,-168.887 L -380.289,-168.574 L -380.828,-168.278 L -381.55,-167.963 L -382.447,-167.593 L -383.506,-167.134
 L -384.705,-166.554 L -386.018,-165.828 L -387.416,-164.936 L -388.864,-163.863 L -390.326,-162.602 L -391.766,-161.154
 L -393.146,-159.525 L -394.433,-157.73 L -395.598,-155.789 L -396.613,-153.729 L -397.458,-151.58 L -398.12,-149.377
 L -398.592,-147.155 L -398.873,-144.951 L -398.972,-142.802 L -398.903,-140.741 L -398.687,-138.799 L -398.349,-137.001
 L -397.922,-135.368 L -397.438,-133.913 L -396.934,-132.643 L -396.448,-131.557 L -396.014,-130.648 L -395.667,-129.901
 L -395.437,-129.295 L -395.349,-128.803 L -395.424,-128.395 L -395.675,-128.037 L -396.108,-127.692 L -396.722,-127.323
 L -397.51,-126.894 L -398.457,-126.372 L -399.541,-125.727 L -400.735,-124.934 L -402.01,-123.971 L -403.33,-122.828
 L -404.659,-121.496 L -405.96,-119.978 L -407.198,-118.282 L -408.338,-116.422 L -409.351,-114.419 L -410.212,-112.302
 L -410.901,-110.101 L -411.405,-107.85 L -411.718,-105.585 L -411.842,-103.345 L -411.784,-101.164 L -411.561,-99.0757
 L -411.193,-97.1104 L -410.708,-95.2928 L -410.137,-93.6425 L -409.514,-92.172 L -408.876,-90.8872 L -408.26,-89.7866
 L -407.701,-88.8615 L -407.233,-88.0965 L -406.885,-87.4698 L -406.683,-86.9543 L -406.645,-86.5185 L -406.784,-86.1279
 L -407.106,-85.746 L -407.608,-85.3362 L -408.282,-84.8627 L -409.112,-84.2922 L -410.077,-83.5952 L -411.148,-82.747
 L -412.294,-81.7288 L -413.481,-80.5282 L -414.672,-79.1401 L -415.831,-77.5663 L -416.921,-75.8161 L -417.91,-73.9053
 L -418.768,-71.8561 L -419.47,-69.696 L -419.999,-67.4567 L -420.341,-65.173 L -420.492,-62.8814 L -420.454,-60.6186
 L -420.237,-58.4203 L -419.856,-56.3195 L -419.334,-54.3455 L -418.698,-52.5226 L -417.98,-50.8694 L -417.216,-49.3978
 L -416.441,-48.1124 L -415.692,-47.0109 L -415.006,-46.0838 L -414.414,-45.3147 L -413.946,-44.6811 L -413.626,-44.1552
 L -413.473,-43.7051 L -413.498,-43.2959 L -413.705,-42.8911 L -414.092,-42.454 L -414.649,-41.9491 L -415.36,-41.3436
 L -416.201,-40.6085 L -417.145,-39.7198 L -418.16,-38.6595 L -419.211,-37.4163 L -420.262,-35.9857 L -421.274,-34.3708
 L -422.214,-32.5816 L -423.048,-30.6348 L -423.748,-28.5534 L -424.29,-26.3655 L -424.655,-24.1033 L -424.833,-21.8018
 L -424.82,-19.4977 L -424.619,-17.2276 L -424.239,-15.0269 L -423.699,-12.9283 L -423.021,-10.9605 L -422.233,-9.14705
 L -421.368,-7.50565 L -420.46,-6.04723 L -419.547,-4.7757 L -418.665,-3.68767 L -417.85,-2.77264 L -416.544,-1.38687
 L -416.105,-0.864502 L -415.835,-0.41394 L -415.743,-0 L -415.835,0.41394 L -416.105,0.864502 L -416.544,1.38687
 L -417.85,2.77264 L -418.665,3.68767 L -419.547,4.7757 L -420.46,6.04723 L -421.368,7.50565 L -422.233,9.14705
 L -423.021,10.9605 L -423.699,12.9283 L -424.239,15.0269 L -424.619,17.2276 L -424.82,19.4977 L -424.833,21.8018
 L -424.655,24.1033 L -424.29,26.3655 L -423.748,28.5534 L -423.048,30.6348 L -422.214,32.5816 L -421.274,34.3708
 L -420.262,35.9857 L -419.211,37.4163 L -418.16,38.6595 L -417.145,39.7198 L -416.201,40.6085 L -415.36,41.3436
 L -414.649,41.9491 L -414.092,42.454 L -413.705,42.8911 L -413.498,43.2959 L -413.473,43.7051 L -413.626,44.1552
 L -413.946,44.6811 L -414.414,45.3147 L -415.006,46.0838 L -415.692,47.0109 L -416.441,48.1124 L -417.216,49.3978
 L -417.98,50.8694 L -418.698,52.5226 L -419.334,54.3455 L -419.856,56.3195 L -420.237,58.4203 L -420.454,60.6186
 L -420.492,62.8814 L -420.341,65.173 L -419.999,67.4567 L -419.47,69.696 L -418.768,71.8561 L -417.91,73.9053
 L -416.921,75.8161 L -415.831,77.5663 L -414.672,79.1401 L -413.481,80.5282 L -412.294,81.7288 L -411.148,82.747
 L -410.077,83.5952 L -409.112,84.2922 L -408.282,84.8627 L -407.608,85.3362 L -407.106,85.746 L -406.784,86.1279
 L -406.645,86.5185 L -406.683,86.9543 L -406.885,87.4698 L -407.233,88.0965 L -407.701,88.8615 L -408.26,89.7866
 L -408.876,90.8872 L -409.514,92.172 L -410.137,93.6425 L -410.708,95.2928 L -411.193,97.1104 L -411.561,99.0757
 L -411.784,101.164 L -411.842,103.345 L -411.718,105.585 L -411.405,107.85 L -410.901,110.101 L -410.212,112.302
 L -409.351,114.419 L -408.338,116.422 L -407.198,118.282 L -405.96,119.978 L -404.659,121.496 L -403.33,122.828
 L -402.01,123.971 L -400.735,124.934 L -399.541,125.727 L -398.457,126.372 L -397.51,126.894 L -396.722,127.323
 L -396.108,127.692 L -395.675,128.037 L -395.424,128.395 L -395.349,128.803 L -395.437,129.295 L -395.667,129.901
 L -396.014,130.648 L -396.448,131.557 L -396.934,132.643 L -397.438,133.913 L -397.922,135.368 L -398.349,137.001
 L -398.687,138.799 L -398.903,140.741 L -398.972,142.802 L -398.873,144.951 L -398.592,147.155 L -398.12,149.377
 L -397.458,151.58 L -396.613,153.729 L -395.598,155.789 L -394.433,157.73 L -393.146,159.525 L -391.766,161.154
 L -390.326,162.602 L -388.864,163.863 L -387.416,164.936 L -386.018,165.828 L -384.705,166.554 L -383.506,167.134
 L -382.447,167.593 L -381.55,167.963 L -380.828,168.278 L -380.289,168.574 L -379.931,168.887 L -379.747,169.253
 L -379.724,169.708 L -379.841,170.28 L -380.071,170.995 L -380.384,171.875 L -380.745,172.933 L -381.118,174.174
 L -381.467,175.6 L -381.756,177.202 L -381.95,178.966 L -382.02,180.871 L -381.939,182.891 L -381.688,184.994
 L -381.253,187.146 L -380.628,189.312 L -379.814,191.453 L -378.817,193.536 L -377.654,195.525 L -376.344,197.39
 L -374.915,199.106 L -373.398,200.653 L -371.827,202.018 L -370.238,203.195 L -368.668,204.184 L -367.153,204.993
 L -365.726,205.638 L -364.419,206.139 L -363.255,206.524 L -361.431,207.071 L -360.79,207.304 L -360.33,207.559
 L -360.044,207.872 L -359.917,208.276 L -359.925,208.801 L -360.044,209.473 L -360.482,211.326 L -360.731,212.526
 L -360.951,213.91 L -361.106,215.467 L -361.162,217.184 L -361.091,219.038 L -360.866,221.002 L -360.47,223.046
 L -359.888,225.133 L -359.117,227.229 L -358.156,229.296 L -357.015,231.298 L -355.71,233.202 L -354.263,234.978
 L -352.7,236.602 L -351.053,238.055 L -349.357,239.324 L -347.649,240.403 L -345.964,241.295 L -344.34,242.009
 L -342.808,242.56 L -341.399,242.971 L -340.136,243.268 L -339.04,243.484 L -338.122,243.654 L -337.387,243.812
 L -336.833,243.997 L -336.451,244.244 L -336.226,244.586 L -336.133,245.053 L -336.147,245.668 L -336.236,246.451
 L -336.364,247.413 L -336.495,248.559 L -336.592,249.887 L -336.621,251.388 L -336.547,253.044 L -336.342,254.835
 L -335.981,256.731 L -335.446,258.702 L -334.726,260.712 L -333.815,262.724 L -332.716,264.703 L -331.44,266.612
 L -330.001,268.419 L -328.424,270.094 L -326.736,271.613 L -324.968,272.959 L -323.156,274.119 L -321.337,275.09
 L -319.547,275.874 L -317.821,276.48 L -316.193,276.926 L -314.691,277.235 L -313.339,277.434 L -312.155,277.555
 L -311.151,277.634 L -310.331,277.707 L -309.691,277.811 L -309.221,277.981 L -308.906,278.25 L -308.721,278.646
 L -308.638,279.194 L -308.626,279.91 L -308.649,280.807 L -308.67,281.887 L -308.653,283.149 L -308.563,284.58
 L -308.367,286.165 L -308.037,287.88 L -307.548,289.697 L -306.884,291.582 L -306.034,293.503 L -304.993,295.42
 L -303.766,297.299 L -302.362,299.103 L -300.8,300.8 L -299.103,302.362 L -297.299,303.766 L -295.42,304.993
 L -293.503,306.034 L -291.582,306.884 L -289.697,307.548 L -287.88,308.037 L -286.165,308.367 L -284.58,308.563
 L -283.149,308.653 L -281.887,308.67 L -280.807,308.649 L -279.91,308.626 L -279.194,308.638 L -278.646,308.721
 L -278.25,308.906 L -277.981,309.221 L -277.811,309.691 L -277.707,310.331 L -277.634,311.151 L -277.555,312.155
 L -277.434,313.339 L -277.235,314.691 L -276.926,316.193 L -276.48,317.821 L -275.874,319.547 L -275.09,321.337
 L -274.119,323.156 L -272.959,324.968 L -271.613,326.736 L -270.094,328.424 L -268.419,330.001 L -266.612,331.44
 L -264.703,332.716 L -262.724,333.815 L -260.712,334.726 L -258.702,335.446 L -256.731,335.981 L -254.835,336.342
 L -253.044,336.547 L -251.388,336.621 L -249.887,336.592 L -248.559,336.495 L -247.413,336.364 L -246.451,336.236
 L -245.668,336.147 L -245.053,336.133 L -244.586,336.226 L -244.244,336.451 L -243.997,336.833 L -243.812,337.387
 L -243.654,338.122 L -243.484,339.04 L -243.268,340.136 L -242.971,341.399 L -242.56,342.808 L -242.009,344.34
 L -241.295,345.964 L -240.403,347.649 L -239.324,349.357 L -238.055,351.053 L -236.602,352.7 L -234.978,354.263
 L -233.202,355.71 L -231.298,357.015 L -229.296,358.156 L -227.229,359.117 L -225.133,359.888 L -223.046,360.47
 L -221.002,360.866 L -219.038,361.091 L -217.184,361.162 L -215.467,361.106 L -213.91,360.951 L -212.526,360.731
 L -211.326,360.482 L -209.473,360.044 L -208.801,359.925 L -208.276,359.917 L -207.872,360.044 L -207.559,360.33
 L -207.304,360.79 L -207.071,361.431 L -206.524,363.255 L -206.139,364.419 L -205.638,365.726 L -204.993,367.153
 L -204.184,368.668 L -203.195,370.238 L -202.018,371.827 L -200.653,373.398 L -199.106,374.915 L -197.39,376.344
 L -195.525,377.654 L -193.536,378.817 L -191.453,379.814 L -189.312,380.628 L -187.146,381.253 L -184.994,381.688
 L -182.891,381.939 L -180.871,382.02 L -178.966,381.95 L -177.202,381.756 L -175.6,381.467 L -174.174,381.118
 L -172.933,380.745 L -171.875,380.384 L -170.995,380.071 L -170.28,379.841 L -169.708,379.724 L -169.253,379.747
 L -168.887,379.931 L -168.574,380.289 L -168.278,380.828 L -167.963,381.55 L -167.593,382.447 L -167.134,383.506
 L -166.554,384.705 L -165.828,386.018 L -164.936,387.416 L -163.863,388.864 L -162.602,390.326 L -161.154,391.766
 L -159.525,393.146 L -157.73,394.433 L -155.789,395.598 L -153.729,396.613 L -151.58,397.458 L -149.377,398.12
 L -147.155,398.592 L -144.951,398.873 L -142.802,398.972 L -140.741,398.903 L -138.799,398.687 L -137.001,398.349
 L -135.368,397.922 L -133.913,397.438 L -132.643,396.934 L -131.557,396.448 L -130.648,396.014 L -129.901,395.667
 L -129.295,395.437 L -128.803,395.349 L -128.395,395.424 L -128.037,395.675 L -127.692,396.108 L -127.323,396.722
 L -126.894,397.51 L -126.372,398.457 L -125.727,399.541 L -124.934,400.735 L -123.971,402.01 L -122.828,403.33
 L -121.496,404.659 L -119.978,405.96 L -118.282,407.198 L -116.422,408.338 L -114.419,409.351 L -112.302,410.212
 L -110.101,410.901 L -107.85,411.405 L -105.585,411.718 L -103.345,411.842 L -101.164,411.784 L -99.0757,411.561
 L -97.1104,411.193 L -95.2928,410.708 L -93.6425,410.137 L -92.172,409.514 L -90.8872,408.876 L -89.7866,408.26
 L -88.8615,407.701 L -88.0965,407.233 L -87.4698,406.885 L -86.9543,406.683 L -86.5185,406.645 L -86.1279,406.784
 L -85.746,407.106 L -85.3362,407.608 L -84.8627,408.282 L -84.2922,409.112 L -83.5952,410.077 L -82.747,411.148
 L -81.7288,412.294 L -80.5282,413.481 L -79.1401,414.672 L -77.5663,415.831 L -75.8161,416.921 L -73.9053,417.91
 L -71.8561,418.768 L -69.696,419.47 L -67.4567,419.999 L -65.173,420.341 L -62.8814,420.492 L -60.6186,420.454
 L -58.4203,420.237 L -56.3195,419.856 L -54.3455,419.334 L -52.5226,418.698 L -50.8694,417.98 L -49.3978,417.216
 L -48.1124,416.441 L -47.0109,415.692 L -46.0838,415.006 L -45.3147,414.414 L -44.6811,413.946 L -44.1552,413.626
 L -43.7051,413.473 L -43.2959,413.498 L -42.8911,413.705 L -42.454,414.092 L -41.9491,414.649 L -41.3436,415.36
 L -40.6085,416.201 L -39.7198,417.145 L -38.6595,418.16 L -37.4163,419.211 L -35.9857,420.262 L -34.3708,421.274
 L -32.5816,422.214 L -30.6348,423.048 L -28.5534,423.748 L -26.3655,424.29 L -24.1033,424.655 L -21.8018,424.833
 L -19.4977,424.82 L -17.2276,424.619 L -15.0269,424.239 L -12.9283,423.699 L -10.9605,423.021 L -9.14705,422.233
 L -7.50565,421.368 L -6.04723,420.46 L -4.7757,419.547 L -3.68767,418.665 L -2.77264,417.85 L -1.38687,416.544
 L -0.864502,416.105 L -0.41394,415.835 L 0,415.743 L 0.41394,415.835 L 0.864502,416.105 L 1.38687,416.544
 L 2.77264,417.85 L 3.68767,418.665 L 4.7757,419.547 L 6.04723,420.46 L 7.50565,421.368 L 9.14705,422.233
 L 10.9605,423.021 L 12.9283,423.699 L 15.0269,424.239 L 17.2276,424.619 L 19.4977,424.82 L 21.8018,424.833
 z
M -0.0626526,0.496048 L -0.124344,0.484283 L -0.184052,0.464874 L -0.240875,0.438141 L -0.293884,0.404495 L -0.34227,0.364471
 L -0.385254,0.31871 L -0.42215,0.267899 L -0.452408,0.212875 L -0.475525,0.154495 L -0.491135,0.093689 L -0.499008,0.0313873
 L -0.499008,-0.0313873 L -0.491135,-0.093689 L -0.475525,-0.154495 L -0.452408,-0.212875 L -0.42215,-0.267899 L -0.385254,-0.31871
 L -0.34227,-0.364471 L -0.293884,-0.404495 L -0.240875,-0.438141 L -0.184052,-0.464874 L -0.124344,-0.484283 L -0.0626526,-0.496048
 L 0,-0.5 L 0.0626526,-0.496048 L 0.124344,-0.484283 L 0.184052,-0.464874 L 0.240875,-0.438141 L 0.293884,-0.404495
 L 0.34227,-0.364471 L 0.385254,-0.31871 L 0.42215,-0.267899 L 0.452408,-0.212875 L 0.475525,-0.154495 L 0.491135,-0.093689
 L 0.499008,-0.0313873 L 0.499008,0.0313873 L 0.491135,0.093689 L 0.475525,0.154495 L 0.452408,0.212875 L 0.42215,0.267899
 L 0.385254,0.31871 L 0.34227,0.364471 L 0.293884,0.404495 L 0.240875,0.438141 L 0.184052,0.464874 L 0.124344,0.484283
 L 0.0626526,0.496048 L 0,0.5 z
M 507.088,-110.139 L 507.193,-110.153 L 507.301,-110.178 L 507.414,-110.215 L 507.531,-110.264 L 507.654,-110.324
 L 507.782,-110.395 L 507.917,-110.477 L 508.058,-110.57 L 508.205,-110.673 L 508.361,-110.785 L 508.524,-110.908
 L 508.874,-111.18 L 509.911,-111.999 L 510.395,-112.373 L 510.653,-112.567 L 510.922,-112.767 L 511.201,-112.971
 L 511.492,-113.178 L 511.793,-113.388 L 512.106,-113.601 L 512.43,-113.816 L 512.765,-114.032 L 513.111,-114.25
 L 513.469,-114.468 L 513.837,-114.685 L 514.217,-114.902 L 514.607,-115.118 L 515.008,-115.333 L 515.419,-115.545
 L 515.841,-115.754 L 516.273,-115.96 L 516.715,-116.163 L 517.167,-116.361 L 517.628,-116.555 L 518.097,-116.744
 L 518.576,-116.928 L 519.063,-117.105 L 519.558,-117.277 L 520.06,-117.441 L 520.57,-117.599 L 521.087,-117.75
 L 521.61,-117.892 L 522.139,-118.027 L 522.673,-118.154 L 523.212,-118.272 L 523.756,-118.382 L 524.304,-118.482
 L 524.855,-118.574 L 525.409,-118.656 L 525.966,-118.729 L 526.524,-118.792 L 527.084,-118.846 L 527.645,-118.89
 L 528.206,-118.925 L 528.767,-118.95 L 529.327,-118.965 L 529.885,-118.971 L 530.442,-118.967 L 530.997,-118.953
 L 531.548,-118.93 L 532.097,-118.898 L 532.641,-118.857 L 533.181,-118.808 L 533.715,-118.749 L 534.245,-118.682
 L 534.768,-118.607 L 535.286,-118.525 L 535.796,-118.434 L 536.299,-118.337 L 536.795,-118.232 L 537.282,-118.121
 L 537.761,-118.004 L 538.232,-117.881 L 538.693,-117.753 L 539.145,-117.62 L 539.587,-117.483 L 540.019,-117.342
 L 540.441,-117.197 L 540.852,-117.049 L 541.253,-116.898 L 541.643,-116.746 L 542.021,-116.592 L 542.389,-116.437
 L 542.745,-116.282 L 543.09,-116.126 L 543.424,-115.972 L 543.746,-115.818 L 544.057,-115.666 L 544.356,-115.516
 L 544.644,-115.369 L 545.185,-115.085 L 546.348,-114.458 L 546.741,-114.251 L 546.923,-114.159 L 547.095,-114.075
 L 547.259,-113.999 L 547.414,-113.933 L 547.56,-113.875 L 547.699,-113.827 L 547.83,-113.789 L 547.954,-113.762
 L 548.072,-113.745 L 548.183,-113.739 L 548.289,-113.744 L 548.389,-113.76 L 548.484,-113.788 L 548.576,-113.828
 L 548.663,-113.88 L 548.747,-113.944 L 548.828,-114.02 L 548.908,-114.109 L 548.985,-114.21 L 549.061,-114.323
 L 549.137,-114.449 L 549.212,-114.587 L 549.288,-114.738 L 549.364,-114.901 L 549.442,-115.076 L 549.522,-115.264
 L 549.69,-115.674 L 550.178,-116.902 L 550.411,-117.468 L 550.536,-117.766 L 550.669,-118.073 L 550.81,-118.389
 L 550.958,-118.714 L 551.114,-119.047 L 551.278,-119.387 L 551.451,-119.735 L 551.633,-120.09 L 551.824,-120.452
 L 552.025,-120.819 L 552.235,-121.192 L 552.455,-121.57 L 552.685,-121.952 L 552.925,-122.338 L 553.176,-122.727
 L 553.436,-123.119 L 553.707,-123.514 L 553.989,-123.91 L 554.281,-124.308 L 554.583,-124.706 L 554.895,-125.105
 L 555.218,-125.503 L 555.551,-125.9 L 555.894,-126.296 L 556.247,-126.69 L 556.609,-127.082 L 556.981,-127.47
 L 557.363,-127.856 L 557.753,-128.237 L 558.153,-128.614 L 558.561,-128.986 L 558.977,-129.352 L 559.401,-129.713
 L 559.833,-130.068 L 560.271,-130.417 L 560.717,-130.758 L 561.169,-131.092 L 561.627,-131.419 L 562.09,-131.737
 L 562.559,-132.048 L 563.032,-132.35 L 563.51,-132.643 L 563.991,-132.927 L 564.475,-133.202 L 564.962,-133.468
 L 565.451,-133.724 L 565.942,-133.97 L 566.434,-134.207 L 566.926,-134.434 L 567.418,-134.65 L 567.91,-134.857
 L 568.401,-135.054 L 568.891,-135.241 L 569.378,-135.418 L 569.862,-135.585 L 570.344,-135.742 L 570.821,-135.89
 L 571.295,-136.028 L 571.763,-136.157 L 572.227,-136.277 L 572.685,-136.387 L 573.136,-136.49 L 573.581,-136.583
 L 574.019,-136.669 L 574.449,-136.746 L 574.871,-136.816 L 575.285,-136.879 L 575.69,-136.935 L 576.086,-136.985
 L 576.472,-137.028 L 576.849,-137.066 L 577.215,-137.099 L 577.571,-137.127 L 577.916,-137.151 L 578.25,-137.171
 L 578.573,-137.187 L 579.184,-137.212 L 580.504,-137.251 L 580.948,-137.268 L 581.151,-137.279 L 581.343,-137.292
 L 581.522,-137.309 L 581.689,-137.328 L 581.845,-137.352 L 581.989,-137.38 L 582.122,-137.412 L 582.243,-137.451
 L 582.353,-137.495 L 582.453,-137.545 L 582.542,-137.602 L 582.62,-137.667 L 582.689,-137.739 L 582.748,-137.819
 L 582.798,-137.907 L 582.839,-138.005 L 582.871,-138.112 L 582.895,-138.228 L 582.912,-138.354 L 582.921,-138.49
 L 582.924,-138.637 L 582.92,-138.794 L 582.91,-138.963 L 582.895,-139.142 L 582.875,-139.333 L 582.85,-139.535
 L 582.79,-139.975 L 582.599,-141.282 L 582.517,-141.888 L 582.477,-142.209 L 582.439,-142.542 L 582.402,-142.885
 L 582.368,-143.241 L 582.337,-143.607 L 582.309,-143.984 L 582.285,-144.372 L 582.265,-144.771 L 582.25,-145.179
 L 582.24,-145.598 L 582.235,-146.026 L 582.237,-146.463 L 582.245,-146.909 L 582.26,-147.363 L 582.282,-147.826
 L 582.312,-148.296 L 582.349,-148.773 L 582.395,-149.257 L 582.449,-149.747 L 582.511,-150.243 L 582.583,-150.745
 L 582.663,-151.251 L 582.753,-151.761 L 582.852,-152.276 L 582.96,-152.793 L 583.079,-153.314 L 583.207,-153.836
 L 583.344,-154.36 L 583.492,-154.886 L 583.649,-155.412 L 583.817,-155.938 L 583.994,-156.464 L 584.18,-156.988
 L 584.377,-157.512 L 584.583,-158.033 L 584.798,-158.551 L 585.022,-159.066 L 585.255,-159.578 L 585.498,-160.086
 L 585.748,-160.589 L 586.007,-161.087 L 586.274,-161.58 L 586.548,-162.067 L 586.83,-162.547 L 587.119,-163.02
 L 587.415,-163.487 L 587.717,-163.945 L 588.024,-164.396 L 588.337,-164.839 L 588.655,-165.273 L 588.978,-165.698
 L 589.305,-166.114 L 589.635,-166.52 L 589.968,-166.917 L 590.304,-167.304 L 590.643,-167.681 L 590.982,-168.048
 L 591.323,-168.404 L 591.665,-168.75 L 592.006,-169.085 L 592.347,-169.41 L 592.688,-169.724 L 593.026,-170.028
 L 593.362,-170.321 L 593.696,-170.603 L 594.027,-170.875 L 594.354,-171.136 L 594.676,-171.387 L 594.994,-171.628
 L 595.307,-171.859 L 595.614,-172.08 L 595.915,-172.292 L 596.209,-172.494 L 596.496,-172.687 L 596.775,-172.871
 L 597.047,-173.047 L 597.564,-173.374 L 598.688,-174.068 L 599.063,-174.304 L 599.234,-174.416 L 599.393,-174.523
 L 599.54,-174.627 L 599.676,-174.727 L 599.799,-174.826 L 599.909,-174.922 L 600.008,-175.016 L 600.094,-175.11
 L 600.167,-175.203 L 600.228,-175.297 L 600.277,-175.391 L 600.312,-175.486 L 600.336,-175.583 L 600.347,-175.682
 L 600.346,-175.783 L 600.332,-175.888 L 600.307,-175.997 L 600.27,-176.109 L 600.221,-176.227 L 600.161,-176.349
 L 600.09,-176.478 L 600.008,-176.612 L 599.915,-176.753 L 599.812,-176.901 L 599.7,-177.056 L 599.577,-177.219
 L 599.305,-177.57 L 598.486,-178.606 L 598.112,-179.09 L 597.918,-179.348 L 597.718,-179.617 L 597.514,-179.897
 L 597.307,-180.187 L 597.097,-180.489 L 596.884,-180.801 L 596.669,-181.125 L 596.452,-181.46 L 596.235,-181.807
 L 596.017,-182.164 L 595.8,-182.533 L 595.583,-182.912 L 595.367,-183.302 L 595.152,-183.703 L 594.94,-184.115
 L 594.731,-184.537 L 594.525,-184.969 L 594.322,-185.411 L 594.124,-185.862 L 593.93,-186.323 L 593.741,-186.793
 L 593.557,-187.271 L 593.38,-187.758 L 593.208,-188.253 L 593.044,-188.756 L 592.886,-189.266 L 592.735,-189.782
 L 592.593,-190.305 L 592.458,-190.834 L 592.331,-191.368 L 592.213,-191.908 L 592.103,-192.451 L 592.003,-192.999
 L 591.911,-193.55 L 591.829,-194.104 L 591.756,-194.661 L 591.693,-195.22 L 591.639,-195.779 L 591.595,-196.34
 L 591.56,-196.901 L 591.535,-197.462 L 591.52,-198.022 L 591.514,-198.581 L 591.518,-199.138 L 591.532,-199.692
 L 591.555,-200.244 L 591.587,-200.792 L 591.628,-201.336 L 591.677,-201.876 L 591.736,-202.411 L 591.803,-202.94
 L 591.878,-203.464 L 591.96,-203.981 L 592.051,-204.491 L 592.148,-204.995 L 592.253,-205.49 L 592.364,-205.978
 L 592.481,-206.457 L 592.604,-206.927 L 592.732,-207.388 L 592.865,-207.84 L 593.002,-208.282 L 593.143,-208.714
 L 593.288,-209.136 L 593.436,-209.548 L 593.586,-209.948 L 593.739,-210.338 L 593.893,-210.717 L 594.048,-211.084
 L 594.203,-211.441 L 594.359,-211.786 L 594.513,-212.119 L 594.667,-212.441 L 594.819,-212.752 L 594.969,-213.051
 L 595.116,-213.339 L 595.4,-213.881 L 596.027,-215.044 L 596.234,-215.436 L 596.326,-215.618 L 596.41,-215.791
 L 596.486,-215.954 L 596.552,-216.109 L 596.61,-216.256 L 596.658,-216.394 L 596.696,-216.525 L 596.723,-216.65
 L 596.74,-216.767 L 596.746,-216.878 L 596.741,-216.984 L 596.725,-217.084 L 596.697,-217.18 L 596.657,-217.271
 L 596.605,-217.358 L 596.541,-217.443 L 596.465,-217.524 L 596.376,-217.603 L 596.275,-217.68 L 596.162,-217.757
 L 596.036,-217.832 L 595.898,-217.907 L 595.747,-217.983 L 595.584,-218.06 L 595.409,-218.138 L 595.221,-218.218
 L 594.81,-218.385 L 593.583,-218.874 L 593.017,-219.106 L 592.719,-219.232 L 592.412,-219.365 L 592.096,-219.505
 L 591.771,-219.653 L 591.438,-219.809 L 591.098,-219.973 L 590.75,-220.146 L 590.395,-220.328 L 590.033,-220.52
 L 589.666,-220.72 L 589.293,-220.931 L 588.915,-221.151 L 588.533,-221.381 L 588.147,-221.621 L 587.758,-221.871
 L 587.365,-222.132 L 586.971,-222.403 L 586.575,-222.684 L 586.177,-222.976 L 585.779,-223.278 L 585.38,-223.591
 L 584.982,-223.913 L 584.585,-224.246 L 584.189,-224.589 L 583.795,-224.942 L 583.403,-225.305 L 583.015,-225.677
 L 582.629,-226.058 L 582.248,-226.449 L 581.871,-226.848 L 581.499,-227.256 L 581.133,-227.672 L 580.772,-228.096
 L 580.417,-228.528 L 580.068,-228.967 L 579.727,-229.412 L 579.393,-229.864 L 579.066,-230.322 L 578.748,-230.786
 L 578.437,-231.254 L 578.135,-231.728 L 577.842,-232.205 L 577.558,-232.686 L 577.283,-233.17 L 577.017,-233.657
 L 576.761,-234.146 L 576.515,-234.637 L 576.278,-235.129 L 576.051,-235.621 L 575.835,-236.114 L 575.628,-236.606
 L 575.431,-237.097 L 575.244,-237.586 L 575.067,-238.073 L 574.9,-238.558 L 574.743,-239.039 L 574.595,-239.517
 L 574.457,-239.99 L 574.328,-240.459 L 574.208,-240.922 L 574.097,-241.38 L 573.995,-241.832 L 573.902,-242.277
 L 573.816,-242.714 L 573.739,-243.145 L 573.669,-243.567 L 573.606,-243.98 L 573.55,-244.385 L 573.5,-244.781
 L 573.456,-245.168 L 573.419,-245.544 L 573.386,-245.91 L 573.358,-246.266 L 573.334,-246.611 L 573.314,-246.945
 L 573.298,-247.268 L 573.273,-247.879 L 573.234,-249.2 L 573.217,-249.643 L 573.206,-249.847 L 573.193,-250.038
 L 573.176,-250.217 L 573.157,-250.385 L 573.133,-250.541 L 573.105,-250.685 L 573.073,-250.817 L 573.034,-250.939
 L 572.99,-251.049 L 572.94,-251.148 L 572.883,-251.237 L 572.818,-251.316 L 572.746,-251.384 L 572.666,-251.443
 L 572.578,-251.493 L 572.48,-251.534 L 572.373,-251.566 L 572.257,-251.591 L 572.131,-251.607 L 571.995,-251.617
 L 571.848,-251.619 L 571.691,-251.615 L 571.522,-251.605 L 571.343,-251.59 L 571.152,-251.57 L 570.95,-251.546
 L 570.51,-251.485 L 569.203,-251.294 L 568.597,-251.213 L 568.276,-251.173 L 567.943,-251.134 L 567.6,-251.098
 L 567.244,-251.064 L 566.878,-251.032 L 566.501,-251.004 L 566.113,-250.98 L 565.714,-250.96 L 565.306,-250.945
 L 564.887,-250.935 L 564.459,-250.931 L 564.022,-250.933 L 563.576,-250.941 L 563.122,-250.956 L 562.659,-250.978
 L 562.189,-251.007 L 561.712,-251.045 L 561.228,-251.09 L 560.738,-251.144 L 560.242,-251.207 L 559.74,-251.278
 L 559.234,-251.358 L 558.724,-251.448 L 558.209,-251.547 L 557.692,-251.656 L 557.171,-251.774 L 556.649,-251.902
 L 556.125,-252.04 L 555.599,-252.187 L 555.073,-252.345 L 554.547,-252.512 L 554.021,-252.689 L 553.497,-252.876
 L 552.973,-253.072 L 552.452,-253.278 L 551.934,-253.493 L 551.418,-253.718 L 550.907,-253.951 L 550.399,-254.193
 L 549.896,-254.444 L 549.398,-254.703 L 548.905,-254.969 L 548.418,-255.244 L 547.938,-255.526 L 547.465,-255.815
 L 546.998,-256.11 L 546.54,-256.412 L 546.089,-256.72 L 545.646,-257.033 L 545.212,-257.351 L 544.787,-257.673
 L 544.371,-258 L 543.965,-258.33 L 543.568,-258.664 L 543.181,-259 L 542.804,-259.338 L 542.437,-259.678
 L 542.081,-260.019 L 541.735,-260.36 L 541.399,-260.702 L 541.075,-261.043 L 540.76,-261.383 L 540.457,-261.721
 L 540.164,-262.058 L 539.882,-262.392 L 539.61,-262.722 L 539.349,-263.049 L 539.098,-263.372 L 538.857,-263.69
 L 538.626,-264.003 L 538.405,-264.31 L 538.193,-264.61 L 537.991,-264.904 L 537.798,-265.191 L 537.614,-265.471
 L 537.438,-265.742 L 537.111,-266.259 L 536.417,-267.383 L 536.181,-267.759 L 536.069,-267.929 L 535.962,-268.088
 L 535.858,-268.236 L 535.758,-268.371 L 535.659,-268.494 L 535.563,-268.605 L 535.469,-268.703 L 535.375,-268.789
 L 535.282,-268.863 L 535.188,-268.924 L 535.094,-268.972 L 534.999,-269.008 L 534.902,-269.031 L 534.803,-269.042
 L 534.702,-269.041 L 534.597,-269.028 L 534.488,-269.003 L 534.376,-268.965 L 534.258,-268.917 L 534.135,-268.857
 L 534.007,-268.785 L 533.873,-268.703 L 533.732,-268.611 L 533.584,-268.508 L 533.429,-268.395 L 533.266,-268.273
 L 532.915,-268.001 L 531.879,-267.182 L 531.395,-266.808 L 531.137,-266.613 L 530.868,-266.413 L 530.588,-266.21
 L 530.298,-266.003 L 529.996,-265.792 L 529.684,-265.579 L 529.36,-265.364 L 529.024,-265.148 L 528.678,-264.931
 L 528.321,-264.713 L 527.952,-264.495 L 527.573,-264.278 L 527.183,-264.062 L 526.782,-263.848 L 526.37,-263.636
 L 525.948,-263.426 L 525.516,-263.22 L 525.074,-263.018 L 524.623,-262.819 L 524.162,-262.625 L 523.692,-262.436
 L 523.214,-262.253 L 522.727,-262.075 L 522.232,-261.904 L 521.729,-261.739 L 521.219,-261.581 L 520.703,-261.431
 L 520.18,-261.288 L 519.651,-261.153 L 519.117,-261.026 L 518.577,-260.908 L 518.034,-260.799 L 517.486,-260.698
 L 516.935,-260.607 L 516.38,-260.524 L 515.824,-260.451 L 515.265,-260.388 L 514.705,-260.334 L 514.145,-260.29
 L 513.584,-260.255 L 513.023,-260.231 L 512.463,-260.215 L 511.904,-260.21 L 511.347,-260.214 L 510.793,-260.227
 L 510.241,-260.25 L 509.693,-260.282 L 509.149,-260.323 L 508.609,-260.373 L 508.074,-260.431 L 507.545,-260.498
 L 507.021,-260.573 L 506.504,-260.656 L 505.993,-260.746 L 505.49,-260.844 L 504.995,-260.948 L 504.507,-261.059
 L 504.028,-261.176 L 503.558,-261.299 L 503.097,-261.427 L 502.645,-261.56 L 502.203,-261.697 L 501.771,-261.839
 L 501.349,-261.984 L 500.937,-262.132 L 500.537,-262.282 L 500.147,-262.434 L 499.768,-262.588 L 499.4,-262.743
 L 499.044,-262.899 L 498.699,-263.054 L 498.366,-263.209 L 498.043,-263.362 L 497.733,-263.514 L 497.434,-263.664
 L 497.146,-263.811 L 496.604,-264.096 L 495.441,-264.722 L 495.049,-264.929 L 494.867,-265.021 L 494.694,-265.105
 L 494.531,-265.181 L 494.376,-265.248 L 494.229,-265.305 L 494.091,-265.353 L 493.96,-265.391 L 493.835,-265.419
 L 493.718,-265.436 L 493.607,-265.442 L 493.501,-265.437 L 493.401,-265.42 L 493.305,-265.392 L 493.214,-265.352
 L 493.126,-265.3 L 493.042,-265.236 L 492.961,-265.16 L 492.882,-265.072 L 492.805,-264.971 L 492.728,-264.857
 L 492.653,-264.731 L 492.578,-264.593 L 492.502,-264.443 L 492.425,-264.279 L 492.347,-264.104 L 492.267,-263.917
 L 492.099,-263.506 L 491.611,-262.278 L 491.379,-261.713 L 491.253,-261.415 L 491.12,-261.108 L 490.98,-260.792
 L 490.832,-260.467 L 490.676,-260.134 L 490.512,-259.793 L 490.338,-259.445 L 490.156,-259.09 L 489.965,-258.729
 L 489.765,-258.361 L 489.554,-257.988 L 489.334,-257.611 L 489.104,-257.229 L 488.864,-256.843 L 488.614,-256.453
 L 488.353,-256.061 L 488.082,-255.666 L 487.801,-255.27 L 487.509,-254.872 L 487.207,-254.474 L 486.894,-254.075
 L 486.572,-253.677 L 486.239,-253.28 L 485.896,-252.884 L 485.543,-252.49 L 485.18,-252.099 L 484.808,-251.71
 L 484.427,-251.325 L 484.036,-250.944 L 483.637,-250.567 L 483.229,-250.195 L 482.813,-249.828 L 482.389,-249.467
 L 481.957,-249.112 L 481.518,-248.764 L 481.073,-248.422 L 480.621,-248.088 L 480.163,-247.762 L 479.699,-247.443
 L 479.231,-247.133 L 478.757,-246.831 L 478.28,-246.537 L 477.799,-246.253 L 477.315,-245.978 L 476.828,-245.713
 L 476.339,-245.457 L 475.848,-245.21 L 475.356,-244.974 L 474.864,-244.747 L 474.371,-244.53 L 473.879,-244.323
 L 473.388,-244.126 L 472.899,-243.939 L 472.412,-243.762 L 471.927,-243.595 L 471.446,-243.438 L 470.968,-243.29
 L 470.495,-243.152 L 470.026,-243.023 L 469.563,-242.904 L 469.105,-242.793 L 468.653,-242.691 L 468.208,-242.597
 L 467.771,-242.512 L 467.34,-242.434 L 466.918,-242.364 L 466.504,-242.301 L 466.099,-242.245 L 465.704,-242.195
 L 465.317,-242.152 L 464.941,-242.114 L 464.575,-242.081 L 464.219,-242.053 L 463.874,-242.03 L 463.54,-242.01
 L 463.217,-241.993 L 462.606,-241.968 L 461.285,-241.93 L 460.842,-241.912 L 460.638,-241.901 L 460.447,-241.888
 L 460.268,-241.872 L 460.1,-241.852 L 459.944,-241.829 L 459.8,-241.801 L 459.668,-241.768 L 459.546,-241.73
 L 459.436,-241.686 L 459.337,-241.635 L 459.248,-241.578 L 459.169,-241.514 L 459.101,-241.442 L 459.041,-241.362
 L 458.992,-241.273 L 458.951,-241.175 L 458.918,-241.069 L 458.894,-240.953 L 458.878,-240.826 L 458.868,-240.69
 L 458.866,-240.544 L 458.87,-240.386 L 458.88,-240.218 L 458.895,-240.038 L 458.915,-239.847 L 458.939,-239.645
 L 458.999,-239.205 L 459.191,-237.898 L 459.272,-237.292 L 459.312,-236.971 L 459.35,-236.639 L 459.387,-236.295
 L 459.421,-235.94 L 459.453,-235.573 L 459.481,-235.196 L 459.505,-234.808 L 459.525,-234.41 L 459.54,-234.001
 L 459.55,-233.583 L 459.554,-233.155 L 459.552,-232.717 L 459.544,-232.272 L 459.529,-231.817 L 459.507,-231.355
 L 459.478,-230.885 L 459.44,-230.407 L 459.395,-229.924 L 459.341,-229.433 L 459.278,-228.937 L 459.207,-228.436
 L 459.126,-227.93 L 459.037,-227.419 L 458.938,-226.905 L 458.829,-226.387 L 458.711,-225.867 L 458.583,-225.344
 L 458.445,-224.82 L 458.297,-224.294 L 458.14,-223.768 L 457.973,-223.242 L 457.796,-222.717 L 457.609,-222.192
 L 457.413,-221.669 L 457.207,-221.148 L 456.992,-220.629 L 456.767,-220.114 L 456.534,-219.602 L 456.292,-219.094
 L 456.041,-218.591 L 455.782,-218.093 L 455.516,-217.6 L 455.241,-217.114 L 454.959,-216.634 L 454.67,-216.16
 L 454.375,-215.694 L 454.073,-215.235 L 453.765,-214.784 L 453.452,-214.342 L 453.134,-213.908 L 452.812,-213.483
 L 452.485,-213.067 L 452.155,-212.66 L 451.821,-212.263 L 451.485,-211.876 L 451.147,-211.499 L 450.807,-211.133
 L 450.466,-210.776 L 450.125,-210.43 L 449.783,-210.095 L 449.442,-209.77 L 449.102,-209.456 L 448.764,-209.152
 L 448.427,-208.86 L 448.093,-208.577 L 447.763,-208.305 L 447.436,-208.044 L 447.113,-207.793 L 446.795,-207.552
 L 446.482,-207.321 L 446.175,-207.1 L 445.875,-206.889 L 445.58,-206.687 L 445.293,-206.494 L 445.014,-206.309
 L 444.743,-206.134 L 444.226,-205.806 L 443.102,-205.113 L 442.726,-204.876 L 442.556,-204.765 L 442.396,-204.658
 L 442.249,-204.554 L 442.114,-204.453 L 441.991,-204.355 L 441.88,-204.259 L 441.782,-204.164 L 441.696,-204.07
 L 441.622,-203.977 L 441.561,-203.884 L 441.513,-203.79 L 441.477,-203.695 L 441.454,-203.598 L 441.443,-203.499
 L 441.444,-203.397 L 441.457,-203.292 L 441.482,-203.184 L 441.52,-203.071 L 441.568,-202.954 L 441.628,-202.831
 L 441.7,-202.703 L 441.782,-202.568 L 441.874,-202.427 L 441.977,-202.279 L 442.09,-202.124 L 442.212,-201.961
 L 442.484,-201.611 L 443.303,-200.574 L 443.677,-200.09 L 443.872,-199.832 L 444.072,-199.563 L 444.275,-199.284
 L 444.482,-198.993 L 444.693,-198.692 L 444.906,-198.379 L 445.121,-198.055 L 445.337,-197.72 L 445.554,-197.374
 L 445.772,-197.016 L 445.99,-196.648 L 446.207,-196.268 L 446.423,-195.878 L 446.637,-195.477 L 446.849,-195.066
 L 447.059,-194.644 L 447.265,-194.212 L 447.467,-193.77 L 447.666,-193.318 L 447.86,-192.857 L 448.049,-192.388
 L 448.232,-191.909 L 448.41,-191.422 L 448.581,-190.927 L 448.746,-190.424 L 448.904,-189.915 L 449.054,-189.398
 L 449.197,-188.875 L 449.332,-188.346 L 449.458,-187.812 L 449.577,-187.273 L 449.686,-186.729 L 449.787,-186.181
 L 449.878,-185.63 L 449.961,-185.076 L 450.034,-184.519 L 450.097,-183.961 L 450.151,-183.401 L 450.195,-182.84
 L 450.23,-182.279 L 450.254,-181.718 L 450.27,-181.158 L 450.275,-180.599 L 450.271,-180.043 L 450.258,-179.488
 L 450.235,-178.937 L 450.203,-178.388 L 450.162,-177.844 L 450.112,-177.304 L 450.054,-176.769 L 449.987,-176.24
 L 449.912,-175.716 L 449.829,-175.199 L 449.739,-174.689 L 449.641,-174.186 L 449.537,-173.69 L 449.426,-173.203
 L 449.309,-172.724 L 449.186,-172.253 L 449.058,-171.792 L 448.925,-171.34 L 448.788,-170.898 L 448.646,-170.466
 L 448.501,-170.044 L 448.353,-169.633 L 448.203,-169.232 L 448.051,-168.842 L 447.897,-168.463 L 447.742,-168.096
 L 447.586,-167.74 L 447.431,-167.395 L 447.276,-167.061 L 447.122,-166.739 L 446.97,-166.428 L 446.821,-166.129
 L 446.673,-165.841 L 446.389,-165.299 L 445.763,-164.137 L 445.556,-163.744 L 445.464,-163.562 L 445.38,-163.39
 L 445.304,-163.226 L 445.237,-163.071 L 445.18,-162.925 L 445.132,-162.786 L 445.094,-162.655 L 445.066,-162.531
 L 445.049,-162.413 L 445.043,-162.302 L 445.048,-162.196 L 445.065,-162.096 L 445.093,-162.001 L 445.133,-161.909
 L 445.185,-161.822 L 445.249,-161.738 L 445.325,-161.656 L 445.413,-161.577 L 445.514,-161.5 L 445.628,-161.424
 L 445.753,-161.348 L 445.892,-161.273 L 446.042,-161.197 L 446.205,-161.121 L 446.381,-161.043 L 446.568,-160.963
 L 446.979,-160.795 L 448.207,-160.307 L 448.772,-160.074 L 449.07,-159.949 L 449.377,-159.816 L 449.693,-159.675
 L 450.018,-159.527 L 450.351,-159.371 L 450.692,-159.207 L 451.04,-159.034 L 451.395,-158.852 L 451.756,-158.661
 L 452.124,-158.46 L 452.496,-158.25 L 452.874,-158.03 L 453.256,-157.8 L 453.642,-157.56 L 454.032,-157.309
 L 454.424,-157.049 L 454.819,-156.778 L 455.215,-156.496 L 455.613,-156.204 L 456.011,-155.902 L 456.41,-155.59
 L 456.808,-155.267 L 457.205,-154.934 L 457.601,-154.591 L 457.995,-154.238 L 458.386,-153.876 L 458.775,-153.504
 L 459.16,-153.122 L 459.541,-152.732 L 459.918,-152.332 L 460.29,-151.924 L 460.657,-151.508 L 461.018,-151.084
 L 461.373,-150.652 L 461.721,-150.214 L 462.063,-149.768 L 462.397,-149.316 L 462.723,-148.858 L 463.042,-148.395
 L 463.352,-147.926 L 463.654,-147.453 L 463.948,-146.975 L 464.232,-146.494 L 464.507,-146.01 L 464.772,-145.523
 L 465.028,-145.034 L 465.275,-144.543 L 465.511,-144.051 L 465.738,-143.559 L 465.955,-143.067 L 466.162,-142.575
 L 466.359,-142.084 L 466.546,-141.594 L 466.722,-141.107 L 466.89,-140.623 L 467.047,-140.141 L 467.195,-139.664
 L 467.333,-139.19 L 467.462,-138.722 L 467.581,-138.258 L 467.692,-137.8 L 467.794,-137.349 L 467.888,-136.904
 L 467.973,-136.466 L 468.051,-136.036 L 468.121,-135.614 L 468.184,-135.2 L 468.24,-134.795 L 468.289,-134.399
 L 468.333,-134.013 L 468.371,-133.636 L 468.404,-133.27 L 468.432,-132.914 L 468.455,-132.569 L 468.475,-132.235
 L 468.492,-131.912 L 468.517,-131.301 L 468.555,-129.981 L 468.573,-129.537 L 468.584,-129.334 L 468.597,-129.142
 L 468.613,-128.963 L 468.633,-128.795 L 468.656,-128.64 L 468.684,-128.496 L 468.717,-128.363 L 468.755,-128.242
 L 468.799,-128.132 L 468.85,-128.032 L 468.907,-127.943 L 468.971,-127.865 L 469.043,-127.796 L 469.123,-127.737
 L 469.212,-127.687 L 469.309,-127.646 L 469.416,-127.614 L 469.532,-127.59 L 469.658,-127.573 L 469.795,-127.564
 L 469.941,-127.561 L 470.099,-127.565 L 470.267,-127.575 L 470.447,-127.59 L 470.638,-127.61 L 470.84,-127.635
 L 471.28,-127.695 L 472.587,-127.886 L 473.193,-127.968 L 473.514,-128.007 L 473.846,-128.046 L 474.19,-128.083
 L 474.545,-128.117 L 474.912,-128.148 L 475.289,-128.176 L 475.677,-128.2 L 476.075,-128.22 L 476.484,-128.235
 L 476.902,-128.245 L 477.33,-128.249 L 477.767,-128.248 L 478.213,-128.24 L 478.668,-128.225 L 479.13,-128.203
 L 479.6,-128.173 L 480.077,-128.136 L 480.561,-128.09 L 481.052,-128.036 L 481.548,-127.974 L 482.049,-127.902
 L 482.555,-127.822 L 483.066,-127.732 L 483.58,-127.633 L 484.098,-127.525 L 484.618,-127.406 L 485.141,-127.278
 L 485.665,-127.141 L 486.19,-126.993 L 486.716,-126.835 L 487.243,-126.668 L 487.768,-126.491 L 488.293,-126.304
 L 488.816,-126.108 L 489.337,-125.902 L 489.856,-125.687 L 490.371,-125.463 L 490.883,-125.229 L 491.391,-124.987
 L 491.894,-124.737 L 492.392,-124.478 L 492.884,-124.211 L 493.371,-123.936 L 493.851,-123.655 L 494.325,-123.366
 L 494.791,-123.07 L 495.25,-122.768 L 495.701,-122.461 L 496.143,-122.148 L 496.577,-121.83 L 497.002,-121.507
 L 497.418,-121.18 L 497.825,-120.85 L 498.222,-120.517 L 498.609,-120.181 L 498.986,-119.842 L 499.352,-119.502
 L 499.709,-119.162 L 500.055,-118.82 L 500.39,-118.479 L 500.715,-118.137 L 501.029,-117.797 L 501.333,-117.459
 L 501.625,-117.123 L 501.908,-116.789 L 502.18,-116.458 L 502.441,-116.131 L 502.692,-115.809 L 502.933,-115.491
 L 503.164,-115.178 L 503.385,-114.871 L 503.596,-114.57 L 503.798,-114.276 L 503.991,-113.989 L 504.176,-113.71
 L 504.351,-113.438 L 504.678,-112.921 L 505.372,-111.797 L 505.609,-111.422 L 505.72,-111.251 L 505.827,-111.092
 L 505.931,-110.945 L 506.032,-110.809 L 506.13,-110.686 L 506.226,-110.576 L 506.321,-110.477 L 506.415,-110.391
 L 506.508,-110.318 L 506.601,-110.257 L 506.695,-110.208 L 506.79,-110.173 L 506.887,-110.149 L 506.986,-110.138
 z
M 520.818,-189.096 L 520.757,-189.11 L 520.698,-189.131 L 520.642,-189.159 L 520.59,-189.194 L 520.542,-189.235
 L 520.501,-189.282 L 520.465,-189.334 L 520.437,-189.39 L 520.415,-189.449 L 520.407,-189.479 L 520.397,-189.541
 L 520.395,-189.604 L 520.397,-189.635 L 520.406,-189.698 L 520.424,-189.758 L 520.448,-189.816 L 520.48,-189.87
 L 520.499,-189.895 L 520.54,-189.943 L 520.587,-189.984 L 520.639,-190.02 L 520.695,-190.048 L 520.754,-190.07
 L 520.815,-190.084 L 520.877,-190.09 L 520.94,-190.088 L 521.002,-190.079 L 521.062,-190.061 L 521.12,-190.036
 L 521.174,-190.005 L 521.224,-189.966 L 521.269,-189.922 L 521.307,-189.873 L 521.339,-189.819 L 521.365,-189.761
 L 521.382,-189.701 L 521.392,-189.639 L 521.395,-189.576 L 521.389,-189.514 L 521.383,-189.483 L 521.366,-189.422
 L 521.341,-189.365 L 521.309,-189.311 L 521.271,-189.261 L 521.227,-189.216 L 521.177,-189.178 L 521.123,-189.145
 L 521.066,-189.12 L 521.006,-189.103 L 520.944,-189.093 L 520.881,-189.09 z
M 574.831,63.6382 L 574.912,63.6253 L 574.991,63.6042 L 575.067,63.575 L 575.14,63.5375 L 575.212,63.4917
 L 575.281,63.4374 L 575.35,63.3747 L 575.416,63.3034 L 575.482,63.2236 L 575.547,63.1353 L 575.612,63.0384
 L 575.677,62.933 L 575.742,62.8191 L 575.807,62.6966 L 575.873,62.5657 L 575.94,62.4264 L 576.078,62.1229
 L 576.224,61.7867 L 576.726,60.5911 L 576.922,60.1341 L 577.136,59.6502 L 577.368,59.1409 L 577.492,58.8773
 L 577.622,58.6081 L 577.756,58.3334 L 577.897,58.0535 L 578.043,57.7686 L 578.195,57.4791 L 578.353,57.1852
 L 578.518,56.887 L 578.689,56.585 L 578.866,56.2794 L 579.05,55.9704 L 579.24,55.6584 L 579.437,55.3435
 L 579.641,55.0262 L 579.851,54.7067 L 580.069,54.3853 L 580.293,54.0623 L 580.524,53.738 L 580.762,53.4126
 L 581.007,53.0865 L 581.258,52.76 L 581.517,52.4333 L 581.782,52.1068 L 582.053,51.7807 L 582.332,51.4554
 L 582.617,51.1311 L 582.908,50.808 L 583.206,50.4866 L 583.51,50.167 L 583.82,49.8495 L 584.136,49.5344
 L 584.458,49.222 L 584.786,48.9124 L 585.119,48.606 L 585.457,48.3031 L 585.801,48.0037 L 586.15,47.7082
 L 586.503,47.4168 L 586.861,47.1296 L 587.224,46.847 L 587.59,46.5691 L 587.961,46.296 L 588.335,46.028
 L 588.712,45.7653 L 589.093,45.5079 L 589.477,45.2561 L 589.863,45.01 L 590.252,44.7697 L 590.643,44.5354
 L 591.036,44.3071 L 591.43,44.0849 L 591.826,43.869 L 592.222,43.6593 L 592.62,43.4561 L 593.018,43.2593
 L 593.415,43.0689 L 593.813,42.8851 L 594.21,42.7078 L 594.607,42.537 L 595.002,42.3728 L 595.396,42.2151
 L 595.789,42.0639 L 596.179,41.9191 L 596.568,41.7808 L 596.953,41.6488 L 597.336,41.5231 L 597.716,41.4035
 L 598.093,41.2901 L 598.466,41.1827 L 598.835,41.0812 L 599.199,40.9855 L 599.56,40.8954 L 599.915,40.8107
 L 600.266,40.7314 L 600.611,40.6573 L 600.951,40.5882 L 601.286,40.5239 L 601.614,40.4642 L 601.937,40.409
 L 602.253,40.3579 L 602.562,40.3109 L 602.865,40.2677 L 603.161,40.228 L 603.45,40.1916 L 604.006,40.1278
 L 604.532,40.0743 L 605.263,40.0088 L 606.32,39.9204 L 606.685,39.8858 L 607.016,39.8481 L 607.169,39.8274
 L 607.314,39.8051 L 607.451,39.7809 L 607.579,39.7545 L 607.7,39.7256 L 607.812,39.6939 L 607.916,39.6593
 L 608.012,39.6213 L 608.1,39.5798 L 608.181,39.5344 L 608.254,39.485 L 608.32,39.4312 L 608.378,39.3728
 L 608.43,39.3096 L 608.474,39.2413 L 608.511,39.1677 L 608.542,39.0886 L 608.567,39.0038 L 608.585,38.913
 L 608.597,38.8161 L 608.603,38.7129 L 608.604,38.6031 L 608.6,38.4867 L 608.59,38.3634 L 608.575,38.2331
 L 608.556,38.0957 L 608.533,37.951 L 608.505,37.799 L 608.438,37.4722 L 608.359,37.1145 L 608.063,35.8518
 L 607.953,35.3668 L 607.841,34.8498 L 607.73,34.3012 L 607.675,34.0151 L 607.621,33.7213 L 607.569,33.4199
 L 607.518,33.1109 L 607.469,32.7945 L 607.422,32.4709 L 607.377,32.14 L 607.335,31.8022 L 607.295,31.4574
 L 607.259,31.106 L 607.226,30.748 L 607.197,30.3836 L 607.171,30.0131 L 607.15,29.6366 L 607.132,29.2544
 L 607.119,28.8666 L 607.11,28.4735 L 607.107,28.0753 L 607.108,27.6722 L 607.114,27.2646 L 607.126,26.8525
 L 607.143,26.4364 L 607.165,26.0164 L 607.194,25.5929 L 607.228,25.166 L 607.268,24.7362 L 607.313,24.3036
 L 607.365,23.8685 L 607.423,23.4313 L 607.488,22.9922 L 607.558,22.5515 L 607.635,22.1095 L 607.718,21.6665
 L 607.807,21.2228 L 607.903,20.7787 L 608.005,20.3345 L 608.114,19.8905 L 608.228,19.4469 L 608.349,19.0042
 L 608.476,18.5625 L 608.61,18.1222 L 608.749,17.6835 L 608.894,17.2468 L 609.045,16.8123 L 609.202,16.3802
 L 609.364,15.951 L 609.532,15.5247 L 609.706,15.1018 L 609.884,14.6824 L 610.068,14.2669 L 610.256,13.8553
 L 610.449,13.4481 L 610.647,13.0454 L 610.849,12.6474 L 611.055,12.2544 L 611.265,11.8665 L 611.479,11.484
 L 611.696,11.1071 L 611.916,10.7359 L 612.14,10.3706 L 612.366,10.0113 L 612.594,9.65831 L 612.825,9.31166
 L 613.058,8.97151 L 613.293,8.63797 L 613.529,8.31117 L 613.766,7.99121 L 614.004,7.67816 L 614.242,7.37212
 L 614.481,7.07314 L 614.72,6.7813 L 614.958,6.49661 L 615.196,6.21913 L 615.433,5.94887 L 615.669,5.68585
 L 615.904,5.43007 L 616.136,5.18152 L 616.367,4.94016 L 616.595,4.70596 L 616.821,4.4789 L 617.044,4.25888
 L 617.263,4.04587 L 617.48,3.83975 L 617.692,3.64047 L 618.104,3.26195 L 618.499,2.90938 L 619.052,2.42668
 L 619.854,1.7341 L 620.129,1.4917 L 620.375,1.26645 L 620.487,1.15967 L 620.591,1.05646 L 620.687,0.956558
 L 620.776,0.859726 L 620.856,0.765686 L 620.928,0.674164 L 620.992,0.584915 L 621.047,0.49765 L 621.095,0.412094
 L 621.133,0.327957 L 621.163,0.244965 L 621.185,0.162827 L 621.198,0.0812683 L 621.202,-0 L 621.198,-0.0812683
 L 621.185,-0.162827 L 621.163,-0.244965 L 621.133,-0.327957 L 621.095,-0.412094 L 621.047,-0.49765 L 620.992,-0.584915
 L 620.928,-0.674164 L 620.856,-0.765686 L 620.776,-0.859726 L 620.687,-0.956558 L 620.591,-1.05646 L 620.487,-1.15967
 L 620.375,-1.26645 L 620.129,-1.4917 L 619.854,-1.7341 L 618.873,-2.58163 L 618.499,-2.90938 L 618.104,-3.26195
 L 617.692,-3.64047 L 617.48,-3.83975 L 617.263,-4.04587 L 617.044,-4.25888 L 616.821,-4.4789 L 616.595,-4.70596
 L 616.367,-4.94016 L 616.136,-5.18152 L 615.904,-5.43007 L 615.669,-5.68585 L 615.433,-5.94887 L 615.196,-6.21913
 L 614.958,-6.49661 L 614.72,-6.7813 L 614.481,-7.07314 L 614.242,-7.37212 L 614.004,-7.67816 L 613.766,-7.99121
 L 613.529,-8.31117 L 613.293,-8.63797 L 613.058,-8.97151 L 612.825,-9.31166 L 612.594,-9.65831 L 612.366,-10.0113
 L 612.14,-10.3706 L 611.916,-10.7359 L 611.696,-11.1071 L 611.479,-11.484 L 611.265,-11.8665 L 611.055,-12.2544
 L 610.849,-12.6474 L 610.647,-13.0454 L 610.449,-13.4481 L 610.256,-13.8553 L 610.068,-14.2669 L 609.884,-14.6824
 L 609.706,-15.1018 L 609.532,-15.5247 L 609.364,-15.951 L 609.202,-16.3802 L 609.045,-16.8123 L 608.894,-17.2468
 L 608.749,-17.6835 L 608.61,-18.1222 L 608.476,-18.5625 L 608.349,-19.0042 L 608.228,-19.4469 L 608.114,-19.8905
 L 608.005,-20.3345 L 607.903,-20.7787 L 607.807,-21.2228 L 607.718,-21.6665 L 607.635,-22.1095 L 607.558,-22.5515
 L 607.488,-22.9922 L 607.423,-23.4313 L 607.365,-23.8685 L 607.313,-24.3036 L 607.268,-24.7362 L 607.228,-25.166
 L 607.194,-25.5929 L 607.165,-26.0164 L 607.143,-26.4364 L 607.126,-26.8525 L 607.114,-27.2646 L 607.108,-27.6722
 L 607.107,-28.0753 L 607.11,-28.4735 L 607.119,-28.8666 L 607.132,-29.2544 L 607.15,-29.6366 L 607.171,-30.0131
 L 607.197,-30.3836 L 607.226,-30.748 L 607.259,-31.106 L 607.295,-31.4574 L 607.335,-31.8022 L 607.377,-32.14
 L 607.422,-32.4709 L 607.469,-32.7945 L 607.518,-33.1109 L 607.569,-33.4199 L 607.621,-33.7213 L 607.675,-34.0151
 L 607.73,-34.3012 L 607.841,-34.8498 L 607.953,-35.3668 L 608.116,-36.0823 L 608.359,-37.1145 L 608.438,-37.4722
 L 608.505,-37.799 L 608.533,-37.951 L 608.556,-38.0957 L 608.575,-38.2331 L 608.59,-38.3634 L 608.6,-38.4867
 L 608.604,-38.6031 L 608.603,-38.7129 L 608.597,-38.8161 L 608.585,-38.913 L 608.567,-39.0038 L 608.542,-39.0886
 L 608.511,-39.1677 L 608.474,-39.2413 L 608.43,-39.3096 L 608.378,-39.3728 L 608.32,-39.4312 L 608.254,-39.485
 L 608.181,-39.5344 L 608.1,-39.5798 L 608.012,-39.6213 L 607.916,-39.6593 L 607.812,-39.6939 L 607.7,-39.7256
 L 607.579,-39.7545 L 607.451,-39.7809 L 607.314,-39.8051 L 607.169,-39.8274 L 607.016,-39.8481 L 606.685,-39.8858
 L 606.32,-39.9204 L 605.028,-40.029 L 604.532,-40.0743 L 604.006,-40.1278 L 603.45,-40.1916 L 603.161,-40.228
 L 602.865,-40.2677 L 602.562,-40.3109 L 602.253,-40.3579 L 601.937,-40.409 L 601.614,-40.4642 L 601.286,-40.5239
 L 600.951,-40.5882 L 600.611,-40.6573 L 600.266,-40.7314 L 599.915,-40.8107 L 599.56,-40.8954 L 599.199,-40.9855
 L 598.835,-41.0812 L 598.466,-41.1827 L 598.093,-41.2901 L 597.716,-41.4035 L 597.336,-41.5231 L 596.953,-41.6488
 L 596.568,-41.7808 L 596.179,-41.9191 L 595.789,-42.0639 L 595.396,-42.2151 L 595.002,-42.3728 L 594.607,-42.537
 L 594.21,-42.7078 L 593.813,-42.8851 L 593.415,-43.0689 L 593.018,-43.2593 L 592.62,-43.4561 L 592.222,-43.6593
 L 591.826,-43.869 L 591.43,-44.0849 L 591.036,-44.3071 L 590.643,-44.5354 L 590.252,-44.7697 L 589.863,-45.01
 L 589.477,-45.2561 L 589.093,-45.5079 L 588.712,-45.7653 L 588.335,-46.028 L 587.961,-46.296 L 587.59,-46.5691
 L 587.224,-46.847 L 586.861,-47.1296 L 586.503,-47.4168 L 586.15,-47.7082 L 585.801,-48.0037 L 585.457,-48.3031
 L 585.119,-48.606 L 584.786,-48.9124 L 584.458,-49.222 L 584.136,-49.5344 L 583.82,-49.8495 L 583.51,-50.167
 L 583.206,-50.4866 L 582.908,-50.808 L 582.617,-51.1311 L 582.332,-51.4554 L 582.053,-51.7807 L 581.782,-52.1068
 L 581.517,-52.4333 L 581.258,-52.76 L 581.007,-53.0865 L 580.762,-53.4126 L 580.524,-53.738 L 580.293,-54.0623
 L 580.069,-54.3853 L 579.851,-54.7067 L 579.641,-55.0262 L 579.437,-55.3435 L 579.24,-55.6584 L 579.05,-55.9704
 L 578.866,-56.2794 L 578.689,-56.585 L 578.518,-56.887 L 578.353,-57.1852 L 578.195,-57.4791 L 578.043,-57.7686
 L 577.897,-58.0535 L 577.756,-58.3334 L 577.622,-58.6081 L 577.492,-58.8773 L 577.368,-59.1409 L 577.136,-59.6502
 L 576.922,-60.1341 L 576.634,-60.8091 L 576.224,-61.7867 L 576.078,-62.1229 L 575.94,-62.4264 L 575.873,-62.5657
 L 575.807,-62.6966 L 575.742,-62.8191 L 575.677,-62.933 L 575.612,-63.0384 L 575.547,-63.1353 L 575.482,-63.2236
 L 575.416,-63.3034 L 575.35,-63.3747 L 575.281,-63.4374 L 575.212,-63.4917 L 575.14,-63.5375 L 575.067,-63.575
 L 574.991,-63.6042 L 574.912,-63.6253 L 574.831,-63.6382 L 574.746,-63.6431 L 574.658,-63.6401 L 574.566,-63.6293
 L 574.47,-63.611 L 574.37,-63.5851 L 574.265,-63.552 L 574.156,-63.5117 L 574.041,-63.4644 L 573.922,-63.4103
 L 573.797,-63.3496 L 573.667,-63.2825 L 573.531,-63.2092 L 573.241,-63.0448 L 572.925,-62.8585 L 571.816,-62.1867
 L 571.388,-61.9322 L 570.931,-61.6662 L 570.444,-61.3909 L 570.189,-61.2504 L 569.926,-61.1086 L 569.655,-60.9655
 L 569.377,-60.8216 L 569.092,-60.6771 L 568.798,-60.5323 L 568.498,-60.3875 L 568.189,-60.243 L 567.874,-60.0991
 L 567.55,-59.956 L 567.22,-59.814 L 566.883,-59.6735 L 566.538,-59.5346 L 566.187,-59.3977 L 565.829,-59.263
 L 565.464,-59.1307 L 565.093,-59.0011 L 564.715,-58.8746 L 564.332,-58.7512 L 563.942,-58.6312 L 563.546,-58.5149
 L 563.145,-58.4025 L 562.739,-58.2941 L 562.327,-58.1901 L 561.911,-58.0905 L 561.49,-57.9956 L 561.064,-57.9055
 L 560.634,-57.8205 L 560.201,-57.7406 L 559.763,-57.666 L 559.322,-57.5969 L 558.878,-57.5334 L 558.431,-57.4755
 L 557.982,-57.4235 L 557.53,-57.3773 L 557.076,-57.3371 L 556.62,-57.303 L 556.163,-57.275 L 555.704,-57.2532
 L 555.245,-57.2376 L 554.785,-57.2282 L 554.325,-57.2251 L 553.864,-57.2282 L 553.404,-57.2376 L 552.945,-57.2532
 L 552.487,-57.275 L 552.029,-57.303 L 551.574,-57.3371 L 551.12,-57.3773 L 550.668,-57.4235 L 550.218,-57.4755
 L 549.771,-57.5334 L 549.327,-57.5969 L 548.886,-57.666 L 548.449,-57.7406 L 548.015,-57.8205 L 547.585,-57.9055
 L 547.159,-57.9956 L 546.738,-58.0905 L 546.322,-58.1901 L 545.91,-58.2941 L 545.504,-58.4025 L 545.103,-58.5149
 L 544.707,-58.6312 L 544.318,-58.7512 L 543.934,-58.8746 L 543.556,-59.0011 L 543.185,-59.1307 L 542.82,-59.263
 L 542.462,-59.3977 L 542.111,-59.5346 L 541.766,-59.6735 L 541.429,-59.814 L 541.099,-59.956 L 540.776,-60.0991
 L 540.46,-60.243 L 540.152,-60.3875 L 539.851,-60.5323 L 539.558,-60.6771 L 539.272,-60.8216 L 538.994,-60.9655
 L 538.723,-61.1086 L 538.461,-61.2504 L 538.205,-61.3909 L 537.718,-61.6662 L 537.261,-61.9322 L 536.631,-62.3089
 L 535.724,-62.8585 L 535.409,-63.0448 L 535.118,-63.2092 L 534.982,-63.2825 L 534.852,-63.3496 L 534.727,-63.4103
 L 534.608,-63.4644 L 534.494,-63.5117 L 534.384,-63.552 L 534.28,-63.5851 L 534.179,-63.611 L 534.083,-63.6293
 L 533.992,-63.6401 L 533.903,-63.6431 L 533.819,-63.6382 L 533.737,-63.6253 L 533.658,-63.6042 L 533.582,-63.575
 L 533.509,-63.5375 L 533.437,-63.4917 L 533.368,-63.4374 L 533.3,-63.3747 L 533.233,-63.3034 L 533.167,-63.2236
 L 533.102,-63.1353 L 533.037,-63.0384 L 532.972,-62.933 L 532.908,-62.8191 L 532.842,-62.6966 L 532.776,-62.5657
 L 532.709,-62.4264 L 532.571,-62.1229 L 532.426,-61.7867 L 531.923,-60.5911 L 531.727,-60.1341 L 531.513,-59.6502
 L 531.281,-59.1409 L 531.157,-58.8773 L 531.028,-58.6081 L 530.893,-58.3334 L 530.753,-58.0535 L 530.606,-57.7686
 L 530.454,-57.4791 L 530.296,-57.1852 L 530.131,-56.887 L 529.961,-56.585 L 529.783,-56.2794 L 529.6,-55.9704
 L 529.409,-55.6584 L 529.212,-55.3435 L 529.008,-55.0262 L 528.798,-54.7067 L 528.58,-54.3853 L 528.356,-54.0623
 L 528.125,-53.738 L 527.887,-53.4126 L 527.643,-53.0865 L 527.391,-52.76 L 527.133,-52.4333 L 526.868,-52.1068
 L 526.596,-51.7807 L 526.317,-51.4554 L 526.032,-51.1311 L 525.741,-50.808 L 525.443,-50.4866 L 525.139,-50.167
 L 524.829,-49.8495 L 524.513,-49.5344 L 524.191,-49.222 L 523.864,-48.9124 L 523.531,-48.606 L 523.192,-48.3031
 L 522.848,-48.0037 L 522.5,-47.7082 L 522.146,-47.4168 L 521.788,-47.1296 L 521.426,-46.847 L 521.059,-46.5691
 L 520.689,-46.296 L 520.314,-46.028 L 519.937,-45.7653 L 519.556,-45.5079 L 519.172,-45.2561 L 518.786,-45.01
 L 518.397,-44.7697 L 518.006,-44.5354 L 517.613,-44.3071 L 517.219,-44.0849 L 516.823,-43.869 L 516.427,-43.6593
 L 516.029,-43.4561 L 515.632,-43.2593 L 515.234,-43.0689 L 514.836,-42.8851 L 514.439,-42.7078 L 514.042,-42.537
 L 513.647,-42.3728 L 513.253,-42.2151 L 512.86,-42.0639 L 512.47,-41.9191 L 512.082,-41.7808 L 511.696,-41.6488
 L 511.313,-41.5231 L 510.933,-41.4035 L 510.556,-41.2901 L 510.184,-41.1827 L 509.815,-41.0812 L 509.45,-40.9855
 L 509.09,-40.8954 L 508.734,-40.8107 L 508.383,-40.7314 L 508.038,-40.6573 L 507.698,-40.5882 L 507.364,-40.5239
 L 507.035,-40.4642 L 506.713,-40.409 L 506.397,-40.3579 L 506.087,-40.3109 L 505.784,-40.2677 L 505.488,-40.228
 L 505.199,-40.1916 L 504.643,-40.1278 L 504.117,-40.0743 L 503.386,-40.0088 L 502.329,-39.9204 L 501.964,-39.8858
 L 501.633,-39.8481 L 501.48,-39.8274 L 501.335,-39.8051 L 501.198,-39.7809 L 501.07,-39.7545 L 500.95,-39.7256
 L 500.838,-39.6939 L 500.733,-39.6593 L 500.637,-39.6213 L 500.549,-39.5798 L 500.468,-39.5344 L 500.395,-39.485
 L 500.329,-39.4312 L 500.271,-39.3728 L 500.22,-39.3096 L 500.175,-39.2413 L 500.138,-39.1677 L 500.107,-39.0886
 L 500.083,-39.0038 L 500.064,-38.913 L 500.052,-38.8161 L 500.046,-38.7129 L 500.045,-38.6031 L 500.05,-38.4867
 L 500.059,-38.3634 L 500.074,-38.2331 L 500.093,-38.0957 L 500.117,-37.951 L 500.144,-37.799 L 500.211,-37.4722
 L 500.291,-37.1145 L 500.587,-35.8518 L 500.697,-35.3668 L 500.808,-34.8498 L 500.92,-34.3012 L 500.974,-34.0151
 L 501.028,-33.7213 L 501.08,-33.4199 L 501.131,-33.1109 L 501.181,-32.7945 L 501.228,-32.4709 L 501.272,-32.14
 L 501.315,-31.8022 L 501.354,-31.4574 L 501.39,-31.106 L 501.423,-30.748 L 501.452,-30.3836 L 501.478,-30.0131
 L 501.5,-29.6366 L 501.517,-29.2544 L 501.53,-28.8666 L 501.539,-28.4735 L 501.542,-28.0753 L 501.541,-27.6722
 L 501.535,-27.2646 L 501.523,-26.8525 L 501.506,-26.4364 L 501.484,-26.0164 L 501.456,-25.5929 L 501.422,-25.166
 L 501.382,-24.7362 L 501.336,-24.3036 L 501.284,-23.8685 L 501.226,-23.4313 L 501.162,-22.9922 L 501.091,-22.5515
 L 501.014,-22.1095 L 500.931,-21.6665 L 500.842,-21.2228 L 500.746,-20.7787 L 500.644,-20.3345 L 500.535,-19.8905
 L 500.421,-19.4469 L 500.3,-19.0042 L 500.173,-18.5625 L 500.04,-18.1222 L 499.9,-17.6835 L 499.755,-17.2468
 L 499.604,-16.8123 L 499.447,-16.3802 L 499.285,-15.951 L 499.117,-15.5247 L 498.944,-15.1018 L 498.765,-14.6824
 L 498.582,-14.2669 L 498.393,-13.8553 L 498.2,-13.4481 L 498.002,-13.0454 L 497.8,-12.6474 L 497.594,-12.2544
 L 497.384,-11.8665 L 497.171,-11.484 L 496.953,-11.1071 L 496.733,-10.7359 L 496.51,-10.3706 L 496.283,-10.0113
 L 496.055,-9.65831 L 495.824,-9.31166 L 495.591,-8.97151 L 495.357,-8.63797 L 495.121,-8.31117 L 494.884,-7.99121
 L 494.646,-7.67816 L 494.407,-7.37212 L 494.168,-7.07314 L 493.93,-6.7813 L 493.691,-6.49661 L 493.453,-6.21913
 L 493.216,-5.94887 L 492.98,-5.68585 L 492.746,-5.43007 L 492.513,-5.18152 L 492.282,-4.94016 L 492.054,-4.70596
 L 491.828,-4.4789 L 491.605,-4.25888 L 491.386,-4.04587 L 491.17,-3.83975 L 490.957,-3.64047 L 490.545,-3.26195
 L 490.151,-2.90938 L 489.598,-2.42668 L 488.795,-1.7341 L 488.52,-1.4917 L 488.274,-1.26645 L 488.162,-1.15967
 L 488.058,-1.05646 L 487.962,-0.956558 L 487.874,-0.859726 L 487.793,-0.765686 L 487.721,-0.674164 L 487.657,-0.584915
 L 487.602,-0.49765 L 487.555,-0.412094 L 487.516,-0.327957 L 487.486,-0.244965 L 487.464,-0.162827 L 487.451,-0.0812683
 L 487.447,-0 L 487.451,0.0812683 L 487.464,0.162827 L 487.486,0.244965 L 487.516,0.327957 L 487.555,0.412094
 L 487.602,0.49765 L 487.657,0.584915 L 487.721,0.674164 L 487.793,0.765686 L 487.874,0.859726 L 487.962,0.956558
 L 488.058,1.05646 L 488.162,1.15967 L 488.274,1.26645 L 488.52,1.4917 L 488.795,1.7341 L 489.777,2.58163
 L 490.151,2.90938 L 490.545,3.26195 L 490.957,3.64047 L 491.17,3.83975 L 491.386,4.04587 L 491.605,4.25888
 L 491.828,4.4789 L 492.054,4.70596 L 492.282,4.94016 L 492.513,5.18152 L 492.746,5.43007 L 492.98,5.68585
 L 493.216,5.94887 L 493.453,6.21913 L 493.691,6.49661 L 493.93,6.7813 L 494.168,7.07314 L 494.407,7.37212
 L 494.646,7.67816 L 494.884,7.99121 L 495.121,8.31117 L 495.357,8.63797 L 495.591,8.97151 L 495.824,9.31166
 L 496.055,9.65831 L 496.283,10.0113 L 496.51,10.3706 L 496.733,10.7359 L 496.953,11.1071 L 497.171,11.484
 L 497.384,11.8665 L 497.594,12.2544 L 497.8,12.6474 L 498.002,13.0454 L 498.2,13.4481 L 498.393,13.8553
 L 498.582,14.2669 L 498.765,14.6824 L 498.944,15.1018 L 499.117,15.5247 L 499.285,15.951 L 499.447,16.3802
 L 499.604,16.8123 L 499.755,17.2468 L 499.9,17.6835 L 500.04,18.1222 L 500.173,18.5625 L 500.3,19.0042
 L 500.421,19.4469 L 500.535,19.8905 L 500.644,20.3345 L 500.746,20.7787 L 500.842,21.2228 L 500.931,21.6665
 L 501.014,22.1095 L 501.091,22.5515 L 501.162,22.9922 L 501.226,23.4313 L 501.284,23.8685 L 501.336,24.3036
 L 501.382,24.7362 L 501.422,25.166 L 501.456,25.5929 L 501.484,26.0164 L 501.506,26.4364 L 501.523,26.8525
 L 501.535,27.2646 L 501.541,27.6722 L 501.542,28.0753 L 501.539,28.4735 L 501.53,28.8666 L 501.517,29.2544
 L 501.5,29.6366 L 501.478,30.0131 L 501.452,30.3836 L 501.423,30.748 L 501.39,31.106 L 501.354,31.4574
 L 501.315,31.8022 L 501.272,32.14 L 501.228,32.4709 L 501.181,32.7945 L 501.131,33.1109 L 501.08,33.4199
 L 501.028,33.7213 L 500.974,34.0151 L 500.92,34.3012 L 500.808,34.8498 L 500.697,35.3668 L 500.533,36.0823
 L 500.291,37.1145 L 500.211,37.4722 L 500.144,37.799 L 500.117,37.951 L 500.093,38.0957 L 500.074,38.2331
 L 500.059,38.3634 L 500.05,38.4867 L 500.045,38.6031 L 500.046,38.7129 L 500.052,38.8161 L 500.064,38.913
 L 500.083,39.0038 L 500.107,39.0886 L 500.138,39.1677 L 500.175,39.2413 L 500.22,39.3096 L 500.271,39.3728
 L 500.329,39.4312 L 500.395,39.485 L 500.468,39.5344 L 500.549,39.5798 L 500.637,39.6213 L 500.733,39.6593
 L 500.838,39.6939 L 500.95,39.7256 L 501.07,39.7545 L 501.198,39.7809 L 501.335,39.8051 L 501.48,39.8274
 L 501.633,39.8481 L 501.964,39.8858 L 502.329,39.9204 L 503.622,40.029 L 504.117,40.0743 L 504.643,40.1278
 L 505.199,40.1916 L 505.488,40.228 L 505.784,40.2677 L 506.087,40.3109 L 506.397,40.3579 L 506.713,40.409
 L 507.035,40.4642 L 507.364,40.5239 L 507.698,40.5882 L 508.038,40.6573 L 508.383,40.7314 L 508.734,40.8107
 L 509.09,40.8954 L 509.45,40.9855 L 509.815,41.0812 L 510.184,41.1827 L 510.556,41.2901 L 510.933,41.4035
 L 511.313,41.5231 L 511.696,41.6488 L 512.082,41.7808 L 512.47,41.9191 L 512.86,42.0639 L 513.253,42.2151
 L 513.647,42.3728 L 514.042,42.537 L 514.439,42.7078 L 514.836,42.8851 L 515.234,43.0689 L 515.632,43.2593
 L 516.029,43.4561 L 516.427,43.6593 L 516.823,43.869 L 517.219,44.0849 L 517.613,44.3071 L 518.006,44.5354
 L 518.397,44.7697 L 518.786,45.01 L 519.172,45.2561 L 519.556,45.5079 L 519.937,45.7653 L 520.314,46.028
 L 520.689,46.296 L 521.059,46.5691 L 521.426,46.847 L 521.788,47.1296 L 522.146,47.4168 L 522.5,47.7082
 L 522.848,48.0037 L 523.192,48.3031 L 523.531,48.606 L 523.864,48.9124 L 524.191,49.222 L 524.513,49.5344
 L 524.829,49.8495 L 525.139,50.167 L 525.443,50.4866 L 525.741,50.808 L 526.032,51.1311 L 526.317,51.4554
 L 526.596,51.7807 L 526.868,52.1068 L 527.133,52.4333 L 527.391,52.76 L 527.643,53.0865 L 527.887,53.4126
 L 528.125,53.738 L 528.356,54.0623 L 528.58,54.3853 L 528.798,54.7067 L 529.008,55.0262 L 529.212,55.3435
 L 529.409,55.6584 L 529.6,55.9704 L 529.783,56.2794 L 529.961,56.585 L 530.131,56.887 L 530.296,57.1852
 L 530.454,57.4791 L 530.606,57.7686 L 530.753,58.0535 L 530.893,58.3334 L 531.028,58.6081 L 531.157,58.8773
 L 531.281,59.1409 L 531.513,59.6502 L 531.727,60.1341 L 532.015,60.8091 L 532.426,61.7867 L 532.571,62.1229
 L 532.709,62.4264 L 532.776,62.5657 L 532.842,62.6966 L 532.908,62.8191 L 532.972,62.933 L 533.037,63.0384
 L 533.102,63.1353 L 533.167,63.2236 L 533.233,63.3034 L 533.3,63.3747 L 533.368,63.4374 L 533.437,63.4917
 L 533.509,63.5375 L 533.582,63.575 L 533.658,63.6042 L 533.737,63.6253 L 533.819,63.6382 L 533.903,63.6431
 L 533.992,63.6401 L 534.083,63.6293 L 534.179,63.611 L 534.28,63.5851 L 534.384,63.552 L 534.494,63.5117
 L 534.608,63.4644 L 534.727,63.4103 L 534.852,63.3496 L 534.982,63.2825 L 535.118,63.2092 L 535.409,63.0448
 L 535.724,62.8585 L 536.833,62.1867 L 537.261,61.9322 L 537.718,61.6662 L 538.205,61.3909 L 538.461,61.2504
 L 538.723,61.1086 L 538.994,60.9655 L 539.272,60.8216 L 539.558,60.6771 L 539.851,60.5323 L 540.152,60.3875
 L 540.46,60.243 L 540.776,60.0991 L 541.099,59.956 L 541.429,59.814 L 541.766,59.6735 L 542.111,59.5346
 L 542.462,59.3977 L 542.82,59.263 L 543.185,59.1307 L 543.556,59.0011 L 543.934,58.8746 L 544.318,58.7512
 L 544.707,58.6312 L 545.103,58.5149 L 545.504,58.4025 L 545.91,58.2941 L 546.322,58.1901 L 546.738,58.0905
 L 547.159,57.9956 L 547.585,57.9055 L 548.015,57.8205 L 548.449,57.7406 L 548.886,57.666 L 549.327,57.5969
 L 549.771,57.5334 L 550.218,57.4755 L 550.668,57.4235 L 551.12,57.3773 L 551.574,57.3371 L 552.029,57.303
 L 552.487,57.275 L 552.945,57.2532 L 553.404,57.2376 L 553.864,57.2282 L 554.325,57.2251 L 554.785,57.2282
 L 555.245,57.2376 L 555.704,57.2532 L 556.163,57.275 L 556.62,57.303 L 557.076,57.3371 L 557.53,57.3773
 L 557.982,57.4235 L 558.431,57.4755 L 558.878,57.5334 L 559.322,57.5969 L 559.763,57.666 L 560.201,57.7406
 L 560.634,57.8205 L 561.064,57.9055 L 561.49,57.9956 L 561.911,58.0905 L 562.327,58.1901 L 562.739,58.2941
 L 563.145,58.4025 L 563.546,58.5149 L 563.942,58.6312 L 564.332,58.7512 L 564.715,58.8746 L 565.093,59.0011
 L 565.464,59.1307 L 565.829,59.263 L 566.187,59.3977 L 566.538,59.5346 L 566.883,59.6735 L 567.22,59.814
 L 567.55,59.956 L 567.874,60.0991 L 568.189,60.243 L 568.498,60.3875 L 568.798,60.5323 L 569.092,60.6771
 L 569.377,60.8216 L 569.655,60.9655 L 569.926,61.1086 L 570.189,61.2504 L 570.444,61.3909 L 570.931,61.6662
 L 571.388,61.9322 L 572.018,62.3089 L 572.925,62.8585 L 573.241,63.0448 L 573.531,63.2092 L 573.667,63.2825
 L 573.797,63.3496 L 573.922,63.4103 L 574.041,63.4644 L 574.156,63.5117 L 574.265,63.552 L 574.37,63.5851
 L 574.47,63.611 L 574.566,63.6293 L 574.658,63.6401 L 574.746,63.6431 z
M 554.262,0.496048 L 554.2,0.484283 L 554.141,0.464874 L 554.084,0.438141 L 554.031,0.404495 L 554.006,0.385254
 L 553.96,0.34227 L 553.92,0.293884 L 553.886,0.240875 L 553.872,0.212875 L 553.849,0.154495 L 553.84,0.124344
 L 553.829,0.0626526 L 553.825,-0 L 553.829,-0.0626526 L 553.84,-0.124344 L 553.86,-0.184052 L 553.872,-0.212875
 L 553.902,-0.267899 L 553.92,-0.293884 L 553.96,-0.34227 L 554.006,-0.385254 L 554.057,-0.42215 L 554.112,-0.452408
 L 554.17,-0.475525 L 554.231,-0.491135 L 554.293,-0.499008 L 554.356,-0.499008 L 554.418,-0.491135 L 554.479,-0.475525
 L 554.538,-0.452408 L 554.593,-0.42215 L 554.619,-0.404495 L 554.667,-0.364471 L 554.71,-0.31871 L 554.747,-0.267899
 L 554.777,-0.212875 L 554.8,-0.154495 L 554.816,-0.093689 L 554.824,-0.0313873 L 554.825,-0 L 554.821,0.0626526
 L 554.816,0.093689 L 554.8,0.154495 L 554.777,0.212875 L 554.747,0.267899 L 554.71,0.31871 L 554.667,0.364471
 L 554.619,0.404495 L 554.565,0.438141 L 554.538,0.452408 L 554.479,0.475525 L 554.418,0.491135 L 554.356,0.499008
 L 554.325,0.5 z
" stroke="black" fill="lightgray" stroke-width="0.5"/></svg>
