<?xml version="1.0" standalone="no"?>
<!DOCTYPE svg PUBLIC "-//W3C//DTD SVG 1.1//EN" "http://www.w3.org/Graphics/SVG/1.1/DTD/svg11.dtd">
<svg width="1134" height="1512" viewBox="-567 -756 1134 1512" xmlns="http://www.w3.org/2000/svg" version="1.1">
<title>OpenSCAD Model</title>
<path d="
M 566.923,-755.897 L -566.923,-755.897 L -566.923,755.897 L 566.923,755.897 z
M 191.139,-642.339 L 219.895,-651.683 L 301.65,-400.067 L 272.894,-390.724 z
M -63.0077,-633.224 L -38.5464,-650.996 L 183.606,-345.23 L 159.145,-327.457 z
M 400.626,-415.743 L 400.626,-642.513 L 430.861,-642.513 L 430.861,-415.743 z
M -449.29,-609.797 L -431.518,-634.258 L 88.286,-256.599 L 70.5138,-232.137 z
M -451.609,-265.924 L -442.266,-294.68 L 25.0196,-142.85 L 15.6762,-114.094 z
M -453.538,15.1179 L -453.538,-15.1179 L 0,-15.1179 L 0,15.1179 z
M 414.794,33.9855 L 413.849,33.8962 L 412.911,33.7476 L 411.984,33.5404 L 411.072,33.2755 L 410.178,32.9537
 L 409.307,32.5766 L 408.46,32.1454 L 407.643,31.6619 L 406.857,31.1281 L 406.107,30.546 L 405.395,29.9179
 L 404.723,29.2464 L 404.095,28.534 L 403.513,27.7835 L 402.979,26.998 L 402.496,26.1805 L 402.064,25.3343
 L 401.687,24.4627 L 401.365,23.5691 L 401.1,22.6571 L 400.893,21.7302 L 400.745,20.7922 L 400.655,19.8467
 L 400.626,18.8974 L 400.655,17.9482 L 400.745,17.0026 L 400.893,16.0646 L 401.1,15.1377 L 401.365,14.2257
 L 401.687,13.3321 L 402.064,12.4605 L 402.496,11.6143 L 402.979,10.7968 L 403.513,10.0113 L 404.095,9.26088
 L 404.723,8.54848 L 405.395,7.87692 L 406.107,7.24884 L 406.857,6.66675 L 407.643,6.13292 L 408.46,5.64946
 L 409.307,5.21829 L 410.178,4.84111 L 411.072,4.51941 L 411.984,4.25444 L 412.911,4.04726 L 413.849,3.89868
 L 414.794,3.80931 L 415.743,3.77948 L 416.693,3.80931 L 417.638,3.89868 L 418.576,4.04726 L 419.503,4.25444
 L 420.415,4.51941 L 421.309,4.84111 L 422.18,5.21829 L 423.027,5.64946 L 423.844,6.13292 L 424.63,6.66675
 L 425.38,7.24884 L 426.092,7.87692 L 426.764,8.54848 L 427.392,9.26088 L 427.974,10.0113 L 428.508,10.7968
 L 428.991,11.6143 L 429.423,12.4605 L 429.8,13.3321 L 430.121,14.2257 L 430.386,15.1377 L 430.594,16.0646
 L 430.742,17.0026 L 430.832,17.9482 L 430.861,18.8974 L 430.832,19.8467 L 430.742,20.7922 L 430.594,21.7302
 L 430.386,22.6571 L 430.121,23.5691 L 429.8,24.4627 L 429.423,25.3343 L 428.991,26.1805 L 428.508,26.998
 L 427.974,27.7835 L 427.392,28.534 L 426.764,29.2464 L 426.092,29.9179 L 425.38,30.546 L 424.63,31.1281
 L 423.844,31.6619 L 423.027,32.1454 L 422.18,32.5766 L 421.309,32.9537 L 420.415,33.2755 L 419.503,33.5404
 L 418.576,33.7476 L 417.638,33.8962 L 416.693,33.9855 L 415.743,34.0154 z
M -451.609,265.924 L 15.6762,114.094 L 25.0196,142.85 L -442.266,294.68 z
M -326.983,520.936 L 70.5138,232.137 L 88.286,256.599 L -309.211,545.397 z
M 3.63808,541.494 L 159.145,327.457 L 183.606,345.23 L 28.0994,559.266 z
M -453.538,657.631 L -453.538,627.395 L 415.743,627.395 L 415.743,657.631 z
" stroke="black" fill="lightgray" stroke-width="0.5"/></svg>
