999
dxflib 3.17.0.0
  0
SECTION
  2
HEADER
  9
$ACADVER
  1
AC1015
  9
$HANDSEED
  5
FFFF
  9
$DIMADEC
 70
0
  9
$DIMASZ
 40
0.18
  9
$DIMAUNIT
 70
0
  9
$DIMAZIN
 70
0
  9
$DIMDEC
 70
4
  9
$DIMDLI
 40
0.36
  9
$DIMDSEP
 70
46
  9
$DIMEXE
 40
0.18
  9
$DIMEXO
 40
0.0625
  9
$DIMGAP
 40
0.09
  9
$DIMLUNIT
 70
2
  9
$DIMSCALE
 40
1.0
  9
$DIMTSZ
 40
0.0
  9
$DIMTXT
 40
0.18
  9
$DIMZIN
 70
0
  9
$DWGCODEPAGE
  3
ANSI_1252
  9
$INSUNITS
 70
5
  9
$LTSCALE
 40
1.0
  9
$MAXACTVP
 70
64
  9
$MEASUREMENT
 70
1
  9
$PDMODE
 70
0
  9
$PDSIZE
 40
0.0
  0
ENDSEC
  0
SECTION
  2
TABLES
  0
TABLE
  2
VPORT
  5
8
100
AcDbSymbolTable
 70
1
  0
VPORT
  5
30
100
AcDbSymbolTableRecord
100
AcDbViewportTableRecord
  2
*Active
 70
0
 10
0.0
 20
0.0
 11
1.0
 21
1.0
 12
286.3055555555554861
 22
148.5
 13
0.0
 23
0.0
 14
10.0
 24
10.0
 15
10.0
 25
10.0
 16
0.0
 26
0.0
 36
1.0
 17
0.0
 27
0.0
 37
0.0
 40
297.0
 41
1.92798353909465
 42
50.0
 43
0.0
 44
0.0
 50
0.0
 51
0.0
 71
0
 72
100
 73
1
 74
3
 75
1
 76
1
 77
0
 78
0
281
0
 65
1
110
0.0
120
0.0
130
0.0
111
1.0
121
0.0
131
0.0
112
0.0
122
1.0
132
0.0
 79
0
146
0.0
  0
ENDTAB
  0
TABLE
  2
LTYPE
  5
5
100
AcDbSymbolTable
 70
41
  0
LTYPE
  5
16
100
AcDbSymbolTableRecord
100
AcDbLinetypeTableRecord
  2
Continuous
 70
0
  3
Solid line
 72
65
 73
0
 40
0.0
  0
LTYPE
  5
31
100
AcDbSymbolTableRecord
100
AcDbLinetypeTableRecord
  2
ACAD_ISO14W100
 70
0
  3
ISO dash triple-dot __ . . . __ . . . __ . . . _
 72
65
 73
8
 40
24.0
 49
12.0
 74
0
 49
-3.0
 74
0
 49
0.0
 74
0
 49
-3.0
 74
0
 49
0.0
 74
0
 49
-3.0
 74
0
 49
0.0
 74
0
 49
-3.0
 74
0
  0
LTYPE
  5
32
100
AcDbSymbolTableRecord
100
AcDbLinetypeTableRecord
  2
ACAD_ISO03W100
 70
0
  3
ISO dash space __    __    __    __    __    __
 72
65
 73
2
 40
30.0
 49
12.0
 74
0
 49
-18.0
 74
0
  0
LTYPE
  5
33
100
AcDbSymbolTableRecord
100
AcDbLinetypeTableRecord
  2
ACAD_ISO08W100
 70
0
  3
ISO long-dash short-dash ____ __ ____ __ ____ _
 72
65
 73
4
 40
36.0
 49
24.0
 74
0
 49
-3.0
 74
0
 49
6.0
 74
0
 49
-3.0
 74
0
  0
LTYPE
  5
34
100
AcDbSymbolTableRecord
100
AcDbLinetypeTableRecord
  2
CENTERX2
 70
0
  3
Center (2x) ________  __  ________  __  _____
 72
65
 73
4
 40
101.6000000000000085
 49
63.5
 74
0
 49
-12.6999999999999993
 74
0
 49
12.6999999999999993
 74
0
 49
-12.6999999999999993
 74
0
  0
LTYPE
  5
35
100
AcDbSymbolTableRecord
100
AcDbLinetypeTableRecord
  2
DASHDOT
 70
0
  3
Dash dot __ . __ . __ . __ . __ . __ . __ . __
 72
65
 73
4
 40
25.3999999999999986
 49
12.6999999999999993
 74
0
 49
-6.3499999999999996
 74
0
 49
0.0
 74
0
 49
-6.3499999999999996
 74
0
  0
LTYPE
  5
36
100
AcDbSymbolTableRecord
100
AcDbLinetypeTableRecord
  2
ACAD_ISO04W100
 70
0
  3
ISO long-dash dot ____ . ____ . ____ . ____ . _
 72
65
 73
4
 40
30.0
 49
24.0
 74
0
 49
-3.0
 74
0
 49
0.0
 74
0
 49
-3.0
 74
0
  0
LTYPE
  5
37
100
AcDbSymbolTableRecord
100
AcDbLinetypeTableRecord
  2
HIDDEN
 70
0
  3
Hidden __ __ __ __ __ __ __ __ __ __ __ __ __ __
 72
65
 73
2
 40
9.5249999999999986
 49
6.3499999999999996
 74
0
 49
-3.1749999999999998
 74
0
  0
LTYPE
  5
38
100
AcDbSymbolTableRecord
100
AcDbLinetypeTableRecord
  2
CENTER2
 70
0
  3
Center (.5x) ___ _ ___ _ ___ _ ___ _ ___ _ ___
 72
65
 73
4
 40
28.5750000000000028
 49
19.0500000000000007
 74
0
 49
-3.1749999999999998
 74
0
 49
3.1749999999999998
 74
0
 49
-3.1749999999999998
 74
0
  0
LTYPE
  5
39
100
AcDbSymbolTableRecord
100
AcDbLinetypeTableRecord
  2
ACAD_ISO05W100
 70
0
  3
ISO long-dash double-dot ____ .. ____ .. ____ . 
 72
65
 73
6
 40
33.0
 49
24.0
 74
0
 49
-3.0
 74
0
 49
0.0
 74
0
 49
-3.0
 74
0
 49
0.0
 74
0
 49
-3.0
 74
0
  0
LTYPE
  5
14
100
AcDbSymbolTableRecord
100
AcDbLinetypeTableRecord
  2
BYBLOCK
 70
0
  3

 72
65
 73
0
 40
0.0
  0
LTYPE
  5
3A
100
AcDbSymbolTableRecord
100
AcDbLinetypeTableRecord
  2
DOTX2
 70
0
  3
Dot (2x) .  .  .  .  .  .  .  .  .  .  .  .  .  .
 72
65
 73
2
 40
12.6999999999999993
 49
0.0
 74
0
 49
-12.6999999999999993
 74
0
  0
LTYPE
  5
3B
100
AcDbSymbolTableRecord
100
AcDbLinetypeTableRecord
  2
DOT2
 70
0
  3
Dot (.5x) ........................................
 72
65
 73
2
 40
3.1749999999999998
 49
0.0
 74
0
 49
-3.1749999999999998
 74
0
  0
LTYPE
  5
3C
100
AcDbSymbolTableRecord
100
AcDbLinetypeTableRecord
  2
DASHED2
 70
0
  3
Dashed (.5x) _ _ _ _ _ _ _ _ _ _ _ _ _ _ _ _ _ 
 72
65
 73
2
 40
9.5249999999999986
 49
6.3499999999999996
 74
0
 49
-3.1749999999999998
 74
0
  0
LTYPE
  5
3D
100
AcDbSymbolTableRecord
100
AcDbLinetypeTableRecord
  2
DASHEDX2
 70
0
  3
Dashed (2x) ____  ____  ____  ____  ____  ___
 72
65
 73
2
 40
38.0999999999999943
 49
25.3999999999999986
 74
0
 49
-12.6999999999999993
 74
0
  0
LTYPE
  5
3E
100
AcDbSymbolTableRecord
100
AcDbLinetypeTableRecord
  2
ACAD_ISO10W100
 70
0
  3
ISO dash dot __ . __ . __ . __ . __ . __ . __ . 
 72
65
 73
4
 40
18.0
 49
12.0
 74
0
 49
-3.0
 74
0
 49
0.0
 74
0
 49
-3.0
 74
0
  0
LTYPE
  5
3F
100
AcDbSymbolTableRecord
100
AcDbLinetypeTableRecord
  2
DASHDOT2
 70
0
  3
Dash dot (.5x) _._._._._._._._._._._._._._._.
 72
65
 73
4
 40
12.6999999999999993
 49
6.3499999999999996
 74
0
 49
-3.1749999999999998
 74
0
 49
0.0
 74
0
 49
-3.1749999999999998
 74
0
  0
LTYPE
  5
40
100
AcDbSymbolTableRecord
100
AcDbLinetypeTableRecord
  2
ACAD_ISO02W100
 70
0
  3
ISO dash __ __ __ __ __ __ __ __ __ __ __ __ __
 72
65
 73
2
 40
15.0
 49
12.0
 74
0
 49
-3.0
 74
0
  0
LTYPE
  5
41
100
AcDbSymbolTableRecord
100
AcDbLinetypeTableRecord
  2
HIDDEN2
 70
0
  3
Hidden (.5x) _ _ _ _ _ _ _ _ _ _ _ _ _ _ _ _ _ 
 72
65
 73
2
 40
4.7624999999999993
 49
3.1749999999999998
 74
0
 49
-1.5874999999999999
 74
0
  0
LTYPE
  5
42
100
AcDbSymbolTableRecord
100
AcDbLinetypeTableRecord
  2
PHANTOM
 70
0
  3
Phantom ______  __  __  ______  __  __  ______ 
 72
65
 73
6
 40
63.5000000000000071
 49
31.75
 74
0
 49
-6.3499999999999996
 74
0
 49
6.3499999999999996
 74
0
 49
-6.3499999999999996
 74
0
 49
6.3499999999999996
 74
0
 49
-6.3499999999999996
 74
0
  0
LTYPE
  5
43
100
AcDbSymbolTableRecord
100
AcDbLinetypeTableRecord
  2
ACAD_ISO13W100
 70
0
  3
ISO double-dash double-dot __ __ . . __ __ . . _
 72
65
 73
8
 40
36.0
 49
12.0
 74
0
 49
-3.0
 74
0
 49
12.0
 74
0
 49
-3.0
 74
0
 49
0.0
 74
0
 49
-3.0
 74
0
 49
0.0
 74
0
 49
-3.0
 74
0
  0
LTYPE
  5
44
100
AcDbSymbolTableRecord
100
AcDbLinetypeTableRecord
  2
DASHED
 70
0
  3
Dashed __ __ __ __ __ __ __ __ __ __ __ __ __ _
 72
65
 73
2
 40
19.0499999999999972
 49
12.6999999999999993
 74
0
 49
-6.3499999999999996
 74
0
  0
LTYPE
  5
45
100
AcDbSymbolTableRecord
100
AcDbLinetypeTableRecord
  2
BORDER2
 70
0
  3
Border (.5x) __.__.__.__.__.__.__.__.__.__.__.
 72
65
 73
6
 40
22.2249999999999979
 49
6.3499999999999996
 74
0
 49
-3.1749999999999998
 74
0
 49
6.3499999999999996
 74
0
 49
-3.1749999999999998
 74
0
 49
0.0
 74
0
 49
-3.1749999999999998
 74
0
  0
LTYPE
  5
46
100
AcDbSymbolTableRecord
100
AcDbLinetypeTableRecord
  2
DOT
 70
0
  3
Dot . . . . . . . . . . . . . . . . . . . . . . . .
 72
65
 73
2
 40
6.3499999999999996
 49
0.0
 74
0
 49
-6.3499999999999996
 74
0
  0
LTYPE
  5
47
100
AcDbSymbolTableRecord
100
AcDbLinetypeTableRecord
  2
CENTER
 70
0
  3
Center ____ _ ____ _ ____ _ ____ _ ____ _ ____
 72
65
 73
4
 40
50.8000000000000043
 49
31.75
 74
0
 49
-6.3499999999999996
 74
0
 49
6.3499999999999996
 74
0
 49
-6.3499999999999996
 74
0
  0
LTYPE
  5
48
100
AcDbSymbolTableRecord
100
AcDbLinetypeTableRecord
  2
DIVIDE2
 70
0
  3
Divide (.5x) __..__..__..__..__..__..__..__.._
 72
65
 73
6
 40
15.875
 49
6.3499999999999996
 74
0
 49
-3.1749999999999998
 74
0
 49
0.0
 74
0
 49
-3.1749999999999998
 74
0
 49
0.0
 74
0
 49
-3.1749999999999998
 74
0
  0
LTYPE
  5
49
100
AcDbSymbolTableRecord
100
AcDbLinetypeTableRecord
  2
ACAD_ISO11W100
 70
0
  3
ISO double-dash dot __ __ . __ __ . __ __ . __ _
 72
65
 73
6
 40
33.0
 49
12.0
 74
0
 49
-3.0
 74
0
 49
12.0
 74
0
 49
-3.0
 74
0
 49
0.0
 74
0
 49
-3.0
 74
0
  0
LTYPE
  5
4A
100
AcDbSymbolTableRecord
100
AcDbLinetypeTableRecord
  2
HIDDENX2
 70
0
  3
Hidden (2x) ____ ____ ____ ____ ____ ____ ____ 
 72
65
 73
2
 40
19.0499999999999972
 49
12.6999999999999993
 74
0
 49
-6.3499999999999996
 74
0
  0
LTYPE
  5
4B
100
AcDbSymbolTableRecord
100
AcDbLinetypeTableRecord
  2
DIVIDEX2
 70
0
  3
Divide (2x) ________  .  .  ________  .  .  _
 72
65
 73
6
 40
63.5
 49
25.3999999999999986
 74
0
 49
-12.6999999999999993
 74
0
 49
0.0
 74
0
 49
-12.6999999999999993
 74
0
 49
0.0
 74
0
 49
-12.6999999999999993
 74
0
  0
LTYPE
  5
4C
100
AcDbSymbolTableRecord
100
AcDbLinetypeTableRecord
  2
ACAD_ISO15W100
 70
0
  3
ISO double-dash triple-dot __ __ . . . __ __ . .
 72
65
 73
10
 40
39.0
 49
12.0
 74
0
 49
-3.0
 74
0
 49
12.0
 74
0
 49
-3.0
 74
0
 49
0.0
 74
0
 49
-3.0
 74
0
 49
0.0
 74
0
 49
-3.0
 74
0
 49
0.0
 74
0
 49
-3.0
 74
0
  0
LTYPE
  5
4D
100
AcDbSymbolTableRecord
100
AcDbLinetypeTableRecord
  2
BORDERX2
 70
0
  3
Border (2x) ____  ____  .  ____  ____  .  ___
 72
65
 73
6
 40
88.8999999999999915
 49
25.3999999999999986
 74
0
 49
-12.6999999999999993
 74
0
 49
25.3999999999999986
 74
0
 49
-12.6999999999999993
 74
0
 49
0.0
 74
0
 49
-12.6999999999999993
 74
0
  0
LTYPE
  5
4E
100
AcDbSymbolTableRecord
100
AcDbLinetypeTableRecord
  2
DASHDOTX2
 70
0
  3
Dash dot (2x) ____  .  ____  .  ____  .  ___
 72
65
 73
4
 40
50.7999999999999972
 49
25.3999999999999986
 74
0
 49
-12.6999999999999993
 74
0
 49
0.0
 74
0
 49
-12.6999999999999993
 74
0
  0
LTYPE
  5
15
100
AcDbSymbolTableRecord
100
AcDbLinetypeTableRecord
  2
BYLAYER
 70
0
  3

 72
65
 73
0
 40
0.0
  0
LTYPE
  5
4F
100
AcDbSymbolTableRecord
100
AcDbLinetypeTableRecord
  2
ACAD_ISO07W100
 70
0
  3
ISO dot . . . . . . . . . . . . . . . . . . . . 
 72
65
 73
2
 40
3.0
 49
0.0
 74
0
 49
-3.0
 74
0
  0
LTYPE
  5
50
100
AcDbSymbolTableRecord
100
AcDbLinetypeTableRecord
  2
ACAD_ISO09W100
 70
0
  3
ISO long-dash double-short-dash ____ __ __ ____
 72
65
 73
6
 40
45.0
 49
24.0
 74
0
 49
-3.0
 74
0
 49
6.0
 74
0
 49
-3.0
 74
0
 49
6.0
 74
0
 49
-3.0
 74
0
  0
LTYPE
  5
51
100
AcDbSymbolTableRecord
100
AcDbLinetypeTableRecord
  2
PHANTOMX2
 70
0
  3
Phantom (2x) ____________    ____    ____   _
 72
65
 73
6
 40
127.0000000000000142
 49
63.5
 74
0
 49
-12.6999999999999993
 74
0
 49
12.6999999999999993
 74
0
 49
-12.6999999999999993
 74
0
 49
12.6999999999999993
 74
0
 49
-12.6999999999999993
 74
0
  0
LTYPE
  5
52
100
AcDbSymbolTableRecord
100
AcDbLinetypeTableRecord
  2
ACAD_ISO12W100
 70
0
  3
ISO dash double-dot __ . . __ . . __ . . __ . . 
 72
65
 73
6
 40
21.0
 49
12.0
 74
0
 49
-3.0
 74
0
 49
0.0
 74
0
 49
-3.0
 74
0
 49
0.0
 74
0
 49
-3.0
 74
0
  0
LTYPE
  5
53
100
AcDbSymbolTableRecord
100
AcDbLinetypeTableRecord
  2
PHANTOM2
 70
0
  3
Phantom (.5x) ___ _ _ ___ _ _ ___ _ _ ___ _ _
 72
65
 73
6
 40
31.7500000000000036
 49
15.875
 74
0
 49
-3.1749999999999998
 74
0
 49
3.1749999999999998
 74
0
 49
-3.1749999999999998
 74
0
 49
3.1749999999999998
 74
0
 49
-3.1749999999999998
 74
0
  0
LTYPE
  5
54
100
AcDbSymbolTableRecord
100
AcDbLinetypeTableRecord
  2
BORDER
 70
0
  3
Border __ __ . __ __ . __ __ . __ __ . __ __ .
 72
65
 73
6
 40
44.4499999999999957
 49
12.6999999999999993
 74
0
 49
-6.3499999999999996
 74
0
 49
12.6999999999999993
 74
0
 49
-6.3499999999999996
 74
0
 49
0.0
 74
0
 49
-6.3499999999999996
 74
0
  0
LTYPE
  5
55
100
AcDbSymbolTableRecord
100
AcDbLinetypeTableRecord
  2
ACAD_ISO06W100
 70
0
  3
ISO long-dash triple-dot ____ ... ____ ... ____
 72
65
 73
8
 40
36.0
 49
24.0
 74
0
 49
-3.0
 74
0
 49
0.0
 74
0
 49
-3.0
 74
0
 49
0.0
 74
0
 49
-3.0
 74
0
 49
0.0
 74
0
 49
-3.0
 74
0
  0
LTYPE
  5
56
100
AcDbSymbolTableRecord
100
AcDbLinetypeTableRecord
  2
DIVIDE
 70
0
  3
Divide ____ . . ____ . . ____ . . ____ . . ____
 72
65
 73
6
 40
31.75
 49
12.6999999999999993
 74
0
 49
-6.3499999999999996
 74
0
 49
0.0
 74
0
 49
-6.3499999999999996
 74
0
 49
0.0
 74
0
 49
-6.3499999999999996
 74
0
  0
ENDTAB
  0
TABLE
  2
LAYER
  5
2
100
AcDbSymbolTable
 70
1
  0
LAYER
  5
10
100
AcDbSymbolTableRecord
100
AcDbLayerTableRecord
  2
0
 70
0
 62
7
420
16777215
  6
Continuous
370
25
390
F
  0
ENDTAB
  0
TABLE
  2
STYLE
  5
3
100
AcDbSymbolTable
 70
1
  0
STYLE
  5
57
100
AcDbSymbolTableRecord
100
AcDbTextStyleTableRecord
  2
Standard
 70
0
 40
0.0
 41
1.0
 50
0.0
 71
0
 42
2.5
  3

  4

1001
ACAD
1000
txt
1071
0
  0
ENDTAB
  0
TABLE
  2
VIEW
  5
6
100
AcDbSymbolTable
 70
0
  0
ENDTAB
  0
TABLE
  2
UCS
  5
7
100
AcDbSymbolTable
 70
0
  0
ENDTAB
  0
TABLE
  2
APPID
  5
9
100
AcDbSymbolTable
 70
1
  0
APPID
  5
12
100
AcDbSymbolTableRecord
100
AcDbRegAppTableRecord
  2
ACAD
 70
0
  0
APPID
  5
58
100
AcDbSymbolTableRecord
100
AcDbRegAppTableRecord
  2
QCAD
 70
0
  0
ENDTAB
  0
TABLE
  2
DIMSTYLE
  5
A
100
AcDbSymbolTable
 70
1
100
AcDbDimStyleTable
 71
0
  0
DIMSTYLE
105
27
100
AcDbSymbolTableRecord
100
AcDbDimStyleTableRecord
  2
Standard
 41
0.18
 42
0.0625
 43
3.75
 44
0.18
 70
0
 73
0
 74
0
 77
1
 78
8
140
0.18
141
2.5
143
0.03937007874016
147
0.09
171
3
172
1
271
2
272
2
274
3
278
44
283
0
284
8
340
57
  0
ENDTAB
  0
TABLE
  2
BLOCK_RECORD
  5
1
100
AcDbSymbolTable
 70
1
  0
BLOCK_RECORD
  5
1F
100
AcDbSymbolTableRecord
100
AcDbBlockTableRecord
  2
*Model_Space
340
22
  0
BLOCK_RECORD
  5
1B
100
AcDbSymbolTableRecord
100
AcDbBlockTableRecord
  2
*Paper_Space
340
1E
  0
BLOCK_RECORD
  5
23
100
AcDbSymbolTableRecord
100
AcDbBlockTableRecord
  2
*Paper_Space0
340
26
  0
ENDTAB
  0
ENDSEC
  0
SECTION
  2
BLOCKS
  0
BLOCK
  5
20
100
AcDbEntity
  8
0
100
AcDbBlockBegin
  2
*Model_Space
 70
0
 10
0.0
 20
0.0
 30
0.0
  3
*Model_Space
  1

  0
ENDBLK
  5
21
100
AcDbEntity
  8
0
100
AcDbBlockEnd
  0
BLOCK
  5
1C
100
AcDbEntity
 67
1
  8
0
100
AcDbBlockBegin
  2
*Paper_Space
 70
0
 10
0.0
 20
0.0
 30
0.0
  3
*Paper_Space
  1

  0
ENDBLK
  5
1D
100
AcDbEntity
 67
1
  8
0
100
AcDbBlockEnd
  0
BLOCK
  5
24
100
AcDbEntity
  8
0
100
AcDbBlockBegin
  2
*Paper_Space0
 70
0
 10
0.0
 20
0.0
 30
0.0
  3
*Paper_Space0
  1

  0
ENDBLK
  5
25
100
AcDbEntity
  8
0
100
AcDbBlockEnd
  0
ENDSEC
  0
SECTION
  2
ENTITIES
  0
LINE
  5
59
100
AcDbEntity
  8
0
 62
256
370
-1
 48
1.0
  6
BYLAYER
100
AcDbLine
 10
18.5942000000000007
 20
-41.4969999999999999
 30
0.0
 11
18.6879999999999988
 21
-41.4881999999999991
 31
0.0
  0
LINE
  5
5A
100
AcDbEntity
  8
0
 62
256
370
-1
 48
1.0
  6
BYLAYER
100
AcDbLine
 10
18.6879999999999988
 20
-41.4881999999999991
 30
0.0
 11
18.7810999999999986
 21
-41.473399999999998
 31
0.0
  0
LINE
  5
5B
100
AcDbEntity
  8
0
 62
256
370
-1
 48
1.0
  6
BYLAYER
100
AcDbLine
 10
18.7810999999999986
 20
-41.473399999999998
 30
0.0
 11
18.8730000000000011
 21
-41.4528999999999996
 31
0.0
  0
LINE
  5
5C
100
AcDbEntity
  8
0
 62
256
370
-1
 48
1.0
  6
BYLAYER
100
AcDbLine
 10
18.8730000000000011
 20
-41.4528999999999996
 30
0.0
 11
18.9634999999999998
 21
-41.4266000000000005
 31
0.0
  0
LINE
  5
5D
100
AcDbEntity
  8
0
 62
256
370
-1
 48
1.0
  6
BYLAYER
100
AcDbLine
 10
18.9634999999999998
 20
-41.4266000000000005
 30
0.0
 11
19.0521999999999991
 21
-41.3947000000000003
 31
0.0
  0
LINE
  5
5E
100
AcDbEntity
  8
0
 62
256
370
-1
 48
1.0
  6
BYLAYER
100
AcDbLine
 10
19.0521999999999991
 20
-41.3947000000000003
 30
0.0
 11
19.1387
 21
-41.3571999999999989
 31
0.0
  0
LINE
  5
5F
100
AcDbEntity
  8
0
 62
256
370
-1
 48
1.0
  6
BYLAYER
100
AcDbLine
 10
19.1387
 20
-41.3571999999999989
 30
0.0
 11
19.2225999999999999
 21
-41.3145000000000024
 31
0.0
  0
LINE
  5
60
100
AcDbEntity
  8
0
 62
256
370
-1
 48
1.0
  6
BYLAYER
100
AcDbLine
 10
19.2225999999999999
 20
-41.3145000000000024
 30
0.0
 11
19.3036999999999992
 21
-41.2665000000000006
 31
0.0
  0
LINE
  5
61
100
AcDbEntity
  8
0
 62
256
370
-1
 48
1.0
  6
BYLAYER
100
AcDbLine
 10
19.3036999999999992
 20
-41.2665000000000006
 30
0.0
 11
19.3816999999999986
 21
-41.2135000000000034
 31
0.0
  0
LINE
  5
62
100
AcDbEntity
  8
0
 62
256
370
-1
 48
1.0
  6
BYLAYER
100
AcDbLine
 10
19.3816999999999986
 20
-41.2135000000000034
 30
0.0
 11
19.4560999999999993
 21
-41.1557999999999993
 31
0.0
  0
LINE
  5
63
100
AcDbEntity
  8
0
 62
256
370
-1
 48
1.0
  6
BYLAYER
100
AcDbLine
 10
19.4560999999999993
 20
-41.1557999999999993
 30
0.0
 11
19.5268000000000015
 21
-41.0934000000000026
 31
0.0
  0
LINE
  5
64
100
AcDbEntity
  8
0
 62
256
370
-1
 48
1.0
  6
BYLAYER
100
AcDbLine
 10
19.5268000000000015
 20
-41.0934000000000026
 30
0.0
 11
19.593399999999999
 21
-41.0268000000000015
 31
0.0
  0
LINE
  5
65
100
AcDbEntity
  8
0
 62
256
370
-1
 48
1.0
  6
BYLAYER
100
AcDbLine
 10
19.593399999999999
 20
-41.0268000000000015
 30
0.0
 11
19.6557999999999993
 21
-40.9560999999999993
 31
0.0
  0
LINE
  5
66
100
AcDbEntity
  8
0
 62
256
370
-1
 48
1.0
  6
BYLAYER
100
AcDbLine
 10
19.6557999999999993
 20
-40.9560999999999993
 30
0.0
 11
19.7134999999999998
 21
-40.8817000000000021
 31
0.0
  0
LINE
  5
67
100
AcDbEntity
  8
0
 62
256
370
-1
 48
1.0
  6
BYLAYER
100
AcDbLine
 10
19.7134999999999998
 20
-40.8817000000000021
 30
0.0
 11
19.7665000000000006
 21
-40.8036999999999992
 31
0.0
  0
LINE
  5
68
100
AcDbEntity
  8
0
 62
256
370
-1
 48
1.0
  6
BYLAYER
100
AcDbLine
 10
19.7665000000000006
 20
-40.8036999999999992
 30
0.0
 11
19.8144999999999989
 21
-40.7225999999999999
 31
0.0
  0
LINE
  5
69
100
AcDbEntity
  8
0
 62
256
370
-1
 48
1.0
  6
BYLAYER
100
AcDbLine
 10
19.8144999999999989
 20
-40.7225999999999999
 30
0.0
 11
19.8571999999999989
 21
-40.6387
 31
0.0
  0
LINE
  5
6A
100
AcDbEntity
  8
0
 62
256
370
-1
 48
1.0
  6
BYLAYER
100
AcDbLine
 10
19.8571999999999989
 20
-40.6387
 30
0.0
 11
19.8947000000000003
 21
-40.5521999999999991
 31
0.0
  0
LINE
  5
6B
100
AcDbEntity
  8
0
 62
256
370
-1
 48
1.0
  6
BYLAYER
100
AcDbLine
 10
19.8947000000000003
 20
-40.5521999999999991
 30
0.0
 11
19.9266000000000005
 21
-40.4635000000000034
 31
0.0
  0
LINE
  5
6C
100
AcDbEntity
  8
0
 62
256
370
-1
 48
1.0
  6
BYLAYER
100
AcDbLine
 10
19.9266000000000005
 20
-40.4635000000000034
 30
0.0
 11
19.9528999999999996
 21
-40.3729999999999976
 31
0.0
  0
LINE
  5
6D
100
AcDbEntity
  8
0
 62
256
370
-1
 48
1.0
  6
BYLAYER
100
AcDbLine
 10
19.9528999999999996
 20
-40.3729999999999976
 30
0.0
 11
19.9734000000000016
 21
-40.2811000000000021
 31
0.0
  0
LINE
  5
6E
100
AcDbEntity
  8
0
 62
256
370
-1
 48
1.0
  6
BYLAYER
100
AcDbLine
 10
19.9734000000000016
 20
-40.2811000000000021
 30
0.0
 11
19.9881999999999991
 21
-40.1880000000000024
 31
0.0
  0
LINE
  5
6F
100
AcDbEntity
  8
0
 62
256
370
-1
 48
1.0
  6
BYLAYER
100
AcDbLine
 10
19.9881999999999991
 20
-40.1880000000000024
 30
0.0
 11
19.9969999999999999
 21
-40.0942000000000007
 31
0.0
  0
LINE
  5
70
100
AcDbEntity
  8
0
 62
256
370
-1
 48
1.0
  6
BYLAYER
100
AcDbLine
 10
19.9969999999999999
 20
-40.0942000000000007
 30
0.0
 11
20.0
 21
-40.0
 31
0.0
  0
LINE
  5
71
100
AcDbEntity
  8
0
 62
256
370
-1
 48
1.0
  6
BYLAYER
100
AcDbLine
 10
20.0
 20
-40.0
 30
0.0
 11
19.9969999999999999
 21
-39.9057999999999993
 31
0.0
  0
LINE
  5
72
100
AcDbEntity
  8
0
 62
256
370
-1
 48
1.0
  6
BYLAYER
100
AcDbLine
 10
19.9969999999999999
 20
-39.9057999999999993
 30
0.0
 11
19.9881999999999991
 21
-39.8119999999999976
 31
0.0
  0
LINE
  5
73
100
AcDbEntity
  8
0
 62
256
370
-1
 48
1.0
  6
BYLAYER
100
AcDbLine
 10
19.9881999999999991
 20
-39.8119999999999976
 30
0.0
 11
19.9734000000000016
 21
-39.7188999999999979
 31
0.0
  0
LINE
  5
74
100
AcDbEntity
  8
0
 62
256
370
-1
 48
1.0
  6
BYLAYER
100
AcDbLine
 10
19.9734000000000016
 20
-39.7188999999999979
 30
0.0
 11
19.9528999999999996
 21
-39.6270000000000024
 31
0.0
  0
LINE
  5
75
100
AcDbEntity
  8
0
 62
256
370
-1
 48
1.0
  6
BYLAYER
100
AcDbLine
 10
19.9528999999999996
 20
-39.6270000000000024
 30
0.0
 11
19.9266000000000005
 21
-39.5364999999999966
 31
0.0
  0
LINE
  5
76
100
AcDbEntity
  8
0
 62
256
370
-1
 48
1.0
  6
BYLAYER
100
AcDbLine
 10
19.9266000000000005
 20
-39.5364999999999966
 30
0.0
 11
19.8947000000000003
 21
-39.4478000000000009
 31
0.0
  0
LINE
  5
77
100
AcDbEntity
  8
0
 62
256
370
-1
 48
1.0
  6
BYLAYER
100
AcDbLine
 10
19.8947000000000003
 20
-39.4478000000000009
 30
0.0
 11
19.8571999999999989
 21
-39.3613
 31
0.0
  0
LINE
  5
78
100
AcDbEntity
  8
0
 62
256
370
-1
 48
1.0
  6
BYLAYER
100
AcDbLine
 10
19.8571999999999989
 20
-39.3613
 30
0.0
 11
19.8144999999999989
 21
-39.2774000000000001
 31
0.0
  0
LINE
  5
79
100
AcDbEntity
  8
0
 62
256
370
-1
 48
1.0
  6
BYLAYER
100
AcDbLine
 10
19.8144999999999989
 20
-39.2774000000000001
 30
0.0
 11
19.7665000000000006
 21
-39.1963000000000008
 31
0.0
  0
LINE
  5
7A
100
AcDbEntity
  8
0
 62
256
370
-1
 48
1.0
  6
BYLAYER
100
AcDbLine
 10
19.7665000000000006
 20
-39.1963000000000008
 30
0.0
 11
19.7134999999999998
 21
-39.1182999999999979
 31
0.0
  0
LINE
  5
7B
100
AcDbEntity
  8
0
 62
256
370
-1
 48
1.0
  6
BYLAYER
100
AcDbLine
 10
19.7134999999999998
 20
-39.1182999999999979
 30
0.0
 11
19.6557999999999993
 21
-39.0439000000000007
 31
0.0
  0
LINE
  5
7C
100
AcDbEntity
  8
0
 62
256
370
-1
 48
1.0
  6
BYLAYER
100
AcDbLine
 10
19.6557999999999993
 20
-39.0439000000000007
 30
0.0
 11
19.593399999999999
 21
-38.9731999999999985
 31
0.0
  0
LINE
  5
7D
100
AcDbEntity
  8
0
 62
256
370
-1
 48
1.0
  6
BYLAYER
100
AcDbLine
 10
19.593399999999999
 20
-38.9731999999999985
 30
0.0
 11
19.5268000000000015
 21
-38.9065000000000012
 31
0.0
  0
LINE
  5
7E
100
AcDbEntity
  8
0
 62
256
370
-1
 48
1.0
  6
BYLAYER
100
AcDbLine
 10
19.5268000000000015
 20
-38.9065000000000012
 30
0.0
 11
19.4560999999999993
 21
-38.8442000000000007
 31
0.0
  0
LINE
  5
7F
100
AcDbEntity
  8
0
 62
256
370
-1
 48
1.0
  6
BYLAYER
100
AcDbLine
 10
19.4560999999999993
 20
-38.8442000000000007
 30
0.0
 11
19.3816999999999986
 21
-38.7864999999999966
 31
0.0
  0
LINE
  5
80
100
AcDbEntity
  8
0
 62
256
370
-1
 48
1.0
  6
BYLAYER
100
AcDbLine
 10
19.3816999999999986
 20
-38.7864999999999966
 30
0.0
 11
19.3036999999999992
 21
-38.7334999999999994
 31
0.0
  0
LINE
  5
81
100
AcDbEntity
  8
0
 62
256
370
-1
 48
1.0
  6
BYLAYER
100
AcDbLine
 10
19.3036999999999992
 20
-38.7334999999999994
 30
0.0
 11
19.2225999999999999
 21
-38.6854999999999976
 31
0.0
  0
LINE
  5
82
100
AcDbEntity
  8
0
 62
256
370
-1
 48
1.0
  6
BYLAYER
100
AcDbLine
 10
19.2225999999999999
 20
-38.6854999999999976
 30
0.0
 11
19.1387
 21
-38.6428000000000011
 31
0.0
  0
LINE
  5
83
100
AcDbEntity
  8
0
 62
256
370
-1
 48
1.0
  6
BYLAYER
100
AcDbLine
 10
19.1387
 20
-38.6428000000000011
 30
0.0
 11
19.0521999999999991
 21
-38.6052999999999997
 31
0.0
  0
LINE
  5
84
100
AcDbEntity
  8
0
 62
256
370
-1
 48
1.0
  6
BYLAYER
100
AcDbLine
 10
19.0521999999999991
 20
-38.6052999999999997
 30
0.0
 11
18.9634999999999998
 21
-38.5733999999999995
 31
0.0
  0
LINE
  5
85
100
AcDbEntity
  8
0
 62
256
370
-1
 48
1.0
  6
BYLAYER
100
AcDbLine
 10
18.9634999999999998
 20
-38.5733999999999995
 30
0.0
 11
18.8730000000000011
 21
-38.5471000000000004
 31
0.0
  0
LINE
  5
86
100
AcDbEntity
  8
0
 62
256
370
-1
 48
1.0
  6
BYLAYER
100
AcDbLine
 10
18.8730000000000011
 20
-38.5471000000000004
 30
0.0
 11
18.7810999999999986
 21
-38.526600000000002
 31
0.0
  0
LINE
  5
87
100
AcDbEntity
  8
0
 62
256
370
-1
 48
1.0
  6
BYLAYER
100
AcDbLine
 10
18.7810999999999986
 20
-38.526600000000002
 30
0.0
 11
18.6879999999999988
 21
-38.5118000000000009
 31
0.0
  0
LINE
  5
88
100
AcDbEntity
  8
0
 62
256
370
-1
 48
1.0
  6
BYLAYER
100
AcDbLine
 10
18.6879999999999988
 20
-38.5118000000000009
 30
0.0
 11
18.5942000000000007
 21
-38.5030000000000001
 31
0.0
  0
LINE
  5
89
100
AcDbEntity
  8
0
 62
256
370
-1
 48
1.0
  6
BYLAYER
100
AcDbLine
 10
18.5942000000000007
 20
-38.5030000000000001
 30
0.0
 11
18.5
 21
-38.5
 31
0.0
  0
LINE
  5
8A
100
AcDbEntity
  8
0
 62
256
370
-1
 48
1.0
  6
BYLAYER
100
AcDbLine
 10
18.5
 20
-38.5
 30
0.0
 11
-18.5
 21
-38.5
 31
0.0
  0
LINE
  5
8B
100
AcDbEntity
  8
0
 62
256
370
-1
 48
1.0
  6
BYLAYER
100
AcDbLine
 10
-18.5
 20
-38.5
 30
0.0
 11
-18.5942000000000007
 21
-38.5030000000000001
 31
0.0
  0
LINE
  5
8C
100
AcDbEntity
  8
0
 62
256
370
-1
 48
1.0
  6
BYLAYER
100
AcDbLine
 10
-18.5942000000000007
 20
-38.5030000000000001
 30
0.0
 11
-18.6879999999999988
 21
-38.5118000000000009
 31
0.0
  0
LINE
  5
8D
100
AcDbEntity
  8
0
 62
256
370
-1
 48
1.0
  6
BYLAYER
100
AcDbLine
 10
-18.6879999999999988
 20
-38.5118000000000009
 30
0.0
 11
-18.7810999999999986
 21
-38.526600000000002
 31
0.0
  0
LINE
  5
8E
100
AcDbEntity
  8
0
 62
256
370
-1
 48
1.0
  6
BYLAYER
100
AcDbLine
 10
-18.7810999999999986
 20
-38.526600000000002
 30
0.0
 11
-18.8730000000000011
 21
-38.5471000000000004
 31
0.0
  0
LINE
  5
8F
100
AcDbEntity
  8
0
 62
256
370
-1
 48
1.0
  6
BYLAYER
100
AcDbLine
 10
-18.8730000000000011
 20
-38.5471000000000004
 30
0.0
 11
-18.9634999999999998
 21
-38.5733999999999995
 31
0.0
  0
LINE
  5
90
100
AcDbEntity
  8
0
 62
256
370
-1
 48
1.0
  6
BYLAYER
100
AcDbLine
 10
-18.9634999999999998
 20
-38.5733999999999995
 30
0.0
 11
-19.0521999999999991
 21
-38.6052999999999997
 31
0.0
  0
LINE
  5
91
100
AcDbEntity
  8
0
 62
256
370
-1
 48
1.0
  6
BYLAYER
100
AcDbLine
 10
-19.0521999999999991
 20
-38.6052999999999997
 30
0.0
 11
-19.1387
 21
-38.6428000000000011
 31
0.0
  0
LINE
  5
92
100
AcDbEntity
  8
0
 62
256
370
-1
 48
1.0
  6
BYLAYER
100
AcDbLine
 10
-19.1387
 20
-38.6428000000000011
 30
0.0
 11
-19.2225999999999999
 21
-38.6854999999999976
 31
0.0
  0
LINE
  5
93
100
AcDbEntity
  8
0
 62
256
370
-1
 48
1.0
  6
BYLAYER
100
AcDbLine
 10
-19.2225999999999999
 20
-38.6854999999999976
 30
0.0
 11
-19.3036999999999992
 21
-38.7334999999999994
 31
0.0
  0
LINE
  5
94
100
AcDbEntity
  8
0
 62
256
370
-1
 48
1.0
  6
BYLAYER
100
AcDbLine
 10
-19.3036999999999992
 20
-38.7334999999999994
 30
0.0
 11
-19.3816999999999986
 21
-38.7864999999999966
 31
0.0
  0
LINE
  5
95
100
AcDbEntity
  8
0
 62
256
370
-1
 48
1.0
  6
BYLAYER
100
AcDbLine
 10
-19.3816999999999986
 20
-38.7864999999999966
 30
0.0
 11
-19.4560999999999993
 21
-38.8442000000000007
 31
0.0
  0
LINE
  5
96
100
AcDbEntity
  8
0
 62
256
370
-1
 48
1.0
  6
BYLAYER
100
AcDbLine
 10
-19.4560999999999993
 20
-38.8442000000000007
 30
0.0
 11
-19.5268000000000015
 21
-38.9065000000000012
 31
0.0
  0
LINE
  5
97
100
AcDbEntity
  8
0
 62
256
370
-1
 48
1.0
  6
BYLAYER
100
AcDbLine
 10
-19.5268000000000015
 20
-38.9065000000000012
 30
0.0
 11
-19.593399999999999
 21
-38.9731999999999985
 31
0.0
  0
LINE
  5
98
100
AcDbEntity
  8
0
 62
256
370
-1
 48
1.0
  6
BYLAYER
100
AcDbLine
 10
-19.593399999999999
 20
-38.9731999999999985
 30
0.0
 11
-19.6557999999999993
 21
-39.0439000000000007
 31
0.0
  0
LINE
  5
99
100
AcDbEntity
  8
0
 62
256
370
-1
 48
1.0
  6
BYLAYER
100
AcDbLine
 10
-19.6557999999999993
 20
-39.0439000000000007
 30
0.0
 11
-19.7134999999999998
 21
-39.1182999999999979
 31
0.0
  0
LINE
  5
9A
100
AcDbEntity
  8
0
 62
256
370
-1
 48
1.0
  6
BYLAYER
100
AcDbLine
 10
-19.7134999999999998
 20
-39.1182999999999979
 30
0.0
 11
-19.7665000000000006
 21
-39.1963000000000008
 31
0.0
  0
LINE
  5
9B
100
AcDbEntity
  8
0
 62
256
370
-1
 48
1.0
  6
BYLAYER
100
AcDbLine
 10
-19.7665000000000006
 20
-39.1963000000000008
 30
0.0
 11
-19.8144999999999989
 21
-39.2774000000000001
 31
0.0
  0
LINE
  5
9C
100
AcDbEntity
  8
0
 62
256
370
-1
 48
1.0
  6
BYLAYER
100
AcDbLine
 10
-19.8144999999999989
 20
-39.2774000000000001
 30
0.0
 11
-19.8571999999999989
 21
-39.3613
 31
0.0
  0
LINE
  5
9D
100
AcDbEntity
  8
0
 62
256
370
-1
 48
1.0
  6
BYLAYER
100
AcDbLine
 10
-19.8571999999999989
 20
-39.3613
 30
0.0
 11
-19.8947000000000003
 21
-39.4478000000000009
 31
0.0
  0
LINE
  5
9E
100
AcDbEntity
  8
0
 62
256
370
-1
 48
1.0
  6
BYLAYER
100
AcDbLine
 10
-19.8947000000000003
 20
-39.4478000000000009
 30
0.0
 11
-19.9266000000000005
 21
-39.5364999999999966
 31
0.0
  0
LINE
  5
9F
100
AcDbEntity
  8
0
 62
256
370
-1
 48
1.0
  6
BYLAYER
100
AcDbLine
 10
-19.9266000000000005
 20
-39.5364999999999966
 30
0.0
 11
-19.9528999999999996
 21
-39.6270000000000024
 31
0.0
  0
LINE
  5
A0
100
AcDbEntity
  8
0
 62
256
370
-1
 48
1.0
  6
BYLAYER
100
AcDbLine
 10
-19.9528999999999996
 20
-39.6270000000000024
 30
0.0
 11
-19.9734000000000016
 21
-39.7188999999999979
 31
0.0
  0
LINE
  5
A1
100
AcDbEntity
  8
0
 62
256
370
-1
 48
1.0
  6
BYLAYER
100
AcDbLine
 10
-19.9734000000000016
 20
-39.7188999999999979
 30
0.0
 11
-19.9881999999999991
 21
-39.8119999999999976
 31
0.0
  0
LINE
  5
A2
100
AcDbEntity
  8
0
 62
256
370
-1
 48
1.0
  6
BYLAYER
100
AcDbLine
 10
-19.9881999999999991
 20
-39.8119999999999976
 30
0.0
 11
-19.9969999999999999
 21
-39.9057999999999993
 31
0.0
  0
LINE
  5
A3
100
AcDbEntity
  8
0
 62
256
370
-1
 48
1.0
  6
BYLAYER
100
AcDbLine
 10
-19.9969999999999999
 20
-39.9057999999999993
 30
0.0
 11
-20.0
 21
-40.0
 31
0.0
  0
LINE
  5
A4
100
AcDbEntity
  8
0
 62
256
370
-1
 48
1.0
  6
BYLAYER
100
AcDbLine
 10
-20.0
 20
-40.0
 30
0.0
 11
-19.9969999999999999
 21
-40.0942000000000007
 31
0.0
  0
LINE
  5
A5
100
AcDbEntity
  8
0
 62
256
370
-1
 48
1.0
  6
BYLAYER
100
AcDbLine
 10
-19.9969999999999999
 20
-40.0942000000000007
 30
0.0
 11
-19.9881999999999991
 21
-40.1880000000000024
 31
0.0
  0
LINE
  5
A6
100
AcDbEntity
  8
0
 62
256
370
-1
 48
1.0
  6
BYLAYER
100
AcDbLine
 10
-19.9881999999999991
 20
-40.1880000000000024
 30
0.0
 11
-19.9734000000000016
 21
-40.2811000000000021
 31
0.0
  0
LINE
  5
A7
100
AcDbEntity
  8
0
 62
256
370
-1
 48
1.0
  6
BYLAYER
100
AcDbLine
 10
-19.9734000000000016
 20
-40.2811000000000021
 30
0.0
 11
-19.9528999999999996
 21
-40.3729999999999976
 31
0.0
  0
LINE
  5
A8
100
AcDbEntity
  8
0
 62
256
370
-1
 48
1.0
  6
BYLAYER
100
AcDbLine
 10
-19.9528999999999996
 20
-40.3729999999999976
 30
0.0
 11
-19.9266000000000005
 21
-40.4635000000000034
 31
0.0
  0
LINE
  5
A9
100
AcDbEntity
  8
0
 62
256
370
-1
 48
1.0
  6
BYLAYER
100
AcDbLine
 10
-19.9266000000000005
 20
-40.4635000000000034
 30
0.0
 11
-19.8947000000000003
 21
-40.5521999999999991
 31
0.0
  0
LINE
  5
AA
100
AcDbEntity
  8
0
 62
256
370
-1
 48
1.0
  6
BYLAYER
100
AcDbLine
 10
-19.8947000000000003
 20
-40.5521999999999991
 30
0.0
 11
-19.8571999999999989
 21
-40.6387
 31
0.0
  0
LINE
  5
AB
100
AcDbEntity
  8
0
 62
256
370
-1
 48
1.0
  6
BYLAYER
100
AcDbLine
 10
-19.8571999999999989
 20
-40.6387
 30
0.0
 11
-19.8144999999999989
 21
-40.7225999999999999
 31
0.0
  0
LINE
  5
AC
100
AcDbEntity
  8
0
 62
256
370
-1
 48
1.0
  6
BYLAYER
100
AcDbLine
 10
-19.8144999999999989
 20
-40.7225999999999999
 30
0.0
 11
-19.7665000000000006
 21
-40.8036999999999992
 31
0.0
  0
LINE
  5
AD
100
AcDbEntity
  8
0
 62
256
370
-1
 48
1.0
  6
BYLAYER
100
AcDbLine
 10
-19.7665000000000006
 20
-40.8036999999999992
 30
0.0
 11
-19.7134999999999998
 21
-40.8817000000000021
 31
0.0
  0
LINE
  5
AE
100
AcDbEntity
  8
0
 62
256
370
-1
 48
1.0
  6
BYLAYER
100
AcDbLine
 10
-19.7134999999999998
 20
-40.8817000000000021
 30
0.0
 11
-19.6557999999999993
 21
-40.9560999999999993
 31
0.0
  0
LINE
  5
AF
100
AcDbEntity
  8
0
 62
256
370
-1
 48
1.0
  6
BYLAYER
100
AcDbLine
 10
-19.6557999999999993
 20
-40.9560999999999993
 30
0.0
 11
-19.593399999999999
 21
-41.0268000000000015
 31
0.0
  0
LINE
  5
B0
100
AcDbEntity
  8
0
 62
256
370
-1
 48
1.0
  6
BYLAYER
100
AcDbLine
 10
-19.593399999999999
 20
-41.0268000000000015
 30
0.0
 11
-19.5268000000000015
 21
-41.0934000000000026
 31
0.0
  0
LINE
  5
B1
100
AcDbEntity
  8
0
 62
256
370
-1
 48
1.0
  6
BYLAYER
100
AcDbLine
 10
-19.5268000000000015
 20
-41.0934000000000026
 30
0.0
 11
-19.4560999999999993
 21
-41.1557999999999993
 31
0.0
  0
LINE
  5
B2
100
AcDbEntity
  8
0
 62
256
370
-1
 48
1.0
  6
BYLAYER
100
AcDbLine
 10
-19.4560999999999993
 20
-41.1557999999999993
 30
0.0
 11
-19.3816999999999986
 21
-41.2135000000000034
 31
0.0
  0
LINE
  5
B3
100
AcDbEntity
  8
0
 62
256
370
-1
 48
1.0
  6
BYLAYER
100
AcDbLine
 10
-19.3816999999999986
 20
-41.2135000000000034
 30
0.0
 11
-19.3036999999999992
 21
-41.2665000000000006
 31
0.0
  0
LINE
  5
B4
100
AcDbEntity
  8
0
 62
256
370
-1
 48
1.0
  6
BYLAYER
100
AcDbLine
 10
-19.3036999999999992
 20
-41.2665000000000006
 30
0.0
 11
-19.2225999999999999
 21
-41.3145000000000024
 31
0.0
  0
LINE
  5
B5
100
AcDbEntity
  8
0
 62
256
370
-1
 48
1.0
  6
BYLAYER
100
AcDbLine
 10
-19.2225999999999999
 20
-41.3145000000000024
 30
0.0
 11
-19.1387
 21
-41.3571999999999989
 31
0.0
  0
LINE
  5
B6
100
AcDbEntity
  8
0
 62
256
370
-1
 48
1.0
  6
BYLAYER
100
AcDbLine
 10
-19.1387
 20
-41.3571999999999989
 30
0.0
 11
-19.0521999999999991
 21
-41.3947000000000003
 31
0.0
  0
LINE
  5
B7
100
AcDbEntity
  8
0
 62
256
370
-1
 48
1.0
  6
BYLAYER
100
AcDbLine
 10
-19.0521999999999991
 20
-41.3947000000000003
 30
0.0
 11
-18.9634999999999998
 21
-41.4266000000000005
 31
0.0
  0
LINE
  5
B8
100
AcDbEntity
  8
0
 62
256
370
-1
 48
1.0
  6
BYLAYER
100
AcDbLine
 10
-18.9634999999999998
 20
-41.4266000000000005
 30
0.0
 11
-18.8730000000000011
 21
-41.4528999999999996
 31
0.0
  0
LINE
  5
B9
100
AcDbEntity
  8
0
 62
256
370
-1
 48
1.0
  6
BYLAYER
100
AcDbLine
 10
-18.8730000000000011
 20
-41.4528999999999996
 30
0.0
 11
-18.7810999999999986
 21
-41.473399999999998
 31
0.0
  0
LINE
  5
BA
100
AcDbEntity
  8
0
 62
256
370
-1
 48
1.0
  6
BYLAYER
100
AcDbLine
 10
-18.7810999999999986
 20
-41.473399999999998
 30
0.0
 11
-18.6879999999999988
 21
-41.4881999999999991
 31
0.0
  0
LINE
  5
BB
100
AcDbEntity
  8
0
 62
256
370
-1
 48
1.0
  6
BYLAYER
100
AcDbLine
 10
-18.6879999999999988
 20
-41.4881999999999991
 30
0.0
 11
-18.5942000000000007
 21
-41.4969999999999999
 31
0.0
  0
LINE
  5
BC
100
AcDbEntity
  8
0
 62
256
370
-1
 48
1.0
  6
BYLAYER
100
AcDbLine
 10
-18.5942000000000007
 20
-41.4969999999999999
 30
0.0
 11
-18.5
 21
-41.5
 31
0.0
  0
LINE
  5
BD
100
AcDbEntity
  8
0
 62
256
370
-1
 48
1.0
  6
BYLAYER
100
AcDbLine
 10
-18.5
 20
-41.5
 30
0.0
 11
18.5
 21
-41.5
 31
0.0
  0
LINE
  5
BE
100
AcDbEntity
  8
0
 62
256
370
-1
 48
1.0
  6
BYLAYER
100
AcDbLine
 10
18.5
 20
-41.5
 30
0.0
 11
18.5942000000000007
 21
-41.4969999999999999
 31
0.0
  0
LINE
  5
BF
100
AcDbEntity
  8
0
 62
256
370
-1
 48
1.0
  6
BYLAYER
100
AcDbLine
 10
18.5250999999999983
 20
-40.3992000000000004
 30
0.0
 11
-18.5250999999999983
 21
-40.3992000000000004
 31
0.0
  0
LINE
  5
C0
100
AcDbEntity
  8
0
 62
256
370
-1
 48
1.0
  6
BYLAYER
100
AcDbLine
 10
-18.5250999999999983
 20
-40.3992000000000004
 30
0.0
 11
-18.5749999999999993
 21
-40.3928999999999974
 31
0.0
  0
LINE
  5
C1
100
AcDbEntity
  8
0
 62
256
370
-1
 48
1.0
  6
BYLAYER
100
AcDbLine
 10
-18.5749999999999993
 20
-40.3928999999999974
 30
0.0
 11
-18.6235999999999997
 21
-40.3804000000000016
 31
0.0
  0
LINE
  5
C2
100
AcDbEntity
  8
0
 62
256
370
-1
 48
1.0
  6
BYLAYER
100
AcDbLine
 10
-18.6235999999999997
 20
-40.3804000000000016
 30
0.0
 11
-18.670300000000001
 21
-40.3618999999999986
 31
0.0
  0
LINE
  5
C3
100
AcDbEntity
  8
0
 62
256
370
-1
 48
1.0
  6
BYLAYER
100
AcDbLine
 10
-18.670300000000001
 20
-40.3618999999999986
 30
0.0
 11
-18.7143000000000015
 21
-40.3376999999999981
 31
0.0
  0
LINE
  5
C4
100
AcDbEntity
  8
0
 62
256
370
-1
 48
1.0
  6
BYLAYER
100
AcDbLine
 10
-18.7143000000000015
 20
-40.3376999999999981
 30
0.0
 11
-18.754999999999999
 21
-40.3081999999999994
 31
0.0
  0
LINE
  5
C5
100
AcDbEntity
  8
0
 62
256
370
-1
 48
1.0
  6
BYLAYER
100
AcDbLine
 10
-18.754999999999999
 20
-40.3081999999999994
 30
0.0
 11
-18.791599999999999
 21
-40.2738000000000014
 31
0.0
  0
LINE
  5
C6
100
AcDbEntity
  8
0
 62
256
370
-1
 48
1.0
  6
BYLAYER
100
AcDbLine
 10
-18.791599999999999
 20
-40.2738000000000014
 30
0.0
 11
-18.823599999999999
 21
-40.2351000000000028
 31
0.0
  0
LINE
  5
C7
100
AcDbEntity
  8
0
 62
256
370
-1
 48
1.0
  6
BYLAYER
100
AcDbLine
 10
-18.823599999999999
 20
-40.2351000000000028
 30
0.0
 11
-18.8505000000000003
 21
-40.1927000000000021
 31
0.0
  0
LINE
  5
C8
100
AcDbEntity
  8
0
 62
256
370
-1
 48
1.0
  6
BYLAYER
100
AcDbLine
 10
-18.8505000000000003
 20
-40.1927000000000021
 30
0.0
 11
-18.8719000000000001
 21
-40.147199999999998
 31
0.0
  0
LINE
  5
C9
100
AcDbEntity
  8
0
 62
256
370
-1
 48
1.0
  6
BYLAYER
100
AcDbLine
 10
-18.8719000000000001
 20
-40.147199999999998
 30
0.0
 11
-18.8873999999999995
 21
-40.099499999999999
 31
0.0
  0
LINE
  5
CA
100
AcDbEntity
  8
0
 62
256
370
-1
 48
1.0
  6
BYLAYER
100
AcDbLine
 10
-18.8873999999999995
 20
-40.099499999999999
 30
0.0
 11
-18.8967999999999989
 21
-40.0501000000000005
 31
0.0
  0
LINE
  5
CB
100
AcDbEntity
  8
0
 62
256
370
-1
 48
1.0
  6
BYLAYER
100
AcDbLine
 10
-18.8967999999999989
 20
-40.0501000000000005
 30
0.0
 11
-18.8999999999999986
 21
-40.0
 31
0.0
  0
LINE
  5
CC
100
AcDbEntity
  8
0
 62
256
370
-1
 48
1.0
  6
BYLAYER
100
AcDbLine
 10
-18.8999999999999986
 20
-40.0
 30
0.0
 11
-18.8967999999999989
 21
-39.9498999999999995
 31
0.0
  0
LINE
  5
CD
100
AcDbEntity
  8
0
 62
256
370
-1
 48
1.0
  6
BYLAYER
100
AcDbLine
 10
-18.8967999999999989
 20
-39.9498999999999995
 30
0.0
 11
-18.8873999999999995
 21
-39.900500000000001
 31
0.0
  0
LINE
  5
CE
100
AcDbEntity
  8
0
 62
256
370
-1
 48
1.0
  6
BYLAYER
100
AcDbLine
 10
-18.8873999999999995
 20
-39.900500000000001
 30
0.0
 11
-18.8719000000000001
 21
-39.852800000000002
 31
0.0
  0
LINE
  5
CF
100
AcDbEntity
  8
0
 62
256
370
-1
 48
1.0
  6
BYLAYER
100
AcDbLine
 10
-18.8719000000000001
 20
-39.852800000000002
 30
0.0
 11
-18.8505000000000003
 21
-39.8072999999999979
 31
0.0
  0
LINE
  5
D0
100
AcDbEntity
  8
0
 62
256
370
-1
 48
1.0
  6
BYLAYER
100
AcDbLine
 10
-18.8505000000000003
 20
-39.8072999999999979
 30
0.0
 11
-18.823599999999999
 21
-39.7648999999999972
 31
0.0
  0
LINE
  5
D1
100
AcDbEntity
  8
0
 62
256
370
-1
 48
1.0
  6
BYLAYER
100
AcDbLine
 10
-18.823599999999999
 20
-39.7648999999999972
 30
0.0
 11
-18.791599999999999
 21
-39.7261999999999986
 31
0.0
  0
LINE
  5
D2
100
AcDbEntity
  8
0
 62
256
370
-1
 48
1.0
  6
BYLAYER
100
AcDbLine
 10
-18.791599999999999
 20
-39.7261999999999986
 30
0.0
 11
-18.754999999999999
 21
-39.6918000000000006
 31
0.0
  0
LINE
  5
D3
100
AcDbEntity
  8
0
 62
256
370
-1
 48
1.0
  6
BYLAYER
100
AcDbLine
 10
-18.754999999999999
 20
-39.6918000000000006
 30
0.0
 11
-18.7143000000000015
 21
-39.6623000000000019
 31
0.0
  0
LINE
  5
D4
100
AcDbEntity
  8
0
 62
256
370
-1
 48
1.0
  6
BYLAYER
100
AcDbLine
 10
-18.7143000000000015
 20
-39.6623000000000019
 30
0.0
 11
-18.670300000000001
 21
-39.6381000000000014
 31
0.0
  0
LINE
  5
D5
100
AcDbEntity
  8
0
 62
256
370
-1
 48
1.0
  6
BYLAYER
100
AcDbLine
 10
-18.670300000000001
 20
-39.6381000000000014
 30
0.0
 11
-18.6235999999999997
 21
-39.6195999999999984
 31
0.0
  0
LINE
  5
D6
100
AcDbEntity
  8
0
 62
256
370
-1
 48
1.0
  6
BYLAYER
100
AcDbLine
 10
-18.6235999999999997
 20
-39.6195999999999984
 30
0.0
 11
-18.5749999999999993
 21
-39.6071000000000026
 31
0.0
  0
LINE
  5
D7
100
AcDbEntity
  8
0
 62
256
370
-1
 48
1.0
  6
BYLAYER
100
AcDbLine
 10
-18.5749999999999993
 20
-39.6071000000000026
 30
0.0
 11
-18.5250999999999983
 21
-39.6007999999999996
 31
0.0
  0
LINE
  5
D8
100
AcDbEntity
  8
0
 62
256
370
-1
 48
1.0
  6
BYLAYER
100
AcDbLine
 10
-18.5250999999999983
 20
-39.6007999999999996
 30
0.0
 11
18.5250999999999983
 21
-39.6007999999999996
 31
0.0
  0
LINE
  5
D9
100
AcDbEntity
  8
0
 62
256
370
-1
 48
1.0
  6
BYLAYER
100
AcDbLine
 10
18.5250999999999983
 20
-39.6007999999999996
 30
0.0
 11
18.5749999999999993
 21
-39.6071000000000026
 31
0.0
  0
LINE
  5
DA
100
AcDbEntity
  8
0
 62
256
370
-1
 48
1.0
  6
BYLAYER
100
AcDbLine
 10
18.5749999999999993
 20
-39.6071000000000026
 30
0.0
 11
18.6235999999999997
 21
-39.6195999999999984
 31
0.0
  0
LINE
  5
DB
100
AcDbEntity
  8
0
 62
256
370
-1
 48
1.0
  6
BYLAYER
100
AcDbLine
 10
18.6235999999999997
 20
-39.6195999999999984
 30
0.0
 11
18.670300000000001
 21
-39.6381000000000014
 31
0.0
  0
LINE
  5
DC
100
AcDbEntity
  8
0
 62
256
370
-1
 48
1.0
  6
BYLAYER
100
AcDbLine
 10
18.670300000000001
 20
-39.6381000000000014
 30
0.0
 11
18.7143000000000015
 21
-39.6623000000000019
 31
0.0
  0
LINE
  5
DD
100
AcDbEntity
  8
0
 62
256
370
-1
 48
1.0
  6
BYLAYER
100
AcDbLine
 10
18.7143000000000015
 20
-39.6623000000000019
 30
0.0
 11
18.754999999999999
 21
-39.6918000000000006
 31
0.0
  0
LINE
  5
DE
100
AcDbEntity
  8
0
 62
256
370
-1
 48
1.0
  6
BYLAYER
100
AcDbLine
 10
18.754999999999999
 20
-39.6918000000000006
 30
0.0
 11
18.791599999999999
 21
-39.7261999999999986
 31
0.0
  0
LINE
  5
DF
100
AcDbEntity
  8
0
 62
256
370
-1
 48
1.0
  6
BYLAYER
100
AcDbLine
 10
18.791599999999999
 20
-39.7261999999999986
 30
0.0
 11
18.823599999999999
 21
-39.7648999999999972
 31
0.0
  0
LINE
  5
E0
100
AcDbEntity
  8
0
 62
256
370
-1
 48
1.0
  6
BYLAYER
100
AcDbLine
 10
18.823599999999999
 20
-39.7648999999999972
 30
0.0
 11
18.8505000000000003
 21
-39.8072999999999979
 31
0.0
  0
LINE
  5
E1
100
AcDbEntity
  8
0
 62
256
370
-1
 48
1.0
  6
BYLAYER
100
AcDbLine
 10
18.8505000000000003
 20
-39.8072999999999979
 30
0.0
 11
18.8719000000000001
 21
-39.852800000000002
 31
0.0
  0
LINE
  5
E2
100
AcDbEntity
  8
0
 62
256
370
-1
 48
1.0
  6
BYLAYER
100
AcDbLine
 10
18.8719000000000001
 20
-39.852800000000002
 30
0.0
 11
18.8873999999999995
 21
-39.900500000000001
 31
0.0
  0
LINE
  5
E3
100
AcDbEntity
  8
0
 62
256
370
-1
 48
1.0
  6
BYLAYER
100
AcDbLine
 10
18.8873999999999995
 20
-39.900500000000001
 30
0.0
 11
18.8967999999999989
 21
-39.9498999999999995
 31
0.0
  0
LINE
  5
E4
100
AcDbEntity
  8
0
 62
256
370
-1
 48
1.0
  6
BYLAYER
100
AcDbLine
 10
18.8967999999999989
 20
-39.9498999999999995
 30
0.0
 11
18.8999999999999986
 21
-40.0
 31
0.0
  0
LINE
  5
E5
100
AcDbEntity
  8
0
 62
256
370
-1
 48
1.0
  6
BYLAYER
100
AcDbLine
 10
18.8999999999999986
 20
-40.0
 30
0.0
 11
18.8967999999999989
 21
-40.0501000000000005
 31
0.0
  0
LINE
  5
E6
100
AcDbEntity
  8
0
 62
256
370
-1
 48
1.0
  6
BYLAYER
100
AcDbLine
 10
18.8967999999999989
 20
-40.0501000000000005
 30
0.0
 11
18.8873999999999995
 21
-40.099499999999999
 31
0.0
  0
LINE
  5
E7
100
AcDbEntity
  8
0
 62
256
370
-1
 48
1.0
  6
BYLAYER
100
AcDbLine
 10
18.8873999999999995
 20
-40.099499999999999
 30
0.0
 11
18.8719000000000001
 21
-40.147199999999998
 31
0.0
  0
LINE
  5
E8
100
AcDbEntity
  8
0
 62
256
370
-1
 48
1.0
  6
BYLAYER
100
AcDbLine
 10
18.8719000000000001
 20
-40.147199999999998
 30
0.0
 11
18.8505000000000003
 21
-40.1927000000000021
 31
0.0
  0
LINE
  5
E9
100
AcDbEntity
  8
0
 62
256
370
-1
 48
1.0
  6
BYLAYER
100
AcDbLine
 10
18.8505000000000003
 20
-40.1927000000000021
 30
0.0
 11
18.823599999999999
 21
-40.2351000000000028
 31
0.0
  0
LINE
  5
EA
100
AcDbEntity
  8
0
 62
256
370
-1
 48
1.0
  6
BYLAYER
100
AcDbLine
 10
18.823599999999999
 20
-40.2351000000000028
 30
0.0
 11
18.791599999999999
 21
-40.2738000000000014
 31
0.0
  0
LINE
  5
EB
100
AcDbEntity
  8
0
 62
256
370
-1
 48
1.0
  6
BYLAYER
100
AcDbLine
 10
18.791599999999999
 20
-40.2738000000000014
 30
0.0
 11
18.754999999999999
 21
-40.3081999999999994
 31
0.0
  0
LINE
  5
EC
100
AcDbEntity
  8
0
 62
256
370
-1
 48
1.0
  6
BYLAYER
100
AcDbLine
 10
18.754999999999999
 20
-40.3081999999999994
 30
0.0
 11
18.7143000000000015
 21
-40.3376999999999981
 31
0.0
  0
LINE
  5
ED
100
AcDbEntity
  8
0
 62
256
370
-1
 48
1.0
  6
BYLAYER
100
AcDbLine
 10
18.7143000000000015
 20
-40.3376999999999981
 30
0.0
 11
18.670300000000001
 21
-40.3618999999999986
 31
0.0
  0
LINE
  5
EE
100
AcDbEntity
  8
0
 62
256
370
-1
 48
1.0
  6
BYLAYER
100
AcDbLine
 10
18.670300000000001
 20
-40.3618999999999986
 30
0.0
 11
18.6235999999999997
 21
-40.3804000000000016
 31
0.0
  0
LINE
  5
EF
100
AcDbEntity
  8
0
 62
256
370
-1
 48
1.0
  6
BYLAYER
100
AcDbLine
 10
18.6235999999999997
 20
-40.3804000000000016
 30
0.0
 11
18.5749999999999993
 21
-40.3928999999999974
 31
0.0
  0
LINE
  5
F0
100
AcDbEntity
  8
0
 62
256
370
-1
 48
1.0
  6
BYLAYER
100
AcDbLine
 10
18.5749999999999993
 20
-40.3928999999999974
 30
0.0
 11
18.5250999999999983
 21
-40.3992000000000004
 31
0.0
  0
LINE
  5
F1
100
AcDbEntity
  8
0
 62
256
370
-1
 48
1.0
  6
BYLAYER
100
AcDbLine
 10
23.5942000000000007
 20
-46.4969999999999999
 30
0.0
 11
23.6879999999999988
 21
-46.4881999999999991
 31
0.0
  0
LINE
  5
F2
100
AcDbEntity
  8
0
 62
256
370
-1
 48
1.0
  6
BYLAYER
100
AcDbLine
 10
23.6879999999999988
 20
-46.4881999999999991
 30
0.0
 11
23.7810999999999986
 21
-46.473399999999998
 31
0.0
  0
LINE
  5
F3
100
AcDbEntity
  8
0
 62
256
370
-1
 48
1.0
  6
BYLAYER
100
AcDbLine
 10
23.7810999999999986
 20
-46.473399999999998
 30
0.0
 11
23.8730000000000011
 21
-46.4528999999999996
 31
0.0
  0
LINE
  5
F4
100
AcDbEntity
  8
0
 62
256
370
-1
 48
1.0
  6
BYLAYER
100
AcDbLine
 10
23.8730000000000011
 20
-46.4528999999999996
 30
0.0
 11
23.9634999999999998
 21
-46.4266000000000005
 31
0.0
  0
LINE
  5
F5
100
AcDbEntity
  8
0
 62
256
370
-1
 48
1.0
  6
BYLAYER
100
AcDbLine
 10
23.9634999999999998
 20
-46.4266000000000005
 30
0.0
 11
24.0521999999999991
 21
-46.3947000000000003
 31
0.0
  0
LINE
  5
F6
100
AcDbEntity
  8
0
 62
256
370
-1
 48
1.0
  6
BYLAYER
100
AcDbLine
 10
24.0521999999999991
 20
-46.3947000000000003
 30
0.0
 11
24.1387
 21
-46.3571999999999989
 31
0.0
  0
LINE
  5
F7
100
AcDbEntity
  8
0
 62
256
370
-1
 48
1.0
  6
BYLAYER
100
AcDbLine
 10
24.1387
 20
-46.3571999999999989
 30
0.0
 11
24.2225999999999999
 21
-46.3145000000000024
 31
0.0
  0
LINE
  5
F8
100
AcDbEntity
  8
0
 62
256
370
-1
 48
1.0
  6
BYLAYER
100
AcDbLine
 10
24.2225999999999999
 20
-46.3145000000000024
 30
0.0
 11
24.3036999999999992
 21
-46.2665000000000006
 31
0.0
  0
LINE
  5
F9
100
AcDbEntity
  8
0
 62
256
370
-1
 48
1.0
  6
BYLAYER
100
AcDbLine
 10
24.3036999999999992
 20
-46.2665000000000006
 30
0.0
 11
24.3816999999999986
 21
-46.2135000000000034
 31
0.0
  0
LINE
  5
FA
100
AcDbEntity
  8
0
 62
256
370
-1
 48
1.0
  6
BYLAYER
100
AcDbLine
 10
24.3816999999999986
 20
-46.2135000000000034
 30
0.0
 11
24.4560999999999993
 21
-46.1557999999999993
 31
0.0
  0
LINE
  5
FB
100
AcDbEntity
  8
0
 62
256
370
-1
 48
1.0
  6
BYLAYER
100
AcDbLine
 10
24.4560999999999993
 20
-46.1557999999999993
 30
0.0
 11
24.5268000000000015
 21
-46.0934000000000026
 31
0.0
  0
LINE
  5
FC
100
AcDbEntity
  8
0
 62
256
370
-1
 48
1.0
  6
BYLAYER
100
AcDbLine
 10
24.5268000000000015
 20
-46.0934000000000026
 30
0.0
 11
24.593399999999999
 21
-46.0268000000000015
 31
0.0
  0
LINE
  5
FD
100
AcDbEntity
  8
0
 62
256
370
-1
 48
1.0
  6
BYLAYER
100
AcDbLine
 10
24.593399999999999
 20
-46.0268000000000015
 30
0.0
 11
24.6557999999999993
 21
-45.9560999999999993
 31
0.0
  0
LINE
  5
FE
100
AcDbEntity
  8
0
 62
256
370
-1
 48
1.0
  6
BYLAYER
100
AcDbLine
 10
24.6557999999999993
 20
-45.9560999999999993
 30
0.0
 11
24.7134999999999998
 21
-45.8817000000000021
 31
0.0
  0
LINE
  5
FF
100
AcDbEntity
  8
0
 62
256
370
-1
 48
1.0
  6
BYLAYER
100
AcDbLine
 10
24.7134999999999998
 20
-45.8817000000000021
 30
0.0
 11
24.7665000000000006
 21
-45.8036999999999992
 31
0.0
  0
LINE
  5
100
100
AcDbEntity
  8
0
 62
256
370
-1
 48
1.0
  6
BYLAYER
100
AcDbLine
 10
24.7665000000000006
 20
-45.8036999999999992
 30
0.0
 11
24.8144999999999989
 21
-45.7225999999999999
 31
0.0
  0
LINE
  5
101
100
AcDbEntity
  8
0
 62
256
370
-1
 48
1.0
  6
BYLAYER
100
AcDbLine
 10
24.8144999999999989
 20
-45.7225999999999999
 30
0.0
 11
24.8571999999999989
 21
-45.6387
 31
0.0
  0
LINE
  5
102
100
AcDbEntity
  8
0
 62
256
370
-1
 48
1.0
  6
BYLAYER
100
AcDbLine
 10
24.8571999999999989
 20
-45.6387
 30
0.0
 11
24.8947000000000003
 21
-45.5521999999999991
 31
0.0
  0
LINE
  5
103
100
AcDbEntity
  8
0
 62
256
370
-1
 48
1.0
  6
BYLAYER
100
AcDbLine
 10
24.8947000000000003
 20
-45.5521999999999991
 30
0.0
 11
24.9266000000000005
 21
-45.4635000000000034
 31
0.0
  0
LINE
  5
104
100
AcDbEntity
  8
0
 62
256
370
-1
 48
1.0
  6
BYLAYER
100
AcDbLine
 10
24.9266000000000005
 20
-45.4635000000000034
 30
0.0
 11
24.9528999999999996
 21
-45.3729999999999976
 31
0.0
  0
LINE
  5
105
100
AcDbEntity
  8
0
 62
256
370
-1
 48
1.0
  6
BYLAYER
100
AcDbLine
 10
24.9528999999999996
 20
-45.3729999999999976
 30
0.0
 11
24.9734000000000016
 21
-45.2811000000000021
 31
0.0
  0
LINE
  5
106
100
AcDbEntity
  8
0
 62
256
370
-1
 48
1.0
  6
BYLAYER
100
AcDbLine
 10
24.9734000000000016
 20
-45.2811000000000021
 30
0.0
 11
24.9881999999999991
 21
-45.1880000000000024
 31
0.0
  0
LINE
  5
107
100
AcDbEntity
  8
0
 62
256
370
-1
 48
1.0
  6
BYLAYER
100
AcDbLine
 10
24.9881999999999991
 20
-45.1880000000000024
 30
0.0
 11
24.9969999999999999
 21
-45.0942000000000007
 31
0.0
  0
LINE
  5
108
100
AcDbEntity
  8
0
 62
256
370
-1
 48
1.0
  6
BYLAYER
100
AcDbLine
 10
24.9969999999999999
 20
-45.0942000000000007
 30
0.0
 11
25.0
 21
-45.0
 31
0.0
  0
LINE
  5
109
100
AcDbEntity
  8
0
 62
256
370
-1
 48
1.0
  6
BYLAYER
100
AcDbLine
 10
25.0
 20
-45.0
 30
0.0
 11
24.9969999999999999
 21
-44.9057999999999993
 31
0.0
  0
LINE
  5
10A
100
AcDbEntity
  8
0
 62
256
370
-1
 48
1.0
  6
BYLAYER
100
AcDbLine
 10
24.9969999999999999
 20
-44.9057999999999993
 30
0.0
 11
24.9881999999999991
 21
-44.8119999999999976
 31
0.0
  0
LINE
  5
10B
100
AcDbEntity
  8
0
 62
256
370
-1
 48
1.0
  6
BYLAYER
100
AcDbLine
 10
24.9881999999999991
 20
-44.8119999999999976
 30
0.0
 11
24.9734000000000016
 21
-44.7188999999999979
 31
0.0
  0
LINE
  5
10C
100
AcDbEntity
  8
0
 62
256
370
-1
 48
1.0
  6
BYLAYER
100
AcDbLine
 10
24.9734000000000016
 20
-44.7188999999999979
 30
0.0
 11
24.9528999999999996
 21
-44.6270000000000024
 31
0.0
  0
LINE
  5
10D
100
AcDbEntity
  8
0
 62
256
370
-1
 48
1.0
  6
BYLAYER
100
AcDbLine
 10
24.9528999999999996
 20
-44.6270000000000024
 30
0.0
 11
24.9266000000000005
 21
-44.5364999999999966
 31
0.0
  0
LINE
  5
10E
100
AcDbEntity
  8
0
 62
256
370
-1
 48
1.0
  6
BYLAYER
100
AcDbLine
 10
24.9266000000000005
 20
-44.5364999999999966
 30
0.0
 11
24.8947000000000003
 21
-44.4478000000000009
 31
0.0
  0
LINE
  5
10F
100
AcDbEntity
  8
0
 62
256
370
-1
 48
1.0
  6
BYLAYER
100
AcDbLine
 10
24.8947000000000003
 20
-44.4478000000000009
 30
0.0
 11
24.8571999999999989
 21
-44.3613
 31
0.0
  0
LINE
  5
110
100
AcDbEntity
  8
0
 62
256
370
-1
 48
1.0
  6
BYLAYER
100
AcDbLine
 10
24.8571999999999989
 20
-44.3613
 30
0.0
 11
24.8144999999999989
 21
-44.2774000000000001
 31
0.0
  0
LINE
  5
111
100
AcDbEntity
  8
0
 62
256
370
-1
 48
1.0
  6
BYLAYER
100
AcDbLine
 10
24.8144999999999989
 20
-44.2774000000000001
 30
0.0
 11
24.7665000000000006
 21
-44.1963000000000008
 31
0.0
  0
LINE
  5
112
100
AcDbEntity
  8
0
 62
256
370
-1
 48
1.0
  6
BYLAYER
100
AcDbLine
 10
24.7665000000000006
 20
-44.1963000000000008
 30
0.0
 11
24.7134999999999998
 21
-44.1182999999999979
 31
0.0
  0
LINE
  5
113
100
AcDbEntity
  8
0
 62
256
370
-1
 48
1.0
  6
BYLAYER
100
AcDbLine
 10
24.7134999999999998
 20
-44.1182999999999979
 30
0.0
 11
24.6557999999999993
 21
-44.0439000000000007
 31
0.0
  0
LINE
  5
114
100
AcDbEntity
  8
0
 62
256
370
-1
 48
1.0
  6
BYLAYER
100
AcDbLine
 10
24.6557999999999993
 20
-44.0439000000000007
 30
0.0
 11
24.593399999999999
 21
-43.9731999999999985
 31
0.0
  0
LINE
  5
115
100
AcDbEntity
  8
0
 62
256
370
-1
 48
1.0
  6
BYLAYER
100
AcDbLine
 10
24.593399999999999
 20
-43.9731999999999985
 30
0.0
 11
24.5268000000000015
 21
-43.9065000000000012
 31
0.0
  0
LINE
  5
116
100
AcDbEntity
  8
0
 62
256
370
-1
 48
1.0
  6
BYLAYER
100
AcDbLine
 10
24.5268000000000015
 20
-43.9065000000000012
 30
0.0
 11
24.4560999999999993
 21
-43.8442000000000007
 31
0.0
  0
LINE
  5
117
100
AcDbEntity
  8
0
 62
256
370
-1
 48
1.0
  6
BYLAYER
100
AcDbLine
 10
24.4560999999999993
 20
-43.8442000000000007
 30
0.0
 11
24.3816999999999986
 21
-43.7864999999999966
 31
0.0
  0
LINE
  5
118
100
AcDbEntity
  8
0
 62
256
370
-1
 48
1.0
  6
BYLAYER
100
AcDbLine
 10
24.3816999999999986
 20
-43.7864999999999966
 30
0.0
 11
24.3036999999999992
 21
-43.7334999999999994
 31
0.0
  0
LINE
  5
119
100
AcDbEntity
  8
0
 62
256
370
-1
 48
1.0
  6
BYLAYER
100
AcDbLine
 10
24.3036999999999992
 20
-43.7334999999999994
 30
0.0
 11
24.2225999999999999
 21
-43.6854999999999976
 31
0.0
  0
LINE
  5
11A
100
AcDbEntity
  8
0
 62
256
370
-1
 48
1.0
  6
BYLAYER
100
AcDbLine
 10
24.2225999999999999
 20
-43.6854999999999976
 30
0.0
 11
24.1387
 21
-43.6428000000000011
 31
0.0
  0
LINE
  5
11B
100
AcDbEntity
  8
0
 62
256
370
-1
 48
1.0
  6
BYLAYER
100
AcDbLine
 10
24.1387
 20
-43.6428000000000011
 30
0.0
 11
24.0521999999999991
 21
-43.6052999999999997
 31
0.0
  0
LINE
  5
11C
100
AcDbEntity
  8
0
 62
256
370
-1
 48
1.0
  6
BYLAYER
100
AcDbLine
 10
24.0521999999999991
 20
-43.6052999999999997
 30
0.0
 11
23.9634999999999998
 21
-43.5733999999999995
 31
0.0
  0
LINE
  5
11D
100
AcDbEntity
  8
0
 62
256
370
-1
 48
1.0
  6
BYLAYER
100
AcDbLine
 10
23.9634999999999998
 20
-43.5733999999999995
 30
0.0
 11
23.8730000000000011
 21
-43.5471000000000004
 31
0.0
  0
LINE
  5
11E
100
AcDbEntity
  8
0
 62
256
370
-1
 48
1.0
  6
BYLAYER
100
AcDbLine
 10
23.8730000000000011
 20
-43.5471000000000004
 30
0.0
 11
23.7810999999999986
 21
-43.526600000000002
 31
0.0
  0
LINE
  5
11F
100
AcDbEntity
  8
0
 62
256
370
-1
 48
1.0
  6
BYLAYER
100
AcDbLine
 10
23.7810999999999986
 20
-43.526600000000002
 30
0.0
 11
23.6879999999999988
 21
-43.5118000000000009
 31
0.0
  0
LINE
  5
120
100
AcDbEntity
  8
0
 62
256
370
-1
 48
1.0
  6
BYLAYER
100
AcDbLine
 10
23.6879999999999988
 20
-43.5118000000000009
 30
0.0
 11
23.5942000000000007
 21
-43.5030000000000001
 31
0.0
  0
LINE
  5
121
100
AcDbEntity
  8
0
 62
256
370
-1
 48
1.0
  6
BYLAYER
100
AcDbLine
 10
23.5942000000000007
 20
-43.5030000000000001
 30
0.0
 11
23.5
 21
-43.5
 31
0.0
  0
LINE
  5
122
100
AcDbEntity
  8
0
 62
256
370
-1
 48
1.0
  6
BYLAYER
100
AcDbLine
 10
23.5
 20
-43.5
 30
0.0
 11
-23.5
 21
-43.5
 31
0.0
  0
LINE
  5
123
100
AcDbEntity
  8
0
 62
256
370
-1
 48
1.0
  6
BYLAYER
100
AcDbLine
 10
-23.5
 20
-43.5
 30
0.0
 11
-23.5942000000000007
 21
-43.5030000000000001
 31
0.0
  0
LINE
  5
124
100
AcDbEntity
  8
0
 62
256
370
-1
 48
1.0
  6
BYLAYER
100
AcDbLine
 10
-23.5942000000000007
 20
-43.5030000000000001
 30
0.0
 11
-23.6879999999999988
 21
-43.5118000000000009
 31
0.0
  0
LINE
  5
125
100
AcDbEntity
  8
0
 62
256
370
-1
 48
1.0
  6
BYLAYER
100
AcDbLine
 10
-23.6879999999999988
 20
-43.5118000000000009
 30
0.0
 11
-23.7810999999999986
 21
-43.526600000000002
 31
0.0
  0
LINE
  5
126
100
AcDbEntity
  8
0
 62
256
370
-1
 48
1.0
  6
BYLAYER
100
AcDbLine
 10
-23.7810999999999986
 20
-43.526600000000002
 30
0.0
 11
-23.8730000000000011
 21
-43.5471000000000004
 31
0.0
  0
LINE
  5
127
100
AcDbEntity
  8
0
 62
256
370
-1
 48
1.0
  6
BYLAYER
100
AcDbLine
 10
-23.8730000000000011
 20
-43.5471000000000004
 30
0.0
 11
-23.9634999999999998
 21
-43.5733999999999995
 31
0.0
  0
LINE
  5
128
100
AcDbEntity
  8
0
 62
256
370
-1
 48
1.0
  6
BYLAYER
100
AcDbLine
 10
-23.9634999999999998
 20
-43.5733999999999995
 30
0.0
 11
-24.0521999999999991
 21
-43.6052999999999997
 31
0.0
  0
LINE
  5
129
100
AcDbEntity
  8
0
 62
256
370
-1
 48
1.0
  6
BYLAYER
100
AcDbLine
 10
-24.0521999999999991
 20
-43.6052999999999997
 30
0.0
 11
-24.1387
 21
-43.6428000000000011
 31
0.0
  0
LINE
  5
12A
100
AcDbEntity
  8
0
 62
256
370
-1
 48
1.0
  6
BYLAYER
100
AcDbLine
 10
-24.1387
 20
-43.6428000000000011
 30
0.0
 11
-24.2225999999999999
 21
-43.6854999999999976
 31
0.0
  0
LINE
  5
12B
100
AcDbEntity
  8
0
 62
256
370
-1
 48
1.0
  6
BYLAYER
100
AcDbLine
 10
-24.2225999999999999
 20
-43.6854999999999976
 30
0.0
 11
-24.3036999999999992
 21
-43.7334999999999994
 31
0.0
  0
LINE
  5
12C
100
AcDbEntity
  8
0
 62
256
370
-1
 48
1.0
  6
BYLAYER
100
AcDbLine
 10
-24.3036999999999992
 20
-43.7334999999999994
 30
0.0
 11
-24.3816999999999986
 21
-43.7864999999999966
 31
0.0
  0
LINE
  5
12D
100
AcDbEntity
  8
0
 62
256
370
-1
 48
1.0
  6
BYLAYER
100
AcDbLine
 10
-24.3816999999999986
 20
-43.7864999999999966
 30
0.0
 11
-24.4560999999999993
 21
-43.8442000000000007
 31
0.0
  0
LINE
  5
12E
100
AcDbEntity
  8
0
 62
256
370
-1
 48
1.0
  6
BYLAYER
100
AcDbLine
 10
-24.4560999999999993
 20
-43.8442000000000007
 30
0.0
 11
-24.5268000000000015
 21
-43.9065000000000012
 31
0.0
  0
LINE
  5
12F
100
AcDbEntity
  8
0
 62
256
370
-1
 48
1.0
  6
BYLAYER
100
AcDbLine
 10
-24.5268000000000015
 20
-43.9065000000000012
 30
0.0
 11
-24.593399999999999
 21
-43.9731999999999985
 31
0.0
  0
LINE
  5
130
100
AcDbEntity
  8
0
 62
256
370
-1
 48
1.0
  6
BYLAYER
100
AcDbLine
 10
-24.593399999999999
 20
-43.9731999999999985
 30
0.0
 11
-24.6557999999999993
 21
-44.0439000000000007
 31
0.0
  0
LINE
  5
131
100
AcDbEntity
  8
0
 62
256
370
-1
 48
1.0
  6
BYLAYER
100
AcDbLine
 10
-24.6557999999999993
 20
-44.0439000000000007
 30
0.0
 11
-24.7134999999999998
 21
-44.1182999999999979
 31
0.0
  0
LINE
  5
132
100
AcDbEntity
  8
0
 62
256
370
-1
 48
1.0
  6
BYLAYER
100
AcDbLine
 10
-24.7134999999999998
 20
-44.1182999999999979
 30
0.0
 11
-24.7665000000000006
 21
-44.1963000000000008
 31
0.0
  0
LINE
  5
133
100
AcDbEntity
  8
0
 62
256
370
-1
 48
1.0
  6
BYLAYER
100
AcDbLine
 10
-24.7665000000000006
 20
-44.1963000000000008
 30
0.0
 11
-24.8144999999999989
 21
-44.2774000000000001
 31
0.0
  0
LINE
  5
134
100
AcDbEntity
  8
0
 62
256
370
-1
 48
1.0
  6
BYLAYER
100
AcDbLine
 10
-24.8144999999999989
 20
-44.2774000000000001
 30
0.0
 11
-24.8571999999999989
 21
-44.3613
 31
0.0
  0
LINE
  5
135
100
AcDbEntity
  8
0
 62
256
370
-1
 48
1.0
  6
BYLAYER
100
AcDbLine
 10
-24.8571999999999989
 20
-44.3613
 30
0.0
 11
-24.8947000000000003
 21
-44.4478000000000009
 31
0.0
  0
LINE
  5
136
100
AcDbEntity
  8
0
 62
256
370
-1
 48
1.0
  6
BYLAYER
100
AcDbLine
 10
-24.8947000000000003
 20
-44.4478000000000009
 30
0.0
 11
-24.9266000000000005
 21
-44.5364999999999966
 31
0.0
  0
LINE
  5
137
100
AcDbEntity
  8
0
 62
256
370
-1
 48
1.0
  6
BYLAYER
100
AcDbLine
 10
-24.9266000000000005
 20
-44.5364999999999966
 30
0.0
 11
-24.9528999999999996
 21
-44.6270000000000024
 31
0.0
  0
LINE
  5
138
100
AcDbEntity
  8
0
 62
256
370
-1
 48
1.0
  6
BYLAYER
100
AcDbLine
 10
-24.9528999999999996
 20
-44.6270000000000024
 30
0.0
 11
-24.9734000000000016
 21
-44.7188999999999979
 31
0.0
  0
LINE
  5
139
100
AcDbEntity
  8
0
 62
256
370
-1
 48
1.0
  6
BYLAYER
100
AcDbLine
 10
-24.9734000000000016
 20
-44.7188999999999979
 30
0.0
 11
-24.9881999999999991
 21
-44.8119999999999976
 31
0.0
  0
LINE
  5
13A
100
AcDbEntity
  8
0
 62
256
370
-1
 48
1.0
  6
BYLAYER
100
AcDbLine
 10
-24.9881999999999991
 20
-44.8119999999999976
 30
0.0
 11
-24.9969999999999999
 21
-44.9057999999999993
 31
0.0
  0
LINE
  5
13B
100
AcDbEntity
  8
0
 62
256
370
-1
 48
1.0
  6
BYLAYER
100
AcDbLine
 10
-24.9969999999999999
 20
-44.9057999999999993
 30
0.0
 11
-25.0
 21
-45.0
 31
0.0
  0
LINE
  5
13C
100
AcDbEntity
  8
0
 62
256
370
-1
 48
1.0
  6
BYLAYER
100
AcDbLine
 10
-25.0
 20
-45.0
 30
0.0
 11
-24.9969999999999999
 21
-45.0942000000000007
 31
0.0
  0
LINE
  5
13D
100
AcDbEntity
  8
0
 62
256
370
-1
 48
1.0
  6
BYLAYER
100
AcDbLine
 10
-24.9969999999999999
 20
-45.0942000000000007
 30
0.0
 11
-24.9881999999999991
 21
-45.1880000000000024
 31
0.0
  0
LINE
  5
13E
100
AcDbEntity
  8
0
 62
256
370
-1
 48
1.0
  6
BYLAYER
100
AcDbLine
 10
-24.9881999999999991
 20
-45.1880000000000024
 30
0.0
 11
-24.9734000000000016
 21
-45.2811000000000021
 31
0.0
  0
LINE
  5
13F
100
AcDbEntity
  8
0
 62
256
370
-1
 48
1.0
  6
BYLAYER
100
AcDbLine
 10
-24.9734000000000016
 20
-45.2811000000000021
 30
0.0
 11
-24.9528999999999996
 21
-45.3729999999999976
 31
0.0
  0
LINE
  5
140
100
AcDbEntity
  8
0
 62
256
370
-1
 48
1.0
  6
BYLAYER
100
AcDbLine
 10
-24.9528999999999996
 20
-45.3729999999999976
 30
0.0
 11
-24.9266000000000005
 21
-45.4635000000000034
 31
0.0
  0
LINE
  5
141
100
AcDbEntity
  8
0
 62
256
370
-1
 48
1.0
  6
BYLAYER
100
AcDbLine
 10
-24.9266000000000005
 20
-45.4635000000000034
 30
0.0
 11
-24.8947000000000003
 21
-45.5521999999999991
 31
0.0
  0
LINE
  5
142
100
AcDbEntity
  8
0
 62
256
370
-1
 48
1.0
  6
BYLAYER
100
AcDbLine
 10
-24.8947000000000003
 20
-45.5521999999999991
 30
0.0
 11
-24.8571999999999989
 21
-45.6387
 31
0.0
  0
LINE
  5
143
100
AcDbEntity
  8
0
 62
256
370
-1
 48
1.0
  6
BYLAYER
100
AcDbLine
 10
-24.8571999999999989
 20
-45.6387
 30
0.0
 11
-24.8144999999999989
 21
-45.7225999999999999
 31
0.0
  0
LINE
  5
144
100
AcDbEntity
  8
0
 62
256
370
-1
 48
1.0
  6
BYLAYER
100
AcDbLine
 10
-24.8144999999999989
 20
-45.7225999999999999
 30
0.0
 11
-24.7665000000000006
 21
-45.8036999999999992
 31
0.0
  0
LINE
  5
145
100
AcDbEntity
  8
0
 62
256
370
-1
 48
1.0
  6
BYLAYER
100
AcDbLine
 10
-24.7665000000000006
 20
-45.8036999999999992
 30
0.0
 11
-24.7134999999999998
 21
-45.8817000000000021
 31
0.0
  0
LINE
  5
146
100
AcDbEntity
  8
0
 62
256
370
-1
 48
1.0
  6
BYLAYER
100
AcDbLine
 10
-24.7134999999999998
 20
-45.8817000000000021
 30
0.0
 11
-24.6557999999999993
 21
-45.9560999999999993
 31
0.0
  0
LINE
  5
147
100
AcDbEntity
  8
0
 62
256
370
-1
 48
1.0
  6
BYLAYER
100
AcDbLine
 10
-24.6557999999999993
 20
-45.9560999999999993
 30
0.0
 11
-24.593399999999999
 21
-46.0268000000000015
 31
0.0
  0
LINE
  5
148
100
AcDbEntity
  8
0
 62
256
370
-1
 48
1.0
  6
BYLAYER
100
AcDbLine
 10
-24.593399999999999
 20
-46.0268000000000015
 30
0.0
 11
-24.5268000000000015
 21
-46.0934000000000026
 31
0.0
  0
LINE
  5
149
100
AcDbEntity
  8
0
 62
256
370
-1
 48
1.0
  6
BYLAYER
100
AcDbLine
 10
-24.5268000000000015
 20
-46.0934000000000026
 30
0.0
 11
-24.4560999999999993
 21
-46.1557999999999993
 31
0.0
  0
LINE
  5
14A
100
AcDbEntity
  8
0
 62
256
370
-1
 48
1.0
  6
BYLAYER
100
AcDbLine
 10
-24.4560999999999993
 20
-46.1557999999999993
 30
0.0
 11
-24.3816999999999986
 21
-46.2135000000000034
 31
0.0
  0
LINE
  5
14B
100
AcDbEntity
  8
0
 62
256
370
-1
 48
1.0
  6
BYLAYER
100
AcDbLine
 10
-24.3816999999999986
 20
-46.2135000000000034
 30
0.0
 11
-24.3036999999999992
 21
-46.2665000000000006
 31
0.0
  0
LINE
  5
14C
100
AcDbEntity
  8
0
 62
256
370
-1
 48
1.0
  6
BYLAYER
100
AcDbLine
 10
-24.3036999999999992
 20
-46.2665000000000006
 30
0.0
 11
-24.2225999999999999
 21
-46.3145000000000024
 31
0.0
  0
LINE
  5
14D
100
AcDbEntity
  8
0
 62
256
370
-1
 48
1.0
  6
BYLAYER
100
AcDbLine
 10
-24.2225999999999999
 20
-46.3145000000000024
 30
0.0
 11
-24.1387
 21
-46.3571999999999989
 31
0.0
  0
LINE
  5
14E
100
AcDbEntity
  8
0
 62
256
370
-1
 48
1.0
  6
BYLAYER
100
AcDbLine
 10
-24.1387
 20
-46.3571999999999989
 30
0.0
 11
-24.0521999999999991
 21
-46.3947000000000003
 31
0.0
  0
LINE
  5
14F
100
AcDbEntity
  8
0
 62
256
370
-1
 48
1.0
  6
BYLAYER
100
AcDbLine
 10
-24.0521999999999991
 20
-46.3947000000000003
 30
0.0
 11
-23.9634999999999998
 21
-46.4266000000000005
 31
0.0
  0
LINE
  5
150
100
AcDbEntity
  8
0
 62
256
370
-1
 48
1.0
  6
BYLAYER
100
AcDbLine
 10
-23.9634999999999998
 20
-46.4266000000000005
 30
0.0
 11
-23.8730000000000011
 21
-46.4528999999999996
 31
0.0
  0
LINE
  5
151
100
AcDbEntity
  8
0
 62
256
370
-1
 48
1.0
  6
BYLAYER
100
AcDbLine
 10
-23.8730000000000011
 20
-46.4528999999999996
 30
0.0
 11
-23.7810999999999986
 21
-46.473399999999998
 31
0.0
  0
LINE
  5
152
100
AcDbEntity
  8
0
 62
256
370
-1
 48
1.0
  6
BYLAYER
100
AcDbLine
 10
-23.7810999999999986
 20
-46.473399999999998
 30
0.0
 11
-23.6879999999999988
 21
-46.4881999999999991
 31
0.0
  0
LINE
  5
153
100
AcDbEntity
  8
0
 62
256
370
-1
 48
1.0
  6
BYLAYER
100
AcDbLine
 10
-23.6879999999999988
 20
-46.4881999999999991
 30
0.0
 11
-23.5942000000000007
 21
-46.4969999999999999
 31
0.0
  0
LINE
  5
154
100
AcDbEntity
  8
0
 62
256
370
-1
 48
1.0
  6
BYLAYER
100
AcDbLine
 10
-23.5942000000000007
 20
-46.4969999999999999
 30
0.0
 11
-23.5
 21
-46.5
 31
0.0
  0
LINE
  5
155
100
AcDbEntity
  8
0
 62
256
370
-1
 48
1.0
  6
BYLAYER
100
AcDbLine
 10
-23.5
 20
-46.5
 30
0.0
 11
23.5
 21
-46.5
 31
0.0
  0
LINE
  5
156
100
AcDbEntity
  8
0
 62
256
370
-1
 48
1.0
  6
BYLAYER
100
AcDbLine
 10
23.5
 20
-46.5
 30
0.0
 11
23.5942000000000007
 21
-46.4969999999999999
 31
0.0
  0
LINE
  5
157
100
AcDbEntity
  8
0
 62
256
370
-1
 48
1.0
  6
BYLAYER
100
AcDbLine
 10
23.5250999999999983
 20
-45.3992000000000004
 30
0.0
 11
-23.5250999999999983
 21
-45.3992000000000004
 31
0.0
  0
LINE
  5
158
100
AcDbEntity
  8
0
 62
256
370
-1
 48
1.0
  6
BYLAYER
100
AcDbLine
 10
-23.5250999999999983
 20
-45.3992000000000004
 30
0.0
 11
-23.5749999999999993
 21
-45.3928999999999974
 31
0.0
  0
LINE
  5
159
100
AcDbEntity
  8
0
 62
256
370
-1
 48
1.0
  6
BYLAYER
100
AcDbLine
 10
-23.5749999999999993
 20
-45.3928999999999974
 30
0.0
 11
-23.6235999999999997
 21
-45.3804000000000016
 31
0.0
  0
LINE
  5
15A
100
AcDbEntity
  8
0
 62
256
370
-1
 48
1.0
  6
BYLAYER
100
AcDbLine
 10
-23.6235999999999997
 20
-45.3804000000000016
 30
0.0
 11
-23.670300000000001
 21
-45.3618999999999986
 31
0.0
  0
LINE
  5
15B
100
AcDbEntity
  8
0
 62
256
370
-1
 48
1.0
  6
BYLAYER
100
AcDbLine
 10
-23.670300000000001
 20
-45.3618999999999986
 30
0.0
 11
-23.7143000000000015
 21
-45.3376999999999981
 31
0.0
  0
LINE
  5
15C
100
AcDbEntity
  8
0
 62
256
370
-1
 48
1.0
  6
BYLAYER
100
AcDbLine
 10
-23.7143000000000015
 20
-45.3376999999999981
 30
0.0
 11
-23.754999999999999
 21
-45.3081999999999994
 31
0.0
  0
LINE
  5
15D
100
AcDbEntity
  8
0
 62
256
370
-1
 48
1.0
  6
BYLAYER
100
AcDbLine
 10
-23.754999999999999
 20
-45.3081999999999994
 30
0.0
 11
-23.791599999999999
 21
-45.2738000000000014
 31
0.0
  0
LINE
  5
15E
100
AcDbEntity
  8
0
 62
256
370
-1
 48
1.0
  6
BYLAYER
100
AcDbLine
 10
-23.791599999999999
 20
-45.2738000000000014
 30
0.0
 11
-23.823599999999999
 21
-45.2351000000000028
 31
0.0
  0
LINE
  5
15F
100
AcDbEntity
  8
0
 62
256
370
-1
 48
1.0
  6
BYLAYER
100
AcDbLine
 10
-23.823599999999999
 20
-45.2351000000000028
 30
0.0
 11
-23.8505000000000003
 21
-45.1927000000000021
 31
0.0
  0
LINE
  5
160
100
AcDbEntity
  8
0
 62
256
370
-1
 48
1.0
  6
BYLAYER
100
AcDbLine
 10
-23.8505000000000003
 20
-45.1927000000000021
 30
0.0
 11
-23.8719000000000001
 21
-45.147199999999998
 31
0.0
  0
LINE
  5
161
100
AcDbEntity
  8
0
 62
256
370
-1
 48
1.0
  6
BYLAYER
100
AcDbLine
 10
-23.8719000000000001
 20
-45.147199999999998
 30
0.0
 11
-23.8873999999999995
 21
-45.099499999999999
 31
0.0
  0
LINE
  5
162
100
AcDbEntity
  8
0
 62
256
370
-1
 48
1.0
  6
BYLAYER
100
AcDbLine
 10
-23.8873999999999995
 20
-45.099499999999999
 30
0.0
 11
-23.8967999999999989
 21
-45.0501000000000005
 31
0.0
  0
LINE
  5
163
100
AcDbEntity
  8
0
 62
256
370
-1
 48
1.0
  6
BYLAYER
100
AcDbLine
 10
-23.8967999999999989
 20
-45.0501000000000005
 30
0.0
 11
-23.8999999999999986
 21
-45.0
 31
0.0
  0
LINE
  5
164
100
AcDbEntity
  8
0
 62
256
370
-1
 48
1.0
  6
BYLAYER
100
AcDbLine
 10
-23.8999999999999986
 20
-45.0
 30
0.0
 11
-23.8967999999999989
 21
-44.9498999999999995
 31
0.0
  0
LINE
  5
165
100
AcDbEntity
  8
0
 62
256
370
-1
 48
1.0
  6
BYLAYER
100
AcDbLine
 10
-23.8967999999999989
 20
-44.9498999999999995
 30
0.0
 11
-23.8873999999999995
 21
-44.900500000000001
 31
0.0
  0
LINE
  5
166
100
AcDbEntity
  8
0
 62
256
370
-1
 48
1.0
  6
BYLAYER
100
AcDbLine
 10
-23.8873999999999995
 20
-44.900500000000001
 30
0.0
 11
-23.8719000000000001
 21
-44.852800000000002
 31
0.0
  0
LINE
  5
167
100
AcDbEntity
  8
0
 62
256
370
-1
 48
1.0
  6
BYLAYER
100
AcDbLine
 10
-23.8719000000000001
 20
-44.852800000000002
 30
0.0
 11
-23.8505000000000003
 21
-44.8072999999999979
 31
0.0
  0
LINE
  5
168
100
AcDbEntity
  8
0
 62
256
370
-1
 48
1.0
  6
BYLAYER
100
AcDbLine
 10
-23.8505000000000003
 20
-44.8072999999999979
 30
0.0
 11
-23.823599999999999
 21
-44.7648999999999972
 31
0.0
  0
LINE
  5
169
100
AcDbEntity
  8
0
 62
256
370
-1
 48
1.0
  6
BYLAYER
100
AcDbLine
 10
-23.823599999999999
 20
-44.7648999999999972
 30
0.0
 11
-23.791599999999999
 21
-44.7261999999999986
 31
0.0
  0
LINE
  5
16A
100
AcDbEntity
  8
0
 62
256
370
-1
 48
1.0
  6
BYLAYER
100
AcDbLine
 10
-23.791599999999999
 20
-44.7261999999999986
 30
0.0
 11
-23.754999999999999
 21
-44.6918000000000006
 31
0.0
  0
LINE
  5
16B
100
AcDbEntity
  8
0
 62
256
370
-1
 48
1.0
  6
BYLAYER
100
AcDbLine
 10
-23.754999999999999
 20
-44.6918000000000006
 30
0.0
 11
-23.7143000000000015
 21
-44.6623000000000019
 31
0.0
  0
LINE
  5
16C
100
AcDbEntity
  8
0
 62
256
370
-1
 48
1.0
  6
BYLAYER
100
AcDbLine
 10
-23.7143000000000015
 20
-44.6623000000000019
 30
0.0
 11
-23.670300000000001
 21
-44.6381000000000014
 31
0.0
  0
LINE
  5
16D
100
AcDbEntity
  8
0
 62
256
370
-1
 48
1.0
  6
BYLAYER
100
AcDbLine
 10
-23.670300000000001
 20
-44.6381000000000014
 30
0.0
 11
-23.6235999999999997
 21
-44.6195999999999984
 31
0.0
  0
LINE
  5
16E
100
AcDbEntity
  8
0
 62
256
370
-1
 48
1.0
  6
BYLAYER
100
AcDbLine
 10
-23.6235999999999997
 20
-44.6195999999999984
 30
0.0
 11
-23.5749999999999993
 21
-44.6071000000000026
 31
0.0
  0
LINE
  5
16F
100
AcDbEntity
  8
0
 62
256
370
-1
 48
1.0
  6
BYLAYER
100
AcDbLine
 10
-23.5749999999999993
 20
-44.6071000000000026
 30
0.0
 11
-23.5250999999999983
 21
-44.6007999999999996
 31
0.0
  0
LINE
  5
170
100
AcDbEntity
  8
0
 62
256
370
-1
 48
1.0
  6
BYLAYER
100
AcDbLine
 10
-23.5250999999999983
 20
-44.6007999999999996
 30
0.0
 11
23.5250999999999983
 21
-44.6007999999999996
 31
0.0
  0
LINE
  5
171
100
AcDbEntity
  8
0
 62
256
370
-1
 48
1.0
  6
BYLAYER
100
AcDbLine
 10
23.5250999999999983
 20
-44.6007999999999996
 30
0.0
 11
23.5749999999999993
 21
-44.6071000000000026
 31
0.0
  0
LINE
  5
172
100
AcDbEntity
  8
0
 62
256
370
-1
 48
1.0
  6
BYLAYER
100
AcDbLine
 10
23.5749999999999993
 20
-44.6071000000000026
 30
0.0
 11
23.6235999999999997
 21
-44.6195999999999984
 31
0.0
  0
LINE
  5
173
100
AcDbEntity
  8
0
 62
256
370
-1
 48
1.0
  6
BYLAYER
100
AcDbLine
 10
23.6235999999999997
 20
-44.6195999999999984
 30
0.0
 11
23.670300000000001
 21
-44.6381000000000014
 31
0.0
  0
LINE
  5
174
100
AcDbEntity
  8
0
 62
256
370
-1
 48
1.0
  6
BYLAYER
100
AcDbLine
 10
23.670300000000001
 20
-44.6381000000000014
 30
0.0
 11
23.7143000000000015
 21
-44.6623000000000019
 31
0.0
  0
LINE
  5
175
100
AcDbEntity
  8
0
 62
256
370
-1
 48
1.0
  6
BYLAYER
100
AcDbLine
 10
23.7143000000000015
 20
-44.6623000000000019
 30
0.0
 11
23.754999999999999
 21
-44.6918000000000006
 31
0.0
  0
LINE
  5
176
100
AcDbEntity
  8
0
 62
256
370
-1
 48
1.0
  6
BYLAYER
100
AcDbLine
 10
23.754999999999999
 20
-44.6918000000000006
 30
0.0
 11
23.791599999999999
 21
-44.7261999999999986
 31
0.0
  0
LINE
  5
177
100
AcDbEntity
  8
0
 62
256
370
-1
 48
1.0
  6
BYLAYER
100
AcDbLine
 10
23.791599999999999
 20
-44.7261999999999986
 30
0.0
 11
23.823599999999999
 21
-44.7648999999999972
 31
0.0
  0
LINE
  5
178
100
AcDbEntity
  8
0
 62
256
370
-1
 48
1.0
  6
BYLAYER
100
AcDbLine
 10
23.823599999999999
 20
-44.7648999999999972
 30
0.0
 11
23.8505000000000003
 21
-44.8072999999999979
 31
0.0
  0
LINE
  5
179
100
AcDbEntity
  8
0
 62
256
370
-1
 48
1.0
  6
BYLAYER
100
AcDbLine
 10
23.8505000000000003
 20
-44.8072999999999979
 30
0.0
 11
23.8719000000000001
 21
-44.852800000000002
 31
0.0
  0
LINE
  5
17A
100
AcDbEntity
  8
0
 62
256
370
-1
 48
1.0
  6
BYLAYER
100
AcDbLine
 10
23.8719000000000001
 20
-44.852800000000002
 30
0.0
 11
23.8873999999999995
 21
-44.900500000000001
 31
0.0
  0
LINE
  5
17B
100
AcDbEntity
  8
0
 62
256
370
-1
 48
1.0
  6
BYLAYER
100
AcDbLine
 10
23.8873999999999995
 20
-44.900500000000001
 30
0.0
 11
23.8967999999999989
 21
-44.9498999999999995
 31
0.0
  0
LINE
  5
17C
100
AcDbEntity
  8
0
 62
256
370
-1
 48
1.0
  6
BYLAYER
100
AcDbLine
 10
23.8967999999999989
 20
-44.9498999999999995
 30
0.0
 11
23.8999999999999986
 21
-45.0
 31
0.0
  0
LINE
  5
17D
100
AcDbEntity
  8
0
 62
256
370
-1
 48
1.0
  6
BYLAYER
100
AcDbLine
 10
23.8999999999999986
 20
-45.0
 30
0.0
 11
23.8967999999999989
 21
-45.0501000000000005
 31
0.0
  0
LINE
  5
17E
100
AcDbEntity
  8
0
 62
256
370
-1
 48
1.0
  6
BYLAYER
100
AcDbLine
 10
23.8967999999999989
 20
-45.0501000000000005
 30
0.0
 11
23.8873999999999995
 21
-45.099499999999999
 31
0.0
  0
LINE
  5
17F
100
AcDbEntity
  8
0
 62
256
370
-1
 48
1.0
  6
BYLAYER
100
AcDbLine
 10
23.8873999999999995
 20
-45.099499999999999
 30
0.0
 11
23.8719000000000001
 21
-45.147199999999998
 31
0.0
  0
LINE
  5
180
100
AcDbEntity
  8
0
 62
256
370
-1
 48
1.0
  6
BYLAYER
100
AcDbLine
 10
23.8719000000000001
 20
-45.147199999999998
 30
0.0
 11
23.8505000000000003
 21
-45.1927000000000021
 31
0.0
  0
LINE
  5
181
100
AcDbEntity
  8
0
 62
256
370
-1
 48
1.0
  6
BYLAYER
100
AcDbLine
 10
23.8505000000000003
 20
-45.1927000000000021
 30
0.0
 11
23.823599999999999
 21
-45.2351000000000028
 31
0.0
  0
LINE
  5
182
100
AcDbEntity
  8
0
 62
256
370
-1
 48
1.0
  6
BYLAYER
100
AcDbLine
 10
23.823599999999999
 20
-45.2351000000000028
 30
0.0
 11
23.791599999999999
 21
-45.2738000000000014
 31
0.0
  0
LINE
  5
183
100
AcDbEntity
  8
0
 62
256
370
-1
 48
1.0
  6
BYLAYER
100
AcDbLine
 10
23.791599999999999
 20
-45.2738000000000014
 30
0.0
 11
23.754999999999999
 21
-45.3081999999999994
 31
0.0
  0
LINE
  5
184
100
AcDbEntity
  8
0
 62
256
370
-1
 48
1.0
  6
BYLAYER
100
AcDbLine
 10
23.754999999999999
 20
-45.3081999999999994
 30
0.0
 11
23.7143000000000015
 21
-45.3376999999999981
 31
0.0
  0
LINE
  5
185
100
AcDbEntity
  8
0
 62
256
370
-1
 48
1.0
  6
BYLAYER
100
AcDbLine
 10
23.7143000000000015
 20
-45.3376999999999981
 30
0.0
 11
23.670300000000001
 21
-45.3618999999999986
 31
0.0
  0
LINE
  5
186
100
AcDbEntity
  8
0
 62
256
370
-1
 48
1.0
  6
BYLAYER
100
AcDbLine
 10
23.670300000000001
 20
-45.3618999999999986
 30
0.0
 11
23.6235999999999997
 21
-45.3804000000000016
 31
0.0
  0
LINE
  5
187
100
AcDbEntity
  8
0
 62
256
370
-1
 48
1.0
  6
BYLAYER
100
AcDbLine
 10
23.6235999999999997
 20
-45.3804000000000016
 30
0.0
 11
23.5749999999999993
 21
-45.3928999999999974
 31
0.0
  0
LINE
  5
188
100
AcDbEntity
  8
0
 62
256
370
-1
 48
1.0
  6
BYLAYER
100
AcDbLine
 10
23.5749999999999993
 20
-45.3928999999999974
 30
0.0
 11
23.5250999999999983
 21
-45.3992000000000004
 31
0.0
  0
LINE
  5
189
100
AcDbEntity
  8
0
 62
256
370
-1
 48
1.0
  6
BYLAYER
100
AcDbLine
 10
23.5942000000000007
 20
-51.4969999999999999
 30
0.0
 11
23.6879999999999988
 21
-51.4881999999999991
 31
0.0
  0
LINE
  5
18A
100
AcDbEntity
  8
0
 62
256
370
-1
 48
1.0
  6
BYLAYER
100
AcDbLine
 10
23.6879999999999988
 20
-51.4881999999999991
 30
0.0
 11
23.7810999999999986
 21
-51.473399999999998
 31
0.0
  0
LINE
  5
18B
100
AcDbEntity
  8
0
 62
256
370
-1
 48
1.0
  6
BYLAYER
100
AcDbLine
 10
23.7810999999999986
 20
-51.473399999999998
 30
0.0
 11
23.8730000000000011
 21
-51.4528999999999996
 31
0.0
  0
LINE
  5
18C
100
AcDbEntity
  8
0
 62
256
370
-1
 48
1.0
  6
BYLAYER
100
AcDbLine
 10
23.8730000000000011
 20
-51.4528999999999996
 30
0.0
 11
23.9634999999999998
 21
-51.4266000000000005
 31
0.0
  0
LINE
  5
18D
100
AcDbEntity
  8
0
 62
256
370
-1
 48
1.0
  6
BYLAYER
100
AcDbLine
 10
23.9634999999999998
 20
-51.4266000000000005
 30
0.0
 11
24.0521999999999991
 21
-51.3947000000000003
 31
0.0
  0
LINE
  5
18E
100
AcDbEntity
  8
0
 62
256
370
-1
 48
1.0
  6
BYLAYER
100
AcDbLine
 10
24.0521999999999991
 20
-51.3947000000000003
 30
0.0
 11
24.1387
 21
-51.3571999999999989
 31
0.0
  0
LINE
  5
18F
100
AcDbEntity
  8
0
 62
256
370
-1
 48
1.0
  6
BYLAYER
100
AcDbLine
 10
24.1387
 20
-51.3571999999999989
 30
0.0
 11
24.2225999999999999
 21
-51.3145000000000024
 31
0.0
  0
LINE
  5
190
100
AcDbEntity
  8
0
 62
256
370
-1
 48
1.0
  6
BYLAYER
100
AcDbLine
 10
24.2225999999999999
 20
-51.3145000000000024
 30
0.0
 11
24.3036999999999992
 21
-51.2665000000000006
 31
0.0
  0
LINE
  5
191
100
AcDbEntity
  8
0
 62
256
370
-1
 48
1.0
  6
BYLAYER
100
AcDbLine
 10
24.3036999999999992
 20
-51.2665000000000006
 30
0.0
 11
24.3816999999999986
 21
-51.2135000000000034
 31
0.0
  0
LINE
  5
192
100
AcDbEntity
  8
0
 62
256
370
-1
 48
1.0
  6
BYLAYER
100
AcDbLine
 10
24.3816999999999986
 20
-51.2135000000000034
 30
0.0
 11
24.4560999999999993
 21
-51.1557999999999993
 31
0.0
  0
LINE
  5
193
100
AcDbEntity
  8
0
 62
256
370
-1
 48
1.0
  6
BYLAYER
100
AcDbLine
 10
24.4560999999999993
 20
-51.1557999999999993
 30
0.0
 11
24.5268000000000015
 21
-51.0934000000000026
 31
0.0
  0
LINE
  5
194
100
AcDbEntity
  8
0
 62
256
370
-1
 48
1.0
  6
BYLAYER
100
AcDbLine
 10
24.5268000000000015
 20
-51.0934000000000026
 30
0.0
 11
24.593399999999999
 21
-51.0268000000000015
 31
0.0
  0
LINE
  5
195
100
AcDbEntity
  8
0
 62
256
370
-1
 48
1.0
  6
BYLAYER
100
AcDbLine
 10
24.593399999999999
 20
-51.0268000000000015
 30
0.0
 11
24.6557999999999993
 21
-50.9560999999999993
 31
0.0
  0
LINE
  5
196
100
AcDbEntity
  8
0
 62
256
370
-1
 48
1.0
  6
BYLAYER
100
AcDbLine
 10
24.6557999999999993
 20
-50.9560999999999993
 30
0.0
 11
24.7134999999999998
 21
-50.8817000000000021
 31
0.0
  0
LINE
  5
197
100
AcDbEntity
  8
0
 62
256
370
-1
 48
1.0
  6
BYLAYER
100
AcDbLine
 10
24.7134999999999998
 20
-50.8817000000000021
 30
0.0
 11
24.7665000000000006
 21
-50.8036999999999992
 31
0.0
  0
LINE
  5
198
100
AcDbEntity
  8
0
 62
256
370
-1
 48
1.0
  6
BYLAYER
100
AcDbLine
 10
24.7665000000000006
 20
-50.8036999999999992
 30
0.0
 11
24.8144999999999989
 21
-50.7225999999999999
 31
0.0
  0
LINE
  5
199
100
AcDbEntity
  8
0
 62
256
370
-1
 48
1.0
  6
BYLAYER
100
AcDbLine
 10
24.8144999999999989
 20
-50.7225999999999999
 30
0.0
 11
24.8571999999999989
 21
-50.6387
 31
0.0
  0
LINE
  5
19A
100
AcDbEntity
  8
0
 62
256
370
-1
 48
1.0
  6
BYLAYER
100
AcDbLine
 10
24.8571999999999989
 20
-50.6387
 30
0.0
 11
24.8947000000000003
 21
-50.5521999999999991
 31
0.0
  0
LINE
  5
19B
100
AcDbEntity
  8
0
 62
256
370
-1
 48
1.0
  6
BYLAYER
100
AcDbLine
 10
24.8947000000000003
 20
-50.5521999999999991
 30
0.0
 11
24.9266000000000005
 21
-50.4635000000000034
 31
0.0
  0
LINE
  5
19C
100
AcDbEntity
  8
0
 62
256
370
-1
 48
1.0
  6
BYLAYER
100
AcDbLine
 10
24.9266000000000005
 20
-50.4635000000000034
 30
0.0
 11
24.9528999999999996
 21
-50.3729999999999976
 31
0.0
  0
LINE
  5
19D
100
AcDbEntity
  8
0
 62
256
370
-1
 48
1.0
  6
BYLAYER
100
AcDbLine
 10
24.9528999999999996
 20
-50.3729999999999976
 30
0.0
 11
24.9734000000000016
 21
-50.2811000000000021
 31
0.0
  0
LINE
  5
19E
100
AcDbEntity
  8
0
 62
256
370
-1
 48
1.0
  6
BYLAYER
100
AcDbLine
 10
24.9734000000000016
 20
-50.2811000000000021
 30
0.0
 11
24.9881999999999991
 21
-50.1880000000000024
 31
0.0
  0
LINE
  5
19F
100
AcDbEntity
  8
0
 62
256
370
-1
 48
1.0
  6
BYLAYER
100
AcDbLine
 10
24.9881999999999991
 20
-50.1880000000000024
 30
0.0
 11
24.9969999999999999
 21
-50.0942000000000007
 31
0.0
  0
LINE
  5
1A0
100
AcDbEntity
  8
0
 62
256
370
-1
 48
1.0
  6
BYLAYER
100
AcDbLine
 10
24.9969999999999999
 20
-50.0942000000000007
 30
0.0
 11
25.0
 21
-50.0
 31
0.0
  0
LINE
  5
1A1
100
AcDbEntity
  8
0
 62
256
370
-1
 48
1.0
  6
BYLAYER
100
AcDbLine
 10
25.0
 20
-50.0
 30
0.0
 11
24.9969999999999999
 21
-49.9057999999999993
 31
0.0
  0
LINE
  5
1A2
100
AcDbEntity
  8
0
 62
256
370
-1
 48
1.0
  6
BYLAYER
100
AcDbLine
 10
24.9969999999999999
 20
-49.9057999999999993
 30
0.0
 11
24.9881999999999991
 21
-49.8119999999999976
 31
0.0
  0
LINE
  5
1A3
100
AcDbEntity
  8
0
 62
256
370
-1
 48
1.0
  6
BYLAYER
100
AcDbLine
 10
24.9881999999999991
 20
-49.8119999999999976
 30
0.0
 11
24.9734000000000016
 21
-49.7188999999999979
 31
0.0
  0
LINE
  5
1A4
100
AcDbEntity
  8
0
 62
256
370
-1
 48
1.0
  6
BYLAYER
100
AcDbLine
 10
24.9734000000000016
 20
-49.7188999999999979
 30
0.0
 11
24.9528999999999996
 21
-49.6270000000000024
 31
0.0
  0
LINE
  5
1A5
100
AcDbEntity
  8
0
 62
256
370
-1
 48
1.0
  6
BYLAYER
100
AcDbLine
 10
24.9528999999999996
 20
-49.6270000000000024
 30
0.0
 11
24.9266000000000005
 21
-49.5364999999999966
 31
0.0
  0
LINE
  5
1A6
100
AcDbEntity
  8
0
 62
256
370
-1
 48
1.0
  6
BYLAYER
100
AcDbLine
 10
24.9266000000000005
 20
-49.5364999999999966
 30
0.0
 11
24.8947000000000003
 21
-49.4478000000000009
 31
0.0
  0
LINE
  5
1A7
100
AcDbEntity
  8
0
 62
256
370
-1
 48
1.0
  6
BYLAYER
100
AcDbLine
 10
24.8947000000000003
 20
-49.4478000000000009
 30
0.0
 11
24.8571999999999989
 21
-49.3613
 31
0.0
  0
LINE
  5
1A8
100
AcDbEntity
  8
0
 62
256
370
-1
 48
1.0
  6
BYLAYER
100
AcDbLine
 10
24.8571999999999989
 20
-49.3613
 30
0.0
 11
24.8144999999999989
 21
-49.2774000000000001
 31
0.0
  0
LINE
  5
1A9
100
AcDbEntity
  8
0
 62
256
370
-1
 48
1.0
  6
BYLAYER
100
AcDbLine
 10
24.8144999999999989
 20
-49.2774000000000001
 30
0.0
 11
24.7665000000000006
 21
-49.1963000000000008
 31
0.0
  0
LINE
  5
1AA
100
AcDbEntity
  8
0
 62
256
370
-1
 48
1.0
  6
BYLAYER
100
AcDbLine
 10
24.7665000000000006
 20
-49.1963000000000008
 30
0.0
 11
24.7134999999999998
 21
-49.1182999999999979
 31
0.0
  0
LINE
  5
1AB
100
AcDbEntity
  8
0
 62
256
370
-1
 48
1.0
  6
BYLAYER
100
AcDbLine
 10
24.7134999999999998
 20
-49.1182999999999979
 30
0.0
 11
24.6557999999999993
 21
-49.0439000000000007
 31
0.0
  0
LINE
  5
1AC
100
AcDbEntity
  8
0
 62
256
370
-1
 48
1.0
  6
BYLAYER
100
AcDbLine
 10
24.6557999999999993
 20
-49.0439000000000007
 30
0.0
 11
24.593399999999999
 21
-48.9731999999999985
 31
0.0
  0
LINE
  5
1AD
100
AcDbEntity
  8
0
 62
256
370
-1
 48
1.0
  6
BYLAYER
100
AcDbLine
 10
24.593399999999999
 20
-48.9731999999999985
 30
0.0
 11
24.5268000000000015
 21
-48.9065000000000012
 31
0.0
  0
LINE
  5
1AE
100
AcDbEntity
  8
0
 62
256
370
-1
 48
1.0
  6
BYLAYER
100
AcDbLine
 10
24.5268000000000015
 20
-48.9065000000000012
 30
0.0
 11
24.4560999999999993
 21
-48.8442000000000007
 31
0.0
  0
LINE
  5
1AF
100
AcDbEntity
  8
0
 62
256
370
-1
 48
1.0
  6
BYLAYER
100
AcDbLine
 10
24.4560999999999993
 20
-48.8442000000000007
 30
0.0
 11
24.3816999999999986
 21
-48.7864999999999966
 31
0.0
  0
LINE
  5
1B0
100
AcDbEntity
  8
0
 62
256
370
-1
 48
1.0
  6
BYLAYER
100
AcDbLine
 10
24.3816999999999986
 20
-48.7864999999999966
 30
0.0
 11
24.3036999999999992
 21
-48.7334999999999994
 31
0.0
  0
LINE
  5
1B1
100
AcDbEntity
  8
0
 62
256
370
-1
 48
1.0
  6
BYLAYER
100
AcDbLine
 10
24.3036999999999992
 20
-48.7334999999999994
 30
0.0
 11
24.2225999999999999
 21
-48.6854999999999976
 31
0.0
  0
LINE
  5
1B2
100
AcDbEntity
  8
0
 62
256
370
-1
 48
1.0
  6
BYLAYER
100
AcDbLine
 10
24.2225999999999999
 20
-48.6854999999999976
 30
0.0
 11
24.1387
 21
-48.6428000000000011
 31
0.0
  0
LINE
  5
1B3
100
AcDbEntity
  8
0
 62
256
370
-1
 48
1.0
  6
BYLAYER
100
AcDbLine
 10
24.1387
 20
-48.6428000000000011
 30
0.0
 11
24.0521999999999991
 21
-48.6052999999999997
 31
0.0
  0
LINE
  5
1B4
100
AcDbEntity
  8
0
 62
256
370
-1
 48
1.0
  6
BYLAYER
100
AcDbLine
 10
24.0521999999999991
 20
-48.6052999999999997
 30
0.0
 11
23.9634999999999998
 21
-48.5733999999999995
 31
0.0
  0
LINE
  5
1B5
100
AcDbEntity
  8
0
 62
256
370
-1
 48
1.0
  6
BYLAYER
100
AcDbLine
 10
23.9634999999999998
 20
-48.5733999999999995
 30
0.0
 11
23.8730000000000011
 21
-48.5471000000000004
 31
0.0
  0
LINE
  5
1B6
100
AcDbEntity
  8
0
 62
256
370
-1
 48
1.0
  6
BYLAYER
100
AcDbLine
 10
23.8730000000000011
 20
-48.5471000000000004
 30
0.0
 11
23.7810999999999986
 21
-48.526600000000002
 31
0.0
  0
LINE
  5
1B7
100
AcDbEntity
  8
0
 62
256
370
-1
 48
1.0
  6
BYLAYER
100
AcDbLine
 10
23.7810999999999986
 20
-48.526600000000002
 30
0.0
 11
23.6879999999999988
 21
-48.5118000000000009
 31
0.0
  0
LINE
  5
1B8
100
AcDbEntity
  8
0
 62
256
370
-1
 48
1.0
  6
BYLAYER
100
AcDbLine
 10
23.6879999999999988
 20
-48.5118000000000009
 30
0.0
 11
23.5942000000000007
 21
-48.5030000000000001
 31
0.0
  0
LINE
  5
1B9
100
AcDbEntity
  8
0
 62
256
370
-1
 48
1.0
  6
BYLAYER
100
AcDbLine
 10
23.5942000000000007
 20
-48.5030000000000001
 30
0.0
 11
23.5
 21
-48.5
 31
0.0
  0
LINE
  5
1BA
100
AcDbEntity
  8
0
 62
256
370
-1
 48
1.0
  6
BYLAYER
100
AcDbLine
 10
23.5
 20
-48.5
 30
0.0
 11
-23.5
 21
-48.5
 31
0.0
  0
LINE
  5
1BB
100
AcDbEntity
  8
0
 62
256
370
-1
 48
1.0
  6
BYLAYER
100
AcDbLine
 10
-23.5
 20
-48.5
 30
0.0
 11
-23.5942000000000007
 21
-48.5030000000000001
 31
0.0
  0
LINE
  5
1BC
100
AcDbEntity
  8
0
 62
256
370
-1
 48
1.0
  6
BYLAYER
100
AcDbLine
 10
-23.5942000000000007
 20
-48.5030000000000001
 30
0.0
 11
-23.6879999999999988
 21
-48.5118000000000009
 31
0.0
  0
LINE
  5
1BD
100
AcDbEntity
  8
0
 62
256
370
-1
 48
1.0
  6
BYLAYER
100
AcDbLine
 10
-23.6879999999999988
 20
-48.5118000000000009
 30
0.0
 11
-23.7810999999999986
 21
-48.526600000000002
 31
0.0
  0
LINE
  5
1BE
100
AcDbEntity
  8
0
 62
256
370
-1
 48
1.0
  6
BYLAYER
100
AcDbLine
 10
-23.7810999999999986
 20
-48.526600000000002
 30
0.0
 11
-23.8730000000000011
 21
-48.5471000000000004
 31
0.0
  0
LINE
  5
1BF
100
AcDbEntity
  8
0
 62
256
370
-1
 48
1.0
  6
BYLAYER
100
AcDbLine
 10
-23.8730000000000011
 20
-48.5471000000000004
 30
0.0
 11
-23.9634999999999998
 21
-48.5733999999999995
 31
0.0
  0
LINE
  5
1C0
100
AcDbEntity
  8
0
 62
256
370
-1
 48
1.0
  6
BYLAYER
100
AcDbLine
 10
-23.9634999999999998
 20
-48.5733999999999995
 30
0.0
 11
-24.0521999999999991
 21
-48.6052999999999997
 31
0.0
  0
LINE
  5
1C1
100
AcDbEntity
  8
0
 62
256
370
-1
 48
1.0
  6
BYLAYER
100
AcDbLine
 10
-24.0521999999999991
 20
-48.6052999999999997
 30
0.0
 11
-24.1387
 21
-48.6428000000000011
 31
0.0
  0
LINE
  5
1C2
100
AcDbEntity
  8
0
 62
256
370
-1
 48
1.0
  6
BYLAYER
100
AcDbLine
 10
-24.1387
 20
-48.6428000000000011
 30
0.0
 11
-24.2225999999999999
 21
-48.6854999999999976
 31
0.0
  0
LINE
  5
1C3
100
AcDbEntity
  8
0
 62
256
370
-1
 48
1.0
  6
BYLAYER
100
AcDbLine
 10
-24.2225999999999999
 20
-48.6854999999999976
 30
0.0
 11
-24.3036999999999992
 21
-48.7334999999999994
 31
0.0
  0
LINE
  5
1C4
100
AcDbEntity
  8
0
 62
256
370
-1
 48
1.0
  6
BYLAYER
100
AcDbLine
 10
-24.3036999999999992
 20
-48.7334999999999994
 30
0.0
 11
-24.3816999999999986
 21
-48.7864999999999966
 31
0.0
  0
LINE
  5
1C5
100
AcDbEntity
  8
0
 62
256
370
-1
 48
1.0
  6
BYLAYER
100
AcDbLine
 10
-24.3816999999999986
 20
-48.7864999999999966
 30
0.0
 11
-24.4560999999999993
 21
-48.8442000000000007
 31
0.0
  0
LINE
  5
1C6
100
AcDbEntity
  8
0
 62
256
370
-1
 48
1.0
  6
BYLAYER
100
AcDbLine
 10
-24.4560999999999993
 20
-48.8442000000000007
 30
0.0
 11
-24.5268000000000015
 21
-48.9065000000000012
 31
0.0
  0
LINE
  5
1C7
100
AcDbEntity
  8
0
 62
256
370
-1
 48
1.0
  6
BYLAYER
100
AcDbLine
 10
-24.5268000000000015
 20
-48.9065000000000012
 30
0.0
 11
-24.593399999999999
 21
-48.9731999999999985
 31
0.0
  0
LINE
  5
1C8
100
AcDbEntity
  8
0
 62
256
370
-1
 48
1.0
  6
BYLAYER
100
AcDbLine
 10
-24.593399999999999
 20
-48.9731999999999985
 30
0.0
 11
-24.6557999999999993
 21
-49.0439000000000007
 31
0.0
  0
LINE
  5
1C9
100
AcDbEntity
  8
0
 62
256
370
-1
 48
1.0
  6
BYLAYER
100
AcDbLine
 10
-24.6557999999999993
 20
-49.0439000000000007
 30
0.0
 11
-24.7134999999999998
 21
-49.1182999999999979
 31
0.0
  0
LINE
  5
1CA
100
AcDbEntity
  8
0
 62
256
370
-1
 48
1.0
  6
BYLAYER
100
AcDbLine
 10
-24.7134999999999998
 20
-49.1182999999999979
 30
0.0
 11
-24.7665000000000006
 21
-49.1963000000000008
 31
0.0
  0
LINE
  5
1CB
100
AcDbEntity
  8
0
 62
256
370
-1
 48
1.0
  6
BYLAYER
100
AcDbLine
 10
-24.7665000000000006
 20
-49.1963000000000008
 30
0.0
 11
-24.8144999999999989
 21
-49.2774000000000001
 31
0.0
  0
LINE
  5
1CC
100
AcDbEntity
  8
0
 62
256
370
-1
 48
1.0
  6
BYLAYER
100
AcDbLine
 10
-24.8144999999999989
 20
-49.2774000000000001
 30
0.0
 11
-24.8571999999999989
 21
-49.3613
 31
0.0
  0
LINE
  5
1CD
100
AcDbEntity
  8
0
 62
256
370
-1
 48
1.0
  6
BYLAYER
100
AcDbLine
 10
-24.8571999999999989
 20
-49.3613
 30
0.0
 11
-24.8947000000000003
 21
-49.4478000000000009
 31
0.0
  0
LINE
  5
1CE
100
AcDbEntity
  8
0
 62
256
370
-1
 48
1.0
  6
BYLAYER
100
AcDbLine
 10
-24.8947000000000003
 20
-49.4478000000000009
 30
0.0
 11
-24.9266000000000005
 21
-49.5364999999999966
 31
0.0
  0
LINE
  5
1CF
100
AcDbEntity
  8
0
 62
256
370
-1
 48
1.0
  6
BYLAYER
100
AcDbLine
 10
-24.9266000000000005
 20
-49.5364999999999966
 30
0.0
 11
-24.9528999999999996
 21
-49.6270000000000024
 31
0.0
  0
LINE
  5
1D0
100
AcDbEntity
  8
0
 62
256
370
-1
 48
1.0
  6
BYLAYER
100
AcDbLine
 10
-24.9528999999999996
 20
-49.6270000000000024
 30
0.0
 11
-24.9734000000000016
 21
-49.7188999999999979
 31
0.0
  0
LINE
  5
1D1
100
AcDbEntity
  8
0
 62
256
370
-1
 48
1.0
  6
BYLAYER
100
AcDbLine
 10
-24.9734000000000016
 20
-49.7188999999999979
 30
0.0
 11
-24.9881999999999991
 21
-49.8119999999999976
 31
0.0
  0
LINE
  5
1D2
100
AcDbEntity
  8
0
 62
256
370
-1
 48
1.0
  6
BYLAYER
100
AcDbLine
 10
-24.9881999999999991
 20
-49.8119999999999976
 30
0.0
 11
-24.9969999999999999
 21
-49.9057999999999993
 31
0.0
  0
LINE
  5
1D3
100
AcDbEntity
  8
0
 62
256
370
-1
 48
1.0
  6
BYLAYER
100
AcDbLine
 10
-24.9969999999999999
 20
-49.9057999999999993
 30
0.0
 11
-25.0
 21
-50.0
 31
0.0
  0
LINE
  5
1D4
100
AcDbEntity
  8
0
 62
256
370
-1
 48
1.0
  6
BYLAYER
100
AcDbLine
 10
-25.0
 20
-50.0
 30
0.0
 11
-24.9969999999999999
 21
-50.0942000000000007
 31
0.0
  0
LINE
  5
1D5
100
AcDbEntity
  8
0
 62
256
370
-1
 48
1.0
  6
BYLAYER
100
AcDbLine
 10
-24.9969999999999999
 20
-50.0942000000000007
 30
0.0
 11
-24.9881999999999991
 21
-50.1880000000000024
 31
0.0
  0
LINE
  5
1D6
100
AcDbEntity
  8
0
 62
256
370
-1
 48
1.0
  6
BYLAYER
100
AcDbLine
 10
-24.9881999999999991
 20
-50.1880000000000024
 30
0.0
 11
-24.9734000000000016
 21
-50.2811000000000021
 31
0.0
  0
LINE
  5
1D7
100
AcDbEntity
  8
0
 62
256
370
-1
 48
1.0
  6
BYLAYER
100
AcDbLine
 10
-24.9734000000000016
 20
-50.2811000000000021
 30
0.0
 11
-24.9528999999999996
 21
-50.3729999999999976
 31
0.0
  0
LINE
  5
1D8
100
AcDbEntity
  8
0
 62
256
370
-1
 48
1.0
  6
BYLAYER
100
AcDbLine
 10
-24.9528999999999996
 20
-50.3729999999999976
 30
0.0
 11
-24.9266000000000005
 21
-50.4635000000000034
 31
0.0
  0
LINE
  5
1D9
100
AcDbEntity
  8
0
 62
256
370
-1
 48
1.0
  6
BYLAYER
100
AcDbLine
 10
-24.9266000000000005
 20
-50.4635000000000034
 30
0.0
 11
-24.8947000000000003
 21
-50.5521999999999991
 31
0.0
  0
LINE
  5
1DA
100
AcDbEntity
  8
0
 62
256
370
-1
 48
1.0
  6
BYLAYER
100
AcDbLine
 10
-24.8947000000000003
 20
-50.5521999999999991
 30
0.0
 11
-24.8571999999999989
 21
-50.6387
 31
0.0
  0
LINE
  5
1DB
100
AcDbEntity
  8
0
 62
256
370
-1
 48
1.0
  6
BYLAYER
100
AcDbLine
 10
-24.8571999999999989
 20
-50.6387
 30
0.0
 11
-24.8144999999999989
 21
-50.7225999999999999
 31
0.0
  0
LINE
  5
1DC
100
AcDbEntity
  8
0
 62
256
370
-1
 48
1.0
  6
BYLAYER
100
AcDbLine
 10
-24.8144999999999989
 20
-50.7225999999999999
 30
0.0
 11
-24.7665000000000006
 21
-50.8036999999999992
 31
0.0
  0
LINE
  5
1DD
100
AcDbEntity
  8
0
 62
256
370
-1
 48
1.0
  6
BYLAYER
100
AcDbLine
 10
-24.7665000000000006
 20
-50.8036999999999992
 30
0.0
 11
-24.7134999999999998
 21
-50.8817000000000021
 31
0.0
  0
LINE
  5
1DE
100
AcDbEntity
  8
0
 62
256
370
-1
 48
1.0
  6
BYLAYER
100
AcDbLine
 10
-24.7134999999999998
 20
-50.8817000000000021
 30
0.0
 11
-24.6557999999999993
 21
-50.9560999999999993
 31
0.0
  0
LINE
  5
1DF
100
AcDbEntity
  8
0
 62
256
370
-1
 48
1.0
  6
BYLAYER
100
AcDbLine
 10
-24.6557999999999993
 20
-50.9560999999999993
 30
0.0
 11
-24.593399999999999
 21
-51.0268000000000015
 31
0.0
  0
LINE
  5
1E0
100
AcDbEntity
  8
0
 62
256
370
-1
 48
1.0
  6
BYLAYER
100
AcDbLine
 10
-24.593399999999999
 20
-51.0268000000000015
 30
0.0
 11
-24.5268000000000015
 21
-51.0934000000000026
 31
0.0
  0
LINE
  5
1E1
100
AcDbEntity
  8
0
 62
256
370
-1
 48
1.0
  6
BYLAYER
100
AcDbLine
 10
-24.5268000000000015
 20
-51.0934000000000026
 30
0.0
 11
-24.4560999999999993
 21
-51.1557999999999993
 31
0.0
  0
LINE
  5
1E2
100
AcDbEntity
  8
0
 62
256
370
-1
 48
1.0
  6
BYLAYER
100
AcDbLine
 10
-24.4560999999999993
 20
-51.1557999999999993
 30
0.0
 11
-24.3816999999999986
 21
-51.2135000000000034
 31
0.0
  0
LINE
  5
1E3
100
AcDbEntity
  8
0
 62
256
370
-1
 48
1.0
  6
BYLAYER
100
AcDbLine
 10
-24.3816999999999986
 20
-51.2135000000000034
 30
0.0
 11
-24.3036999999999992
 21
-51.2665000000000006
 31
0.0
  0
LINE
  5
1E4
100
AcDbEntity
  8
0
 62
256
370
-1
 48
1.0
  6
BYLAYER
100
AcDbLine
 10
-24.3036999999999992
 20
-51.2665000000000006
 30
0.0
 11
-24.2225999999999999
 21
-51.3145000000000024
 31
0.0
  0
LINE
  5
1E5
100
AcDbEntity
  8
0
 62
256
370
-1
 48
1.0
  6
BYLAYER
100
AcDbLine
 10
-24.2225999999999999
 20
-51.3145000000000024
 30
0.0
 11
-24.1387
 21
-51.3571999999999989
 31
0.0
  0
LINE
  5
1E6
100
AcDbEntity
  8
0
 62
256
370
-1
 48
1.0
  6
BYLAYER
100
AcDbLine
 10
-24.1387
 20
-51.3571999999999989
 30
0.0
 11
-24.0521999999999991
 21
-51.3947000000000003
 31
0.0
  0
LINE
  5
1E7
100
AcDbEntity
  8
0
 62
256
370
-1
 48
1.0
  6
BYLAYER
100
AcDbLine
 10
-24.0521999999999991
 20
-51.3947000000000003
 30
0.0
 11
-23.9634999999999998
 21
-51.4266000000000005
 31
0.0
  0
LINE
  5
1E8
100
AcDbEntity
  8
0
 62
256
370
-1
 48
1.0
  6
BYLAYER
100
AcDbLine
 10
-23.9634999999999998
 20
-51.4266000000000005
 30
0.0
 11
-23.8730000000000011
 21
-51.4528999999999996
 31
0.0
  0
LINE
  5
1E9
100
AcDbEntity
  8
0
 62
256
370
-1
 48
1.0
  6
BYLAYER
100
AcDbLine
 10
-23.8730000000000011
 20
-51.4528999999999996
 30
0.0
 11
-23.7810999999999986
 21
-51.473399999999998
 31
0.0
  0
LINE
  5
1EA
100
AcDbEntity
  8
0
 62
256
370
-1
 48
1.0
  6
BYLAYER
100
AcDbLine
 10
-23.7810999999999986
 20
-51.473399999999998
 30
0.0
 11
-23.6879999999999988
 21
-51.4881999999999991
 31
0.0
  0
LINE
  5
1EB
100
AcDbEntity
  8
0
 62
256
370
-1
 48
1.0
  6
BYLAYER
100
AcDbLine
 10
-23.6879999999999988
 20
-51.4881999999999991
 30
0.0
 11
-23.5942000000000007
 21
-51.4969999999999999
 31
0.0
  0
LINE
  5
1EC
100
AcDbEntity
  8
0
 62
256
370
-1
 48
1.0
  6
BYLAYER
100
AcDbLine
 10
-23.5942000000000007
 20
-51.4969999999999999
 30
0.0
 11
-23.5
 21
-51.5
 31
0.0
  0
LINE
  5
1ED
100
AcDbEntity
  8
0
 62
256
370
-1
 48
1.0
  6
BYLAYER
100
AcDbLine
 10
-23.5
 20
-51.5
 30
0.0
 11
23.5
 21
-51.5
 31
0.0
  0
LINE
  5
1EE
100
AcDbEntity
  8
0
 62
256
370
-1
 48
1.0
  6
BYLAYER
100
AcDbLine
 10
23.5
 20
-51.5
 30
0.0
 11
23.5942000000000007
 21
-51.4969999999999999
 31
0.0
  0
LINE
  5
1EF
100
AcDbEntity
  8
0
 62
256
370
-1
 48
1.0
  6
BYLAYER
100
AcDbLine
 10
23.5250999999999983
 20
-50.3992000000000004
 30
0.0
 11
-23.5250999999999983
 21
-50.3992000000000004
 31
0.0
  0
LINE
  5
1F0
100
AcDbEntity
  8
0
 62
256
370
-1
 48
1.0
  6
BYLAYER
100
AcDbLine
 10
-23.5250999999999983
 20
-50.3992000000000004
 30
0.0
 11
-23.5749999999999993
 21
-50.3928999999999974
 31
0.0
  0
LINE
  5
1F1
100
AcDbEntity
  8
0
 62
256
370
-1
 48
1.0
  6
BYLAYER
100
AcDbLine
 10
-23.5749999999999993
 20
-50.3928999999999974
 30
0.0
 11
-23.6235999999999997
 21
-50.3804000000000016
 31
0.0
  0
LINE
  5
1F2
100
AcDbEntity
  8
0
 62
256
370
-1
 48
1.0
  6
BYLAYER
100
AcDbLine
 10
-23.6235999999999997
 20
-50.3804000000000016
 30
0.0
 11
-23.670300000000001
 21
-50.3618999999999986
 31
0.0
  0
LINE
  5
1F3
100
AcDbEntity
  8
0
 62
256
370
-1
 48
1.0
  6
BYLAYER
100
AcDbLine
 10
-23.670300000000001
 20
-50.3618999999999986
 30
0.0
 11
-23.7143000000000015
 21
-50.3376999999999981
 31
0.0
  0
LINE
  5
1F4
100
AcDbEntity
  8
0
 62
256
370
-1
 48
1.0
  6
BYLAYER
100
AcDbLine
 10
-23.7143000000000015
 20
-50.3376999999999981
 30
0.0
 11
-23.754999999999999
 21
-50.3081999999999994
 31
0.0
  0
LINE
  5
1F5
100
AcDbEntity
  8
0
 62
256
370
-1
 48
1.0
  6
BYLAYER
100
AcDbLine
 10
-23.754999999999999
 20
-50.3081999999999994
 30
0.0
 11
-23.791599999999999
 21
-50.2738000000000014
 31
0.0
  0
LINE
  5
1F6
100
AcDbEntity
  8
0
 62
256
370
-1
 48
1.0
  6
BYLAYER
100
AcDbLine
 10
-23.791599999999999
 20
-50.2738000000000014
 30
0.0
 11
-23.823599999999999
 21
-50.2351000000000028
 31
0.0
  0
LINE
  5
1F7
100
AcDbEntity
  8
0
 62
256
370
-1
 48
1.0
  6
BYLAYER
100
AcDbLine
 10
-23.823599999999999
 20
-50.2351000000000028
 30
0.0
 11
-23.8505000000000003
 21
-50.1927000000000021
 31
0.0
  0
LINE
  5
1F8
100
AcDbEntity
  8
0
 62
256
370
-1
 48
1.0
  6
BYLAYER
100
AcDbLine
 10
-23.8505000000000003
 20
-50.1927000000000021
 30
0.0
 11
-23.8719000000000001
 21
-50.147199999999998
 31
0.0
  0
LINE
  5
1F9
100
AcDbEntity
  8
0
 62
256
370
-1
 48
1.0
  6
BYLAYER
100
AcDbLine
 10
-23.8719000000000001
 20
-50.147199999999998
 30
0.0
 11
-23.8873999999999995
 21
-50.099499999999999
 31
0.0
  0
LINE
  5
1FA
100
AcDbEntity
  8
0
 62
256
370
-1
 48
1.0
  6
BYLAYER
100
AcDbLine
 10
-23.8873999999999995
 20
-50.099499999999999
 30
0.0
 11
-23.8967999999999989
 21
-50.0501000000000005
 31
0.0
  0
LINE
  5
1FB
100
AcDbEntity
  8
0
 62
256
370
-1
 48
1.0
  6
BYLAYER
100
AcDbLine
 10
-23.8967999999999989
 20
-50.0501000000000005
 30
0.0
 11
-23.8999999999999986
 21
-50.0
 31
0.0
  0
LINE
  5
1FC
100
AcDbEntity
  8
0
 62
256
370
-1
 48
1.0
  6
BYLAYER
100
AcDbLine
 10
-23.8999999999999986
 20
-50.0
 30
0.0
 11
-23.8967999999999989
 21
-49.9498999999999995
 31
0.0
  0
LINE
  5
1FD
100
AcDbEntity
  8
0
 62
256
370
-1
 48
1.0
  6
BYLAYER
100
AcDbLine
 10
-23.8967999999999989
 20
-49.9498999999999995
 30
0.0
 11
-23.8873999999999995
 21
-49.900500000000001
 31
0.0
  0
LINE
  5
1FE
100
AcDbEntity
  8
0
 62
256
370
-1
 48
1.0
  6
BYLAYER
100
AcDbLine
 10
-23.8873999999999995
 20
-49.900500000000001
 30
0.0
 11
-23.8719000000000001
 21
-49.852800000000002
 31
0.0
  0
LINE
  5
1FF
100
AcDbEntity
  8
0
 62
256
370
-1
 48
1.0
  6
BYLAYER
100
AcDbLine
 10
-23.8719000000000001
 20
-49.852800000000002
 30
0.0
 11
-23.8505000000000003
 21
-49.8072999999999979
 31
0.0
  0
LINE
  5
200
100
AcDbEntity
  8
0
 62
256
370
-1
 48
1.0
  6
BYLAYER
100
AcDbLine
 10
-23.8505000000000003
 20
-49.8072999999999979
 30
0.0
 11
-23.823599999999999
 21
-49.7648999999999972
 31
0.0
  0
LINE
  5
201
100
AcDbEntity
  8
0
 62
256
370
-1
 48
1.0
  6
BYLAYER
100
AcDbLine
 10
-23.823599999999999
 20
-49.7648999999999972
 30
0.0
 11
-23.791599999999999
 21
-49.7261999999999986
 31
0.0
  0
LINE
  5
202
100
AcDbEntity
  8
0
 62
256
370
-1
 48
1.0
  6
BYLAYER
100
AcDbLine
 10
-23.791599999999999
 20
-49.7261999999999986
 30
0.0
 11
-23.754999999999999
 21
-49.6918000000000006
 31
0.0
  0
LINE
  5
203
100
AcDbEntity
  8
0
 62
256
370
-1
 48
1.0
  6
BYLAYER
100
AcDbLine
 10
-23.754999999999999
 20
-49.6918000000000006
 30
0.0
 11
-23.7143000000000015
 21
-49.6623000000000019
 31
0.0
  0
LINE
  5
204
100
AcDbEntity
  8
0
 62
256
370
-1
 48
1.0
  6
BYLAYER
100
AcDbLine
 10
-23.7143000000000015
 20
-49.6623000000000019
 30
0.0
 11
-23.670300000000001
 21
-49.6381000000000014
 31
0.0
  0
LINE
  5
205
100
AcDbEntity
  8
0
 62
256
370
-1
 48
1.0
  6
BYLAYER
100
AcDbLine
 10
-23.670300000000001
 20
-49.6381000000000014
 30
0.0
 11
-23.6235999999999997
 21
-49.6195999999999984
 31
0.0
  0
LINE
  5
206
100
AcDbEntity
  8
0
 62
256
370
-1
 48
1.0
  6
BYLAYER
100
AcDbLine
 10
-23.6235999999999997
 20
-49.6195999999999984
 30
0.0
 11
-23.5749999999999993
 21
-49.6071000000000026
 31
0.0
  0
LINE
  5
207
100
AcDbEntity
  8
0
 62
256
370
-1
 48
1.0
  6
BYLAYER
100
AcDbLine
 10
-23.5749999999999993
 20
-49.6071000000000026
 30
0.0
 11
-23.5250999999999983
 21
-49.6007999999999996
 31
0.0
  0
LINE
  5
208
100
AcDbEntity
  8
0
 62
256
370
-1
 48
1.0
  6
BYLAYER
100
AcDbLine
 10
-23.5250999999999983
 20
-49.6007999999999996
 30
0.0
 11
23.5250999999999983
 21
-49.6007999999999996
 31
0.0
  0
LINE
  5
209
100
AcDbEntity
  8
0
 62
256
370
-1
 48
1.0
  6
BYLAYER
100
AcDbLine
 10
23.5250999999999983
 20
-49.6007999999999996
 30
0.0
 11
23.5749999999999993
 21
-49.6071000000000026
 31
0.0
  0
LINE
  5
20A
100
AcDbEntity
  8
0
 62
256
370
-1
 48
1.0
  6
BYLAYER
100
AcDbLine
 10
23.5749999999999993
 20
-49.6071000000000026
 30
0.0
 11
23.6235999999999997
 21
-49.6195999999999984
 31
0.0
  0
LINE
  5
20B
100
AcDbEntity
  8
0
 62
256
370
-1
 48
1.0
  6
BYLAYER
100
AcDbLine
 10
23.6235999999999997
 20
-49.6195999999999984
 30
0.0
 11
23.670300000000001
 21
-49.6381000000000014
 31
0.0
  0
LINE
  5
20C
100
AcDbEntity
  8
0
 62
256
370
-1
 48
1.0
  6
BYLAYER
100
AcDbLine
 10
23.670300000000001
 20
-49.6381000000000014
 30
0.0
 11
23.7143000000000015
 21
-49.6623000000000019
 31
0.0
  0
LINE
  5
20D
100
AcDbEntity
  8
0
 62
256
370
-1
 48
1.0
  6
BYLAYER
100
AcDbLine
 10
23.7143000000000015
 20
-49.6623000000000019
 30
0.0
 11
23.754999999999999
 21
-49.6918000000000006
 31
0.0
  0
LINE
  5
20E
100
AcDbEntity
  8
0
 62
256
370
-1
 48
1.0
  6
BYLAYER
100
AcDbLine
 10
23.754999999999999
 20
-49.6918000000000006
 30
0.0
 11
23.791599999999999
 21
-49.7261999999999986
 31
0.0
  0
LINE
  5
20F
100
AcDbEntity
  8
0
 62
256
370
-1
 48
1.0
  6
BYLAYER
100
AcDbLine
 10
23.791599999999999
 20
-49.7261999999999986
 30
0.0
 11
23.823599999999999
 21
-49.7648999999999972
 31
0.0
  0
LINE
  5
210
100
AcDbEntity
  8
0
 62
256
370
-1
 48
1.0
  6
BYLAYER
100
AcDbLine
 10
23.823599999999999
 20
-49.7648999999999972
 30
0.0
 11
23.8505000000000003
 21
-49.8072999999999979
 31
0.0
  0
LINE
  5
211
100
AcDbEntity
  8
0
 62
256
370
-1
 48
1.0
  6
BYLAYER
100
AcDbLine
 10
23.8505000000000003
 20
-49.8072999999999979
 30
0.0
 11
23.8719000000000001
 21
-49.852800000000002
 31
0.0
  0
LINE
  5
212
100
AcDbEntity
  8
0
 62
256
370
-1
 48
1.0
  6
BYLAYER
100
AcDbLine
 10
23.8719000000000001
 20
-49.852800000000002
 30
0.0
 11
23.8873999999999995
 21
-49.900500000000001
 31
0.0
  0
LINE
  5
213
100
AcDbEntity
  8
0
 62
256
370
-1
 48
1.0
  6
BYLAYER
100
AcDbLine
 10
23.8873999999999995
 20
-49.900500000000001
 30
0.0
 11
23.8967999999999989
 21
-49.9498999999999995
 31
0.0
  0
LINE
  5
214
100
AcDbEntity
  8
0
 62
256
370
-1
 48
1.0
  6
BYLAYER
100
AcDbLine
 10
23.8967999999999989
 20
-49.9498999999999995
 30
0.0
 11
23.8999999999999986
 21
-50.0
 31
0.0
  0
LINE
  5
215
100
AcDbEntity
  8
0
 62
256
370
-1
 48
1.0
  6
BYLAYER
100
AcDbLine
 10
23.8999999999999986
 20
-50.0
 30
0.0
 11
23.8967999999999989
 21
-50.0501000000000005
 31
0.0
  0
LINE
  5
216
100
AcDbEntity
  8
0
 62
256
370
-1
 48
1.0
  6
BYLAYER
100
AcDbLine
 10
23.8967999999999989
 20
-50.0501000000000005
 30
0.0
 11
23.8873999999999995
 21
-50.099499999999999
 31
0.0
  0
LINE
  5
217
100
AcDbEntity
  8
0
 62
256
370
-1
 48
1.0
  6
BYLAYER
100
AcDbLine
 10
23.8873999999999995
 20
-50.099499999999999
 30
0.0
 11
23.8719000000000001
 21
-50.147199999999998
 31
0.0
  0
LINE
  5
218
100
AcDbEntity
  8
0
 62
256
370
-1
 48
1.0
  6
BYLAYER
100
AcDbLine
 10
23.8719000000000001
 20
-50.147199999999998
 30
0.0
 11
23.8505000000000003
 21
-50.1927000000000021
 31
0.0
  0
LINE
  5
219
100
AcDbEntity
  8
0
 62
256
370
-1
 48
1.0
  6
BYLAYER
100
AcDbLine
 10
23.8505000000000003
 20
-50.1927000000000021
 30
0.0
 11
23.823599999999999
 21
-50.2351000000000028
 31
0.0
  0
LINE
  5
21A
100
AcDbEntity
  8
0
 62
256
370
-1
 48
1.0
  6
BYLAYER
100
AcDbLine
 10
23.823599999999999
 20
-50.2351000000000028
 30
0.0
 11
23.791599999999999
 21
-50.2738000000000014
 31
0.0
  0
LINE
  5
21B
100
AcDbEntity
  8
0
 62
256
370
-1
 48
1.0
  6
BYLAYER
100
AcDbLine
 10
23.791599999999999
 20
-50.2738000000000014
 30
0.0
 11
23.754999999999999
 21
-50.3081999999999994
 31
0.0
  0
LINE
  5
21C
100
AcDbEntity
  8
0
 62
256
370
-1
 48
1.0
  6
BYLAYER
100
AcDbLine
 10
23.754999999999999
 20
-50.3081999999999994
 30
0.0
 11
23.7143000000000015
 21
-50.3376999999999981
 31
0.0
  0
LINE
  5
21D
100
AcDbEntity
  8
0
 62
256
370
-1
 48
1.0
  6
BYLAYER
100
AcDbLine
 10
23.7143000000000015
 20
-50.3376999999999981
 30
0.0
 11
23.670300000000001
 21
-50.3618999999999986
 31
0.0
  0
LINE
  5
21E
100
AcDbEntity
  8
0
 62
256
370
-1
 48
1.0
  6
BYLAYER
100
AcDbLine
 10
23.670300000000001
 20
-50.3618999999999986
 30
0.0
 11
23.6235999999999997
 21
-50.3804000000000016
 31
0.0
  0
LINE
  5
21F
100
AcDbEntity
  8
0
 62
256
370
-1
 48
1.0
  6
BYLAYER
100
AcDbLine
 10
23.6235999999999997
 20
-50.3804000000000016
 30
0.0
 11
23.5749999999999993
 21
-50.3928999999999974
 31
0.0
  0
LINE
  5
220
100
AcDbEntity
  8
0
 62
256
370
-1
 48
1.0
  6
BYLAYER
100
AcDbLine
 10
23.5749999999999993
 20
-50.3928999999999974
 30
0.0
 11
23.5250999999999983
 21
-50.3992000000000004
 31
0.0
  0
LINE
  5
221
100
AcDbEntity
  8
0
 62
256
370
-1
 48
1.0
  6
BYLAYER
100
AcDbLine
 10
23.5942000000000007
 20
-56.4969999999999999
 30
0.0
 11
23.6879999999999988
 21
-56.4881999999999991
 31
0.0
  0
LINE
  5
222
100
AcDbEntity
  8
0
 62
256
370
-1
 48
1.0
  6
BYLAYER
100
AcDbLine
 10
23.6879999999999988
 20
-56.4881999999999991
 30
0.0
 11
23.7810999999999986
 21
-56.473399999999998
 31
0.0
  0
LINE
  5
223
100
AcDbEntity
  8
0
 62
256
370
-1
 48
1.0
  6
BYLAYER
100
AcDbLine
 10
23.7810999999999986
 20
-56.473399999999998
 30
0.0
 11
23.8730000000000011
 21
-56.4528999999999996
 31
0.0
  0
LINE
  5
224
100
AcDbEntity
  8
0
 62
256
370
-1
 48
1.0
  6
BYLAYER
100
AcDbLine
 10
23.8730000000000011
 20
-56.4528999999999996
 30
0.0
 11
23.9634999999999998
 21
-56.4266000000000005
 31
0.0
  0
LINE
  5
225
100
AcDbEntity
  8
0
 62
256
370
-1
 48
1.0
  6
BYLAYER
100
AcDbLine
 10
23.9634999999999998
 20
-56.4266000000000005
 30
0.0
 11
24.0521999999999991
 21
-56.3947000000000003
 31
0.0
  0
LINE
  5
226
100
AcDbEntity
  8
0
 62
256
370
-1
 48
1.0
  6
BYLAYER
100
AcDbLine
 10
24.0521999999999991
 20
-56.3947000000000003
 30
0.0
 11
24.1387
 21
-56.3571999999999989
 31
0.0
  0
LINE
  5
227
100
AcDbEntity
  8
0
 62
256
370
-1
 48
1.0
  6
BYLAYER
100
AcDbLine
 10
24.1387
 20
-56.3571999999999989
 30
0.0
 11
24.2225999999999999
 21
-56.3145000000000024
 31
0.0
  0
LINE
  5
228
100
AcDbEntity
  8
0
 62
256
370
-1
 48
1.0
  6
BYLAYER
100
AcDbLine
 10
24.2225999999999999
 20
-56.3145000000000024
 30
0.0
 11
24.3036999999999992
 21
-56.2665000000000006
 31
0.0
  0
LINE
  5
229
100
AcDbEntity
  8
0
 62
256
370
-1
 48
1.0
  6
BYLAYER
100
AcDbLine
 10
24.3036999999999992
 20
-56.2665000000000006
 30
0.0
 11
24.3816999999999986
 21
-56.2135000000000034
 31
0.0
  0
LINE
  5
22A
100
AcDbEntity
  8
0
 62
256
370
-1
 48
1.0
  6
BYLAYER
100
AcDbLine
 10
24.3816999999999986
 20
-56.2135000000000034
 30
0.0
 11
24.4560999999999993
 21
-56.1557999999999993
 31
0.0
  0
LINE
  5
22B
100
AcDbEntity
  8
0
 62
256
370
-1
 48
1.0
  6
BYLAYER
100
AcDbLine
 10
24.4560999999999993
 20
-56.1557999999999993
 30
0.0
 11
24.5268000000000015
 21
-56.0934000000000026
 31
0.0
  0
LINE
  5
22C
100
AcDbEntity
  8
0
 62
256
370
-1
 48
1.0
  6
BYLAYER
100
AcDbLine
 10
24.5268000000000015
 20
-56.0934000000000026
 30
0.0
 11
24.593399999999999
 21
-56.0268000000000015
 31
0.0
  0
LINE
  5
22D
100
AcDbEntity
  8
0
 62
256
370
-1
 48
1.0
  6
BYLAYER
100
AcDbLine
 10
24.593399999999999
 20
-56.0268000000000015
 30
0.0
 11
24.6557999999999993
 21
-55.9560999999999993
 31
0.0
  0
LINE
  5
22E
100
AcDbEntity
  8
0
 62
256
370
-1
 48
1.0
  6
BYLAYER
100
AcDbLine
 10
24.6557999999999993
 20
-55.9560999999999993
 30
0.0
 11
24.7134999999999998
 21
-55.8817000000000021
 31
0.0
  0
LINE
  5
22F
100
AcDbEntity
  8
0
 62
256
370
-1
 48
1.0
  6
BYLAYER
100
AcDbLine
 10
24.7134999999999998
 20
-55.8817000000000021
 30
0.0
 11
24.7665000000000006
 21
-55.8036999999999992
 31
0.0
  0
LINE
  5
230
100
AcDbEntity
  8
0
 62
256
370
-1
 48
1.0
  6
BYLAYER
100
AcDbLine
 10
24.7665000000000006
 20
-55.8036999999999992
 30
0.0
 11
24.8144999999999989
 21
-55.7225999999999999
 31
0.0
  0
LINE
  5
231
100
AcDbEntity
  8
0
 62
256
370
-1
 48
1.0
  6
BYLAYER
100
AcDbLine
 10
24.8144999999999989
 20
-55.7225999999999999
 30
0.0
 11
24.8571999999999989
 21
-55.6387
 31
0.0
  0
LINE
  5
232
100
AcDbEntity
  8
0
 62
256
370
-1
 48
1.0
  6
BYLAYER
100
AcDbLine
 10
24.8571999999999989
 20
-55.6387
 30
0.0
 11
24.8947000000000003
 21
-55.5521999999999991
 31
0.0
  0
LINE
  5
233
100
AcDbEntity
  8
0
 62
256
370
-1
 48
1.0
  6
BYLAYER
100
AcDbLine
 10
24.8947000000000003
 20
-55.5521999999999991
 30
0.0
 11
24.9266000000000005
 21
-55.4635000000000034
 31
0.0
  0
LINE
  5
234
100
AcDbEntity
  8
0
 62
256
370
-1
 48
1.0
  6
BYLAYER
100
AcDbLine
 10
24.9266000000000005
 20
-55.4635000000000034
 30
0.0
 11
24.9528999999999996
 21
-55.3729999999999976
 31
0.0
  0
LINE
  5
235
100
AcDbEntity
  8
0
 62
256
370
-1
 48
1.0
  6
BYLAYER
100
AcDbLine
 10
24.9528999999999996
 20
-55.3729999999999976
 30
0.0
 11
24.9734000000000016
 21
-55.2811000000000021
 31
0.0
  0
LINE
  5
236
100
AcDbEntity
  8
0
 62
256
370
-1
 48
1.0
  6
BYLAYER
100
AcDbLine
 10
24.9734000000000016
 20
-55.2811000000000021
 30
0.0
 11
24.9881999999999991
 21
-55.1880000000000024
 31
0.0
  0
LINE
  5
237
100
AcDbEntity
  8
0
 62
256
370
-1
 48
1.0
  6
BYLAYER
100
AcDbLine
 10
24.9881999999999991
 20
-55.1880000000000024
 30
0.0
 11
24.9969999999999999
 21
-55.0942000000000007
 31
0.0
  0
LINE
  5
238
100
AcDbEntity
  8
0
 62
256
370
-1
 48
1.0
  6
BYLAYER
100
AcDbLine
 10
24.9969999999999999
 20
-55.0942000000000007
 30
0.0
 11
25.0
 21
-55.0
 31
0.0
  0
LINE
  5
239
100
AcDbEntity
  8
0
 62
256
370
-1
 48
1.0
  6
BYLAYER
100
AcDbLine
 10
25.0
 20
-55.0
 30
0.0
 11
24.9969999999999999
 21
-54.9057999999999993
 31
0.0
  0
LINE
  5
23A
100
AcDbEntity
  8
0
 62
256
370
-1
 48
1.0
  6
BYLAYER
100
AcDbLine
 10
24.9969999999999999
 20
-54.9057999999999993
 30
0.0
 11
24.9881999999999991
 21
-54.8119999999999976
 31
0.0
  0
LINE
  5
23B
100
AcDbEntity
  8
0
 62
256
370
-1
 48
1.0
  6
BYLAYER
100
AcDbLine
 10
24.9881999999999991
 20
-54.8119999999999976
 30
0.0
 11
24.9734000000000016
 21
-54.7188999999999979
 31
0.0
  0
LINE
  5
23C
100
AcDbEntity
  8
0
 62
256
370
-1
 48
1.0
  6
BYLAYER
100
AcDbLine
 10
24.9734000000000016
 20
-54.7188999999999979
 30
0.0
 11
24.9528999999999996
 21
-54.6270000000000024
 31
0.0
  0
LINE
  5
23D
100
AcDbEntity
  8
0
 62
256
370
-1
 48
1.0
  6
BYLAYER
100
AcDbLine
 10
24.9528999999999996
 20
-54.6270000000000024
 30
0.0
 11
24.9266000000000005
 21
-54.5364999999999966
 31
0.0
  0
LINE
  5
23E
100
AcDbEntity
  8
0
 62
256
370
-1
 48
1.0
  6
BYLAYER
100
AcDbLine
 10
24.9266000000000005
 20
-54.5364999999999966
 30
0.0
 11
24.8947000000000003
 21
-54.4478000000000009
 31
0.0
  0
LINE
  5
23F
100
AcDbEntity
  8
0
 62
256
370
-1
 48
1.0
  6
BYLAYER
100
AcDbLine
 10
24.8947000000000003
 20
-54.4478000000000009
 30
0.0
 11
24.8571999999999989
 21
-54.3613
 31
0.0
  0
LINE
  5
240
100
AcDbEntity
  8
0
 62
256
370
-1
 48
1.0
  6
BYLAYER
100
AcDbLine
 10
24.8571999999999989
 20
-54.3613
 30
0.0
 11
24.8144999999999989
 21
-54.2774000000000001
 31
0.0
  0
LINE
  5
241
100
AcDbEntity
  8
0
 62
256
370
-1
 48
1.0
  6
BYLAYER
100
AcDbLine
 10
24.8144999999999989
 20
-54.2774000000000001
 30
0.0
 11
24.7665000000000006
 21
-54.1963000000000008
 31
0.0
  0
LINE
  5
242
100
AcDbEntity
  8
0
 62
256
370
-1
 48
1.0
  6
BYLAYER
100
AcDbLine
 10
24.7665000000000006
 20
-54.1963000000000008
 30
0.0
 11
24.7134999999999998
 21
-54.1182999999999979
 31
0.0
  0
LINE
  5
243
100
AcDbEntity
  8
0
 62
256
370
-1
 48
1.0
  6
BYLAYER
100
AcDbLine
 10
24.7134999999999998
 20
-54.1182999999999979
 30
0.0
 11
24.6557999999999993
 21
-54.0439000000000007
 31
0.0
  0
LINE
  5
244
100
AcDbEntity
  8
0
 62
256
370
-1
 48
1.0
  6
BYLAYER
100
AcDbLine
 10
24.6557999999999993
 20
-54.0439000000000007
 30
0.0
 11
24.593399999999999
 21
-53.9731999999999985
 31
0.0
  0
LINE
  5
245
100
AcDbEntity
  8
0
 62
256
370
-1
 48
1.0
  6
BYLAYER
100
AcDbLine
 10
24.593399999999999
 20
-53.9731999999999985
 30
0.0
 11
24.5268000000000015
 21
-53.9065000000000012
 31
0.0
  0
LINE
  5
246
100
AcDbEntity
  8
0
 62
256
370
-1
 48
1.0
  6
BYLAYER
100
AcDbLine
 10
24.5268000000000015
 20
-53.9065000000000012
 30
0.0
 11
24.4560999999999993
 21
-53.8442000000000007
 31
0.0
  0
LINE
  5
247
100
AcDbEntity
  8
0
 62
256
370
-1
 48
1.0
  6
BYLAYER
100
AcDbLine
 10
24.4560999999999993
 20
-53.8442000000000007
 30
0.0
 11
24.3816999999999986
 21
-53.7864999999999966
 31
0.0
  0
LINE
  5
248
100
AcDbEntity
  8
0
 62
256
370
-1
 48
1.0
  6
BYLAYER
100
AcDbLine
 10
24.3816999999999986
 20
-53.7864999999999966
 30
0.0
 11
24.3036999999999992
 21
-53.7334999999999994
 31
0.0
  0
LINE
  5
249
100
AcDbEntity
  8
0
 62
256
370
-1
 48
1.0
  6
BYLAYER
100
AcDbLine
 10
24.3036999999999992
 20
-53.7334999999999994
 30
0.0
 11
24.2225999999999999
 21
-53.6854999999999976
 31
0.0
  0
LINE
  5
24A
100
AcDbEntity
  8
0
 62
256
370
-1
 48
1.0
  6
BYLAYER
100
AcDbLine
 10
24.2225999999999999
 20
-53.6854999999999976
 30
0.0
 11
24.1387
 21
-53.6428000000000011
 31
0.0
  0
LINE
  5
24B
100
AcDbEntity
  8
0
 62
256
370
-1
 48
1.0
  6
BYLAYER
100
AcDbLine
 10
24.1387
 20
-53.6428000000000011
 30
0.0
 11
24.0521999999999991
 21
-53.6052999999999997
 31
0.0
  0
LINE
  5
24C
100
AcDbEntity
  8
0
 62
256
370
-1
 48
1.0
  6
BYLAYER
100
AcDbLine
 10
24.0521999999999991
 20
-53.6052999999999997
 30
0.0
 11
23.9634999999999998
 21
-53.5733999999999995
 31
0.0
  0
LINE
  5
24D
100
AcDbEntity
  8
0
 62
256
370
-1
 48
1.0
  6
BYLAYER
100
AcDbLine
 10
23.9634999999999998
 20
-53.5733999999999995
 30
0.0
 11
23.8730000000000011
 21
-53.5471000000000004
 31
0.0
  0
LINE
  5
24E
100
AcDbEntity
  8
0
 62
256
370
-1
 48
1.0
  6
BYLAYER
100
AcDbLine
 10
23.8730000000000011
 20
-53.5471000000000004
 30
0.0
 11
23.7810999999999986
 21
-53.526600000000002
 31
0.0
  0
LINE
  5
24F
100
AcDbEntity
  8
0
 62
256
370
-1
 48
1.0
  6
BYLAYER
100
AcDbLine
 10
23.7810999999999986
 20
-53.526600000000002
 30
0.0
 11
23.6879999999999988
 21
-53.5118000000000009
 31
0.0
  0
LINE
  5
250
100
AcDbEntity
  8
0
 62
256
370
-1
 48
1.0
  6
BYLAYER
100
AcDbLine
 10
23.6879999999999988
 20
-53.5118000000000009
 30
0.0
 11
23.5942000000000007
 21
-53.5030000000000001
 31
0.0
  0
LINE
  5
251
100
AcDbEntity
  8
0
 62
256
370
-1
 48
1.0
  6
BYLAYER
100
AcDbLine
 10
23.5942000000000007
 20
-53.5030000000000001
 30
0.0
 11
23.5
 21
-53.5
 31
0.0
  0
LINE
  5
252
100
AcDbEntity
  8
0
 62
256
370
-1
 48
1.0
  6
BYLAYER
100
AcDbLine
 10
23.5
 20
-53.5
 30
0.0
 11
-23.5
 21
-53.5
 31
0.0
  0
LINE
  5
253
100
AcDbEntity
  8
0
 62
256
370
-1
 48
1.0
  6
BYLAYER
100
AcDbLine
 10
-23.5
 20
-53.5
 30
0.0
 11
-23.5942000000000007
 21
-53.5030000000000001
 31
0.0
  0
LINE
  5
254
100
AcDbEntity
  8
0
 62
256
370
-1
 48
1.0
  6
BYLAYER
100
AcDbLine
 10
-23.5942000000000007
 20
-53.5030000000000001
 30
0.0
 11
-23.6879999999999988
 21
-53.5118000000000009
 31
0.0
  0
LINE
  5
255
100
AcDbEntity
  8
0
 62
256
370
-1
 48
1.0
  6
BYLAYER
100
AcDbLine
 10
-23.6879999999999988
 20
-53.5118000000000009
 30
0.0
 11
-23.7810999999999986
 21
-53.526600000000002
 31
0.0
  0
LINE
  5
256
100
AcDbEntity
  8
0
 62
256
370
-1
 48
1.0
  6
BYLAYER
100
AcDbLine
 10
-23.7810999999999986
 20
-53.526600000000002
 30
0.0
 11
-23.8730000000000011
 21
-53.5471000000000004
 31
0.0
  0
LINE
  5
257
100
AcDbEntity
  8
0
 62
256
370
-1
 48
1.0
  6
BYLAYER
100
AcDbLine
 10
-23.8730000000000011
 20
-53.5471000000000004
 30
0.0
 11
-23.9634999999999998
 21
-53.5733999999999995
 31
0.0
  0
LINE
  5
258
100
AcDbEntity
  8
0
 62
256
370
-1
 48
1.0
  6
BYLAYER
100
AcDbLine
 10
-23.9634999999999998
 20
-53.5733999999999995
 30
0.0
 11
-24.0521999999999991
 21
-53.6052999999999997
 31
0.0
  0
LINE
  5
259
100
AcDbEntity
  8
0
 62
256
370
-1
 48
1.0
  6
BYLAYER
100
AcDbLine
 10
-24.0521999999999991
 20
-53.6052999999999997
 30
0.0
 11
-24.1387
 21
-53.6428000000000011
 31
0.0
  0
LINE
  5
25A
100
AcDbEntity
  8
0
 62
256
370
-1
 48
1.0
  6
BYLAYER
100
AcDbLine
 10
-24.1387
 20
-53.6428000000000011
 30
0.0
 11
-24.2225999999999999
 21
-53.6854999999999976
 31
0.0
  0
LINE
  5
25B
100
AcDbEntity
  8
0
 62
256
370
-1
 48
1.0
  6
BYLAYER
100
AcDbLine
 10
-24.2225999999999999
 20
-53.6854999999999976
 30
0.0
 11
-24.3036999999999992
 21
-53.7334999999999994
 31
0.0
  0
LINE
  5
25C
100
AcDbEntity
  8
0
 62
256
370
-1
 48
1.0
  6
BYLAYER
100
AcDbLine
 10
-24.3036999999999992
 20
-53.7334999999999994
 30
0.0
 11
-24.3816999999999986
 21
-53.7864999999999966
 31
0.0
  0
LINE
  5
25D
100
AcDbEntity
  8
0
 62
256
370
-1
 48
1.0
  6
BYLAYER
100
AcDbLine
 10
-24.3816999999999986
 20
-53.7864999999999966
 30
0.0
 11
-24.4560999999999993
 21
-53.8442000000000007
 31
0.0
  0
LINE
  5
25E
100
AcDbEntity
  8
0
 62
256
370
-1
 48
1.0
  6
BYLAYER
100
AcDbLine
 10
-24.4560999999999993
 20
-53.8442000000000007
 30
0.0
 11
-24.5268000000000015
 21
-53.9065000000000012
 31
0.0
  0
LINE
  5
25F
100
AcDbEntity
  8
0
 62
256
370
-1
 48
1.0
  6
BYLAYER
100
AcDbLine
 10
-24.5268000000000015
 20
-53.9065000000000012
 30
0.0
 11
-24.593399999999999
 21
-53.9731999999999985
 31
0.0
  0
LINE
  5
260
100
AcDbEntity
  8
0
 62
256
370
-1
 48
1.0
  6
BYLAYER
100
AcDbLine
 10
-24.593399999999999
 20
-53.9731999999999985
 30
0.0
 11
-24.6557999999999993
 21
-54.0439000000000007
 31
0.0
  0
LINE
  5
261
100
AcDbEntity
  8
0
 62
256
370
-1
 48
1.0
  6
BYLAYER
100
AcDbLine
 10
-24.6557999999999993
 20
-54.0439000000000007
 30
0.0
 11
-24.7134999999999998
 21
-54.1182999999999979
 31
0.0
  0
LINE
  5
262
100
AcDbEntity
  8
0
 62
256
370
-1
 48
1.0
  6
BYLAYER
100
AcDbLine
 10
-24.7134999999999998
 20
-54.1182999999999979
 30
0.0
 11
-24.7665000000000006
 21
-54.1963000000000008
 31
0.0
  0
LINE
  5
263
100
AcDbEntity
  8
0
 62
256
370
-1
 48
1.0
  6
BYLAYER
100
AcDbLine
 10
-24.7665000000000006
 20
-54.1963000000000008
 30
0.0
 11
-24.8144999999999989
 21
-54.2774000000000001
 31
0.0
  0
LINE
  5
264
100
AcDbEntity
  8
0
 62
256
370
-1
 48
1.0
  6
BYLAYER
100
AcDbLine
 10
-24.8144999999999989
 20
-54.2774000000000001
 30
0.0
 11
-24.8571999999999989
 21
-54.3613
 31
0.0
  0
LINE
  5
265
100
AcDbEntity
  8
0
 62
256
370
-1
 48
1.0
  6
BYLAYER
100
AcDbLine
 10
-24.8571999999999989
 20
-54.3613
 30
0.0
 11
-24.8947000000000003
 21
-54.4478000000000009
 31
0.0
  0
LINE
  5
266
100
AcDbEntity
  8
0
 62
256
370
-1
 48
1.0
  6
BYLAYER
100
AcDbLine
 10
-24.8947000000000003
 20
-54.4478000000000009
 30
0.0
 11
-24.9266000000000005
 21
-54.5364999999999966
 31
0.0
  0
LINE
  5
267
100
AcDbEntity
  8
0
 62
256
370
-1
 48
1.0
  6
BYLAYER
100
AcDbLine
 10
-24.9266000000000005
 20
-54.5364999999999966
 30
0.0
 11
-24.9528999999999996
 21
-54.6270000000000024
 31
0.0
  0
LINE
  5
268
100
AcDbEntity
  8
0
 62
256
370
-1
 48
1.0
  6
BYLAYER
100
AcDbLine
 10
-24.9528999999999996
 20
-54.6270000000000024
 30
0.0
 11
-24.9734000000000016
 21
-54.7188999999999979
 31
0.0
  0
LINE
  5
269
100
AcDbEntity
  8
0
 62
256
370
-1
 48
1.0
  6
BYLAYER
100
AcDbLine
 10
-24.9734000000000016
 20
-54.7188999999999979
 30
0.0
 11
-24.9881999999999991
 21
-54.8119999999999976
 31
0.0
  0
LINE
  5
26A
100
AcDbEntity
  8
0
 62
256
370
-1
 48
1.0
  6
BYLAYER
100
AcDbLine
 10
-24.9881999999999991
 20
-54.8119999999999976
 30
0.0
 11
-24.9969999999999999
 21
-54.9057999999999993
 31
0.0
  0
LINE
  5
26B
100
AcDbEntity
  8
0
 62
256
370
-1
 48
1.0
  6
BYLAYER
100
AcDbLine
 10
-24.9969999999999999
 20
-54.9057999999999993
 30
0.0
 11
-25.0
 21
-55.0
 31
0.0
  0
LINE
  5
26C
100
AcDbEntity
  8
0
 62
256
370
-1
 48
1.0
  6
BYLAYER
100
AcDbLine
 10
-25.0
 20
-55.0
 30
0.0
 11
-24.9969999999999999
 21
-55.0942000000000007
 31
0.0
  0
LINE
  5
26D
100
AcDbEntity
  8
0
 62
256
370
-1
 48
1.0
  6
BYLAYER
100
AcDbLine
 10
-24.9969999999999999
 20
-55.0942000000000007
 30
0.0
 11
-24.9881999999999991
 21
-55.1880000000000024
 31
0.0
  0
LINE
  5
26E
100
AcDbEntity
  8
0
 62
256
370
-1
 48
1.0
  6
BYLAYER
100
AcDbLine
 10
-24.9881999999999991
 20
-55.1880000000000024
 30
0.0
 11
-24.9734000000000016
 21
-55.2811000000000021
 31
0.0
  0
LINE
  5
26F
100
AcDbEntity
  8
0
 62
256
370
-1
 48
1.0
  6
BYLAYER
100
AcDbLine
 10
-24.9734000000000016
 20
-55.2811000000000021
 30
0.0
 11
-24.9528999999999996
 21
-55.3729999999999976
 31
0.0
  0
LINE
  5
270
100
AcDbEntity
  8
0
 62
256
370
-1
 48
1.0
  6
BYLAYER
100
AcDbLine
 10
-24.9528999999999996
 20
-55.3729999999999976
 30
0.0
 11
-24.9266000000000005
 21
-55.4635000000000034
 31
0.0
  0
LINE
  5
271
100
AcDbEntity
  8
0
 62
256
370
-1
 48
1.0
  6
BYLAYER
100
AcDbLine
 10
-24.9266000000000005
 20
-55.4635000000000034
 30
0.0
 11
-24.8947000000000003
 21
-55.5521999999999991
 31
0.0
  0
LINE
  5
272
100
AcDbEntity
  8
0
 62
256
370
-1
 48
1.0
  6
BYLAYER
100
AcDbLine
 10
-24.8947000000000003
 20
-55.5521999999999991
 30
0.0
 11
-24.8571999999999989
 21
-55.6387
 31
0.0
  0
LINE
  5
273
100
AcDbEntity
  8
0
 62
256
370
-1
 48
1.0
  6
BYLAYER
100
AcDbLine
 10
-24.8571999999999989
 20
-55.6387
 30
0.0
 11
-24.8144999999999989
 21
-55.7225999999999999
 31
0.0
  0
LINE
  5
274
100
AcDbEntity
  8
0
 62
256
370
-1
 48
1.0
  6
BYLAYER
100
AcDbLine
 10
-24.8144999999999989
 20
-55.7225999999999999
 30
0.0
 11
-24.7665000000000006
 21
-55.8036999999999992
 31
0.0
  0
LINE
  5
275
100
AcDbEntity
  8
0
 62
256
370
-1
 48
1.0
  6
BYLAYER
100
AcDbLine
 10
-24.7665000000000006
 20
-55.8036999999999992
 30
0.0
 11
-24.7134999999999998
 21
-55.8817000000000021
 31
0.0
  0
LINE
  5
276
100
AcDbEntity
  8
0
 62
256
370
-1
 48
1.0
  6
BYLAYER
100
AcDbLine
 10
-24.7134999999999998
 20
-55.8817000000000021
 30
0.0
 11
-24.6557999999999993
 21
-55.9560999999999993
 31
0.0
  0
LINE
  5
277
100
AcDbEntity
  8
0
 62
256
370
-1
 48
1.0
  6
BYLAYER
100
AcDbLine
 10
-24.6557999999999993
 20
-55.9560999999999993
 30
0.0
 11
-24.593399999999999
 21
-56.0268000000000015
 31
0.0
  0
LINE
  5
278
100
AcDbEntity
  8
0
 62
256
370
-1
 48
1.0
  6
BYLAYER
100
AcDbLine
 10
-24.593399999999999
 20
-56.0268000000000015
 30
0.0
 11
-24.5268000000000015
 21
-56.0934000000000026
 31
0.0
  0
LINE
  5
279
100
AcDbEntity
  8
0
 62
256
370
-1
 48
1.0
  6
BYLAYER
100
AcDbLine
 10
-24.5268000000000015
 20
-56.0934000000000026
 30
0.0
 11
-24.4560999999999993
 21
-56.1557999999999993
 31
0.0
  0
LINE
  5
27A
100
AcDbEntity
  8
0
 62
256
370
-1
 48
1.0
  6
BYLAYER
100
AcDbLine
 10
-24.4560999999999993
 20
-56.1557999999999993
 30
0.0
 11
-24.3816999999999986
 21
-56.2135000000000034
 31
0.0
  0
LINE
  5
27B
100
AcDbEntity
  8
0
 62
256
370
-1
 48
1.0
  6
BYLAYER
100
AcDbLine
 10
-24.3816999999999986
 20
-56.2135000000000034
 30
0.0
 11
-24.3036999999999992
 21
-56.2665000000000006
 31
0.0
  0
LINE
  5
27C
100
AcDbEntity
  8
0
 62
256
370
-1
 48
1.0
  6
BYLAYER
100
AcDbLine
 10
-24.3036999999999992
 20
-56.2665000000000006
 30
0.0
 11
-24.2225999999999999
 21
-56.3145000000000024
 31
0.0
  0
LINE
  5
27D
100
AcDbEntity
  8
0
 62
256
370
-1
 48
1.0
  6
BYLAYER
100
AcDbLine
 10
-24.2225999999999999
 20
-56.3145000000000024
 30
0.0
 11
-24.1387
 21
-56.3571999999999989
 31
0.0
  0
LINE
  5
27E
100
AcDbEntity
  8
0
 62
256
370
-1
 48
1.0
  6
BYLAYER
100
AcDbLine
 10
-24.1387
 20
-56.3571999999999989
 30
0.0
 11
-24.0521999999999991
 21
-56.3947000000000003
 31
0.0
  0
LINE
  5
27F
100
AcDbEntity
  8
0
 62
256
370
-1
 48
1.0
  6
BYLAYER
100
AcDbLine
 10
-24.0521999999999991
 20
-56.3947000000000003
 30
0.0
 11
-23.9634999999999998
 21
-56.4266000000000005
 31
0.0
  0
LINE
  5
280
100
AcDbEntity
  8
0
 62
256
370
-1
 48
1.0
  6
BYLAYER
100
AcDbLine
 10
-23.9634999999999998
 20
-56.4266000000000005
 30
0.0
 11
-23.8730000000000011
 21
-56.4528999999999996
 31
0.0
  0
LINE
  5
281
100
AcDbEntity
  8
0
 62
256
370
-1
 48
1.0
  6
BYLAYER
100
AcDbLine
 10
-23.8730000000000011
 20
-56.4528999999999996
 30
0.0
 11
-23.7810999999999986
 21
-56.473399999999998
 31
0.0
  0
LINE
  5
282
100
AcDbEntity
  8
0
 62
256
370
-1
 48
1.0
  6
BYLAYER
100
AcDbLine
 10
-23.7810999999999986
 20
-56.473399999999998
 30
0.0
 11
-23.6879999999999988
 21
-56.4881999999999991
 31
0.0
  0
LINE
  5
283
100
AcDbEntity
  8
0
 62
256
370
-1
 48
1.0
  6
BYLAYER
100
AcDbLine
 10
-23.6879999999999988
 20
-56.4881999999999991
 30
0.0
 11
-23.5942000000000007
 21
-56.4969999999999999
 31
0.0
  0
LINE
  5
284
100
AcDbEntity
  8
0
 62
256
370
-1
 48
1.0
  6
BYLAYER
100
AcDbLine
 10
-23.5942000000000007
 20
-56.4969999999999999
 30
0.0
 11
-23.5
 21
-56.5
 31
0.0
  0
LINE
  5
285
100
AcDbEntity
  8
0
 62
256
370
-1
 48
1.0
  6
BYLAYER
100
AcDbLine
 10
-23.5
 20
-56.5
 30
0.0
 11
23.5
 21
-56.5
 31
0.0
  0
LINE
  5
286
100
AcDbEntity
  8
0
 62
256
370
-1
 48
1.0
  6
BYLAYER
100
AcDbLine
 10
23.5
 20
-56.5
 30
0.0
 11
23.5942000000000007
 21
-56.4969999999999999
 31
0.0
  0
LINE
  5
287
100
AcDbEntity
  8
0
 62
256
370
-1
 48
1.0
  6
BYLAYER
100
AcDbLine
 10
23.5250999999999983
 20
-55.3992000000000004
 30
0.0
 11
-23.5250999999999983
 21
-55.3992000000000004
 31
0.0
  0
LINE
  5
288
100
AcDbEntity
  8
0
 62
256
370
-1
 48
1.0
  6
BYLAYER
100
AcDbLine
 10
-23.5250999999999983
 20
-55.3992000000000004
 30
0.0
 11
-23.5749999999999993
 21
-55.3928999999999974
 31
0.0
  0
LINE
  5
289
100
AcDbEntity
  8
0
 62
256
370
-1
 48
1.0
  6
BYLAYER
100
AcDbLine
 10
-23.5749999999999993
 20
-55.3928999999999974
 30
0.0
 11
-23.6235999999999997
 21
-55.3804000000000016
 31
0.0
  0
LINE
  5
28A
100
AcDbEntity
  8
0
 62
256
370
-1
 48
1.0
  6
BYLAYER
100
AcDbLine
 10
-23.6235999999999997
 20
-55.3804000000000016
 30
0.0
 11
-23.670300000000001
 21
-55.3618999999999986
 31
0.0
  0
LINE
  5
28B
100
AcDbEntity
  8
0
 62
256
370
-1
 48
1.0
  6
BYLAYER
100
AcDbLine
 10
-23.670300000000001
 20
-55.3618999999999986
 30
0.0
 11
-23.7143000000000015
 21
-55.3376999999999981
 31
0.0
  0
LINE
  5
28C
100
AcDbEntity
  8
0
 62
256
370
-1
 48
1.0
  6
BYLAYER
100
AcDbLine
 10
-23.7143000000000015
 20
-55.3376999999999981
 30
0.0
 11
-23.754999999999999
 21
-55.3081999999999994
 31
0.0
  0
LINE
  5
28D
100
AcDbEntity
  8
0
 62
256
370
-1
 48
1.0
  6
BYLAYER
100
AcDbLine
 10
-23.754999999999999
 20
-55.3081999999999994
 30
0.0
 11
-23.791599999999999
 21
-55.2738000000000014
 31
0.0
  0
LINE
  5
28E
100
AcDbEntity
  8
0
 62
256
370
-1
 48
1.0
  6
BYLAYER
100
AcDbLine
 10
-23.791599999999999
 20
-55.2738000000000014
 30
0.0
 11
-23.823599999999999
 21
-55.2351000000000028
 31
0.0
  0
LINE
  5
28F
100
AcDbEntity
  8
0
 62
256
370
-1
 48
1.0
  6
BYLAYER
100
AcDbLine
 10
-23.823599999999999
 20
-55.2351000000000028
 30
0.0
 11
-23.8505000000000003
 21
-55.1927000000000021
 31
0.0
  0
LINE
  5
290
100
AcDbEntity
  8
0
 62
256
370
-1
 48
1.0
  6
BYLAYER
100
AcDbLine
 10
-23.8505000000000003
 20
-55.1927000000000021
 30
0.0
 11
-23.8719000000000001
 21
-55.147199999999998
 31
0.0
  0
LINE
  5
291
100
AcDbEntity
  8
0
 62
256
370
-1
 48
1.0
  6
BYLAYER
100
AcDbLine
 10
-23.8719000000000001
 20
-55.147199999999998
 30
0.0
 11
-23.8873999999999995
 21
-55.099499999999999
 31
0.0
  0
LINE
  5
292
100
AcDbEntity
  8
0
 62
256
370
-1
 48
1.0
  6
BYLAYER
100
AcDbLine
 10
-23.8873999999999995
 20
-55.099499999999999
 30
0.0
 11
-23.8967999999999989
 21
-55.0501000000000005
 31
0.0
  0
LINE
  5
293
100
AcDbEntity
  8
0
 62
256
370
-1
 48
1.0
  6
BYLAYER
100
AcDbLine
 10
-23.8967999999999989
 20
-55.0501000000000005
 30
0.0
 11
-23.8999999999999986
 21
-55.0
 31
0.0
  0
LINE
  5
294
100
AcDbEntity
  8
0
 62
256
370
-1
 48
1.0
  6
BYLAYER
100
AcDbLine
 10
-23.8999999999999986
 20
-55.0
 30
0.0
 11
-23.8967999999999989
 21
-54.9498999999999995
 31
0.0
  0
LINE
  5
295
100
AcDbEntity
  8
0
 62
256
370
-1
 48
1.0
  6
BYLAYER
100
AcDbLine
 10
-23.8967999999999989
 20
-54.9498999999999995
 30
0.0
 11
-23.8873999999999995
 21
-54.900500000000001
 31
0.0
  0
LINE
  5
296
100
AcDbEntity
  8
0
 62
256
370
-1
 48
1.0
  6
BYLAYER
100
AcDbLine
 10
-23.8873999999999995
 20
-54.900500000000001
 30
0.0
 11
-23.8719000000000001
 21
-54.852800000000002
 31
0.0
  0
LINE
  5
297
100
AcDbEntity
  8
0
 62
256
370
-1
 48
1.0
  6
BYLAYER
100
AcDbLine
 10
-23.8719000000000001
 20
-54.852800000000002
 30
0.0
 11
-23.8505000000000003
 21
-54.8072999999999979
 31
0.0
  0
LINE
  5
298
100
AcDbEntity
  8
0
 62
256
370
-1
 48
1.0
  6
BYLAYER
100
AcDbLine
 10
-23.8505000000000003
 20
-54.8072999999999979
 30
0.0
 11
-23.823599999999999
 21
-54.7648999999999972
 31
0.0
  0
LINE
  5
299
100
AcDbEntity
  8
0
 62
256
370
-1
 48
1.0
  6
BYLAYER
100
AcDbLine
 10
-23.823599999999999
 20
-54.7648999999999972
 30
0.0
 11
-23.791599999999999
 21
-54.7261999999999986
 31
0.0
  0
LINE
  5
29A
100
AcDbEntity
  8
0
 62
256
370
-1
 48
1.0
  6
BYLAYER
100
AcDbLine
 10
-23.791599999999999
 20
-54.7261999999999986
 30
0.0
 11
-23.754999999999999
 21
-54.6918000000000006
 31
0.0
  0
LINE
  5
29B
100
AcDbEntity
  8
0
 62
256
370
-1
 48
1.0
  6
BYLAYER
100
AcDbLine
 10
-23.754999999999999
 20
-54.6918000000000006
 30
0.0
 11
-23.7143000000000015
 21
-54.6623000000000019
 31
0.0
  0
LINE
  5
29C
100
AcDbEntity
  8
0
 62
256
370
-1
 48
1.0
  6
BYLAYER
100
AcDbLine
 10
-23.7143000000000015
 20
-54.6623000000000019
 30
0.0
 11
-23.670300000000001
 21
-54.6381000000000014
 31
0.0
  0
LINE
  5
29D
100
AcDbEntity
  8
0
 62
256
370
-1
 48
1.0
  6
BYLAYER
100
AcDbLine
 10
-23.670300000000001
 20
-54.6381000000000014
 30
0.0
 11
-23.6235999999999997
 21
-54.6195999999999984
 31
0.0
  0
LINE
  5
29E
100
AcDbEntity
  8
0
 62
256
370
-1
 48
1.0
  6
BYLAYER
100
AcDbLine
 10
-23.6235999999999997
 20
-54.6195999999999984
 30
0.0
 11
-23.5749999999999993
 21
-54.6071000000000026
 31
0.0
  0
LINE
  5
29F
100
AcDbEntity
  8
0
 62
256
370
-1
 48
1.0
  6
BYLAYER
100
AcDbLine
 10
-23.5749999999999993
 20
-54.6071000000000026
 30
0.0
 11
-23.5250999999999983
 21
-54.6007999999999996
 31
0.0
  0
LINE
  5
2A0
100
AcDbEntity
  8
0
 62
256
370
-1
 48
1.0
  6
BYLAYER
100
AcDbLine
 10
-23.5250999999999983
 20
-54.6007999999999996
 30
0.0
 11
23.5250999999999983
 21
-54.6007999999999996
 31
0.0
  0
LINE
  5
2A1
100
AcDbEntity
  8
0
 62
256
370
-1
 48
1.0
  6
BYLAYER
100
AcDbLine
 10
23.5250999999999983
 20
-54.6007999999999996
 30
0.0
 11
23.5749999999999993
 21
-54.6071000000000026
 31
0.0
  0
LINE
  5
2A2
100
AcDbEntity
  8
0
 62
256
370
-1
 48
1.0
  6
BYLAYER
100
AcDbLine
 10
23.5749999999999993
 20
-54.6071000000000026
 30
0.0
 11
23.6235999999999997
 21
-54.6195999999999984
 31
0.0
  0
LINE
  5
2A3
100
AcDbEntity
  8
0
 62
256
370
-1
 48
1.0
  6
BYLAYER
100
AcDbLine
 10
23.6235999999999997
 20
-54.6195999999999984
 30
0.0
 11
23.670300000000001
 21
-54.6381000000000014
 31
0.0
  0
LINE
  5
2A4
100
AcDbEntity
  8
0
 62
256
370
-1
 48
1.0
  6
BYLAYER
100
AcDbLine
 10
23.670300000000001
 20
-54.6381000000000014
 30
0.0
 11
23.7143000000000015
 21
-54.6623000000000019
 31
0.0
  0
LINE
  5
2A5
100
AcDbEntity
  8
0
 62
256
370
-1
 48
1.0
  6
BYLAYER
100
AcDbLine
 10
23.7143000000000015
 20
-54.6623000000000019
 30
0.0
 11
23.754999999999999
 21
-54.6918000000000006
 31
0.0
  0
LINE
  5
2A6
100
AcDbEntity
  8
0
 62
256
370
-1
 48
1.0
  6
BYLAYER
100
AcDbLine
 10
23.754999999999999
 20
-54.6918000000000006
 30
0.0
 11
23.791599999999999
 21
-54.7261999999999986
 31
0.0
  0
LINE
  5
2A7
100
AcDbEntity
  8
0
 62
256
370
-1
 48
1.0
  6
BYLAYER
100
AcDbLine
 10
23.791599999999999
 20
-54.7261999999999986
 30
0.0
 11
23.823599999999999
 21
-54.7648999999999972
 31
0.0
  0
LINE
  5
2A8
100
AcDbEntity
  8
0
 62
256
370
-1
 48
1.0
  6
BYLAYER
100
AcDbLine
 10
23.823599999999999
 20
-54.7648999999999972
 30
0.0
 11
23.8505000000000003
 21
-54.8072999999999979
 31
0.0
  0
LINE
  5
2A9
100
AcDbEntity
  8
0
 62
256
370
-1
 48
1.0
  6
BYLAYER
100
AcDbLine
 10
23.8505000000000003
 20
-54.8072999999999979
 30
0.0
 11
23.8719000000000001
 21
-54.852800000000002
 31
0.0
  0
LINE
  5
2AA
100
AcDbEntity
  8
0
 62
256
370
-1
 48
1.0
  6
BYLAYER
100
AcDbLine
 10
23.8719000000000001
 20
-54.852800000000002
 30
0.0
 11
23.8873999999999995
 21
-54.900500000000001
 31
0.0
  0
LINE
  5
2AB
100
AcDbEntity
  8
0
 62
256
370
-1
 48
1.0
  6
BYLAYER
100
AcDbLine
 10
23.8873999999999995
 20
-54.900500000000001
 30
0.0
 11
23.8967999999999989
 21
-54.9498999999999995
 31
0.0
  0
LINE
  5
2AC
100
AcDbEntity
  8
0
 62
256
370
-1
 48
1.0
  6
BYLAYER
100
AcDbLine
 10
23.8967999999999989
 20
-54.9498999999999995
 30
0.0
 11
23.8999999999999986
 21
-55.0
 31
0.0
  0
LINE
  5
2AD
100
AcDbEntity
  8
0
 62
256
370
-1
 48
1.0
  6
BYLAYER
100
AcDbLine
 10
23.8999999999999986
 20
-55.0
 30
0.0
 11
23.8967999999999989
 21
-55.0501000000000005
 31
0.0
  0
LINE
  5
2AE
100
AcDbEntity
  8
0
 62
256
370
-1
 48
1.0
  6
BYLAYER
100
AcDbLine
 10
23.8967999999999989
 20
-55.0501000000000005
 30
0.0
 11
23.8873999999999995
 21
-55.099499999999999
 31
0.0
  0
LINE
  5
2AF
100
AcDbEntity
  8
0
 62
256
370
-1
 48
1.0
  6
BYLAYER
100
AcDbLine
 10
23.8873999999999995
 20
-55.099499999999999
 30
0.0
 11
23.8719000000000001
 21
-55.147199999999998
 31
0.0
  0
LINE
  5
2B0
100
AcDbEntity
  8
0
 62
256
370
-1
 48
1.0
  6
BYLAYER
100
AcDbLine
 10
23.8719000000000001
 20
-55.147199999999998
 30
0.0
 11
23.8505000000000003
 21
-55.1927000000000021
 31
0.0
  0
LINE
  5
2B1
100
AcDbEntity
  8
0
 62
256
370
-1
 48
1.0
  6
BYLAYER
100
AcDbLine
 10
23.8505000000000003
 20
-55.1927000000000021
 30
0.0
 11
23.823599999999999
 21
-55.2351000000000028
 31
0.0
  0
LINE
  5
2B2
100
AcDbEntity
  8
0
 62
256
370
-1
 48
1.0
  6
BYLAYER
100
AcDbLine
 10
23.823599999999999
 20
-55.2351000000000028
 30
0.0
 11
23.791599999999999
 21
-55.2738000000000014
 31
0.0
  0
LINE
  5
2B3
100
AcDbEntity
  8
0
 62
256
370
-1
 48
1.0
  6
BYLAYER
100
AcDbLine
 10
23.791599999999999
 20
-55.2738000000000014
 30
0.0
 11
23.754999999999999
 21
-55.3081999999999994
 31
0.0
  0
LINE
  5
2B4
100
AcDbEntity
  8
0
 62
256
370
-1
 48
1.0
  6
BYLAYER
100
AcDbLine
 10
23.754999999999999
 20
-55.3081999999999994
 30
0.0
 11
23.7143000000000015
 21
-55.3376999999999981
 31
0.0
  0
LINE
  5
2B5
100
AcDbEntity
  8
0
 62
256
370
-1
 48
1.0
  6
BYLAYER
100
AcDbLine
 10
23.7143000000000015
 20
-55.3376999999999981
 30
0.0
 11
23.670300000000001
 21
-55.3618999999999986
 31
0.0
  0
LINE
  5
2B6
100
AcDbEntity
  8
0
 62
256
370
-1
 48
1.0
  6
BYLAYER
100
AcDbLine
 10
23.670300000000001
 20
-55.3618999999999986
 30
0.0
 11
23.6235999999999997
 21
-55.3804000000000016
 31
0.0
  0
LINE
  5
2B7
100
AcDbEntity
  8
0
 62
256
370
-1
 48
1.0
  6
BYLAYER
100
AcDbLine
 10
23.6235999999999997
 20
-55.3804000000000016
 30
0.0
 11
23.5749999999999993
 21
-55.3928999999999974
 31
0.0
  0
LINE
  5
2B8
100
AcDbEntity
  8
0
 62
256
370
-1
 48
1.0
  6
BYLAYER
100
AcDbLine
 10
23.5749999999999993
 20
-55.3928999999999974
 30
0.0
 11
23.5250999999999983
 21
-55.3992000000000004
 31
0.0
  0
ENDSEC
  0
SECTION
  2
OBJECTS
  0
DICTIONARY
  5
C
100
AcDbDictionary
280
0
281
1
  3
ACAD_GROUP
350
D
  3
ACAD_LAYOUT
350
1A
  3
ACAD_MLINESTYLE
350
17
  3
ACAD_PLOTSETTINGS
350
19
  3
ACAD_PLOTSTYLENAME
350
E
  3
AcDbVariableDictionary
350
2B9
  3
QCAD_OBJECTS
350
2BA
  0
DICTIONARY
  5
D
100
AcDbDictionary
280
0
281
1
  0
ACDBDICTIONARYWDFLT
  5
E
100
AcDbDictionary
281
1
  3
Normal
350
F
100
AcDbDictionaryWithDefault
340
F
  0
ACDBPLACEHOLDER
  5
F
  0
DICTIONARY
  5
17
100
AcDbDictionary
280
0
281
1
  3
Standard
350
18
  0
MLINESTYLE
  5
18
100
AcDbMlineStyle
  2
STANDARD
 70
0
  3

 62
256
 51
90.0
 52
90.0
 71
2
 49
0.5
 62
256
  6
BYLAYER
 49
-0.5
 62
256
  6
BYLAYER
  0
DICTIONARY
  5
19
100
AcDbDictionary
280
0
281
1
  0
DICTIONARY
  5
1A
100
AcDbDictionary
281
1
  3
Layout1
350
1E
  3
Layout2
350
26
  3
Model
350
22
  0
LAYOUT
  5
1E
100
AcDbPlotSettings
  1

  2
none_device
  4

  6

 40
0.0
 41
0.0
 42
0.0
 43
0.0
 44
0.0
 45
0.0
 46
0.0
 47
0.0
 48
0.0
 49
0.0
140
0.0
141
0.0
142
1.0
143
1.0
 70
688
 72
0
 73
0
 74
5
  7

 75
16
147
1.0
148
0.0
149
0.0
100
AcDbLayout
  1
Layout1
 70
1
 71
1
 10
0.0
 20
0.0
 11
420.0
 21
297.0
 12
0.0
 22
0.0
 32
0.0
 14
100000000000000000000.0
 24
100000000000000000000.0
 34
100000000000000000000.0
 15
-100000000000000000000.0
 25
-100000000000000000000.0
 35
-100000000000000000000.0
146
0.0
 13
0.0
 23
0.0
 33
0.0
 16
1.0
 26
0.0
 36
0.0
 17
0.0
 27
1.0
 37
0.0
 76
0
330
1B
  0
LAYOUT
  5
22
100
AcDbPlotSettings
  1

  2
none_device
  4

  6

 40
0.0
 41
0.0
 42
0.0
 43
0.0
 44
0.0
 45
0.0
 46
0.0
 47
0.0
 48
0.0
 49
0.0
140
0.0
141
0.0
142
1.0
143
1.0
 70
1712
 72
0
 73
0
 74
0
  7

 75
0
147
1.0
148
0.0
149
0.0
100
AcDbLayout
  1
Model
 70
1
 71
0
 10
0.0
 20
0.0
 11
12.0
 21
9.0
 12
0.0
 22
0.0
 32
0.0
 14
0.0
 24
0.0
 34
0.0
 15
0.0
 25
0.0
 35
0.0
146
0.0
 13
0.0
 23
0.0
 33
0.0
 16
1.0
 26
0.0
 36
0.0
 17
0.0
 27
1.0
 37
0.0
 76
0
330
1F
  0
LAYOUT
  5
26
100
AcDbPlotSettings
  1

  2
none_device
  4

  6

 40
0.0
 41
0.0
 42
0.0
 43
0.0
 44
0.0
 45
0.0
 46
0.0
 47
0.0
 48
0.0
 49
0.0
140
0.0
141
0.0
142
1.0
143
1.0
 70
688
 72
0
 73
0
 74
5
  7

 75
16
147
1.0
148
0.0
149
0.0
100
AcDbLayout
  1
Layout2
 70
1
 71
2
 10
0.0
 20
0.0
 11
12.0
 21
9.0
 12
0.0
 22
0.0
 32
0.0
 14
0.0
 24
0.0
 34
0.0
 15
0.0
 25
0.0
 35
0.0
146
0.0
 13
0.0
 23
0.0
 33
0.0
 16
1.0
 26
0.0
 36
0.0
 17
0.0
 27
1.0
 37
0.0
 76
0
330
23
  0
DICTIONARY
  5
2B9
100
AcDbDictionary
281
1
  3
DIMASSOC
350
2BC
  3
HIDETEXT
350
2BB
  0
DICTIONARYVAR
  5
2BB
100
DictionaryVariables
280
0
  1
2
  0
DICTIONARYVAR
  5
2BC
100
DictionaryVariables
280
0
  1
1
  0
DICTIONARY
  5
2BA
100
AcDbDictionary
281
1
  3
ColorSettings/BackgroundColor
350
2BD
  3
ColorSettings/ColorMode
350
2BE
  3
Grid/DisplayGrid00
350
2BF
  3
Grid/DisplayGrid01
350
2C0
  3
Grid/DisplayGrid02
350
2C1
  3
Grid/DisplayGrid03
350
2C2
  3
Grid/GridSpacingX00
350
2C3
  3
Grid/GridSpacingX01
350
2C4
  3
Grid/GridSpacingX02
350
2C5
  3
Grid/GridSpacingX03
350
2C6
  3
Grid/GridSpacingY00
350
2C7
  3
Grid/GridSpacingY01
350
2C8
  3
Grid/GridSpacingY02
350
2C9
  3
Grid/GridSpacingY03
350
2CA
  3
Grid/IsometricGrid00
350
2CB
  3
Grid/IsometricGrid01
350
2CC
  3
Grid/IsometricGrid02
350
2CD
  3
Grid/IsometricGrid03
350
2CE
  3
Grid/IsometricProjection00
350
2CF
  3
Grid/IsometricProjection01
350
2D0
  3
Grid/IsometricProjection02
350
2D1
  3
Grid/IsometricProjection03
350
2D2
  3
Grid/MetaGridSpacingX00
350
2D3
  3
Grid/MetaGridSpacingX01
350
2D4
  3
Grid/MetaGridSpacingX02
350
2D5
  3
Grid/MetaGridSpacingX03
350
2D6
  3
Grid/MetaGridSpacingY00
350
2D7
  3
Grid/MetaGridSpacingY01
350
2D8
  3
Grid/MetaGridSpacingY02
350
2D9
  3
Grid/MetaGridSpacingY03
350
2DA
  3
MultiPageSettings/Columns
350
2DB
  3
MultiPageSettings/GlueMarginsBottom
350
2DC
  3
MultiPageSettings/GlueMarginsLeft
350
2DD
  3
MultiPageSettings/GlueMarginsRight
350
2DE
  3
MultiPageSettings/GlueMarginsTop
350
2DF
  3
MultiPageSettings/PrintCropMarks
350
2E0
  3
MultiPageSettings/Rows
350
2E1
  3
PageSettings/OffsetX
350
2E2
  3
PageSettings/OffsetY
350
2E3
  3
PageSettings/PageOrientation
350
2E4
  3
PageSettings/PaperHeight
350
2E5
  3
PageSettings/PaperWidth
350
2E6
  3
PageSettings/Scale
350
2E7
  3
PageSettings/ShowPaperBorders
350
2E8
  3
UnitSettings/Measurement
350
2E9
  3
UnitSettings/PaperUnit
350
2EA
  3
ViewportCenter
350
2EB
  3
ViewportHeight
350
2EC
  3
ViewportWidth
350
2ED
  0
XRECORD
  5
2BD
330
2BA
100
AcDbXrecord
280
1
1000
\U+0411\U+0435\U+043b\U+044b\U+0439
  0
XRECORD
  5
2BE
330
2BA
100
AcDbXrecord
280
1
1000
FullColor
  0
XRECORD
  5
2BF
330
2BA
100
AcDbXrecord
280
1
290
1
  0
XRECORD
  5
2C0
330
2BA
100
AcDbXrecord
280
1
290
1
  0
XRECORD
  5
2C1
330
2BA
100
AcDbXrecord
280
1
290
1
  0
XRECORD
  5
2C2
330
2BA
100
AcDbXrecord
280
1
290
1
  0
XRECORD
  5
2C3
330
2BA
100
AcDbXrecord
280
1
1000
auto
  0
XRECORD
  5
2C4
330
2BA
100
AcDbXrecord
280
1
1000
auto
  0
XRECORD
  5
2C5
330
2BA
100
AcDbXrecord
280
1
1000
auto
  0
XRECORD
  5
2C6
330
2BA
100
AcDbXrecord
280
1
1000
auto
  0
XRECORD
  5
2C7
330
2BA
100
AcDbXrecord
280
1
1000
auto
  0
XRECORD
  5
2C8
330
2BA
100
AcDbXrecord
280
1
1000
auto
  0
XRECORD
  5
2C9
330
2BA
100
AcDbXrecord
280
1
1000
auto
  0
XRECORD
  5
2CA
330
2BA
100
AcDbXrecord
280
1
1000
auto
  0
XRECORD
  5
2CB
330
2BA
100
AcDbXrecord
280
1
290
0
  0
XRECORD
  5
2CC
330
2BA
100
AcDbXrecord
280
1
290
0
  0
XRECORD
  5
2CD
330
2BA
100
AcDbXrecord
280
1
290
0
  0
XRECORD
  5
2CE
330
2BA
100
AcDbXrecord
280
1
290
0
  0
XRECORD
  5
2CF
330
2BA
100
AcDbXrecord
280
1
 90
65537
  0
XRECORD
  5
2D0
330
2BA
100
AcDbXrecord
280
1
 90
65537
  0
XRECORD
  5
2D1
330
2BA
100
AcDbXrecord
280
1
 90
65537
  0
XRECORD
  5
2D2
330
2BA
100
AcDbXrecord
280
1
 90
65537
  0
XRECORD
  5
2D3
330
2BA
100
AcDbXrecord
280
1
1000
auto
  0
XRECORD
  5
2D4
330
2BA
100
AcDbXrecord
280
1
1000
auto
  0
XRECORD
  5
2D5
330
2BA
100
AcDbXrecord
280
1
1000
auto
  0
XRECORD
  5
2D6
330
2BA
100
AcDbXrecord
280
1
1000
auto
  0
XRECORD
  5
2D7
330
2BA
100
AcDbXrecord
280
1
1000
auto
  0
XRECORD
  5
2D8
330
2BA
100
AcDbXrecord
280
1
1000
auto
  0
XRECORD
  5
2D9
330
2BA
100
AcDbXrecord
280
1
1000
auto
  0
XRECORD
  5
2DA
330
2BA
100
AcDbXrecord
280
1
1000
auto
  0
XRECORD
  5
2DB
330
2BA
100
AcDbXrecord
280
1
 90
1
  0
XRECORD
  5
2DC
330
2BA
100
AcDbXrecord
280
1
 40
10.0
  0
XRECORD
  5
2DD
330
2BA
100
AcDbXrecord
280
1
 40
10.0
  0
XRECORD
  5
2DE
330
2BA
100
AcDbXrecord
280
1
 40
10.0
  0
XRECORD
  5
2DF
330
2BA
100
AcDbXrecord
280
1
 40
10.0
  0
XRECORD
  5
2E0
330
2BA
100
AcDbXrecord
280
1
290
0
  0
XRECORD
  5
2E1
330
2BA
100
AcDbXrecord
280
1
 90
1
  0
XRECORD
  5
2E2
330
2BA
100
AcDbXrecord
280
1
 40
0.0
  0
XRECORD
  5
2E3
330
2BA
100
AcDbXrecord
280
1
 40
0.0
  0
XRECORD
  5
2E4
330
2BA
100
AcDbXrecord
280
1
1000
Portrait
  0
XRECORD
  5
2E5
330
2BA
100
AcDbXrecord
280
1
 40
297.0
  0
XRECORD
  5
2E6
330
2BA
100
AcDbXrecord
280
1
 40
210.0
  0
XRECORD
  5
2E7
330
2BA
100
AcDbXrecord
280
1
1000
1:1
  0
XRECORD
  5
2E8
330
2BA
100
AcDbXrecord
280
1
290
1
  0
XRECORD
  5
2E9
330
2BA
100
AcDbXrecord
280
1
 90
1
  0
XRECORD
  5
2EA
330
2BA
100
AcDbXrecord
280
1
 90
4
  0
XRECORD
  5
2EC
330
2BA
100
AcDbXrecord
280
1
 40
22.3794765840220364
  0
XRECORD
  5
2ED
330
2BA
100
AcDbXrecord
280
1
 40
52.5571625344352569
  0
ENDSEC
  0
EOF
