999
DXF generated by OpenJsCad
  0
SECTION
  2
HEADER
  0
ENDSEC
  0
SECTION
  2
TABLES
  0
TABLE
  2
LTYPE
  70
1
  0
LTYPE
  2
CONTINUOUS
  3
Solid Line
  72
65
  73
0
  40
0.0
  0
ENDTAB
  0
TABLE
  2
LAYER
  70
1
  0
LAYER
  2
OpenJsCad
  62
7
  6
continuous
  0
ENDTAB
  0
TABLE
  2
STYLE
  70
0
  0
ENDTAB
  0
TABLE
  2
VIEW
  70
0
  0
ENDTAB
  0
ENDSEC
  0
SECTION
  2
BLOCKS
  0
ENDSEC
  0
SECTION
  2
ENTITIES
  0
LWPOLYLINE
  8
OpenJsCad
  90
856
  70
1
 10
8.50677606234867
 20
-1.3216876034814287
 30
0.0
 10
8.532809858989864
 20
-1.1992082199392304
 30
0.0
 10
8.541544460900502
 20
-1.0742975931299248
 30
0.0
 10
8.409628986265897
 20
-0.9954049576962536
 30
0.0
 10
8.28251848614386
 20
-0.9272058987162064
 30
0.0
 10
8.16763127518135
 20
-0.8722883627164719
 30
0.0
 10
8.06589486755902
 20
-0.8293514642521858
 30
0.0
 10
7.978141503016218
 20
-0.7970383315455702
 30
0.0
 10
7.853085679397009
 20
-0.7574922383461905
 30
0.0
 10
7.8182737369302275
 20
-0.7381707500236441
 30
0.0
 10
7.8022483554589845
 20
-0.7180819218625456
 30
0.0
 10
7.826255098611506
 20
-0.37476950012898
 30
0.0
 10
7.84492034668156
 20
-0.3571064770953664
 30
0.0
 10
7.882082533162497
 20
-0.3428179101536585
 30
0.0
 10
8.011425074523777
 20
-0.3210610835803655
 30
0.0
 10
8.102821548236017
 20
-0.30127532792327444
 30
0.0
 10
8.209543525437752
 20
-0.27291525973262143
 30
0.0
 10
8.330955705743158
 20
-0.23452138682820828
 30
0.0
 10
8.466320649734506
 20
-0.1846763988693679
 30
0.0
 10
8.607932064756028
 20
-0.12491062680930543
 30
0.0
 10
8.616666666666669
 20
1.1102230246251565e-16
 30
0.0
 10
8.607932064756023
 20
0.12491062680930498
 30
0.0
 10
8.46632064973627
 20
0.18467639886862283
 30
0.0
 10
8.330955705742834
 20
0.23452138682821805
 30
0.0
 10
8.209543525437715
 20
0.27291525973241476
 30
0.0
 10
8.102821548235962
 20
0.3012753279230596
 30
0.0
 10
8.011425074524073
 20
0.3210610835803291
 30
0.0
 10
7.88208253316238
 20
0.34281791015295265
 30
0.0
 10
7.844920346681644
 20
0.3571064770957883
 30
0.0
 10
7.826255098611436
 20
0.3747695001287396
 30
0.0
 10
7.8022483554590885
 20
0.7180819218623173
 30
0.0
 10
7.818273736930085
 20
0.73817075002405
 30
0.0
 10
7.853085679397225
 20
0.7574922383455078
 30
0.0
 10
7.978141503015929
 20
0.7970383315454928
 30
0.0
 10
8.065894867559106
 20
0.8293514642519806
 30
0.0
 10
8.167631275181417
 20
0.8722883627162729
 30
0.0
 10
8.282518486144179
 20
0.9272058987162611
 30
0.0
 10
8.409628986264256
 20
0.9954049576952704
 30
0.0
 10
8.54154446090051
 20
1.0742975931299252
 30
0.0
 10
8.532809858989872
 20
1.1992082199392313
 30
0.0
 10
8.506776062348669
 20
1.3216876034814236
 30
0.0
 10
8.35822501205653
 20
1.3611632393958117
 30
0.0
 10
8.217240348851185
 20
1.3916839803421546
 30
0.0
 10
8.091666349188786
 20
1.4128068970871168
 30
0.0
 10
7.982036024299394
 20
1.4260381385358891
 30
0.0
 10
7.888775369817272
 20
1.4329114099159066
 30
0.0
 10
7.757663616155739
 20
1.4364554979805617
 30
0.0
 10
7.718874505349537
 20
1.445433032841148
 30
0.0
 10
7.697932688502645
 20
1.4603264600940067
 30
0.0
 10
7.626379722993622
 20
1.7969566960506442
 30
0.0
 10
7.639453322043831
 20
1.8190803231510313
 30
0.0
 10
7.671237445635047
 20
1.8430586620599294
 30
0.0
 10
7.78957248215333
 20
1.8996243021654826
 30
0.0
 10
7.871974718104579
 20
1.943835873548879
 30
0.0
 10
7.966745372696549
 20
2.0005138843982007
 30
0.0
 10
8.072871465437546
 20
2.070886176123296
 30
0.0
 10
8.18925346038756
 20
2.1561118890147273
 30
0.0
 10
8.308905409976376
 20
2.252595832414282
 30
0.0
 10
8.282871613335184
 20
2.375075215956476
 30
0.0
 10
8.240045340202055
 20
2.4927394343491454
 30
0.0
 10
8.087446031857144
 20
2.511156585768398
 30
0.0
 10
7.9435857555415055
 20
2.5217590281957967
 30
0.0
 10
7.8162940915869505
 20
2.5251998552340456
 30
0.0
 10
7.705889248581244
 20
2.523044738876458
 30
0.0
 10
7.61257962588596
 20
2.5168717455700427
 30
0.0
 10
7.4822506010722
 20
2.5021341134838906
 30
0.0
 10
7.442589551860415
 20
2.505625878757961
 30
0.0
 10
7.419778774880799
 20
2.517459826610273
 30
0.0
 10
7.302072284098443
 20
2.840855752158292
 30
0.0
 10
7.311939637993351
 20
2.864583566961077
 30
0.0
 10
7.340077300896844
 20
2.89275204536551
 30
0.0
 10
7.449388293432988
 20
2.965236246534439
 30
0.0
 10
7.524835535000674
 20
3.0204857286476834
 30
0.0
 10
7.6107958335706885
 20
3.089801678871135
 30
0.0
 10
7.706095184411356
 20
3.174259009710203
 30
0.0
 10
7.809483431042166
 20
3.2748525549554364
 30
0.0
 10
7.914542966486869
 20
3.3870498561104747
 30
0.0
 10
7.871716693353739
 20
3.5047140745031427
 30
0.0
 10
7.812931508421052
 20
3.6152729275763376
 30
0.0
 10
7.659254113981172
 20
3.6122731255972815
 30
0.0
 10
7.515318301195085
 20
3.6027509050239854
 30
0.0
 10
7.3887865603951255
 20
3.588442670571104
 30
0.0
 10
7.279756103958564
 20
3.5709431432956498
 30
0.0
 10
7.18821367871776
 20
3.5518440355958343
 30
0.0
 10
7.061204088972703
 20
3.5191115346036246
 30
0.0
 10
7.021443058564468
 20
3.5170495670519437
 30
0.0
 10
6.997207307279163
 20
3.525593701169679
 30
0.0
 10
6.835638314177404
 20
3.8294607824757008
 30
0.0
 10
6.842107366097395
 20
3.8543309500557372
 30
0.0
 10
6.866050900710866
 20
3.8861413005647316
 30
0.0
 10
6.964210235134565
 20
3.97313324027084
 30
0.0
 10
7.031233987581537
 20
4.038345264789951
 30
0.0
 10
7.106710810696324
 20
4.118949998262158
 30
0.0
 10
7.189328526173955
 20
4.215848502339207
 30
0.0
 10
7.277710689867276
 20
4.329851941003507
 30
0.0
 10
7.366132946813894
 20
4.455578807069587
 30
0.0
 10
7.307347761881201
 20
4.566137660142781
 30
0.0
 10
7.233747851906509
 20
4.667439245580265
 30
0.0
 10
7.081983527048981
 20
4.643080877936193
 30
0.0
 10
6.9407737246637655
 20
4.613619333554298
 30
0.0
 10
6.817464703425351
 20
4.581840531118535
 30
0.0
 10
6.711930787372167
 20
4.549337201318212
 30
0.0
 10
6.62393732876519
 20
4.517683721631462
 30
0.0
 10
6.502719271281957
 20
4.4675934526323395
 30
0.0
 10
6.4636321629066655
 20
4.460017886107846
 30
0.0
 10
6.438443158646682
 20
4.465105904639213
 30
0.0
 10
6.23615641989424
 20
4.7435297146092985
 30
0.0
 10
6.239101257102128
 20
4.7690581654440365
 30
0.0
 10
6.258384629759694
 20
4.803891235768671
 30
0.0
 10
6.343481746280977
 20
4.903697714857446
 30
0.0
 10
6.400777468504245
 20
4.97760300390274
 30
0.0
 10
6.464301745655487
 20
5.06792764117319
 30
0.0
 10
6.5326297659145665
 20
5.175381299326774
 30
0.0
 10
6.604285588387333
 20
5.300575684153527
 30
0.0
 10
6.674349528183228
 20
5.437384984694868
 30
0.0
 10
6.600749618208529
 20
5.538686570132349
 30
0.0
 10
6.513767521720828
 20
5.628759167802423
 30
0.0
 10
6.3668701863996455
 20
5.583516342412298
 30
0.0
 10
6.231134882594961
 20
5.5346889096711855
 30
0.0
 10
6.113448650754566
 20
5.486058077494103
 30
0.0
 10
6.0134653727176826
 20
5.439183585511486
 30
0.0
 10
5.9307335733252415
 20
5.395591832814603
 30
0.0
 10
5.817666419709248
 20
5.329118745917799
 30
0.0
 10
5.7800140194704985
 20
5.3161770302058144
 30
0.0
 10
5.754362037551688
 20
5.317709900657634
 30
0.0
 10
5.515294834420625
 20
5.565271236533103
 30
0.0
 10
5.51465813900986
 20
5.590961088365228
 30
0.0
 10
5.528906020797253
 20
5.628138892413666
 30
0.0
 10
5.59928460083957
 20
5.7388172912978295
 30
0.0
 10
5.6457370967789755
 20
5.81997736248406
 30
0.0
 10
5.696072400169719
 20
5.918263837231036
 30
0.0
 10
5.748780798017875
 20
6.034181186231921
 30
0.0
 10
5.802315580192943
 20
6.168129750926977
 30
0.0
 10
5.852657487946538
 20
6.313358648526814
 30
0.0
 10
5.765675391458835
 20
6.403431246196887
 30
0.0
 10
5.667004116025584
 20
6.480521695441956
 30
0.0
 10
5.527832959779537
 20
6.415275012439052
 30
0.0
 10
5.40021408784732
 20
6.348032061776646
 30
0.0
 10
5.290441274041614
 20
6.283495743689818
 30
0.0
 10
5.197954694798725
 20
6.223162448192404
 30
0.0
 10
5.1220948349899675
 20
6.1684808863667495
 30
0.0
 10
5.019379308774367
 20
6.086918804596696
 30
0.0
 10
4.983894477813836
 20
6.0688628354725696
 30
0.0
 10
4.958278804885554
 20
6.066810722265112
 30
0.0
 10
4.687084308549901
 20
6.278691084239997
 30
0.0
 10
4.682878473072424
 20
6.304042313325369
 30
0.0
 10
4.691813545177378
 20
6.342841227430933
 30
0.0
 10
4.746103749734653
 20
6.462237316971017
 30
0.0
 10
4.780808874395666
 20
6.5490724818307555
 30
0.0
 10
4.816975484600969
 20
6.653407759622516
 30
0.0
 10
4.853038351029001
 20
6.7755326001264295
 30
0.0
 10
4.887410099266246
 20
6.915628188242234
 30
0.0
 10
4.917050127006176
 20
7.0664499676041945
 30
0.0
 10
4.818378851572933
 20
7.143540416849272
 30
0.0
 10
4.709938921333549
 20
7.206148239763891
 30
0.0
 10
4.581202752414115
 20
7.122167651615848
 30
0.0
 10
4.464184268532214
 20
7.037817990579072
 30
0.0
 10
4.364461475717198
 20
6.958632312605085
 30
0.0
 10
4.281271741331343
 20
6.886014532561624
 30
0.0
 10
4.213760346988134
 20
6.82130747600878
 30
0.0
 10
4.123395689053535
 20
6.726243912511636
 30
0.0
 10
4.090769099242472
 20
6.7034251288760105
 30
0.0
 10
4.065688315240869
 20
6.6978279740586135
 30
0.0
 10
3.7676450180926326
 20
6.8699033518974115
 30
0.0
 10
3.7599519043519476
 20
6.89442252539848
 30
0.0
 10
3.7634002557594317
 20
6.934087372831215
 30
0.0
 10
3.80054538775415
 20
7.059877243955362
 30
0.0
 10
3.8228276453617394
 20
7.15069735477815
 30
0.0
 10
3.844121620452864
 20
7.259050668112097
 30
0.0
 10
3.8628370327866537
 20
7.385005979013579
 30
0.0
 10
3.8773767401039207
 20
7.528521789283827
 30
0.0
 10
3.885737978405275
 20
7.682000876029882
 30
0.0
 10
3.777298048165888
 20
7.744608698944497
 30
0.0
 10
3.6612001230138693
 20
7.791515305470948
 30
0.0
 10
3.5454046445138476
 20
7.69043539879957
 30
0.0
 10
3.441264180364468
 20
7.590620797594185
 30
0.0
 10
3.353532399269291
 20
7.498327018882429
 30
0.0
 10
3.2812587032933713
 20
7.414838176779968
 30
0.0
 10
3.2234098069135286
 20
7.34136507475255
 30
0.0
 10
3.147154862538352
 20
7.234650333658587
 30
0.0
 10
3.118021553335235
 20
7.207512877178947
 30
0.0
 10
3.093963827191933
 20
7.198479623003463
 30
0.0
 10
2.77487280299088
 20
7.327400765209384
 30
0.0
 10
2.7638421486951605
 20
7.350610645304097
 30
0.0
 10
2.76173666116747
 20
7.390369394926819
 30
0.0
 10
2.7810137328573163
 20
7.520104690877455
 30
0.0
 10
2.7904394246128414
 20
7.613142037512472
 30
0.0
 10
2.7964463015861782
 20
7.723404412394629
 30
0.0
 10
2.7974499856131136
 20
7.850738616839021
 30
0.0
 10
2.7918746531461447
 20
7.994881277263619
 30
0.0
 10
2.778794360016145
 20
8.148030375550112
 30
0.0
 10
2.6626964348641313
 20
8.194936982076573
 30
0.0
 10
2.5412002288531417
 20
8.225229388474318
 30
0.0
 10
2.4405992680461277
 20
8.109017568686268
 30
0.0
 10
2.351363799305917
 20
7.9956808049873125
 30
0.0
 10
2.2773306292561752
 20
7.892075318957795
 30
0.0
 10
2.217379696972251
 20
7.799340430140708
 30
0.0
 10
2.1703192615216635
 20
7.718531352995262
 30
0.0
 10
2.1096582464594587
 20
7.602242515353658
 30
0.0
 10
2.0845852645892773
 20
7.5713145857519795
 30
0.0
 10
2.0620188525783987
 20
7.559021054235759
 30
0.0
 10
1.7280908451499402
 20
7.6422786574213895
 30
0.0
 10
1.7139373494378702
 20
7.663727490194551
 30
0.0
 10
1.7063190038947758
 20
7.702806283170763
 30
0.0
 10
1.7073528090066505
 20
7.83396185398392
 30
0.0
 10
1.7037384745416562
 20
7.927405570307329
 30
0.0
 10
1.694341336369639
 20
8.037430875032207
 30
0.0
 10
1.67761375652181
 20
8.163665557570514
 30
0.0
 10
1.6520319017752279
 20
8.305629495224139
 30
0.0
 10
1.6177646702410393
 20
8.455467732057448
 30
0.0
 10
1.4962684642300497
 20
8.485760138455191
 30
0.0
 10
1.371738762810204
 20
8.498848737490794
 30
0.0
 10
1.2882904029664113
 20
8.369766935469261
 30
0.0
 10
1.2156967965305554
 20
8.245113980463476
 30
0.0
 10
1.1568032089697842
 20
8.132213350052266
 30
0.0
 10
1.1103419170815865
 20
8.032037393647006
 30
0.0
 10
1.0749859204058492
 20
7.945465198151208
 30
0.0
 10
1.0310995323139198
 20
7.821865693910062
 30
0.0
 10
1.0105748948486832
 20
7.787749268156043
 30
0.0
 10
0.9899390265111064
 20
7.772434738906367
 30
0.0
 10
0.647673564682359
 20
7.808408288529819
 30
0.0
 10
0.6306727092486109
 20
7.827678596849184
 30
0.0
 10
0.6176897881203688
 20
7.865316808925071
 30
0.0
 10
0.6004602048137055
 20
7.995339860602123
 30
0.0
 10
0.5838761930373082
 20
8.08737117096634
 30
0.0
 10
0.5592579443253697
 20
8.195017888129398
 30
0.0
 10
0.5251246839171742
 20
8.317696034255832
 30
0.0
 10
0.4800342285946922
 20
8.454718082573645
 30
0.0
 10
0.4252470313397333
 20
8.598329027112296
 30
0.0
 10
0.30071732991988454
 20
8.611417626147894
 30
0.0
 10
0.17557796207887932
 20
8.607047663129153
 30
0.0
 10
0.11090643060156473
 20
8.467608309322124
 30
0.0
 10
0.05636763844533481
 20
8.334065390988062
 30
0.0
 10
0.013759930064941524
 20
8.214067098543552
 30
0.0
 10
-0.018307405229861903
 20
8.108399885593084
 30
0.0
 10
-0.041270798872306384
 20
8.017749601057847
 30
0.0
 10
-0.06752836136977718
 20
7.889245153974859
 30
0.0
 10
-0.08310516570823738
 20
7.852604269488945
 30
0.0
 10
-0.10140883666827365
 20
7.834566822397638
 30
0.0
 10
-0.4453499450040056
 20
7.822556134234796
 30
0.0
 10
-0.4648672578466007
 20
7.839272843468581
 30
0.0
 10
-0.48296205676808285
 20
7.874737889658918
 30
0.0
 10
-0.5181196742525804
 20
8.001097671398
 30
0.0
 10
-0.5473505744151872
 20
8.089925291030848
 30
0.0
 10
-0.586710767458712
 20
8.193098199728832
 30
0.0
 10
-0.6375853433394368
 20
8.309832018873369
 30
0.0
 10
-0.7013067648145991
 20
8.439245199545132
 30
0.0
 10
-0.7755475573152781
 20
8.573833628108678
 30
0.0
 10
-0.9006869251562819
 20
8.56946366508996
 30
0.0
 10
-1.0240002639673387
 20
8.547720196376332
 30
0.0
 10
-1.0686362092807442
 20
8.400637319195726
 30
0.0
 10
-1.104058651604984
 20
8.260803698535943
 30
0.0
 10
-1.129551170226925
 20
8.13604337432453
 30
0.0
 10
-1.1466003947228738
 20
8.026941596934261
 30
0.0
 10
-1.1567242289952486
 20
7.933977628034892
 30
0.0
 10
-1.1648418923117823
 20
7.803069431000894
 30
0.0
 10
-1.1751676787453702
 20
7.764617260921213
 30
0.0
 10
-1.190782892192746
 20
7.7442079743786145
 30
0.0
 10
-1.5297052245889198
 20
7.684446822812615
 30
0.0
 10
-1.551359112546495
 20
7.698284561230557
 30
0.0
 10
-1.5742135945827391
 20
7.730886154752141
 30
0.0
 10
-1.6266149432119326
 20
7.851123217133822
 30
0.0
 10
-1.6679237855387394
 20
7.935018217459071
 30
0.0
 10
-1.721259821527814
 20
8.03170917438162
 30
0.0
 10
-1.7878854971305222
 20
8.140226575537357
 30
0.0
 10
-1.8689976197713936
 20
8.259512008206606
 30
0.0
 10
-1.961246994939414
 20
8.382458310125129
 30
0.0
 10
-2.0845603337504692
 20
8.360714841411493
 30
0.0
 10
-2.203647489658467
 20
8.322021078888643
 30
0.0
 10
-2.227379060905075
 20
8.170157479234504
 30
0.0
 10
-2.242995695849914
 20
8.026754858616755
 30
0.0
 10
-2.2508768418357366
 20
7.89966082043645
 30
0.0
 10
-2.2525761117712233
 20
7.78924802060185
 30
0.0
 10
-2.249663337755107
 20
7.695779805248029
 30
0.0
 10
-2.2394831008079525
 20
7.565015837412418
 30
0.0
 10
-2.2443568896491466
 20
7.525500809490876
 30
0.0
 10
-2.256979713216151
 20
7.503116927044319
 30
0.0
 10
-2.5842865319911135
 20
7.396768494913091
 30
0.0
 10
-2.607655526765507
 20
7.40745792667708
 30
0.0
 10
-2.6348248554202662
 20
7.436561514595776
 30
0.0
 10
-2.7034500025487387
 20
7.5483355799684295
 30
0.0
 10
-2.7560327574119663
 20
7.625665040233894
 30
0.0
 10
-2.8223065110749057
 20
7.713992065888844
 30
0.0
 10
-2.903386493409573
 20
7.812180881279002
 30
0.0
 10
-3.0003105620126203
 20
7.919016810684
 30
0.0
 10
-3.108772990692448
 20
8.027927976040017
 30
0.0
 10
-3.2278601466004395
 20
7.98923421351715
 30
0.0
 10
-3.3404032235752563
 20
7.9343432872590585
 30
0.0
 10
-3.3427685127150166
 20
7.78065481735637
 30
0.0
 10
-3.3382753802449128
 20
7.636474365672918
 30
0.0
 10
-3.3283917560526737
 20
7.509520354409574
 30
0.0
 10
-3.314707997071294
 20
7.399945591686725
 30
0.0
 10
-3.2988153085996794
 20
7.307792382371794
 30
0.0
 10
-3.2705353181211647
 20
7.179717815626683
 30
0.0
 10
-3.2698622466140237
 20
7.139909044934095
 30
0.0
 10
-3.279246991398174
 20
7.115986243394112
 30
0.0
 10
-3.5885676416304593
 20
6.965120481959542
 30
0.0
 10
-3.613196892320225
 20
6.972453549439341
 30
0.0
 10
-3.644152247515887
 20
6.997492663521152
 30
0.0
 10
-3.727665482714731
 20
7.098628176843413
 30
0.0
 10
-3.7904986866029637
 20
7.167886967065985
 30
0.0
 10
-3.868420214709996
 20
7.246130876369465
 30
0.0
 10
-3.9623763741475915
 20
7.332079972390597
 30
0.0
 10
-4.073225871966951
 20
7.424386958689541
 30
0.0
 10
-4.195790256358519
 20
7.517143155534013
 30
0.0
 10
-4.308333333333338
 20
7.462252229275919
 30
0.0
 10
-4.4121418083975055
 20
7.392232528724697
 30
0.0
 10
-4.393094777767789
 20
7.239710559822074
 30
0.0
 10
-4.368579331595411
 20
7.097558585562103
 30
0.0
 10
-4.341123310727556
 20
6.973215616636914
 30
0.0
 10
-4.312322861632838
 20
6.8666116391427705
 30
0.0
 10
-4.283759591809161
 20
6.777567093263323
 30
0.0
 10
-4.2379302856459375
 20
6.654674753367744
 30
0.0
 10
-4.23172345436174
 20
6.615347072343836
 30
0.0
 10
-4.237687456980802
 20
6.590350981830621
 30
0.0
 10
-4.523001364060663
 20
6.3979043215317715
 30
0.0
 10
-4.548411490316482
 20
6.401738294910125
 30
0.0
 10
-4.582550361275358
 20
6.42222557728102
 30
0.0
 10
-4.679326194416325
 20
6.510754050826012
 30
0.0
 10
-4.751186870487588
 20
6.570594127434715
 30
0.0
 10
-4.839239519128534
 20
6.637231991693259
 30
0.0
 10
-4.944243105899153
 20
6.709268466956961
 30
0.0
 10
-5.066860473549205
 20
6.785249859659186
 30
0.0
 10
-5.201141237325248
 20
6.860045694129137
 30
0.0
 10
-5.304949712389426
 20
6.790025993577926
 30
0.0
 10
-5.39800307165622
 20
6.7062403725585895
 30
0.0
 10
-5.357914450042557
 20
6.557853571289543
 30
0.0
 10
-5.313853855441742
 20
6.42049690093655
 30
0.0
 10
-5.269359838113704
 20
6.301185168801614
 30
0.0
 10
-5.2260032668872505
 20
6.199626901697874
 30
0.0
 10
-5.185325367268389
 20
6.115424170052783
 30
0.0
 10
-5.1228387607348616
 20
6.00010601661484
 30
0.0
 10
-5.11121897858439
 20
5.962024893836166
 30
0.0
 10
-5.113646156511335
 20
5.936442034818927
 30
0.0
 10
-5.369400009777221
 20
5.706160230993684
 30
0.0
 10
-5.395096432395115
 20
5.706420486339864
 30
0.0
 10
-5.4317543448263805
 20
5.721957175352431
 30
0.0
 10
-5.53990914439826
 20
5.796155503082248
 30
0.0
 10
-5.619398606333134
 20
5.84541214705297
 30
0.0
 10
-5.715868530860602
 20
5.899146936038235
 30
0.0
 10
-5.829875769587562
 20
5.955868682493773
 30
0.0
 10
-5.961874399482188
 20
6.014045590217882
 30
0.0
 10
-6.105257920317911
 20
6.069425246474358
 30
0.0
 10
-6.198311279584712
 20
5.985639625455032
 30
0.0
 10
-6.278798345262635
 20
5.889718875775991
 30
0.0
 10
-6.2184484120846
 20
5.748355422439742
 30
0.0
 10
-6.155700258411071
 20
5.61846754734125
 30
0.0
 10
-6.095034270058944
 20
5.506509319147489
 30
0.0
 10
-6.037965463042309
 20
5.411973478582509
 30
0.0
 10
-5.98596468267392
 20
5.33425147156406
 30
0.0
 10
-5.9080370064888035
 20
5.228752041267967
 30
0.0
 10
-5.891230439314309
 20
5.192658682472781
 30
0.0
 10
-5.890073550291663
 20
5.166986996202216
 30
0.0
 10
-6.1112893919054505
 20
4.903352222220368
 30
0.0
 10
-6.136771959248409
 20
4.900033693960097
 30
0.0
 10
-6.1752354085843475
 20
4.910317385635429
 30
0.0
 10
-6.292664064437734
 20
4.9687413815001555
 30
0.0
 10
-6.378235140277581
 20
5.0064558682866105
 30
0.0
 10
-6.4812446633435545
 20
5.046241695453413
 30
0.0
 10
-6.602036532806348
 20
5.086544688826063
 30
0.0
 10
-6.740847221760864
 20
5.125784764238458
 30
0.0
 10
-6.890542702519539
 20
5.160670340265848
 30
0.0
 10
-6.971029768197465
 20
5.064749590586816
 30
0.0
 10
-7.037383951105769
 20
4.958560700532337
 30
0.0
 10
-6.957947349165646
 20
4.82697207394953
 30
0.0
 10
-6.87773295785569
 20
4.707081113849064
 30
0.0
 10
-6.80207579293621
 20
4.6046555291576725
 30
0.0
 10
-6.732405529543168
 20
4.518982147735126
 30
0.0
 10
-6.670094004465111
 20
4.449253635802458
 30
0.0
 10
-6.57824203220393
 20
4.355626355055104
 30
0.0
 10
-6.556575800718276
 20
4.322223276416768
 30
0.0
 10
-6.551857362274925
 20
4.296962433065025
 30
0.0
 10
-6.734229477508893
 20
4.005106039922019
 30
0.0
 10
-6.759002200389575
 20
3.9982733194331117
 30
0.0
 10
-6.798522539340388
 20
4.003103853410273
 30
0.0
 10
-6.92293943626221
 20
4.044616360786715
 30
0.0
 10
-7.012926582351462
 20
4.070054620803196
 30
0.0
 10
-7.120470740761059
 20
4.095117100281443
 30
0.0
 10
-7.245696164619309
 20
4.11821688864918
 30
0.0
 10
-7.388617120468034
 20
4.137756368316882
 30
0.0
 10
-7.5417109088927745
 20
4.151468856059569
 30
0.0
 10
-7.608065091801087
 20
4.045279966005093
 30
0.0
 10
-7.658994883246244
 20
3.93088978153202
 30
0.0
 10
-7.562017755642988
 20
3.8116372046392404
 30
0.0
 10
-7.4658984085809355
 20
3.704076700701211
 30
0.0
 10
-7.376722647750512
 20
3.6131773570108314
 30
0.0
 10
-7.295806980409257
 20
3.53803396964808
 30
0.0
 10
-7.224397533578868
 20
3.4776561389709593
 30
0.0
 10
-7.120409059401616
 20
3.3977233562926386
 30
0.0
 10
-7.094304872155699
 20
3.367660710741407
 30
0.0
 10
-7.0861167233287965
 20
3.3433023838905434
 30
0.0
 10
-7.226095446405121
 20
3.0289050242971807
 30
0.0
 10
-7.24967615195121
 20
3.018691102711851
 30
0.0
 10
-7.289484162072936
 20
3.017974458141628
 30
0.0
 10
-7.4184676666867375
 20
3.041767483293477
 30
0.0
 10
-7.511119385585628
 20
3.0544343897443564
 30
0.0
 10
-7.621104954625073
 20
3.0642857088791504
 30
0.0
 10
-7.748326562445185
 20
3.0697326811370185
 30
0.0
 10
-7.892575991352702
 20
3.069191251314126
 30
0.0
 10
-8.046088290993437
 20
3.0614637527959263
 30
0.0
 10
-8.097018082438586
 20
2.947073568322849
 30
0.0
 10
-8.13153219196187
 20
2.8267085642550303
 30
0.0
 10
-8.018902088174446
 20
2.7221131528137077
 30
0.0
 10
-7.908748639116722
 20
2.628976647899008
 30
0.0
 10
-7.807789987123995
 20
2.551372797538103
 30
0.0
 10
-7.717203847259117
 20
2.488221984795827
 30
0.0
 10
-7.638086382331906
 20
2.4383700211696167
 30
0.0
 10
-7.523985423603307
 20
2.373687537252971
 30
0.0
 10
-7.493951368908798
 20
2.3475504599887462
 30
0.0
 10
-7.482452882701378
 20
2.3245687567637288
 30
0.0
 10
-7.577313686998815
 20
1.9937498177027975
 30
0.0
 10
-7.599243403599512
 20
1.9803534973865402
 30
0.0
 10
-7.638564267256076
 20
1.9741036229403206
 30
0.0
 10
-7.769603862361107
 20
1.9797140616971622
 30
0.0
 10
-7.863116793751038
 20
1.9793630676567662
 30
0.0
 10
-7.973403029425708
 20
1.9738114817268588
 30
0.0
 10
-8.1001445973239
 20
1.961499618755696
 30
0.0
 10
-8.242914848237815
 20
1.9408878177578435
 30
0.0
 10
-8.39385771679968
 20
1.911870739947511
 30
0.0
 10
-8.428371826322966
 20
1.7915057358796964
 30
0.0
 10
-8.445798476041732
 20
1.6675086801081562
 30
0.0
 10
-8.319707612925518
 20
1.5796062648264777
 30
0.0
 10
-8.197664073460341
 20
1.5027065550620677
 30
0.0
 10
-8.086887575627582
 20
1.4399086687048408
 30
0.0
 10
-7.988394119411344
 20
1.3899795893200837
 30
0.0
 10
-7.903108567847339
 20
1.3516238045110005
 30
0.0
 10
-7.781115969941129
 20
1.3034505903302316
 30
0.0
 10
-7.747736626509424
 20
1.281747809831478
 30
0.0
 10
-7.733151607876182
 20
1.2605900429442807
 30
0.0
 10
-7.781048135741648
 20
0.9197885387636371
 30
0.0
 10
-7.8009000264080015
 20
0.9034705638533193
 30
0.0
 10
-7.838968407715146
 20
0.8918091062280722
 30
0.0
 10
-7.969513556648018
 20
0.8791277577812842
 30
0.0
 10
-8.062067577688868
 20
0.8657656949493587
 30
0.0
 10
-8.17050788387009
 20
0.84491925926004
 30
0.0
 10
-8.294302531393619
 20
0.8150881974680436
 30
0.0
 10
-8.43281474377865
 20
0.7748072105560783
 30
0.0
 10
-8.578250250020053
 20
0.7250653378667551
 30
0.0
 10
-8.595676899738825
 20
0.6010682820952137
 30
0.0
 10
-8.59567689973882
 20
0.475852636265984
 30
0.0
 10
-8.458579492518139
 20
0.40635413766989176
 30
0.0
 10
-8.327021301318732
 20
0.3471879884342128
 30
0.0
 10
-8.208583096169857
 20
0.30041835550707013
 30
0.0
 10
-8.104099386692864
 20
0.2646828222165705
 30
0.0
 10
-8.01430573474238
 20
0.23856976794686463
 30
0.0
 10
-7.886795944812278
 20
0.20784346031978226
 30
0.0
 10
-7.850721003594835
 20
0.1909973965223609
 30
0.0
 10
-7.833333333333253
 20
0.17207537783884028
 30
0.0
 10
-7.83333333333334
 20
-0.17207537783860502
 30
0.0
 10
-7.850721003594721
 20
-0.1909973965227755
 30
0.0
 10
-7.886795944812445
 20
-0.2078434603190861
 30
0.0
 10
-8.014305734742086
 20
-0.2385697679468074
 30
0.0
 10
-8.104099386692933
 20
-0.2646828222163598
 30
0.0
 10
-8.20858309616991
 20
-0.3004183555068664
 30
0.0
 10
-8.327021301319053
 20
-0.34718798843424487
 30
0.0
 10
-8.458579492516431
 20
-0.4063541376690252
 30
0.0
 10
-8.595676899738791
 20
-0.4758526362659837
 30
0.0
 10
-8.595676899738788
 20
-0.6010682820952148
 30
0.0
 10
-8.578250250020044
 20
-0.7250653378667533
 30
0.0
 10
-8.43281474378046
 20
-0.7748072105554579
 30
0.0
 10
-8.294302531393296
 20
-0.8150881974680307
 30
0.0
 10
-8.170507883870068
 20
-0.844919259259831
 30
0.0
 10
-8.062067577688829
 20
-0.8657656949491404
 30
0.0
 10
-7.969513556648317
 20
-0.879127757781268
 30
0.0
 10
-7.838968407715078
 20
-0.8918091062273594
 30
0.0
 10
-7.800900026408056
 20
-0.9034705638537456
 30
0.0
 10
-7.781048135741594
 20
-0.9197885387633918
 30
0.0
 10
-7.733151607876301
 20
-1.26059004294406
 30
0.0
 10
-7.747736626509253
 20
-1.2817478098318729
 30
0.0
 10
-7.78111596994139
 20
-1.3034505903295652
 30
0.0
 10
-7.903108567847058
 20
-1.3516238045109028
 30
0.0
 10
-7.988394119411443
 20
-1.3899795893198847
 30
0.0
 10
-8.086887575627664
 20
-1.439908668704646
 30
0.0
 10
-8.197664073460656
 20
-1.5027065550621441
 30
0.0
 10
-8.319707612923947
 20
-1.5796062648253817
 30
0.0
 10
-8.445798476041725
 20
-1.6675086801081545
 30
0.0
 10
-8.428371826322953
 20
-1.7915057358796953
 30
0.0
 10
-8.393857716799673
 20
-1.9118707399475132
 30
0.0
 10
-8.242914848239696
 20
-1.940887817757484
 30
0.0
 10
-8.100144597323581
 20
-1.9614996187556413
 30
0.0
 10
-7.9734030294257145
 20
-1.9738114817266519
 30
0.0
 10
-7.863116793751029
 20
-1.9793630676565472
 30
0.0
 10
-7.769603862361404
 20
-1.979714061697191
 30
0.0
 10
-7.638564267256108
 20
-1.9741036229396083
 30
0.0
 10
-7.599243403599506
 20
-1.980353497386973
 30
0.0
 10
-7.577313686998796
 20
-1.9937498177025503
 30
0.0
 10
-7.482452882701527
 20
-2.32456875676353
 30
0.0
 10
-7.493951368908574
 20
-2.3475504599891166
 30
0.0
 10
-7.5239854236036585
 20
-2.3736875372523505
 30
0.0
 10
-7.63808638233164
 20
-2.438370021169484
 30
0.0
 10
-7.717203847259241
 20
-2.4882219847956466
 30
0.0
 10
-7.807789987124099
 20
-2.551372797537925
 30
0.0
 10
-7.9087486391170225
 20
-2.62897664789913
 30
0.0
 10
-8.018902088173041
 20
-2.722113152812407
 30
0.0
 10
-8.131532191961865
 20
-2.826708564255033
 30
0.0
 10
-8.097018082438579
 20
-2.947073568322849
 30
0.0
 10
-8.046088290993435
 20
-3.061463752795926
 30
0.0
 10
-7.892575991354615
 20
-3.0691912513140287
 30
0.0
 10
-7.74832656244488
 20
-3.0697326811369168
 30
0.0
 10
-7.621104954625109
 20
-3.0642857088789435
 30
0.0
 10
-7.51111938558565
 20
-3.0544343897441357
 30
0.0
 10
-7.418467666687028
 20
-3.0417674832935435
 30
0.0
 10
-7.289484162073069
 20
-3.017974458140924
 30
0.0
 10
-7.249676151951145
 20
-3.0186911027122756
 30
0.0
 10
-7.226095446405137
 20
-3.0289050242969298
 30
0.0
 10
-7.086116723328972
 20
-3.3433023838903644
 30
0.0
 10
-7.094304872155428
 20
-3.3676607107417396
 30
0.0
 10
-7.120409059402051
 20
-3.39772335629207
 30
0.0
 10
-7.224397533578623
 20
-3.4776561389707874
 30
0.0
 10
-7.295806980409406
 20
-3.5380339696479157
 30
0.0
 10
-7.3767226477506425
 20
-3.6131773570106667
 30
0.0
 10
-7.465898408581217
 20
-3.704076700701371
 30
0.0
 10
-7.56201775564178
 20
-3.811637204637754
 30
0.0
 10
-7.6589948832462476
 20
-3.930889781532022
 30
0.0
 10
-7.6080650918011
 20
-4.045279966005097
 30
0.0
 10
-7.541710908892774
 20
-4.151468856059562
 30
0.0
 10
-7.388617120469944
 20
-4.13775636831705
 30
0.0
 10
-7.245696164619022
 20
-4.118216888649034
 30
0.0
 10
-7.120470740761126
 20
-4.0951171002812385
 30
0.0
 10
-7.0129265823515174
 20
-4.070054620802977
 30
0.0
 10
-6.922939436262492
 20
-4.044616360786818
 30
0.0
 10
-6.798522539340618
 20
-4.003103853409591
 30
0.0
 10
-6.759002200389454
 20
-3.9982733194335203
 30
0.0
 10
-6.734229477508946
 20
-4.005106039921769
 30
0.0
 10
-6.551857362275126
 20
-4.296962433064868
 30
0.0
 10
-6.556575800717964
 20
-4.322223276417056
 30
0.0
 10
-6.578242032204443
 20
-4.355626355054599
 30
0.0
 10
-6.670094004464897
 20
-4.4492536358022505
 30
0.0
 10
-6.732405529543342
 20
-4.51898214773498
 30
0.0
 10
-6.802075792936366
 20
-4.604655529157523
 30
0.0
 10
-6.877732957855949
 20
-4.707081113849258
 30
0.0
 10
-6.957947349164661
 20
-4.826972073947885
 30
0.0
 10
-7.037383951105782
 20
-4.958560700532336
 30
0.0
 10
-6.9710297681974716
 20
-5.064749590586814
 30
0.0
 10
-6.8905427025195385
 20
-5.160670340265846
 30
0.0
 10
-6.74084722176273
 20
-5.125784764238891
 30
0.0
 10
-6.602036532806082
 20
-5.08654468882588
 30
0.0
 10
-6.481244663343645
 20
-5.046241695453223
 30
0.0
 10
-6.378235140277663
 20
-5.006455868286404
 30
0.0
 10
-6.292664064437996
 20
-4.968741381500299
 30
0.0
 10
-6.175235408584668
 20
-4.910317385634787
 30
0.0
 10
-6.13677195924823
 20
-4.900033693960487
 30
0.0
 10
-6.111289391905536
 20
-4.903352222220131
 30
0.0
 10
-5.8900735502918815
 20
-5.166986996202092
 30
0.0
 10
-5.891230439313956
 20
-5.192658682473025
 30
0.0
 10
-5.908037006489379
 20
-5.228752041267539
 30
0.0
 10
-5.985964682673733
 20
-5.334251471563827
 30
0.0
 10
-6.037965463042498
 20
-5.411973478582391
 30
0.0
 10
-6.095034270059116
 20
-5.506509319147366
 30
0.0
 10
-6.155700258411297
 20
-5.618467547341481
 30
0.0
 10
-6.218448412083849
 20
-5.748355422437979
 30
0.0
 10
-6.2787983452626435
 20
-5.889718875775994
 30
0.0
 10
-6.198311279584716
 20
-5.985639625455033
 30
0.0
 10
-6.105257920317909
 20
-6.069425246474359
 30
0.0
 10
-5.961874399483973
 20
-6.014045590218574
 30
0.0
 10
-5.829875769587321
 20
-5.955868682493558
 30
0.0
 10
-5.715868530860717
 20
-5.899146936038062
 30
0.0
 10
-5.6193986063332435
 20
-5.84541214705278
 30
0.0
 10
-5.539909144398497
 20
-5.79615550308243
 30
0.0
 10
-5.4317543448267855
 20
-5.721957175351843
 30
0.0
 10
-5.395096432394881
 20
-5.706420486340227
 30
0.0
 10
-5.369400009777336
 20
-5.706160230993464
 30
0.0
 10
-5.113646156511566
 20
-5.936442034818837
 30
0.0
 10
-5.111218978584004
 20
-5.962024893836362
 30
0.0
 10
-5.1228387607354895
 20
-6.0001060166145
 30
0.0
 10
-5.185325367268233
 20
-6.1154241700525285
 30
0.0
 10
-5.226003266887451
 20
-6.199626901697786
 30
0.0
 10
-5.269359838113888
 20
-6.301185168801518
 30
0.0
 10
-5.313853855441932
 20
-6.420496900936813
 30
0.0
 10
-5.357914450042056
 20
-6.557853571287696
 30
0.0
 10
-5.3980030716562295
 20
-6.706240372558602
 30
0.0
 10
-5.304949712389433
 20
-6.790025993577927
 30
0.0
 10
-5.201141237325251
 20
-6.860045694129131
 30
0.0
 10
-5.066860473550882
 20
-6.785249859660113
 30
0.0
 10
-4.94424310589895
 20
-6.709268466956709
 30
0.0
 10
-4.839239519128678
 20
-6.637231991693099
 30
0.0
 10
-4.751186870487729
 20
-6.570594127434536
 30
0.0
 10
-4.67932619441654
 20
-6.51075405082622
 30
0.0
 10
-4.582550361275846
 20
-6.422225577280489
 30
0.0
 10
-4.548411490316206
 20
-6.401738294910448
 30
0.0
 10
-4.523001364060812
 20
-6.397904321531564
 30
0.0
 10
-4.237687456981049
 20
-6.590350981830559
 30
0.0
 10
-4.231723454361337
 20
-6.615347072343971
 30
0.0
 10
-4.237930285646612
 20
-6.65467475336749
 30
0.0
 10
-4.283759591809048
 20
-6.777567093263045
 30
0.0
 10
-4.312322861633056
 20
-6.8666116391427074
 30
0.0
 10
-4.341123310727759
 20
-6.97321561663684
 30
0.0
 10
-4.368579331595568
 20
-7.097558585562384
 30
0.0
 10
-4.3930947777675575
 20
-7.239710559820169
 30
0.0
 10
-4.412141808397516
 20
-7.392232528724705
 30
0.0
 10
-4.308333333333338
 20
-7.462252229275919
 30
0.0
 10
-4.195790256358517
 20
-7.517143155534003
 30
0.0
 10
-4.073225871968481
 20
-7.424386958690695
 30
0.0
 10
-3.962376374147425
 20
-7.332079972390319
 30
0.0
 10
-3.8684202147101594
 20
-7.246130876369327
 30
0.0
 10
-3.7904986866031263
 20
-7.1678869670658285
 30
0.0
 10
-3.7276654827149147
 20
-7.0986281768436506
 30
0.0
 10
-3.6441522475164434
 20
-6.9974926635206955
 30
0.0
 10
-3.613196892319906
 20
-6.9724535494396225
 30
0.0
 10
-3.5885676416306356
 20
-6.965120481959359
 30
0.0
 10
-3.2792469913984266
 20
-7.115986243394087
 30
0.0
 10
-3.269862246613605
 20
-7.139909044934173
 30
0.0
 10
-3.2705353181218673
 20
-7.1797178156265264
 30
0.0
 10
-3.298815308599606
 20
-7.307792382371504
 30
0.0
 10
-3.314707997071517
 20
-7.399945591686694
 30
0.0
 10
-3.328391756052883
 20
-7.50952035440953
 30
0.0
 10
-3.3382753802450287
 20
-7.6364743656732195
 30
0.0
 10
-3.3427685127150504
 20
-7.780654817354454
 30
0.0
 10
-3.3404032235752585
 20
-7.934343287259053
 30
0.0
 10
-3.2278601466004413
 20
-7.989234213517148
 30
0.0
 10
-3.108772990692445
 20
-8.027927976040008
 30
0.0
 10
-3.0003105620139725
 20
-7.919016810685355
 30
0.0
 10
-2.903386493409443
 20
-7.812180881278706
 30
0.0
 10
-2.8223065110750833
 20
-7.713992065888731
 30
0.0
 10
-2.7560327574121453
 20
-7.625665040233763
 30
0.0
 10
-2.7034500025488835
 20
-7.54833557996869
 30
0.0
 10
-2.6348248554208764
 20
-7.436561514595402
 30
0.0
 10
-2.607655526765148
 20
-7.407457926677315
 30
0.0
 10
-2.58428653199131
 20
-7.396768494912935
 30
0.0
 10
-2.2569797132164013
 20
-7.503116927044329
 30
0.0
 10
-2.244356889648717
 20
-7.525500809490896
 30
0.0
 10
-2.2394831008086657
 20
-7.5650158374123615
 30
0.0
 10
-2.249663337755071
 20
-7.695779805247731
 30
0.0
 10
-2.252576111771445
 20
-7.78924802060185
 30
0.0
 10
-2.2508768418359466
 20
-7.899660820436436
 30
0.0
 10
-2.242995695849983
 20
-8.02675485861707
 30
0.0
 10
-2.2273790609053714
 20
-8.17015747923261
 30
0.0
 10
-2.20364748965847
 20
-8.32202107888865
 30
0.0
 10
-2.0845603337504737
 20
-8.36071484141152
 30
0.0
 10
-1.9612469949394142
 20
-8.38245831012514
 30
0.0
 10
-1.868997619772542
 20
-8.259512008208139
 30
0.0
 10
-1.7878854971304334
 20
-8.140226575537048
 30
0.0
 10
-1.7212598215280042
 20
-8.031709174381534
 30
0.0
 10
-1.6679237855389335
 20
-7.935018217458967
 30
0.0
 10
-1.6266149432120383
 20
-7.851123217134102
 30
0.0
 10
-1.5742135945833942
 20
-7.730886154751856
 30
0.0
 10
-1.5513591125461046
 20
-7.698284561230741
 30
0.0
 10
-1.5297052245891347
 20
-7.684446822812488
 30
0.0
 10
-1.1907828921929913
 20
-7.74420797437866
 30
0.0
 10
-1.1751676787449408
 20
-7.764617260921174
 30
0.0
 10
-1.1648418923124952
 20
-7.803069431000937
 30
0.0
 10
-1.1567242289952524
 20
-7.933977628034594
 30
0.0
 10
-1.1466003947230916
 20
-8.026941596934293
 30
0.0
 10
-1.1295511702271328
 20
-8.136043374324547
 30
0.0
 10
-1.1040586516050066
 20
-8.260803698536265
 30
0.0
 10
-1.0686362092812995
 20
-8.400637319193892
 30
0.0
 10
-1.0240002639673358
 20
-8.547720196376327
 30
0.0
 10
-0.9006869251562782
 20
-8.56946366508996
 30
0.0
 10
-0.7755475573152748
 20
-8.573833628108677
 30
0.0
 10
-0.701306764815521
 20
-8.439245199546809
 30
0.0
 10
-0.6375853433393898
 20
-8.309832018873049
 30
0.0
 10
-0.58671076745891
 20
-8.193098199728775
 30
0.0
 10
-0.5473505744153919
 20
-8.089925291030774
 30
0.0
 10
-0.5181196742526446
 20
-8.001097671398291
 30
0.0
 10
-0.48296205676876935
 20
-7.874737889658728
 30
0.0
 10
-0.464867257846187
 20
-7.839272843468709
 30
0.0
 10
-0.4453499450042342
 20
-7.822556134234702
 30
0.0
 10
-0.10140883666850838
 20
-7.834566822397717
 30
0.0
 10
-0.08310516570781575
 20
-7.852604269488847
 30
0.0
 10
-0.06752836137047531
 20
-7.889245153975002
 30
0.0
 10
-0.04127079887234992
 20
-8.017749601057552
 30
0.0
 10
-0.018307405230071298
 20
-8.108399885593146
 30
0.0
 10
0.013759930064739693
 20
-8.2140670985436
 30
0.0
 10
0.05636763844535923
 20
-8.334065390988386
 30
0.0
 10
0.1109064306007619
 20
-8.467608309320386
 30
0.0
 10
0.17557796207888293
 20
-8.607047663129151
 30
0.0
 10
0.3007173299198807
 20
-8.611417626147869
 30
0.0
 10
0.42524703133972874
 20
-8.598329027112293
 30
0.0
 10
0.4800342285940051
 20
-8.454718082575434
 30
0.0
 10
0.5251246839171688
 20
-8.317696034255508
 30
0.0
 10
0.5592579443251581
 20
-8.195017888129366
 30
0.0
 10
0.5838761930370876
 20
-8.087371170966293
 30
0.0
 10
0.6004602048136755
 20
-7.995339860602421
 30
0.0
 10
0.6176897881196554
 20
-7.8653168089249785
 30
0.0
 10
0.6306727092490314
 20
-7.827678596849254
 30
0.0
 10
0.6476735646821125
 20
-7.8084082885297565
 30
0.0
 10
0.9899390265108781
 20
-7.772434738906478
 30
0.0
 10
1.01057489484908
 20
-7.7877492681558875
 30
0.0
 10
1.0310995323132413
 20
-7.821865693910301
 30
0.0
 10
1.074985920405758
 20
-7.945465198150923
 30
0.0
 10
1.1103419170813802
 20
-8.032037393647096
 30
0.0
 10
1.1568032089695832
 20
-8.13221335005234
 30
0.0
 10
1.215696796530617
 20
-8.245113980463792
 30
0.0
 10
1.288290402965367
 20
-8.369766935467654
 30
0.0
 10
1.3717387628102007
 20
-8.498848737490805
 30
0.0
 10
1.4962684642300503
 20
-8.485760138455209
 30
0.0
 10
1.6177646702410367
 20
-8.455467732057443
 30
0.0
 10
1.652031901774798
 20
-8.305629495226007
 30
0.0
 10
1.6776137565217613
 20
-8.163665557570194
 30
0.0
 10
1.6943413363694269
 20
-8.037430875032205
 30
0.0
 10
1.703738474541433
 20
-7.927405570307314
 30
0.0
 10
1.7073528090066636
 20
-7.833961853984221
 30
0.0
 10
1.706319003894058
 20
-7.70280628317077
 30
0.0
 10
1.7139373494382983
 20
-7.663727490194562
 30
0.0
 10
1.7280908451496888
 20
-7.642278657421364
 30
0.0
 10
2.06201885257819
 20
-7.559021054235902
 30
0.0
 10
2.0845852645896503
 20
-7.57131458575177
 30
0.0
 10
2.1096582464588214
 20
-7.602242515353988
 30
0.0
 10
2.1703192615215356
 20
-7.718531352994993
 30
0.0
 10
2.217379696972061
 20
-7.799340430140827
 30
0.0
 10
2.2773306292559883
 20
-7.892075318957896
 30
0.0
 10
2.3513637993060237
 20
-7.995680804987618
 30
0.0
 10
2.440599268044872
 20
-8.109017568684823
 30
0.0
 10
2.5412002288531386
 20
-8.225229388474318
 30
0.0
 10
2.662696434864131
 20
-8.194936982076575
 30
0.0
 10
2.778794360016145
 20
-8.148030375550112
 30
0.0
 10
2.7918746531459804
 20
-7.994881277265528
 30
0.0
 10
2.797449985613023
 20
-7.850738616838713
 30
0.0
 10
2.7964463015859695
 20
-7.7234044123946575
 30
0.0
 10
2.7904394246126207
 20
-7.613142037512487
 30
0.0
 10
2.7810137328573727
 20
-7.52010469087775
 30
0.0
 10
2.7617366611667626
 20
-7.3903693949269265
 30
0.0
 10
2.7638421486955873
 20
-7.350610645304047
 30
0.0
 10
2.774872802990629
 20
-7.327400765209392
 30
0.0
 10
3.0939638271917476
 20
-7.1984796230036325
 30
0.0
 10
3.118021553335577
 20
-7.207512877178687
 30
0.0
 10
3.147154862537769
 20
-7.234650333659003
 30
0.0
 10
3.223409806913366
 20
-7.341365074752299
 30
0.0
 10
3.281258703293202
 20
-7.414838176780113
 30
0.0
 10
3.353532399269122
 20
-7.498327018882554
 30
0.0
 10
3.4412641803646182
 20
-7.590620797594472
 30
0.0
 10
3.545404644512404
 20
-7.690435398798311
 30
0.0
 10
3.661200123013874
 20
-7.791515305470962
 30
0.0
 10
3.777298048165884
 20
-7.744608698944504
 30
0.0
 10
3.885737978405267
 20
-7.682000876029877
 30
0.0
 10
3.8773767401040193
 20
-7.528521789285742
 30
0.0
 10
3.8628370327865156
 20
-7.385005979013286
 30
0.0
 10
3.8441216204526563
 20
-7.259050668112157
 30
0.0
 10
3.8228276453615173
 20
-7.150697354778197
 30
0.0
 10
3.800545387754242
 20
-7.059877243955647
 30
0.0
 10
3.7634002557587403
 20
-6.934087372831421
 30
0.0
 10
3.7599519043523584
 20
-6.894422525398373
 30
0.0
 10
3.7676450180923804
 20
-6.869903351897456
 30
0.0
 10
4.0656883152407035
 20
-6.697827974058809
 30
0.0
 10
4.0907690992427685
 20
-6.703425128875708
 30
0.0
 10
4.123395689053009
 20
-6.726243912512131
 30
0.0
 10
4.2137603469879314
 20
-6.821307476008558
 30
0.0
 10
4.28127174133119
 20
-6.886014532561792
 30
0.0
 10
4.36446147571704
 20
-6.958632312605234
 30
0.0
 10
4.464184268532396
 20
-7.037817990579336
 30
0.0
 10
4.581202752412505
 20
-7.122167651614805
 30
0.0
 10
4.709938921333547
 20
-7.206148239763903
 30
0.0
 10
4.8183788515729375
 20
-7.143540416849288
 30
0.0
 10
4.917050127006175
 20
-7.066449967604201
 30
0.0
 10
4.88741009926661
 20
-6.915628188244117
 30
0.0
 10
4.853038351028824
 20
-6.775532600126159
 30
0.0
 10
4.816975484600772
 20
-6.653407759622603
 30
0.0
 10
4.780808874395454
 20
-6.549072481830833
 30
0.0
 10
4.746103749734784
 20
-6.462237316971286
 30
0.0
 10
4.691813545176723
 20
-6.342841227431232
 30
0.0
 10
4.682878473072818
 20
-6.304042313325206
 30
0.0
 10
4.687084308549657
 20
-6.278691084240075
 30
0.0
 10
4.958278804885418
 20
-6.066810722265328
 30
0.0
 10
4.98389447781409
 20
-6.068862835472228
 30
0.0
 10
5.019379308773917
 20
-6.086918804597258
 30
0.0
 10
5.1220948349897375
 20
-6.168480886366557
 30
0.0
 10
5.1979546947985975
 20
-6.223162448192592
 30
0.0
 10
5.290441274041481
 20
-6.283495743689987
 30
0.0
 10
5.400214087847539
 20
-6.348032061776883
 30
0.0
 10
5.527832959777799
 20
-6.415275012438242
 30
0.0
 10
5.667004116025587
 20
-6.480521695441969
 30
0.0
 10
5.765675391458832
 20
-6.403431246196891
 30
0.0
 10
5.85265748794653
 20
-6.313358648526812
 30
0.0
 10
5.802315580193567
 20
-6.16812975092879
 30
0.0
 10
5.748780798017663
 20
-6.034181186231677
 30
0.0
 10
5.696072400169537
 20
-5.918263837231148
 30
0.0
 10
5.6457370967787766
 20
-5.819977362484165
 30
0.0
 10
5.599284600839739
 20
-5.738817291298076
 30
0.0
 10
5.528906020796646
 20
-5.6281388924140545
 30
0.0
 10
5.514658139010227
 20
-5.590961088365011
 30
0.0
 10
5.515294834420396
 20
-5.565271236533214
 30
0.0
 10
5.754362037551585
 20
-5.317709900657865
 30
0.0
 10
5.780014019470702
 20
-5.3161770302054405
 30
0.0
 10
5.817666419708881
 20
-5.329118745918417
 30
0.0
 10
5.9307335733249875
 20
-5.395591832814443
 30
0.0
 10
6.013465372717583
 20
-5.439183585511688
 30
0.0
 10
6.113448650754459
 20
-5.486058077494287
 30
0.0
 10
6.231134882595211
 20
-5.534688909671388
 30
0.0
 10
6.366870186397812
 20
-5.5835163424117376
 30
0.0
 10
6.513767521720827
 20
-5.628759167802428
 30
0.0
 10
6.600749618208533
 20
-5.538686570132353
 30
0.0
 10
6.674349528183229
 20
-5.43738498469487
 30
0.0
 10
6.604285588388205
 20
-5.300575684155234
 30
0.0
 10
6.532629765914325
 20
-5.1753812993265615
 30
0.0
 10
6.464301745655325
 20
-5.067927641173325
 30
0.0
 10
6.400777468504065
 20
-4.977603003902871
 30
0.0
 10
6.34348174628118
 20
-4.903697714857666
 30
0.0
 10
6.258384629759149
 20
-4.803891235769139
 30
0.0
 10
6.239101257102463
 20
-4.769058165443769
 30
0.0
 10
6.236156419894032
 20
-4.743529714609439
 30
0.0
 10
6.438443158646614
 20
-4.465105904639456
 30
0.0
 10
6.463632162906817
 20
-4.460017886107446
 30
0.0
 10
6.502719271281683
 20
-4.467593452633002
 30
0.0
 10
6.623937328764918
 20
-4.517683721631338
 30
0.0
 10
6.711930787372099
 20
-4.5493372013184254
 30
0.0
 10
6.817464703425275
 20
-4.581840531118732
 30
0.0
 10
6.9407737246640435
 20
-4.613619333554462
 30
0.0
 10
7.081983527047089
 20
-4.643080877935891
 30
0.0
 10
7.233747851906505
 20
-4.667439245580264
 30
0.0
 10
7.3073477618812035
 20
-4.566137660142781
 30
0.0
 10
7.366132946813899
 20
-4.455578807069589
 30
0.0
 10
7.277710689868378
 20
-4.329851941005073
 30
0.0
 10
7.189328526173685
 20
-4.215848502339028
 30
0.0
 10
7.106710810696183
 20
-4.118949998262314
 30
0.0
 10
7.031233987581378
 20
-4.038345264790106
 30
0.0
 10
6.964210235134797
 20
-3.973133240271028
 30
0.0
 10
6.866050900710393
 20
-3.8861413005652676
 30
0.0
 10
6.84210736609769
 20
-3.854330950055424
 30
0.0
 10
6.835638314177218
 20
-3.8294607824758673
 30
0.0
 10
6.9972073072791305
 20
-3.525593701169927
 30
0.0
 10
7.0214430585645635
 20
-3.5170495670515236
 30
0.0
 10
7.0612040889725245
 20
-3.5191115346043174
 30
0.0
 10
7.188213678717474
 20
-3.5518440355957472
 30
0.0
 10
7.279756103958527
 20
-3.570943143295868
 30
0.0
 10
7.388786560395076
 20
-3.588442670571308
 30
0.0
 10
7.515318301195384
 20
-3.6027509050241084
 30
0.0
 10
7.659254113979258
 20
-3.6122731255972442
 30
0.0
 10
7.812931508421052
 20
-3.615272927576339
 30
0.0
 10
7.871716693353746
 20
-3.504714074503143
 30
0.0
 10
7.914542966487012
 20
-3.3870498561105244
 30
0.0
 10
7.809483431043475
 20
-3.274852554956833
 30
0.0
 10
7.7060951844110654
 20
-3.1742590097100605
 30
0.0
 10
7.61079583357057
 20
-3.089801678871306
 30
0.0
 10
7.524835535000537
 20
-3.0204857286478553
 30
0.0
 10
7.449388293433244
 20
-2.9652362465345914
 30
0.0
 10
7.34007730089645
 20
-2.892752045366105
 30
0.0
 10
7.311939637993601
 20
-2.8645835669607242
 30
0.0
 10
7.302072284098283
 20
-2.8408557521584807
 30
0.0
 10
7.4197787748808
 20
-2.5174598266105215
 30
0.0
 10
7.442589551860451
 20
-2.5056258787575305
 30
0.0
 10
7.482250601072119
 20
-2.5021341134846
 30
0.0
 10
7.612579625885665
 20
-2.516871745569994
 30
0.0
 10
7.705889248581237
 20
-2.5230447388766772
 30
0.0
 10
7.816294091586929
 20
-2.525199855234252
 30
0.0
 10
7.94358575554182
 20
-2.5217590281958744
 30
0.0
 10
8.087446031855244
 20
-2.5111565857686258
 30
0.0
 10
8.240045340202068
 20
-2.4927394343491467
 30
0.0
 10
8.282871613335177
 20
-2.375075215956479
 30
0.0
 10
8.30890540997637
 20
-2.252595832414285
 30
0.0
 10
8.189253460389049
 20
-2.156111889015934
 30
0.0
 10
8.072871465437235
 20
-2.0708861761232016
 30
0.0
 10
7.966745372696454
 20
-2.000513884398393
 30
0.0
 10
7.871974718104466
 20
-1.9438358735490744
 30
0.0
 10
7.789572482153605
 20
-1.899624302165603
 30
0.0
 10
7.671237445634738
 20
-1.843058662060579
 30
0.0
 10
7.6394533220440275
 20
-1.8190803231506525
 30
0.0
 10
7.626379722993487
 20
-1.7969566960508594
 30
0.0
 10
7.6979326885026795
 20
-1.4603264600942583
 30
0.0
 10
7.718874505349511
 20
-1.445433032840722
 30
0.0
 10
7.757663616155756
 20
-1.4364554979812807
 30
0.0
 10
7.888775369816972
 20
-1.4329114099159053
 30
0.0
 10
7.9820360242994175
 20
-1.426038138536113
 30
0.0
 10
8.091666349188793
 20
-1.4128068970873304
 30
0.0
 10
8.217240348851506
 20
-1.391683980342194
 30
0.0
 10
8.358225012054676
 20
-1.361163239396308
 30
0.0
 10
8.50677606234867
 20
-1.3216876034814287
 30
0.0
  0
LWPOLYLINE
  8
OpenJsCad
  90
31
  70
1
 10
0.08316467632710375
 20
-0.3912590402935223
 30
0.0
 10
2.4492935982947065e-17
 20
-0.4
 30
0.0
 10
-0.08316467632710357
 20
-0.3912590402935223
 30
0.0
 10
-0.16269465723032003
 20
-0.36541818305704044
 30
0.0
 10
-0.23511410091698934
 20
-0.32360679774997897
 30
0.0
 10
-0.29725793019095764
 20
-0.2676522425435434
 30
0.0
 10
-0.34641016151377546
 20
-0.2000000000000001
 30
0.0
 10
-0.3804226065180615
 20
-0.12360679774997893
 30
0.0
 10
-0.39780875814730937
 20
-0.04181138530706122
 30
0.0
 10
-0.3978087581473093
 20
0.04181138530706167
 30
0.0
 10
-0.3804226065180614
 20
0.123606797749979
 30
0.0
 10
-0.34641016151377535
 20
0.20000000000000015
 30
0.0
 10
-0.29725793019095764
 20
0.2676522425435434
 30
0.0
 10
-0.23511410091698925
 20
0.323606797749979
 30
0.0
 10
-0.16269465723032012
 20
0.3654181830570404
 30
0.0
 10
-0.08316467632710366
 20
0.3912590402935223
 30
0.0
 10
2.0212861992297212e-16
 20
0.4
 30
0.0
 10
0.0831646763271037
 20
0.3912590402935223
 30
0.0
 10
0.16269465723032
 20
0.36541818305704044
 30
0.0
 10
0.23511410091698928
 20
0.32360679774997897
 30
0.0
 10
0.2972579301909578
 20
0.2676522425435432
 30
0.0
 10
0.3464101615137755
 20
0.19999999999999996
 30
0.0
 10
0.3804226065180615
 20
0.12360679774997897
 30
0.0
 10
0.39780875814730937
 20
0.04181138530706136
 30
0.0
 10
0.3978087581473093
 20
-0.041811385307061355
 30
0.0
 10
0.3804226065180614
 20
-0.12360679774997896
 30
0.0
 10
0.34641016151377546
 20
-0.20000000000000004
 30
0.0
 10
0.29725793019095764
 20
-0.2676522425435433
 30
0.0
 10
0.23511410091698928
 20
-0.323606797749979
 30
0.0
 10
0.1626946572303201
 20
-0.3654181830570404
 30
0.0
 10
0.08316467632710375
 20
-0.3912590402935223
 30
0.0
  0
ENDSEC
  0
EOF
