999
DXF generated by OpenJsCad
  0
SECTION
  2
HEADER
  0
ENDSEC
  0
SECTION
  2
TABLES
  0
TABLE
  2
LTYPE
  70
1
  0
LTYPE
  2
CONTINUOUS
  3
Solid Line
  72
65
  73
0
  40
0.0
  0
ENDTAB
  0
TABLE
  2
LAYER
  70
1
  0
LAYER
  2
OpenJsCad
  62
7
  6
continuous
  0
ENDTAB
  0
TABLE
  2
STYLE
  70
0
  0
ENDTAB
  0
TABLE
  2
VIEW
  70
0
  0
ENDTAB
  0
ENDSEC
  0
SECTION
  2
BLOCKS
  0
ENDSEC
  0
SECTION
  2
ENTITIES
  0
LWPOLYLINE
  8
OpenJsCad
  90
324
  70
1
 10
3.200802462358661
 20
-1.3533346915914848
 30
0.0
 10
3.2481115990918394
 20
-1.2583251372185822
 30
0.0
 10
3.2771572480658335
 20
-1.1562402699940255
 30
0.0
 10
3.1967746552952936
 20
-1.058219069221389
 30
0.0
 10
3.0683292128440267
 20
-0.9359551083513291
 30
0.0
 10
2.9618451135490496
 20
-0.8570782145306337
 30
0.0
 10
2.8854928661193617
 20
-0.8139330270275833
 30
0.0
 10
2.845848826651634
 20
-0.7975839205942061
 30
0.0
 10
2.75274748588524
 20
-0.7720228927621119
 30
0.0
 10
2.660648180350866
 20
-0.7212076199307402
 30
0.0
 10
2.6224086014405867
 20
-0.6652691656380316
 30
0.0
 10
2.6856461368524824
 20
-0.3269782305714521
 30
0.0
 10
2.741510782683065
 20
-0.28863090458755186
 30
0.0
 10
2.845747421266658
 20
-0.2745171804285825
 30
0.0
 10
2.941795544335151
 20
-0.2843143152828501
 30
0.0
 10
2.9846684886488806
 20
-0.2833903064298584
 30
0.0
 10
3.0714506784512348
 20
-0.2707402303294536
 30
0.0
 10
3.1992377644643915
 20
-0.23565621075171136
 30
0.0
 10
3.3631764094832133
 20
-0.16804830822859587
 30
0.0
 10
3.473540286857917
 20
-0.10568380236018324
 30
0.0
 10
3.483333333333333
 20
4.3533725577652863e-16
 30
0.0
 10
3.4735402868579164
 20
0.10568380236018336
 30
0.0
 10
3.3631764094830965
 20
0.1680483082286622
 30
0.0
 10
3.1992377644643932
 20
0.23565621075173224
 30
0.0
 10
3.071450678451236
 20
0.2707402303294509
 30
0.0
 10
2.984668488648883
 20
0.28339030642985513
 30
0.0
 10
2.9417955443351524
 20
0.2843143152828443
 30
0.0
 10
2.845747421266656
 20
0.2745171804285939
 30
0.0
 10
2.7415107826830662
 20
0.28863090458753665
 30
0.0
 10
2.685646136852482
 20
0.326978230571448
 30
0.0
 10
2.6224086014405885
 20
0.6652691656380278
 30
0.0
 10
2.6606481803508704
 20
0.7212076199307257
 30
0.0
 10
2.752747485885237
 20
0.7720228927621231
 30
0.0
 10
2.845848826651635
 20
0.7975839205942004
 30
0.0
 10
2.885492866119361
 20
0.8139330270275795
 30
0.0
 10
2.9618451135490496
 20
0.857078214530631
 30
0.0
 10
3.068329212844018
 20
0.9359551083513481
 30
0.0
 10
3.196774655295379
 20
1.0582190692214934
 30
0.0
 10
3.2771572480658335
 20
1.1562402699940257
 30
0.0
 10
3.248111599091839
 20
1.2583251372185835
 30
0.0
 10
3.2008024623586606
 20
1.3533346915914846
 30
0.0
 10
3.075362553566385
 20
1.3716198304646114
 30
0.0
 10
2.8980715284054135
 20
1.3754408527766302
 30
0.0
 10
2.7662398097328404
 20
1.361993706860138
 30
0.0
 10
2.6807480931673444
 20
1.3424402086840448
 30
0.0
 10
2.6404364727043657
 20
1.32781432744094
 30
0.0
 10
2.5544133985751905
 20
1.2839821872502095
 30
0.0
 10
2.452117162578252
 20
1.259488226082213
 30
0.0
 10
2.386172279803473
 20
1.275065404893331
 30
0.0
 10
2.205000253136446
 20
1.5676682746443873
 30
0.0
 10
2.220450298101772
 20
1.6336430590279785
 30
0.0
 10
2.2879737490346277
 20
1.7142969963587764
 30
0.0
 10
2.3655544555360892
 20
1.7717640284299316
 30
0.0
 10
2.396615442952489
 20
1.8013301950263443
 30
0.0
 10
2.452225953911724
 20
1.8691434972840184
 30
0.0
 10
2.523025798829955
 20
1.9811605037652653
 30
0.0
 10
2.598630769970032
 20
2.1415680975789324
 30
0.0
 10
2.638175963567266
 20
2.2620076869370296
 30
0.0
 10
2.574214394985295
 20
2.346706492035508
 30
0.0
 10
2.495778529059147
 20
2.4182102316369525
 30
0.0
 10
2.3722039436183433
 20
2.389946494188459
 30
0.0
 10
2.2055046736665758
 20
2.3294645860531733
 30
0.0
 10
2.08743292644609
 20
2.2693023862116997
 30
0.0
 10
2.0147778131655754
 20
2.2201861220374646
 30
0.0
 10
1.982471824271274
 20
2.1919856570049525
 30
0.0
 10
1.9180916919128743
 20
2.120038284892774
 30
0.0
 10
1.831551532016985
 20
2.0602446835793002
 30
0.0
 10
1.7644326341299545
 20
2.050947930903056
 30
0.0
 10
1.4897944023180327
 20
2.2583450964102356
 30
0.0
 10
1.480368299154181
 20
2.325445950674815
 30
0.0
 10
1.5141964792766849
 20
2.4250457913495946
 30
0.0
 10
1.5657788472106533
 20
2.506657586542801
 30
0.0
 10
1.5840618241102686
 20
2.545447738671617
 30
0.0
 10
1.6114200909455272
 20
2.628770593447535
 30
0.0
 10
1.6369737701153297
 20
2.758799195156359
 30
0.0
 10
1.6495273996500486
 20
2.9356864875198507
 30
0.0
 10
1.642894396551272
 20
3.062278431541899
 30
0.0
 10
1.5526552726216076
 20
3.118152131553467
 30
0.0
 10
1.4536858758239533
 20
3.1564930801343802
 30
0.0
 10
1.3486660462488176
 20
3.085497640721462
 30
0.0
 10
1.2150721916257836
 20
2.9688812189743645
 30
0.0
 10
1.1267066595776476
 20
2.870129203666758
 30
0.0
 10
1.0767006252265297
 20
2.798083597133726
 30
0.0
 10
1.0567633707147452
 20
2.760117177378619
 30
0.0
 10
1.0227210737447514
 20
2.6697714646228934
 30
0.0
 10
0.963624718079432
 20
2.58275368034911
 30
0.0
 10
0.9043965841584455
 20
2.549838574149515
 30
0.0
 10
0.573383562230806
 20
2.6440198989837067
 30
0.0
 10
0.5403543584018962
 20
2.7031844809421743
 30
0.0
 10
0.5359185845400867
 20
2.8082787145760375
 30
0.0
 10
0.5545361292893114
 20
2.9030131477238834
 30
0.0
 10
0.5575718783323776
 20
2.945788460396453
 30
0.0
 10
0.5529830155101677
 20
3.0333676544452497
 30
0.0
 10
0.5298393629618355
 20
3.1638467682075198
 30
0.0
 10
0.4776462136604695
 20
3.333324150120823
 30
0.0
 10
0.42573083768891173
 20
3.4489715052964676
 30
0.0
 10
0.3214014521305021
 20
3.4684740474277036
 30
0.0
 10
0.2152648899072236
 20
3.4684740474277036
 30
0.0
 10
0.1429833261168432
 20
3.364335233542385
 30
0.0
 10
0.0605374771584867
 20
3.2073339921343207
 30
0.0
 10
0.013812415036118108
 20
3.0833291682316815
 30
0.0
 10
-0.006790948353483334
 20
2.998084377720626
 30
0.0
 10
-0.011666831784793177
 20
2.9554795786100456
 30
0.0
 10
-0.010773692525704212
 20
2.85893721434131
 30
0.0
 10
-0.034444953663641587
 20
2.7564474810555795
 30
0.0
 10
-0.07778323593813502
 20
2.704359388813789
 30
0.0
 10
-0.42046590516369087
 20
2.672605163179399
 30
0.0
 10
-0.4726374326594286
 20
2.715842968195997
 30
0.0
 10
-0.5147380846660421
 20
2.812238036189438
 30
0.0
 10
-0.5315997656833207
 20
2.907300697153692
 30
0.0
 10
-0.5442212392267358
 20
2.9482841273673945
 30
0.0
 10
-0.5801374803545081
 20
3.0282916052397133
 30
0.0
 10
-0.6488527861009166
 20
3.1415993037321055
 30
0.0
 10
-0.758743740212994
 20
3.280777915661237
 30
0.0
 10
-0.848930029859345
 20
3.3698618658498893
 30
0.0
 10
-0.9532594154177569
 20
3.350359323718653
 30
0.0
 10
-1.0522288122154115
 20
3.312018375137739
 30
0.0
 10
-1.0820100845051743
 20
3.1888007106483203
 30
0.0
 10
-1.1021731590488073
 20
3.0126185372053604
 30
0.0
 10
-1.100947272693275
 20
2.8801084433101893
 30
0.0
 10
-1.0893653667284167
 20
2.7931772501373193
 30
0.0
 10
-1.0785213640036506
 20
2.7516880858724906
 30
0.0
 10
-1.0428134119214745
 20
2.661987651344946
 30
0.0
 10
-1.0278626435483653
 20
2.557867775442723
 30
0.0
 10
-1.0494579990094828
 20
2.493641482646074
 30
0.0
 10
-1.3575291221838224
 20
2.3402402906712636
 30
0.0
 10
-1.4217969194656748
 20
2.3617118135895536
 30
0.0
 10
-1.495876523275833
 20
2.436389027866547
 30
0.0
 10
-1.5459401666044312
 20
2.5189411775235975
 30
0.0
 10
-1.5725142627942907
 20
2.552597685931046
 30
0.0
 10
-1.6349071948445573
 20
2.6142279944034907
 30
0.0
 10
-1.739913770983336
 20
2.695061445084976
 30
0.0
 10
-1.892661147626491
 20
2.7851444442735938
 30
0.0
 10
-2.008938192791413
 20
2.835633708371068
 30
0.0
 10
-2.099177316721076
 20
2.779760008359501
 30
0.0
 10
-2.177613182647224
 20
2.708256268758057
 30
0.0
 10
-2.16087203758991
 20
2.5826009820264835
 30
0.0
 10
-2.116029202774249
 20
2.4110322553312242
 30
0.0
 10
-2.067017930686002
 20
2.287913113887842
 30
0.0
 10
-2.024814955944794
 20
2.2110360573935233
 30
0.0
 10
-1.9997156097206257
 20
2.1762658695078074
 30
0.0
 10
-1.9340154016086528
 20
2.1055219054516647
 30
0.0
 10
-1.8824617878383532
 20
2.013833853121694
 30
0.0
 10
-1.8793976440670759
 20
1.9461434765025476
 30
0.0
 10
-2.11125050892448
 20
1.6918129991888653
 30
0.0
 10
-2.178934853849375
 20
1.688618391860915
 30
0.0
 10
-2.2749885484792607
 20
1.731492180832624
 30
0.0
 10
-2.3514927816754274
 20
1.7903846939340338
 30
0.0
 10
-2.38843052156914
 20
1.8121687825776513
 30
0.0
 10
-2.4688736333373407
 20
1.8470984069856902
 30
0.0
 10
-2.595989759899423
 20
1.8845406044281214
 30
0.0
 10
-2.770964179455565
 20
1.9133617826686726
 30
0.0
 10
-2.8976281208761856
 20
1.9184375057879346
 30
0.0
 10
-2.961589689458156
 20
1.8337387006894554
 30
0.0
 10
-3.0088988261913348
 20
1.7387291463165544
 30
0.0
 10
-2.947896248192821
 20
1.6276066800959053
 30
0.0
 10
-2.8441037773424465
 20
1.483822707383675
 30
0.0
 10
-2.7539263633978366
 20
1.3867224406707241
 30
0.0
 10
-2.686802065473835
 20
1.3302821933249909
 30
0.0
 10
-2.650837181538116
 20
1.3069268883606162
 30
0.0
 10
-2.56401789455929
 20
1.2646937591274947
 30
0.0
 10
-2.4828240365999137
 20
1.197820509897976
 30
0.0
 10
-2.455514223191559
 20
1.1358080099040735
 30
0.0
 10
-2.579835815591961
 20
0.8148969875065565
 30
0.0
 10
-2.6417955623258886
 20
0.787467699353936
 30
0.0
 10
-2.7468507640638404
 20
0.7927477202478656
 30
0.0
 10
-2.8394632665098425
 20
0.8200268365646084
 30
0.0
 10
-2.88177600365568
 20
0.8269964435632723
 30
0.0
 10
-2.969405007146849
 20
0.8305079445788688
 30
0.0
 10
-3.101462946865252
 20
0.819502112543267
 30
0.0
 10
-3.2750331444065943
 20
0.7831690100107034
 30
0.0
 10
-3.3949773149249305
 20
0.7421456876189438
 30
0.0
 10
-3.4240229638989246
 20
0.6400608203943853
 30
0.0
 10
-3.4338160103743416
 20
0.5343770180342025
 30
0.0
 10
-3.3367907356202817
 20
0.4527950771384184
 30
0.0
 10
-3.188066377057472
 20
0.3562146806585007
 30
0.0
 10
-3.0689017807000187
 20
0.29824721774671764
 30
0.0
 10
-2.985921667976435
 20
0.2698663476998177
 30
0.0
 10
-2.9439485031929866
 20
0.26108018900843494
 30
0.0
 10
-2.847735563136074
 20
0.253061712723116
 30
0.0
 10
-2.7478671414157336
 20
0.22003486945996148
 30
0.0
 10
-2.6999999999999997
 20
0.172075377838604
 30
0.0
 10
-2.700000000000001
 20
-0.17207537783860133
 30
0.0
 10
-2.747867141415735
 20
-0.22003486945994782
 30
0.0
 10
-2.8477355631360735
 20
-0.2530617127231289
 30
0.0
 10
-2.943948503192987
 20
-0.26108018900843044
 30
0.0
 10
-2.985921667976433
 20
-0.2698663476998155
 30
0.0
 10
-3.0689017807000174
 20
-0.29824721774671636
 30
0.0
 10
-3.1880663770574666
 20
-0.3562146806585226
 30
0.0
 10
-3.3367907356203843
 20
-0.4527950771385069
 30
0.0
 10
-3.4338160103743416
 20
-0.5343770180342042
 30
0.0
 10
-3.4240229638989246
 20
-0.640060820394386
 30
0.0
 10
-3.394977314924931
 20
-0.7421456876189426
 30
0.0
 10
-3.2750331444064678
 20
-0.7831690100107462
 30
0.0
 10
-3.1014629468652504
 20
-0.819502112543287
 30
0.0
 10
-2.969405007146851
 20
-0.8305079445788655
 30
0.0
 10
-2.881776003655683
 20
-0.8269964435632686
 30
0.0
 10
-2.8394632665098447
 20
-0.820026836564602
 30
0.0
 10
-2.746850764063837
 20
-0.7927477202478754
 30
0.0
 10
-2.641795562325893
 20
-0.7874676993539204
 30
0.0
 10
-2.579835815591962
 20
-0.8148969875065515
 30
0.0
 10
-2.4555142231915617
 20
-1.1358080099040693
 30
0.0
 10
-2.4828240365999212
 20
-1.1978205098979617
 30
0.0
 10
-2.564017894559286
 20
-1.2646937591275045
 30
0.0
 10
-2.650837181538119
 20
-1.3069268883606096
 30
0.0
 10
-2.6868020654738354
 20
-1.330282193324986
 30
0.0
 10
-2.753926363397837
 20
-1.3867224406707204
 30
0.0
 10
-2.844103777342435
 20
-1.483822707383691
 30
0.0
 10
-2.9478962481928863
 20
-1.6276066800960225
 30
0.0
 10
-3.008898826191335
 20
-1.7387291463165535
 30
0.0
 10
-2.9615896894581564
 20
-1.8337387006894563
 30
0.0
 10
-2.8976281208761865
 20
-1.9184375057879335
 30
0.0
 10
-2.770964179455431
 20
-1.9133617826686666
 30
0.0
 10
-2.5959897598994144
 20
-1.8845406044281392
 30
0.0
 10
-2.4688736333373438
 20
-1.8470984069856877
 30
0.0
 10
-2.388430521569145
 20
-1.8121687825776491
 30
0.0
 10
-2.3514927816754323
 20
-1.7903846939340289
 30
0.0
 10
-2.2749885484792545
 20
-1.7314921808326322
 30
0.0
 10
-2.178934853849385
 20
-1.6886183918609021
 30
0.0
 10
-2.111250508924483
 20
-1.6918129991888613
 30
0.0
 10
-1.8793976440670797
 20
-1.9461434765025452
 30
0.0
 10
-1.8824617878383652
 20
-2.013833853121683
 30
0.0
 10
-1.9340154016086457
 20
-2.1055219054516723
 30
0.0
 10
-1.9997156097206306
 20
-2.176265869507802
 30
0.0
 10
-2.0248149559447963
 20
-2.2110360573935184
 30
0.0
 10
-2.0670179306860046
 20
-2.2879131138878384
 30
0.0
 10
-2.1160292027742327
 20
-2.4110322553312344
 30
0.0
 10
-2.1608720375899293
 20
-2.582600982026616
 30
0.0
 10
-2.1776131826472254
 20
-2.7082562687580563
 30
0.0
 10
-2.0991773167210743
 20
-2.7797600083595024
 30
0.0
 10
-2.008938192791411
 20
-2.8356337083710703
 30
0.0
 10
-1.892661147626365
 20
-2.7851444442735422
 30
0.0
 10
-1.739913770983318
 20
-2.695061445084992
 30
0.0
 10
-1.6349071948445573
 20
-2.6142279944034916
 30
0.0
 10
-1.5725142627942923
 20
-2.552597685931047
 30
0.0
 10
-1.5459401666044343
 20
-2.518941177523596
 30
0.0
 10
-1.4958765232758207
 20
-2.4363890278665536
 30
0.0
 10
-1.4217969194656852
 20
-2.3617118135895465
 30
0.0
 10
-1.3575291221838228
 20
-2.3402402906712623
 30
0.0
 10
-1.049457999009484
 20
-2.493641482646074
 30
0.0
 10
-1.0278626435483769
 20
-2.557867775442719
 30
0.0
 10
-1.0428134119214612
 20
-2.6619876513449516
 30
0.0
 10
-1.0785213640036533
 20
-2.7516880858724893
 30
0.0
 10
-1.0893653667284162
 20
-2.793177250137317
 30
0.0
 10
-1.1009472726932745
 20
-2.8801084433101884
 30
0.0
 10
-1.1021731590487838
 20
-3.0126185372053658
 30
0.0
 10
-1.0820100845051392
 20
-3.1888007106484517
 30
0.0
 10
-1.0522288122154082
 20
-3.3120183751377406
 30
0.0
 10
-0.9532594154177532
 20
-3.3503593237186533
 30
0.0
 10
-0.8489300298593438
 20
-3.3698618658498893
 30
0.0
 10
-0.758743740212897
 20
-3.2807779156611425
 30
0.0
 10
-0.6488527861008959
 20
-3.141599303732113
 30
0.0
 10
-0.5801374803545098
 20
-3.0282916052397137
 30
0.0
 10
-0.5442212392267387
 20
-2.948284127367396
 30
0.0
 10
-0.5315997656833257
 20
-2.9073006971536914
 30
0.0
 10
-0.5147380846660299
 20
-2.8122380361894397
 30
0.0
 10
-0.47263743265944264
 20
-2.7158429681959944
 30
0.0
 10
-0.420465905163694
 20
-2.672605163179397
 30
0.0
 10
-0.07778323593813832
 20
-2.7043593888137893
 30
0.0
 10
-0.034444953663655964
 20
-2.756447481055579
 30
0.0
 10
-0.010773692525691983
 20
-2.8589372143413105
 30
0.0
 10
-0.011666831784798312
 20
-2.9554795786100447
 30
0.0
 10
-0.006790948353485909
 20
-2.998084377720624
 30
0.0
 10
0.013812415036116322
 20
-3.0833291682316806
 30
0.0
 10
0.060537477158508185
 20
-3.2073339921343167
 30
0.0
 10
0.14298332611692097
 20
-3.3643352335424948
 30
0.0
 10
0.21526488990722467
 20
-3.4684740474277036
 30
0.0
 10
0.3214014521305004
 20
-3.468474047427703
 30
0.0
 10
0.42573083768890974
 20
-3.448971505296468
 30
0.0
 10
0.47764621366052284
 20
-3.333324150120701
 30
0.0
 10
0.5298393629618546
 20
-3.16384676820752
 30
0.0
 10
0.5529830155101636
 20
-3.0333676544452515
 30
0.0
 10
0.5575718783323729
 20
-2.9457884603964564
 30
0.0
 10
0.554536129289304
 20
-2.903013147723886
 30
0.0
 10
0.5359185845400962
 20
-2.808278714576035
 30
0.0
 10
0.5403543584018795
 20
-2.7031844809421774
 30
0.0
 10
0.5733835622308003
 20
-2.644019898983707
 30
0.0
 10
0.9043965841584402
 20
-2.549838574149518
 30
0.0
 10
0.9636247180794163
 20
-2.5827536803491165
 30
0.0
 10
1.022721073744761
 20
-2.6697714646228907
 30
0.0
 10
1.056763370714738
 20
-2.7601171773786217
 30
0.0
 10
1.0767006252265239
 20
-2.7980835971337266
 30
0.0
 10
1.1267066595776434
 20
-2.870129203666759
 30
0.0
 10
1.2150721916257998
 20
-2.9688812189743543
 30
0.0
 10
1.3486660462489273
 20
-3.085497640721538
 30
0.0
 10
1.4536858758239515
 20
-3.1564930801343816
 30
0.0
 10
1.5526552726216092
 20
-3.1181521315534666
 30
0.0
 10
1.642894396551273
 20
-3.062278431541899
 30
0.0
 10
1.6495273996500568
 20
-2.9356864875197166
 30
0.0
 10
1.6369737701153502
 20
-2.7587991951563513
 30
0.0
 10
1.6114200909455263
 20
-2.6287705934475367
 30
0.0
 10
1.5840618241102675
 20
-2.54544773867162
 30
0.0
 10
1.5657788472106493
 20
-2.5066575865428042
 30
0.0
 10
1.514196479276695
 20
-2.425045791349588
 30
0.0
 10
1.4803682991541693
 20
-2.3254459506748226
 30
0.0
 10
1.4897944023180296
 20
-2.258345096410237
 30
0.0
 10
1.7644326341299528
 20
-2.050947930903059
 30
0.0
 10
1.8315515320169753
 20
-2.06024468357931
 30
0.0
 10
1.918091691912884
 20
-2.1200382848927664
 30
0.0
 10
1.98247182427127
 20
-2.1919856570049556
 30
0.0
 10
2.014777813165572
 20
-2.220186122037465
 30
0.0
 10
2.087432926446088
 20
-2.2693023862117006
 30
0.0
 10
2.205504673666589
 20
-2.3294645860531564
 30
0.0
 10
2.3722039436184748
 20
-2.3899464941884885
 30
0.0
 10
2.495778529059148
 20
-2.4182102316369525
 30
0.0
 10
2.5742143949852956
 20
-2.3467064920355076
 30
0.0
 10
2.6381759635672655
 20
-2.2620076869370305
 30
0.0
 10
2.598630769969991
 20
-2.141568097578805
 30
0.0
 10
2.5230257988299702
 20
-1.981160503765251
 30
0.0
 10
2.4522259539117233
 20
-1.869143497284021
 30
0.0
 10
2.396615442952488
 20
-1.8013301950263483
 30
0.0
 10
2.365554455536086
 20
-1.7717640284299365
 30
0.0
 10
2.287973749034634
 20
-1.7142969963587669
 30
0.0
 10
2.220450298101763
 20
-1.6336430590279902
 30
0.0
 10
2.205000253136443
 20
-1.5676682746443902
 30
0.0
 10
2.3861722798034717
 20
-1.2750654048933348
 30
0.0
 10
2.4521171625782454
 20
-1.2594882260822267
 30
0.0
 10
2.5544133985751962
 20
-1.2839821872501997
 30
0.0
 10
2.640436472704362
 20
-1.3278143274409449
 30
0.0
 10
2.6807480931673413
 20
-1.342440208684047
 30
0.0
 10
2.7662398097328387
 20
-1.36199370686014
 30
0.0
 10
2.8980715284054193
 20
-1.3754408527766102
 30
0.0
 10
3.0753625535665186
 20
-1.371619830464592
 30
0.0
 10
3.200802462358661
 20
-1.3533346915914848
 30
0.0
  0
LWPOLYLINE
  8
OpenJsCad
  90
31
  70
1
 10
0.08316467632710375
 20
-0.3912590402935223
 30
0.0
 10
2.4492935982947065e-17
 20
-0.4
 30
0.0
 10
-0.08316467632710357
 20
-0.3912590402935223
 30
0.0
 10
-0.16269465723032003
 20
-0.36541818305704044
 30
0.0
 10
-0.23511410091698934
 20
-0.32360679774997897
 30
0.0
 10
-0.29725793019095764
 20
-0.2676522425435434
 30
0.0
 10
-0.34641016151377546
 20
-0.2000000000000001
 30
0.0
 10
-0.3804226065180615
 20
-0.12360679774997893
 30
0.0
 10
-0.39780875814730937
 20
-0.04181138530706122
 30
0.0
 10
-0.3978087581473093
 20
0.04181138530706167
 30
0.0
 10
-0.3804226065180614
 20
0.123606797749979
 30
0.0
 10
-0.34641016151377535
 20
0.20000000000000015
 30
0.0
 10
-0.29725793019095764
 20
0.2676522425435434
 30
0.0
 10
-0.23511410091698925
 20
0.323606797749979
 30
0.0
 10
-0.16269465723032012
 20
0.3654181830570404
 30
0.0
 10
-0.08316467632710366
 20
0.3912590402935223
 30
0.0
 10
2.0212861992297212e-16
 20
0.4
 30
0.0
 10
0.0831646763271037
 20
0.3912590402935223
 30
0.0
 10
0.16269465723032
 20
0.36541818305704044
 30
0.0
 10
0.23511410091698928
 20
0.32360679774997897
 30
0.0
 10
0.2972579301909578
 20
0.2676522425435432
 30
0.0
 10
0.3464101615137755
 20
0.19999999999999996
 30
0.0
 10
0.3804226065180615
 20
0.12360679774997897
 30
0.0
 10
0.39780875814730937
 20
0.04181138530706136
 30
0.0
 10
0.3978087581473093
 20
-0.041811385307061355
 30
0.0
 10
0.3804226065180614
 20
-0.12360679774997896
 30
0.0
 10
0.34641016151377546
 20
-0.20000000000000004
 30
0.0
 10
0.29725793019095764
 20
-0.2676522425435433
 30
0.0
 10
0.23511410091698928
 20
-0.323606797749979
 30
0.0
 10
0.1626946572303201
 20
-0.3654181830570404
 30
0.0
 10
0.08316467632710375
 20
-0.3912590402935223
 30
0.0
  0
ENDSEC
  0
EOF
