999
DXF generated by OpenJsCad
  0
SECTION
  2
HEADER
  0
ENDSEC
  0
SECTION
  2
TABLES
  0
TABLE
  2
LTYPE
  70
1
  0
LTYPE
  2
CONTINUOUS
  3
Solid Line
  72
65
  73
0
  40
0.0
  0
ENDTAB
  0
TABLE
  2
LAYER
  70
1
  0
LAYER
  2
OpenJsCad
  62
7
  6
continuous
  0
ENDTAB
  0
TABLE
  2
STYLE
  70
0
  0
ENDTAB
  0
TABLE
  2
VIEW
  70
0
  0
ENDTAB
  0
ENDSEC
  0
SECTION
  2
BLOCKS
  0
ENDSEC
  0
SECTION
  2
ENTITIES
  0
LWPOLYLINE
  8
OpenJsCad
  90
286
  70
1
 10
2.799982667035806
 20
-1.3564967889103872
 30
0.0
 10
2.8472166763194395
 20
-1.2676625375862443
 30
0.0
 10
2.8816276692434175
 20
-1.173119111546601
 30
0.0
 10
2.8100562590183498
 20
-1.0713523232032542
 30
0.0
 10
2.6839806782782736
 20
-0.9367111424602053
 30
0.0
 10
2.579946547694313
 20
-0.8528209659827285
 30
0.0
 10
2.5088564461431138
 20
-0.8103052150433
 30
0.0
 10
2.479353124431715
 20
-0.7978536143008721
 30
0.0
 10
2.3932219484047716
 20
-0.7749653012325172
 30
0.0
 10
2.288861515918898
 20
-0.7174584141540326
 30
0.0
 10
2.2465679189576826
 20
-0.6534423965529642
 30
0.0
 10
2.318120884466741
 20
-0.3168121605965812
 30
0.0
 10
2.382795667960169
 20
-0.27553297415235806
 30
0.0
 10
2.501523825219296
 20
-0.2654450306578771
 30
0.0
 10
2.58951808546322
 20
-0.2795682216225616
 30
0.0
 10
2.6215352332849235
 20
-0.2801932003564167
 30
0.0
 10
2.7037719864553207
 20
-0.2702680784682903
 30
0.0
 10
2.832933102657577
 20
-0.23594508184545376
 30
0.0
 10
3.002872378637675
 20
-0.16422380124999394
 30
0.0
 10
3.109648397213089
 20
-0.10036592915528864
 30
0.0
 10
3.116666666666667
 20
-2.532484169829334e-16
 30
0.0
 10
3.109648397213089
 20
0.10036592915528894
 30
0.0
 10
3.002872378637525
 20
0.16422380125008437
 30
0.0
 10
2.8329331026575852
 20
0.23594508184548263
 30
0.0
 10
2.7037719864553256
 20
0.2702680784682882
 30
0.0
 10
2.621535233284926
 20
0.28019320035641476
 30
0.0
 10
2.5895180854632143
 20
0.2795682216225593
 30
0.0
 10
2.5015238252192944
 20
0.2654450306578869
 30
0.0
 10
2.382795667960165
 20
0.2755329741523595
 30
0.0
 10
2.3181208844667403
 20
0.31681216059657874
 30
0.0
 10
2.246567918957685
 20
0.6534423965529622
 30
0.0
 10
2.288861515918901
 20
0.7174584141540353
 30
0.0
 10
2.393221948404769
 20
0.7749653012325267
 30
0.0
 10
2.479353124431721
 20
0.797853614300872
 30
0.0
 10
2.508856446143112
 20
0.8103052150432969
 30
0.0
 10
2.5799465476943095
 20
0.8528209659827245
 30
0.0
 10
2.683980678278254
 20
0.9367111424602281
 30
0.0
 10
2.81005625901845
 20
1.0713523232033981
 30
0.0
 10
2.8816276692434175
 20
1.1731191115466013
 30
0.0
 10
2.84721667631944
 20
1.2676625375862438
 30
0.0
 10
2.799982667035806
 20
1.3564967889103878
 30
0.0
 10
2.6764645837511365
 20
1.3714041385408857
 30
0.0
 10
2.492045657198121
 20
1.3678042580063101
 30
0.0
 10
2.360090685760836
 20
1.3466253168437259
 30
0.0
 10
2.2809267626918475
 20
1.3222436659391916
 30
0.0
 10
2.251931844484853
 20
1.3086501722298898
 30
0.0
 10
2.177289507022888
 20
1.2599575052551442
 30
0.0
 10
2.0647228019920543
 20
1.2208822080893211
 30
0.0
 10
1.9888496895843955
 20
1.2322870170308495
 30
0.0
 10
1.7865629508320258
 20
1.5107108270006886
 30
0.0
 10
1.7991624141211702
 20
1.5863947247481238
 30
0.0
 10
1.8711102549722078
 20
1.6813770922010867
 30
0.0
 10
1.9404854839699581
 20
1.7373193120391484
 30
0.0
 10
1.9623735872178738
 20
1.7606944973702465
 30
0.0
 10
2.010024912758372
 20
1.8284495177800764
 30
0.0
 10
2.070943611425635
 20
1.9474015004809593
 30
0.0
 10
2.1313558836552553
 20
2.1216818980446175
 30
0.0
 10
2.1553473384960293
 20
2.2437612004095313
 30
0.0
 10
2.0854570564851085
 20
2.3161347060712116
 30
0.0
 10
2.0061744966840624
 20
2.3780770304764283
 30
0.0
 10
1.8872717474167657
 20
2.3414562414624966
 30
0.0
 10
1.720260878085041
 20
2.263157651846262
 30
0.0
 10
1.6083282647475199
 20
2.1901388042299397
 30
0.0
 10
1.5459253332602334
 20
2.1356661894744833
 30
0.0
 10
1.524966129436508
 20
2.111454619345087
 30
0.0
 10
1.47658205300802
 20
2.0366118808391938
 30
0.0
 10
1.3896406061417232
 20
1.9551298168809756
 30
0.0
 10
1.315688315240702
 20
1.9346882532443868
 30
0.0
 10
1.0176450180926324
 20
2.1067636310829903
 30
0.0
 10
0.9983717860444811
 20
2.18102897548963
 30
0.0
 10
1.025466599951929
 20
2.2970635090967275
 30
0.0
 10
1.0660902745725973
 20
2.376386717675392
 30
0.0
 10
1.0765785074582974
 20
2.4066437056945245
 30
0.0
 10
1.0925517099034416
 20
2.4879225370108604
 30
0.0
 10
1.099821580225451
 20
2.6213684474813026
 30
0.0
 10
1.0841247132477303
 20
2.8051533978389864
 30
0.0
 10
1.0563878722068163
 20
2.926436593791072
 30
0.0
 10
0.9631029658019193
 20
2.9641261424532286
 30
0.0
 10
0.8654805303325059
 20
2.988466149321505
 30
0.0
 10
0.7717524806284639
 20
2.9066492887730755
 30
0.0
 10
0.6510273650716015
 20
2.7671905275401856
 30
0.0
 10
0.5784712755557703
 20
2.654957395578392
 30
0.0
 10
0.5436193694171727
 20
2.5798126269314015
 30
0.0
 10
0.5343199167262279
 20
2.5491693808124927
 30
0.0
 10
0.5205601477012375
 20
2.461117560188055
 30
0.0
 10
0.4742769250009096
 20
2.3513177185371306
 30
0.0
 10
0.4150324785387837
 20
2.302564314380966
 30
0.0
 10
0.07276701671026742
 20
2.338537864004307
 30
0.0
 10
0.02495360623776207
 20
2.3985435023427706
 30
0.0
 10
0.0025104537283659593
 20
2.5155667771026904
 30
0.0
 10
0.007358371575540708
 20
2.604555271029981
 30
0.0
 10
0.004633223350483167
 20
2.636462353632533
 30
0.0
 10
-0.013833609114480339
 20
2.717211147525779
 30
0.0
 10
-0.06146959376109929
 20
2.8420769755274025
 30
0.0
 10
-0.15056146904415307
 20
3.0035883911284103
 30
0.0
 10
-0.22523065416949062
 20
3.103104514264307
 30
0.0
 10
-0.3257803771841858
 20
3.099593240564452
 30
0.0
 10
-0.4248628823573208
 20
3.082122321586242
 30
0.0
 10
-0.4772098012116795
 20
2.9692562679749823
 30
0.0
 10
-0.5307746937606541
 20
2.7927510218856764
 30
0.0
 10
-0.5514086524261284
 20
2.6607097337006
 30
0.0
 10
-0.5526833220250459
 20
2.577886024329932
 30
0.0
 10
-0.5487150637300704
 20
2.546109597860622
 30
0.0
 10
-0.5254713362835656
 20
2.460073654829282
 30
0.0
 10
-0.5230935451431595
 20
2.340941425607342
 30
0.0
 10
-0.5573862441541887
 20
2.2723060874209753
 30
0.0
 10
-0.8846930629288955
 20
2.1659576552897404
 30
0.0
 10
-0.9527792787838609
 20
2.201328067557196
 30
0.0
 10
-1.0208797727515868
 20
2.299105696140873
 30
0.0
 10
-1.052645860715633
 20
2.3823725563816724
 30
0.0
 10
-1.0681131871661413
 20
2.410412709118917
 30
0.0
 10
-1.1178269714421143
 20
2.4766692655451683
 30
0.0
 10
-1.2121321165526262
 20
2.571364575046058
 30
0.0
 10
-1.3592142055302954
 20
2.6826756648478276
 30
0.0
 10
-1.4679047542836348
 20
2.7432174734017423
 30
0.0
 10
-1.558333333333333
 20
2.699112508461501
 30
0.0
 10
-1.6417436429294534
 20
2.6428515442464535
 30
0.0
 10
-1.6436581731073818
 20
2.518451863597658
 30
0.0
 10
-1.6208009861049792
 20
2.3354194932005967
 30
0.0
 10
-1.5859450150132062
 20
2.2064011870768834
 30
0.0
 10
-1.5534220461187813
 20
2.130219508762504
 30
0.0
 10
-1.536872224747581
 20
2.1028043347591074
 30
0.0
 10
-1.480644052467716
 20
2.03366066548299
 30
0.0
 10
-1.430016389176307
 20
1.925795093404834
 30
0.0
 10
-1.4334278215378424
 20
1.8491454946931598
 30
0.0
 10
-1.6891816748034922
 20
1.618863690868014
 30
0.0
 10
-1.7657679707757419
 20
1.6234830114533112
 30
0.0
 10
-1.8677506121212124
 20
1.6851083535967581
 30
0.0
 10
-1.9306380607016467
 20
1.748255983559755
 30
0.0
 10
-1.956173124118063
 20
1.767580809286632
 30
0.0
 10
-2.0285378952681783
 20
1.8078887677178708
 30
0.0
 10
-2.1532059845176286
 20
1.8560398794254427
 30
0.0
 10
-2.332846457806844
 20
1.8979039447717436
 30
0.0
 10
-2.456764786886096
 20
1.909003210039641
 30
0.0
 10
-2.521436299135253
 20
1.8319307029782081
 30
0.0
 10
-2.5747520128663157
 20
1.7466077253539194
 30
0.0
 10
-2.525903114707089
 20
1.6321842525873842
 30
0.0
 10
-2.4305760634370497
 20
1.4742727175211041
 30
0.0
 10
-2.3462570766463537
 20
1.3705858306820577
 30
0.0
 10
-2.2855599860423284
 20
1.3142186876933437
 30
0.0
 10
-2.259290216060392
 20
1.2959050988000855
 30
0.0
 10
-2.179799960751264
 20
1.255609271847546
 30
0.0
 10
-2.0896764082298183
 20
1.1776612942534457
 30
0.0
 10
-2.0616167062946604
 20
1.1062508469734567
 30
0.0
 10
-2.2015954293708075
 20
0.7918534873802788
 30
0.0
 10
-2.2734393391220826
 20
0.7649229937890097
 30
0.0
 10
-2.391670402673455
 20
0.779740467986967
 30
0.0
 10
-2.474805400696186
 20
0.8118500687733506
 30
0.0
 10
-2.5059929566350436
 20
0.8191181295611532
 30
0.0
 10
-2.5884961883141386
 20
0.8265078777983117
 30
0.0
 10
-2.721970976497262
 20
0.8197890270592096
 30
0.0
 10
-2.903108364283852
 20
0.7849673907285727
 30
0.0
 10
-3.0208278688285355
 20
0.7447049489119733
 30
0.0
 10
-3.048560022287028
 20
0.6479914363820163
 30
0.0
 10
-3.0625623688908785
 20
0.5483595633146431
 30
0.0
 10
-2.9713964606645353
 20
0.46369715637631886
 30
0.0
 10
-2.820082458310522
 20
0.3582107956350388
 30
0.0
 10
-2.7008799746509613
 20
0.29778373278092624
 30
0.0
 10
-2.6225038407185295
 20
0.27097751622004423
 30
0.0
 10
-2.5910564040091013
 20
0.26493209833030035
 30
0.0
 10
-2.502048652959958
 20
0.2604516282575286
 30
0.0
 10
-2.3880123921862046
 20
0.2258991586086497
 30
0.0
 10
-2.3333333333333313
 20
0.17207537783860274
 30
0.0
 10
-2.333333333333333
 20
-0.17207537783860125
 30
0.0
 10
-2.3880123921862078
 20
-0.22589915860865276
 30
0.0
 10
-2.5020486529599575
 20
-0.2604516282575394
 30
0.0
 10
-2.591056404009107
 20
-0.26493209833030007
 30
0.0
 10
-2.6225038407185273
 20
-0.27097751622004257
 30
0.0
 10
-2.7008799746509564
 20
-0.297783732780924
 30
0.0
 10
-2.820082458310507
 20
-0.35821079563506625
 30
0.0
 10
-2.9713964606646632
 20
-0.4636971563764394
 30
0.0
 10
-3.062562368890879
 20
-0.5483595633146445
 30
0.0
 10
-3.0485600222870284
 20
-0.6479914363820161
 30
0.0
 10
-3.020827868828536
 20
-0.7447049489119733
 30
0.0
 10
-2.903108364283687
 20
-0.7849673907286296
 30
0.0
 10
-2.7219709764972646
 20
-0.8197890270592394
 30
0.0
 10
-2.5884961883141444
 20
-0.8265078777983103
 30
0.0
 10
-2.505992956635047
 20
-0.8191181295611513
 30
0.0
 10
-2.4748054006961806
 20
-0.8118500687733466
 30
0.0
 10
-2.391670402673452
 20
-0.7797404679869757
 30
0.0
 10
-2.273439339122079
 20
-0.7649229937890101
 30
0.0
 10
-2.2015954293708075
 20
-0.7918534873802759
 30
0.0
 10
-2.061616706294663
 20
-1.1062508469734549
 30
0.0
 10
-2.089676408229821
 20
-1.1776612942534492
 30
0.0
 10
-2.1797999607512604
 20
-1.2556092718475549
 30
0.0
 10
-2.259290216060398
 20
-1.2959050988000866
 30
0.0
 10
-2.285559986042328
 20
-1.3142186876933404
 30
0.0
 10
-2.346257076646351
 20
-1.370585830682053
 30
0.0
 10
-2.4305760634370257
 20
-1.4742727175211223
 30
0.0
 10
-2.525903114707158
 20
-1.6321842525875454
 30
0.0
 10
-2.574752012866316
 20
-1.7466077253539194
 30
0.0
 10
-2.5214362991352544
 20
-1.8319307029782068
 30
0.0
 10
-2.4567647868860973
 20
-1.9090032100396397
 30
0.0
 10
-2.3328464578066708
 20
-1.8979039447717272
 30
0.0
 10
-2.1532059845176197
 20
-1.85603987942547
 30
0.0
 10
-2.028537895268185
 20
-1.8078887677178708
 30
0.0
 10
-1.956173124118068
 20
-1.767580809286631
 30
0.0
 10
-1.930638060701645
 20
-1.7482559835597486
 30
0.0
 10
-1.8677506121212066
 20
-1.6851083535967641
 30
0.0
 10
-1.7657679707757392
 20
-1.6234830114533088
 30
0.0
 10
-1.6891816748034942
 20
-1.61886369086801
 30
0.0
 10
-1.4334278215378462
 20
-1.8491454946931583
 30
0.0
 10
-1.4300163891763087
 20
-1.925795093404837
 30
0.0
 10
-1.4806440524677098
 20
-2.0336606654829947
 30
0.0
 10
-1.5368722247475872
 20
-2.1028043347591097
 30
0.0
 10
-1.5534220461187827
 20
-2.130219508762499
 30
0.0
 10
-1.5859450150132068
 20
-2.206401187076877
 30
0.0
 10
-1.620800986104951
 20
-2.335419493200603
 30
0.0
 10
-1.64365817310738
 20
-2.518451863597832
 30
0.0
 10
-1.641743642929455
 20
-2.6428515442464526
 30
0.0
 10
-1.5583333333333333
 20
-2.699112508461501
 30
0.0
 10
-1.4679047542836348
 20
-2.7432174734017427
 30
0.0
 10
-1.3592142055301424
 20
-2.682675664847743
 30
0.0
 10
-1.2121321165526058
 20
-2.571364575046079
 30
0.0
 10
-1.117826971442119
 20
-2.4766692655451714
 30
0.0
 10
-1.068113187166145
 20
-2.4104127091189183
 30
0.0
 10
-1.0526458607156326
 20
-2.3823725563816662
 30
0.0
 10
-1.0208797727515777
 20
-2.2991056961408765
 30
0.0
 10
-0.952779278783858
 20
-2.2013280675571933
 30
0.0
 10
-0.8846930629288975
 20
-2.1659576552897386
 30
0.0
 10
-0.5573862441541916
 20
-2.272306087420976
 30
0.0
 10
-0.5230935451431588
 20
-2.340941425607346
 30
0.0
 10
-0.5254713362835564
 20
-2.460073654829285
 30
0.0
 10
-0.5487150637300738
 20
-2.546109597860627
 30
0.0
 10
-0.5526833220250482
 20
-2.5778860243299286
 30
0.0
 10
-0.5514086524261305
 20
-2.660709733700595
 30
0.0
 10
-0.5307746937606248
 20
-2.7927510218856706
 30
0.0
 10
-0.4772098012116057
 20
-2.9692562679751417
 30
0.0
 10
-0.424862882357321
 20
-3.0821223215862426
 30
0.0
 10
-0.32578037718418756
 20
-3.099593240564452
 30
0.0
 10
-0.22523065416949076
 20
-3.103104514264307
 30
0.0
 10
-0.1505614690440478
 20
-3.0035883911282704
 30
0.0
 10
-0.0614695937610718
 20
-2.842076975527414
 30
0.0
 10
-0.013833609114483336
 20
-2.717211147525784
 30
0.0
 10
0.004633223350480492
 20
-2.6364623536325356
 30
0.0
 10
0.0073583715755384735
 20
-2.604555271029975
 30
0.0
 10
0.002510453728375482
 20
-2.51556677710269
 30
0.0
 10
0.024953606237763583
 20
-2.398543502342767
 30
0.0
 10
0.07276701671026467
 20
-2.3385378640043064
 30
0.0
 10
0.4150324785387814
 20
-2.3025643143809678
 30
0.0
 10
0.474276925000912
 20
-2.351317718537134
 30
0.0
 10
0.5205601477012468
 20
-2.4611175601880535
 30
0.0
 10
0.534319916726227
 20
-2.5491693808124993
 30
0.0
 10
0.5436193694171695
 20
-2.5798126269313997
 30
0.0
 10
0.5784712755557663
 20
-2.6549573955783883
 30
0.0
 10
0.6510273650716261
 20
-2.7671905275401687
 30
0.0
 10
0.7717524806285959
 20
-2.9066492887731905
 30
0.0
 10
0.8654805303325058
 20
-2.988466149321505
 30
0.0
 10
0.9631029658019178
 20
-2.9641261424532295
 30
0.0
 10
1.056387872206815
 20
-2.9264365937910726
 30
0.0
 10
1.0841247132477683
 20
-2.805153397838817
 30
0.0
 10
1.0998215802254796
 20
-2.6213684474813026
 30
0.0
 10
1.0925517099034399
 20
-2.487922537010867
 30
0.0
 10
1.0765785074582952
 20
-2.406643705694529
 30
0.0
 10
1.066090274572592
 20
-2.3763867176753886
 30
0.0
 10
1.0254665999519366
 20
-2.2970635090967235
 30
0.0
 10
0.9983717860444798
 20
-2.181028975489627
 30
0.0
 10
1.0176450180926284
 20
-2.1067636310829907
 30
0.0
 10
1.3156883152406997
 20
-1.9346882532443903
 30
0.0
 10
1.389640606141726
 20
-1.9551298168809788
 30
0.0
 10
1.4765820530080274
 20
-2.0366118808391893
 30
0.0
 10
1.5249661294365089
 20
-2.111454619345094
 30
0.0
 10
1.5459253332602287
 20
-2.1356661894744837
 30
0.0
 10
1.6083282647475137
 20
-2.1901388042299383
 30
0.0
 10
1.7202608780850555
 20
-2.263157651846238
 30
0.0
 10
1.887271747416932
 20
-2.341456241462549
 30
0.0
 10
2.0061744966840607
 20
-2.378077030476429
 30
0.0
 10
2.085457056485108
 20
-2.316134706071212
 30
0.0
 10
2.1553473384960298
 20
-2.243761200409531
 30
0.0
 10
2.131355883655222
 20
-2.1216818980444456
 30
0.0
 10
2.0709436114256623
 20
-1.947401500480946
 30
0.0
 10
2.0100249127583734
 20
-1.8284495177800812
 30
0.0
 10
1.9623735872178742
 20
-1.7606944973702496
 30
0.0
 10
1.9404854839699526
 20
-1.7373193120391457
 30
0.0
 10
1.8711102549722138
 20
-1.6813770922010784
 30
0.0
 10
1.7991624141211688
 20
-1.58639472474812
 30
0.0
 10
1.7865629508320235
 20
-1.5107108270006897
 30
0.0
 10
1.988849689584395
 20
-1.232287017030852
 30
0.0
 10
2.0647228019920583
 20
-1.220882208089321
 30
0.0
 10
2.177289507022894
 20
-1.2599575052551357
 30
0.0
 10
2.251931844484857
 20
-1.3086501722298942
 30
0.0
 10
2.280926762691844
 20
-1.322243665939192
 30
0.0
 10
2.360090685760831
 20
-1.3466253168437254
 30
0.0
 10
2.492045657198125
 20
-1.36780425800628
 30
0.0
 10
2.6764645837513106
 20
-1.3714041385408642
 30
0.0
 10
2.799982667035806
 20
-1.3564967889103872
 30
0.0
  0
LWPOLYLINE
  8
OpenJsCad
  90
31
  70
1
 10
0.08316467632710375
 20
-0.3912590402935223
 30
0.0
 10
2.4492935982947065e-17
 20
-0.4
 30
0.0
 10
-0.08316467632710357
 20
-0.3912590402935223
 30
0.0
 10
-0.16269465723032003
 20
-0.36541818305704044
 30
0.0
 10
-0.23511410091698934
 20
-0.32360679774997897
 30
0.0
 10
-0.29725793019095764
 20
-0.2676522425435434
 30
0.0
 10
-0.34641016151377546
 20
-0.2000000000000001
 30
0.0
 10
-0.3804226065180615
 20
-0.12360679774997893
 30
0.0
 10
-0.39780875814730937
 20
-0.04181138530706122
 30
0.0
 10
-0.3978087581473093
 20
0.04181138530706167
 30
0.0
 10
-0.3804226065180614
 20
0.123606797749979
 30
0.0
 10
-0.34641016151377535
 20
0.20000000000000015
 30
0.0
 10
-0.29725793019095764
 20
0.2676522425435434
 30
0.0
 10
-0.23511410091698925
 20
0.323606797749979
 30
0.0
 10
-0.16269465723032012
 20
0.3654181830570404
 30
0.0
 10
-0.08316467632710366
 20
0.3912590402935223
 30
0.0
 10
2.0212861992297212e-16
 20
0.4
 30
0.0
 10
0.0831646763271037
 20
0.3912590402935223
 30
0.0
 10
0.16269465723032
 20
0.36541818305704044
 30
0.0
 10
0.23511410091698928
 20
0.32360679774997897
 30
0.0
 10
0.2972579301909578
 20
0.2676522425435432
 30
0.0
 10
0.3464101615137755
 20
0.19999999999999996
 30
0.0
 10
0.3804226065180615
 20
0.12360679774997897
 30
0.0
 10
0.39780875814730937
 20
0.04181138530706136
 30
0.0
 10
0.3978087581473093
 20
-0.041811385307061355
 30
0.0
 10
0.3804226065180614
 20
-0.12360679774997896
 30
0.0
 10
0.34641016151377546
 20
-0.20000000000000004
 30
0.0
 10
0.29725793019095764
 20
-0.2676522425435433
 30
0.0
 10
0.23511410091698928
 20
-0.323606797749979
 30
0.0
 10
0.1626946572303201
 20
-0.3654181830570404
 30
0.0
 10
0.08316467632710375
 20
-0.3912590402935223
 30
0.0
  0
ENDSEC
  0
EOF
