999
DXF generated by OpenJsCad
  0
SECTION
  2
HEADER
  0
ENDSEC
  0
SECTION
  2
TABLES
  0
TABLE
  2
LTYPE
  70
1
  0
LTYPE
  2
CONTINUOUS
  3
Solid Line
  72
65
  73
0
  40
0.0
  0
ENDTAB
  0
TABLE
  2
LAYER
  70
1
  0
LAYER
  2
OpenJsCad
  62
7
  6
continuous
  0
ENDTAB
  0
TABLE
  2
STYLE
  70
0
  0
ENDTAB
  0
TABLE
  2
VIEW
  70
0
  0
ENDTAB
  0
ENDSEC
  0
SECTION
  2
BLOCKS
  0
ENDSEC
  0
SECTION
  2
ENTITIES
  0
LWPOLYLINE
  8
OpenJsCad
  90
381
  70
1
 10
3.7939272920747666
 20
-1.3477670996943314
 30
0.0
 10
3.835927949057119
 20
-1.2463685439789545
 30
0.0
 10
3.861549279436738
 20
-1.139648022439317
 30
0.0
 10
3.768026263393715
 20
-1.0432013436362477
 30
0.0
 10
3.6380834302879603
 20
-0.9346226887515137
 30
0.0
 10
3.5291169997170297
 20
-0.8614507354354743
 30
0.0
 10
3.4467589360811637
 20
-0.8178780197326179
 30
0.0
 10
3.3956345201213414
 20
-0.7973450795321048
 30
0.0
 10
3.2947428465566424
 20
-0.7686401258457156
 30
0.0
 10
3.21644469392772
 20
-0.7253776268639835
 30
0.0
 10
3.183068587255417
 20
-0.678368855775444
 30
0.0
 10
3.236905626612976
 20
-0.3384551669860621
 30
0.0
 10
3.283174699503264
 20
-0.3040609530870358
 30
0.0
 10
3.371009515179361
 20
-0.2871113313098389
 30
0.0
 10
3.4758335172748414
 20
-0.29098853977882083
 30
0.0
 10
3.5308007536816524
 20
-0.2872588665615147
 30
0.0
 10
3.622592636415239
 20
-0.2712687926469328
 30
0.0
 10
3.748837247353372
 20
-0.23535060849848782
 30
0.0
 10
3.9059728751101725
 20
-0.17224071496671747
 30
0.0
 10
4.0247222117427155
 20
-0.10941467393848536
 30
0.0
 10
4.033333333333333
 20
-1.9711877202201307e-16
 30
0.0
 10
4.024722211742715
 20
0.10941467393848694
 30
0.0
 10
3.905972875110251
 20
0.17224071496667684
 30
0.0
 10
3.7488372473534146
 20
0.23535060849845968
 30
0.0
 10
3.622592636415241
 20
0.2712687926469284
 30
0.0
 10
3.530800753681649
 20
0.2872588665615101
 30
0.0
 10
3.475833517274833
 20
0.290988539778828
 30
0.0
 10
3.3710095151793626
 20
0.2871113313097975
 30
0.0
 10
3.283174699503269
 20
0.3040609530870856
 30
0.0
 10
3.2369056266129728
 20
0.3384551669860557
 30
0.0
 10
3.1830685872554216
 20
0.6783688557754388
 30
0.0
 10
3.2164446939276994
 20
0.7253776268640293
 30
0.0
 10
3.2947428465566535
 20
0.7686401258456758
 30
0.0
 10
3.395634520121347
 20
0.7973450795321142
 30
0.0
 10
3.4467589360811686
 20
0.8178780197326148
 30
0.0
 10
3.5291169997170293
 20
0.8614507354354696
 30
0.0
 10
3.638083430287929
 20
0.9346226887514738
 30
0.0
 10
3.7680262633936525
 20
1.0432013436361844
 30
0.0
 10
3.8615492794367383
 20
1.1396480224393184
 30
0.0
 10
3.8359279490571194
 20
1.2463685439789542
 30
0.0
 10
3.793927292074766
 20
1.347767099694332
 30
0.0
 10
3.6615756472977266
 20
1.3708226523170357
 30
0.0
 10
3.4926287549629427
 20
1.3822861484044935
 30
0.0
 10
3.361463665774081
 20
1.3774346412642349
 30
0.0
 10
3.26922319297638
 20
1.3642768535463865
 30
0.0
 10
3.215793712201325
 20
1.350838173379837
 30
0.0
 10
3.117298285251956
 20
1.314758330934435
 30
0.0
 10
3.0285246902682137
 20
1.3037359284327592
 30
0.0
 10
2.9738917903900135
 20
1.3221488398471497
 30
0.0
 10
2.8176506168343796
 20
1.628789408459899
 30
0.0
 10
2.834866671422555
 20
1.6838111906945352
 30
0.0
 10
2.895963792289737
 20
1.7491517320527528
 30
0.0
 10
2.983047157361507
 20
1.8076290070286103
 30
0.0
 10
3.0253243388354396
 20
1.8429553069640738
 30
0.0
 10
3.090186802282526
 20
1.9098454634532447
 30
0.0
 10
3.1712086590481476
 20
2.0131086053272607
 30
0.0
 10
3.261238987633452
 20
2.1565275863128233
 30
0.0
 10
3.3203809986636137
 20
2.2771540299860837
 30
0.0
 10
3.2630352106456213
 20
2.3707338509129747
 30
0.0
 10
3.19175633521275
 20
2.4541906912865414
 30
0.0
 10
3.0587578834300437
 20
2.4352189173755683
 30
0.0
 10
2.8945374254612566
 20
2.3939138891507863
 30
0.0
 10
2.771291210832426
 20
2.348767590043127
 30
0.0
 10
2.68763128812522
 20
2.307749916630369
 30
0.0
 10
2.6409696128252707
 20
2.2784583547274444
 30
0.0
 10
2.5584441796697996
 20
2.213707624667271
 30
0.0
 10
2.4774215833774234
 20
2.1757921474410895
 30
0.0
 10
2.4197727054011935
 20
2.176421372311362
 30
0.0
 10
2.176421372311369
 20
2.4197727054011917
 30
0.0
 10
2.1757921474410464
 20
2.4774215833774487
 30
0.0
 10
2.213707624667304
 20
2.558444179669774
 30
0.0
 10
2.2784583547274435
 20
2.6409696128252813
 30
0.0
 10
2.3077499166303754
 20
2.68763128812522
 30
0.0
 10
2.3487675900431295
 20
2.7712912108324215
 30
0.0
 10
2.393913889150784
 20
2.8945374254612055
 30
0.0
 10
2.4352189173755554
 20
3.058757883429956
 30
0.0
 10
2.454190691286541
 20
3.191756335212751
 30
0.0
 10
2.370733850912975
 20
3.263035210645621
 30
0.0
 10
2.277154029986083
 20
3.3203809986636137
 30
0.0
 10
2.156527586312903
 20
3.261238987633491
 30
0.0
 10
2.0131086053273086
 20
3.171208659048165
 30
0.0
 10
1.909845463453249
 20
3.0901868022825245
 30
0.0
 10
1.8429553069640752
 20
3.025324338835434
 30
0.0
 10
1.8076290070285996
 20
2.983047157361504
 30
0.0
 10
1.749151732052787
 20
2.8959637922897135
 30
0.0
 10
1.6838111906944977
 20
2.834866671422588
 30
0.0
 10
1.6287894084599024
 20
2.817650616834373
 30
0.0
 10
1.3221488398471564
 20
2.973891790390014
 30
0.0
 10
1.3037359284327104
 20
3.028524690268224
 30
0.0
 10
1.3147583309344737
 20
3.117298285251941
 30
0.0
 10
1.3508381733798325
 20
3.215793712201335
 30
0.0
 10
1.3642768535463918
 20
3.2692231929763813
 30
0.0
 10
1.3774346412642384
 20
3.3614636657740773
 30
0.0
 10
1.3822861484045068
 20
3.492628754962893
 30
0.0
 10
1.3708226523170504
 20
3.6615756472976386
 30
0.0
 10
1.3477670996943307
 20
3.7939272920747666
 30
0.0
 10
1.2463685439789547
 20
3.835927949057119
 30
0.0
 10
1.1396480224393173
 20
3.861549279436738
 30
0.0
 10
1.043201343636248
 20
3.768026263393715
 30
0.0
 10
0.9346226887515139
 20
3.6380834302879603
 30
0.0
 10
0.8614507354354746
 20
3.5291169997170297
 30
0.0
 10
0.8178780197326181
 20
3.4467589360811637
 30
0.0
 10
0.797345079532105
 20
3.3956345201213414
 30
0.0
 10
0.7686401258457158
 20
3.2947428465566424
 30
0.0
 10
0.7253776268639838
 20
3.21644469392772
 30
0.0
 10
0.6783688557754443
 20
3.183068587255417
 30
0.0
 10
0.3384551669860623
 20
3.236905626612976
 30
0.0
 10
0.304060953087036
 20
3.283174699503264
 30
0.0
 10
0.2871113313098391
 20
3.371009515179361
 30
0.0
 10
0.29098853977882105
 20
3.4758335172748414
 30
0.0
 10
0.28725886656151495
 20
3.5308007536816524
 30
0.0
 10
0.27126879264693304
 20
3.622592636415239
 30
0.0
 10
0.23535060849848805
 20
3.748837247353372
 30
0.0
 10
0.17224071496671772
 20
3.9059728751101725
 30
0.0
 10
0.10941467393848561
 20
4.0247222117427155
 30
0.0
 10
4.1916337694704437e-16
 20
4.033333333333333
 30
0.0
 10
-0.1094146739384865
 20
4.0247222117427155
 30
0.0
 10
-0.1722407149666764
 20
3.9059728751102516
 30
0.0
 10
-0.23535060849845957
 20
3.7488372473534146
 30
0.0
 10
-0.27126879264692805
 20
3.6225926364152414
 30
0.0
 10
-0.2872588665615101
 20
3.5308007536816493
 30
0.0
 10
-0.2909885397788279
 20
3.4758335172748334
 30
0.0
 10
-0.28711133130979727
 20
3.371009515179362
 30
0.0
 10
-0.30406095308708536
 20
3.2831746995032693
 30
0.0
 10
-0.3384551669860556
 20
3.236905626612973
 30
0.0
 10
-0.6783688557754386
 20
3.183068587255422
 30
0.0
 10
-0.7253776268640291
 20
3.2164446939277
 30
0.0
 10
-0.7686401258456755
 20
3.294742846556654
 30
0.0
 10
-0.797345079532114
 20
3.3956345201213476
 30
0.0
 10
-0.8178780197326145
 20
3.446758936081169
 30
0.0
 10
-0.8614507354354692
 20
3.5291169997170297
 30
0.0
 10
-0.9346226887514735
 20
3.638083430287929
 30
0.0
 10
-1.0432013436361842
 20
3.768026263393653
 30
0.0
 10
-1.1396480224393182
 20
3.8615492794367388
 30
0.0
 10
-1.2463685439789538
 20
3.835927949057119
 30
0.0
 10
-1.3477670996943316
 20
3.7939272920747658
 30
0.0
 10
-1.3708226523170353
 20
3.661575647297726
 30
0.0
 10
-1.382286148404493
 20
3.4926287549629427
 30
0.0
 10
-1.3774346412642344
 20
3.361463665774081
 30
0.0
 10
-1.364276853546386
 20
3.26922319297638
 30
0.0
 10
-1.3508381733798365
 20
3.215793712201325
 30
0.0
 10
-1.3147583309344346
 20
3.117298285251956
 30
0.0
 10
-1.303735928432759
 20
3.0285246902682137
 30
0.0
 10
-1.3221488398471493
 20
2.9738917903900135
 30
0.0
 10
-1.6287894084598986
 20
2.8176506168343796
 30
0.0
 10
-1.6838111906945348
 20
2.834866671422555
 30
0.0
 10
-1.7491517320527523
 20
2.895963792289737
 30
0.0
 10
-1.8076290070286098
 20
2.983047157361507
 30
0.0
 10
-1.8429553069640734
 20
3.0253243388354396
 30
0.0
 10
-1.9098454634532442
 20
3.090186802282526
 30
0.0
 10
-2.01310860532726
 20
3.1712086590481476
 30
0.0
 10
-2.156527586312823
 20
3.261238987633452
 30
0.0
 10
-2.2771540299860833
 20
3.3203809986636137
 30
0.0
 10
-2.3707338509129743
 20
3.2630352106456213
 30
0.0
 10
-2.454190691286541
 20
3.1917563352127503
 30
0.0
 10
-2.435218917375568
 20
3.0587578834300437
 30
0.0
 10
-2.393913889150786
 20
2.894537425461257
 30
0.0
 10
-2.3487675900431264
 20
2.7712912108324264
 30
0.0
 10
-2.3077499166303688
 20
2.6876312881252202
 30
0.0
 10
-2.278458354727444
 20
2.6409696128252707
 30
0.0
 10
-2.2137076246672707
 20
2.5584441796697996
 30
0.0
 10
-2.175792147441089
 20
2.477421583377424
 30
0.0
 10
-2.1764213723113617
 20
2.4197727054011935
 30
0.0
 10
-2.4197727054011913
 20
2.1764213723113692
 30
0.0
 10
-2.4774215833774482
 20
2.175792147441047
 30
0.0
 10
-2.5584441796697734
 20
2.2137076246673044
 30
0.0
 10
-2.640969612825281
 20
2.278458354727444
 30
0.0
 10
-2.6876312881252193
 20
2.3077499166303754
 30
0.0
 10
-2.771291210832421
 20
2.3487675900431295
 30
0.0
 10
-2.894537425461205
 20
2.3939138891507845
 30
0.0
 10
-3.0587578834299554
 20
2.435218917375556
 30
0.0
 10
-3.1917563352127507
 20
2.4541906912865414
 30
0.0
 10
-3.2630352106456204
 20
2.370733850912975
 30
0.0
 10
-3.3203809986636137
 20
2.2771540299860833
 30
0.0
 10
-3.261238987633491
 20
2.156527586312903
 30
0.0
 10
-3.171208659048165
 20
2.0131086053273086
 30
0.0
 10
-3.090186802282524
 20
1.9098454634532491
 30
0.0
 10
-3.025324338835434
 20
1.8429553069640754
 30
0.0
 10
-2.983047157361504
 20
1.8076290070285996
 30
0.0
 10
-2.8959637922897135
 20
1.7491517320527872
 30
0.0
 10
-2.834866671422588
 20
1.683811190694498
 30
0.0
 10
-2.817650616834373
 20
1.6287894084599026
 30
0.0
 10
-2.973891790390014
 20
1.3221488398471566
 30
0.0
 10
-3.028524690268224
 20
1.3037359284327106
 30
0.0
 10
-3.117298285251941
 20
1.3147583309344741
 30
0.0
 10
-3.215793712201335
 20
1.3508381733798327
 30
0.0
 10
-3.2692231929763813
 20
1.364276853546392
 30
0.0
 10
-3.3614636657740773
 20
1.3774346412642384
 30
0.0
 10
-3.492628754962893
 20
1.382286148404507
 30
0.0
 10
-3.6615756472976386
 20
1.3708226523170504
 30
0.0
 10
-3.7939272920747666
 20
1.347767099694331
 30
0.0
 10
-3.835927949057119
 20
1.246368543978955
 30
0.0
 10
-3.861549279436738
 20
1.1396480224393175
 30
0.0
 10
-3.768026263393715
 20
1.0432013436362482
 30
0.0
 10
-3.6380834302879603
 20
0.9346226887515141
 30
0.0
 10
-3.5291169997170297
 20
0.8614507354354748
 30
0.0
 10
-3.4467589360811637
 20
0.8178780197326183
 30
0.0
 10
-3.3956345201213414
 20
0.7973450795321052
 30
0.0
 10
-3.2947428465566424
 20
0.7686401258457161
 30
0.0
 10
-3.21644469392772
 20
0.725377626863984
 30
0.0
 10
-3.183068587255417
 20
0.6783688557754445
 30
0.0
 10
-3.236905626612976
 20
0.3384551669860625
 30
0.0
 10
-3.283174699503264
 20
0.3040609530870362
 30
0.0
 10
-3.371009515179361
 20
0.2871113313098393
 30
0.0
 10
-3.4758335172748414
 20
0.2909885397788213
 30
0.0
 10
-3.5308007536816524
 20
0.28725886656151517
 30
0.0
 10
-3.622592636415239
 20
0.27126879264693327
 30
0.0
 10
-3.748837247353372
 20
0.2353506084984883
 30
0.0
 10
-3.9059728751101725
 20
0.17224071496671794
 30
0.0
 10
-4.0247222117427155
 20
0.10941467393848586
 30
0.0
 10
-4.033333333333333
 20
-1.1351488575281747e-15
 30
0.0
 10
-4.0247222117427155
 20
-0.10941467393848806
 30
0.0
 10
-3.9059728751102516
 20
-0.17224071496667795
 30
0.0
 10
-3.748837247353415
 20
-0.235350608498461
 30
0.0
 10
-3.6225926364152414
 20
-0.2712687926469297
 30
0.0
 10
-3.5308007536816493
 20
-0.28725886656151145
 30
0.0
 10
-3.475833517274833
 20
-0.2909885397788293
 30
0.0
 10
-3.3710095151793626
 20
-0.2871113313097986
 30
0.0
 10
-3.283174699503269
 20
-0.3040609530870867
 30
0.0
 10
-3.236905626612973
 20
-0.3384551669860568
 30
0.0
 10
-3.1830685872554216
 20
-0.6783688557754399
 30
0.0
 10
-3.2164446939276994
 20
-0.7253776268640304
 30
0.0
 10
-3.2947428465566535
 20
-0.7686401258456769
 30
0.0
 10
-3.395634520121347
 20
-0.7973450795321153
 30
0.0
 10
-3.4467589360811686
 20
-0.8178780197326159
 30
0.0
 10
-3.5291169997170293
 20
-0.8614507354354707
 30
0.0
 10
-3.638083430287929
 20
-0.9346226887514751
 30
0.0
 10
-3.768026263393653
 20
-1.0432013436361858
 30
0.0
 10
-3.8615492794367383
 20
-1.13964802243932
 30
0.0
 10
-3.83592794905712
 20
-1.2463685439789538
 30
0.0
 10
-3.793927292074766
 20
-1.3477670996943314
 30
0.0
 10
-3.6615756472977266
 20
-1.3708226523170353
 30
0.0
 10
-3.492628754962943
 20
-1.3822861484044928
 30
0.0
 10
-3.3614636657740813
 20
-1.3774346412642344
 30
0.0
 10
-3.26922319297638
 20
-1.364276853546386
 30
0.0
 10
-3.215793712201325
 20
-1.3508381733798365
 30
0.0
 10
-3.117298285251956
 20
-1.3147583309344346
 30
0.0
 10
-3.028524690268214
 20
-1.303735928432759
 30
0.0
 10
-2.973891790390014
 20
-1.322148839847149
 30
0.0
 10
-2.81765061683438
 20
-1.6287894084598986
 30
0.0
 10
-2.8348666714225557
 20
-1.6838111906945348
 30
0.0
 10
-2.8959637922897374
 20
-1.7491517320527523
 30
0.0
 10
-2.9830471573615074
 20
-1.8076290070286098
 30
0.0
 10
-3.02532433883544
 20
-1.8429553069640734
 30
0.0
 10
-3.0901868022825263
 20
-1.9098454634532442
 30
0.0
 10
-3.1712086590481476
 20
-2.01310860532726
 30
0.0
 10
-3.2612389876334524
 20
-2.156527586312823
 30
0.0
 10
-3.320380998663614
 20
-2.2771540299860833
 30
0.0
 10
-3.2630352106456213
 20
-2.3707338509129743
 30
0.0
 10
-3.1917563352127503
 20
-2.454190691286541
 30
0.0
 10
-3.0587578834300437
 20
-2.435218917375568
 30
0.0
 10
-2.894537425461257
 20
-2.393913889150786
 30
0.0
 10
-2.7712912108324264
 20
-2.3487675900431264
 30
0.0
 10
-2.6876312881252202
 20
-2.3077499166303688
 30
0.0
 10
-2.6409696128252707
 20
-2.278458354727444
 30
0.0
 10
-2.5584441796697996
 20
-2.2137076246672707
 30
0.0
 10
-2.477421583377424
 20
-2.175792147441089
 30
0.0
 10
-2.4197727054011935
 20
-2.1764213723113617
 30
0.0
 10
-2.1764213723113692
 20
-2.4197727054011913
 30
0.0
 10
-2.175792147441047
 20
-2.4774215833774482
 30
0.0
 10
-2.2137076246673044
 20
-2.5584441796697734
 30
0.0
 10
-2.278458354727444
 20
-2.640969612825281
 30
0.0
 10
-2.3077499166303754
 20
-2.6876312881252193
 30
0.0
 10
-2.3487675900431295
 20
-2.771291210832421
 30
0.0
 10
-2.3939138891507845
 20
-2.894537425461205
 30
0.0
 10
-2.435218917375556
 20
-3.0587578834299554
 30
0.0
 10
-2.4541906912865414
 20
-3.1917563352127507
 30
0.0
 10
-2.370733850912975
 20
-3.2630352106456204
 30
0.0
 10
-2.2771540299860833
 20
-3.3203809986636137
 30
0.0
 10
-2.1565275863129036
 20
-3.261238987633491
 30
0.0
 10
-2.013108605327309
 20
-3.171208659048165
 30
0.0
 10
-1.9098454634532493
 20
-3.090186802282524
 30
0.0
 10
-1.8429553069640756
 20
-3.025324338835434
 30
0.0
 10
-1.8076290070286
 20
-2.983047157361504
 30
0.0
 10
-1.7491517320527874
 20
-2.8959637922897135
 30
0.0
 10
-1.6838111906944981
 20
-2.834866671422588
 30
0.0
 10
-1.6287894084599028
 20
-2.817650616834373
 30
0.0
 10
-1.3221488398471568
 20
-2.973891790390014
 30
0.0
 10
-1.3037359284327108
 20
-3.028524690268224
 30
0.0
 10
-1.3147583309344741
 20
-3.117298285251941
 30
0.0
 10
-1.350838173379833
 20
-3.215793712201335
 30
0.0
 10
-1.3642768535463923
 20
-3.2692231929763813
 30
0.0
 10
-1.3774346412642389
 20
-3.3614636657740773
 30
0.0
 10
-1.3822861484045073
 20
-3.492628754962893
 30
0.0
 10
-1.3708226523170508
 20
-3.6615756472976386
 30
0.0
 10
-1.3477670996943312
 20
-3.7939272920747666
 30
0.0
 10
-1.2463685439789551
 20
-3.8359279490571185
 30
0.0
 10
-1.1396480224393177
 20
-3.861549279436738
 30
0.0
 10
-1.0432013436362484
 20
-3.768026263393715
 30
0.0
 10
-0.9346226887515143
 20
-3.6380834302879603
 30
0.0
 10
-0.861450735435475
 20
-3.5291169997170297
 30
0.0
 10
-0.8178780197326185
 20
-3.4467589360811637
 30
0.0
 10
-0.7973450795321054
 20
-3.3956345201213414
 30
0.0
 10
-0.7686401258457162
 20
-3.2947428465566424
 30
0.0
 10
-0.7253776268639841
 20
-3.21644469392772
 30
0.0
 10
-0.6783688557754446
 20
-3.183068587255417
 30
0.0
 10
-0.3384551669860627
 20
-3.236905626612976
 30
0.0
 10
-0.3040609530870364
 20
-3.283174699503264
 30
0.0
 10
-0.2871113313098395
 20
-3.371009515179361
 30
0.0
 10
-0.2909885397788215
 20
-3.4758335172748414
 30
0.0
 10
-0.2872588665615154
 20
-3.5308007536816524
 30
0.0
 10
-0.2712687926469335
 20
-3.622592636415239
 30
0.0
 10
-0.23535060849848852
 20
-3.748837247353372
 30
0.0
 10
-0.1722407149667182
 20
-3.9059728751101725
 30
0.0
 10
-0.1094146739384861
 20
-4.0247222117427155
 30
0.0
 10
-6.412079818720757e-16
 20
-4.033333333333333
 30
0.0
 10
0.10941467393848606
 20
-4.024722211742715
 30
0.0
 10
0.17224071496667595
 20
-3.905972875110251
 30
0.0
 10
0.23535060849845912
 20
-3.748837247353414
 30
0.0
 10
0.2712687926469278
 20
-3.6225926364152414
 30
0.0
 10
0.2872588665615097
 20
-3.5308007536816493
 30
0.0
 10
0.29098853977882744
 20
-3.4758335172748334
 30
0.0
 10
0.2871113313097968
 20
-3.371009515179362
 30
0.0
 10
0.30406095308708503
 20
-3.2831746995032693
 30
0.0
 10
0.33845516698605516
 20
-3.236905626612973
 30
0.0
 10
0.6783688557754384
 20
-3.183068587255422
 30
0.0
 10
0.7253776268640288
 20
-3.2164446939277
 30
0.0
 10
0.7686401258456751
 20
-3.294742846556654
 30
0.0
 10
0.7973450795321138
 20
-3.3956345201213476
 30
0.0
 10
0.8178780197326141
 20
-3.4467589360811686
 30
0.0
 10
0.8614507354354688
 20
-3.5291169997170297
 30
0.0
 10
0.9346226887514733
 20
-3.638083430287929
 30
0.0
 10
1.0432013436361838
 20
-3.768026263393653
 30
0.0
 10
1.1396480224393177
 20
-3.8615492794367388
 30
0.0
 10
1.2463685439789534
 20
-3.8359279490571194
 30
0.0
 10
1.347767099694331
 20
-3.793927292074766
 30
0.0
 10
1.3708226523170348
 20
-3.6615756472977266
 30
0.0
 10
1.3822861484044924
 20
-3.4926287549629427
 30
0.0
 10
1.377434641264234
 20
-3.361463665774081
 30
0.0
 10
1.3642768535463856
 20
-3.26922319297638
 30
0.0
 10
1.350838173379836
 20
-3.215793712201325
 30
0.0
 10
1.3147583309344342
 20
-3.117298285251956
 30
0.0
 10
1.3037359284327585
 20
-3.028524690268214
 30
0.0
 10
1.3221488398471488
 20
-2.973891790390014
 30
0.0
 10
1.6287894084598984
 20
-2.8176506168343796
 30
0.0
 10
1.6838111906945343
 20
-2.8348666714225557
 30
0.0
 10
1.7491517320527519
 20
-2.8959637922897374
 30
0.0
 10
1.8076290070286098
 20
-2.9830471573615074
 30
0.0
 10
1.842955306964073
 20
-3.02532433883544
 30
0.0
 10
1.9098454634532438
 20
-3.0901868022825263
 30
0.0
 10
2.0131086053272598
 20
-3.1712086590481476
 30
0.0
 10
2.1565275863128224
 20
-3.2612389876334524
 30
0.0
 10
2.277154029986083
 20
-3.320380998663614
 30
0.0
 10
2.3707338509129743
 20
-3.2630352106456217
 30
0.0
 10
2.454190691286541
 20
-3.1917563352127507
 30
0.0
 10
2.435218917375568
 20
-3.0587578834300446
 30
0.0
 10
2.3939138891507854
 20
-2.8945374254612575
 30
0.0
 10
2.3487675900431264
 20
-2.771291210832427
 30
0.0
 10
2.3077499166303688
 20
-2.6876312881252202
 30
0.0
 10
2.278458354727444
 20
-2.640969612825271
 30
0.0
 10
2.2137076246672707
 20
-2.5584441796698
 30
0.0
 10
2.175792147441089
 20
-2.4774215833774242
 30
0.0
 10
2.1764213723113612
 20
-2.4197727054011944
 30
0.0
 10
2.4197727054011913
 20
-2.1764213723113697
 30
0.0
 10
2.4774215833774482
 20
-2.1757921474410473
 30
0.0
 10
2.5584441796697734
 20
-2.213707624667305
 30
0.0
 10
2.640969612825281
 20
-2.2784583547274444
 30
0.0
 10
2.6876312881252193
 20
-2.307749916630376
 30
0.0
 10
2.771291210832421
 20
-2.34876759004313
 30
0.0
 10
2.894537425461205
 20
-2.393913889150785
 30
0.0
 10
3.0587578834299554
 20
-2.4352189173755563
 30
0.0
 10
3.1917563352127507
 20
-2.454190691286542
 30
0.0
 10
3.2630352106456204
 20
-2.3707338509129756
 30
0.0
 10
3.3203809986636137
 20
-2.2771540299860833
 30
0.0
 10
3.261238987633491
 20
-2.1565275863129036
 30
0.0
 10
3.171208659048165
 20
-2.013108605327309
 30
0.0
 10
3.090186802282524
 20
-1.9098454634532496
 30
0.0
 10
3.0253243388354334
 20
-1.8429553069640758
 30
0.0
 10
2.983047157361504
 20
-1.8076290070286
 30
0.0
 10
2.8959637922897135
 20
-1.7491517320527876
 30
0.0
 10
2.834866671422588
 20
-1.6838111906944981
 30
0.0
 10
2.817650616834373
 20
-1.6287894084599028
 30
0.0
 10
2.973891790390014
 20
-1.322148839847157
 30
0.0
 10
3.028524690268224
 20
-1.3037359284327108
 30
0.0
 10
3.117298285251941
 20
-1.3147583309344746
 30
0.0
 10
3.215793712201335
 20
-1.3508381733798331
 30
0.0
 10
3.2692231929763813
 20
-1.3642768535463925
 30
0.0
 10
3.3614636657740773
 20
-1.3774346412642389
 30
0.0
 10
3.492628754962893
 20
-1.3822861484045075
 30
0.0
 10
3.6615756472976386
 20
-1.3708226523170508
 30
0.0
 10
3.7939272920747666
 20
-1.3477670996943314
 30
0.0
  0
LWPOLYLINE
  8
OpenJsCad
  90
31
  70
1
 10
0.08316467632710375
 20
-0.3912590402935223
 30
0.0
 10
2.4492935982947065e-17
 20
-0.4
 30
0.0
 10
-0.08316467632710357
 20
-0.3912590402935223
 30
0.0
 10
-0.16269465723032003
 20
-0.36541818305704044
 30
0.0
 10
-0.23511410091698934
 20
-0.32360679774997897
 30
0.0
 10
-0.29725793019095764
 20
-0.2676522425435434
 30
0.0
 10
-0.34641016151377546
 20
-0.2000000000000001
 30
0.0
 10
-0.3804226065180615
 20
-0.12360679774997893
 30
0.0
 10
-0.39780875814730937
 20
-0.04181138530706122
 30
0.0
 10
-0.3978087581473093
 20
0.04181138530706167
 30
0.0
 10
-0.3804226065180614
 20
0.123606797749979
 30
0.0
 10
-0.34641016151377535
 20
0.20000000000000015
 30
0.0
 10
-0.29725793019095764
 20
0.2676522425435434
 30
0.0
 10
-0.23511410091698925
 20
0.323606797749979
 30
0.0
 10
-0.16269465723032012
 20
0.3654181830570404
 30
0.0
 10
-0.08316467632710366
 20
0.3912590402935223
 30
0.0
 10
2.0212861992297212e-16
 20
0.4
 30
0.0
 10
0.0831646763271037
 20
0.3912590402935223
 30
0.0
 10
0.16269465723032
 20
0.36541818305704044
 30
0.0
 10
0.23511410091698928
 20
0.32360679774997897
 30
0.0
 10
0.2972579301909578
 20
0.2676522425435432
 30
0.0
 10
0.3464101615137755
 20
0.19999999999999996
 30
0.0
 10
0.3804226065180615
 20
0.12360679774997897
 30
0.0
 10
0.39780875814730937
 20
0.04181138530706136
 30
0.0
 10
0.3978087581473093
 20
-0.041811385307061355
 30
0.0
 10
0.3804226065180614
 20
-0.12360679774997896
 30
0.0
 10
0.34641016151377546
 20
-0.20000000000000004
 30
0.0
 10
0.29725793019095764
 20
-0.2676522425435433
 30
0.0
 10
0.23511410091698928
 20
-0.323606797749979
 30
0.0
 10
0.1626946572303201
 20
-0.3654181830570404
 30
0.0
 10
0.08316467632710375
 20
-0.3912590402935223
 30
0.0
  0
ENDSEC
  0
EOF
