999
DXF generated by OpenJsCad
  0
SECTION
  2
HEADER
  0
ENDSEC
  0
SECTION
  2
TABLES
  0
TABLE
  2
LTYPE
  70
1
  0
LTYPE
  2
CONTINUOUS
  3
Solid Line
  72
65
  73
0
  40
0.0
  0
ENDTAB
  0
TABLE
  2
LAYER
  70
1
  0
LAYER
  2
OpenJsCad
  62
7
  6
continuous
  0
ENDTAB
  0
TABLE
  2
STYLE
  70
0
  0
ENDTAB
  0
TABLE
  2
VIEW
  70
0
  0
ENDTAB
  0
ENDSEC
  0
SECTION
  2
BLOCKS
  0
ENDSEC
  0
SECTION
  2
ENTITIES
  0
LWPOLYLINE
  8
OpenJsCad
  90
1105
  70
1
 10
9.063701703539902
 20
-1.3198753799191028
 30
0.0
 10
9.08824456259326
 20
-1.1964900953504727
 30
0.0
 10
9.096472442714404
 20
-1.0709569030573305
 30
0.0
 10
8.962215711415796
 20
-0.993031659296856
 30
0.0
 10
8.835525932610809
 20
-0.9267105072540872
 30
0.0
 10
8.720417841909113
 20
-0.8727122048894217
 30
0.0
 10
8.617697984776356
 20
-0.8298873160580164
 30
0.0
 10
8.528094144581416
 20
-0.7970407038619779
 30
0.0
 10
8.452252944055124
 20
-0.7729362358470376
 30
0.0
 10
8.451977237771837
 20
-0.7728616808072215
 30
0.0
 10
8.401844760677813
 20
-0.7569150964732173
 30
0.0
 10
8.36920820789956
 20
-0.7387969418285727
 30
0.0
 10
8.354129704976192
 20
-0.7200031846252889
 30
0.0
 10
8.376638241324414
 20
-0.3765892821334557
 30
0.0
 10
8.39404082313023
 20
-0.3599244476992836
 30
0.0
 10
8.42876305940985
 20
-0.3462212213341376
 30
0.0
 10
8.48054809314585
 20
-0.33695466358789383
 30
0.0
 10
8.480831172105582
 20
-0.3369167332646796
 30
0.0
 10
8.559169805077204
 20
-0.3229177454365306
 30
0.0
 10
8.652294415214733
 20
-0.3020477886302776
 30
0.0
 10
8.759725259401458
 20
-0.27299690447641156
 30
0.0
 10
8.880896777224057
 20
-0.2344851858471425
 30
0.0
 10
9.015159354847805
 20
-0.18526775487486058
 30
0.0
 10
9.158438786545522
 20
-0.12553319229314058
 30
0.0
 10
9.166666666666666
 20
-2.220446049250313e-16
 30
0.0
 10
9.158438786545524
 20
0.12553319229314203
 30
0.0
 10
9.015159354848798
 20
0.18526775487444802
 30
0.0
 10
8.880896777224217
 20
0.23448518584702682
 30
0.0
 10
8.759725259401465
 20
0.27299690447637104
 30
0.0
 10
8.65229441521473
 20
0.3020477886302463
 30
0.0
 10
8.55916980507682
 20
0.3229177454366073
 30
0.0
 10
8.480831172109127
 20
0.33691673326807486
 30
0.0
 10
8.480548093145854
 20
0.3369546635878616
 30
0.0
 10
8.428763059411011
 20
0.3462212213406322
 30
0.0
 10
8.394040823130236
 20
0.3599244476993069
 30
0.0
 10
8.3766382413244
 20
0.3765892821334436
 30
0.0
 10
8.354129704976206
 20
0.7200031846252785
 30
0.0
 10
8.369208207899547
 20
0.7387969418285948
 30
0.0
 10
8.401844760675813
 20
0.7569150964795047
 30
0.0
 10
8.451977237771835
 20
0.7728616808071888
 30
0.0
 10
8.452252944051166
 20
0.7729362358499411
 30
0.0
 10
8.528094144581786
 20
0.797040703862104
 30
0.0
 10
8.617697984776362
 20
0.8298873160579854
 30
0.0
 10
8.72041784190911
 20
0.8727122048893807
 30
0.0
 10
8.835525932610665
 20
0.9267105072539514
 30
0.0
 10
8.962215711414865
 20
0.9930316592963176
 30
0.0
 10
9.096472442714406
 20
1.0709569030573323
 30
0.0
 10
9.088244562593262
 20
1.1964900953504722
 30
0.0
 10
9.063701703539907
 20
1.3198753799191034
 30
0.0
 10
8.913851122245958
 20
1.3603971863939248
 30
0.0
 10
8.774313015729563
 20
1.3916687724067225
 30
0.0
 10
8.649151349050788
 20
1.4140349611175318
 30
0.0
 10
8.53884768933957
 20
1.428814771911577
 30
0.0
 10
8.443795697157169
 20
1.4373509825810589
 30
0.0
 10
8.364300027477723
 20
1.4410049636660047
 30
0.0
 10
8.364014419394012
 20
1.441005620267474
 30
0.0
 10
8.311462885303076
 20
1.4434335980666861
 30
0.0
 10
8.275249072609368
 20
1.452487430137142
 30
0.0
 10
8.25582017492067
 20
1.4667382018645982
 30
0.0
 10
8.188679693173517
 20
1.8042761972724781
 30
0.0
 10
8.20117611984882
 20
1.824877310848576
 30
0.0
 10
8.231168568655164
 20
1.847100387135871
 30
0.0
 10
8.278790708528748
 20
1.8694541475659208
 30
0.0
 10
8.279054324716796
 20
1.869564051670759
 30
0.0
 10
8.351100428838183
 20
1.9033615657362266
 30
0.0
 10
8.435650352541199
 20
1.9476228186802635
 30
0.0
 10
8.531901657385106
 20
2.0034889664679802
 30
0.0
 10
8.638976789619717
 20
2.0720499266432375
 30
0.0
 10
8.75592607236399
 20
2.1543400264565458
 30
0.0
 10
8.878862933369811
 20
2.249122628871143
 30
0.0
 10
8.854320074316451
 20
2.3725079134397724
 30
0.0
 10
8.813882171453859
 20
2.4916341338560604
 30
0.0
 10
8.660024425555056
 20
2.5122498448808455
 30
0.0
 10
8.517598325836612
 20
2.5250405204270616
 30
0.0
 10
8.390588061120063
 20
2.5308784875294146
 30
0.0
 10
8.279298912083972
 20
2.5311343383032066
 30
0.0
 10
8.18394590379671
 20
2.5271907459045693
 30
0.0
 10
8.104653390354091
 20
2.520437199613555
 30
0.0
 10
8.104370139983441
 20
2.520400571262074
 30
0.0
 10
8.051951276854746
 20
2.5159484257344205
 30
0.0
 10
8.014865516123658
 20
2.520197949939735
 30
0.0
 10
7.993742736378259
 20
2.5317908243051943
 30
0.0
 10
7.883119101489703
 20
2.857677543944478
 30
0.0
 10
7.892819634591884
 20
2.8797335231283623
 30
0.0
 10
7.919654800313756
 20
2.9056812780553667
 30
0.0
 10
7.963951774948312
 20
2.93405973554919
 30
0.0
 10
7.964198790499014
 20
2.9342031082264093
 30
0.0
 10
8.031217069394696
 20
2.97711538350908
 30
0.0
 10
8.109266403969924
 20
3.0320339548918627
 30
0.0
 10
8.197402270013207
 20
3.099985476358231
 30
0.0
 10
8.294612358581507
 20
3.181935997306886
 30
0.0
 10
8.39982011061363
 20
3.2787870384682045
 30
0.0
 10
8.509333617549403
 20
3.3888052429303728
 30
0.0
 10
8.468895714686798
 20
3.507931463346656
 30
0.0
 10
8.413254671744433
 20
3.6207603369512467
 30
0.0
 10
8.258022309930533
 20
3.6211172119946062
 30
0.0
 10
8.115145167064199
 20
3.6152081250694006
 30
0.0
 10
7.988459485153074
 20
3.604417981327586
 30
0.0
 10
7.878089034987296
 20
3.5901454944034494
 30
0.0
 10
7.784066527003818
 20
3.5737895748960047
 30
0.0
 10
7.706333886687068
 20
3.556744056278506
 30
0.0
 10
7.706057840521851
 20
3.5566707696953235
 30
0.0
 10
7.654668549636782
 20
3.5454146782851503
 30
0.0
 10
7.617345388516541
 20
3.5447871840879803
 30
0.0
 10
7.594890143332225
 20
3.5535238037968973
 30
0.0
 10
7.4426761563658745
 20
3.8621832355416883
 30
0.0
 10
7.449414817084061
 20
3.8853166964144505
 30
0.0
 10
7.472633542595845
 20
3.914545156700286
 30
0.0
 10
7.5128474184739344
 20
3.9484627479821692
 30
0.0
 10
7.513073606882731
 20
3.948637136085512
 30
0.0
 10
7.573917359219826
 20
3.999929931657769
 30
0.0
 10
7.644130658913322
 20
4.064566149496633
 30
0.0
 10
7.722643057052101
 20
4.143440375269642
 30
0.0
 10
7.8083248103869565
 20
4.237378260857287
 30
0.0
 10
7.899990897900561
 20
4.3471330952001646
 30
0.0
 10
7.994207244299725
 20
4.470504459728746
 30
0.0
 10
7.938566201357356
 20
4.583333333333335
 30
0.0
 10
7.868674052006583
 20
4.68793432681678
 30
0.0
 10
7.714723143026766
 20
4.66802625964778
 30
0.0
 10
7.57383962454001
 20
4.6435185163667505
 30
0.0
 10
7.449646152575714
 20
4.616284884131784
 30
0.0
 10
7.3420828702830585
 20
4.587728265718073
 30
0.0
 10
7.250999613782925
 20
4.559239873419308
 30
0.0
 10
7.176156873619424
 20
4.532194036024782
 30
0.0
 10
7.1758927548860605
 20
4.5320853451636545
 30
0.0
 10
7.126412321259466
 20
4.514217902715768
 30
0.0
 10
7.089490369384772
 20
4.508724126715801
 30
0.0
 10
7.066086874232414
 20
4.514455005782708
 30
0.0
 10
6.874886958706953
 20
4.800605901179291
 30
0.0
 10
6.878548446687947
 20
4.824421023811591
 30
0.0
 10
6.897753453158689
 20
4.8564300823971065
 30
0.0
 10
6.933196159714645
 20
4.895306468076484
 30
0.0
 10
6.9333976508351505
 20
4.895508887777152
 30
0.0
 10
6.987025823142097
 20
4.954304569685705
 30
0.0
 10
7.0482017189293
 20
5.027552490372882
 30
0.0
 10
7.115747280263672
 20
5.115999860581489
 30
0.0
 10
7.188434659810054
 20
5.220317807541217
 30
0.0
 10
7.26499065063314
 20
5.341098499420258
 30
0.0
 10
7.342297768687104
 20
5.475712105763167
 30
0.0
 10
7.272405619336332
 20
5.580313099246611
 30
0.0
 10
7.189458237630299
 20
5.674896460609533
 30
0.0
 10
7.039422924220465
 20
5.6350640837769905
 30
0.0
 10
6.902943586174889
 20
5.592377018422506
 30
0.0
 10
6.7833673088956665
 20
5.549165872692517
 30
0.0
 10
6.680451632058334
 20
5.506813734447678
 30
0.0
 10
6.593866086813312
 20
5.466680313648304
 30
0.0
 10
6.523193826837584
 20
5.430096919253093
 30
0.0
 10
6.522946154680831
 20
5.42995468384479
 30
0.0
 10
6.476221202250629
 20
5.405781607253265
 30
0.0
 10
6.440332204454759
 20
5.395515549481023
 30
0.0
 10
6.416380899625089
 20
5.398142630976184
 30
0.0
 10
6.18946653910579
 20
5.656888868868307
 30
0.0
 10
6.189988205275081
 20
5.680978169909107
 30
0.0
 10
6.204850889719433
 20
5.715220142927317
 30
0.0
 10
6.234915992417508
 20
5.758390137266643
 30
0.0
 10
6.235089338680788
 20
5.758617125107438
 30
0.0
 10
6.280584338060874
 20
5.8239096829335875
 30
0.0
 10
6.331676093403702
 20
5.90451601423796
 30
0.0
 10
6.387099094652068
 20
6.001023169855653
 30
0.0
 10
6.44554839919319
 20
6.113936269192584
 30
0.0
 10
6.505684399097446
 20
6.243676227483002
 30
0.0
 10
6.564759542582715
 20
6.387228799513764
 30
0.0
 10
6.481812160876691
 20
6.48181216087669
 30
0.0
 10
6.387228799513766
 20
6.564759542582717
 30
0.0
 10
6.243676227483998
 20
6.505684399097855
 30
0.0
 10
6.11393626919278
 20
6.445548399193221
 30
0.0
 10
6.001023169855687
 20
6.387099094652043
 30
0.0
 10
5.9045160142379824
 20
6.331676093403678
 30
0.0
 10
5.823909682933264
 20
6.280584338060656
 30
0.0
 10
5.758617125107545
 20
6.235089338685694
 30
0.0
 10
5.758390137266671
 20
6.234915992417488
 30
0.0
 10
5.715220142923548
 20
6.204850889724846
 30
0.0
 10
5.680978169909098
 20
6.189988205275102
 30
0.0
 10
5.656888868868308
 20
6.189466539105772
 30
0.0
 10
5.398142630976204
 20
6.41638089962509
 30
0.0
 10
5.395515549481002
 20
6.440332204454766
 30
0.0
 10
5.405781607247406
 20
6.47622120225366
 30
0.0
 10
5.429954683844814
 20
6.522946154680807
 30
0.0
 10
5.430096919248242
 20
6.523193826836838
 30
0.0
 10
5.466680313648478
 20
6.593866086813663
 30
0.0
 10
5.5068137344477055
 20
6.680451632058316
 30
0.0
 10
5.549165872692546
 20
6.783367308895635
 30
0.0
 10
5.592377018422501
 20
6.902943586174689
 30
0.0
 10
5.635064083776715
 20
7.0394229242194255
 30
0.0
 10
5.674896460609531
 20
7.189458237630297
 30
0.0
 10
5.580313099246605
 20
7.27240561933632
 30
0.0
 10
5.47571210576316
 20
7.342297768687097
 30
0.0
 10
5.341098499421189
 20
7.264990650633676
 30
0.0
 10
5.2203178075414085
 20
7.1884346598101105
 30
0.0
 10
5.1159998605815264
 20
7.11574728026365
 30
0.0
 10
5.027552490372907
 20
7.0482017189292785
 30
0.0
 10
4.954304569685412
 20
6.987025823141838
 30
0.0
 10
4.895508887776618
 20
6.933397650840028
 30
0.0
 10
4.895306468076514
 20
6.933196159714628
 30
0.0
 10
4.856430082392663
 20
6.897753453163563
 30
0.0
 10
4.8244210238115794
 20
6.878548446687967
 30
0.0
 10
4.800605901179295
 20
6.874886958706934
 30
0.0
 10
4.514455005782726
 20
7.066086874232417
 30
0.0
 10
4.508724126715779
 20
7.089490369384777
 30
0.0
 10
4.514217902709564
 20
7.126412321261705
 30
0.0
 10
4.532085345163682
 20
7.175892754886039
 30
0.0
 10
4.53219403602007
 20
7.1761568736180505
 30
0.0
 10
4.559239873419435
 20
7.250999613783295
 30
0.0
 10
4.5877282657181
 20
7.342082870283043
 30
0.0
 10
4.616284884131816
 20
7.449646152575688
 30
0.0
 10
4.64351851636677
 20
7.573839624539812
 30
0.0
 10
4.6680262596476405
 20
7.714723143025699
 30
0.0
 10
4.687934326816783
 20
7.868674052006586
 30
0.0
 10
4.583333333333339
 20
7.93856620135736
 30
0.0
 10
4.470504459728746
 20
7.9942072442997265
 30
0.0
 10
4.347133095201019
 20
7.899990897901214
 30
0.0
 10
4.237378260857469
 20
7.808324810387037
 30
0.0
 10
4.143440375269681
 20
7.7226430570520845
 30
0.0
 10
4.06456614949666
 20
7.644130658913303
 30
0.0
 10
3.9999299316575123
 20
7.573917359219532
 30
0.0
 10
3.9486371360843453
 20
7.513073606887497
 30
0.0
 10
3.9484627479822008
 20
7.512847418473921
 30
0.0
 10
3.914545156695244
 20
7.472633542600097
 30
0.0
 10
3.885316696414436
 20
7.449414817084079
 30
0.0
 10
3.862183235541694
 20
7.442676156365856
 30
0.0
 10
3.5535238037969146
 20
7.594890143332231
 30
0.0
 10
3.5447871840879572
 20
7.617345388516542
 30
0.0
 10
3.5454146782787066
 20
7.654668549638194
 30
0.0
 10
3.556670769695353
 20
7.706057840521834
 30
0.0
 10
3.556744056274014
 20
7.7063338866850914
 30
0.0
 10
3.573789574896082
 20
7.7840665270042
 30
0.0
 10
3.590145494403481
 20
7.878089034987284
 30
0.0
 10
3.6044179813276225
 20
7.988459485153051
 30
0.0
 10
3.6152081250694468
 20
8.115145167064004
 30
0.0
 10
3.621117211994609
 20
8.258022309929457
 30
0.0
 10
3.620760336951247
 20
8.413254671744433
 30
0.0
 10
3.5079314633466576
 20
8.4688957146868
 30
0.0
 10
3.3888052429303683
 20
8.509333617549393
 30
0.0
 10
3.2787870384689657
 20
8.399820110614389
 30
0.0
 10
3.1819359973070545
 20
8.294612358581611
 30
0.0
 10
3.099985476358271
 20
8.197402270013198
 30
0.0
 10
3.0320339548918906
 20
8.10926640396991
 30
0.0
 10
2.977115383508862
 20
8.031217069394371
 30
0.0
 10
2.934203108224629
 20
7.964198790503589
 30
0.0
 10
2.9340597355492215
 20
7.9639517749483035
 30
0.0
 10
2.9056812780498107
 20
7.919654800317314
 30
0.0
 10
2.8797335231283436
 20
7.8928196345919
 30
0.0
 10
2.857677543944484
 20
7.8831191014896875
 30
0.0
 10
2.531790824305209
 20
7.993742736378268
 30
0.0
 10
2.5201979499397105
 20
8.014865516123658
 30
0.0
 10
2.5159484257278457
 20
8.051951276855306
 30
0.0
 10
2.5204005712621034
 20
8.104370139983429
 30
0.0
 10
2.5204371996093577
 20
8.104653390351547
 30
0.0
 10
2.5271907459045946
 20
8.183945903797099
 30
0.0
 10
2.531134338303237
 20
8.279298912083966
 30
0.0
 10
2.530878487529452
 20
8.390588061120049
 30
0.0
 10
2.5250405204271313
 20
8.517598325836426
 30
0.0
 10
2.5122498448809862
 20
8.66002442555399
 30
0.0
 10
2.4916341338560573
 20
8.813882171453852
 30
0.0
 10
2.3725079134397746
 20
8.854320074316457
 30
0.0
 10
2.249122628871144
 20
8.878862933369817
 30
0.0
 10
2.154340026457202
 20
8.75592607236484
 30
0.0
 10
2.0720499266433925
 20
8.638976789619841
 30
0.0
 10
2.0034889664680224
 20
8.5319016573851
 30
0.0
 10
1.9476228186802946
 20
8.435650352541188
 30
0.0
 10
1.9033615657360545
 20
8.351100428837832
 30
0.0
 10
1.869564051668398
 20
8.279054324721098
 30
0.0
 10
1.8694541475659545
 20
8.278790708528744
 30
0.0
 10
1.8471003871298999
 20
8.231168568657967
 30
0.0
 10
1.8248773108485568
 20
8.201176119848832
 30
0.0
 10
1.804276197272488
 20
8.188679693173501
 30
0.0
 10
1.4667382018646133
 20
8.255820174920679
 30
0.0
 10
1.452487430137119
 20
8.275249072609363
 30
0.0
 10
1.4434335980600965
 20
8.311462885302772
 30
0.0
 10
1.4410056202675068
 20
8.364014419394003
 30
0.0
 10
1.4410049636621771
 20
8.36430002747465
 30
0.0
 10
1.4373509825810342
 20
8.443795697157558
 30
0.0
 10
1.4288147719116098
 20
8.538847689339567
 30
0.0
 10
1.4140349611175722
 20
8.649151349050776
 30
0.0
 10
1.3916687724068175
 20
8.774313015729387
 30
0.0
 10
1.3603971863942053
 20
8.91385112224492
 30
0.0
 10
1.3198753799191048
 20
9.06370170353991
 30
0.0
 10
1.1964900953504753
 20
9.088244562593271
 30
0.0
 10
1.0709569030573312
 20
9.096472442714404
 30
0.0
 10
0.9930316592968566
 20
8.962215711415796
 30
0.0
 10
0.9267105072540878
 20
8.835525932610809
 30
0.0
 10
0.8727122048894222
 20
8.720417841909113
 30
0.0
 10
0.8298873160580169
 20
8.617697984776356
 30
0.0
 10
0.7970407038619785
 20
8.528094144581416
 30
0.0
 10
0.7729362358470382
 20
8.452252944055124
 30
0.0
 10
0.7728616808072221
 20
8.451977237771837
 30
0.0
 10
0.7569150964732179
 20
8.401844760677813
 30
0.0
 10
0.7387969418285733
 20
8.36920820789956
 30
0.0
 10
0.7200031846252894
 20
8.354129704976192
 30
0.0
 10
0.3765892821334562
 20
8.376638241324414
 30
0.0
 10
0.3599244476992841
 20
8.39404082313023
 30
0.0
 10
0.3462212213341381
 20
8.42876305940985
 30
0.0
 10
0.33695466358789433
 20
8.48054809314585
 30
0.0
 10
0.3369167332646801
 20
8.480831172105582
 30
0.0
 10
0.3229177454365311
 20
8.559169805077204
 30
0.0
 10
0.30204778863027815
 20
8.652294415214733
 30
0.0
 10
0.2729969044764121
 20
8.759725259401458
 30
0.0
 10
0.23448518584714306
 20
8.880896777224057
 30
0.0
 10
0.18526775487486113
 20
9.015159354847805
 30
0.0
 10
0.12553319229314114
 20
9.158438786545522
 30
0.0
 10
1.1102230246251565e-16
 20
9.166666666666666
 30
0.0
 10
-0.12553319229314208
 20
9.158438786545524
 30
0.0
 10
-0.18526775487444846
 20
9.015159354848798
 30
0.0
 10
-0.23448518584702704
 20
8.880896777224217
 30
0.0
 10
-0.27299690447637126
 20
8.759725259401465
 30
0.0
 10
-0.3020477886302465
 20
8.65229441521473
 30
0.0
 10
-0.3229177454366075
 20
8.55916980507682
 30
0.0
 10
-0.3369167332680751
 20
8.480831172109127
 30
0.0
 10
-0.3369546635878618
 20
8.480548093145854
 30
0.0
 10
-0.34622122134063243
 20
8.428763059411011
 30
0.0
 10
-0.35992444769930715
 20
8.394040823130236
 30
0.0
 10
-0.37658928213344384
 20
8.3766382413244
 30
0.0
 10
-0.7200031846252789
 20
8.354129704976206
 30
0.0
 10
-0.738796941828595
 20
8.369208207899547
 30
0.0
 10
-0.756915096479505
 20
8.401844760675813
 30
0.0
 10
-0.7728616808071892
 20
8.451977237771835
 30
0.0
 10
-0.7729362358499413
 20
8.452252944051166
 30
0.0
 10
-0.7970407038621042
 20
8.528094144581786
 30
0.0
 10
-0.8298873160579856
 20
8.617697984776362
 30
0.0
 10
-0.872712204889381
 20
8.72041784190911
 30
0.0
 10
-0.9267105072539517
 20
8.835525932610665
 30
0.0
 10
-0.9930316592963179
 20
8.962215711414865
 30
0.0
 10
-1.0709569030573327
 20
9.096472442714406
 30
0.0
 10
-1.1964900953504736
 20
9.088244562593262
 30
0.0
 10
-1.3198753799191045
 20
9.063701703539907
 30
0.0
 10
-1.3603971863939257
 20
8.913851122245958
 30
0.0
 10
-1.3916687724067238
 20
8.774313015729563
 30
0.0
 10
-1.4140349611175327
 20
8.649151349050788
 30
0.0
 10
-1.4288147719115778
 20
8.53884768933957
 30
0.0
 10
-1.4373509825810598
 20
8.443795697157169
 30
0.0
 10
-1.4410049636660056
 20
8.364300027477723
 30
0.0
 10
-1.4410056202674748
 20
8.364014419394012
 30
0.0
 10
-1.443433598066687
 20
8.311462885303076
 30
0.0
 10
-1.4524874301371429
 20
8.275249072609368
 30
0.0
 10
-1.4667382018645991
 20
8.25582017492067
 30
0.0
 10
-1.804276197272479
 20
8.188679693173517
 30
0.0
 10
-1.824877310848577
 20
8.20117611984882
 30
0.0
 10
-1.847100387135872
 20
8.231168568655166
 30
0.0
 10
-1.8694541475659217
 20
8.278790708528748
 30
0.0
 10
-1.86956405167076
 20
8.279054324716798
 30
0.0
 10
-1.9033615657362275
 20
8.351100428838183
 30
0.0
 10
-1.9476228186802644
 20
8.435650352541199
 30
0.0
 10
-2.003488966467981
 20
8.531901657385106
 30
0.0
 10
-2.0720499266432384
 20
8.638976789619717
 30
0.0
 10
-2.1543400264565467
 20
8.75592607236399
 30
0.0
 10
-2.249122628871144
 20
8.87886293336981
 30
0.0
 10
-2.3725079134397715
 20
8.85432007431645
 30
0.0
 10
-2.4916341338560586
 20
8.813882171453852
 30
0.0
 10
-2.5122498448808446
 20
8.660024425555056
 30
0.0
 10
-2.525040520427061
 20
8.517598325836612
 30
0.0
 10
-2.530878487529414
 20
8.390588061120063
 30
0.0
 10
-2.531134338303206
 20
8.279298912083972
 30
0.0
 10
-2.527190745904569
 20
8.18394590379671
 30
0.0
 10
-2.5204371996135544
 20
8.104653390354091
 30
0.0
 10
-2.5204005712620736
 20
8.104370139983441
 30
0.0
 10
-2.51594842573442
 20
8.051951276854746
 30
0.0
 10
-2.5201979499397344
 20
8.014865516123658
 30
0.0
 10
-2.5317908243051934
 20
7.993742736378259
 30
0.0
 10
-2.8576775439444777
 20
7.883119101489703
 30
0.0
 10
-2.8797335231283623
 20
7.892819634591884
 30
0.0
 10
-2.9056812780553662
 20
7.919654800313756
 30
0.0
 10
-2.9340597355491895
 20
7.963951774948312
 30
0.0
 10
-2.934203108226409
 20
7.964198790499014
 30
0.0
 10
-2.9771153835090796
 20
8.031217069394696
 30
0.0
 10
-3.032033954891862
 20
8.109266403969924
 30
0.0
 10
-3.0999854763582304
 20
8.197402270013207
 30
0.0
 10
-3.1819359973068857
 20
8.294612358581507
 30
0.0
 10
-3.278787038468204
 20
8.39982011061363
 30
0.0
 10
-3.388805242930374
 20
8.509333617549405
 30
0.0
 10
-3.5079314633466567
 20
8.468895714686802
 30
0.0
 10
-3.6207603369512436
 20
8.413254671744426
 30
0.0
 10
-3.6211172119946053
 20
8.258022309930533
 30
0.0
 10
-3.6152081250693997
 20
8.115145167064199
 30
0.0
 10
-3.604417981327585
 20
7.988459485153074
 30
0.0
 10
-3.5901454944034485
 20
7.878089034987296
 30
0.0
 10
-3.573789574896004
 20
7.784066527003818
 30
0.0
 10
-3.556744056278505
 20
7.706333886687068
 30
0.0
 10
-3.5566707696953226
 20
7.706057840521851
 30
0.0
 10
-3.5454146782851494
 20
7.654668549636782
 30
0.0
 10
-3.5447871840879794
 20
7.617345388516541
 30
0.0
 10
-3.5535238037968964
 20
7.594890143332225
 30
0.0
 10
-3.8621832355416874
 20
7.4426761563658745
 30
0.0
 10
-3.8853166964144497
 20
7.449414817084061
 30
0.0
 10
-3.914545156700285
 20
7.472633542595845
 30
0.0
 10
-3.9484627479821683
 20
7.5128474184739344
 30
0.0
 10
-3.948637136085511
 20
7.513073606882731
 30
0.0
 10
-3.999929931657768
 20
7.573917359219826
 30
0.0
 10
-4.064566149496632
 20
7.644130658913322
 30
0.0
 10
-4.143440375269641
 20
7.722643057052101
 30
0.0
 10
-4.2373782608572865
 20
7.8083248103869565
 30
0.0
 10
-4.347133095200164
 20
7.899990897900561
 30
0.0
 10
-4.470504459728739
 20
7.994207244299712
 30
0.0
 10
-4.5833333333333295
 20
7.938566201357343
 30
0.0
 10
-4.68793432681678
 20
7.868674052006583
 30
0.0
 10
-4.66802625964778
 20
7.714723143026766
 30
0.0
 10
-4.6435185163667505
 20
7.57383962454001
 30
0.0
 10
-4.616284884131784
 20
7.449646152575714
 30
0.0
 10
-4.587728265718073
 20
7.3420828702830585
 30
0.0
 10
-4.559239873419308
 20
7.250999613782925
 30
0.0
 10
-4.532194036024782
 20
7.176156873619424
 30
0.0
 10
-4.5320853451636545
 20
7.1758927548860605
 30
0.0
 10
-4.514217902715768
 20
7.126412321259466
 30
0.0
 10
-4.508724126715801
 20
7.089490369384772
 30
0.0
 10
-4.514455005782708
 20
7.066086874232414
 30
0.0
 10
-4.800605901179291
 20
6.874886958706953
 30
0.0
 10
-4.824421023811591
 20
6.878548446687947
 30
0.0
 10
-4.8564300823971065
 20
6.897753453158689
 30
0.0
 10
-4.895306468076484
 20
6.933196159714645
 30
0.0
 10
-4.895508887777152
 20
6.9333976508351505
 30
0.0
 10
-4.954304569685705
 20
6.987025823142097
 30
0.0
 10
-5.027552490372882
 20
7.0482017189293
 30
0.0
 10
-5.115999860581489
 20
7.115747280263672
 30
0.0
 10
-5.220317807541217
 20
7.188434659810054
 30
0.0
 10
-5.341098499420258
 20
7.26499065063314
 30
0.0
 10
-5.475712105763167
 20
7.342297768687104
 30
0.0
 10
-5.580313099246611
 20
7.272405619336332
 30
0.0
 10
-5.674896460609531
 20
7.1894582376303
 30
0.0
 10
-5.6350640837769905
 20
7.039422924220465
 30
0.0
 10
-5.592377018422506
 20
6.902943586174889
 30
0.0
 10
-5.549165872692517
 20
6.7833673088956665
 30
0.0
 10
-5.506813734447678
 20
6.680451632058334
 30
0.0
 10
-5.466680313648304
 20
6.593866086813312
 30
0.0
 10
-5.430096919253093
 20
6.523193826837584
 30
0.0
 10
-5.42995468384479
 20
6.522946154680831
 30
0.0
 10
-5.405781607253265
 20
6.476221202250629
 30
0.0
 10
-5.395515549481023
 20
6.440332204454759
 30
0.0
 10
-5.398142630976184
 20
6.416380899625089
 30
0.0
 10
-5.656888868868307
 20
6.18946653910579
 30
0.0
 10
-5.680978169909107
 20
6.189988205275081
 30
0.0
 10
-5.715220142927317
 20
6.204850889719433
 30
0.0
 10
-5.758390137266643
 20
6.234915992417508
 30
0.0
 10
-5.758617125107438
 20
6.235089338680788
 30
0.0
 10
-5.8239096829335875
 20
6.280584338060874
 30
0.0
 10
-5.90451601423796
 20
6.331676093403702
 30
0.0
 10
-6.001023169855653
 20
6.387099094652068
 30
0.0
 10
-6.113936269192584
 20
6.44554839919319
 30
0.0
 10
-6.243676227483002
 20
6.505684399097446
 30
0.0
 10
-6.387228799513763
 20
6.564759542582715
 30
0.0
 10
-6.48181216087669
 20
6.481812160876689
 30
0.0
 10
-6.564759542582718
 20
6.387228799513762
 30
0.0
 10
-6.505684399097856
 20
6.243676227483995
 30
0.0
 10
-6.445548399193222
 20
6.113936269192779
 30
0.0
 10
-6.387099094652044
 20
6.001023169855685
 30
0.0
 10
-6.331676093403679
 20
5.904516014237981
 30
0.0
 10
-6.280584338060657
 20
5.823909682933262
 30
0.0
 10
-6.235089338685696
 20
5.758617125107543
 30
0.0
 10
-6.234915992417489
 20
5.7583901372666695
 30
0.0
 10
-6.204850889724847
 20
5.715220142923546
 30
0.0
 10
-6.189988205275103
 20
5.680978169909096
 30
0.0
 10
-6.189466539105773
 20
5.656888868868307
 30
0.0
 10
-6.416380899625091
 20
5.398142630976202
 30
0.0
 10
-6.440332204454767
 20
5.395515549481
 30
0.0
 10
-6.476221202253661
 20
5.4057816072474045
 30
0.0
 10
-6.522946154680808
 20
5.429954683844812
 30
0.0
 10
-6.523193826836839
 20
5.43009691924824
 30
0.0
 10
-6.593866086813664
 20
5.466680313648476
 30
0.0
 10
-6.6804516320583165
 20
5.506813734447704
 30
0.0
 10
-6.783367308895636
 20
5.549165872692544
 30
0.0
 10
-6.90294358617469
 20
5.592377018422499
 30
0.0
 10
-7.039422924219426
 20
5.635064083776713
 30
0.0
 10
-7.189458237630301
 20
5.6748964606095305
 30
0.0
 10
-7.2724056193363245
 20
5.580313099246605
 30
0.0
 10
-7.3422977686871045
 20
5.475712105763163
 30
0.0
 10
-7.264990650633678
 20
5.341098499421188
 30
0.0
 10
-7.188434659810111
 20
5.220317807541407
 30
0.0
 10
-7.115747280263651
 20
5.115999860581525
 30
0.0
 10
-7.048201718929279
 20
5.027552490372905
 30
0.0
 10
-6.98702582314184
 20
4.95430456968541
 30
0.0
 10
-6.93339765084003
 20
4.895508887776616
 30
0.0
 10
-6.93319615971463
 20
4.895306468076512
 30
0.0
 10
-6.897753453163564
 20
4.856430082392661
 30
0.0
 10
-6.878548446687968
 20
4.824421023811578
 30
0.0
 10
-6.874886958706935
 20
4.800605901179293
 30
0.0
 10
-7.066086874232419
 20
4.514455005782724
 30
0.0
 10
-7.0894903693847775
 20
4.508724126715777
 30
0.0
 10
-7.126412321261706
 20
4.514217902709563
 30
0.0
 10
-7.17589275488604
 20
4.53208534516368
 30
0.0
 10
-7.176156873618051
 20
4.532194036020068
 30
0.0
 10
-7.2509996137832955
 20
4.5592398734194335
 30
0.0
 10
-7.342082870283044
 20
4.587728265718098
 30
0.0
 10
-7.4496461525756885
 20
4.616284884131814
 30
0.0
 10
-7.573839624539813
 20
4.643518516366768
 30
0.0
 10
-7.7147231430257
 20
4.668026259647639
 30
0.0
 10
-7.868674052006586
 20
4.68793432681678
 30
0.0
 10
-7.938566201357361
 20
4.583333333333333
 30
0.0
 10
-7.994207244299722
 20
4.4705044597287396
 30
0.0
 10
-7.8999908979012154
 20
4.347133095201015
 30
0.0
 10
-7.808324810387038
 20
4.237378260857466
 30
0.0
 10
-7.722643057052086
 20
4.1434403752696785
 30
0.0
 10
-7.644130658913305
 20
4.064566149496657
 30
0.0
 10
-7.573917359219533
 20
3.999929931657509
 30
0.0
 10
-7.513073606887499
 20
3.948637136084342
 30
0.0
 10
-7.512847418473923
 20
3.9484627479821977
 30
0.0
 10
-7.472633542600098
 20
3.9145451566952407
 30
0.0
 10
-7.4494148170840795
 20
3.885316696414433
 30
0.0
 10
-7.442676156365858
 20
3.862183235541691
 30
0.0
 10
-7.594890143332232
 20
3.5535238037969115
 30
0.0
 10
-7.617345388516543
 20
3.5447871840879537
 30
0.0
 10
-7.6546685496381945
 20
3.5454146782787035
 30
0.0
 10
-7.706057840521835
 20
3.5566707696953497
 30
0.0
 10
-7.706333886685092
 20
3.5567440562740105
 30
0.0
 10
-7.784066527004201
 20
3.573789574896079
 30
0.0
 10
-7.878089034987285
 20
3.5901454944034774
 30
0.0
 10
-7.988459485153053
 20
3.604417981327619
 30
0.0
 10
-8.115145167064007
 20
3.615208125069444
 30
0.0
 10
-8.25802230992946
 20
3.6211172119946053
 30
0.0
 10
-8.413254671744426
 20
3.62076033695124
 30
0.0
 10
-8.46889571468679
 20
3.507931463346657
 30
0.0
 10
-8.509333617549387
 20
3.388805242930369
 30
0.0
 10
-8.399820110614387
 20
3.2787870384689675
 30
0.0
 10
-8.29461235858161
 20
3.1819359973070567
 30
0.0
 10
-8.197402270013198
 20
3.0999854763582726
 30
0.0
 10
-8.10926640396991
 20
3.0320339548918924
 30
0.0
 10
-8.03121706939437
 20
2.9771153835088646
 30
0.0
 10
-7.964198790503588
 20
2.934203108224631
 30
0.0
 10
-7.9639517749483035
 20
2.9340597355492233
 30
0.0
 10
-7.919654800317314
 20
2.905681278049813
 30
0.0
 10
-7.8928196345919
 20
2.879733523128346
 30
0.0
 10
-7.883119101489686
 20
2.857677543944486
 30
0.0
 10
-7.993742736378268
 20
2.531790824305211
 30
0.0
 10
-8.014865516123656
 20
2.5201979499397127
 30
0.0
 10
-8.051951276855302
 20
2.5159484257278484
 30
0.0
 10
-8.104370139983429
 20
2.520400571262106
 30
0.0
 10
-8.104653390351544
 20
2.52043719960936
 30
0.0
 10
-8.183945903797099
 20
2.527190745904597
 30
0.0
 10
-8.279298912083965
 20
2.5311343383032394
 30
0.0
 10
-8.390588061120047
 20
2.5308784875294545
 30
0.0
 10
-8.517598325836426
 20
2.525040520427134
 30
0.0
 10
-8.66002442555399
 20
2.5122498448809885
 30
0.0
 10
-8.81388217145386
 20
2.4916341338560626
 30
0.0
 10
-8.854320074316469
 20
2.372507913439776
 30
0.0
 10
-8.878862933369819
 20
2.2491226288711434
 30
0.0
 10
-8.75592607236484
 20
2.154340026457201
 30
0.0
 10
-8.638976789619841
 20
2.0720499266433907
 30
0.0
 10
-8.5319016573851
 20
2.0034889664680215
 30
0.0
 10
-8.435650352541188
 20
1.9476228186802935
 30
0.0
 10
-8.351100428837832
 20
1.9033615657360532
 30
0.0
 10
-8.279054324721098
 20
1.8695640516683971
 30
0.0
 10
-8.278790708528744
 20
1.8694541475659534
 30
0.0
 10
-8.231168568657967
 20
1.8471003871298988
 30
0.0
 10
-8.201176119848832
 20
1.8248773108485556
 30
0.0
 10
-8.188679693173501
 20
1.8042761972724868
 30
0.0
 10
-8.255820174920679
 20
1.466738201864612
 30
0.0
 10
-8.275249072609363
 20
1.4524874301371178
 30
0.0
 10
-8.311462885302772
 20
1.4434335980600954
 30
0.0
 10
-8.364014419394003
 20
1.4410056202675054
 30
0.0
 10
-8.36430002747465
 20
1.4410049636621758
 30
0.0
 10
-8.443795697157558
 20
1.437350982581033
 30
0.0
 10
-8.538847689339567
 20
1.4288147719116084
 30
0.0
 10
-8.649151349050776
 20
1.4140349611175713
 30
0.0
 10
-8.774313015729387
 20
1.3916687724068162
 30
0.0
 10
-8.91385112224492
 20
1.3603971863942041
 30
0.0
 10
-9.063701703539904
 20
1.3198753799191014
 30
0.0
 10
-9.088244562593262
 20
1.1964900953504736
 30
0.0
 10
-9.096472442714408
 20
1.0709569030573318
 30
0.0
 10
-8.962215711415796
 20
0.9930316592968571
 30
0.0
 10
-8.835525932610809
 20
0.9267105072540883
 30
0.0
 10
-8.720417841909113
 20
0.8727122048894228
 30
0.0
 10
-8.617697984776356
 20
0.8298873160580175
 30
0.0
 10
-8.528094144581416
 20
0.7970407038619789
 30
0.0
 10
-8.452252944055124
 20
0.7729362358470386
 30
0.0
 10
-8.451977237771837
 20
0.7728616808072225
 30
0.0
 10
-8.401844760677813
 20
0.7569150964732183
 30
0.0
 10
-8.36920820789956
 20
0.7387969418285737
 30
0.0
 10
-8.354129704976192
 20
0.7200031846252899
 30
0.0
 10
-8.376638241324414
 20
0.3765892821334567
 30
0.0
 10
-8.39404082313023
 20
0.35992444769928467
 30
0.0
 10
-8.42876305940985
 20
0.34622122133413863
 30
0.0
 10
-8.48054809314585
 20
0.3369546635878949
 30
0.0
 10
-8.480831172105582
 20
0.33691673326468063
 30
0.0
 10
-8.559169805077204
 20
0.3229177454365317
 30
0.0
 10
-8.652294415214733
 20
0.30204778863027865
 30
0.0
 10
-8.759725259401458
 20
0.2729969044764126
 30
0.0
 10
-8.880896777224057
 20
0.2344851858471436
 30
0.0
 10
-9.015159354847805
 20
0.1852677548748617
 30
0.0
 10
-9.158438786545524
 20
0.1255331922931418
 30
0.0
 10
-9.166666666666668
 20
-1.4432899320127035e-15
 30
0.0
 10
-9.158438786545531
 20
-0.12553319229314397
 30
0.0
 10
-9.015159354848798
 20
-0.1852677548744498
 30
0.0
 10
-8.880896777224217
 20
-0.2344851858470286
 30
0.0
 10
-8.759725259401465
 20
-0.2729969044763728
 30
0.0
 10
-8.65229441521473
 20
-0.30204778863024784
 30
0.0
 10
-8.55916980507682
 20
-0.32291774543660906
 30
0.0
 10
-8.480831172109127
 20
-0.3369167332680764
 30
0.0
 10
-8.480548093145854
 20
-0.33695466358786313
 30
0.0
 10
-8.428763059411011
 20
-0.34622122134063377
 30
0.0
 10
-8.394040823130236
 20
-0.3599244476993085
 30
0.0
 10
-8.3766382413244
 20
-0.37658928213344517
 30
0.0
 10
-8.354129704976206
 20
-0.7200031846252802
 30
0.0
 10
-8.369208207899547
 20
-0.7387969418285963
 30
0.0
 10
-8.401844760675813
 20
-0.7569150964795063
 30
0.0
 10
-8.451977237771835
 20
-0.7728616808071905
 30
0.0
 10
-8.452252944051166
 20
-0.7729362358499429
 30
0.0
 10
-8.528094144581786
 20
-0.7970407038621056
 30
0.0
 10
-8.617697984776362
 20
-0.8298873160579872
 30
0.0
 10
-8.72041784190911
 20
-0.8727122048893823
 30
0.0
 10
-8.835525932610665
 20
-0.9267105072539532
 30
0.0
 10
-8.962215711414865
 20
-0.9930316592963192
 30
0.0
 10
-9.096472442714399
 20
-1.0709569030573336
 30
0.0
 10
-9.088244562593253
 20
-1.1964900953504722
 30
0.0
 10
-9.06370170353991
 20
-1.319875379919105
 30
0.0
 10
-8.913851122245958
 20
-1.3603971863939253
 30
0.0
 10
-8.774313015729563
 20
-1.391668772406723
 30
0.0
 10
-8.649151349050788
 20
-1.4140349611175322
 30
0.0
 10
-8.53884768933957
 20
-1.4288147719115774
 30
0.0
 10
-8.443795697157169
 20
-1.4373509825810593
 30
0.0
 10
-8.364300027477723
 20
-1.4410049636660052
 30
0.0
 10
-8.364014419394012
 20
-1.4410056202674744
 30
0.0
 10
-8.311462885303076
 20
-1.4434335980666866
 30
0.0
 10
-8.275249072609368
 20
-1.4524874301371424
 30
0.0
 10
-8.25582017492067
 20
-1.4667382018645987
 30
0.0
 10
-8.188679693173517
 20
-1.8042761972724786
 30
0.0
 10
-8.20117611984882
 20
-1.8248773108485765
 30
0.0
 10
-8.231168568655164
 20
-1.8471003871358715
 30
0.0
 10
-8.278790708528748
 20
-1.8694541475659212
 30
0.0
 10
-8.279054324716796
 20
-1.8695640516707595
 30
0.0
 10
-8.351100428838183
 20
-1.903361565736227
 30
0.0
 10
-8.435650352541199
 20
-1.947622818680264
 30
0.0
 10
-8.531901657385106
 20
-2.0034889664679807
 30
0.0
 10
-8.638976789619717
 20
-2.072049926643238
 30
0.0
 10
-8.75592607236399
 20
-2.154340026456546
 30
0.0
 10
-8.878862933369813
 20
-2.2491226288711443
 30
0.0
 10
-8.854320074316453
 20
-2.372507913439771
 30
0.0
 10
-8.813882171453857
 20
-2.491634133856058
 30
0.0
 10
-8.660024425555058
 20
-2.5122498448808437
 30
0.0
 10
-8.517598325836612
 20
-2.5250405204270607
 30
0.0
 10
-8.390588061120065
 20
-2.5308784875294137
 30
0.0
 10
-8.279298912083972
 20
-2.5311343383032052
 30
0.0
 10
-8.183945903796712
 20
-2.5271907459045684
 30
0.0
 10
-8.104653390354093
 20
-2.520437199613554
 30
0.0
 10
-8.104370139983443
 20
-2.520400571262073
 30
0.0
 10
-8.051951276854746
 20
-2.5159484257344187
 30
0.0
 10
-8.01486551612366
 20
-2.520197949939734
 30
0.0
 10
-7.99374273637826
 20
-2.531790824305193
 30
0.0
 10
-7.8831191014897035
 20
-2.8576775439444773
 30
0.0
 10
-7.892819634591885
 20
-2.8797335231283614
 30
0.0
 10
-7.919654800313757
 20
-2.905681278055366
 30
0.0
 10
-7.963951774948313
 20
-2.934059735549189
 30
0.0
 10
-7.964198790499015
 20
-2.9342031082264084
 30
0.0
 10
-8.031217069394698
 20
-2.977115383509079
 30
0.0
 10
-8.109266403969926
 20
-3.0320339548918613
 30
0.0
 10
-8.197402270013209
 20
-3.09998547635823
 30
0.0
 10
-8.294612358581508
 20
-3.181935997306885
 30
0.0
 10
-8.399820110613632
 20
-3.2787870384682036
 30
0.0
 10
-8.509333617549405
 20
-3.3888052429303728
 30
0.0
 10
-8.4688957146868
 20
-3.5079314633466576
 30
0.0
 10
-8.41325467174443
 20
-3.6207603369512484
 30
0.0
 10
-8.258022309930533
 20
-3.621117211994608
 30
0.0
 10
-8.115145167064199
 20
-3.6152081250694024
 30
0.0
 10
-7.988459485153073
 20
-3.604417981327588
 30
0.0
 10
-7.878089034987295
 20
-3.590145494403451
 30
0.0
 10
-7.784066527003818
 20
-3.5737895748960065
 30
0.0
 10
-7.706333886687068
 20
-3.5567440562785078
 30
0.0
 10
-7.706057840521851
 20
-3.5566707696953257
 30
0.0
 10
-7.6546685496367814
 20
-3.545414678285152
 30
0.0
 10
-7.61734538851654
 20
-3.5447871840879825
 30
0.0
 10
-7.594890143332224
 20
-3.553523803796899
 30
0.0
 10
-7.4426761563658745
 20
-3.8621832355416905
 30
0.0
 10
-7.44941481708406
 20
-3.8853166964144523
 30
0.0
 10
-7.472633542595844
 20
-3.914545156700288
 30
0.0
 10
-7.512847418473934
 20
-3.948462747982171
 30
0.0
 10
-7.51307360688273
 20
-3.9486371360855137
 30
0.0
 10
-7.573917359219825
 20
-3.9999299316577708
 30
0.0
 10
-7.644130658913321
 20
-4.064566149496635
 30
0.0
 10
-7.7226430570521005
 20
-4.143440375269644
 30
0.0
 10
-7.808324810386956
 20
-4.237378260857289
 30
0.0
 10
-7.89999089790056
 20
-4.347133095200166
 30
0.0
 10
-7.994207244299725
 20
-4.4705044597287475
 30
0.0
 10
-7.938566201357357
 20
-4.583333333333336
 30
0.0
 10
-7.868674052006588
 20
-4.687934326816785
 30
0.0
 10
-7.714723143026766
 20
-4.66802625964778
 30
0.0
 10
-7.57383962454001
 20
-4.6435185163667505
 30
0.0
 10
-7.449646152575714
 20
-4.616284884131784
 30
0.0
 10
-7.3420828702830585
 20
-4.587728265718073
 30
0.0
 10
-7.250999613782925
 20
-4.559239873419308
 30
0.0
 10
-7.176156873619424
 20
-4.532194036024782
 30
0.0
 10
-7.1758927548860605
 20
-4.5320853451636545
 30
0.0
 10
-7.126412321259466
 20
-4.514217902715768
 30
0.0
 10
-7.089490369384772
 20
-4.508724126715801
 30
0.0
 10
-7.066086874232414
 20
-4.514455005782708
 30
0.0
 10
-6.874886958706953
 20
-4.800605901179291
 30
0.0
 10
-6.878548446687947
 20
-4.824421023811591
 30
0.0
 10
-6.897753453158689
 20
-4.8564300823971065
 30
0.0
 10
-6.933196159714645
 20
-4.895306468076484
 30
0.0
 10
-6.9333976508351505
 20
-4.895508887777152
 30
0.0
 10
-6.987025823142097
 20
-4.954304569685705
 30
0.0
 10
-7.0482017189293
 20
-5.027552490372882
 30
0.0
 10
-7.115747280263672
 20
-5.115999860581489
 30
0.0
 10
-7.188434659810054
 20
-5.220317807541217
 30
0.0
 10
-7.26499065063314
 20
-5.341098499420258
 30
0.0
 10
-7.342297768687105
 20
-5.475712105763169
 30
0.0
 10
-7.2724056193363324
 20
-5.580313099246613
 30
0.0
 10
-7.189458237630305
 20
-5.674896460609536
 30
0.0
 10
-7.039422924220466
 20
-5.6350640837769905
 30
0.0
 10
-6.90294358617489
 20
-5.592377018422506
 30
0.0
 10
-6.783367308895667
 20
-5.549165872692517
 30
0.0
 10
-6.680451632058335
 20
-5.506813734447678
 30
0.0
 10
-6.593866086813314
 20
-5.466680313648304
 30
0.0
 10
-6.523193826837585
 20
-5.430096919253093
 30
0.0
 10
-6.522946154680832
 20
-5.42995468384479
 30
0.0
 10
-6.47622120225063
 20
-5.405781607253264
 30
0.0
 10
-6.44033220445476
 20
-5.395515549481023
 30
0.0
 10
-6.41638089962509
 20
-5.398142630976184
 30
0.0
 10
-6.1894665391057915
 20
-5.656888868868307
 30
0.0
 10
-6.189988205275082
 20
-5.680978169909107
 30
0.0
 10
-6.204850889719434
 20
-5.715220142927317
 30
0.0
 10
-6.23491599241751
 20
-5.758390137266643
 30
0.0
 10
-6.235089338680789
 20
-5.758617125107438
 30
0.0
 10
-6.2805843380608755
 20
-5.8239096829335875
 30
0.0
 10
-6.331676093403703
 20
-5.90451601423796
 30
0.0
 10
-6.3870990946520685
 20
-6.001023169855653
 30
0.0
 10
-6.445548399193191
 20
-6.113936269192584
 30
0.0
 10
-6.505684399097447
 20
-6.243676227483002
 30
0.0
 10
-6.564759542582715
 20
-6.387228799513762
 30
0.0
 10
-6.481812160876691
 20
-6.481812160876687
 30
0.0
 10
-6.387228799513769
 20
-6.564759542582717
 30
0.0
 10
-6.2436762274839985
 20
-6.505684399097853
 30
0.0
 10
-6.1139362691927825
 20
-6.445548399193219
 30
0.0
 10
-6.001023169855689
 20
-6.38709909465204
 30
0.0
 10
-5.904516014237984
 20
-6.331676093403676
 30
0.0
 10
-5.823909682933266
 20
-6.280584338060654
 30
0.0
 10
-5.758617125107547
 20
-6.235089338685692
 30
0.0
 10
-5.758390137266672
 20
-6.234915992417486
 30
0.0
 10
-5.71522014292355
 20
-6.204850889724844
 30
0.0
 10
-5.680978169909099
 20
-6.1899882052751005
 30
0.0
 10
-5.65688886886831
 20
-6.189466539105769
 30
0.0
 10
-5.398142630976205
 20
-6.416380899625088
 30
0.0
 10
-5.395515549481003
 20
-6.440332204454764
 30
0.0
 10
-5.405781607247407
 20
-6.476221202253658
 30
0.0
 10
-5.429954683844816
 20
-6.522946154680804
 30
0.0
 10
-5.4300969192482444
 20
-6.5231938268368355
 30
0.0
 10
-5.46668031364848
 20
-6.593866086813661
 30
0.0
 10
-5.506813734447708
 20
-6.680451632058314
 30
0.0
 10
-5.549165872692548
 20
-6.783367308895633
 30
0.0
 10
-5.5923770184225035
 20
-6.902943586174687
 30
0.0
 10
-5.635064083776717
 20
-7.039422924219423
 30
0.0
 10
-5.674896460609537
 20
-7.1894582376303005
 30
0.0
 10
-5.580313099246613
 20
-7.272405619336323
 30
0.0
 10
-5.475712105763167
 20
-7.3422977686871
 30
0.0
 10
-5.341098499421192
 20
-7.264990650633674
 30
0.0
 10
-5.220317807541411
 20
-7.188434659810107
 30
0.0
 10
-5.115999860581529
 20
-7.1157472802636486
 30
0.0
 10
-5.027552490372909
 20
-7.048201718929276
 30
0.0
 10
-4.954304569685415
 20
-6.9870258231418365
 30
0.0
 10
-4.895508887776621
 20
-6.933397650840027
 30
0.0
 10
-4.895306468076516
 20
-6.933196159714626
 30
0.0
 10
-4.856430082392666
 20
-6.897753453163562
 30
0.0
 10
-4.824421023811581
 20
-6.878548446687965
 30
0.0
 10
-4.800605901179297
 20
-6.874886958706933
 30
0.0
 10
-4.514455005782729
 20
-7.066086874232416
 30
0.0
 10
-4.508724126715782
 20
-7.089490369384774
 30
0.0
 10
-4.514217902709567
 20
-7.126412321261704
 30
0.0
 10
-4.532085345163685
 20
-7.175892754886037
 30
0.0
 10
-4.532194036020073
 20
-7.176156873618048
 30
0.0
 10
-4.559239873419438
 20
-7.250999613783293
 30
0.0
 10
-4.587728265718103
 20
-7.342082870283041
 30
0.0
 10
-4.616284884131818
 20
-7.449646152575686
 30
0.0
 10
-4.643518516366773
 20
-7.5738396245398105
 30
0.0
 10
-4.668026259647644
 20
-7.714723143025697
 30
0.0
 10
-4.687934326816777
 20
-7.868674052006572
 30
0.0
 10
-4.583333333333325
 20
-7.938566201357348
 30
0.0
 10
-4.470504459728743
 20
-7.994207244299727
 30
0.0
 10
-4.347133095201015
 20
-7.8999908979012154
 30
0.0
 10
-4.237378260857466
 20
-7.808324810387038
 30
0.0
 10
-4.1434403752696785
 20
-7.722643057052086
 30
0.0
 10
-4.064566149496657
 20
-7.644130658913305
 30
0.0
 10
-3.9999299316575097
 20
-7.573917359219533
 30
0.0
 10
-3.9486371360843426
 20
-7.513073606887499
 30
0.0
 10
-3.948462747982198
 20
-7.512847418473923
 30
0.0
 10
-3.9145451566952407
 20
-7.472633542600098
 30
0.0
 10
-3.8853166964144332
 20
-7.4494148170840795
 30
0.0
 10
-3.8621832355416914
 20
-7.442676156365858
 30
0.0
 10
-3.5535238037969124
 20
-7.594890143332232
 30
0.0
 10
-3.5447871840879546
 20
-7.617345388516543
 30
0.0
 10
-3.545414678278704
 20
-7.6546685496381945
 30
0.0
 10
-3.55667076969535
 20
-7.706057840521835
 30
0.0
 10
-3.556744056274011
 20
-7.706333886685092
 30
0.0
 10
-3.5737895748960793
 20
-7.784066527004201
 30
0.0
 10
-3.590145494403478
 20
-7.878089034987285
 30
0.0
 10
-3.6044179813276194
 20
-7.988459485153053
 30
0.0
 10
-3.615208125069444
 20
-8.115145167064007
 30
0.0
 10
-3.621117211994606
 20
-8.258022309929459
 30
0.0
 10
-3.620760336951242
 20
-8.413254671744426
 30
0.0
 10
-3.507931463346654
 20
-8.468895714686791
 30
0.0
 10
-3.388805242930368
 20
-8.509333617549396
 30
0.0
 10
-3.278787038468964
 20
-8.399820110614389
 30
0.0
 10
-3.1819359973070536
 20
-8.294612358581611
 30
0.0
 10
-3.0999854763582695
 20
-8.197402270013198
 30
0.0
 10
-3.0320339548918898
 20
-8.10926640396991
 30
0.0
 10
-2.977115383508861
 20
-8.031217069394371
 30
0.0
 10
-2.934203108224628
 20
-7.964198790503589
 30
0.0
 10
-2.9340597355492206
 20
-7.9639517749483035
 30
0.0
 10
-2.90568127804981
 20
-7.919654800317314
 30
0.0
 10
-2.8797335231283427
 20
-7.8928196345919
 30
0.0
 10
-2.857677543944483
 20
-7.8831191014896875
 30
0.0
 10
-2.531790824305208
 20
-7.993742736378268
 30
0.0
 10
-2.5201979499397096
 20
-8.014865516123658
 30
0.0
 10
-2.515948425727845
 20
-8.051951276855306
 30
0.0
 10
-2.5204005712621025
 20
-8.104370139983429
 30
0.0
 10
-2.520437199609357
 20
-8.104653390351547
 30
0.0
 10
-2.5271907459045937
 20
-8.183945903797099
 30
0.0
 10
-2.5311343383032363
 20
-8.279298912083966
 30
0.0
 10
-2.530878487529451
 20
-8.390588061120049
 30
0.0
 10
-2.5250405204271305
 20
-8.517598325836426
 30
0.0
 10
-2.512249844880985
 20
-8.66002442555399
 30
0.0
 10
-2.491634133856051
 20
-8.81388217145384
 30
0.0
 10
-2.372507913439767
 20
-8.854320074316442
 30
0.0
 10
-2.2491226288711434
 20
-8.878862933369819
 30
0.0
 10
-2.1543400264572017
 20
-8.75592607236484
 30
0.0
 10
-2.0720499266433916
 20
-8.638976789619841
 30
0.0
 10
-2.0034889664680215
 20
-8.5319016573851
 30
0.0
 10
-1.947622818680294
 20
-8.435650352541188
 30
0.0
 10
-1.9033615657360536
 20
-8.351100428837832
 30
0.0
 10
-1.8695640516683976
 20
-8.279054324721098
 30
0.0
 10
-1.8694541475659538
 20
-8.278790708528744
 30
0.0
 10
-1.8471003871298992
 20
-8.231168568657967
 30
0.0
 10
-1.824877310848556
 20
-8.201176119848832
 30
0.0
 10
-1.8042761972724872
 20
-8.188679693173501
 30
0.0
 10
-1.4667382018646127
 20
-8.255820174920679
 30
0.0
 10
-1.4524874301371182
 20
-8.275249072609363
 30
0.0
 10
-1.4434335980600959
 20
-8.311462885302772
 30
0.0
 10
-1.4410056202675061
 20
-8.364014419394003
 30
0.0
 10
-1.4410049636621762
 20
-8.36430002747465
 30
0.0
 10
-1.4373509825810336
 20
-8.443795697157558
 30
0.0
 10
-1.4288147719116093
 20
-8.538847689339567
 30
0.0
 10
-1.4140349611175718
 20
-8.649151349050776
 30
0.0
 10
-1.3916687724068166
 20
-8.774313015729387
 30
0.0
 10
-1.3603971863942046
 20
-8.91385112224492
 30
0.0
 10
-1.319875379919102
 20
-9.063701703539904
 30
0.0
 10
-1.1964900953504745
 20
-9.088244562593262
 30
0.0
 10
-1.0709569030573327
 20
-9.096472442714411
 30
0.0
 10
-0.9930316592968577
 20
-8.962215711415796
 30
0.0
 10
-0.9267105072540889
 20
-8.835525932610809
 30
0.0
 10
-0.8727122048894232
 20
-8.720417841909113
 30
0.0
 10
-0.8298873160580179
 20
-8.617697984776356
 30
0.0
 10
-0.7970407038619794
 20
-8.528094144581416
 30
0.0
 10
-0.7729362358470392
 20
-8.452252944055124
 30
0.0
 10
-0.7728616808072231
 20
-8.451977237771837
 30
0.0
 10
-0.7569150964732189
 20
-8.401844760677813
 30
0.0
 10
-0.7387969418285742
 20
-8.36920820789956
 30
0.0
 10
-0.7200031846252904
 20
-8.354129704976192
 30
0.0
 10
-0.37658928213345727
 20
-8.376638241324414
 30
0.0
 10
-0.35992444769928517
 20
-8.39404082313023
 30
0.0
 10
-0.34622122133413913
 20
-8.42876305940985
 30
0.0
 10
-0.3369546635878954
 20
-8.48054809314585
 30
0.0
 10
-0.33691673326468113
 20
-8.480831172105582
 30
0.0
 10
-0.3229177454365322
 20
-8.559169805077204
 30
0.0
 10
-0.3020477886302792
 20
-8.652294415214733
 30
0.0
 10
-0.27299690447641317
 20
-8.759725259401458
 30
0.0
 10
-0.23448518584714415
 20
-8.880896777224057
 30
0.0
 10
-0.18526775487486224
 20
-9.015159354847805
 30
0.0
 10
-0.12553319229314236
 20
-9.158438786545526
 30
0.0
 10
4.773959005888173e-15
 20
-9.16666666666667
 30
0.0
 10
0.12553319229314724
 20
-9.158438786545528
 30
0.0
 10
0.18526775487445313
 20
-9.015159354848798
 30
0.0
 10
0.2344851858470317
 20
-8.880896777224219
 30
0.0
 10
0.2729969044763759
 20
-8.759725259401465
 30
0.0
 10
0.30204778863025095
 20
-8.652294415214731
 30
0.0
 10
0.32291774543661217
 20
-8.55916980507682
 30
0.0
 10
0.3369167332680795
 20
-8.480831172109127
 30
0.0
 10
0.33695466358786624
 20
-8.480548093145854
 30
0.0
 10
0.3462212213406369
 20
-8.428763059411011
 30
0.0
 10
0.3599244476993116
 20
-8.394040823130236
 30
0.0
 10
0.3765892821334483
 20
-8.3766382413244
 30
0.0
 10
0.7200031846252831
 20
-8.354129704976206
 30
0.0
 10
0.7387969418285995
 20
-8.369208207899547
 30
0.0
 10
0.7569150964795094
 20
-8.401844760675813
 30
0.0
 10
0.7728616808071936
 20
-8.451977237771835
 30
0.0
 10
0.7729362358499458
 20
-8.452252944051166
 30
0.0
 10
0.7970407038621087
 20
-8.528094144581786
 30
0.0
 10
0.8298873160579903
 20
-8.617697984776362
 30
0.0
 10
0.8727122048893856
 20
-8.72041784190911
 30
0.0
 10
0.9267105072539563
 20
-8.835525932610665
 30
0.0
 10
0.9930316592963225
 20
-8.962215711414865
 30
0.0
 10
1.0709569030573374
 20
-9.09647244271441
 30
0.0
 10
1.1964900953504765
 20
-9.088244562593266
 30
0.0
 10
1.3198753799191076
 20
-9.06370170353991
 30
0.0
 10
1.3603971863939281
 20
-8.913851122245957
 30
0.0
 10
1.3916687724067263
 20
-8.774313015729561
 30
0.0
 10
1.4140349611175351
 20
-8.64915134905079
 30
0.0
 10
1.4288147719115807
 20
-8.53884768933957
 30
0.0
 10
1.4373509825810624
 20
-8.443795697157167
 30
0.0
 10
1.4410049636660078
 20
-8.364300027477721
 30
0.0
 10
1.4410056202674777
 20
-8.364014419394014
 30
0.0
 10
1.4434335980666892
 20
-8.311462885303076
 30
0.0
 10
1.452487430137145
 20
-8.275249072609368
 30
0.0
 10
1.4667382018646018
 20
-8.25582017492067
 30
0.0
 10
1.804276197272482
 20
-8.188679693173517
 30
0.0
 10
1.8248773108485792
 20
-8.201176119848817
 30
0.0
 10
1.8471003871358747
 20
-8.231168568655164
 30
0.0
 10
1.8694541475659239
 20
-8.278790708528748
 30
0.0
 10
1.8695640516707626
 20
-8.279054324716796
 30
0.0
 10
1.9033615657362297
 20
-8.351100428838183
 30
0.0
 10
1.9476228186802667
 20
-8.435650352541197
 30
0.0
 10
2.003488966467984
 20
-8.531901657385104
 30
0.0
 10
2.072049926643241
 20
-8.638976789619717
 30
0.0
 10
2.1543400264565493
 20
-8.75592607236399
 30
0.0
 10
2.2491226288711497
 20
-8.878862933369824
 30
0.0
 10
2.372507913439777
 20
-8.854320074316465
 30
0.0
 10
2.4916341338560635
 20
-8.81388217145386
 30
0.0
 10
2.5122498448808472
 20
-8.660024425555054
 30
0.0
 10
2.5250405204270634
 20
-8.51759832583661
 30
0.0
 10
2.530878487529417
 20
-8.390588061120065
 30
0.0
 10
2.5311343383032088
 20
-8.27929891208397
 30
0.0
 10
2.5271907459045715
 20
-8.18394590379671
 30
0.0
 10
2.5204371996135566
 20
-8.104653390354091
 30
0.0
 10
2.520400571262076
 20
-8.104370139983441
 30
0.0
 10
2.5159484257344222
 20
-8.051951276854744
 30
0.0
 10
2.5201979499397367
 20
-8.014865516123658
 30
0.0
 10
2.531790824305196
 20
-7.993742736378258
 30
0.0
 10
2.85767754394448
 20
-7.883119101489702
 30
0.0
 10
2.8797335231283645
 20
-7.892819634591883
 30
0.0
 10
2.9056812780553685
 20
-7.919654800313755
 30
0.0
 10
2.934059735549192
 20
-7.9639517749483115
 30
0.0
 10
2.9342031082264115
 20
-7.9641987904990135
 30
0.0
 10
2.977115383509082
 20
-8.031217069394696
 30
0.0
 10
3.0320339548918644
 20
-8.109266403969924
 30
0.0
 10
3.0999854763582326
 20
-8.197402270013207
 30
0.0
 10
3.1819359973068884
 20
-8.294612358581507
 30
0.0
 10
3.2787870384682067
 20
-8.399820110613629
 30
0.0
 10
3.3888052429303706
 20
-8.50933361754939
 30
0.0
 10
3.5079314633466527
 20
-8.468895714686782
 30
0.0
 10
3.620760336951247
 20
-8.413254671744427
 30
0.0
 10
3.621117211994608
 20
-8.258022309930533
 30
0.0
 10
3.6152081250694024
 20
-8.115145167064199
 30
0.0
 10
3.604417981327588
 20
-7.988459485153073
 30
0.0
 10
3.590145494403451
 20
-7.878089034987295
 30
0.0
 10
3.5737895748960065
 20
-7.784066527003818
 30
0.0
 10
3.5567440562785078
 20
-7.706333886687068
 30
0.0
 10
3.5566707696953257
 20
-7.706057840521851
 30
0.0
 10
3.545414678285152
 20
-7.6546685496367814
 30
0.0
 10
3.5447871840879825
 20
-7.61734538851654
 30
0.0
 10
3.553523803796899
 20
-7.594890143332224
 30
0.0
 10
3.8621832355416905
 20
-7.4426761563658745
 30
0.0
 10
3.8853166964144523
 20
-7.44941481708406
 30
0.0
 10
3.914545156700288
 20
-7.472633542595844
 30
0.0
 10
3.948462747982171
 20
-7.512847418473934
 30
0.0
 10
3.9486371360855137
 20
-7.51307360688273
 30
0.0
 10
3.9999299316577708
 20
-7.573917359219825
 30
0.0
 10
4.064566149496635
 20
-7.644130658913321
 30
0.0
 10
4.143440375269644
 20
-7.7226430570521005
 30
0.0
 10
4.237378260857289
 20
-7.808324810386956
 30
0.0
 10
4.347133095200166
 20
-7.89999089790056
 30
0.0
 10
4.470504459728748
 20
-7.994207244299726
 30
0.0
 10
4.583333333333336
 20
-7.93856620135736
 30
0.0
 10
4.687934326816779
 20
-7.868674052006582
 30
0.0
 10
4.668026259647779
 20
-7.714723143026766
 30
0.0
 10
4.64351851636675
 20
-7.57383962454001
 30
0.0
 10
4.616284884131783
 20
-7.449646152575714
 30
0.0
 10
4.587728265718071
 20
-7.3420828702830585
 30
0.0
 10
4.559239873419307
 20
-7.250999613782925
 30
0.0
 10
4.532194036024781
 20
-7.176156873619424
 30
0.0
 10
4.532085345163654
 20
-7.1758927548860605
 30
0.0
 10
4.514217902715767
 20
-7.126412321259466
 30
0.0
 10
4.5087241267158005
 20
-7.089490369384772
 30
0.0
 10
4.5144550057827075
 20
-7.066086874232414
 30
0.0
 10
4.80060590117929
 20
-6.874886958706953
 30
0.0
 10
4.82442102381159
 20
-6.878548446687947
 30
0.0
 10
4.856430082397106
 20
-6.897753453158689
 30
0.0
 10
4.895306468076483
 20
-6.933196159714645
 30
0.0
 10
4.895508887777151
 20
-6.9333976508351505
 30
0.0
 10
4.954304569685704
 20
-6.987025823142097
 30
0.0
 10
5.027552490372881
 20
-7.0482017189293
 30
0.0
 10
5.115999860581488
 20
-7.115747280263672
 30
0.0
 10
5.220317807541216
 20
-7.188434659810054
 30
0.0
 10
5.341098499420257
 20
-7.26499065063314
 30
0.0
 10
5.4757121057631615
 20
-7.342297768687099
 30
0.0
 10
5.580313099246612
 20
-7.272405619336322
 30
0.0
 10
5.674896460609534
 20
-7.189458237630289
 30
0.0
 10
5.635064083776997
 20
-7.03942292422046
 30
0.0
 10
5.5923770184225114
 20
-6.902943586174883
 30
0.0
 10
5.549165872692522
 20
-6.783367308895662
 30
0.0
 10
5.506813734447684
 20
-6.68045163205833
 30
0.0
 10
5.466680313648309
 20
-6.593866086813309
 30
0.0
 10
5.4300969192530975
 20
-6.52319382683758
 30
0.0
 10
5.429954683844796
 20
-6.5229461546808265
 30
0.0
 10
5.405781607253269
 20
-6.476221202250626
 30
0.0
 10
5.395515549481028
 20
-6.440332204454755
 30
0.0
 10
5.3981426309761895
 20
-6.416380899625085
 30
0.0
 10
5.656888868868313
 20
-6.189466539105785
 30
0.0
 10
5.680978169909112
 20
-6.1899882052750765
 30
0.0
 10
5.715220142927322
 20
-6.204850889719429
 30
0.0
 10
5.758390137266648
 20
-6.234915992417504
 30
0.0
 10
5.758617125107443
 20
-6.235089338680782
 30
0.0
 10
5.823909682933593
 20
-6.280584338060869
 30
0.0
 10
5.904516014237966
 20
-6.331676093403698
 30
0.0
 10
6.0010231698556575
 20
-6.387099094652063
 30
0.0
 10
6.113936269192588
 20
-6.445548399193185
 30
0.0
 10
6.243676227483006
 20
-6.505684399097441
 30
0.0
 10
6.387228799513763
 20
-6.564759542582703
 30
0.0
 10
6.481812160876687
 20
-6.48181216087668
 30
0.0
 10
6.5647595425827205
 20
-6.387228799513764
 30
0.0
 10
6.505684399097858
 20
-6.243676227483993
 30
0.0
 10
6.445548399193224
 20
-6.113936269192777
 30
0.0
 10
6.387099094652046
 20
-6.001023169855683
 30
0.0
 10
6.331676093403681
 20
-5.904516014237979
 30
0.0
 10
6.280584338060659
 20
-5.823909682933261
 30
0.0
 10
6.235089338685698
 20
-5.758617125107541
 30
0.0
 10
6.234915992417491
 20
-5.758390137266668
 30
0.0
 10
6.20485088972485
 20
-5.7152201429235445
 30
0.0
 10
6.189988205275105
 20
-5.680978169909094
 30
0.0
 10
6.189466539105775
 20
-5.656888868868306
 30
0.0
 10
6.416380899625094
 20
-5.3981426309762
 30
0.0
 10
6.440332204454768
 20
-5.395515549480998
 30
0.0
 10
6.4762212022536625
 20
-5.405781607247403
 30
0.0
 10
6.52294615468081
 20
-5.4299546838448105
 30
0.0
 10
6.523193826836841
 20
-5.430096919248238
 30
0.0
 10
6.593866086813666
 20
-5.4666803136484745
 30
0.0
 10
6.680451632058318
 20
-5.506813734447702
 30
0.0
 10
6.783367308895638
 20
-5.549165872692543
 30
0.0
 10
6.9029435861746915
 20
-5.592377018422497
 30
0.0
 10
7.039422924219428
 20
-5.635064083776711
 30
0.0
 10
7.1894582376303084
 20
-5.674896460609536
 30
0.0
 10
7.272405619336326
 20
-5.580313099246617
 30
0.0
 10
7.3422977686871
 20
-5.475712105763167
 30
0.0
 10
7.264990650633674
 20
-5.341098499421192
 30
0.0
 10
7.188434659810107
 20
-5.220317807541411
 30
0.0
 10
7.1157472802636486
 20
-5.115999860581529
 30
0.0
 10
7.048201718929276
 20
-5.027552490372909
 30
0.0
 10
6.9870258231418365
 20
-4.954304569685415
 30
0.0
 10
6.933397650840027
 20
-4.895508887776621
 30
0.0
 10
6.933196159714626
 20
-4.895306468076516
 30
0.0
 10
6.897753453163562
 20
-4.856430082392666
 30
0.0
 10
6.878548446687965
 20
-4.824421023811581
 30
0.0
 10
6.874886958706933
 20
-4.800605901179297
 30
0.0
 10
7.066086874232416
 20
-4.514455005782729
 30
0.0
 10
7.089490369384774
 20
-4.508724126715782
 30
0.0
 10
7.126412321261704
 20
-4.514217902709567
 30
0.0
 10
7.175892754886037
 20
-4.532085345163685
 30
0.0
 10
7.176156873618048
 20
-4.532194036020073
 30
0.0
 10
7.250999613783293
 20
-4.559239873419438
 30
0.0
 10
7.342082870283041
 20
-4.587728265718103
 30
0.0
 10
7.449646152575686
 20
-4.616284884131818
 30
0.0
 10
7.5738396245398105
 20
-4.643518516366773
 30
0.0
 10
7.714723143025697
 20
-4.668026259647644
 30
0.0
 10
7.868674052006572
 20
-4.687934326816777
 30
0.0
 10
7.938566201357348
 20
-4.583333333333325
 30
0.0
 10
7.994207244299718
 20
-4.470504459728739
 30
0.0
 10
7.8999908979012154
 20
-4.347133095201016
 30
0.0
 10
7.808324810387038
 20
-4.237378260857466
 30
0.0
 10
7.722643057052086
 20
-4.143440375269679
 30
0.0
 10
7.644130658913305
 20
-4.064566149496658
 30
0.0
 10
7.573917359219533
 20
-3.99992993165751
 30
0.0
 10
7.513073606887499
 20
-3.948637136084343
 30
0.0
 10
7.512847418473923
 20
-3.9484627479821985
 30
0.0
 10
7.472633542600098
 20
-3.9145451566952416
 30
0.0
 10
7.4494148170840795
 20
-3.8853166964144337
 30
0.0
 10
7.442676156365858
 20
-3.862183235541692
 30
0.0
 10
7.594890143332232
 20
-3.5535238037969124
 30
0.0
 10
7.617345388516543
 20
-3.5447871840879555
 30
0.0
 10
7.6546685496381945
 20
-3.5454146782787044
 30
0.0
 10
7.706057840521835
 20
-3.5566707696953506
 30
0.0
 10
7.706333886685092
 20
-3.5567440562740114
 30
0.0
 10
7.784066527004201
 20
-3.5737895748960797
 30
0.0
 10
7.878089034987285
 20
-3.5901454944034783
 30
0.0
 10
7.988459485153053
 20
-3.6044179813276203
 30
0.0
 10
8.115145167064005
 20
-3.615208125069445
 30
0.0
 10
8.258022309929459
 20
-3.6211172119946062
 30
0.0
 10
8.41325467174443
 20
-3.620760336951244
 30
0.0
 10
8.468895714686797
 20
-3.5079314633466563
 30
0.0
 10
8.509333617549231
 20
-3.3888052429303133
 30
0.0
 10
8.399820110614389
 20
-3.278787038468965
 30
0.0
 10
8.294612358581611
 20
-3.1819359973070536
 30
0.0
 10
8.197402270013198
 20
-3.0999854763582704
 30
0.0
 10
8.10926640396991
 20
-3.03203395489189
 30
0.0
 10
8.031217069394371
 20
-2.977115383508862
 30
0.0
 10
7.964198790503589
 20
-2.9342031082246285
 30
0.0
 10
7.9639517749483035
 20
-2.934059735549221
 30
0.0
 10
7.919654800317314
 20
-2.9056812780498102
 30
0.0
 10
7.8928196345919
 20
-2.879733523128343
 30
0.0
 10
7.8831191014896875
 20
-2.8576775439444835
 30
0.0
 10
7.993742736378268
 20
-2.5317908243052085
 30
0.0
 10
8.014865516123658
 20
-2.52019794993971
 30
0.0
 10
8.051951276855306
 20
-2.5159484257278453
 30
0.0
 10
8.104370139983429
 20
-2.5204005712621034
 30
0.0
 10
8.104653390351547
 20
-2.5204371996093573
 30
0.0
 10
8.183945903797099
 20
-2.527190745904594
 30
0.0
 10
8.279298912083966
 20
-2.5311343383032368
 30
0.0
 10
8.390588061120049
 20
-2.5308784875294514
 30
0.0
 10
8.517598325836426
 20
-2.525040520427131
 30
0.0
 10
8.66002442555399
 20
-2.5122498448809853
 30
0.0
 10
8.813882171453837
 20
-2.491634133856051
 30
0.0
 10
8.854320074316462
 20
-2.372507913439776
 30
0.0
 10
8.87886293336982
 20
-2.2491226288711452
 30
0.0
 10
8.75592607236484
 20
-2.1543400264572017
 30
0.0
 10
8.638976789619841
 20
-2.072049926643392
 30
0.0
 10
8.5319016573851
 20
-2.0034889664680224
 30
0.0
 10
8.435650352541188
 20
-1.9476228186802944
 30
0.0
 10
8.351100428837832
 20
-1.903361565736054
 30
0.0
 10
8.279054324721098
 20
-1.869564051668398
 30
0.0
 10
8.278790708528744
 20
-1.8694541475659543
 30
0.0
 10
8.231168568657967
 20
-1.8471003871298997
 30
0.0
 10
8.201176119848832
 20
-1.8248773108485565
 30
0.0
 10
8.188679693173501
 20
-1.8042761972724877
 30
0.0
 10
8.255820174920679
 20
-1.4667382018646131
 30
0.0
 10
8.275249072609363
 20
-1.4524874301371187
 30
0.0
 10
8.311462885302772
 20
-1.4434335980600963
 30
0.0
 10
8.364014419394003
 20
-1.4410056202675066
 30
0.0
 10
8.36430002747465
 20
-1.4410049636621767
 30
0.0
 10
8.443795697157558
 20
-1.437350982581034
 30
0.0
 10
8.538847689339567
 20
-1.4288147719116098
 30
0.0
 10
8.649151349050776
 20
-1.4140349611175722
 30
0.0
 10
8.774313015729387
 20
-1.3916687724068173
 30
0.0
 10
8.91385112224492
 20
-1.360397186394205
 30
0.0
 10
9.063701703539902
 20
-1.3198753799191028
 30
0.0
  0
LWPOLYLINE
  8
OpenJsCad
  90
31
  70
1
 10
0.08316467632710375
 20
-0.3912590402935223
 30
0.0
 10
2.4492935982947065e-17
 20
-0.4
 30
0.0
 10
-0.08316467632710357
 20
-0.3912590402935223
 30
0.0
 10
-0.16269465723032003
 20
-0.36541818305704044
 30
0.0
 10
-0.23511410091698934
 20
-0.32360679774997897
 30
0.0
 10
-0.29725793019095764
 20
-0.2676522425435434
 30
0.0
 10
-0.34641016151377546
 20
-0.2000000000000001
 30
0.0
 10
-0.3804226065180615
 20
-0.12360679774997893
 30
0.0
 10
-0.39780875814730937
 20
-0.04181138530706122
 30
0.0
 10
-0.3978087581473093
 20
0.04181138530706167
 30
0.0
 10
-0.3804226065180614
 20
0.123606797749979
 30
0.0
 10
-0.34641016151377535
 20
0.20000000000000015
 30
0.0
 10
-0.29725793019095764
 20
0.2676522425435434
 30
0.0
 10
-0.23511410091698925
 20
0.323606797749979
 30
0.0
 10
-0.16269465723032012
 20
0.3654181830570404
 30
0.0
 10
-0.08316467632710366
 20
0.3912590402935223
 30
0.0
 10
2.0212861992297212e-16
 20
0.4
 30
0.0
 10
0.0831646763271037
 20
0.3912590402935223
 30
0.0
 10
0.16269465723032
 20
0.36541818305704044
 30
0.0
 10
0.23511410091698928
 20
0.32360679774997897
 30
0.0
 10
0.2972579301909578
 20
0.2676522425435432
 30
0.0
 10
0.3464101615137755
 20
0.19999999999999996
 30
0.0
 10
0.3804226065180615
 20
0.12360679774997897
 30
0.0
 10
0.39780875814730937
 20
0.04181138530706136
 30
0.0
 10
0.3978087581473093
 20
-0.041811385307061355
 30
0.0
 10
0.3804226065180614
 20
-0.12360679774997896
 30
0.0
 10
0.34641016151377546
 20
-0.20000000000000004
 30
0.0
 10
0.29725793019095764
 20
-0.2676522425435433
 30
0.0
 10
0.23511410091698928
 20
-0.323606797749979
 30
0.0
 10
0.1626946572303201
 20
-0.3654181830570404
 30
0.0
 10
0.08316467632710375
 20
-0.3912590402935223
 30
0.0
  0
ENDSEC
  0
EOF
