999
DXF generated by OpenJsCad
  0
SECTION
  2
HEADER
  0
ENDSEC
  0
SECTION
  2
TABLES
  0
TABLE
  2
LTYPE
  70
1
  0
LTYPE
  2
CONTINUOUS
  3
Solid Line
  72
65
  73
0
  40
0.0
  0
ENDTAB
  0
TABLE
  2
LAYER
  70
1
  0
LAYER
  2
OpenJsCad
  62
7
  6
continuous
  0
ENDTAB
  0
TABLE
  2
STYLE
  70
0
  0
ENDTAB
  0
TABLE
  2
VIEW
  70
0
  0
ENDTAB
  0
ENDSEC
  0
SECTION
  2
BLOCKS
  0
ENDSEC
  0
SECTION
  2
ENTITIES
  0
LWPOLYLINE
  8
OpenJsCad
  90
761
  70
1
 10
7.576235356777556
 20
-1.3251927296880675
 30
0.0
 10
7.605200222582563
 20
-1.204545380809778
 30
0.0
 10
7.614935079344774
 20
-1.0808522977118113
 30
0.0
 10
7.48769923891535
 20
-1.000162905726751
 30
0.0
 10
7.359822540876438
 20
-0.9281618283117314
 30
0.0
 10
7.245398462823396
 20
-0.8714067148316463
 30
0.0
 10
7.145625606972448
 20
-0.8282689300220645
 30
0.0
 10
7.061567827072621
 20
-0.7970386436989662
 30
0.0
 10
6.938903359206828
 20
-0.7586409014575544
 30
0.0
 10
6.899740862882769
 20
-0.7369144953753991
 30
0.0
 10
6.8818440131118805
 20
-0.7142203389936119
 30
0.0
 10
6.908845770196396
 20
-0.37113048524161235
 30
0.0
 10
6.930072428261578
 20
-0.35151541570338096
 30
0.0
 10
6.972151527982063
 20
-0.33618286189441926
 30
0.0
 10
7.099312522964838
 20
-0.3174468099881732
 30
0.0
 10
7.187220905242194
 20
-0.29975055414454393
 30
0.0
 10
7.29251362796375
 20
-0.2727517803795993
 30
0.0
 10
7.414407411555657
 20
-0.2345952859641336
 30
0.0
 10
7.551973185269335
 20
-0.18348498414018463
 30
0.0
 10
7.69026514323779
 20
-0.12369308309796628
 30
0.0
 10
7.699999999999998
 20
4.440892098500626e-16
 30
0.0
 10
7.6902651432377915
 20
0.123693083097967
 30
0.0
 10
7.551973185270225
 20
0.18348498413980077
 30
0.0
 10
7.414407411555649
 20
0.23459528596407508
 30
0.0
 10
7.292513627963756
 20
0.2727517803795598
 30
0.0
 10
7.187220905242187
 20
0.2997505541445068
 30
0.0
 10
7.099312522964809
 20
0.31744680998817987
 30
0.0
 10
6.97215152798217
 20
0.33618286189516966
 30
0.0
 10
6.930072428261589
 20
0.35151541570345557
 30
0.0
 10
6.9088457701963755
 20
0.3711304852415752
 30
0.0
 10
6.881844013111908
 20
0.7142203389935786
 30
0.0
 10
6.899740862882748
 20
0.7369144953754713
 30
0.0
 10
6.938903359206605
 20
0.758640901458279
 30
0.0
 10
7.061567827072649
 20
0.7970386436989774
 30
0.0
 10
7.1456256069724615
 20
0.8282689300220288
 30
0.0
 10
7.245398462823397
 20
0.8714067148316065
 30
0.0
 10
7.359822540876457
 20
0.9281618283116753
 30
0.0
 10
7.487699238914532
 20
1.0001629057262327
 30
0.0
 10
7.614935079344763
 20
1.0808522977118107
 30
0.0
 10
7.605200222582552
 20
1.2045453808097768
 30
0.0
 10
7.576235356777559
 20
1.3251927296880661
 30
0.0
 10
7.4302924882417
 20
1.3626148647450809
 30
0.0
 10
7.2864249647549375
 20
1.3915758857223297
 30
0.0
 10
7.160062905118502
 20
1.41019422154656
 30
0.0
 10
7.051842971806231
 20
1.4203891848529864
 30
0.0
 10
6.962248583274164
 20
1.4241156696678567
 30
0.0
 10
6.833722186894298
 20
1.4227286874610832
 30
0.0
 10
6.78976261086484
 20
1.4312898506349112
 30
0.0
 10
6.765728815274106
 20
1.4473428452186512
 30
0.0
 10
6.68538841689377
 20
1.781984688121341
 30
0.0
 10
6.699514778532671
 20
1.8071991258991862
 30
0.0
 10
6.734796360827534
 20
1.8347844080322728
 30
0.0
 10
6.849943895277956
 20
1.8918983607586575
 30
0.0
 10
6.928081291287312
 20
1.9358936842644796
 30
0.0
 10
7.019877541429455
 20
1.994108284690579
 30
0.0
 10
7.124014413390258
 20
2.0680645179819486
 30
0.0
 10
7.239053287048603
 20
2.1591834655032924
 30
0.0
 10
7.35210004127768
 20
2.258783507808805
 30
0.0
 10
7.3231351754726735
 20
2.379430856687092
 30
0.0
 10
7.275653511749879
 20
2.4940617332107258
 30
0.0
 10
7.125653330425699
 20
2.508192645120873
 30
0.0
 10
6.979026553063932
 20
2.5142912687985186
 30
0.0
 10
6.851307670662835
 20
2.512913000812788
 30
0.0
 10
6.742825260679375
 20
2.506053119828946
 30
0.0
 10
6.653750977085006
 20
2.4957180751913777
 30
0.0
 10
6.5270239257414415
 20
2.4742422109759015
 30
0.0
 10
6.482266304058419
 20
2.4758211792650604
 30
0.0
 10
6.456017162753204
 20
2.4879168208909346
 30
0.0
 10
6.324316370319618
 20
2.805870660159444
 30
0.0
 10
6.334324405920324
 20
2.832984516193229
 30
0.0
 10
6.364856324537234
 20
2.8657494331801767
 30
0.0
 10
6.469651611121109
 20
2.9401732613257816
 30
0.0
 10
6.53994462122711
 20
2.995850311137554
 30
0.0
 10
6.621503937327671
 20
3.067708290514502
 30
0.0
 10
6.712789407798079
 20
3.157044595706873
 30
0.0
 10
6.812157818215093
 20
3.265037762440578
 30
0.0
 10
6.9082318999732335
 20
3.381095971470879
 30
0.0
 10
6.860750236250429
 20
3.4957268479945096
 30
0.0
 10
6.795920930753297
 20
3.6015186595454063
 30
0.0
 10
6.64555693892705
 20
3.5920103983596485
 30
0.0
 10
6.4997813455752995
 20
3.5750964563825747
 30
0.0
 10
6.373850503168923
 20
3.553755522118902
 30
0.0
 10
6.267776813480546
 20
3.5300097098812526
 30
0.0
 10
6.181415939306569
 20
3.5058676188902695
 30
0.0
 10
6.059608673586352
 20
3.4648316797173835
 30
0.0
 10
6.015155087437634
 20
3.459389573682299
 30
0.0
 10
5.987336941392776
 20
3.467230027510345
 30
0.0
 10
5.807518665505526
 20
3.7606667843935893
 30
0.0
 10
5.813161944016781
 20
3.7890124255620345
 30
0.0
 10
5.838192401789763
 20
3.8261501964060978
 30
0.0
 10
5.930055032755778
 20
3.916051338323454
 30
0.0
 10
5.990772809760489
 20
3.9820391606932763
 30
0.0
 10
6.060086930777222
 20
4.065771137085852
 30
0.0
 10
6.1362732485151446
 20
4.16828775785519
 30
0.0
 10
6.217524415641515
 20
4.2904959936275
 30
0.0
 10
6.294260162184224
 20
4.420154631101142
 30
0.0
 10
6.229430856687083
 20
4.525946442652035
 30
0.0
 10
6.148850222073093
 20
4.620294243726927
 30
0.0
 10
6.0018248802530225
 20
4.587380934391767
 30
0.0
 10
5.860489949821066
 20
4.547870904145605
 30
0.0
 10
5.739447982689961
 20
4.507092788232061
 30
0.0
 10
5.638394899575186
 20
4.467045745445729
 30
0.0
 10
5.556873926159072
 20
4.429691066504535
 30
0.0
 10
5.442985745199374
 20
4.370105493387149
 30
0.0
 10
5.399930789408935
 20
4.357776315739718
 30
0.0
 10
5.3712286137031935
 20
4.361168523775716
 30
0.0
 10
5.147720577097266
 20
4.622862811458469
 30
0.0
 10
5.148860142273156
 20
4.651742274002216
 30
0.0
 10
5.16777280626051
 20
4.69233844353202
 30
0.0
 10
5.24444081875969
 20
4.7955032347423385
 30
0.0
 10
5.294088289482506
 20
4.870176990482439
 30
0.0
 10
5.349450471715598
 20
4.9637212047413595
 30
0.0
 10
5.408661676730438
 20
5.076893841651166
 30
0.0
 10
5.469794927174349
 20
5.210307974111487
 30
0.0
 10
5.525302849750417
 20
5.35037441406153
 30
0.0
 10
5.44472221513641
 20
5.444722215136411
 30
0.0
 10
5.350374414061535
 20
5.525302849750421
 30
0.0
 10
5.210307974112389
 20
5.469794927174706
 30
0.0
 10
5.0768938416512
 20
5.40866167673039
 30
0.0
 10
4.963721204741393
 20
5.349450471715573
 30
0.0
 10
4.870176990482461
 20
5.294088289482473
 30
0.0
 10
4.7955032347423145
 20
5.244440818759673
 30
0.0
 10
4.6923384435315665
 20
5.167772806261116
 30
0.0
 10
4.6517422740021726
 20
5.1488601422732145
 30
0.0
 10
4.622862811458481
 20
5.147720577097225
 30
0.0
 10
4.36116852377576
 20
5.371228613703188
 30
0.0
 10
4.357776315739653
 20
5.3999307894089705
 30
0.0
 10
4.370105493386481
 20
5.442985745199729
 30
0.0
 10
4.429691066504549
 20
5.556873926159099
 30
0.0
 10
4.467045745445764
 20
5.638394899575169
 30
0.0
 10
4.507092788232091
 20
5.739447982689932
 30
0.0
 10
4.547870904145659
 20
5.860489949821038
 30
0.0
 10
4.587380934391556
 20
6.001824880252077
 30
0.0
 10
4.620294243726919
 20
6.148850222073082
 30
0.0
 10
4.525946442652036
 20
6.229430856687086
 30
0.0
 10
4.4201546311011475
 20
6.294260162184231
 30
0.0
 10
4.290495993628335
 20
6.217524415642008
 30
0.0
 10
4.168287757855232
 20
6.136273248515102
 30
0.0
 10
4.065771137085887
 20
6.060086930777201
 30
0.0
 10
3.982039160693302
 20
5.99077280976046
 30
0.0
 10
3.9160513383234314
 20
5.930055032755757
 30
0.0
 10
3.826150196405553
 20
5.838192401790289
 30
0.0
 10
3.7890124255619795
 20
5.813161944016833
 30
0.0
 10
3.7606667843936066
 20
5.807518665505486
 30
0.0
 10
3.467230027510387
 20
5.987336941392777
 30
0.0
 10
3.4593895736822273
 20
6.015155087437658
 30
0.0
 10
3.4648316797166663
 20
6.059608673586597
 30
0.0
 10
3.505867618890277
 20
6.181415939306596
 30
0.0
 10
3.530009709881289
 20
6.267776813480534
 30
0.0
 10
3.553755522118934
 20
6.3738505031688995
 30
0.0
 10
3.575096456382631
 20
6.49978134557528
 30
0.0
 10
3.5920103983595864
 20
6.645556938926082
 30
0.0
 10
3.601518659545405
 20
6.795920930753293
 30
0.0
 10
3.49572684799451
 20
6.860750236250433
 30
0.0
 10
3.3810959714708795
 20
6.908231899973235
 30
0.0
 10
3.265037762441325
 20
6.81215781821571
 30
0.0
 10
3.1570445957069215
 20
6.712789407798043
 30
0.0
 10
3.06770829051454
 20
6.621503937327657
 30
0.0
 10
2.9958503111375845
 20
6.539944621227086
 30
0.0
 10
2.940173261325763
 20
6.469651611121085
 30
0.0
 10
2.8657494331795568
 20
6.36485632453767
 30
0.0
 10
2.8329845161931675
 20
6.334324405920365
 30
0.0
 10
2.8058706601594676
 20
6.324316370319582
 30
0.0
 10
2.4879168208909768
 20
6.456017162753212
 30
0.0
 10
2.4758211792649867
 20
6.482266304058433
 30
0.0
 10
2.4742422109751554
 20
6.52702392574157
 30
0.0
 10
2.495718075191381
 20
6.653750977085036
 30
0.0
 10
2.5060531198289833
 20
6.742825260679369
 30
0.0
 10
2.512913000812824
 20
6.851307670662816
 30
0.0
 10
2.5142912687985772
 20
6.979026553063921
 30
0.0
 10
2.5081926451209635
 20
7.125653330424734
 30
0.0
 10
2.4940617332107218
 20
7.27565351174987
 30
0.0
 10
2.3794308566870903
 20
7.3231351754726735
 30
0.0
 10
2.258783507808808
 20
7.352100041277689
 30
0.0
 10
2.159183465503933
 20
7.239053287049331
 30
0.0
 10
2.068064517982002
 20
7.124014413390231
 30
0.0
 10
1.9941082846906186
 20
7.019877541429449
 30
0.0
 10
1.9358936842645136
 20
6.928081291287295
 30
0.0
 10
1.8918983607586424
 20
6.849943895277931
 30
0.0
 10
1.8347844080315927
 20
6.734796360827868
 30
0.0
 10
1.8071991258991185
 20
6.699514778532704
 30
0.0
 10
1.7819846881213701
 20
6.685388416893739
 30
0.0
 10
1.4473428452186918
 20
6.765728815274122
 30
0.0
 10
1.4312898506348364
 20
6.789762610864843
 30
0.0
 10
1.4227286874603258
 20
6.8337221868943105
 30
0.0
 10
1.4241156696678554
 20
6.962248583274194
 30
0.0
 10
1.4203891848530246
 20
7.051842971806232
 30
0.0
 10
1.4101942215465988
 20
7.16006290511849
 30
0.0
 10
1.3915758857223894
 20
7.286424964754938
 30
0.0
 10
1.3626148647453213
 20
7.430292488240761
 30
0.0
 10
1.325192729688065
 20
7.576235356777554
 30
0.0
 10
1.2045453808097775
 20
7.605200222582559
 30
0.0
 10
1.080852297711811
 20
7.614935079344765
 30
0.0
 10
1.0001629057267514
 20
7.48769923891535
 30
0.0
 10
0.9281618283117319
 20
7.359822540876438
 30
0.0
 10
0.8714067148316468
 20
7.245398462823396
 30
0.0
 10
0.8282689300220649
 20
7.145625606972448
 30
0.0
 10
0.7970386436989666
 20
7.061567827072621
 30
0.0
 10
0.7586409014575548
 20
6.938903359206828
 30
0.0
 10
0.7369144953753995
 20
6.899740862882769
 30
0.0
 10
0.7142203389936124
 20
6.8818440131118805
 30
0.0
 10
0.3711304852416128
 20
6.908845770196396
 30
0.0
 10
0.3515154157033814
 20
6.930072428261578
 30
0.0
 10
0.3361828618944197
 20
6.972151527982063
 30
0.0
 10
0.31744680998817365
 20
7.099312522964838
 30
0.0
 10
0.2997505541445444
 20
7.187220905242194
 30
0.0
 10
0.27275178037959974
 20
7.29251362796375
 30
0.0
 10
0.23459528596413404
 20
7.414407411555657
 30
0.0
 10
0.1834849841401851
 20
7.551973185269335
 30
0.0
 10
0.12369308309796667
 20
7.690265143237787
 30
0.0
 10
-1.9984014443252818e-15
 20
7.699999999999997
 30
0.0
 10
-0.12369308309796856
 20
7.690265143237793
 30
0.0
 10
-0.18348498413980222
 20
7.551973185270224
 30
0.0
 10
-0.2345952859640763
 20
7.414407411555648
 30
0.0
 10
-0.27275178037956127
 20
7.292513627963755
 30
0.0
 10
-0.299750554144508
 20
7.187220905242187
 30
0.0
 10
-0.3174468099881812
 20
7.099312522964809
 30
0.0
 10
-0.3361828618951709
 20
6.972151527982169
 30
0.0
 10
-0.351515415703457
 20
6.930072428261588
 30
0.0
 10
-0.37113048524157655
 20
6.908845770196375
 30
0.0
 10
-0.7142203389935797
 20
6.881844013111907
 30
0.0
 10
-0.7369144953754725
 20
6.899740862882747
 30
0.0
 10
-0.7586409014582802
 20
6.938903359206604
 30
0.0
 10
-0.7970386436989785
 20
7.061567827072649
 30
0.0
 10
-0.8282689300220303
 20
7.145625606972461
 30
0.0
 10
-0.8714067148316077
 20
7.245398462823396
 30
0.0
 10
-0.9281618283116764
 20
7.359822540876456
 30
0.0
 10
-1.000162905726234
 20
7.487699238914531
 30
0.0
 10
-1.0808522977118111
 20
7.6149350793447566
 30
0.0
 10
-1.2045453808097757
 20
7.605200222582545
 30
0.0
 10
-1.3251927296880655
 20
7.576235356777558
 30
0.0
 10
-1.3626148647450802
 20
7.430292488241701
 30
0.0
 10
-1.3915758857223293
 20
7.286424964754938
 30
0.0
 10
-1.4101942215465595
 20
7.160062905118503
 30
0.0
 10
-1.4203891848529857
 20
7.051842971806232
 30
0.0
 10
-1.4241156696678563
 20
6.962248583274165
 30
0.0
 10
-1.422728687461083
 20
6.833722186894299
 30
0.0
 10
-1.4312898506349105
 20
6.789762610864841
 30
0.0
 10
-1.4473428452186505
 20
6.765728815274107
 30
0.0
 10
-1.7819846881213406
 20
6.685388416893771
 30
0.0
 10
-1.8071991258991855
 20
6.699514778532671
 30
0.0
 10
-1.8347844080322724
 20
6.734796360827535
 30
0.0
 10
-1.891898360758657
 20
6.849943895277957
 30
0.0
 10
-1.9358936842644792
 20
6.928081291287313
 30
0.0
 10
-1.9941082846905784
 20
7.019877541429455
 30
0.0
 10
-2.068064517981948
 20
7.124014413390259
 30
0.0
 10
-2.159183465503292
 20
7.239053287048604
 30
0.0
 10
-2.2587835078088045
 20
7.352100041277679
 30
0.0
 10
-2.3794308566870916
 20
7.323135175472673
 30
0.0
 10
-2.4940617332107253
 20
7.27565351174988
 30
0.0
 10
-2.5081926451208725
 20
7.125653330425699
 30
0.0
 10
-2.514291268798518
 20
6.979026553063932
 30
0.0
 10
-2.5129130008127873
 20
6.851307670662834
 30
0.0
 10
-2.5060531198289455
 20
6.742825260679375
 30
0.0
 10
-2.4957180751913777
 20
6.653750977085006
 30
0.0
 10
-2.4742422109759015
 20
6.5270239257414415
 30
0.0
 10
-2.4758211792650604
 20
6.482266304058419
 30
0.0
 10
-2.4879168208909346
 20
6.456017162753204
 30
0.0
 10
-2.8058706601594436
 20
6.324316370319618
 30
0.0
 10
-2.8329845161932288
 20
6.334324405920324
 30
0.0
 10
-2.8657494331801763
 20
6.364856324537234
 30
0.0
 10
-2.940173261325781
 20
6.469651611121109
 30
0.0
 10
-2.9958503111375534
 20
6.53994462122711
 30
0.0
 10
-3.0677082905145014
 20
6.621503937327671
 30
0.0
 10
-3.1570445957068727
 20
6.712789407798079
 30
0.0
 10
-3.2650377624405778
 20
6.812157818215093
 30
0.0
 10
-3.3810959714708786
 20
6.9082318999732335
 30
0.0
 10
-3.4957268479945096
 20
6.860750236250429
 30
0.0
 10
-3.6015186595454027
 20
6.795920930753292
 30
0.0
 10
-3.5920103983596476
 20
6.645556938927049
 30
0.0
 10
-3.575096456382574
 20
6.4997813455752995
 30
0.0
 10
-3.5537555221189012
 20
6.3738505031689225
 30
0.0
 10
-3.5300097098812517
 20
6.267776813480546
 30
0.0
 10
-3.5058676188902687
 20
6.181415939306569
 30
0.0
 10
-3.4648316797173826
 20
6.059608673586352
 30
0.0
 10
-3.459389573682298
 20
6.015155087437634
 30
0.0
 10
-3.467230027510344
 20
5.987336941392776
 30
0.0
 10
-3.7606667843935884
 20
5.807518665505526
 30
0.0
 10
-3.7890124255620337
 20
5.813161944016781
 30
0.0
 10
-3.826150196406097
 20
5.838192401789763
 30
0.0
 10
-3.916051338323454
 20
5.930055032755778
 30
0.0
 10
-3.9820391606932755
 20
5.990772809760489
 30
0.0
 10
-4.065771137085851
 20
6.060086930777221
 30
0.0
 10
-4.168287757855189
 20
6.1362732485151446
 30
0.0
 10
-4.290495993627499
 20
6.217524415641515
 30
0.0
 10
-4.420154631101145
 20
6.29426016218423
 30
0.0
 10
-4.52594644265204
 20
6.22943085668709
 30
0.0
 10
-4.620294243726927
 20
6.148850222073093
 30
0.0
 10
-4.587380934391767
 20
6.0018248802530225
 30
0.0
 10
-4.547870904145605
 20
5.860489949821066
 30
0.0
 10
-4.507092788232061
 20
5.739447982689961
 30
0.0
 10
-4.467045745445729
 20
5.638394899575186
 30
0.0
 10
-4.429691066504535
 20
5.556873926159072
 30
0.0
 10
-4.370105493387149
 20
5.442985745199374
 30
0.0
 10
-4.357776315739718
 20
5.399930789408935
 30
0.0
 10
-4.361168523775716
 20
5.3712286137031935
 30
0.0
 10
-4.622862811458469
 20
5.147720577097266
 30
0.0
 10
-4.651742274002216
 20
5.148860142273156
 30
0.0
 10
-4.69233844353202
 20
5.16777280626051
 30
0.0
 10
-4.7955032347423385
 20
5.24444081875969
 30
0.0
 10
-4.870176990482439
 20
5.294088289482506
 30
0.0
 10
-4.9637212047413595
 20
5.349450471715598
 30
0.0
 10
-5.076893841651166
 20
5.408661676730438
 30
0.0
 10
-5.210307974111487
 20
5.469794927174349
 30
0.0
 10
-5.3503744140615295
 20
5.5253028497504175
 30
0.0
 10
-5.4447222151364105
 20
5.4447222151364105
 30
0.0
 10
-5.525302849750422
 20
5.350374414061537
 30
0.0
 10
-5.469794927174705
 20
5.210307974112388
 30
0.0
 10
-5.4086616767303894
 20
5.076893841651201
 30
0.0
 10
-5.349450471715572
 20
4.963721204741393
 30
0.0
 10
-5.294088289482472
 20
4.870176990482462
 30
0.0
 10
-5.2444408187596725
 20
4.795503234742315
 30
0.0
 10
-5.167772806261115
 20
4.692338443531567
 30
0.0
 10
-5.148860142273214
 20
4.651742274002172
 30
0.0
 10
-5.147720577097223
 20
4.622862811458482
 30
0.0
 10
-5.371228613703187
 20
4.361168523775761
 30
0.0
 10
-5.39993078940897
 20
4.357776315739654
 30
0.0
 10
-5.442985745199728
 20
4.370105493386481
 30
0.0
 10
-5.556873926159098
 20
4.4296910665045495
 30
0.0
 10
-5.638394899575168
 20
4.467045745445765
 30
0.0
 10
-5.739447982689931
 20
4.507092788232092
 30
0.0
 10
-5.860489949821037
 20
4.54787090414566
 30
0.0
 10
-6.001824880252076
 20
4.587380934391557
 30
0.0
 10
-6.148850222073083
 20
4.62029424372692
 30
0.0
 10
-6.229430856687087
 20
4.525946442652039
 30
0.0
 10
-6.294260162184235
 20
4.420154631101151
 30
0.0
 10
-6.217524415642008
 20
4.290495993628335
 30
0.0
 10
-6.136273248515102
 20
4.168287757855232
 30
0.0
 10
-6.060086930777201
 20
4.065771137085888
 30
0.0
 10
-5.99077280976046
 20
3.9820391606933025
 30
0.0
 10
-5.930055032755757
 20
3.916051338323432
 30
0.0
 10
-5.838192401790289
 20
3.8261501964055538
 30
0.0
 10
-5.813161944016833
 20
3.78901242556198
 30
0.0
 10
-5.807518665505486
 20
3.760666784393607
 30
0.0
 10
-5.987336941392777
 20
3.4672300275103876
 30
0.0
 10
-6.015155087437658
 20
3.4593895736822273
 30
0.0
 10
-6.059608673586597
 20
3.4648316797166663
 30
0.0
 10
-6.181415939306596
 20
3.5058676188902775
 30
0.0
 10
-6.267776813480534
 20
3.5300097098812895
 30
0.0
 10
-6.3738505031688995
 20
3.5537555221189345
 30
0.0
 10
-6.49978134557528
 20
3.5750964563826315
 30
0.0
 10
-6.645556938926082
 20
3.592010398359587
 30
0.0
 10
-6.795920930753291
 20
3.601518659545403
 30
0.0
 10
-6.860750236250429
 20
3.4957268479945087
 30
0.0
 10
-6.908231899973239
 20
3.3810959714708817
 30
0.0
 10
-6.81215781821571
 20
3.265037762441325
 30
0.0
 10
-6.712789407798043
 20
3.157044595706922
 30
0.0
 10
-6.621503937327657
 20
3.0677082905145405
 30
0.0
 10
-6.539944621227086
 20
2.995850311137585
 30
0.0
 10
-6.469651611121085
 20
2.9401732613257634
 30
0.0
 10
-6.36485632453767
 20
2.8657494331795568
 30
0.0
 10
-6.334324405920365
 20
2.8329845161931684
 30
0.0
 10
-6.324316370319582
 20
2.8058706601594685
 30
0.0
 10
-6.456017162753212
 20
2.487916820890977
 30
0.0
 10
-6.482266304058433
 20
2.475821179264987
 30
0.0
 10
-6.52702392574157
 20
2.474242210975156
 30
0.0
 10
-6.653750977085036
 20
2.4957180751913812
 30
0.0
 10
-6.742825260679369
 20
2.506053119828984
 30
0.0
 10
-6.851307670662816
 20
2.5129130008128246
 30
0.0
 10
-6.979026553063921
 20
2.5142912687985777
 30
0.0
 10
-7.125653330424734
 20
2.508192645120964
 30
0.0
 10
-7.275653511749869
 20
2.4940617332107227
 30
0.0
 10
-7.323135175472671
 20
2.3794308566870916
 30
0.0
 10
-7.352100041277688
 20
2.2587835078088085
 30
0.0
 10
-7.23905328704933
 20
2.1591834655039333
 30
0.0
 10
-7.12401441339023
 20
2.0680645179820023
 30
0.0
 10
-7.019877541429448
 20
1.9941082846906188
 30
0.0
 10
-6.9280812912872936
 20
1.9358936842645138
 30
0.0
 10
-6.84994389527793
 20
1.8918983607586428
 30
0.0
 10
-6.734796360827867
 20
1.834784408031593
 30
0.0
 10
-6.699514778532703
 20
1.807199125899119
 30
0.0
 10
-6.685388416893738
 20
1.7819846881213706
 30
0.0
 10
-6.765728815274121
 20
1.447342845218692
 30
0.0
 10
-6.789762610864842
 20
1.4312898506348368
 30
0.0
 10
-6.83372218689431
 20
1.4227286874603262
 30
0.0
 10
-6.962248583274192
 20
1.4241156696678556
 30
0.0
 10
-7.051842971806231
 20
1.4203891848530248
 30
0.0
 10
-7.160062905118489
 20
1.410194221546599
 30
0.0
 10
-7.2864249647549375
 20
1.3915758857223897
 30
0.0
 10
-7.43029248824076
 20
1.3626148647453218
 30
0.0
 10
-7.576235356777553
 20
1.3251927296880655
 30
0.0
 10
-7.605200222582558
 20
1.2045453808097775
 30
0.0
 10
-7.614935079344765
 20
1.0808522977118113
 30
0.0
 10
-7.48769923891535
 20
1.0001629057267518
 30
0.0
 10
-7.359822540876438
 20
0.9281618283117323
 30
0.0
 10
-7.245398462823396
 20
0.8714067148316472
 30
0.0
 10
-7.145625606972448
 20
0.8282689300220654
 30
0.0
 10
-7.061567827072621
 20
0.797038643698967
 30
0.0
 10
-6.938903359206828
 20
0.7586409014575553
 30
0.0
 10
-6.899740862882769
 20
0.7369144953754
 30
0.0
 10
-6.8818440131118805
 20
0.7142203389936128
 30
0.0
 10
-6.908845770196396
 20
0.3711304852416132
 30
0.0
 10
-6.930072428261578
 20
0.3515154157033818
 30
0.0
 10
-6.972151527982063
 20
0.3361828618944201
 30
0.0
 10
-7.099312522964838
 20
0.3174468099881741
 30
0.0
 10
-7.187220905242194
 20
0.2997505541445448
 30
0.0
 10
-7.29251362796375
 20
0.2727517803796002
 30
0.0
 10
-7.414407411555657
 20
0.2345952859641345
 30
0.0
 10
-7.551973185269335
 20
0.18348498414018555
 30
0.0
 10
-7.690265143237786
 20
0.123693083097967
 30
0.0
 10
-7.699999999999996
 20
-3.219646771412954e-15
 30
0.0
 10
-7.6902651432377835
 20
-0.12369308309796878
 30
0.0
 10
-7.551973185270225
 20
-0.1834849841398031
 30
0.0
 10
-7.414407411555648
 20
-0.23459528596407742
 30
0.0
 10
-7.292513627963755
 20
-0.27275178037956216
 30
0.0
 10
-7.187220905242187
 20
-0.29975055414450913
 30
0.0
 10
-7.099312522964809
 20
-0.3174468099881821
 30
0.0
 10
-6.972151527982169
 20
-0.336182861895172
 30
0.0
 10
-6.930072428261588
 20
-0.3515154157034579
 30
0.0
 10
-6.908845770196375
 20
-0.37113048524157743
 30
0.0
 10
-6.881844013111907
 20
-0.7142203389935808
 30
0.0
 10
-6.899740862882747
 20
-0.7369144953754736
 30
0.0
 10
-6.938903359206604
 20
-0.7586409014582811
 30
0.0
 10
-7.061567827072649
 20
-0.7970386436989796
 30
0.0
 10
-7.145625606972461
 20
-0.8282689300220312
 30
0.0
 10
-7.245398462823396
 20
-0.8714067148316088
 30
0.0
 10
-7.359822540876456
 20
-0.9281618283116775
 30
0.0
 10
-7.487699238914531
 20
-1.000162905726235
 30
0.0
 10
-7.614935079344761
 20
-1.080852297711813
 30
0.0
 10
-7.6052002225825515
 20
-1.2045453808097792
 30
0.0
 10
-7.576235356777556
 20
-1.3251927296880677
 30
0.0
 10
-7.4302924882417
 20
-1.362614864745083
 30
0.0
 10
-7.286424964754938
 20
-1.391575885722332
 30
0.0
 10
-7.160062905118502
 20
-1.4101942215465626
 30
0.0
 10
-7.051842971806231
 20
-1.4203891848529886
 30
0.0
 10
-6.962248583274164
 20
-1.424115669667859
 30
0.0
 10
-6.833722186894299
 20
-1.4227286874610858
 30
0.0
 10
-6.78976261086484
 20
-1.4312898506349139
 30
0.0
 10
-6.765728815274106
 20
-1.4473428452186534
 30
0.0
 10
-6.68538841689377
 20
-1.7819846881213433
 30
0.0
 10
-6.699514778532672
 20
-1.8071991258991884
 30
0.0
 10
-6.734796360827534
 20
-1.834784408032275
 30
0.0
 10
-6.849943895277956
 20
-1.8918983607586597
 30
0.0
 10
-6.928081291287312
 20
-1.9358936842644823
 30
0.0
 10
-7.019877541429455
 20
-1.9941082846905813
 30
0.0
 10
-7.124014413390258
 20
-2.068064517981951
 30
0.0
 10
-7.239053287048603
 20
-2.159183465503295
 30
0.0
 10
-7.352100041277678
 20
-2.2587835078088077
 30
0.0
 10
-7.323135175472673
 20
-2.379430856687091
 30
0.0
 10
-7.275653511749875
 20
-2.494061733210723
 30
0.0
 10
-7.125653330425699
 20
-2.5081926451208725
 30
0.0
 10
-6.979026553063932
 20
-2.514291268798518
 30
0.0
 10
-6.851307670662834
 20
-2.5129130008127873
 30
0.0
 10
-6.742825260679375
 20
-2.5060531198289455
 30
0.0
 10
-6.653750977085006
 20
-2.4957180751913777
 30
0.0
 10
-6.5270239257414415
 20
-2.4742422109759015
 30
0.0
 10
-6.482266304058419
 20
-2.4758211792650604
 30
0.0
 10
-6.456017162753204
 20
-2.4879168208909346
 30
0.0
 10
-6.324316370319618
 20
-2.8058706601594436
 30
0.0
 10
-6.334324405920324
 20
-2.8329845161932288
 30
0.0
 10
-6.364856324537234
 20
-2.8657494331801763
 30
0.0
 10
-6.469651611121109
 20
-2.940173261325781
 30
0.0
 10
-6.53994462122711
 20
-2.9958503111375534
 30
0.0
 10
-6.621503937327671
 20
-3.0677082905145014
 30
0.0
 10
-6.712789407798079
 20
-3.1570445957068727
 30
0.0
 10
-6.812157818215093
 20
-3.2650377624405778
 30
0.0
 10
-6.908231899973232
 20
-3.3810959714708773
 30
0.0
 10
-6.860750236250428
 20
-3.495726847994508
 30
0.0
 10
-6.795920930753299
 20
-3.601518659545405
 30
0.0
 10
-6.645556938927051
 20
-3.5920103983596476
 30
0.0
 10
-6.4997813455753
 20
-3.575096456382574
 30
0.0
 10
-6.373850503168924
 20
-3.5537555221189012
 30
0.0
 10
-6.2677768134805465
 20
-3.5300097098812517
 30
0.0
 10
-6.181415939306569
 20
-3.5058676188902687
 30
0.0
 10
-6.059608673586353
 20
-3.4648316797173826
 30
0.0
 10
-6.015155087437635
 20
-3.459389573682298
 30
0.0
 10
-5.987336941392776
 20
-3.4672300275103436
 30
0.0
 10
-5.807518665505527
 20
-3.7606667843935884
 30
0.0
 10
-5.813161944016782
 20
-3.7890124255620337
 30
0.0
 10
-5.8381924017897635
 20
-3.826150196406097
 30
0.0
 10
-5.930055032755779
 20
-3.916051338323454
 30
0.0
 10
-5.9907728097604895
 20
-3.9820391606932755
 30
0.0
 10
-6.0600869307772225
 20
-4.065771137085851
 30
0.0
 10
-6.136273248515145
 20
-4.168287757855189
 30
0.0
 10
-6.217524415641516
 20
-4.290495993627499
 30
0.0
 10
-6.294260162184228
 20
-4.420154631101144
 30
0.0
 10
-6.229430856687088
 20
-4.525946442652037
 30
0.0
 10
-6.148850222073088
 20
-4.620294243726922
 30
0.0
 10
-6.001824880253023
 20
-4.587380934391767
 30
0.0
 10
-5.8604899498210665
 20
-4.547870904145605
 30
0.0
 10
-5.739447982689962
 20
-4.507092788232061
 30
0.0
 10
-5.638394899575188
 20
-4.467045745445729
 30
0.0
 10
-5.5568739261590725
 20
-4.429691066504535
 30
0.0
 10
-5.442985745199375
 20
-4.370105493387149
 30
0.0
 10
-5.399930789408936
 20
-4.357776315739718
 30
0.0
 10
-5.3712286137031935
 20
-4.361168523775716
 30
0.0
 10
-5.1477205770972665
 20
-4.622862811458468
 30
0.0
 10
-5.148860142273157
 20
-4.651742274002216
 30
0.0
 10
-5.167772806260511
 20
-4.69233844353202
 30
0.0
 10
-5.244440818759691
 20
-4.7955032347423385
 30
0.0
 10
-5.294088289482506
 20
-4.870176990482439
 30
0.0
 10
-5.349450471715599
 20
-4.9637212047413595
 30
0.0
 10
-5.408661676730439
 20
-5.076893841651166
 30
0.0
 10
-5.46979492717435
 20
-5.210307974111487
 30
0.0
 10
-5.525302849750416
 20
-5.350374414061529
 30
0.0
 10
-5.44472221513641
 20
-5.44472221513641
 30
0.0
 10
-5.350374414061537
 20
-5.525302849750422
 30
0.0
 10
-5.210307974112388
 20
-5.469794927174705
 30
0.0
 10
-5.076893841651201
 20
-5.4086616767303894
 30
0.0
 10
-4.963721204741393
 20
-5.349450471715572
 30
0.0
 10
-4.870176990482462
 20
-5.294088289482472
 30
0.0
 10
-4.795503234742315
 20
-5.2444408187596725
 30
0.0
 10
-4.692338443531567
 20
-5.167772806261115
 30
0.0
 10
-4.651742274002172
 20
-5.148860142273214
 30
0.0
 10
-4.622862811458482
 20
-5.147720577097223
 30
0.0
 10
-4.361168523775761
 20
-5.371228613703187
 30
0.0
 10
-4.357776315739654
 20
-5.39993078940897
 30
0.0
 10
-4.370105493386481
 20
-5.442985745199728
 30
0.0
 10
-4.4296910665045495
 20
-5.556873926159098
 30
0.0
 10
-4.467045745445765
 20
-5.638394899575168
 30
0.0
 10
-4.507092788232092
 20
-5.739447982689931
 30
0.0
 10
-4.54787090414566
 20
-5.860489949821037
 30
0.0
 10
-4.587380934391557
 20
-6.001824880252076
 30
0.0
 10
-4.62029424372692
 20
-6.148850222073083
 30
0.0
 10
-4.525946442652039
 20
-6.229430856687087
 30
0.0
 10
-4.420154631101148
 20
-6.29426016218423
 30
0.0
 10
-4.290495993628335
 20
-6.217524415642008
 30
0.0
 10
-4.168287757855233
 20
-6.136273248515102
 30
0.0
 10
-4.065771137085888
 20
-6.060086930777201
 30
0.0
 10
-3.982039160693303
 20
-5.99077280976046
 30
0.0
 10
-3.9160513383234323
 20
-5.930055032755757
 30
0.0
 10
-3.8261501964055538
 20
-5.838192401790289
 30
0.0
 10
-3.7890124255619804
 20
-5.813161944016833
 30
0.0
 10
-3.7606667843936075
 20
-5.807518665505486
 30
0.0
 10
-3.467230027510388
 20
-5.987336941392777
 30
0.0
 10
-3.459389573682228
 20
-6.015155087437658
 30
0.0
 10
-3.4648316797166667
 20
-6.059608673586597
 30
0.0
 10
-3.505867618890278
 20
-6.181415939306596
 30
0.0
 10
-3.53000970988129
 20
-6.267776813480534
 30
0.0
 10
-3.553755522118935
 20
-6.3738505031688995
 30
0.0
 10
-3.575096456382632
 20
-6.49978134557528
 30
0.0
 10
-3.5920103983595872
 20
-6.645556938926082
 30
0.0
 10
-3.601518659545399
 20
-6.795920930753284
 30
0.0
 10
-3.4957268479945043
 20
-6.860750236250422
 30
0.0
 10
-3.3810959714708804
 20
-6.908231899973234
 30
0.0
 10
-3.265037762441326
 20
-6.81215781821571
 30
0.0
 10
-3.1570445957069224
 20
-6.712789407798043
 30
0.0
 10
-3.067708290514541
 20
-6.621503937327657
 30
0.0
 10
-2.995850311137585
 20
-6.539944621227086
 30
0.0
 10
-2.940173261325764
 20
-6.469651611121085
 30
0.0
 10
-2.8657494331795577
 20
-6.36485632453767
 30
0.0
 10
-2.8329845161931684
 20
-6.334324405920365
 30
0.0
 10
-2.8058706601594685
 20
-6.324316370319582
 30
0.0
 10
-2.4879168208909777
 20
-6.456017162753212
 30
0.0
 10
-2.4758211792649876
 20
-6.482266304058433
 30
0.0
 10
-2.4742422109751563
 20
-6.52702392574157
 30
0.0
 10
-2.4957180751913817
 20
-6.653750977085036
 30
0.0
 10
-2.506053119828984
 20
-6.742825260679369
 30
0.0
 10
-2.512913000812825
 20
-6.851307670662816
 30
0.0
 10
-2.514291268798578
 20
-6.979026553063921
 30
0.0
 10
-2.5081926451209644
 20
-7.125653330424734
 30
0.0
 10
-2.4940617332107227
 20
-7.275653511749871
 30
0.0
 10
-2.379430856687092
 20
-7.3231351754726735
 30
0.0
 10
-2.2587835078088085
 20
-7.352100041277686
 30
0.0
 10
-2.1591834655039337
 20
-7.23905328704933
 30
0.0
 10
-2.0680645179820023
 20
-7.12401441339023
 30
0.0
 10
-1.9941082846906193
 20
-7.019877541429448
 30
0.0
 10
-1.935893684264514
 20
-6.9280812912872936
 30
0.0
 10
-1.8918983607586433
 20
-6.84994389527793
 30
0.0
 10
-1.8347844080315934
 20
-6.734796360827867
 30
0.0
 10
-1.8071991258991194
 20
-6.699514778532703
 30
0.0
 10
-1.781984688121371
 20
-6.685388416893738
 30
0.0
 10
-1.4473428452186925
 20
-6.765728815274121
 30
0.0
 10
-1.431289850634837
 20
-6.789762610864842
 30
0.0
 10
-1.4227286874603267
 20
-6.83372218689431
 30
0.0
 10
-1.424115669667856
 20
-6.962248583274192
 30
0.0
 10
-1.4203891848530252
 20
-7.051842971806231
 30
0.0
 10
-1.4101942215465995
 20
-7.160062905118489
 30
0.0
 10
-1.39157588572239
 20
-7.2864249647549375
 30
0.0
 10
-1.3626148647453222
 20
-7.43029248824076
 30
0.0
 10
-1.3251927296880657
 20
-7.576235356777552
 30
0.0
 10
-1.204545380809778
 20
-7.605200222582557
 30
0.0
 10
-1.0808522977118125
 20
-7.6149350793447725
 30
0.0
 10
-1.0001629057267523
 20
-7.48769923891535
 30
0.0
 10
-0.9281618283117328
 20
-7.359822540876438
 30
0.0
 10
-0.8714067148316477
 20
-7.245398462823396
 30
0.0
 10
-0.8282689300220658
 20
-7.145625606972448
 30
0.0
 10
-0.7970386436989675
 20
-7.061567827072621
 30
0.0
 10
-0.7586409014575556
 20
-6.938903359206828
 30
0.0
 10
-0.7369144953754003
 20
-6.899740862882769
 30
0.0
 10
-0.7142203389936131
 20
-6.8818440131118805
 30
0.0
 10
-0.37113048524161363
 20
-6.908845770196396
 30
0.0
 10
-0.35151541570338224
 20
-6.930072428261578
 30
0.0
 10
-0.33618286189442054
 20
-6.972151527982063
 30
0.0
 10
-0.3174468099881745
 20
-7.099312522964838
 30
0.0
 10
-0.29975055414454527
 20
-7.187220905242194
 30
0.0
 10
-0.27275178037960063
 20
-7.29251362796375
 30
0.0
 10
-0.23459528596413495
 20
-7.414407411555657
 30
0.0
 10
-0.18348498414018602
 20
-7.551973185269335
 30
0.0
 10
-0.12369308309796773
 20
-7.690265143237788
 30
0.0
 10
-9.992007221626409e-16
 20
-7.699999999999997
 30
0.0
 10
0.1236930830979655
 20
-7.690265143237792
 30
0.0
 10
0.18348498413979944
 20
-7.551973185270225
 30
0.0
 10
0.23459528596407375
 20
-7.414407411555648
 30
0.0
 10
0.2727517803795585
 20
-7.292513627963756
 30
0.0
 10
0.29975055414450547
 20
-7.187220905242187
 30
0.0
 10
0.31744680998817854
 20
-7.099312522964809
 30
0.0
 10
0.33618286189516833
 20
-6.97215152798217
 30
0.0
 10
0.35151541570345424
 20
-6.930072428261589
 30
0.0
 10
0.3711304852415739
 20
-6.9088457701963755
 30
0.0
 10
0.7142203389935773
 20
-6.881844013111908
 30
0.0
 10
0.7369144953754699
 20
-6.899740862882748
 30
0.0
 10
0.7586409014582775
 20
-6.938903359206605
 30
0.0
 10
0.797038643698976
 20
-7.061567827072649
 30
0.0
 10
0.8282689300220275
 20
-7.1456256069724615
 30
0.0
 10
0.8714067148316051
 20
-7.245398462823397
 30
0.0
 10
0.9281618283116737
 20
-7.359822540876457
 30
0.0
 10
1.0001629057262311
 20
-7.487699238914532
 30
0.0
 10
1.0808522977118091
 20
-7.614935079344763
 30
0.0
 10
1.2045453808097752
 20
-7.605200222582552
 30
0.0
 10
1.325192729688065
 20
-7.576235356777557
 30
0.0
 10
1.3626148647450793
 20
-7.4302924882417
 30
0.0
 10
1.3915758857223284
 20
-7.286424964754938
 30
0.0
 10
1.410194221546559
 20
-7.160062905118503
 30
0.0
 10
1.4203891848529848
 20
-7.051842971806232
 30
0.0
 10
1.4241156696678554
 20
-6.962248583274165
 30
0.0
 10
1.422728687461082
 20
-6.833722186894299
 30
0.0
 10
1.43128985063491
 20
-6.789762610864841
 30
0.0
 10
1.44734284521865
 20
-6.765728815274107
 30
0.0
 10
1.7819846881213397
 20
-6.685388416893771
 30
0.0
 10
1.8071991258991846
 20
-6.699514778532671
 30
0.0
 10
1.834784408032272
 20
-6.734796360827534
 30
0.0
 10
1.8918983607586561
 20
-6.849943895277957
 30
0.0
 10
1.9358936842644783
 20
-6.928081291287313
 30
0.0
 10
1.9941082846905775
 20
-7.019877541429455
 30
0.0
 10
2.0680645179819472
 20
-7.124014413390258
 30
0.0
 10
2.159183465503291
 20
-7.239053287048604
 30
0.0
 10
2.2587835078088045
 20
-7.352100041277679
 30
0.0
 10
2.3794308566870916
 20
-7.323135175472673
 30
0.0
 10
2.4940617332107253
 20
-7.275653511749883
 30
0.0
 10
2.508192645120872
 20
-7.125653330425699
 30
0.0
 10
2.5142912687985173
 20
-6.979026553063933
 30
0.0
 10
2.5129130008127873
 20
-6.851307670662834
 30
0.0
 10
2.506053119828945
 20
-6.742825260679376
 30
0.0
 10
2.4957180751913772
 20
-6.653750977085007
 30
0.0
 10
2.474242210975901
 20
-6.527023925741442
 30
0.0
 10
2.47582117926506
 20
-6.48226630405842
 30
0.0
 10
2.4879168208909337
 20
-6.456017162753205
 30
0.0
 10
2.8058706601594436
 20
-6.324316370319619
 30
0.0
 10
2.8329845161932283
 20
-6.3343244059203245
 30
0.0
 10
2.865749433180176
 20
-6.364856324537235
 30
0.0
 10
2.9401732613257807
 20
-6.46965161112111
 30
0.0
 10
2.995850311137553
 20
-6.539944621227111
 30
0.0
 10
3.0677082905145014
 20
-6.621503937327672
 30
0.0
 10
3.1570445957068722
 20
-6.71278940779808
 30
0.0
 10
3.2650377624405773
 20
-6.812157818215094
 30
0.0
 10
3.381095971470877
 20
-6.908231899973233
 30
0.0
 10
3.495726847994507
 20
-6.8607502362504285
 30
0.0
 10
3.6015186595454005
 20
-6.795920930753291
 30
0.0
 10
3.5920103983596468
 20
-6.64555693892705
 30
0.0
 10
3.575096456382574
 20
-6.4997813455753
 30
0.0
 10
3.5537555221189003
 20
-6.373850503168923
 30
0.0
 10
3.5300097098812517
 20
-6.2677768134805465
 30
0.0
 10
3.5058676188902678
 20
-6.181415939306569
 30
0.0
 10
3.4648316797173817
 20
-6.059608673586353
 30
0.0
 10
3.459389573682297
 20
-6.015155087437635
 30
0.0
 10
3.4672300275103427
 20
-5.987336941392776
 30
0.0
 10
3.7606667843935875
 20
-5.807518665505527
 30
0.0
 10
3.7890124255620328
 20
-5.813161944016782
 30
0.0
 10
3.826150196406096
 20
-5.8381924017897635
 30
0.0
 10
3.916051338323453
 20
-5.930055032755779
 30
0.0
 10
3.9820391606932746
 20
-5.9907728097604895
 30
0.0
 10
4.06577113708585
 20
-6.060086930777222
 30
0.0
 10
4.168287757855188
 20
-6.136273248515145
 30
0.0
 10
4.2904959936274984
 20
-6.217524415641516
 30
0.0
 10
4.420154631101147
 20
-6.294260162184235
 30
0.0
 10
4.525946442652048
 20
-6.229430856687093
 30
0.0
 10
4.620294243726929
 20
-6.1488502220730865
 30
0.0
 10
4.5873809343917715
 20
-6.001824880253019
 30
0.0
 10
4.5478709041456105
 20
-5.860489949821062
 30
0.0
 10
4.5070927882320655
 20
-5.739447982689958
 30
0.0
 10
4.467045745445733
 20
-5.638394899575182
 30
0.0
 10
4.42969106650454
 20
-5.556873926159069
 30
0.0
 10
4.370105493387153
 20
-5.442985745199371
 30
0.0
 10
4.357776315739724
 20
-5.3999307894089315
 30
0.0
 10
4.361168523775721
 20
-5.371228613703189
 30
0.0
 10
4.622862811458472
 20
-5.147720577097263
 30
0.0
 10
4.6517422740022205
 20
-5.1488601422731515
 30
0.0
 10
4.692338443532025
 20
-5.167772806260507
 30
0.0
 10
4.795503234742343
 20
-5.244440818759686
 30
0.0
 10
4.870176990482443
 20
-5.294088289482501
 30
0.0
 10
4.963721204741364
 20
-5.349450471715595
 30
0.0
 10
5.076893841651169
 20
-5.408661676730435
 30
0.0
 10
5.210307974111491
 20
-5.469794927174345
 30
0.0
 10
5.350374414061536
 20
-5.525302849750414
 30
0.0
 10
5.444722215136411
 20
-5.444722215136412
 30
0.0
 10
5.5253028497504255
 20
-5.350374414061541
 30
0.0
 10
5.469794927174705
 20
-5.210307974112389
 30
0.0
 10
5.4086616767303894
 20
-5.076893841651202
 30
0.0
 10
5.349450471715572
 20
-4.963721204741394
 30
0.0
 10
5.294088289482472
 20
-4.870176990482463
 30
0.0
 10
5.2444408187596725
 20
-4.795503234742316
 30
0.0
 10
5.167772806261115
 20
-4.692338443531567
 30
0.0
 10
5.148860142273214
 20
-4.6517422740021726
 30
0.0
 10
5.147720577097223
 20
-4.622862811458483
 30
0.0
 10
5.371228613703187
 20
-4.361168523775762
 30
0.0
 10
5.39993078940897
 20
-4.357776315739655
 30
0.0
 10
5.442985745199728
 20
-4.3701054933864825
 30
0.0
 10
5.556873926159098
 20
-4.4296910665045495
 30
0.0
 10
5.638394899575168
 20
-4.467045745445766
 30
0.0
 10
5.739447982689931
 20
-4.507092788232093
 30
0.0
 10
5.860489949821037
 20
-4.547870904145661
 30
0.0
 10
6.001824880252076
 20
-4.5873809343915575
 30
0.0
 10
6.1488502220730865
 20
-4.620294243726924
 30
0.0
 10
6.229430856687091
 20
-4.525946442652042
 30
0.0
 10
6.294260162184235
 20
-4.420154631101152
 30
0.0
 10
6.217524415642008
 20
-4.290495993628336
 30
0.0
 10
6.136273248515102
 20
-4.168287757855234
 30
0.0
 10
6.060086930777201
 20
-4.065771137085889
 30
0.0
 10
5.99077280976046
 20
-3.9820391606933034
 30
0.0
 10
5.930055032755757
 20
-3.9160513383234328
 30
0.0
 10
5.838192401790289
 20
-3.8261501964055546
 30
0.0
 10
5.813161944016833
 20
-3.789012425561981
 30
0.0
 10
5.807518665505486
 20
-3.760666784393608
 30
0.0
 10
5.987336941392777
 20
-3.4672300275103884
 30
0.0
 10
6.015155087437658
 20
-3.459389573682228
 30
0.0
 10
6.059608673586597
 20
-3.464831679716667
 30
0.0
 10
6.181415939306596
 20
-3.5058676188902784
 30
0.0
 10
6.267776813480534
 20
-3.5300097098812904
 30
0.0
 10
6.3738505031688995
 20
-3.5537555221189354
 30
0.0
 10
6.49978134557528
 20
-3.5750964563826324
 30
0.0
 10
6.645556938926082
 20
-3.5920103983595877
 30
0.0
 10
6.795920930753286
 20
-3.601518659545402
 30
0.0
 10
6.860750236250423
 20
-3.4957268479945074
 30
0.0
 10
6.90823189997321
 20
-3.3810959714708706
 30
0.0
 10
6.81215781821571
 20
-3.265037762441326
 30
0.0
 10
6.712789407798043
 20
-3.157044595706923
 30
0.0
 10
6.621503937327657
 20
-3.0677082905145414
 30
0.0
 10
6.539944621227086
 20
-2.9958503111375854
 30
0.0
 10
6.469651611121085
 20
-2.9401732613257643
 30
0.0
 10
6.36485632453767
 20
-2.8657494331795577
 30
0.0
 10
6.334324405920365
 20
-2.8329845161931693
 30
0.0
 10
6.324316370319582
 20
-2.8058706601594694
 30
0.0
 10
6.456017162753212
 20
-2.4879168208909777
 30
0.0
 10
6.482266304058433
 20
-2.475821179264988
 30
0.0
 10
6.52702392574157
 20
-2.4742422109751567
 30
0.0
 10
6.653750977085036
 20
-2.495718075191382
 30
0.0
 10
6.742825260679369
 20
-2.506053119828985
 30
0.0
 10
6.851307670662816
 20
-2.5129130008128255
 30
0.0
 10
6.979026553063921
 20
-2.5142912687985786
 30
0.0
 10
7.125653330424734
 20
-2.508192645120965
 30
0.0
 10
7.275653511749868
 20
-2.494061733210722
 30
0.0
 10
7.323135175472675
 20
-2.379430856687096
 30
0.0
 10
7.352100041277681
 20
-2.258783507808808
 30
0.0
 10
7.23905328704933
 20
-2.159183465503934
 30
0.0
 10
7.12401441339023
 20
-2.068064517982003
 30
0.0
 10
7.019877541429448
 20
-1.9941082846906197
 30
0.0
 10
6.9280812912872936
 20
-1.9358936842645147
 30
0.0
 10
6.84994389527793
 20
-1.8918983607586437
 30
0.0
 10
6.734796360827867
 20
-1.8347844080315938
 30
0.0
 10
6.699514778532703
 20
-1.8071991258991198
 30
0.0
 10
6.685388416893738
 20
-1.7819846881213715
 30
0.0
 10
6.765728815274121
 20
-1.4473428452186932
 30
0.0
 10
6.789762610864842
 20
-1.4312898506348377
 30
0.0
 10
6.83372218689431
 20
-1.422728687460327
 30
0.0
 10
6.962248583274192
 20
-1.4241156696678567
 30
0.0
 10
7.051842971806231
 20
-1.4203891848530257
 30
0.0
 10
7.160062905118489
 20
-1.4101942215466
 30
0.0
 10
7.2864249647549375
 20
-1.3915758857223908
 30
0.0
 10
7.43029248824076
 20
-1.3626148647453227
 30
0.0
 10
7.576235356777556
 20
-1.3251927296880675
 30
0.0
  0
LWPOLYLINE
  8
OpenJsCad
  90
31
  70
1
 10
0.08316467632710375
 20
-0.3912590402935223
 30
0.0
 10
2.4492935982947065e-17
 20
-0.4
 30
0.0
 10
-0.08316467632710357
 20
-0.3912590402935223
 30
0.0
 10
-0.16269465723032003
 20
-0.36541818305704044
 30
0.0
 10
-0.23511410091698934
 20
-0.32360679774997897
 30
0.0
 10
-0.29725793019095764
 20
-0.2676522425435434
 30
0.0
 10
-0.34641016151377546
 20
-0.2000000000000001
 30
0.0
 10
-0.3804226065180615
 20
-0.12360679774997893
 30
0.0
 10
-0.39780875814730937
 20
-0.04181138530706122
 30
0.0
 10
-0.3978087581473093
 20
0.04181138530706167
 30
0.0
 10
-0.3804226065180614
 20
0.123606797749979
 30
0.0
 10
-0.34641016151377535
 20
0.20000000000000015
 30
0.0
 10
-0.29725793019095764
 20
0.2676522425435434
 30
0.0
 10
-0.23511410091698925
 20
0.323606797749979
 30
0.0
 10
-0.16269465723032012
 20
0.3654181830570404
 30
0.0
 10
-0.08316467632710366
 20
0.3912590402935223
 30
0.0
 10
2.0212861992297212e-16
 20
0.4
 30
0.0
 10
0.0831646763271037
 20
0.3912590402935223
 30
0.0
 10
0.16269465723032
 20
0.36541818305704044
 30
0.0
 10
0.23511410091698928
 20
0.32360679774997897
 30
0.0
 10
0.2972579301909578
 20
0.2676522425435432
 30
0.0
 10
0.3464101615137755
 20
0.19999999999999996
 30
0.0
 10
0.3804226065180615
 20
0.12360679774997897
 30
0.0
 10
0.39780875814730937
 20
0.04181138530706136
 30
0.0
 10
0.3978087581473093
 20
-0.041811385307061355
 30
0.0
 10
0.3804226065180614
 20
-0.12360679774997896
 30
0.0
 10
0.34641016151377546
 20
-0.20000000000000004
 30
0.0
 10
0.29725793019095764
 20
-0.2676522425435433
 30
0.0
 10
0.23511410091698928
 20
-0.323606797749979
 30
0.0
 10
0.1626946572303201
 20
-0.3654181830570404
 30
0.0
 10
0.08316467632710375
 20
-0.3912590402935223
 30
0.0
  0
ENDSEC
  0
EOF
