999
DXF generated by OpenJsCad
  0
SECTION
  2
HEADER
  0
ENDSEC
  0
SECTION
  2
TABLES
  0
TABLE
  2
LTYPE
  70
1
  0
LTYPE
  2
CONTINUOUS
  3
Solid Line
  72
65
  73
0
  40
0.0
  0
ENDTAB
  0
TABLE
  2
LAYER
  70
1
  0
LAYER
  2
OpenJsCad
  62
7
  6
continuous
  0
ENDTAB
  0
TABLE
  2
STYLE
  70
0
  0
ENDTAB
  0
TABLE
  2
VIEW
  70
0
  0
ENDTAB
  0
ENDSEC
  0
SECTION
  2
BLOCKS
  0
ENDSEC
  0
SECTION
  2
ENTITIES
  0
LWPOLYLINE
  8
OpenJsCad
  90
1151
  70
1
 10
9.434520110884117
 20
-1.3187689314930413
 30
0.0
 10
9.45816015253136
 20
-1.1948434933130365
 30
0.0
 10
9.466081809501297
 20
-1.0689323613665627
 30
0.0
 10
9.330420204362028
 20
-0.9916096976446255
 30
0.0
 10
9.203994741692767
 20
-0.9264077196188953
 30
0.0
 10
9.088757538457523
 20
-0.8729610690651785
 30
0.0
 10
8.985447102015605
 20
-0.8302070934356829
 30
0.0
 10
8.89473211998042
 20
-0.797042936293186
 30
0.0
 10
8.817209431968296
 20
-0.7723295384645852
 30
0.0
 10
8.815868062238474
 20
-0.7719630411485533
 30
0.0
 10
8.767767279152938
 20
-0.7565679127604121
 30
0.0
 10
8.736435993624236
 20
-0.7391720367819157
 30
0.0
 10
8.721929171374608
 20
-0.7211528722690296
 30
0.0
 10
8.743538576120097
 20
-0.3776812194941715
 30
0.0
 10
8.760189407897618
 20
-0.361622328415982
 30
0.0
 10
8.793453918268593
 20
-0.34829047544126784
 30
0.0
 10
8.843104933534851
 20
-0.3390453689217181
 30
0.0
 10
8.844481660454713
 20
-0.3388498797514218
 30
0.0
 10
8.924490468981409
 20
-0.3240475236100886
 30
0.0
 10
9.018646707341658
 20
-0.302514477783708
 30
0.0
 10
9.126501004148253
 20
-0.2730458610822412
 30
0.0
 10
9.247528169153291
 20
-0.23446370464009786
 30
0.0
 10
9.381128704028535
 20
-0.18562117572724998
 30
0.0
 10
9.525411676363394
 20
-0.12591113194647108
 30
0.0
 10
9.533333333333337
 20
-2.1094237467877974e-15
 30
0.0
 10
9.525411676363392
 20
0.12591113194647113
 30
0.0
 10
9.381128704028725
 20
0.1856211757271722
 30
0.0
 10
9.247528169153314
 20
0.23446370464008093
 30
0.0
 10
9.126501004148185
 20
0.2730458610820611
 30
0.0
 10
9.01864670734157
 20
0.30251447778351936
 30
0.0
 10
8.92449046898188
 20
0.3240475236100965
 30
0.0
 10
8.844481660457417
 20
0.33884987975212844
 30
0.0
 10
8.843104933534851
 20
0.3390453689217121
 30
0.0
 10
8.793453918268929
 20
0.3482904754431254
 30
0.0
 10
8.760189407897753
 20
0.3616223284165965
 30
0.0
 10
8.743538576120015
 20
0.3776812194939463
 30
0.0
 10
8.721929171374718
 20
0.7211528722688167
 30
0.0
 10
8.736435993624026
 20
0.7391720367825084
 30
0.0
 10
8.767767279152373
 20
0.756567912762213
 30
0.0
 10
8.815868062238476
 20
0.7719630411485474
 30
0.0
 10
8.817209431965527
 20
0.7723295384649476
 30
0.0
 10
8.894732119979954
 20
0.7970429362931348
 30
0.0
 10
8.985447102015717
 20
0.8302070934355068
 30
0.0
 10
9.088757538457612
 20
0.8729610690650081
 30
0.0
 10
9.203994741692748
 20
0.9264077196188757
 30
0.0
 10
9.33042020436185
 20
0.9916096976445244
 30
0.0
 10
9.466081809501295
 20
1.068932361366563
 30
0.0
 10
9.458160152531352
 20
1.1948434933130323
 30
0.0
 10
9.43452011088412
 20
1.3187689314930462
 30
0.0
 10
9.283891200018239
 20
1.3599246922730368
 30
0.0
 10
9.145222553180753
 20
1.391637496215055
 30
0.0
 10
9.020314097095994
 20
1.4147466948903449
 30
0.0
 10
8.909616866614353
 20
1.430465214974686
 30
0.0
 10
8.813504272055301
 20
1.44002756048944
 30
0.0
 10
8.732271129723875
 20
1.4446854329460441
 30
0.0
 10
8.730880757414553
 20
1.4447068309881956
 30
0.0
 10
8.680462536139068
 20
1.4476561147902796
 30
0.0
 10
8.645789402125226
 20
1.4567136934732705
 30
0.0
 10
8.627257154383235
 20
1.4705590528096781
 30
0.0
 10
8.562769733368823
 20
1.808613952440281
 30
0.0
 10
8.574903764837089
 20
1.8283092174009667
 30
0.0
 10
8.603807712433623
 20
1.8494947730296698
 30
0.0
 10
8.649599685256288
 20
1.8707971329115325
 30
0.0
 10
8.650884543588637
 20
1.8713288584924217
 30
0.0
 10
8.724698531990997
 20
1.9055635529606443
 30
0.0
 10
8.810541628245067
 20
1.9498358028495648
 30
0.0
 10
8.907678937024913
 20
2.0052008816714366
 30
0.0
 10
9.015308818955758
 20
2.072669140730312
 30
0.0
 10
9.132565404349515
 20
2.1532022937255237
 30
0.0
 10
9.257466177740206
 20
2.246918152791608
 30
0.0
 10
9.233826136092963
 20
2.3708435909716163
 30
0.0
 10
9.194840527347058
 20
2.4908289571955984
 30
0.0
 10
9.040241185855683
 20
2.512781384042122
 30
0.0
 10
8.898691314453384
 20
2.526864333150773
 30
0.0
 10
8.771871448258148
 20
2.5341361281914976
 30
0.0
 10
8.660077045553498
 20
2.535856661207202
 30
0.0
 10
8.563523847826161
 20
2.533297502509097
 30
0.0
 10
8.482347466868667
 20
2.5277374338491554
 30
0.0
 10
8.480965376174472
 20
2.5275844033039676
 30
0.0
 10
8.430575074357321
 20
2.5241913524193467
 30
0.0
 10
8.39504013273694
 20
2.5288318133852905
 30
0.0
 10
8.374918733648219
 20
2.5402452913932043
 30
0.0
 10
8.268570301517004
 20
2.8675521101681563
 30
0.0
 10
8.278140181279454
 20
2.8886128694820257
 30
0.0
 10
8.304160958424196
 20
2.913253995891824
 30
0.0
 10
8.346921954217212
 20
2.9401276363284654
 30
0.0
 10
8.34813003817142
 20
2.9408162045437956
 30
0.0
 10
8.417071236270267
 20
2.9840322940694746
 30
0.0
 10
8.496688649834542
 20
3.038714436877236
 30
0.0
 10
8.586120917565863
 20
3.105817478524962
 30
0.0
 10
8.68444609065939
 20
3.1862433313399032
 30
0.0
 10
8.790684592380455
 20
3.280837603373769
 30
0.0
 10
8.902854774213893
 20
3.3894687027032813
 30
0.0
 10
8.863869165468003
 20
3.509454068927264
 30
0.0
 10
8.810152815962255
 20
3.623607122294084
 30
0.0
 10
8.654021167813866
 20
3.626010012322023
 30
0.0
 10
8.51182239787656
 20
3.622241010077118
 30
0.0
 10
8.385091146619262
 20
3.6135607209315252
 30
0.0
 10
8.273962636204997
 20
3.601256133045139
 30
0.0
 10
8.17849153691562
 20
3.5866158295956123
 30
0.0
 10
8.098652117352174
 20
3.5709255054233147
 30
0.0
 10
8.097300104668975
 20
3.570600459673901
 30
0.0
 10
8.047732407471525
 20
3.5609185845419358
 30
0.0
 10
8.011896065501503
 20
3.5610687449493246
 30
0.0
 10
7.990502841549619
 20
3.5698703442624775
 30
0.0
 10
7.843970576605786
 20
3.881267258126082
 30
0.0
 10
7.850825381941798
 20
3.9033613710376667
 30
0.0
 10
7.873552625435119
 20
3.931069462945183
 30
0.0
 10
7.912608277750646
 20
3.963090570573382
 30
0.0
 10
7.9137205351210795
 20
3.9639251222910667
 30
0.0
 10
7.976701699038925
 20
4.015441063326342
 30
0.0
 10
8.048837815740352
 20
4.079670728995337
 30
0.0
 10
8.129154642136779
 20
4.157453478416719
 30
0.0
 10
8.216624459676696
 20
4.249568561244758
 30
0.0
 10
8.310169433089122
 20
4.356732144139426
 30
0.0
 10
8.407840032590581
 20
4.478565306402871
 30
0.0
 10
8.354123683084842
 20
4.592718359769689
 30
0.0
 10
8.286523731739537
 20
4.699238838436017
 30
0.0
 10
8.13132206629396
 20
4.6820542966342185
 30
0.0
 10
7.99071695736899
 20
4.6604927824526525
 30
0.0
 10
7.866072948587535
 20
4.635997302465921
 30
0.0
 10
7.757362893457842
 20
4.609861644378817
 30
0.0
 10
7.664479528873888
 20
4.58337108250896
 30
0.0
 10
7.587236186044764
 20
4.5577979486094495
 30
0.0
 10
7.58593557342023
 20
4.557306013821452
 30
0.0
 10
7.537972193037589
 20
4.541488003396645
 30
0.0
 10
7.502399611238386
 20
4.537145495126151
 30
0.0
 10
7.480071946344754
 20
4.543196409265555
 30
0.0
 10
7.295666749940599
 20
4.833772502866683
 30
0.0
 10
7.2996983764751615
 20
4.856551532016985
 30
0.0
 10
7.318773664110573
 20
4.886889616260826
 30
0.0
 10
7.3535080419808825
 20
4.923553199084804
 30
0.0
 10
7.35450693180438
 20
4.924520572925718
 30
0.0
 10
7.410534810963112
 20
4.983523928306331
 30
0.0
 10
7.474052001149287
 20
5.056288176640017
 30
0.0
 10
7.5439867418796
 20
5.143523953411517
 30
0.0
 10
7.619221752591365
 20
5.2458755563695725
 30
0.0
 10
7.698597937583379
 20
5.363918416406371
 30
0.0
 10
7.780228631053127
 20
5.497032259855245
 30
0.0
 10
7.712628679707834
 20
5.603552738521576
 30
0.0
 10
7.632211218137954
 20
5.700760750906608
 30
0.0
 10
7.4803871583722445
 20
5.664259787764828
 30
0.0
 10
7.343593137020777
 20
5.625245799605468
 30
0.0
 10
7.22300208119237
 20
5.585321437129879
 30
0.0
 10
7.118424903856882
 20
5.545766883782776
 30
0.0
 10
7.029594100123673
 20
5.507843835477971
 30
0.0
 10
6.956165007688224
 20
5.472791195449493
 30
0.0
 10
6.954936306560391
 20
5.472140129728385
 30
0.0
 10
6.909333654153131
 20
5.450435443484357
 30
0.0
 10
6.87458583338975
 20
5.441668750485496
 30
0.0
 10
6.851675848167643
 20
5.44487355292053
 30
0.0
 10
6.632305900408783
 20
5.710046267681348
 30
0.0
 10
6.633450766983069
 20
5.733150974173134
 30
0.0
 10
6.648573270079537
 20
5.765640601041681
 30
0.0
 10
6.678438591616301
 20
5.806368452458541
 30
0.0
 10
6.679308360803639
 20
5.807453392359333
 30
0.0
 10
6.727499362079492
 20
5.873013643924035
 30
0.0
 10
6.781395921717847
 20
5.953164939258935
 30
0.0
 10
6.839845664143741
 20
6.0484779830687385
 30
0.0
 10
6.901659366965212
 20
6.15945196023628
 30
0.0
 10
6.965614953682457
 20
6.286512490997041
 30
0.0
 10
7.029918376320673
 20
6.428807730801806
 30
0.0
 10
6.9495009147507965
 20
6.526015743186831
 30
0.0
 10
6.857534174364348
 20
6.6123782608659925
 30
0.0
 10
6.71148207639631
 20
6.5571365183775985
 30
0.0
 10
6.580656466051845
 20
6.501285330139544
 30
0.0
 10
6.4660201561645065
 20
6.446561716220997
 30
0.0
 10
6.367225101181181
 20
6.394212066548925
 30
0.0
 10
6.283847773138541
 20
6.345454600935069
 30
0.0
 10
6.215390951748887
 20
6.301475255850304
 30
0.0
 10
6.214253539468531
 20
6.300675326891436
 30
0.0
 10
6.171730796106817
 20
6.273426260696008
 30
0.0
 10
6.138355730270039
 20
6.260373638954339
 30
0.0
 10
6.115224728872173
 20
6.260681788036148
 30
0.0
 10
5.8643496248800195
 20
6.496269191838375
 30
0.0
 10
5.862589676264243
 20
6.519335200648188
 30
0.0
 10
5.87352090391419
 20
6.553463989317361
 30
0.0
 10
5.898046175156095
 20
6.597613806780619
 30
0.0
 10
5.8987731069276155
 20
6.598799202590942
 30
0.0
 10
5.93836722944256
 20
6.669882426008763
 30
0.0
 10
5.981793177591355
 20
6.756156734537381
 30
0.0
 10
6.027836134358589
 20
6.858043901747357
 30
0.0
 10
6.075253690270555
 20
6.975890127211809
 30
0.0
 10
6.122780060905284
 20
7.109964508224156
 30
0.0
 10
6.16874210932396
 20
7.259197063450034
 30
0.0
 10
6.076775368937517
 20
7.345559581129196
 30
0.0
 10
5.974709720168664
 20
7.419714615608219
 30
0.0
 10
5.836732912830546
 20
7.346603289052067
 30
0.0
 10
5.713938911519647
 20
7.274795707337716
 30
0.0
 10
5.607065230660712
 20
7.206135866058008
 30
0.0
 10
5.515610355063943
 20
7.141816705308459
 30
0.0
 10
5.4390014129823046
 20
7.082993756744582
 30
0.0
 10
5.376596467605883
 20
7.030781287147506
 30
0.0
 10
5.3755682818441235
 20
7.029845110308411
 30
0.0
 10
5.3367960565926245
 20
6.997481398213286
 30
0.0
 10
5.305320090407994
 20
6.980348695370935
 30
0.0
 10
5.282332862544202
 20
6.9777553314044205
 30
0.0
 10
5.003909052574236
 20
7.180042070157002
 30
0.0
 10
4.999272044209409
 20
7.202705616546944
 30
0.0
 10
5.005839604422796
 20
7.237935335631882
 30
0.0
 10
5.024638047191671
 20
7.28481085014632
 30
0.0
 10
5.0252106773990874
 20
7.286078007466123
 30
0.0
 10
5.055583498188681
 20
7.361563177840704
 30
0.0
 10
5.087853981704204
 20
7.452599902179772
 30
0.0
 10
5.120764027879831
 20
7.559454371298574
 30
0.0
 10
5.153037633699686
 20
7.68231433968644
 30
0.0
 10
5.183385268996111
 20
7.821288137869654
 30
0.0
 10
5.210281094235277
 20
7.975104521973514
 30
0.0
 10
5.108215445466431
 20
8.049259556452537
 30
0.0
 10
4.997660524567328
 20
8.110037638539621
 30
0.0
 10
4.869934984534211
 20
8.020209737210106
 30
0.0
 10
4.757109127011132
 20
7.933578210478862
 30
0.0
 10
4.659683536970989
 20
7.8520649485503755
 30
0.0
 10
4.57701113878143
 20
7.776790628310775
 30
0.0
 10
4.508378751441384
 20
7.708829869834855
 30
0.0
 10
4.453009845345689
 20
7.649207697561229
 30
0.0
 10
4.452107101206197
 20
7.648150036909907
 30
0.0
 10
4.4176968552185345
 20
7.611182073987971
 30
0.0
 10
4.388616383475614
 20
7.590239483003342
 30
0.0
 10
4.366135451461211
 20
7.584785504887454
 30
0.0
 10
4.064553845318981
 20
7.750581395880024
 30
0.0
 10
4.057112905597033
 20
7.772485062184978
 30
0.0
 10
4.059213224026025
 20
7.808260117970496
 30
0.0
 10
4.07198837564976
 20
7.857122074670147
 30
0.0
 10
4.072397673572629
 20
7.858451009671535
 30
0.0
 10
4.093070195109176
 20
7.937147680773414
 30
0.0
 10
4.113676289188936
 20
8.0315111173974
 30
0.0
 10
4.132934413685257
 20
8.14164772961526
 30
0.0
 10
4.149555095369904
 20
8.267583865832076
 30
0.0
 10
4.162245394990602
 20
8.409265381369885
 30
0.0
 10
4.16965083381946
 20
8.565239818088966
 30
0.0
 10
4.05909591292036
 20
8.626017900176052
 30
0.0
 10
3.941795237035888
 20
8.672460523209612
 30
0.0
 10
3.826335272373625
 20
8.567332686771271
 30
0.0
 10
3.725256889810404
 20
8.467243445950855
 30
0.0
 10
3.6388158503432115
 20
8.374162276207866
 30
0.0
 10
3.5662297226664097
 20
8.28911991747509
 30
0.0
 10
3.5066562638153114
 20
8.21309313084608
 30
0.0
 10
3.459196597725253
 20
8.14700153316922
 30
0.0
 10
3.4584335320223807
 20
8.145839068645959
 30
0.0
 10
3.428927935433465
 20
8.10484986175608
 30
0.0
 10
3.4027015745434706
 20
8.080427659799497
 30
0.0
 10
3.3810814761057846
 20
8.072199080027174
 30
0.0
 10
3.061098195876272
 20
8.198889423017112
 30
0.0
 10
3.0509706728616184
 20
8.219687775334837
 30
0.0
 10
3.04857062622992
 20
8.255443973820215
 30
0.0
 10
3.055121014935904
 20
8.305521790459206
 30
0.0
 10
3.0553605257014786
 20
8.306891545043337
 30
0.0
 10
3.066006729971183
 20
8.387558623358125
 30
0.0
 10
3.0746234642020562
 20
8.483760604501486
 30
0.0
 10
3.07992595489152
 20
8.595442439651304
 30
0.0
 10
3.080631594362078
 20
8.72246865559833
 30
0.0
 10
3.075464424701213
 20
8.864623486354269
 30
0.0
 10
3.0632626889256387
 20
9.02029616564691
 30
0.0
 10
2.9459620130411697
 20
9.066738788680476
 30
0.0
 10
2.823765483902055
 20
9.098113524751797
 30
0.0
 10
2.7223919672258066
 20
8.979343681985583
 30
0.0
 10
2.6346551260967654
 20
8.867375194194144
 30
0.0
 10
2.560561864032296
 20
8.764194062287492
 30
0.0
 10
2.4992067334625654
 20
8.6707248338606
 30
0.0
 10
2.4496317121339546
 20
8.587831006919844
 30
0.0
 10
2.410829753334803
 20
8.516312287816321
 30
0.0
 10
2.410218400070519
 20
8.515063352181073
 30
0.0
 10
2.3860827737643464
 20
8.470699325601672
 30
0.0
 10
2.363124129105383
 20
8.443182665387107
 30
0.0
 10
2.3427058261119953
 20
8.432309253576872
 30
0.0
 10
2.0093671992731656
 20
8.517896066174085
 30
0.0
 10
1.9967128100536373
 20
8.537261102064194
 30
0.0
 10
1.9898502485303502
 20
8.572434546639599
 30
0.0
 10
1.990072570775675
 20
8.6229384661345
 30
0.0
 10
1.9901385171561068
 20
8.624327438453331
 30
0.0
 10
1.9905905071578995
 20
8.705692755967826
 30
0.0
 10
1.9870819904936794
 20
8.802216118919652
 30
0.0
 10
1.9783452239305566
 20
8.913681887745621
 30
0.0
 10
1.963124692831047
 20
9.03979490411559
 30
0.0
 10
1.9401815432408882
 20
9.180181183489458
 30
0.0
 10
1.9085650615230159
 20
9.33309705420883
 30
0.0
 10
1.7863685323839071
 20
9.364471790280154
 30
0.0
 10
1.6612032622513484
 20
9.380283841059066
 30
0.0
 10
1.5755149144767062
 20
9.24974506333507
 30
0.0
 10
1.5025032771778981
 20
9.12766313851181
 30
0.0
 10
1.4419262875200771
 20
9.016009272529086
 30
0.0
 10
1.3927697611182817
 20
8.91558723997618
 30
0.0
 10
1.3539750050131927
 20
8.827133657892904
 30
0.0
 10
1.3244426835743779
 20
8.75131571028619
 30
0.0
 10
1.3239926841548644
 20
8.750000000000004
 30
0.0
 10
1.3056076613762069
 20
8.70296080093202
 30
0.0
 10
1.2862788044893758
 20
8.672783636628715
 30
0.0
 10
1.2673843057757956
 20
8.659436872980278
 30
0.0
 10
0.925947281599741
 20
8.702570400023024
 30
0.0
 10
0.9109655934526956
 20
8.720196721301418
 30
0.0
 10
0.8997487437325365
 20
8.7542327057343
 30
0.0
 10
0.8936394933625856
 20
8.804366251105094
 30
0.0
 10
0.8935308353440597
 20
8.805752536235428
 30
0.0
 10
0.8837814829256074
 20
8.886532913287141
 30
0.0
 10
0.8682030467699747
 20
8.98185542695342
 30
0.0
 10
0.8455648069820578
 20
9.091347247694735
 30
0.0
 10
0.814658142180224
 20
9.214558186883224
 30
0.0
 10
0.774300839835382
 20
9.350961939386593
 30
0.0
 10
0.7237682229786816
 20
9.498709426903973
 30
0.0
 10
0.5986029528461225
 20
9.514521477682857
 30
0.0
 10
0.4724428728002079
 20
9.514521477682857
 30
0.0
 10
0.40379105035931884
 20
9.37427243950589
 30
0.0
 10
0.346656054025984
 20
9.244002382533484
 30
0.0
 10
0.30055067208865494
 20
9.12563663064002
 30
0.0
 10
0.26436797764083564
 20
9.019845509403677
 30
0.0
 10
0.23696530323790987
 20
8.927227138006941
 30
0.0
 10
0.2171683615102753
 20
8.848305656222243
 30
0.0
 10
0.2168868126951946
 20
8.846943920822298
 30
0.0
 10
0.20454233623595255
 20
8.797971385534888
 30
0.0
 10
0.18914809474085828
 20
8.765609629050868
 30
0.0
 10
0.17207537783882523
 20
8.749999999999934
 30
0.0
 10
-0.17207537783860608
 20
8.750000000000032
 30
0.0
 10
-0.18914809474146324
 20
8.765609629050696
 30
0.0
 10
-0.20454233623778575
 20
8.797971385534439
 30
0.0
 10
-0.21688681269518906
 20
8.846943920822298
 30
0.0
 10
-0.2171683615108112
 20
8.848305656219502
 30
0.0
 10
-0.23696530323788867
 20
8.927227138006472
 30
0.0
 10
-0.2643679776406532
 20
9.019845509403776
 30
0.0
 10
-0.30055067208847963
 20
9.125636630640098
 30
0.0
 10
-0.3466560540259661
 20
9.244002382533463
 30
0.0
 10
-0.40379105035922963
 20
9.374272439505706
 30
0.0
 10
-0.4724428728002085
 20
9.514521477682857
 30
0.0
 10
-0.5986029528461164
 20
9.514521477682857
 30
0.0
 10
-0.7237682229786787
 20
9.498709426903964
 30
0.0
 10
-0.7743008398353144
 20
9.350961939386789
 30
0.0
 10
-0.8146581421802068
 20
9.214558186883247
 30
0.0
 10
-0.8455648069818719
 20
9.091347247694676
 30
0.0
 10
-0.868203046769779
 20
8.981855426953345
 30
0.0
 10
-0.8837814829256431
 20
8.886532913287612
 30
0.0
 10
-0.8935308353449329
 20
8.80575253623808
 30
0.0
 10
-0.8936394933625779
 20
8.804366251105094
 30
0.0
 10
-0.8997487437344098
 20
8.75423270573452
 30
0.0
 10
-0.9109655934533153
 20
8.720196721301514
 30
0.0
 10
-0.9259472815995096
 20
8.702570400022957
 30
0.0
 10
-1.2673843057755882
 20
8.6594368729804
 30
0.0
 10
-1.2862788044899522
 20
8.672783636628468
 30
0.0
 10
-1.3056076613779668
 20
8.702960800931343
 30
0.0
 10
-1.3239926841548568
 20
8.750000000000007
 30
0.0
 10
-1.3244426835745635
 20
8.751315710283404
 30
0.0
 10
-1.3539750050131103
 20
8.82713365789244
 30
0.0
 10
-1.3927697611181111
 20
8.915587239976304
 30
0.0
 10
-1.441926287519911
 20
9.016009272529185
 30
0.0
 10
-1.5025032771778757
 20
9.12766313851179
 30
0.0
 10
-1.5755149144765928
 20
9.249745063334897
 30
0.0
 10
-1.6612032622513455
 20
9.380283841059061
 30
0.0
 10
-1.7863685323839067
 20
9.364471790280177
 30
0.0
 10
-1.9085650615230176
 20
9.333097054208835
 30
0.0
 10
-1.9401815432408476
 20
9.180181183489658
 30
0.0
 10
-1.9631246928310349
 20
9.039794904115617
 30
0.0
 10
-1.9783452239303672
 20
8.91368188774559
 30
0.0
 10
-1.9870819904934776
 20
8.8022161189196
 30
0.0
 10
-1.990590507157995
 20
8.705692755968288
 30
0.0
 10
-1.9901385171573072
 20
8.624327438455854
 30
0.0
 10
-1.990072570775669
 20
8.6229384661345
 30
0.0
 10
-1.9898502485322376
 20
8.572434546639583
 30
0.0
 10
-1.996712810054266
 20
8.53726110206421
 30
0.0
 10
-2.0093671992729294
 20
8.517896066174046
 30
0.0
 10
-2.342705826111807
 20
8.43230925357702
 30
0.0
 10
-2.363124129105926
 20
8.44318266538679
 30
0.0
 10
-2.3860827737660095
 20
8.470699325600778
 30
0.0
 10
-2.410218400070514
 20
8.515063352181077
 30
0.0
 10
-2.41082975333464
 20
8.516312287813534
 30
0.0
 10
-2.4496317121338165
 20
8.587831006919396
 30
0.0
 10
-2.4992067334624135
 20
8.670724833860744
 30
0.0
 10
-2.560561864032145
 20
8.764194062287613
 30
0.0
 10
-2.6346551260967424
 20
8.867375194194128
 30
0.0
 10
-2.722391967225674
 20
8.979343681985426
 30
0.0
 10
-2.8237654839020503
 20
9.098113524751778
 30
0.0
 10
-2.9459620130411595
 20
9.06673878868045
 30
0.0
 10
-3.063262688925638
 20
9.020296165646904
 30
0.0
 10
-3.0754644247011975
 20
8.864623486354473
 30
0.0
 10
-3.0806315943620692
 20
8.722468655598357
 30
0.0
 10
-3.0799259548913276
 20
8.595442439651297
 30
0.0
 10
-3.07462346420185
 20
8.48376060450146
 30
0.0
 10
-3.0660067299713356
 20
8.38755862335857
 30
0.0
 10
-3.0553605257029863
 20
8.30689154504569
 30
0.0
 10
-3.0551210149358976
 20
8.305521790459206
 30
0.0
 10
-3.0485706262317906
 20
8.255443973819958
 30
0.0
 10
-3.050970672862244
 20
8.219687775334773
 30
0.0
 10
-3.061098195876032
 20
8.198889423017103
 30
0.0
 10
-3.3810814761056163
 20
8.072199080027344
 30
0.0
 10
-3.4027015745439697
 20
8.080427659799115
 30
0.0
 10
-3.4289279354350035
 20
8.104849861754987
 30
0.0
 10
-3.4584335320223762
 20
8.145839068645962
 30
0.0
 10
-3.4591965977247416
 20
8.147001533166474
 30
0.0
 10
-3.506656263815118
 20
8.213093130845651
 30
0.0
 10
-3.5662297226662774
 20
8.289119917475249
 30
0.0
 10
-3.638815850343077
 20
8.374162276208002
 30
0.0
 10
-3.725256889810379
 20
8.46724344595084
 30
0.0
 10
-3.826335272373474
 20
8.567332686771135
 30
0.0
 10
-3.941795237035887
 20
8.67246052320961
 30
0.0
 10
-4.059095912920356
 20
8.626017900176043
 30
0.0
 10
-4.16965083381947
 20
8.565239818088978
 30
0.0
 10
-4.162245394990616
 20
8.409265381370089
 30
0.0
 10
-4.149555095369902
 20
8.267583865832101
 30
0.0
 10
-4.132934413685069
 20
8.141647729615274
 30
0.0
 10
-4.113676289188731
 20
8.0315111173974
 30
0.0
 10
-4.093070195109386
 20
7.937147680773834
 30
0.0
 10
-4.0723976735744225
 20
7.858451009673678
 30
0.0
 10
-4.071988375649757
 20
7.857122074670149
 30
0.0
 10
-4.059213224027851
 20
7.808260117970008
 30
0.0
 10
-4.0571129055976485
 20
7.772485062184837
 30
0.0
 10
-4.064553845318745
 20
7.750581395880044
 30
0.0
 10
-4.366135451461068
 20
7.584785504887644
 30
0.0
 10
-4.388616383476063
 20
7.590239483002899
 30
0.0
 10
-4.417696855219926
 20
7.611182073986693
 30
0.0
 10
-4.452107101206195
 20
7.648150036909912
 30
0.0
 10
-4.45300984534484
 20
7.649207697558568
 30
0.0
 10
-4.508378751441142
 20
7.708829869834453
 30
0.0
 10
-4.577011138781321
 20
7.776790628310949
 30
0.0
 10
-4.659683536970875
 20
7.852064948550529
 30
0.0
 10
-4.757109127011109
 20
7.933578210478851
 30
0.0
 10
-4.869934984534047
 20
8.020209737209985
 30
0.0
 10
-4.997660524567341
 20
8.110037638539637
 30
0.0
 10
-5.108215445466439
 20
8.049259556452554
 30
0.0
 10
-5.210281094235281
 20
7.9751045219735195
 30
0.0
 10
-5.183385268996148
 20
7.821288137869858
 30
0.0
 10
-5.153037633699686
 20
7.682314339686469
 30
0.0
 10
-5.120764027879646
 20
7.559454371298614
 30
0.0
 10
-5.087853981704
 20
7.452599902179799
 30
0.0
 10
-5.055583498188941
 20
7.361563177841098
 30
0.0
 10
-5.025210677401134
 20
7.286078007468027
 30
0.0
 10
-5.024638047191667
 20
7.284810850146323
 30
0.0
 10
-5.005839604424544
 20
7.23793533563117
 30
0.0
 10
-4.99927204421
 20
7.202705616546728
 30
0.0
 10
-5.003909052574001
 20
7.180042070157055
 30
0.0
 10
-5.282332862544081
 20
6.977755331404628
 30
0.0
 10
-5.305320090408382
 20
6.980348695370442
 30
0.0
 10
-5.336796056593842
 20
6.997481398211845
 30
0.0
 10
-5.37556828184412
 20
7.0298451103084165
 30
0.0
 10
-5.376596467604705
 20
7.030781287144974
 30
0.0
 10
-5.439001412982011
 20
7.082993756744216
 30
0.0
 10
-5.5156103550638536
 20
7.141816705308648
 30
0.0
 10
-5.607065230660617
 20
7.206135866058176
 30
0.0
 10
-5.713938911519621
 20
7.27479570733771
 30
0.0
 10
-5.836732912830366
 20
7.346603289051971
 30
0.0
 10
-5.974709720168658
 20
7.4197146156082106
 30
0.0
 10
-6.076775368937504
 20
7.3455595811291845
 30
0.0
 10
-6.168742109323953
 20
7.259197063450027
 30
0.0
 10
-6.1227800609053435
 20
7.109964508224352
 30
0.0
 10
-6.075253690270556
 20
6.975890127211837
 30
0.0
 10
-6.027836134358406
 20
6.85804390174742
 30
0.0
 10
-5.981793177591151
 20
6.756156734537433
 30
0.0
 10
-5.938367229442865
 20
6.669882426009121
 30
0.0
 10
-5.898773106929882
 20
6.598799202592574
 30
0.0
 10
-5.898046175156089
 20
6.597613806780623
 30
0.0
 10
-5.873520903915834
 20
6.553463989316436
 30
0.0
 10
-5.862589676264801
 20
6.519335200647899
 30
0.0
 10
-5.864349624879792
 20
6.496269191838456
 30
0.0
 10
-6.115224728872078
 20
6.260681788036369
 30
0.0
 10
-6.138355730270361
 20
6.2603736389538
 30
0.0
 10
-6.171730796107843
 20
6.273426260694424
 30
0.0
 10
-6.214253539468527
 20
6.300675326891441
 30
0.0
 10
-6.2153909517474
 20
6.30147525584794
 30
0.0
 10
-6.283847773138203
 20
6.345454600934741
 30
0.0
 10
-6.367225101181115
 20
6.394212066549122
 30
0.0
 10
-6.466020156164432
 20
6.446561716221175
 30
0.0
 10
-6.580656466051816
 20
6.501285330139541
 30
0.0
 10
-6.711482076396118
 20
6.557136518377525
 30
0.0
 10
-6.857534174364349
 20
6.612378260865993
 30
0.0
 10
-6.949500914750789
 20
6.526015743186837
 30
0.0
 10
-7.029918376320664
 20
6.428807730801802
 30
0.0
 10
-6.96561495368254
 20
6.2865124909972305
 30
0.0
 10
-6.901659366965214
 20
6.159451960236308
 30
0.0
 10
-6.839845664143566
 20
6.048477983068826
 30
0.0
 10
-6.781395921717651
 20
5.953164939259013
 30
0.0
 10
-6.727499362079838
 20
5.873013643924353
 30
0.0
 10
-6.6793083608060915
 20
5.807453392360669
 30
0.0
 10
-6.678438591616294
 20
5.806368452458545
 30
0.0
 10
-6.648573270081051
 20
5.765640601040558
 30
0.0
 10
-6.633450766983586
 20
5.733150974172779
 30
0.0
 10
-6.632305900408567
 20
5.710046267681458
 30
0.0
 10
-6.851675848167576
 20
5.444873552920763
 30
0.0
 10
-6.874585833390001
 20
5.441668750484922
 30
0.0
 10
-6.90933365415395
 20
5.450435443482659
 30
0.0
 10
-6.954936306560387
 20
5.472140129728391
 30
0.0
 10
-6.956165007686452
 20
5.472791195447334
 30
0.0
 10
-7.029594100123297
 20
5.50784383547769
 30
0.0
 10
-7.11842490385684
 20
5.545766883782981
 30
0.0
 10
-7.223002081192317
 20
5.585321437130066
 30
0.0
 10
-7.343593137020747
 20
5.625245799605468
 30
0.0
 10
-7.480387158372043
 20
5.664259787764778
 30
0.0
 10
-7.632211218137951
 20
5.700760750906608
 30
0.0
 10
-7.7126286797078345
 20
5.603552738521575
 30
0.0
 10
-7.780228631053127
 20
5.497032259855237
 30
0.0
 10
-7.6985979375834885
 20
5.36391841640654
 30
0.0
 10
-7.619221752591374
 20
5.245875556369595
 30
0.0
 10
-7.543986741879441
 20
5.143523953411617
 30
0.0
 10
-7.474052001149106
 20
5.056288176640113
 30
0.0
 10
-7.410534810963498
 20
4.983523928306597
 30
0.0
 10
-7.354506931806984
 20
4.92452057292673
 30
0.0
 10
-7.353508041980879
 20
4.923553199084803
 30
0.0
 10
-7.318773664111937
 20
4.8868896162595155
 30
0.0
 10
-7.299698376475632
 20
4.856551532016562
 30
0.0
 10
-7.295666749940401
 20
4.833772502866812
 30
0.0
 10
-7.4800719463447205
 20
4.5431964092657875
 30
0.0
 10
-7.502399611238566
 20
4.537145495125544
 30
0.0
 10
-7.5379721930381915
 20
4.541488003394851
 30
0.0
 10
-7.58593557342023
 20
4.557306013821453
 30
0.0
 10
-7.5872361860427375
 20
4.557797948607524
 30
0.0
 10
-7.664479528873481
 20
4.583371082508722
 30
0.0
 10
-7.757362893457828
 20
4.609861644379021
 30
0.0
 10
-7.866072948587508
 20
4.635997302466107
 30
0.0
 10
-7.9907169573689645
 20
4.660492782452652
 30
0.0
 10
-8.131322066293757
 20
4.68205429663419
 30
0.0
 10
-8.286523731739548
 20
4.699238838436019
 30
0.0
 10
-8.354123683084842
 20
4.592718359769691
 30
0.0
 10
-8.40784003259058
 20
4.478565306402864
 30
0.0
 10
-8.31016943308925
 20
4.356732144139582
 30
0.0
 10
-8.216624459676709
 20
4.24956856124478
 30
0.0
 10
-8.129154642136633
 20
4.1574534784168415
 30
0.0
 10
-8.048837815740185
 20
4.079670728995457
 30
0.0
 10
-7.9767016990393405
 20
4.015441063326559
 30
0.0
 10
-7.913720535123789
 20
3.9639251222917475
 30
0.0
 10
-7.912608277750642
 20
3.9630905705733848
 30
0.0
 10
-7.873552625436307
 20
3.931069462943715
 30
0.0
 10
-7.850825381942212
 20
3.903361371037191
 30
0.0
 10
-7.843970576605606
 20
3.8812672581262375
 30
0.0
 10
-7.990502841549613
 20
3.569870344262715
 30
0.0
 10
-8.011896065501604
 20
3.561068744948702
 30
0.0
 10
-8.047732407471898
 20
3.560918584540083
 30
0.0
 10
-8.097300104668975
 20
3.570600459673905
 30
0.0
 10
-8.098652117349921
 20
3.570925505421661
 30
0.0
 10
-8.178491536915187
 20
3.58661582959543
 30
0.0
 10
-8.27396263620501
 20
3.601256133045345
 30
0.0
 10
-8.385091146619258
 20
3.6135607209317158
 30
0.0
 10
-8.511822397876534
 20
3.6222410100771234
 30
0.0
 10
-8.65402116781366
 20
3.6260100123220234
 30
0.0
 10
-8.810152815962264
 20
3.623607122294084
 30
0.0
 10
-8.863869165468003
 20
3.5094540689272686
 30
0.0
 10
-8.902854774213878
 20
3.389468702703277
 30
0.0
 10
-8.790684592380604
 20
3.280837603373912
 30
0.0
 10
-8.684446090659405
 20
3.1862433313399277
 30
0.0
 10
-8.586120917565733
 20
3.105817478525105
 30
0.0
 10
-8.49668864983439
 20
3.0387144368773793
 30
0.0
 10
-8.417071236270708
 20
2.9840322940696407
 30
0.0
 10
-8.348130038174192
 20
2.940816204544134
 30
0.0
 10
-8.346921954217208
 20
2.9401276363284707
 30
0.0
 10
-8.304160958425193
 20
2.9132539958902206
 30
0.0
 10
-8.278140181279804
 20
2.8886128694815043
 30
0.0
 10
-8.268570301516844
 20
2.8675521101683357
 30
0.0
 10
-8.374918733648242
 20
2.5402452913934437
 30
0.0
 10
-8.395040132736963
 20
2.528831813384663
 30
0.0
 10
-8.430575074357458
 20
2.524191352417464
 30
0.0
 10
-8.48096537617447
 20
2.527584403303974
 30
0.0
 10
-8.482347466866225
 20
2.527737433847799
 30
0.0
 10
-8.563523847825708
 20
2.5332975025089732
 30
0.0
 10
-8.660077045553537
 20
2.5358566612074074
 30
0.0
 10
-8.771871448258166
 20
2.5341361281916894
 30
0.0
 10
-8.898691314453357
 20
2.5268643331507845
 30
0.0
 10
-9.04024118585548
 20
2.5127813840421505
 30
0.0
 10
-9.194840527347056
 20
2.490828957195598
 30
0.0
 10
-9.233826136092947
 20
2.370843590971615
 30
0.0
 10
-9.25746617774018
 20
2.2469181527916016
 30
0.0
 10
-9.13256540434968
 20
2.1532022937256454
 30
0.0
 10
-9.015308818955775
 20
2.072669140730333
 30
0.0
 10
-8.907678937024805
 20
2.0052008816715934
 30
0.0
 10
-8.810541628244938
 20
1.9498358028497247
 30
0.0
 10
-8.724698531991454
 20
1.9055635529607524
 30
0.0
 10
-8.65088454359143
 20
1.871328858492408
 30
0.0
 10
-8.649599685256286
 20
1.8707971329115365
 30
0.0
 10
-8.603807712434412
 20
1.8494947730279525
 30
0.0
 10
-8.574903764837371
 20
1.8283092174004039
 30
0.0
 10
-8.562769733368688
 20
1.8086139524404774
 30
0.0
 10
-8.62725715438329
 20
1.4705590528099108
 30
0.0
 10
-8.64578940212517
 20
1.456713693472643
 30
0.0
 10
-8.680462536138968
 20
1.4476561147883937
 30
0.0
 10
-8.730880757414553
 20
1.444706830988201
 30
0.0
 10
-8.732271129721283
 20
1.4446854329450032
 30
0.0
 10
-8.813504272054837
 20
1.440027560489372
 30
0.0
 10
-8.909616866614419
 20
1.4304652149748827
 30
0.0
 10
-9.020314097096039
 20
1.4147466948905312
 30
0.0
 10
-9.145222553180728
 20
1.3916374962150673
 30
0.0
 10
-9.283891200018042
 20
1.3599246922730885
 30
0.0
 10
-9.4345201108841
 20
1.3187689314930404
 30
0.0
 10
-9.458160152531342
 20
1.1948434933130339
 30
0.0
 10
-9.466081809501302
 20
1.0689323613665642
 30
0.0
 10
-9.330420204362028
 20
0.9916096976446266
 30
0.0
 10
-9.203994741692767
 20
0.9264077196188965
 30
0.0
 10
-9.088757538457523
 20
0.8729610690651796
 30
0.0
 10
-8.985447102015605
 20
0.830207093435684
 30
0.0
 10
-8.89473211998042
 20
0.7970429362931871
 30
0.0
 10
-8.817209431968296
 20
0.7723295384645863
 30
0.0
 10
-8.815868062238474
 20
0.7719630411485544
 30
0.0
 10
-8.767767279152938
 20
0.7565679127604132
 30
0.0
 10
-8.736435993624236
 20
0.7391720367819168
 30
0.0
 10
-8.721929171374608
 20
0.7211528722690307
 30
0.0
 10
-8.743538576120097
 20
0.37768121949417255
 30
0.0
 10
-8.760189407897618
 20
0.3616223284159831
 30
0.0
 10
-8.793453918268593
 20
0.3482904754412689
 30
0.0
 10
-8.843104933534851
 20
0.3390453689217192
 30
0.0
 10
-8.844481660454713
 20
0.3388498797514229
 30
0.0
 10
-8.924490468981409
 20
0.3240475236100897
 30
0.0
 10
-9.018646707341658
 20
0.3025144777837091
 30
0.0
 10
-9.126501004148253
 20
0.2730458610822423
 30
0.0
 10
-9.247528169153291
 20
0.234463704640099
 30
0.0
 10
-9.381128704028535
 20
0.18562117572725112
 30
0.0
 10
-9.5254116763634
 20
0.12591113194647247
 30
0.0
 10
-9.533333333333342
 20
2.1094237467877974e-15
 30
0.0
 10
-9.525411676363388
 20
-0.12591113194647113
 30
0.0
 10
-9.381128704028725
 20
-0.18562117572717243
 30
0.0
 10
-9.247528169153314
 20
-0.23446370464008115
 30
0.0
 10
-9.126501004148185
 20
-0.2730458610820613
 30
0.0
 10
-9.01864670734157
 20
-0.3025144777835196
 30
0.0
 10
-8.92449046898188
 20
-0.3240475236100967
 30
0.0
 10
-8.844481660457417
 20
-0.33884987975212866
 30
0.0
 10
-8.843104933534851
 20
-0.33904536892171233
 30
0.0
 10
-8.793453918268929
 20
-0.34829047544312564
 30
0.0
 10
-8.760189407897753
 20
-0.3616223284165967
 30
0.0
 10
-8.743538576120015
 20
-0.3776812194939465
 30
0.0
 10
-8.721929171374718
 20
-0.721152872268817
 30
0.0
 10
-8.736435993624026
 20
-0.7391720367825086
 30
0.0
 10
-8.767767279152373
 20
-0.7565679127622132
 30
0.0
 10
-8.815868062238476
 20
-0.7719630411485476
 30
0.0
 10
-8.817209431965527
 20
-0.7723295384649478
 30
0.0
 10
-8.894732119979954
 20
-0.7970429362931353
 30
0.0
 10
-8.985447102015717
 20
-0.830207093435507
 30
0.0
 10
-9.088757538457612
 20
-0.8729610690650084
 30
0.0
 10
-9.203994741692748
 20
-0.9264077196188761
 30
0.0
 10
-9.33042020436185
 20
-0.9916096976445247
 30
0.0
 10
-9.466081809501294
 20
-1.068932361366563
 30
0.0
 10
-9.45816015253135
 20
-1.1948434933130343
 30
0.0
 10
-9.434520110884112
 20
-1.3187689314930466
 30
0.0
 10
-9.283891200018239
 20
-1.359924692273039
 30
0.0
 10
-9.145222553180753
 20
-1.3916374962150573
 30
0.0
 10
-9.020314097095994
 20
-1.414746694890347
 30
0.0
 10
-8.909616866614353
 20
-1.4304652149746877
 30
0.0
 10
-8.813504272055301
 20
-1.4400275604894421
 30
0.0
 10
-8.732271129723877
 20
-1.4446854329460463
 30
0.0
 10
-8.730880757414553
 20
-1.4447068309881979
 30
0.0
 10
-8.680462536139068
 20
-1.4476561147902818
 30
0.0
 10
-8.645789402125226
 20
-1.4567136934732723
 30
0.0
 10
-8.627257154383235
 20
-1.47055905280968
 30
0.0
 10
-8.562769733368823
 20
-1.8086139524402827
 30
0.0
 10
-8.574903764837089
 20
-1.828309217400969
 30
0.0
 10
-8.603807712433623
 20
-1.8494947730296716
 30
0.0
 10
-8.649599685256288
 20
-1.8707971329115343
 30
0.0
 10
-8.650884543588637
 20
-1.8713288584924235
 30
0.0
 10
-8.724698531990997
 20
-1.905563552960646
 30
0.0
 10
-8.810541628245067
 20
-1.949835802849567
 30
0.0
 10
-8.907678937024913
 20
-2.0052008816714384
 30
0.0
 10
-9.015308818955758
 20
-2.0726691407303144
 30
0.0
 10
-9.132565404349515
 20
-2.153202293725526
 30
0.0
 10
-9.2574661777402
 20
-2.2469181527916082
 30
0.0
 10
-9.23382613609296
 20
-2.370843590971611
 30
0.0
 10
-9.194840527347065
 20
-2.4908289571955957
 30
0.0
 10
-9.040241185855685
 20
-2.512781384042117
 30
0.0
 10
-8.898691314453384
 20
-2.5268643331507685
 30
0.0
 10
-8.771871448258148
 20
-2.534136128191493
 30
0.0
 10
-8.660077045553502
 20
-2.5358566612071978
 30
0.0
 10
-8.563523847826165
 20
-2.5332975025090927
 30
0.0
 10
-8.482347466868667
 20
-2.5277374338491505
 30
0.0
 10
-8.480965376174472
 20
-2.527584403303963
 30
0.0
 10
-8.430575074357323
 20
-2.524191352419342
 30
0.0
 10
-8.395040132736941
 20
-2.5288318133852865
 30
0.0
 10
-8.37491873364822
 20
-2.5402452913931994
 30
0.0
 10
-8.268570301517006
 20
-2.8675521101681523
 30
0.0
 10
-8.278140181279456
 20
-2.8886128694820212
 30
0.0
 10
-8.3041609584242
 20
-2.9132539958918198
 30
0.0
 10
-8.346921954217214
 20
-2.940127636328461
 30
0.0
 10
-8.348130038171421
 20
-2.940816204543791
 30
0.0
 10
-8.417071236270269
 20
-2.98403229406947
 30
0.0
 10
-8.496688649834544
 20
-3.0387144368772314
 30
0.0
 10
-8.586120917565864
 20
-3.105817478524957
 30
0.0
 10
-8.684446090659392
 20
-3.186243331339899
 30
0.0
 10
-8.790684592380456
 20
-3.2808376033737643
 30
0.0
 10
-8.902854774213893
 20
-3.389468702703277
 30
0.0
 10
-8.863869165468
 20
-3.5094540689272673
 30
0.0
 10
-8.81015281596225
 20
-3.6236071222940858
 30
0.0
 10
-8.654021167813864
 20
-3.6260100123220274
 30
0.0
 10
-8.51182239787656
 20
-3.622241010077123
 30
0.0
 10
-8.38509114661926
 20
-3.6135607209315297
 30
0.0
 10
-8.273962636204995
 20
-3.601256133045144
 30
0.0
 10
-8.178491536915619
 20
-3.586615829595616
 30
0.0
 10
-8.098652117352172
 20
-3.570925505423319
 30
0.0
 10
-8.097300104668975
 20
-3.570600459673905
 30
0.0
 10
-8.047732407471523
 20
-3.5609185845419393
 30
0.0
 10
-8.011896065501501
 20
-3.561068744949328
 30
0.0
 10
-7.990502841549618
 20
-3.569870344262481
 30
0.0
 10
-7.843970576605783
 20
-3.8812672581260856
 30
0.0
 10
-7.850825381941796
 20
-3.903361371037671
 30
0.0
 10
-7.873552625435117
 20
-3.9310694629451874
 30
0.0
 10
-7.912608277750644
 20
-3.9630905705733857
 30
0.0
 10
-7.913720535121078
 20
-3.963925122291071
 30
0.0
 10
-7.976701699038923
 20
-4.015441063326346
 30
0.0
 10
-8.048837815740352
 20
-4.079670728995341
 30
0.0
 10
-8.129154642136777
 20
-4.1574534784167225
 30
0.0
 10
-8.216624459676694
 20
-4.249568561244762
 30
0.0
 10
-8.31016943308912
 20
-4.35673214413943
 30
0.0
 10
-8.407840032590569
 20
-4.478565306402868
 30
0.0
 10
-8.35412368308483
 20
-4.59271835976968
 30
0.0
 10
-8.286523731739535
 20
-4.699238838436016
 30
0.0
 10
-8.131322066293961
 20
-4.682054296634218
 30
0.0
 10
-7.990716957368992
 20
-4.660492782452651
 30
0.0
 10
-7.866072948587536
 20
-4.6359973024659205
 30
0.0
 10
-7.7573628934578425
 20
-4.6098616443788165
 30
0.0
 10
-7.664479528873889
 20
-4.583371082508958
 30
0.0
 10
-7.587236186044765
 20
-4.557797948609449
 30
0.0
 10
-7.5859355734202305
 20
-4.55730601382145
 30
0.0
 10
-7.537972193037591
 20
-4.541488003396644
 30
0.0
 10
-7.5023996112383875
 20
-4.5371454951261505
 30
0.0
 10
-7.480071946344756
 20
-4.543196409265554
 30
0.0
 10
-7.2956667499406
 20
-4.833772502866682
 30
0.0
 10
-7.299698376475162
 20
-4.856551532016984
 30
0.0
 10
-7.318773664110574
 20
-4.886889616260825
 30
0.0
 10
-7.353508041980883
 20
-4.923553199084803
 30
0.0
 10
-7.354506931804381
 20
-4.924520572925717
 30
0.0
 10
-7.410534810963113
 20
-4.9835239283063295
 30
0.0
 10
-7.474052001149288
 20
-5.056288176640016
 30
0.0
 10
-7.543986741879601
 20
-5.143523953411515
 30
0.0
 10
-7.619221752591366
 20
-5.245875556369572
 30
0.0
 10
-7.69859793758338
 20
-5.36391841640637
 30
0.0
 10
-7.780228631053134
 20
-5.497032259855247
 30
0.0
 10
-7.712628679707838
 20
-5.603552738521585
 30
0.0
 10
-7.632211218137953
 20
-5.700760750906613
 30
0.0
 10
-7.480387158372242
 20
-5.664259787764831
 30
0.0
 10
-7.3435931370207745
 20
-5.62524579960547
 30
0.0
 10
-7.223002081192368
 20
-5.585321437129882
 30
0.0
 10
-7.118424903856879
 20
-5.545766883782779
 30
0.0
 10
-7.029594100123671
 20
-5.507843835477974
 30
0.0
 10
-6.956165007688222
 20
-5.472791195449496
 30
0.0
 10
-6.954936306560389
 20
-5.472140129728388
 30
0.0
 10
-6.909333654153128
 20
-5.45043544348436
 30
0.0
 10
-6.874585833389747
 20
-5.4416687504854995
 30
0.0
 10
-6.85167584816764
 20
-5.444873552920534
 30
0.0
 10
-6.632305900408781
 20
-5.710046267681351
 30
0.0
 10
-6.633450766983067
 20
-5.733150974173137
 30
0.0
 10
-6.648573270079535
 20
-5.765640601041684
 30
0.0
 10
-6.678438591616298
 20
-5.8063684524585435
 30
0.0
 10
-6.679308360803637
 20
-5.807453392359336
 30
0.0
 10
-6.727499362079489
 20
-5.873013643924039
 30
0.0
 10
-6.781395921717844
 20
-5.953164939258937
 30
0.0
 10
-6.839845664143738
 20
-6.048477983068742
 30
0.0
 10
-6.901659366965209
 20
-6.159451960236282
 30
0.0
 10
-6.965614953682453
 20
-6.286512490997045
 30
0.0
 10
-7.029918376320668
 20
-6.4288077308018075
 30
0.0
 10
-6.949500914750791
 20
-6.526015743186833
 30
0.0
 10
-6.857534174364348
 20
-6.612378260865999
 30
0.0
 10
-6.711482076396308
 20
-6.5571365183776
 30
0.0
 10
-6.580656466051843
 20
-6.501285330139546
 30
0.0
 10
-6.466020156164504
 20
-6.446561716221
 30
0.0
 10
-6.3672251011811785
 20
-6.394212066548927
 30
0.0
 10
-6.283847773138539
 20
-6.345454600935071
 30
0.0
 10
-6.215390951748884
 20
-6.301475255850307
 30
0.0
 10
-6.214253539468529
 20
-6.3006753268914375
 30
0.0
 10
-6.1717307961068135
 20
-6.273426260696009
 30
0.0
 10
-6.138355730270036
 20
-6.2603736389543405
 30
0.0
 10
-6.115224728872169
 20
-6.260681788036151
 30
0.0
 10
-5.864349624880017
 20
-6.496269191838378
 30
0.0
 10
-5.86258967626424
 20
-6.5193352006481895
 30
0.0
 10
-5.873520903914187
 20
-6.553463989317363
 30
0.0
 10
-5.898046175156092
 20
-6.597613806780622
 30
0.0
 10
-5.898773106927612
 20
-6.598799202590944
 30
0.0
 10
-5.938367229442557
 20
-6.669882426008765
 30
0.0
 10
-5.981793177591351
 20
-6.756156734537383
 30
0.0
 10
-6.027836134358586
 20
-6.858043901747359
 30
0.0
 10
-6.075253690270552
 20
-6.975890127211811
 30
0.0
 10
-6.122780060905281
 20
-7.1099645082241585
 30
0.0
 10
-6.168742109323953
 20
-7.259197063450033
 30
0.0
 10
-6.0767753689375095
 20
-7.345559581129193
 30
0.0
 10
-5.974709720168656
 20
-7.419714615608216
 30
0.0
 10
-5.836732912830544
 20
-7.346603289052069
 30
0.0
 10
-5.713938911519644
 20
-7.274795707337718
 30
0.0
 10
-5.6070652306607105
 20
-7.20613586605801
 30
0.0
 10
-5.515610355063941
 20
-7.141816705308461
 30
0.0
 10
-5.439001412982303
 20
-7.0829937567445835
 30
0.0
 10
-5.376596467605881
 20
-7.030781287147508
 30
0.0
 10
-5.375568281844122
 20
-7.029845110308414
 30
0.0
 10
-5.336796056592624
 20
-6.997481398213289
 30
0.0
 10
-5.305320090407992
 20
-6.980348695370938
 30
0.0
 10
-5.2823328625442
 20
-6.977755331404422
 30
0.0
 10
-5.003909052574234
 20
-7.180042070157005
 30
0.0
 10
-4.999272044209407
 20
-7.202705616546946
 30
0.0
 10
-5.005839604422794
 20
-7.237935335631883
 30
0.0
 10
-5.02463804719167
 20
-7.2848108501463225
 30
0.0
 10
-5.025210677399086
 20
-7.286078007466124
 30
0.0
 10
-5.055583498188679
 20
-7.361563177840706
 30
0.0
 10
-5.087853981704202
 20
-7.452599902179774
 30
0.0
 10
-5.120764027879829
 20
-7.559454371298576
 30
0.0
 10
-5.153037633699684
 20
-7.682314339686442
 30
0.0
 10
-5.183385268996109
 20
-7.821288137869657
 30
0.0
 10
-5.210281094235281
 20
-7.975104521973527
 30
0.0
 10
-5.108215445466435
 20
-8.049259556452553
 30
0.0
 10
-4.997660524567334
 20
-8.11003763853964
 30
0.0
 10
-4.869934984534208
 20
-8.020209737210108
 30
0.0
 10
-4.757109127011128
 20
-7.9335782104788635
 30
0.0
 10
-4.659683536970984
 20
-7.852064948550377
 30
0.0
 10
-4.577011138781425
 20
-7.776790628310777
 30
0.0
 10
-4.50837875144138
 20
-7.708829869834857
 30
0.0
 10
-4.453009845345685
 20
-7.649207697561231
 30
0.0
 10
-4.452107101206193
 20
-7.648150036909911
 30
0.0
 10
-4.41769685521853
 20
-7.611182073987973
 30
0.0
 10
-4.388616383475609
 20
-7.590239483003344
 30
0.0
 10
-4.366135451461207
 20
-7.584785504887456
 30
0.0
 10
-4.064553845318977
 20
-7.750581395880026
 30
0.0
 10
-4.0571129055970285
 20
-7.77248506218498
 30
0.0
 10
-4.059213224026021
 20
-7.808260117970498
 30
0.0
 10
-4.071988375649756
 20
-7.857122074670149
 30
0.0
 10
-4.072397673572625
 20
-7.858451009671537
 30
0.0
 10
-4.0930701951091715
 20
-7.937147680773416
 30
0.0
 10
-4.1136762891889305
 20
-8.031511117397402
 30
0.0
 10
-4.132934413685253
 20
-8.141647729615261
 30
0.0
 10
-4.1495550953699
 20
-8.267583865832078
 30
0.0
 10
-4.162245394990598
 20
-8.409265381369886
 30
0.0
 10
-4.169650833819456
 20
-8.565239818088969
 30
0.0
 10
-4.059095912920361
 20
-8.626017900176048
 30
0.0
 10
-3.941795237035889
 20
-8.672460523209613
 30
0.0
 10
-3.8263352723736257
 20
-8.567332686771271
 30
0.0
 10
-3.725256889810405
 20
-8.467243445950855
 30
0.0
 10
-3.6388158503432124
 20
-8.374162276207866
 30
0.0
 10
-3.5662297226664106
 20
-8.28911991747509
 30
0.0
 10
-3.5066562638153123
 20
-8.21309313084608
 30
0.0
 10
-3.4591965977252537
 20
-8.14700153316922
 30
0.0
 10
-3.4584335320223816
 20
-8.145839068645959
 30
0.0
 10
-3.428927935433466
 20
-8.10484986175608
 30
0.0
 10
-3.4027015745434714
 20
-8.080427659799497
 30
0.0
 10
-3.3810814761057855
 20
-8.072199080027174
 30
0.0
 10
-3.061098195876273
 20
-8.198889423017112
 30
0.0
 10
-3.0509706728616193
 20
-8.219687775334837
 30
0.0
 10
-3.0485706262299215
 20
-8.255443973820215
 30
0.0
 10
-3.0551210149359047
 20
-8.305521790459206
 30
0.0
 10
-3.05536052570148
 20
-8.306891545043337
 30
0.0
 10
-3.0660067299711837
 20
-8.387558623358125
 30
0.0
 10
-3.074623464202057
 20
-8.483760604501486
 30
0.0
 10
-3.0799259548915208
 20
-8.595442439651304
 30
0.0
 10
-3.080631594362079
 20
-8.72246865559833
 30
0.0
 10
-3.0754644247012144
 20
-8.864623486354269
 30
0.0
 10
-3.063262688925639
 20
-9.02029616564691
 30
0.0
 10
-2.9459620130411706
 20
-9.066738788680475
 30
0.0
 10
-2.8237654839020525
 20
-9.098113524751783
 30
0.0
 10
-2.722391967225808
 20
-8.979343681985583
 30
0.0
 10
-2.6346551260967663
 20
-8.867375194194144
 30
0.0
 10
-2.5605618640322967
 20
-8.764194062287492
 30
0.0
 10
-2.4992067334625667
 20
-8.6707248338606
 30
0.0
 10
-2.4496317121339555
 20
-8.587831006919844
 30
0.0
 10
-2.410829753334804
 20
-8.516312287816321
 30
0.0
 10
-2.4102184000705202
 20
-8.515063352181073
 30
0.0
 10
-2.3860827737643473
 20
-8.470699325601672
 30
0.0
 10
-2.3631241291053837
 20
-8.443182665387107
 30
0.0
 10
-2.342705826111996
 20
-8.432309253576872
 30
0.0
 10
-2.0093671992731665
 20
-8.517896066174085
 30
0.0
 10
-1.9967128100536384
 20
-8.537261102064194
 30
0.0
 10
-1.989850248530351
 20
-8.572434546639599
 30
0.0
 10
-1.9900725707756761
 20
-8.6229384661345
 30
0.0
 10
-1.9901385171561077
 20
-8.624327438453331
 30
0.0
 10
-1.9905905071579004
 20
-8.705692755967826
 30
0.0
 10
-1.9870819904936803
 20
-8.802216118919652
 30
0.0
 10
-1.9783452239305577
 20
-8.913681887745621
 30
0.0
 10
-1.9631246928310482
 20
-9.03979490411559
 30
0.0
 10
-1.9401815432408893
 20
-9.180181183489458
 30
0.0
 10
-1.9085650615230154
 20
-9.333097054208825
 30
0.0
 10
-1.7863685323839045
 20
-9.36447179028015
 30
0.0
 10
-1.6612032622513455
 20
-9.38028384105905
 30
0.0
 10
-1.5755149144767053
 20
-9.24974506333507
 30
0.0
 10
-1.5025032771778972
 20
-9.12766313851181
 30
0.0
 10
-1.4419262875200762
 20
-9.016009272529086
 30
0.0
 10
-1.3927697611182808
 20
-8.91558723997618
 30
0.0
 10
-1.3539750050131918
 20
-8.827133657892904
 30
0.0
 10
-1.324442683574377
 20
-8.75131571028619
 30
0.0
 10
-1.3239926841548635
 20
-8.750000000000005
 30
0.0
 10
-1.305607661376206
 20
-8.70296080093202
 30
0.0
 10
-1.286278804489375
 20
-8.672783636628715
 30
0.0
 10
-1.2673843057757948
 20
-8.659436872980278
 30
0.0
 10
-0.9259472815997402
 20
-8.702570400023024
 30
0.0
 10
-0.9109655934526947
 20
-8.720196721301418
 30
0.0
 10
-0.8997487437325357
 20
-8.7542327057343
 30
0.0
 10
-0.8936394933625847
 20
-8.804366251105094
 30
0.0
 10
-0.8935308353440589
 20
-8.805752536235428
 30
0.0
 10
-0.8837814829256065
 20
-8.886532913287141
 30
0.0
 10
-0.8682030467699738
 20
-8.98185542695342
 30
0.0
 10
-0.845564806982057
 20
-9.091347247694735
 30
0.0
 10
-0.8146581421802231
 20
-9.214558186883224
 30
0.0
 10
-0.7743008398353811
 20
-9.350961939386593
 30
0.0
 10
-0.7237682229786799
 20
-9.498709426903968
 30
0.0
 10
-0.598602952846119
 20
-9.514521477682854
 30
0.0
 10
-0.4724428728002049
 20
-9.514521477682857
 30
0.0
 10
-0.40379105035931595
 20
-9.374272439505893
 30
0.0
 10
-0.3466560540259811
 20
-9.244002382533484
 30
0.0
 10
-0.30055067208865205
 20
-9.12563663064002
 30
0.0
 10
-0.26436797764083275
 20
-9.019845509403677
 30
0.0
 10
-0.2369653032379071
 20
-8.927227138006941
 30
0.0
 10
-0.21716836151027252
 20
-8.848305656222243
 30
0.0
 10
-0.21688681269519183
 20
-8.846943920822298
 30
0.0
 10
-0.20454233623594978
 20
-8.79797138553489
 30
0.0
 10
-0.1891480947408555
 20
-8.76560962905087
 30
0.0
 10
-0.17207537783882246
 20
-8.749999999999936
 30
0.0
 10
0.17207537783860885
 20
-8.750000000000032
 30
0.0
 10
0.18914809474146602
 20
-8.765609629050697
 30
0.0
 10
0.20454233623778853
 20
-8.797971385534439
 30
0.0
 10
0.21688681269519194
 20
-8.846943920822298
 30
0.0
 10
0.21716836151081398
 20
-8.848305656219502
 30
0.0
 10
0.23696530323789144
 20
-8.927227138006472
 30
0.0
 10
0.26436797764065606
 20
-9.019845509403776
 30
0.0
 10
0.30055067208848263
 20
-9.1256366306401
 30
0.0
 10
0.3466560540259691
 20
-9.244002382533463
 30
0.0
 10
0.40379105035923263
 20
-9.374272439505706
 30
0.0
 10
0.4724428728002115
 20
-9.514521477682871
 30
0.0
 10
0.5986029528461155
 20
-9.514521477682873
 30
0.0
 10
0.7237682229786778
 20
-9.498709426903964
 30
0.0
 10
0.7743008398353135
 20
-9.350961939386789
 30
0.0
 10
0.8146581421802057
 20
-9.214558186883247
 30
0.0
 10
0.845564806981871
 20
-9.091347247694676
 30
0.0
 10
0.8682030467697781
 20
-8.981855426953343
 30
0.0
 10
0.8837814829256422
 20
-8.88653291328761
 30
0.0
 10
0.893530835344932
 20
-8.80575253623808
 30
0.0
 10
0.893639493362577
 20
-8.804366251105094
 30
0.0
 10
0.8997487437344087
 20
-8.75423270573452
 30
0.0
 10
0.9109655934533142
 20
-8.720196721301514
 30
0.0
 10
0.9259472815995085
 20
-8.702570400022957
 30
0.0
 10
1.2673843057755871
 20
-8.6594368729804
 30
0.0
 10
1.2862788044899514
 20
-8.672783636628468
 30
0.0
 10
1.305607661377966
 20
-8.702960800931343
 30
0.0
 10
1.3239926841548557
 20
-8.750000000000007
 30
0.0
 10
1.3244426835745626
 20
-8.751315710283404
 30
0.0
 10
1.3539750050131094
 20
-8.82713365789244
 30
0.0
 10
1.3927697611181098
 20
-8.915587239976304
 30
0.0
 10
1.44192628751991
 20
-9.016009272529185
 30
0.0
 10
1.5025032771778748
 20
-9.12766313851179
 30
0.0
 10
1.5755149144765916
 20
-9.249745063334897
 30
0.0
 10
1.6612032622513446
 20
-9.380283841059061
 30
0.0
 10
1.7863685323839058
 20
-9.364471790280177
 30
0.0
 10
1.9085650615230159
 20
-9.333097054208833
 30
0.0
 10
1.9401815432408467
 20
-9.180181183489658
 30
0.0
 10
1.9631246928310335
 20
-9.039794904115617
 30
0.0
 10
1.9783452239303658
 20
-8.91368188774559
 30
0.0
 10
1.9870819904934767
 20
-8.8022161189196
 30
0.0
 10
1.9905905071579941
 20
-8.705692755968288
 30
0.0
 10
1.9901385171573063
 20
-8.624327438455854
 30
0.0
 10
1.9900725707756677
 20
-8.6229384661345
 30
0.0
 10
1.9898502485322367
 20
-8.572434546639583
 30
0.0
 10
1.9967128100542646
 20
-8.537261102064209
 30
0.0
 10
2.009367199272928
 20
-8.517896066174046
 30
0.0
 10
2.342705826111806
 20
-8.43230925357702
 30
0.0
 10
2.363124129105925
 20
-8.44318266538679
 30
0.0
 10
2.3860827737660086
 20
-8.470699325600778
 30
0.0
 10
2.4102184000705127
 20
-8.515063352181077
 30
0.0
 10
2.4108297533346392
 20
-8.516312287813534
 30
0.0
 10
2.4496317121338156
 20
-8.587831006919396
 30
0.0
 10
2.4992067334624126
 20
-8.670724833860744
 30
0.0
 10
2.560561864032144
 20
-8.764194062287613
 30
0.0
 10
2.6346551260967415
 20
-8.867375194194128
 30
0.0
 10
2.722391967225673
 20
-8.979343681985426
 30
0.0
 10
2.823765483902049
 20
-9.098113524751776
 30
0.0
 10
2.9459620130411577
 20
-9.066738788680448
 30
0.0
 10
3.063262688925633
 20
-9.020296165646897
 30
0.0
 10
3.0754644247011966
 20
-8.864623486354475
 30
0.0
 10
3.080631594362068
 20
-8.722468655598357
 30
0.0
 10
3.0799259548913267
 20
-8.595442439651297
 30
0.0
 10
3.074623464201849
 20
-8.483760604501462
 30
0.0
 10
3.0660067299713343
 20
-8.387558623358572
 30
0.0
 10
3.0553605257029854
 20
-8.30689154504569
 30
0.0
 10
3.0551210149358967
 20
-8.305521790459208
 30
0.0
 10
3.0485706262317898
 20
-8.25544397381996
 30
0.0
 10
3.050970672862243
 20
-8.219687775334775
 30
0.0
 10
3.0610981958760313
 20
-8.198889423017103
 30
0.0
 10
3.3810814761056154
 20
-8.072199080027346
 30
0.0
 10
3.402701574543969
 20
-8.080427659799115
 30
0.0
 10
3.4289279354350026
 20
-8.104849861754987
 30
0.0
 10
3.4584335320223754
 20
-8.145839068645962
 30
0.0
 10
3.4591965977247408
 20
-8.147001533166476
 30
0.0
 10
3.5066562638151173
 20
-8.213093130845653
 30
0.0
 10
3.5662297226662756
 20
-8.28911991747525
 30
0.0
 10
3.638815850343076
 20
-8.374162276208002
 30
0.0
 10
3.725256889810378
 20
-8.467243445950842
 30
0.0
 10
3.826335272373473
 20
-8.567332686771135
 30
0.0
 10
3.941795237035887
 20
-8.672460523209612
 30
0.0
 10
4.059095912920364
 20
-8.626017900176043
 30
0.0
 10
4.1696508338194676
 20
-8.565239818088958
 30
0.0
 10
4.162245394990623
 20
-8.409265381370087
 30
0.0
 10
4.149555095369909
 20
-8.2675838658321
 30
0.0
 10
4.132934413685075
 20
-8.14164772961527
 30
0.0
 10
4.113676289188737
 20
-8.031511117397395
 30
0.0
 10
4.093070195109393
 20
-7.937147680773831
 30
0.0
 10
4.072397673574429
 20
-7.858451009673674
 30
0.0
 10
4.071988375649763
 20
-7.857122074670144
 30
0.0
 10
4.059213224027857
 20
-7.808260117970004
 30
0.0
 10
4.057112905597655
 20
-7.772485062184833
 30
0.0
 10
4.064553845318752
 20
-7.75058139588004
 30
0.0
 10
4.366135451461075
 20
-7.58478550488764
 30
0.0
 10
4.3886163834760685
 20
-7.590239483002896
 30
0.0
 10
4.4176968552199325
 20
-7.611182073986688
 30
0.0
 10
4.4521071012062015
 20
-7.648150036909907
 30
0.0
 10
4.453009845344846
 20
-7.6492076975585634
 30
0.0
 10
4.508378751441149
 20
-7.708829869834449
 30
0.0
 10
4.577011138781327
 20
-7.776790628310946
 30
0.0
 10
4.659683536970881
 20
-7.852064948550525
 30
0.0
 10
4.757109127011115
 20
-7.933578210478847
 30
0.0
 10
4.869934984534053
 20
-8.020209737209981
 30
0.0
 10
4.997660524567342
 20
-8.110037638539621
 30
0.0
 10
5.108215445466435
 20
-8.049259556452542
 30
0.0
 10
5.2102810942352855
 20
-7.9751045219735195
 30
0.0
 10
5.183385268996152
 20
-7.821288137869855
 30
0.0
 10
5.153037633699688
 20
-7.682314339686467
 30
0.0
 10
5.120764027879647
 20
-7.559454371298612
 30
0.0
 10
5.087853981704002
 20
-7.452599902179797
 30
0.0
 10
5.055583498188943
 20
-7.361563177841096
 30
0.0
 10
5.025210677401136
 20
-7.286078007468025
 30
0.0
 10
5.024638047191669
 20
-7.284810850146322
 30
0.0
 10
5.005839604424546
 20
-7.2379353356311675
 30
0.0
 10
4.999272044210001
 20
-7.2027056165467265
 30
0.0
 10
5.003909052574004
 20
-7.180042070157053
 30
0.0
 10
5.282332862544083
 20
-6.977755331404627
 30
0.0
 10
5.305320090408384
 20
-6.98034869537044
 30
0.0
 10
5.336796056593844
 20
-6.997481398211844
 30
0.0
 10
5.375568281844122
 20
-7.029845110308415
 30
0.0
 10
5.376596467604707
 20
-7.030781287144972
 30
0.0
 10
5.439001412982013
 20
-7.082993756744214
 30
0.0
 10
5.515610355063856
 20
-7.1418167053086465
 30
0.0
 10
5.607065230660619
 20
-7.206135866058174
 30
0.0
 10
5.713938911519623
 20
-7.2747957073377085
 30
0.0
 10
5.836732912830368
 20
-7.346603289051969
 30
0.0
 10
5.974709720168669
 20
-7.419714615608221
 30
0.0
 10
6.0767753689375175
 20
-7.345559581129196
 30
0.0
 10
6.168742109323956
 20
-7.259197063450025
 30
0.0
 10
6.122780060905347
 20
-7.109964508224351
 30
0.0
 10
6.075253690270558
 20
-6.975890127211835
 30
0.0
 10
6.0278361343584095
 20
-6.858043901747418
 30
0.0
 10
5.981793177591154
 20
-6.7561567345374325
 30
0.0
 10
5.938367229442867
 20
-6.669882426009118
 30
0.0
 10
5.898773106929884
 20
-6.598799202592572
 30
0.0
 10
5.89804617515609
 20
-6.59761380678062
 30
0.0
 10
5.873520903915836
 20
-6.553463989316434
 30
0.0
 10
5.862589676264803
 20
-6.519335200647897
 30
0.0
 10
5.864349624879795
 20
-6.496269191838454
 30
0.0
 10
6.11522472887208
 20
-6.260681788036368
 30
0.0
 10
6.138355730270363
 20
-6.260373638953798
 30
0.0
 10
6.171730796107845
 20
-6.273426260694422
 30
0.0
 10
6.214253539468529
 20
-6.300675326891439
 30
0.0
 10
6.215390951747402
 20
-6.301475255847938
 30
0.0
 10
6.283847773138206
 20
-6.3454546009347395
 30
0.0
 10
6.367225101181118
 20
-6.39421206654912
 30
0.0
 10
6.466020156164434
 20
-6.446561716221173
 30
0.0
 10
6.580656466051819
 20
-6.501285330139538
 30
0.0
 10
6.71148207639612
 20
-6.557136518377523
 30
0.0
 10
6.857534174364352
 20
-6.612378260865993
 30
0.0
 10
6.949500914750789
 20
-6.526015743186839
 30
0.0
 10
7.029918376320667
 20
-6.428807730801806
 30
0.0
 10
6.96561495368254
 20
-6.286512490997231
 30
0.0
 10
6.901659366965214
 20
-6.159451960236309
 30
0.0
 10
6.839845664143566
 20
-6.0484779830688264
 30
0.0
 10
6.781395921717651
 20
-5.953164939259014
 30
0.0
 10
6.727499362079838
 20
-5.873013643924354
 30
0.0
 10
6.679308360806091
 20
-5.80745339236067
 30
0.0
 10
6.678438591616294
 20
-5.806368452458546
 30
0.0
 10
6.648573270081051
 20
-5.765640601040559
 30
0.0
 10
6.633450766983585
 20
-5.73315097417278
 30
0.0
 10
6.632305900408566
 20
-5.7100462676814585
 30
0.0
 10
6.851675848167576
 20
-5.444873552920764
 30
0.0
 10
6.874585833390001
 20
-5.441668750484923
 30
0.0
 10
6.90933365415395
 20
-5.450435443482659
 30
0.0
 10
6.954936306560387
 20
-5.472140129728392
 30
0.0
 10
6.956165007686452
 20
-5.472791195447336
 30
0.0
 10
7.029594100123297
 20
-5.507843835477691
 30
0.0
 10
7.11842490385684
 20
-5.545766883782982
 30
0.0
 10
7.223002081192317
 20
-5.585321437130067
 30
0.0
 10
7.343593137020747
 20
-5.6252457996054686
 30
0.0
 10
7.480387158372043
 20
-5.66425978776478
 30
0.0
 10
7.632211218137953
 20
-5.700760750906607
 30
0.0
 10
7.712628679707831
 20
-5.6035527385215795
 30
0.0
 10
7.780228631053124
 20
-5.497032259855241
 30
0.0
 10
7.698597937583487
 20
-5.363918416406545
 30
0.0
 10
7.619221752591371
 20
-5.245875556369599
 30
0.0
 10
7.543986741879439
 20
-5.143523953411622
 30
0.0
 10
7.474052001149104
 20
-5.056288176640117
 30
0.0
 10
7.410534810963496
 20
-4.9835239283066
 30
0.0
 10
7.354506931806981
 20
-4.924520572926735
 30
0.0
 10
7.353508041980876
 20
-4.923553199084807
 30
0.0
 10
7.318773664111935
 20
-4.88688961625952
 30
0.0
 10
7.2996983764756305
 20
-4.856551532016566
 30
0.0
 10
7.295666749940398
 20
-4.833772502866816
 30
0.0
 10
7.480071946344719
 20
-4.543196409265792
 30
0.0
 10
7.502399611238564
 20
-4.537145495125548
 30
0.0
 10
7.53797219303819
 20
-4.541488003394855
 30
0.0
 10
7.585935573420228
 20
-4.557306013821457
 30
0.0
 10
7.587236186042736
 20
-4.557797948607528
 30
0.0
 10
7.664479528873478
 20
-4.583371082508727
 30
0.0
 10
7.7573628934578265
 20
-4.609861644379025
 30
0.0
 10
7.866072948587506
 20
-4.635997302466111
 30
0.0
 10
7.990716957368962
 20
-4.660492782452656
 30
0.0
 10
8.131322066293755
 20
-4.6820542966341945
 30
0.0
 10
8.286523731739546
 20
-4.699238838436025
 30
0.0
 10
8.354123683084847
 20
-4.592718359769686
 30
0.0
 10
8.40784003259057
 20
-4.478565306402853
 30
0.0
 10
8.310169433089255
 20
-4.356732144139576
 30
0.0
 10
8.216624459676712
 20
-4.249568561244774
 30
0.0
 10
8.129154642136637
 20
-4.157453478416834
 30
0.0
 10
8.048837815740189
 20
-4.079670728995451
 30
0.0
 10
7.976701699039344
 20
-4.015441063326553
 30
0.0
 10
7.913720535123792
 20
-3.9639251222917418
 30
0.0
 10
7.912608277750646
 20
-3.9630905705733785
 30
0.0
 10
7.873552625436311
 20
-3.9310694629437086
 30
0.0
 10
7.850825381942213
 20
-3.903361371037185
 30
0.0
 10
7.843970576605607
 20
-3.8812672581262313
 30
0.0
 10
7.990502841549618
 20
-3.569870344262709
 30
0.0
 10
8.011896065501606
 20
-3.5610687449486957
 30
0.0
 10
8.047732407471901
 20
-3.5609185845400773
 30
0.0
 10
8.097300104668978
 20
-3.5706004596738987
 30
0.0
 10
8.098652117349925
 20
-3.5709255054216547
 30
0.0
 10
8.178491536915189
 20
-3.586615829595423
 30
0.0
 10
8.273962636205013
 20
-3.6012561330453385
 30
0.0
 10
8.385091146619262
 20
-3.6135607209317095
 30
0.0
 10
8.511822397876537
 20
-3.6222410100771167
 30
0.0
 10
8.654021167813664
 20
-3.6260100123220167
 30
0.0
 10
8.810152815962264
 20
-3.623607122294077
 30
0.0
 10
8.863869165468003
 20
-3.5094540689272646
 30
0.0
 10
8.90285477421388
 20
-3.3894687027032746
 30
0.0
 10
8.790684592380604
 20
-3.280837603373909
 30
0.0
 10
8.684446090659407
 20
-3.186243331339925
 30
0.0
 10
8.586120917565735
 20
-3.105817478525102
 30
0.0
 10
8.496688649834391
 20
-3.038714436877376
 30
0.0
 10
8.41707123627071
 20
-2.9840322940696375
 30
0.0
 10
8.348130038174194
 20
-2.940816204544131
 30
0.0
 10
8.346921954217208
 20
-2.9401276363284676
 30
0.0
 10
8.304160958425193
 20
-2.913253995890218
 30
0.0
 10
8.278140181279804
 20
-2.888612869481501
 30
0.0
 10
8.268570301516846
 20
-2.867552110168333
 30
0.0
 10
8.374918733648244
 20
-2.5402452913934406
 30
0.0
 10
8.395040132736964
 20
-2.52883181338466
 30
0.0
 10
8.43057507435746
 20
-2.5241913524174615
 30
0.0
 10
8.480965376174472
 20
-2.527584403303971
 30
0.0
 10
8.482347466866225
 20
-2.527737433847796
 30
0.0
 10
8.563523847825708
 20
-2.5332975025089706
 30
0.0
 10
8.660077045553539
 20
-2.5358566612074043
 30
0.0
 10
8.771871448258167
 20
-2.5341361281916863
 30
0.0
 10
8.898691314453357
 20
-2.5268643331507814
 30
0.0
 10
9.04024118585548
 20
-2.5127813840421473
 30
0.0
 10
9.194840527347058
 20
-2.490828957195596
 30
0.0
 10
9.233826136092953
 20
-2.370843590971614
 30
0.0
 10
9.257466177740197
 20
-2.246918152791601
 30
0.0
 10
9.13256540434968
 20
-2.1532022937256423
 30
0.0
 10
9.015308818955775
 20
-2.0726691407303304
 30
0.0
 10
8.907678937024805
 20
-2.0052008816715903
 30
0.0
 10
8.810541628244938
 20
-1.949835802849722
 30
0.0
 10
8.724698531991454
 20
-1.9055635529607498
 30
0.0
 10
8.650884543591431
 20
-1.8713288584924053
 30
0.0
 10
8.649599685256288
 20
-1.8707971329115338
 30
0.0
 10
8.603807712434412
 20
-1.8494947730279498
 30
0.0
 10
8.574903764837373
 20
-1.8283092174004012
 30
0.0
 10
8.562769733368688
 20
-1.8086139524404747
 30
0.0
 10
8.62725715438329
 20
-1.4705590528099082
 30
0.0
 10
8.64578940212517
 20
-1.4567136934726403
 30
0.0
 10
8.680462536138968
 20
-1.447656114788391
 30
0.0
 10
8.730880757414553
 20
-1.4447068309881983
 30
0.0
 10
8.732271129721283
 20
-1.4446854329450005
 30
0.0
 10
8.813504272054839
 20
-1.4400275604893693
 30
0.0
 10
8.909616866614419
 20
-1.43046521497488
 30
0.0
 10
9.020314097096039
 20
-1.4147466948905283
 30
0.0
 10
9.145222553180728
 20
-1.3916374962150646
 30
0.0
 10
9.283891200018042
 20
-1.3599246922730857
 30
0.0
 10
9.434520110884117
 20
-1.3187689314930413
 30
0.0
  0
LWPOLYLINE
  8
OpenJsCad
  90
31
  70
1
 10
0.08316467632710375
 20
-0.3912590402935223
 30
0.0
 10
2.4492935982947065e-17
 20
-0.4
 30
0.0
 10
-0.08316467632710357
 20
-0.3912590402935223
 30
0.0
 10
-0.16269465723032003
 20
-0.36541818305704044
 30
0.0
 10
-0.23511410091698934
 20
-0.32360679774997897
 30
0.0
 10
-0.29725793019095764
 20
-0.2676522425435434
 30
0.0
 10
-0.34641016151377546
 20
-0.2000000000000001
 30
0.0
 10
-0.3804226065180615
 20
-0.12360679774997893
 30
0.0
 10
-0.39780875814730937
 20
-0.04181138530706122
 30
0.0
 10
-0.3978087581473093
 20
0.04181138530706167
 30
0.0
 10
-0.3804226065180614
 20
0.123606797749979
 30
0.0
 10
-0.34641016151377535
 20
0.20000000000000015
 30
0.0
 10
-0.29725793019095764
 20
0.2676522425435434
 30
0.0
 10
-0.23511410091698925
 20
0.323606797749979
 30
0.0
 10
-0.16269465723032012
 20
0.3654181830570404
 30
0.0
 10
-0.08316467632710366
 20
0.3912590402935223
 30
0.0
 10
2.0212861992297212e-16
 20
0.4
 30
0.0
 10
0.0831646763271037
 20
0.3912590402935223
 30
0.0
 10
0.16269465723032
 20
0.36541818305704044
 30
0.0
 10
0.23511410091698928
 20
0.32360679774997897
 30
0.0
 10
0.2972579301909578
 20
0.2676522425435432
 30
0.0
 10
0.3464101615137755
 20
0.19999999999999996
 30
0.0
 10
0.3804226065180615
 20
0.12360679774997897
 30
0.0
 10
0.39780875814730937
 20
0.04181138530706136
 30
0.0
 10
0.3978087581473093
 20
-0.041811385307061355
 30
0.0
 10
0.3804226065180614
 20
-0.12360679774997896
 30
0.0
 10
0.34641016151377546
 20
-0.20000000000000004
 30
0.0
 10
0.29725793019095764
 20
-0.2676522425435433
 30
0.0
 10
0.23511410091698928
 20
-0.323606797749979
 30
0.0
 10
0.1626946572303201
 20
-0.3654181830570404
 30
0.0
 10
0.08316467632710375
 20
-0.3912590402935223
 30
0.0
  0
ENDSEC
  0
EOF
