999
DXF generated by OpenJsCad
  0
SECTION
  2
HEADER
  0
ENDSEC
  0
SECTION
  2
TABLES
  0
TABLE
  2
LTYPE
  70
1
  0
LTYPE
  2
CONTINUOUS
  3
Solid Line
  72
65
  73
0
  40
0.0
  0
ENDTAB
  0
TABLE
  2
LAYER
  70
1
  0
LAYER
  2
OpenJsCad
  62
7
  6
continuous
  0
ENDTAB
  0
TABLE
  2
STYLE
  70
0
  0
ENDTAB
  0
TABLE
  2
VIEW
  70
0
  0
ENDTAB
  0
ENDSEC
  0
SECTION
  2
BLOCKS
  0
ENDSEC
  0
SECTION
  2
ENTITIES
  0
LWPOLYLINE
  8
OpenJsCad
  90
571
  70
1
 10
5.708077481329404
 20
-1.333159799278666
 30
0.0
 10
5.738465924304994
 20
-1.219748586130854
 30
0.0
 10
5.756833196382706
 20
-1.1037821942297472
 30
0.0
 10
5.63784380858489
 20
-1.0145017807102934
 30
0.0
 10
5.508289312730064
 20
-0.9307478353813289
 30
0.0
 10
5.395426108556621
 20
-0.8684909696802522
 30
0.0
 10
5.301513896256941
 20
-0.8249347825062351
 30
0.0
 10
5.228499658746265
 20
-0.7970800431214866
 30
0.0
 10
5.113042937584081
 20
-0.7620418388747318
 30
0.0
 10
5.060830915187856
 20
-0.7331148588777311
 30
0.0
 10
5.0374995266437255
 20
-0.7024857525248341
 30
0.0
 10
5.073473076267062
 20
-0.36022029069631323
 30
0.0
 10
5.102662767283352
 20
-0.33511137224587273
 30
0.0
 10
5.159748089041122
 20
-0.3176720060228405
 30
0.0
 10
5.279966656122643
 20
-0.30740427271791887
 30
0.0
 10
5.357176683325892
 20
-0.2953387397943037
 30
0.0
 10
5.458092528987357
 20
-0.27225980666059146
 30
0.0
 10
5.581433331573532
 20
-0.2348289824566952
 30
0.0
 10
5.725570175244683
 20
-0.17984115606722192
 30
0.0
 10
5.860521801163313
 20
-0.11725101859721226
 30
0.0
 10
5.866666666666668
 20
1.0253635425249843e-15
 30
0.0
 10
5.860521801163313
 20
0.11725101859721146
 30
0.0
 10
5.725570175244356
 20
0.17984115606737341
 30
0.0
 10
5.581433331573677
 20
0.23482898245667105
 30
0.0
 10
5.458092528987369
 20
0.2722598066605757
 30
0.0
 10
5.357176683325909
 20
0.29533873979429015
 30
0.0
 10
5.279966656122661
 20
0.30740427271793314
 30
0.0
 10
5.159748089041119
 20
0.3176720060228132
 30
0.0
 10
5.102662767283364
 20
0.33511137224594034
 30
0.0
 10
5.073473076267066
 20
0.3602202906963109
 30
0.0
 10
5.037499526643723
 20
0.702485752524831
 30
0.0
 10
5.0608309151878315
 20
0.7331148588777948
 30
0.0
 10
5.11304293758409
 20
0.7620418388747057
 30
0.0
 10
5.2284996587462444
 20
0.7970800431214967
 30
0.0
 10
5.301513896256928
 20
0.8249347825062184
 30
0.0
 10
5.395426108556613
 20
0.8684909696802342
 30
0.0
 10
5.508289312729928
 20
0.9307478353812754
 30
0.0
 10
5.6378438085851785
 20
1.0145017807105097
 30
0.0
 10
5.756833196382707
 20
1.103782194229747
 30
0.0
 10
5.738465924304993
 20
1.2197485861308561
 30
0.0
 10
5.708077481329404
 20
1.3331597992786621
 30
0.0
 10
5.563061650911713
 20
1.3663241713512841
 30
0.0
 10
5.410641931138903
 20
1.3901426469268365
 30
0.0
 10
5.282214115067588
 20
1.4011115230028357
 30
0.0
 10
5.178705142747706
 20
1.4027045419732962
 30
0.0
 10
5.100673774535487
 20
1.3984535467502204
 30
0.0
 10
4.980947489788735
 20
1.3835020598977514
 30
0.0
 10
4.92148377115603
 20
1.3886916283596908
 30
0.0
 10
4.887711507232656
 20
1.407182978685295
 30
0.0
 10
4.781363075101415
 20
1.7344897974600038
 30
0.0
 10
4.797816467537542
 20
1.7693004527931078
 30
0.0
 10
4.842873274652492
 20
1.8084507987309817
 30
0.0
 10
4.948522137157678
 20
1.8667281362620998
 30
0.0
 10
5.014149512435395
 20
1.9091546963349462
 30
0.0
 10
5.096953677055011
 20
1.9712845231639862
 30
0.0
 10
5.194406619215351
 20
2.0556465065894503
 30
0.0
 10
5.303716614114383
 20
2.164506121551539
 30
0.0
 10
5.4015433565696265
 20
2.276574828634257
 30
0.0
 10
5.359466684836592
 20
2.3861883060446956
 30
0.0
 10
5.30616278516673
 20
2.4908030995211585
 30
0.0
 10
5.157420637902717
 20
2.4930922639963535
 30
0.0
 10
5.003379515172809
 20
2.484700407081783
 30
0.0
 10
4.8754775974438385
 20
2.4687279425108493
 30
0.0
 10
4.773899337247071
 20
2.448765424744893
 30
0.0
 10
4.6984569732528
 20
2.428383690264885
 30
0.0
 10
4.584455583994729
 20
2.388866434975714
 30
0.0
 10
4.525212318329903
 20
2.3815793966323664
 30
0.0
 10
4.488333491490205
 20
2.3926450180926317
 30
0.0
 10
4.316258113651598
 20
2.6906883152407035
 30
0.0
 10
4.325114417778147
 20
2.728159126875834
 30
0.0
 10
4.361046810934319
 20
2.7758217807729837
 30
0.0
 10
4.452270452531569
 20
2.8547912522926264
 30
0.0
 10
4.507642734361599
 20
2.9099353887931914
 30
0.0
 10
4.575719911968803
 20
2.9879234837128403
 30
0.0
 10
4.653503430912662
 20
3.0907035613733247
 30
0.0
 10
4.737791553550837
 20
3.219911158428036
 30
0.0
 10
4.810180152593709
 20
3.349870218809399
 30
0.0
 10
4.746233033666359
 20
3.4483401467825106
 30
0.0
 10
4.672343313498285
 20
3.539586352115234
 30
0.0
 10
4.5263755949674
 20
3.510900261520806
 30
0.0
 10
4.377445405515006
 20
3.4706648365318755
 30
0.0
 10
4.255659313674631
 20
3.4284491046601464
 30
0.0
 10
4.160451222998148
 20
3.387803507974935
 30
0.0
 10
4.090895056541003
 20
3.3521818138371837
 30
0.0
 10
3.987600970521549
 20
3.2898258837922767
 30
0.0
 10
3.931167372814882
 20
3.2703807171863364
 30
0.0
 10
3.8927937647560014
 20
3.2735369890247066
 30
0.0
 10
3.6625119609308494
 20
3.529290842290356
 30
0.0
 10
3.6633841137602285
 20
3.5677841559541545
 30
0.0
 10
3.6886216749539433
 20
3.6218760311244846
 30
0.0
 10
3.76143318476586
 20
3.7180862917896778
 30
0.0
 10
3.804130338726542
 20
3.7835379413419625
 30
0.0
 10
3.854505229989358
 20
3.873975850375832
 30
0.0
 10
3.9092198126921542
 20
3.9906820396840414
 30
0.0
 10
3.9648022676508976
 20
4.134590626833245
 30
0.0
 10
4.008588994144188
 20
4.2767602059618275
 30
0.0
 10
3.9255662239719684
 20
4.3597829761340465
 30
0.0
 10
3.834320018639244
 20
4.43367269630212
 30
0.0
 10
3.697506218572109
 20
4.3752650704481795
 30
0.0
 10
3.5601959263226397
 20
4.304944558527897
 30
0.0
 10
3.44984829697879
 20
4.238330589411724
 30
0.0
 10
3.365171426244261
 20
4.178778321421612
 30
0.0
 10
3.304541395565936
 20
4.12947350659179
 30
0.0
 10
3.2164690600041665
 20
4.047004155151059
 30
0.0
 10
3.1653115492738872
 20
4.0162507073714675
 30
0.0
 10
3.1271202708049977
 20
4.011359685363133
 30
0.0
 10
2.848696460835154
 20
4.213646424115503
 30
0.0
 10
2.8415463451036653
 20
4.25147989728945
 30
0.0
 10
2.854986071807504
 20
4.309636919226402
 30
0.0
 10
2.906203237466919
 20
4.418883118978025
 30
0.0
 10
2.9343591930464954
 20
4.491781730424734
 30
0.0
 10
2.9648301734911904
 20
4.590716882978807
 30
0.0
 10
2.9940845301391144
 20
4.7162485634435445
 30
0.0
 10
3.018532097422518
 20
4.868568644878804
 30
0.0
 10
3.031803261306444
 20
5.016735249941357
 30
0.0
 10
2.933333333333333
 20
5.0806823688687075
 30
0.0
 10
2.8287185398568693
 20
5.133986268538569
 30
0.0
 10
2.7070380778218706
 20
5.0484098009458185
 30
0.0
 10
2.5873488014345107
 20
4.951077545900352
 30
0.0
 10
2.4932623554961864
 20
4.862976689639402
 30
0.0
 10
2.422817490279417
 20
4.787120470219044
 30
0.0
 10
2.3737634186557206
 20
4.7262873916959665
 30
0.0
 10
2.3047620172336396
 20
4.627308925249227
 30
0.0
 10
2.261116422179634
 20
4.586591269535366
 30
0.0
 10
2.2247766154319124
 20
4.573866714811818
 30
0.0
 10
1.9103792558387294
 20
4.713845437887962
 30
0.0
 10
1.8955193659139014
 20
4.7493655662492085
 30
0.0
 10
1.896573877579942
 20
4.809045994025786
 30
0.0
 10
1.9239582631803103
 20
4.926553549713264
 30
0.0
 10
1.936342470012688
 20
5.003713103927827
 30
0.0
 10
1.945577811577843
 20
5.1068215590919595
 30
0.0
 10
1.9480933864074028
 20
5.235692393909081
 30
0.0
 10
1.9403375900127384
 20
5.389766851158831
 30
0.0
 10
1.9225131777434632
 20
5.537454890531866
 30
0.0
 10
1.812899700333024
 20
5.5795315622649015
 30
0.0
 10
1.6994884871852176
 20
5.60992000524049
 30
0.0
 10
1.5982593832609224
 20
5.500914798184184
 30
0.0
 10
1.5014221184466694
 20
5.3808246866110006
 30
0.0
 10
1.4277088850782331
 20
5.275087373378686
 30
0.0
 10
1.3745748040211632
 20
5.186242483315279
 30
0.0
 10
1.3392405897696036
 20
5.116539838539901
 30
0.0
 10
1.2923258148348151
 20
5.005378091022251
 30
0.0
 10
1.2580996573957444
 20
4.956475784313808
 30
0.0
 10
1.2251995463018062
 20
4.936473820975655
 30
0.0
 10
0.8885693103454182
 20
5.0080267864847094
 30
0.0
 10
0.8666490947226291
 20
5.0396811699793815
 30
0.0
 10
0.8552723041309568
 20
5.098276682523282
 30
0.0
 10
0.8576270806166811
 20
5.218909950099261
 30
0.0
 10
0.8536982894372682
 20
5.296958204309882
 30
0.0
 10
0.8412943633803998
 20
5.399733627824138
 30
0.0
 10
0.816961213700476
 20
5.52631134312126
 30
0.0
 10
0.777341019146631
 20
5.6754063830724135
 30
0.0
 10
0.7292000430713419
 20
5.816161180749491
 30
0.0
 10
0.6132336511702323
 20
5.834528452827205
 30
0.0
 10
0.49598263257302166
 20
5.840673318330557
 30
0.0
 10
0.4196290843520558
 20
5.713003422424074
 30
0.0
 10
0.3498760842600437
 20
5.575403968455212
 30
0.0
 10
0.29975768547503423
 20
5.456651426223709
 30
0.0
 10
0.2662566028854667
 20
5.358700813538105
 30
0.0
 10
0.24618652072120784
 20
5.283174942557509
 30
0.0
 10
0.22340877306042953
 20
5.164688215748717
 30
0.0
 10
0.20009790055170598
 20
5.1097385235081525
 30
0.0
 10
0.17207537783860508
 20
5.083333333333339
 30
0.0
 10
-0.17207537783860302
 20
5.083333333333336
 30
0.0
 10
-0.20009790055177298
 20
5.109738523508133
 30
0.0
 10
-0.22340877306040366
 20
5.164688215748723
 30
0.0
 10
-0.246186520721221
 20
5.28317494255749
 30
0.0
 10
-0.2662566028854524
 20
5.35870081353809
 30
0.0
 10
-0.29975768547501813
 20
5.456651426223698
 30
0.0
 10
-0.3498760842600056
 20
5.57540396845507
 30
0.0
 10
-0.41962908435224155
 20
5.713003422424384
 30
0.0
 10
-0.495982632573022
 20
5.840673318330559
 30
0.0
 10
-0.6132336511702342
 20
5.834528452827205
 30
0.0
 10
-0.7292000430713407
 20
5.816161180749491
 30
0.0
 10
-0.777341019146747
 20
5.675406383072073
 30
0.0
 10
-0.8169612137004669
 20
5.526311343121407
 30
0.0
 10
-0.8412943633803849
 20
5.399733627824152
 30
0.0
 10
-0.853698289437256
 20
5.2969582043099
 30
0.0
 10
-0.8576270806166968
 20
5.2189099500992775
 30
0.0
 10
-0.855272304130929
 20
5.098276682523282
 30
0.0
 10
-0.8666490947226974
 20
5.039681169979387
 30
0.0
 10
-0.8885693103454158
 20
5.008026786484715
 30
0.0
 10
-1.2251995463018022
 20
4.936473820975653
 30
0.0
 10
-1.2580996573958045
 20
4.956475784313777
 30
0.0
 10
-1.2923258148347896
 20
5.005378091022264
 30
0.0
 10
-1.3392405897696111
 20
5.116539838539881
 30
0.0
 10
-1.3745748040211447
 20
5.186242483315269
 30
0.0
 10
-1.4277088850782138
 20
5.275087373378681
 30
0.0
 10
-1.5014221184466012
 20
5.380824686610872
 30
0.0
 10
-1.5982593832611676
 20
5.500914798184449
 30
0.0
 10
-1.6994884871852167
 20
5.609920005240491
 30
0.0
 10
-1.8128997003330247
 20
5.5795315622649015
 30
0.0
 10
-1.9225131777434612
 20
5.537454890531868
 30
0.0
 10
-1.9403375900127795
 20
5.389766851158474
 30
0.0
 10
-1.9480933864074228
 20
5.235692393909226
 30
0.0
 10
-1.9455778115778302
 20
5.106821559091976
 30
0.0
 10
-1.9363424700126786
 20
5.003713103927847
 30
0.0
 10
-1.9239582631803278
 20
4.926553549713277
 30
0.0
 10
-1.896573877579913
 20
4.809045994025792
 30
0.0
 10
-1.895519365913968
 20
4.749365566249199
 30
0.0
 10
-1.9103792558387267
 20
4.713845437887969
 30
0.0
 10
-2.224776615431907
 20
4.5738667148118175
 30
0.0
 10
-2.261116422179686
 20
4.586591269535322
 30
0.0
 10
-2.3047620172336165
 20
4.627308925249244
 30
0.0
 10
-2.3737634186557233
 20
4.726287391695944
 30
0.0
 10
-2.4228174902793955
 20
4.787120470219037
 30
0.0
 10
-2.493262355496165
 20
4.8629766896393996
 30
0.0
 10
-2.5873488014344166
 20
4.951077545900241
 30
0.0
 10
-2.707038077822164
 20
5.048409800946027
 30
0.0
 10
-2.828718539856868
 20
5.13398626853857
 30
0.0
 10
-2.933333333333335
 20
5.0806823688687075
 30
0.0
 10
-3.031803261306443
 20
5.016735249941358
 30
0.0
 10
-3.0185320974224856
 20
4.868568644878446
 30
0.0
 10
-2.994084530139166
 20
4.716248563443682
 30
0.0
 10
-2.964830173491183
 20
4.5907168829788265
 30
0.0
 10
-2.934359193046492
 20
4.491781730424755
 30
0.0
 10
-2.906203237466941
 20
4.418883118978034
 30
0.0
 10
-2.854986071807479
 20
4.3096369192264135
 30
0.0
 10
-2.8415463451037297
 20
4.2514798972894265
 30
0.0
 10
-2.8486964608351535
 20
4.213646424115509
 30
0.0
 10
-3.127120270804993
 20
4.011359685363133
 30
0.0
 10
-3.16531154927393
 20
4.016250707371414
 30
0.0
 10
-3.2164690600041483
 20
4.047004155151081
 30
0.0
 10
-3.3045413955659346
 20
4.129473506591768
 30
0.0
 10
-3.3651714262442396
 20
4.17877832142161
 30
0.0
 10
-3.44984829697877
 20
4.238330589411726
 30
0.0
 10
-3.560195926322525
 20
4.304944558527806
 30
0.0
 10
-3.6975062185724408
 20
4.3752650704483225
 30
0.0
 10
-3.8343200186392434
 20
4.4336726963021205
 30
0.0
 10
-3.925566223971969
 20
4.359782976134047
 30
0.0
 10
-4.008588994144186
 20
4.276760205961829
 30
0.0
 10
-3.9648022676507906
 20
4.134590626832901
 30
0.0
 10
-3.9092198126922324
 20
3.9906820396841653
 30
0.0
 10
-3.8545052299893543
 20
3.8739758503758517
 30
0.0
 10
-3.804130338726542
 20
3.7835379413419834
 30
0.0
 10
-3.761433184765883
 20
3.718086291789682
 30
0.0
 10
-3.6886216749539193
 20
3.6218760311245006
 30
0.0
 10
-3.663384113760285
 20
3.567784155954118
 30
0.0
 10
-3.662511960930849
 20
3.529290842290361
 30
0.0
 10
-3.8927937647559956
 20
3.2735369890247066
 30
0.0
 10
-3.9311673728149112
 20
3.2703807171862747
 30
0.0
 10
-3.9876009705215347
 20
3.2898258837923007
 30
0.0
 10
-4.090895056540996
 20
3.3521818138371615
 30
0.0
 10
-4.160451222998126
 20
3.3878035079749367
 30
0.0
 10
-4.25565931367461
 20
3.4284491046601526
 30
0.0
 10
-4.377445405514874
 20
3.4706648365318102
 30
0.0
 10
-4.526375594967751
 20
3.5109002615208755
 30
0.0
 10
-4.672343313498284
 20
3.5395863521152355
 30
0.0
 10
-4.746233033666359
 20
3.44834014678251
 30
0.0
 10
-4.8101801525937065
 20
3.3498702188094005
 30
0.0
 10
-4.737791553550659
 20
3.219911158427722
 30
0.0
 10
-4.653503430912763
 20
3.0907035613734304
 30
0.0
 10
-4.575719911968802
 20
2.9879234837128616
 30
0.0
 10
-4.507642734361603
 20
2.909935388793213
 30
0.0
 10
-4.45227045253159
 20
2.854791252292626
 30
0.0
 10
-4.361046810934298
 20
2.775821780773004
 30
0.0
 10
-4.325114417778195
 20
2.728159126875787
 30
0.0
 10
-4.316258113651598
 20
2.690688315240709
 30
0.0
 10
-4.488333491490199
 20
2.3926450180926335
 30
0.0
 10
-4.525212318329918
 20
2.3815793966323007
 30
0.0
 10
-4.584455583994721
 20
2.388866434975741
 30
0.0
 10
-4.698456973252788
 20
2.428383690264865
 30
0.0
 10
-4.773899337247049
 20
2.4487654247449
 30
0.0
 10
-4.875477597443819
 20
2.468727942510859
 30
0.0
 10
-5.003379515172666
 20
2.484700407081747
 30
0.0
 10
-5.157420637903077
 20
2.4930922639963495
 30
0.0
 10
-5.3061627851667295
 20
2.4908030995211607
 30
0.0
 10
-5.359466684836593
 20
2.386188306044694
 30
0.0
 10
-5.4015433565696265
 20
2.276574828634257
 30
0.0
 10
-5.303716614114147
 20
2.164506121551267
 30
0.0
 10
-5.194406619215473
 20
2.055646506589531
 30
0.0
 10
-5.096953677055017
 20
1.9712845231640055
 30
0.0
 10
-5.014149512435404
 20
1.9091546963349655
 30
0.0
 10
-4.9485221371577
 20
1.866728136262094
 30
0.0
 10
-4.8428732746524785
 20
1.8084507987310054
 30
0.0
 10
-4.797816467537579
 20
1.769300452793051
 30
0.0
 10
-4.781363075101418
 20
1.7344897974600078
 30
0.0
 10
-4.887711507232652
 20
1.4071829786852965
 30
0.0
 10
-4.921483771156033
 20
1.3886916283596222
 30
0.0
 10
-4.980947489788734
 20
1.383502059897779
 30
0.0
 10
-5.100673774535473
 20
1.3984535467502026
 30
0.0
 10
-5.178705142747688
 20
1.402704541973306
 30
0.0
 10
-5.282214115067573
 20
1.4011115230028488
 30
0.0
 10
-5.410641931138756
 20
1.3901426469268299
 30
0.0
 10
-5.563061650912066
 20
1.3663241713512035
 30
0.0
 10
-5.708077481329405
 20
1.3331597992786626
 30
0.0
 10
-5.738465924304994
 20
1.2197485861308546
 30
0.0
 10
-5.756833196382706
 20
1.1037821942297479
 30
0.0
 10
-5.63784380858489
 20
1.014501780710294
 30
0.0
 10
-5.508289312730064
 20
0.9307478353813295
 30
0.0
 10
-5.395426108556621
 20
0.8684909696802529
 30
0.0
 10
-5.301513896256941
 20
0.8249347825062358
 30
0.0
 10
-5.228499658746265
 20
0.7970800431214873
 30
0.0
 10
-5.113042937584081
 20
0.7620418388747324
 30
0.0
 10
-5.060830915187856
 20
0.7331148588777318
 30
0.0
 10
-5.0374995266437255
 20
0.7024857525248348
 30
0.0
 10
-5.073473076267062
 20
0.36022029069631384
 30
0.0
 10
-5.102662767283352
 20
0.33511137224587334
 30
0.0
 10
-5.159748089041122
 20
0.3176720060228411
 30
0.0
 10
-5.279966656122643
 20
0.30740427271791954
 30
0.0
 10
-5.357176683325892
 20
0.29533873979430436
 30
0.0
 10
-5.458092528987357
 20
0.27225980666059213
 30
0.0
 10
-5.581433331573532
 20
0.2348289824566959
 30
0.0
 10
-5.725570175244683
 20
0.17984115606722262
 30
0.0
 10
-5.860521801163313
 20
0.11725101859721299
 30
0.0
 10
-5.866666666666667
 20
-1.9135419622251096e-15
 30
0.0
 10
-5.860521801163312
 20
-0.11725101859721279
 30
0.0
 10
-5.725570175244355
 20
-0.1798411560673744
 30
0.0
 10
-5.581433331573677
 20
-0.23482898245667205
 30
0.0
 10
-5.458092528987369
 20
-0.2722598066605766
 30
0.0
 10
-5.357176683325908
 20
-0.2953387397942909
 30
0.0
 10
-5.279966656122662
 20
-0.30740427271793413
 30
0.0
 10
-5.159748089041118
 20
-0.3176720060228142
 30
0.0
 10
-5.1026627672833635
 20
-0.33511137224594134
 30
0.0
 10
-5.0734730762670655
 20
-0.3602202906963117
 30
0.0
 10
-5.037499526643722
 20
-0.7024857525248317
 30
0.0
 10
-5.0608309151878315
 20
-0.7331148588777957
 30
0.0
 10
-5.11304293758409
 20
-0.7620418388747067
 30
0.0
 10
-5.228499658746244
 20
-0.7970800431214977
 30
0.0
 10
-5.301513896256927
 20
-0.8249347825062193
 30
0.0
 10
-5.395426108556612
 20
-0.8684909696802351
 30
0.0
 10
-5.508289312729927
 20
-0.9307478353812763
 30
0.0
 10
-5.637843808585178
 20
-1.0145017807105108
 30
0.0
 10
-5.756833196382706
 20
-1.1037821942297479
 30
0.0
 10
-5.738465924304993
 20
-1.2197485861308561
 30
0.0
 10
-5.708077481329404
 20
-1.3331597992786621
 30
0.0
 10
-5.563061650911713
 20
-1.3663241713512841
 30
0.0
 10
-5.410641931138903
 20
-1.3901426469268365
 30
0.0
 10
-5.282214115067588
 20
-1.4011115230028357
 30
0.0
 10
-5.178705142747706
 20
-1.4027045419732962
 30
0.0
 10
-5.100673774535487
 20
-1.3984535467502204
 30
0.0
 10
-4.980947489788735
 20
-1.3835020598977514
 30
0.0
 10
-4.92148377115603
 20
-1.3886916283596908
 30
0.0
 10
-4.887711507232656
 20
-1.407182978685295
 30
0.0
 10
-4.781363075101415
 20
-1.7344897974600038
 30
0.0
 10
-4.797816467537542
 20
-1.7693004527931078
 30
0.0
 10
-4.842873274652492
 20
-1.8084507987309817
 30
0.0
 10
-4.948522137157678
 20
-1.8667281362620998
 30
0.0
 10
-5.014149512435395
 20
-1.9091546963349462
 30
0.0
 10
-5.096953677055011
 20
-1.9712845231639862
 30
0.0
 10
-5.194406619215351
 20
-2.0556465065894503
 30
0.0
 10
-5.303716614114383
 20
-2.164506121551539
 30
0.0
 10
-5.4015433565696265
 20
-2.276574828634257
 30
0.0
 10
-5.359466684836593
 20
-2.386188306044695
 30
0.0
 10
-5.30616278516673
 20
-2.490803099521158
 30
0.0
 10
-5.157420637902718
 20
-2.493092263996353
 30
0.0
 10
-5.00337951517281
 20
-2.484700407081782
 30
0.0
 10
-4.8754775974438385
 20
-2.468727942510848
 30
0.0
 10
-4.773899337247072
 20
-2.4487654247448924
 30
0.0
 10
-4.6984569732528
 20
-2.4283836902648837
 30
0.0
 10
-4.58445558399473
 20
-2.388866434975713
 30
0.0
 10
-4.525212318329903
 20
-2.3815793966323655
 30
0.0
 10
-4.488333491490206
 20
-2.3926450180926313
 30
0.0
 10
-4.316258113651598
 20
-2.690688315240703
 30
0.0
 10
-4.325114417778147
 20
-2.7281591268758336
 30
0.0
 10
-4.361046810934319
 20
-2.7758217807729824
 30
0.0
 10
-4.452270452531569
 20
-2.8547912522926255
 30
0.0
 10
-4.5076427343616
 20
-2.909935388793191
 30
0.0
 10
-4.575719911968804
 20
-2.98792348371284
 30
0.0
 10
-4.653503430912663
 20
-3.0907035613733242
 30
0.0
 10
-4.737791553550837
 20
-3.2199111584280358
 30
0.0
 10
-4.81018015259371
 20
-3.3498702188093987
 30
0.0
 10
-4.74623303366636
 20
-3.448340146782509
 30
0.0
 10
-4.672343313498287
 20
-3.5395863521152324
 30
0.0
 10
-4.5263755949674005
 20
-3.510900261520804
 30
0.0
 10
-4.377445405515007
 20
-3.4706648365318746
 30
0.0
 10
-4.255659313674632
 20
-3.4284491046601455
 30
0.0
 10
-4.16045122299815
 20
-3.387803507974933
 30
0.0
 10
-4.090895056541004
 20
-3.352181813837182
 30
0.0
 10
-3.9876009705215503
 20
-3.289825883792275
 30
0.0
 10
-3.9311673728148833
 20
-3.2703807171863346
 30
0.0
 10
-3.8927937647560027
 20
-3.2735369890247052
 30
0.0
 10
-3.66251196093085
 20
-3.5292908422903553
 30
0.0
 10
-3.6633841137602294
 20
-3.5677841559541537
 30
0.0
 10
-3.6886216749539447
 20
-3.6218760311244838
 30
0.0
 10
-3.7614331847658615
 20
-3.718086291789677
 30
0.0
 10
-3.8041303387265435
 20
-3.783537941341961
 30
0.0
 10
-3.854505229989359
 20
-3.8739758503758304
 30
0.0
 10
-3.9092198126921556
 20
-3.9906820396840406
 30
0.0
 10
-3.9648022676508985
 20
-4.134590626833243
 30
0.0
 10
-4.008588994144189
 20
-4.276760205961827
 30
0.0
 10
-3.92556622397197
 20
-4.359782976134046
 30
0.0
 10
-3.8343200186392457
 20
-4.433672696302118
 30
0.0
 10
-3.6975062185721113
 20
-4.375265070448178
 30
0.0
 10
-3.5601959263226415
 20
-4.304944558527895
 30
0.0
 10
-3.4498482969787916
 20
-4.238330589411722
 30
0.0
 10
-3.3651714262442627
 20
-4.17877832142161
 30
0.0
 10
-3.3045413955659373
 20
-4.129473506591788
 30
0.0
 10
-3.216469060004168
 20
-4.047004155151058
 30
0.0
 10
-3.165311549273889
 20
-4.016250707371466
 30
0.0
 10
-3.1271202708049994
 20
-4.011359685363132
 30
0.0
 10
-2.8486964608351553
 20
-4.2136464241155025
 30
0.0
 10
-2.841546345103667
 20
-4.251479897289448
 30
0.0
 10
-2.854986071807506
 20
-4.309636919226401
 30
0.0
 10
-2.906203237466921
 20
-4.418883118978023
 30
0.0
 10
-2.934359193046497
 20
-4.491781730424731
 30
0.0
 10
-2.964830173491192
 20
-4.590716882978806
 30
0.0
 10
-2.9940845301391166
 20
-4.716248563443543
 30
0.0
 10
-3.0185320974225203
 20
-4.868568644878803
 30
0.0
 10
-3.0318032613064463
 20
-5.016735249941356
 30
0.0
 10
-2.9333333333333336
 20
-5.0806823688687075
 30
0.0
 10
-2.82871853985687
 20
-5.133986268538569
 30
0.0
 10
-2.7070380778218714
 20
-5.0484098009458185
 30
0.0
 10
-2.5873488014345116
 20
-4.951077545900352
 30
0.0
 10
-2.493262355496187
 20
-4.862976689639402
 30
0.0
 10
-2.4228174902794173
 20
-4.787120470219044
 30
0.0
 10
-2.3737634186557215
 20
-4.7262873916959665
 30
0.0
 10
-2.30476201723364
 20
-4.627308925249227
 30
0.0
 10
-2.2611164221796343
 20
-4.586591269535366
 30
0.0
 10
-2.2247766154319133
 20
-4.573866714811818
 30
0.0
 10
-1.9103792558387298
 20
-4.713845437887962
 30
0.0
 10
-1.8955193659139022
 20
-4.7493655662492085
 30
0.0
 10
-1.8965738775799423
 20
-4.809045994025786
 30
0.0
 10
-1.923958263180311
 20
-4.9265535497132635
 30
0.0
 10
-1.9363424700126888
 20
-5.003713103927827
 30
0.0
 10
-1.9455778115778437
 20
-5.1068215590919595
 30
0.0
 10
-1.9480933864074033
 20
-5.235692393909081
 30
0.0
 10
-1.9403375900127389
 20
-5.389766851158831
 30
0.0
 10
-1.9225131777434639
 20
-5.537454890531866
 30
0.0
 10
-1.8128997003330234
 20
-5.579531562264902
 30
0.0
 10
-1.6994884871852172
 20
-5.6099200052404905
 30
0.0
 10
-1.5982593832609222
 20
-5.500914798184185
 30
0.0
 10
-1.501422118446669
 20
-5.380824686611001
 30
0.0
 10
-1.427708885078233
 20
-5.275087373378687
 30
0.0
 10
-1.3745748040211627
 20
-5.186242483315279
 30
0.0
 10
-1.3392405897696031
 20
-5.116539838539902
 30
0.0
 10
-1.292325814834815
 20
-5.005378091022251
 30
0.0
 10
-1.258099657395744
 20
-4.956475784313809
 30
0.0
 10
-1.225199546301806
 20
-4.936473820975656
 30
0.0
 10
-0.8885693103454176
 20
-5.00802678648471
 30
0.0
 10
-0.8666490947226287
 20
-5.039681169979382
 30
0.0
 10
-0.8552723041309565
 20
-5.098276682523283
 30
0.0
 10
-0.8576270806166805
 20
-5.2189099500992615
 30
0.0
 10
-0.8536982894372678
 20
-5.296958204309883
 30
0.0
 10
-0.8412943633803992
 20
-5.399733627824139
 30
0.0
 10
-0.8169612137004755
 20
-5.526311343121261
 30
0.0
 10
-0.7773410191466305
 20
-5.675406383072414
 30
0.0
 10
-0.7292000430713413
 20
-5.816161180749491
 30
0.0
 10
-0.6132336511702305
 20
-5.834528452827205
 30
0.0
 10
-0.4959826325730199
 20
-5.840673318330558
 30
0.0
 10
-0.4196290843520539
 20
-5.713003422424075
 30
0.0
 10
-0.3498760842600419
 20
-5.575403968455212
 30
0.0
 10
-0.29975768547503245
 20
-5.456651426223709
 30
0.0
 10
-0.26625660288546493
 20
-5.358700813538105
 30
0.0
 10
-0.24618652072120617
 20
-5.283174942557509
 30
0.0
 10
-0.22340877306042797
 20
-5.164688215748717
 30
0.0
 10
-0.20009790055170443
 20
-5.1097385235081525
 30
0.0
 10
-0.1720753778386034
 20
-5.083333333333339
 30
0.0
 10
0.1720753778386047
 20
-5.083333333333336
 30
0.0
 10
0.20009790055177454
 20
-5.109738523508133
 30
0.0
 10
0.2234087730604052
 20
-5.164688215748723
 30
0.0
 10
0.24618652072122266
 20
-5.28317494255749
 30
0.0
 10
0.26625660288545405
 20
-5.35870081353809
 30
0.0
 10
0.2997576854750199
 20
-5.456651426223698
 30
0.0
 10
0.3498760842600074
 20
-5.5754039684550705
 30
0.0
 10
0.41962908435224344
 20
-5.713003422424384
 30
0.0
 10
0.4959826325730239
 20
-5.840673318330559
 30
0.0
 10
0.6132336511702335
 20
-5.834528452827205
 30
0.0
 10
0.72920004307134
 20
-5.816161180749491
 30
0.0
 10
0.7773410191467464
 20
-5.675406383072073
 30
0.0
 10
0.8169612137004663
 20
-5.526311343121407
 30
0.0
 10
0.8412943633803842
 20
-5.399733627824152
 30
0.0
 10
0.8536982894372553
 20
-5.2969582043099
 30
0.0
 10
0.8576270806166961
 20
-5.2189099500992775
 30
0.0
 10
0.8552723041309284
 20
-5.098276682523282
 30
0.0
 10
0.8666490947226967
 20
-5.039681169979387
 30
0.0
 10
0.8885693103454153
 20
-5.008026786484715
 30
0.0
 10
1.2251995463018015
 20
-4.936473820975653
 30
0.0
 10
1.2580996573958039
 20
-4.956475784313777
 30
0.0
 10
1.2923258148347891
 20
-5.005378091022264
 30
0.0
 10
1.3392405897696105
 20
-5.116539838539881
 30
0.0
 10
1.374574804021144
 20
-5.186242483315269
 30
0.0
 10
1.4277088850782131
 20
-5.275087373378681
 30
0.0
 10
1.5014221184466006
 20
-5.380824686610872
 30
0.0
 10
1.598259383261167
 20
-5.500914798184449
 30
0.0
 10
1.699488487185216
 20
-5.609920005240491
 30
0.0
 10
1.8128997003330267
 20
-5.5795315622649015
 30
0.0
 10
1.922513177743463
 20
-5.537454890531867
 30
0.0
 10
1.9403375900127815
 20
-5.389766851158473
 30
0.0
 10
1.9480933864074246
 20
-5.2356923939092255
 30
0.0
 10
1.945577811577832
 20
-5.106821559091976
 30
0.0
 10
1.9363424700126803
 20
-5.003713103927847
 30
0.0
 10
1.9239582631803296
 20
-4.926553549713278
 30
0.0
 10
1.896573877579915
 20
-4.809045994025793
 30
0.0
 10
1.8955193659139697
 20
-4.7493655662492
 30
0.0
 10
1.9103792558387285
 20
-4.713845437887968
 30
0.0
 10
2.224776615431909
 20
-4.573866714811817
 30
0.0
 10
2.2611164221796876
 20
-4.586591269535322
 30
0.0
 10
2.3047620172336183
 20
-4.627308925249243
 30
0.0
 10
2.373763418655725
 20
-4.726287391695944
 30
0.0
 10
2.4228174902793973
 20
-4.787120470219037
 30
0.0
 10
2.4932623554961673
 20
-4.8629766896393996
 30
0.0
 10
2.5873488014344184
 20
-4.95107754590024
 30
0.0
 10
2.707038077822166
 20
-5.048409800946027
 30
0.0
 10
2.8287185398568697
 20
-5.133986268538569
 30
0.0
 10
2.933333333333332
 20
-5.080682368868708
 30
0.0
 10
3.03180326130644
 20
-5.016735249941359
 30
0.0
 10
3.0185320974224825
 20
-4.868568644878447
 30
0.0
 10
2.994084530139163
 20
-4.716248563443685
 30
0.0
 10
2.96483017349118
 20
-4.590716882978827
 30
0.0
 10
2.934359193046489
 20
-4.491781730424756
 30
0.0
 10
2.9062032374669378
 20
-4.4188831189780355
 30
0.0
 10
2.854986071807476
 20
-4.309636919226415
 30
0.0
 10
2.8415463451037275
 20
-4.251479897289427
 30
0.0
 10
2.8486964608351513
 20
-4.21364642411551
 30
0.0
 10
3.127120270804991
 20
-4.011359685363134
 30
0.0
 10
3.1653115492739277
 20
-4.016250707371416
 30
0.0
 10
3.216469060004146
 20
-4.0470041551510825
 30
0.0
 10
3.304541395565932
 20
-4.129473506591769
 30
0.0
 10
3.3651714262442374
 20
-4.178778321421611
 30
0.0
 10
3.4498482969787676
 20
-4.238330589411728
 30
0.0
 10
3.5601959263225225
 20
-4.304944558527807
 30
0.0
 10
3.697506218572438
 20
-4.375265070448324
 30
0.0
 10
3.8343200186392408
 20
-4.433672696302123
 30
0.0
 10
3.9255662239719684
 20
-4.359782976134047
 30
0.0
 10
4.008588994144185
 20
-4.276760205961829
 30
0.0
 10
3.96480226765079
 20
-4.134590626832902
 30
0.0
 10
3.9092198126922324
 20
-3.990682039684166
 30
0.0
 10
3.8545052299893543
 20
-3.873975850375852
 30
0.0
 10
3.804130338726542
 20
-3.7835379413419843
 30
0.0
 10
3.761433184765883
 20
-3.718086291789682
 30
0.0
 10
3.6886216749539193
 20
-3.621876031124501
 30
0.0
 10
3.663384113760285
 20
-3.5677841559541186
 30
0.0
 10
3.662511960930849
 20
-3.5292908422903615
 30
0.0
 10
3.8927937647559956
 20
-3.273536989024707
 30
0.0
 10
3.9311673728149112
 20
-3.2703807171862755
 30
0.0
 10
3.9876009705215347
 20
-3.289825883792301
 30
0.0
 10
4.090895056540996
 20
-3.352181813837162
 30
0.0
 10
4.160451222998126
 20
-3.387803507974937
 30
0.0
 10
4.25565931367461
 20
-3.428449104660153
 30
0.0
 10
4.377445405514874
 20
-3.470664836531811
 30
0.0
 10
4.526375594967751
 20
-3.5109002615208764
 30
0.0
 10
4.672343313498284
 20
-3.539586352115236
 30
0.0
 10
4.74623303366636
 20
-3.4483401467825083
 30
0.0
 10
4.810180152593708
 20
-3.3498702188093987
 30
0.0
 10
4.737791553550662
 20
-3.219911158427721
 30
0.0
 10
4.653503430912765
 20
-3.0907035613734286
 30
0.0
 10
4.575719911968804
 20
-2.98792348371286
 30
0.0
 10
4.507642734361604
 20
-2.9099353887932113
 30
0.0
 10
4.452270452531592
 20
-2.854791252292625
 30
0.0
 10
4.361046810934299
 20
-2.775821780773003
 30
0.0
 10
4.325114417778196
 20
-2.7281591268757857
 30
0.0
 10
4.3162581136516
 20
-2.6906883152407075
 30
0.0
 10
4.4883334914902004
 20
-2.392645018092632
 30
0.0
 10
4.525212318329919
 20
-2.3815793966322993
 30
0.0
 10
4.584455583994722
 20
-2.3888664349757396
 30
0.0
 10
4.69845697325279
 20
-2.4283836902648632
 30
0.0
 10
4.773899337247051
 20
-2.4487654247448982
 30
0.0
 10
4.875477597443821
 20
-2.4687279425108577
 30
0.0
 10
5.003379515172667
 20
-2.4847004070817453
 30
0.0
 10
5.157420637903078
 20
-2.4930922639963478
 30
0.0
 10
5.30616278516673
 20
-2.490803099521159
 30
0.0
 10
5.359466684836592
 20
-2.386188306044697
 30
0.0
 10
5.401543356569625
 20
-2.27657482863426
 30
0.0
 10
5.303716614114145
 20
-2.16450612155127
 30
0.0
 10
5.1944066192154725
 20
-2.0556465065895337
 30
0.0
 10
5.096953677055015
 20
-1.9712845231640086
 30
0.0
 10
5.014149512435403
 20
-1.9091546963349681
 30
0.0
 10
4.948522137157699
 20
-1.8667281362620969
 30
0.0
 10
4.842873274652478
 20
-1.8084507987310083
 30
0.0
 10
4.7978164675375785
 20
-1.7693004527930534
 30
0.0
 10
4.7813630751014164
 20
-1.7344897974600106
 30
0.0
 10
4.887711507232651
 20
-1.4071829786852994
 30
0.0
 10
4.921483771156033
 20
-1.3886916283596251
 30
0.0
 10
4.980947489788733
 20
-1.3835020598977816
 30
0.0
 10
5.100673774535471
 20
-1.3984535467502053
 30
0.0
 10
5.178705142747687
 20
-1.402704541973309
 30
0.0
 10
5.282214115067572
 20
-1.401111523002852
 30
0.0
 10
5.4106419311387555
 20
-1.390142646926833
 30
0.0
 10
5.563061650912064
 20
-1.3663241713512067
 30
0.0
 10
5.708077481329404
 20
-1.333159799278666
 30
0.0
  0
LWPOLYLINE
  8
OpenJsCad
  90
31
  70
1
 10
0.08316467632710375
 20
-0.3912590402935223
 30
0.0
 10
2.4492935982947065e-17
 20
-0.4
 30
0.0
 10
-0.08316467632710357
 20
-0.3912590402935223
 30
0.0
 10
-0.16269465723032003
 20
-0.36541818305704044
 30
0.0
 10
-0.23511410091698934
 20
-0.32360679774997897
 30
0.0
 10
-0.29725793019095764
 20
-0.2676522425435434
 30
0.0
 10
-0.34641016151377546
 20
-0.2000000000000001
 30
0.0
 10
-0.3804226065180615
 20
-0.12360679774997893
 30
0.0
 10
-0.39780875814730937
 20
-0.04181138530706122
 30
0.0
 10
-0.3978087581473093
 20
0.04181138530706167
 30
0.0
 10
-0.3804226065180614
 20
0.123606797749979
 30
0.0
 10
-0.34641016151377535
 20
0.20000000000000015
 30
0.0
 10
-0.29725793019095764
 20
0.2676522425435434
 30
0.0
 10
-0.23511410091698925
 20
0.323606797749979
 30
0.0
 10
-0.16269465723032012
 20
0.3654181830570404
 30
0.0
 10
-0.08316467632710366
 20
0.3912590402935223
 30
0.0
 10
2.0212861992297212e-16
 20
0.4
 30
0.0
 10
0.0831646763271037
 20
0.3912590402935223
 30
0.0
 10
0.16269465723032
 20
0.36541818305704044
 30
0.0
 10
0.23511410091698928
 20
0.32360679774997897
 30
0.0
 10
0.2972579301909578
 20
0.2676522425435432
 30
0.0
 10
0.3464101615137755
 20
0.19999999999999996
 30
0.0
 10
0.3804226065180615
 20
0.12360679774997897
 30
0.0
 10
0.39780875814730937
 20
0.04181138530706136
 30
0.0
 10
0.3978087581473093
 20
-0.041811385307061355
 30
0.0
 10
0.3804226065180614
 20
-0.12360679774997896
 30
0.0
 10
0.34641016151377546
 20
-0.20000000000000004
 30
0.0
 10
0.29725793019095764
 20
-0.2676522425435433
 30
0.0
 10
0.23511410091698928
 20
-0.323606797749979
 30
0.0
 10
0.1626946572303201
 20
-0.3654181830570404
 30
0.0
 10
0.08316467632710375
 20
-0.3912590402935223
 30
0.0
  0
ENDSEC
  0
EOF
