999
DXF generated by OpenJsCad
  0
SECTION
  2
HEADER
  0
ENDSEC
  0
SECTION
  2
TABLES
  0
TABLE
  2
LTYPE
  70
1
  0
LTYPE
  2
CONTINUOUS
  3
Solid Line
  72
65
  73
0
  40
0.0
  0
ENDTAB
  0
TABLE
  2
LAYER
  70
1
  0
LAYER
  2
OpenJsCad
  62
7
  6
continuous
  0
ENDTAB
  0
TABLE
  2
STYLE
  70
0
  0
ENDTAB
  0
TABLE
  2
VIEW
  70
0
  0
ENDTAB
  0
ENDSEC
  0
SECTION
  2
BLOCKS
  0
ENDSEC
  0
SECTION
  2
ENTITIES
  0
LWPOLYLINE
  8
OpenJsCad
  90
780
  70
1
 10
7.762616809132204
 20
-1.3244369291588085
 30
0.0
 10
7.790944007468412
 20
-1.203385190592126
 30
0.0
 10
7.800460761798977
 20
-1.0794280005521468
 30
0.0
 10
7.6721981861652235
 20
-0.9991172846241547
 30
0.0
 10
7.544481005348096
 20
-0.9279559830276143
 30
0.0
 10
7.429952820583977
 20
-0.8716041229477419
 30
0.0
 10
7.329749336656135
 20
-0.8285077961268089
 30
0.0
 10
7.244880944953425
 20
-0.7970379975759698
 30
0.0
 10
7.121691062427089
 20
-0.7583893982265517
 30
0.0
 10
7.083483538625281
 20
-0.7371907003446684
 30
0.0
 10
7.065994946799479
 20
-0.7150701696077193
 30
0.0
 10
7.092339430009668
 20
-0.3719292206704772
 30
0.0
 10
7.112999746134185
 20
-0.3527375542039246
 30
0.0
 10
7.153995460006633
 20
-0.3376196472376065
 30
0.0
 10
7.28164129034214
 20
-0.31822884048468114
 30
0.0
 10
7.370318902682755
 20
-0.300082953882774
 30
0.0
 10
7.475926667684913
 20
-0.27278768784663326
 30
0.0
 10
7.597714701764262
 20
-0.23457889311318428
 30
0.0
 10
7.73479781309814
 20
-0.1837475080491083
 30
0.0
 10
7.873816579002774
 20
-0.12395719003997918
 30
0.0
 10
7.883333333333338
 20
3.3306690738754696e-16
 30
0.0
 10
7.87381657900277
 20
0.12395719003998029
 30
0.0
 10
7.734797813098771
 20
0.1837475080488379
 30
0.0
 10
7.597714701763994
 20
0.23457889311324112
 30
0.0
 10
7.475926667684921
 20
0.2727876878466583
 30
0.0
 10
7.370318902682768
 20
0.3000829538828037
 30
0.0
 10
7.28164129034196
 20
0.3182288404846837
 30
0.0
 10
7.153995460006629
 20
0.33761964723759097
 30
0.0
 10
7.11299974613414
 20
0.3527375542037684
 30
0.0
 10
7.092339430009678
 20
0.37192922067052214
 30
0.0
 10
7.065994946799462
 20
0.7150701696077622
 30
0.0
 10
7.083483538625349
 20
0.737190700344521
 30
0.0
 10
7.121691062427094
 20
0.7583893982265368
 30
0.0
 10
7.244880944953603
 20
0.7970379975759999
 30
0.0
 10
7.329749336656119
 20
0.8285077961268366
 30
0.0
 10
7.4299528205839644
 20
0.8716041229477653
 30
0.0
 10
7.544481005348352
 20
0.9279559830277112
 30
0.0
 10
7.672198186164642
 20
0.9991172846237911
 30
0.0
 10
7.8004607617989725
 20
1.0794280005521477
 30
0.0
 10
7.790944007468409
 20
1.2033851905921273
 30
0.0
 10
7.762616809132206
 20
1.324436929158813
 30
0.0
 10
7.61610033500391
 20
1.362305414870332
 30
0.0
 10
7.472864405094912
 20
1.3916154388193722
 30
0.0
 10
7.346671129996949
 20
1.410785586442056
 30
0.0
 10
7.238134440423144
 20
1.4216400137919214
 30
0.0
 10
7.147726135517846
 20
1.4260366642426339
 30
0.0
 10
7.018616267448994
 20
1.4257151743236283
 30
0.0
 10
6.975793268292637
 20
1.4343979394481567
 30
0.0
 10
6.952445488168601
 20
1.4502109052488366
 30
0.0
 10
6.874029530895879
 20
1.7853089211757673
 30
0.0
 10
6.887936480653382
 20
1.8098398296907552
 30
0.0
 10
6.922460262409706
 20
1.8366224389772974
 30
0.0
 10
7.038306730691698
 20
1.8936229405115803
 30
0.0
 10
7.1173766585857186
 20
1.9376790256058796
 30
0.0
 10
7.20982717670452
 20
1.9955662718376668
 30
0.0
 10
7.3144110685726575
 20
2.0687403574254573
 30
0.0
 10
7.429768736401086
 20
2.1585636149576515
 30
0.0
 10
7.544268755702584
 20
2.257512313692083
 30
0.0
 10
7.515941557366376
 20
2.3785640522587688
 30
0.0
 10
7.469467880544498
 20
2.493872989198851
 30
0.0
 10
7.318887920163865
 20
2.5089320374037922
 30
0.0
 10
7.17285650047657
 20
2.5160336981181293
 30
0.0
 10
7.045215847771551
 20
2.5157158666176667
 30
0.0
 10
6.936294241638272
 20
2.5098750367039573
 30
0.0
 10
6.84627433820894
 20
2.500419397243366
 30
0.0
 10
6.71872665828565
 20
2.480393146103667
 30
0.0
 10
6.675080108650561
 20
2.4824372527311973
 30
0.0
 10
6.6495921167043965
 20
2.494500875349883
 30
0.0
 10
6.520942688945359
 20
2.813701544789086
 30
0.0
 10
6.530942029519142
 20
2.8400678473781458
 30
0.0
 10
6.560972861046678
 20
2.871806606407424
 30
0.0
 10
6.666760572054537
 20
2.945822966681949
 30
0.0
 10
6.73817870404679
 20
3.001432701025306
 30
0.0
 10
6.820709294569269
 20
3.072754038679234
 30
0.0
 10
6.912897535756963
 20
3.1610352112281697
 30
0.0
 10
7.013191804636258
 20
3.2674150436705864
 30
0.0
 10
7.111245484198197
 20
3.3826824515777845
 30
0.0
 10
7.0647718073763235
 20
3.4979913885178684
 30
0.0
 10
7.001240955664229
 20
3.604854780080795
 30
0.0
 10
6.850126975676926
 20
3.596751419452694
 30
0.0
 10
6.704722918918312
 20
3.5814782600242716
 30
0.0
 10
6.578626677322444
 20
3.5616798991016534
 30
0.0
 10
6.471873184759783
 20
3.539280716027088
 30
0.0
 10
6.384351673045467
 20
3.516194418829921
 30
0.0
 10
6.2613557907807404
 20
3.4769328048227788
 30
0.0
 10
6.217908728797264
 20
3.4722903408264667
 30
0.0
 10
6.19087794195757
 20
3.4803218591736296
 30
0.0
 10
6.01501047726069
 20
3.7761433889753913
 30
0.0
 10
6.020867832582754
 20
3.8037270818528763
 30
0.0
 10
6.045701816643449
 20
3.839678061013771
 30
0.0
 10
6.1389511960926555
 20
3.9289753992770593
 30
0.0
 10
6.2010435517004465
 20
3.9948353378290915
 30
0.0
 10
6.271719767534439
 20
4.077919055199714
 30
0.0
 10
6.34935154380338
 20
4.1792380788489005
 30
0.0
 10
6.432231601076491
 20
4.299681033092455
 30
0.0
 10
6.511540645756385
 20
4.428565379827196
 30
0.0
 10
6.448009794044291
 20
4.535428771390126
 30
0.0
 10
6.368910876759854
 20
4.631341830250879
 30
0.0
 10
6.220804860778515
 20
4.600265996694764
 30
0.0
 10
6.0794363148002395
 20
4.562976007035655
 30
0.0
 10
5.95784007334231
 20
4.524161173490594
 30
0.0
 10
5.855756905735872
 20
4.485728655121774
 30
0.0
 10
5.772785215791363
 20
4.449552823427295
 30
0.0
 10
5.657224050419009
 20
4.391976105508436
 30
0.0
 10
5.614994838396017
 20
4.3807558863095855
 30
0.0
 10
5.587054835396081
 20
4.384567048402367
 30
0.0
 10
5.368091518075501
 20
4.6500756326348345
 30
0.0
 10
5.369669596701562
 20
4.678230177418552
 30
0.0
 10
5.388724645757343
 20
4.717550716230168
 30
0.0
 10
5.467250007228118
 20
4.820035978558243
 30
0.0
 10
5.518561194263037
 20
4.894602420179586
 30
0.0
 10
5.575726444811778
 20
4.987501105350229
 30
0.0
 10
5.636982133123865
 20
5.0994831480593525
 30
0.0
 10
5.70050534049419
 20
5.231166143339288
 30
0.0
 10
5.759210813503975
 20
5.370646489051422
 30
0.0
 10
5.680111896219536
 20
5.466559547912173
 30
0.0
 10
5.587298924942772
 20
5.54927415326319
 30
0.0
 10
5.44567235245316
 20
5.495954237978966
 30
0.0
 10
5.31165287615453
 20
5.437521463841249
 30
0.0
 10
5.197406747674119
 20
5.380599944474113
 30
0.0
 10
5.102386647950916
 20
5.327034916467713
 30
0.0
 10
5.02590956586497
 20
5.278617481109626
 30
0.0
 10
4.920491773156215
 20
5.204075208747306
 30
0.0
 10
4.880470228031705
 20
5.18654022677412
 30
0.0
 10
4.852275898861
 20
5.186041702203257
 30
0.0
 10
4.595349043490014
 20
5.415014044686664
 30
0.0
 10
4.592610856594593
 20
5.443079522709569
 30
0.0
 10
4.605440336445901
 20
5.484847981068704
 30
0.0
 10
4.6674011120203795
 20
5.5981189997750755
 30
0.0
 10
4.7067284397476765
 20
5.679644170273711
 30
0.0
 10
4.749042819989323
 20
5.7801803568012495
 30
0.0
 10
4.792486638928434
 20
5.900200654400786
 30
0.0
 10
4.835164066254985
 20
6.0400371529170735
 30
0.0
 10
4.871889961063768
 20
6.1868441965211725
 30
0.0
 10
4.779076989787002
 20
6.269558801872186
 30
0.0
 10
4.674725421900001
 20
6.3371361934696795
 30
0.0
 10
4.542897899724157
 20
6.262821970079744
 30
0.0
 10
4.419368796039973
 20
6.184616026163885
 30
0.0
 10
4.315150612958131
 20
6.110922013144199
 30
0.0
 10
4.229420771720375
 20
6.043479994357074
 30
0.0
 10
4.161230855478117
 20
5.98395581898346
 30
0.0
 10
4.068427339146076
 20
5.89419519986275
 30
0.0
 10
4.03155153201708
 20
5.870756460230719
 30
0.0
 10
4.0037637278549605
 20
5.865959933989622
 30
0.0
 10
3.7148954821623574
 20
6.053029117084116
 30
0.0
 10
3.707905210525505
 20
6.080347697328547
 30
0.0
 10
3.7142084090383887
 20
6.123585057972567
 30
0.0
 10
3.758152290652623
 20
6.244986856382823
 30
0.0
 10
3.784573959842666
 20
6.331559874859792
 30
0.0
 10
3.8110456565683593
 20
6.43737707974254
 30
0.0
 10
3.835659319839835
 20
6.562622458181243
 30
0.0
 10
3.8564906443977893
 20
6.7073348109285815
 30
0.0
 10
3.870376137158665
 20
6.858027519750428
 30
0.0
 10
3.7660245692716696
 20
6.925604911347927
 30
0.0
 10
3.652580317081433
 20
6.976461132408813
 30
0.0
 10
3.5336417706073315
 20
6.882894463323607
 30
0.0
 10
3.423498457029536
 20
6.786748430670711
 30
0.0
 10
3.3317510052264674
 20
6.698009249203507
 30
0.0
 10
3.2573208572915258
 20
6.618271023394822
 30
0.0
 10
3.199016420734582
 20
6.549035304226085
 30
0.0
 10
3.121002416545465
 20
6.446160251181603
 30
0.0
 10
3.0881366850766
 20
6.417367138081949
 30
0.0
 10
3.0614067285007764
 20
6.408385036680361
 30
0.0
 10
2.747367919332221
 20
6.549166317286693
 30
0.0
 10
2.7362894089964245
 20
6.575097675385876
 30
0.0
 10
2.735918584540086
 20
6.618790491227573
 30
0.0
 10
2.760815564854145
 20
6.74547751408237
 30
0.0
 10
2.773712273975088
 20
6.835069182360461
 30
0.0
 10
2.783720813049948
 20
6.943687140002472
 30
0.0
 10
2.7889273972482784
 20
7.071221953762798
 30
0.0
 10
2.7874243504458094
 20
7.217418225845291
 30
0.0
 10
2.778143976977273
 20
7.36846449051134
 30
0.0
 10
2.6646997247870328
 20
7.419320711572221
 30
0.0
 10
2.5448218254139925
 20
7.452263735378538
 30
0.0
 10
2.441560073363351
 20
7.341637744017995
 30
0.0
 10
2.3473842158090643
 20
7.229805204143845
 30
0.0
 10
2.270257977793498
 20
7.128100825430871
 30
0.0
 10
2.2088721027448988
 20
7.037935389030597
 30
0.0
 10
2.1618197524496146
 20
6.960610952642579
 30
0.0
 10
2.1004238425400117
 20
6.847032769724836
 30
0.0
 10
2.072338531621205
 20
6.813560169324701
 30
0.0
 10
2.0472929501585537
 20
6.800603025606601
 30
0.0
 10
1.715444381034005
 20
6.89179660982804
 30
0.0
 10
1.7005373028918251
 20
6.9157329367265294
 30
0.0
 10
1.693501147277225
 20
6.958857085194888
 30
0.0
 10
1.6987676621742493
 20
7.087859896053449
 30
0.0
 10
1.6978371232950418
 20
7.1783702613626
 30
0.0
 10
1.6911479130459972
 20
7.287243058897056
 30
0.0
 10
1.67682538025047
 20
7.41407800003796
 30
0.0
 10
1.6530231922307037
 20
7.558331474748209
 30
0.0
 10
1.620794476621171
 20
7.706190898835551
 30
0.0
 10
1.500916577248136
 20
7.739133922641879
 30
0.0
 10
1.3774148670498114
 20
7.753391592636842
 30
0.0
 10
1.2922502773700926
 20
7.628299258476204
 30
0.0
 10
1.2162492781206322
 20
7.503401471330586
 30
0.0
 10
1.1555520275424853
 20
7.39111575980824
 30
0.0
 10
1.108649258263112
 20
7.292636514224919
 30
0.0
 10
1.0739518614406862
 20
7.209035779869401
 30
0.0
 10
1.0306131139021173
 20
7.087416643421585
 30
0.0
 10
1.0079665194173015
 20
7.05004912510429
 30
0.0
 10
0.985192360269656
 20
7.033420643536464
 30
0.0
 10
0.6433122803875886
 20
7.072889031050956
 30
0.0
 10
0.624926043716025
 20
7.094269279533741
 30
0.0
 10
0.6113894784672
 20
7.135813967138994
 30
0.0
 10
0.5969020853016945
 20
7.2641088494525095
 30
0.0
 10
0.5821661094649765
 20
7.353416425542902
 30
0.0
 10
0.5589359393107537
 20
7.459992176871901
 30
0.0
 10
0.5254199975508801
 20
7.58315434187335
 30
0.0
 10
0.4798765714272007
 20
7.7220838400277225
 30
0.0
 10
0.42545492745476754
 20
7.86329072395559
 30
0.0
 10
0.30195321725644353
 20
7.8775483939505575
 30
0.0
 10
0.17772247164468596
 20
7.872786522433719
 30
0.0
 10
0.11265123013582332
 20
7.736159903762368
 30
0.0
 10
0.05660648819813661
 20
7.60112436761752
 30
0.0
 10
0.013760917166356731
 20
7.480889205194931
 30
0.0
 10
-0.01755938518482559
 20
7.376404420477899
 30
0.0
 10
-0.03908855096102515
 20
7.2884869185114765
 30
0.0
 10
-0.06335431261847468
 20
7.161677478012323
 30
0.0
 10
-0.08003137368893919
 20
7.121290904735984
 30
0.0
 10
-0.10000030353364019
 20
7.101380842832734
 30
0.0
 10
-0.4438985148649096
 20
7.0881989280887945
 30
0.0
 10
-0.46533295226172705
 20
7.106521963252497
 30
0.0
 10
-0.4850526415284048
 20
7.145513417728825
 30
0.0
 10
-0.5189543705395859
 20
7.270093248193563
 30
0.0
 10
-0.5471503845498358
 20
7.356104741175231
 30
0.0
 10
-0.5863770191098011
 20
7.4578854010170375
 30
0.0
 10
-0.6383007845659646
 20
7.574487973118809
 30
0.0
 10
-0.704517949486036
 20
7.704837105031749
 30
0.0
 10
-0.7798569246123017
 20
7.836081679122276
 30
0.0
 10
-0.9040876702240583
 20
7.831319807605442
 30
0.0
 10
-1.0261355878652085
 20
7.807650008809191
 30
0.0
 10
-1.0695882664540728
 20
7.6626915177694235
 30
0.0
 10
-1.104363109830287
 20
7.520683351141766
 30
0.0
 10
-1.128352737444937
 20
7.395316948119521
 30
0.0
 10
-1.1433564515266739
 20
7.2872756590653465
 30
0.0
 10
-1.151212760858128
 20
7.197102101218695
 30
0.0
 10
-1.1558367677479136
 20
7.068074662474808
 30
0.0
 10
-1.166153399227357
 20
7.025615661286951
 30
0.0
 10
-1.1828490449784335
 20
7.002890694024304
 30
0.0
 10
-1.5207047051599074
 20
6.937367449931057
 30
0.0
 10
-1.5446849382363843
 20
6.952203795361325
 30
0.0
 10
-1.5701255387181376
 20
6.987728090063425
 30
0.0
 10
-1.6226469757807451
 20
7.105672823042261
 30
0.0
 10
-1.6636421372939598
 20
7.186372196419675
 30
0.0
 10
-1.7179457971925356
 20
7.2809721123728846
 30
0.0
 10
-1.7870603372912395
 20
7.38828202611267
 30
0.0
 10
-1.8723991667850426
 20
7.506995518610938
 30
0.0
 10
-1.9668895913425355
 20
7.625201521285187
 30
0.0
 10
-2.0889375089836855
 20
7.60153172248893
 30
0.0
 10
-2.2059418989077386
 20
7.559508796435448
 30
0.0
 10
-2.2267575206192634
 20
7.409616137196126
 30
0.0
 10
-2.239447372579057
 20
7.2639638911508735
 30
0.0
 10
-2.2440187602379558
 20
7.136404729760176
 30
0.0
 10
-2.2423542117087294
 20
7.0273393326127405
 30
0.0
 10
-2.2363535193634076
 20
6.937023310654221
 30
0.0
 10
-2.221227388683159
 20
6.80880216747117
 30
0.0
 10
-2.2249417774736746
 20
6.765265941373058
 30
0.0
 10
-2.2379728073452942
 20
6.74025872272286
 30
0.0
 10
-2.561866866055498
 20
6.623929958586926
 30
0.0
 10
-2.5878308184730243
 20
6.634931862921578
 30
0.0
 10
-2.6183960240570143
 20
6.666156338490628
 30
0.0
 10
-2.6883061112014066
 20
6.77470144940786
 30
0.0
 10
-2.7411395283776043
 20
6.848197178266668
 30
0.0
 10
-2.809247381852416
 20
6.933399008480509
 30
0.0
 10
-2.8939327103525145
 20
7.028901010431913
 30
0.0
 10
-2.9963929345865523
 20
7.133196319868242
 30
0.0
 10
-3.1078200331100154
 20
7.235593102610289
 30
0.0
 10
-3.2248244230340672
 20
7.193570176556802
 30
0.0
 10
-3.3340428015095194
 20
7.134179105015799
 30
0.0
 10
-3.3317334658132958
 20
6.9828656344663695
 30
0.0
 10
-3.322040886982151
 20
6.836983274201701
 30
0.0
 10
-3.3070868852331015
 20
6.71022123307142
 30
0.0
 10
-3.288793089699632
 20
6.602688128300313
 30
0.0
 10
-3.2690760468201576
 20
6.514346573236325
 30
0.0
 10
-3.2345543222527064
 20
6.3899371205351185
 30
0.0
 10
-3.2315794062292134
 20
6.346344121766895
 30
0.0
 10
-3.240640383925775
 20
6.319640799739174
 30
0.0
 10
-3.5429810389484158
 20
6.155233163196209
 30
0.0
 10
-3.5703201376683507
 20
6.162142751122421
 30
0.0
 10
-3.605293525841555
 20
6.188335532315723
 30
0.0
 10
-3.6909536298781096
 20
6.284936815770019
 30
0.0
 10
-3.7543869321982073
 20
6.3495062225178645
 30
0.0
 10
-3.8347025888893453
 20
6.423312908305847
 30
0.0
 10
-3.9329737534667517
 20
6.504768512486871
 30
0.0
 10
-4.050153791626237
 20
6.5922010452046775
 30
0.0
 10
-4.175905807367511
 20
6.676388514214543
 30
0.0
 10
-4.285124185842966
 20
6.616997442673543
 30
0.0
 10
-4.383996566647562
 20
6.541630302024405
 30
0.0
 10
-4.3586164024150005
 20
6.392442679667187
 30
0.0
 10
-4.326768578625671
 20
6.249749564063553
 30
0.0
 10
-4.292639696595247
 20
6.126755837999256
 30
0.0
 10
-4.258145445119736
 20
6.023275510439482
 30
0.0
 10
-4.225174202479813
 20
5.938979073445891
 30
0.0
 10
-4.172066043989763
 20
5.821297363353286
 30
0.0
 10
-4.162471552662431
 20
5.778669374858368
 30
0.0
 10
-4.167350096546456
 20
5.750895852688765
 30
0.0
 10
-4.441050739179859
 20
5.5422629193938855
 30
0.0
 10
-4.469124178899753
 20
5.544918236026962
 30
0.0
 10
-4.50768600308546
 20
5.565465386253317
 30
0.0
 10
-4.607088323777698
 20
5.647858590035959
 30
0.0
 10
-4.679634688398888
 20
5.701988222505163
 30
0.0
 10
-4.770275617385906
 20
5.762669797708063
 30
0.0
 10
-4.879829225233702
 20
5.828169753795273
 30
0.0
 10
-5.008982476541373
 20
5.89669016533203
 30
0.0
 10
-5.146111888833949
 20
5.960695037690113
 30
0.0
 10
-5.2449842696385485
 20
5.8853278970409795
 30
0.0
 10
-5.331193167966571
 20
5.795751229182297
 30
0.0
 10
-5.283337064736053
 20
5.65218628643978
 30
0.0
 10
-5.230080481985198
 20
5.516027021185851
 30
0.0
 10
-5.177576671741894
 20
5.399684478881838
 30
0.0
 10
-5.127690480342956
 20
5.302682419705538
 30
0.0
 10
-5.082237855924935
 20
5.22440693781913
 30
0.0
 10
-5.0117880737349045
 20
5.116211329877302
 30
0.0
 10
-4.995798893848534
 20
5.075547515576202
 30
0.0
 10
-4.996380654986241
 20
5.047354781084627
 30
0.0
 10
-5.235025974144986
 20
4.7993867301651925
 30
0.0
 10
-5.263175737231748
 20
4.797725537133798
 30
0.0
 10
-5.304422140954534
 20
4.812145448606855
 30
0.0
 10
-5.415236772154929
 20
4.87839934585442
 30
0.0
 10
-5.4951957737779376
 20
4.920820451338053
 30
0.0
 10
-5.5940374285090675
 20
4.9669545912644315
 30
0.0
 10
-5.712305635912634
 20
5.014963635802333
 30
0.0
 10
-5.850404857623059
 20
5.062965865786826
 30
0.0
 10
-5.995697469268296
 20
5.105287921533063
 30
0.0
 10
-6.081906367596324
 20
5.015711253674386
 30
0.0
 10
-6.153431119938238
 20
4.914024659779105
 30
0.0
 10
-6.08422078420854
 20
4.779447437229172
 30
0.0
 10
-6.010803731657651
 20
4.65301348009926
 30
0.0
 10
-5.941155638013404
 20
4.546049092139771
 30
0.0
 10
-5.877046796735854
 20
4.457798947398905
 30
0.0
 10
-5.820178161532237
 20
4.387379131571874
 30
0.0
 10
-5.734038038826295
 20
4.291205639128636
 30
0.0
 10
-5.712028943205619
 20
4.253459124363522
 30
0.0
 10
-5.7083002856090195
 20
4.225507991351403
 30
0.0
 10
-5.9062966372784205
 20
3.9440169837529893
 30
0.0
 10
-5.93386291714393
 20
3.9380782180138163
 30
0.0
 10
-5.9768271196593625
 20
3.9460329002303993
 30
0.0
 10
-6.096456660334702
 20
3.994594555745603
 30
0.0
 10
-6.181954127731593
 20
4.0243128194855915
 30
0.0
 10
-6.28667974359424
 20
4.054818178997058
 30
0.0
 10
-6.410890444011523
 20
4.084211020672261
 30
0.0
 10
-6.5546987074152785
 20
4.110569937518458
 30
0.0
 10
-6.7047489827405204
 20
4.130217183536667
 30
0.0
 10
-6.7762737350824445
 20
4.028530589641389
 30
0.0
 10
-6.831437861864926
 20
3.917117517284853
 30
0.0
 10
-6.74249552524559
 20
3.794682390961712
 30
0.0
 10
-6.650638836381051
 20
3.680937246750488
 30
0.0
 10
-6.5654789516198955
 20
3.5858581677304833
 30
0.0
 10
-6.488650117367147
 20
3.5084284460204214
 30
0.0
 10
-6.421698423987484
 20
3.4475148770506867
 30
0.0
 10
-6.3218870122328745
 20
3.365617725256035
 30
0.0
 10
-6.294373875425198
 20
3.331673256340537
 30
0.0
 10
-6.286422195668093
 20
3.304618875675398
 30
0.0
 10
-6.439128713178944
 20
2.9962028220353982
 30
0.0
 10
-6.46546537958725
 20
2.9861256832239085
 30
0.0
 10
-6.509140336403135
 20
2.9874286851749354
 30
0.0
 10
-6.634780771513289
 20
3.017159854911453
 30
0.0
 10
-6.723812716512571
 20
3.033478705993763
 30
0.0
 10
-6.831967613832231
 20
3.0476402653185133
 30
0.0
 10
-6.959209413721555
 20
3.0577279608343684
 30
0.0
 10
-7.105355975010692
 20
3.061825733872176
 30
0.0
 10
-7.256646862739031
 20
3.058337655367924
 30
0.0
 10
-7.31181098952152
 20
2.946924583011395
 30
0.0
 10
-7.349321490367733
 20
2.828396460180302
 30
0.0
 10
-7.242731885845087
 20
2.7209732056737637
 30
0.0
 10
-7.134588603599765
 20
2.622582964155627
 30
0.0
 10
-7.035913003242331
 20
2.541617767102043
 30
0.0
 10
-6.948164978772166
 20
2.476823355473281
 30
0.0
 10
-6.872699518163655
 20
2.4268437957895457
 30
0.0
 10
-6.761556312255676
 20
2.36114258446874
 30
0.0
 10
-6.729184018868719
 20
2.331795790984241
 30
0.0
 10
-6.717195697585083
 20
2.306272294418642
 30
0.0
 10
-6.8210330695949715
 20
1.978160205633052
 30
0.0
 10
-6.845522813407385
 20
1.9641808933420006
 30
0.0
 10
-6.8888848205531374
 20
1.9588016737661127
 30
0.0
 10
-7.017591244787017
 20
1.969005484304291
 30
0.0
 10
-7.108070834057885
 20
1.9715424226907703
 30
0.0
 10
-7.217119953709224
 20
1.9690282468810127
 30
0.0
 10
-7.344410413126334
 20
1.9595743492045625
 30
0.0
 10
-7.489469720772315
 20
1.9413149301070862
 30
0.0
 10
-7.638455090723607
 20
1.9147732846841552
 30
0.0
 10
-7.675965591569828
 20
1.7962451618530668
 30
0.0
 10
-7.6949432521323695
 20
1.6733801872868013
 30
0.0
 10
-7.573204749695262
 20
1.5834867146347698
 30
0.0
 10
-7.451309660946992
 20
1.5027575596792029
 30
0.0
 10
-7.341431217432096
 20
1.4378040001880574
 30
0.0
 10
-7.24482074206632
 20
1.3871636247319774
 30
0.0
 10
-7.162610360664064
 20
1.3492895528525168
 30
0.0
 10
-7.042740463148586
 20
1.3013242627131532
 30
0.0
 10
-7.0062677923018555
 20
1.27726300862574
 30
0.0
 10
-6.990523825581747
 20
1.2538686452864667
 30
0.0
 10
-7.043058192099237
 20
0.9137511906215099
 30
0.0
 10
-7.06512699447734
 20
0.8961973680826831
 30
0.0
 10
-7.107159683257396
 20
0.8842620113275246
 30
0.0
 10
-7.235915327117465
 20
0.8746992939966971
 30
0.0
 10
-7.325721795774353
 20
0.8633948560017757
 30
0.0
 10
-7.433109118818494
 20
0.8442638752075751
 30
0.0
 10
-7.557464657281041
 20
0.8154899756876036
 30
0.0
 10
-7.698036644059213
 20
0.775301349762522
 30
0.0
 10
-7.841224405435945
 20
0.7263282510939699
 30
0.0
 10
-7.860202065998489
 20
0.6034632765277065
 30
0.0
 10
-7.860202065998489
 20
0.4791413010945755
 30
0.0
 10
-7.726168112963276
 20
0.4088846371058406
 30
0.0
 10
-7.593378335278832
 20
0.34770879168214297
 30
0.0
 10
-7.474872506193814
 20
0.3002893261358245
 30
0.0
 10
-7.371664047591758
 20
0.26498995433232475
 30
0.0
 10
-7.284635687057539
 20
0.24010910640141903
 30
0.0
 10
-7.158848746735311
 20
0.21100400319086876
 30
0.0
 10
-7.11913058692065
 20
0.19279226390297777
 30
0.0
 10
-7.100000000000021
 20
0.17207537783855953
 30
0.0
 10
-7.100000000000008
 20
-0.17207537783860427
 30
0.0
 10
-7.119130586920707
 20
-0.19279226390282622
 30
0.0
 10
-7.158848746735315
 20
-0.2110040031908541
 30
0.0
 10
-7.284635687057718
 20
-0.2401091064014359
 30
0.0
 10
-7.371664047591743
 20
-0.2649899543323542
 30
0.0
 10
-7.474872506193804
 20
-0.3002893261358497
 30
0.0
 10
-7.593378335279094
 20
-0.3477087916822208
 30
0.0
 10
-7.726168112962668
 20
-0.40888463710552353
 30
0.0
 10
-7.860202065998496
 20
-0.47914130109457764
 30
0.0
 10
-7.860202065998497
 20
-0.603463276527711
 30
0.0
 10
-7.841224405435941
 20
-0.7263282510939755
 30
0.0
 10
-7.698036644059863
 20
-0.7753013497623048
 30
0.0
 10
-7.557464657280769
 20
-0.8154899756876439
 30
0.0
 10
-7.4331091188185
 20
-0.8442638752076049
 30
0.0
 10
-7.325721795774363
 20
-0.8633948560018104
 30
0.0
 10
-7.235915327117285
 20
-0.8746992939966897
 30
0.0
 10
-7.107159683257393
 20
-0.8842620113275127
 30
0.0
 10
-7.065126994477307
 20
-0.896197368082528
 30
0.0
 10
-7.043058192099243
 20
-0.9137511906215593
 30
0.0
 10
-6.990523825581726
 20
-1.253868645286512
 30
0.0
 10
-7.0062677923019345
 20
-1.277263008625602
 30
0.0
 10
-7.042740463148593
 20
-1.3013242627131425
 30
0.0
 10
-7.16261036066424
 20
-1.3492895528525641
 30
0.0
 10
-7.244820742066301
 20
-1.3871636247320076
 30
0.0
 10
-7.341431217432082
 20
-1.437804000188084
 30
0.0
 10
-7.451309660947239
 20
-1.5027575596793232
 30
0.0
 10
-7.573204749694709
 20
-1.5834867146343672
 30
0.0
 10
-7.694943252132377
 20
-1.6733801872868086
 30
0.0
 10
-7.675965591569834
 20
-1.7962451618530757
 30
0.0
 10
-7.638455090723606
 20
-1.9147732846841632
 30
0.0
 10
-7.4894697207729894
 20
-1.9413149301069739
 30
0.0
 10
-7.344410413126058
 20
-1.959574349204564
 30
0.0
 10
-7.217119953709226
 20
-1.969028246881046
 30
0.0
 10
-7.108070834057888
 20
-1.971542422690809
 30
0.0
 10
-7.017591244786839
 20
-1.969005484304259
 30
0.0
 10
-6.888884820553137
 20
-1.9588016737661038
 30
0.0
 10
-6.845522813407375
 20
-1.9641808933418448
 30
0.0
 10
-6.82103306959497
 20
-1.9781602056331045
 30
0.0
 10
-6.717195697585056
 20
-2.3062722944186866
 30
0.0
 10
-6.729184018868818
 20
-2.3317957909841196
 30
0.0
 10
-6.761556312255683
 20
-2.3611425844687335
 30
0.0
 10
-6.872699518163819
 20
-2.4268437957896216
 30
0.0
 10
-6.948164978772142
 20
-2.4768233554733112
 30
0.0
 10
-7.035913003242312
 20
-2.54161776710207
 30
0.0
 10
-7.13458860359999
 20
-2.6225829641557863
 30
0.0
 10
-7.2427318858446
 20
-2.720973205673284
 30
0.0
 10
-7.349321490367736
 20
-2.828396460180313
 30
0.0
 10
-7.311810989521517
 20
-2.946924583011398
 30
0.0
 10
-7.256646862739028
 20
-3.058337655367929
 30
0.0
 10
-7.105355975011377
 20
-3.061825733872165
 30
0.0
 10
-6.959209413721283
 20
-3.057727960834325
 30
0.0
 10
-6.831967613832227
 20
-3.047640265318544
 30
0.0
 10
-6.72381271651257
 20
-3.033478705993799
 30
0.0
 10
-6.634780771513118
 20
-3.0171598549113914
 30
0.0
 10
-6.509140336403137
 20
-2.987428685174924
 30
0.0
 10
-6.465465379587264
 20
-2.9861256832237504
 30
0.0
 10
-6.439128713178935
 20
-2.996202822035447
 30
0.0
 10
-6.28642219566806
 20
-3.3046188756754353
 30
0.0
 10
-6.294373875425316
 20
-3.33167325634043
 30
0.0
 10
-6.321887012232883
 20
-3.3656177252560266
 30
0.0
 10
-6.421698423987636
 20
-3.4475148770507844
 30
0.0
 10
-6.4886501173671185
 20
-3.5084284460204445
 30
0.0
 10
-6.565478951619874
 20
-3.585858167730504
 30
0.0
 10
-6.65063883638125
 20
-3.680937246750678
 30
0.0
 10
-6.742495525245184
 20
-3.7946823909611607
 30
0.0
 10
-6.8314378618649325
 20
-3.9171175172848627
 30
0.0
 10
-6.7762737350824445
 20
-4.0285305896413925
 30
0.0
 10
-6.704748982740516
 20
-4.130217183536663
 30
0.0
 10
-6.554698707415959
 20
-4.110569937518548
 30
0.0
 10
-6.4108904440112635
 20
-4.084211020672173
 30
0.0
 10
-6.2866797435942345
 20
-4.054818178997085
 30
0.0
 10
-6.181954127731588
 20
-4.024312819485624
 30
0.0
 10
-6.096456660334547
 20
-3.9945945557455143
 30
0.0
 10
-5.976827119659367
 20
-3.9460329002303847
 30
0.0
 10
-5.933862917143971
 20
-3.93807821801366
 30
0.0
 10
-5.906296637278405
 20
-3.9440169837530346
 30
0.0
 10
-5.708300285608983
 20
-4.2255079913514315
 30
0.0
 10
-5.712028943205753
 20
-4.253459124363431
 30
0.0
 10
-5.734038038826307
 20
-4.291205639128626
 30
0.0
 10
-5.820178161532374
 20
-4.387379131571992
 30
0.0
 10
-5.877046796735826
 20
-4.45779894739892
 30
0.0
 10
-5.941155638013381
 20
-4.5460490921397865
 30
0.0
 10
-6.010803731657822
 20
-4.6530134800994745
 30
0.0
 10
-6.084220784208226
 20
-4.779447437228563
 30
0.0
 10
-6.153431119938237
 20
-4.914024659779102
 30
0.0
 10
-6.081906367596313
 20
-5.0157112536743815
 30
0.0
 10
-5.995697469268289
 20
-5.105287921533062
 30
0.0
 10
-5.850404857623714
 20
-5.062965865787022
 30
0.0
 10
-5.71230563591239
 20
-5.014963635802209
 30
0.0
 10
-5.594037428509056
 20
-4.966954591264459
 30
0.0
 10
-5.495195773777925
 20
-4.920820451338087
 30
0.0
 10
-5.4152367721547865
 20
-4.87839934585431
 30
0.0
 10
-5.304422140954539
 20
-4.812145448606843
 30
0.0
 10
-5.263175737231811
 20
-4.79772553713365
 30
0.0
 10
-5.235025974144964
 20
-4.799386730165236
 30
0.0
 10
-4.996380654986198
 20
-5.0473547810846515
 30
0.0
 10
-4.9957988938486775
 20
-5.075547515576135
 30
0.0
 10
-5.011788073734916
 20
-5.116211329877297
 30
0.0
 10
-5.082237855925052
 20
-5.224406937819269
 30
0.0
 10
-5.127690480342923
 20
-5.302682419705551
 30
0.0
 10
-5.177576671741867
 20
-5.399684478881851
 30
0.0
 10
-5.230080481985331
 20
-5.5160270211860905
 30
0.0
 10
-5.283337064735834
 20
-5.6521862864391315
 30
0.0
 10
-5.331193167966572
 20
-5.7957512291823035
 30
0.0
 10
-5.244984269638547
 20
-5.8853278970409795
 30
0.0
 10
-5.146111888833935
 20
-5.960695037690101
 30
0.0
 10
-5.008982476541992
 20
-5.8966901653323225
 30
0.0
 10
-4.87982922523348
 20
-5.8281697537951125
 30
0.0
 10
-4.77027561738589
 20
-5.762669797708087
 30
0.0
 10
-4.679634688398871
 20
-5.701988222505194
 30
0.0
 10
-4.607088323777574
 20
-5.647858590035828
 30
0.0
 10
-4.5076860030854675
 20
-5.565465386253306
 30
0.0
 10
-4.469124178899836
 20
-5.5449182360268265
 30
0.0
 10
-4.44105073917983
 20
-5.542262919393925
 30
0.0
 10
-4.167350096546411
 20
-5.750895852688782
 30
0.0
 10
-4.162471552662585
 20
-5.778669374858322
 30
0.0
 10
-4.172066043989775
 20
-5.821297363353281
 30
0.0
 10
-4.2251742024799075
 20
-5.9389790734460455
 30
0.0
 10
-4.258145445119702
 20
-6.023275510439489
 30
0.0
 10
-4.292639696595218
 20
-6.126755837999264
 30
0.0
 10
-4.3267685786257655
 20
-6.249749564063809
 30
0.0
 10
-4.3586164024148815
 20
-6.392442679666512
 30
0.0
 10
-4.383996566647559
 20
-6.541630302024409
 30
0.0
 10
-4.2851241858429585
 20
-6.616997442673545
 30
0.0
 10
-4.175905807367503
 20
-6.676388514214547
 30
0.0
 10
-4.050153791626801
 20
-6.592201045205064
 30
0.0
 10
-3.932973753466552
 20
-6.504768512486681
 30
0.0
 10
-3.8347025888893223
 20
-6.423312908305871
 30
0.0
 10
-3.7543869321981824
 20
-6.3495062225178955
 30
0.0
 10
-3.690953629878003
 20
-6.284936815769872
 30
0.0
 10
-3.6052935258415597
 20
-6.188335532315716
 30
0.0
 10
-3.57032013766845
 20
-6.1621427511223015
 30
0.0
 10
-3.5429810389483767
 20
-6.155233163196246
 30
0.0
 10
-3.2406403839257236
 20
-6.319640799739187
 30
0.0
 10
-3.231579406229368
 20
-6.346344121766877
 30
0.0
 10
-3.234554322252715
 20
-6.3899371205351185
 30
0.0
 10
-3.2690760468202225
 20
-6.514346573236494
 30
0.0
 10
-3.2887930896995923
 20
-6.602688128300318
 30
0.0
 10
-3.307086885233068
 20
-6.710221233071426
 30
0.0
 10
-3.322040886982202
 20
-6.836983274201972
 30
0.0
 10
-3.331733465813277
 20
-6.9828656344656865
 30
0.0
 10
-3.3340428015095154
 20
-7.134179105015811
 30
0.0
 10
-3.2248244230340646
 20
-7.19357017655681
 30
0.0
 10
-3.10782003311001
 20
-7.235593102610289
 30
0.0
 10
-2.9963929345870546
 20
-7.1331963198687065
 30
0.0
 10
-2.8939327103523507
 20
-7.028901010431692
 30
0.0
 10
-2.809247381852394
 20
-6.933399008480528
 30
0.0
 10
-2.74113952837758
 20
-6.848197178266692
 30
0.0
 10
-2.6883061112013285
 20
-6.774701449407695
 30
0.0
 10
-2.618396024057025
 20
-6.6661563384906195
 30
0.0
 10
-2.5878308184731464
 20
-6.634931862921472
 30
0.0
 10
-2.561866866055459
 20
-6.623929958586953
 30
0.0
 10
-2.2379728073452463
 20
-6.740258722722863
 30
0.0
 10
-2.224941777473835
 20
-6.76526594137306
 30
0.0
 10
-2.221227388683173
 20
-6.8088021674711685
 30
0.0
 10
-2.236353519363451
 20
-6.9370233106543955
 30
0.0
 10
-2.242354211708695
 20
-7.027339332612736
 30
0.0
 10
-2.244018760237927
 20
-7.136404729760175
 30
0.0
 10
-2.239447372579071
 20
-7.263963891151146
 30
0.0
 10
-2.2267575206193544
 20
-7.409616137195447
 30
0.0
 10
-2.2059418989077324
 20
-7.559508796435446
 30
0.0
 10
-2.0889375089836797
 20
-7.601531722488932
 30
0.0
 10
-1.9668895913425302
 20
-7.625201521285188
 30
0.0
 10
-1.8723991667854665
 20
-7.506995518611475
 30
0.0
 10
-1.7870603372911098
 20
-7.388282026112427
 30
0.0
 10
-1.7179457971925096
 20
-7.2809721123729005
 30
0.0
 10
-1.6636421372939303
 20
-7.186372196419695
 30
0.0
 10
-1.622646975780691
 20
-7.105672823042089
 30
0.0
 10
-1.5701255387181479
 20
-6.987728090063419
 30
0.0
 10
-1.5446849382365189
 20
-6.952203795361241
 30
0.0
 10
-1.520704705159863
 20
-6.937367449931078
 30
0.0
 10
-1.1828490449783837
 20
-7.002890694024299
 30
0.0
 10
-1.1661533992275133
 20
-7.025615661286978
 30
0.0
 10
-1.1558367677479255
 20
-7.068074662474809
 30
0.0
 10
-1.1512127608581424
 20
-7.197102101218875
 30
0.0
 10
-1.143356451526639
 20
-7.2872756590653385
 30
0.0
 10
-1.1283527374449072
 20
-7.395316948119516
 30
0.0
 10
-1.1043631098302573
 20
-7.52068335114204
 30
0.0
 10
-1.0695882664542649
 20
-7.662691517768765
 30
0.0
 10
-1.0261355878652003
 20
-7.807650008809177
 30
0.0
 10
-0.9040876702240489
 20
-7.831319807605433
 30
0.0
 10
-0.7798569246122926
 20
-7.836081679122273
 30
0.0
 10
-0.7045179494863694
 20
-7.704837105032346
 30
0.0
 10
-0.6383007845658701
 20
-7.574487973118551
 30
0.0
 10
-0.5863770191097698
 20
-7.457885401017049
 30
0.0
 10
-0.5471503845498005
 20
-7.356104741175247
 30
0.0
 10
-0.5189543705395557
 20
-7.270093248193384
 30
0.0
 10
-0.485052641528413
 20
-7.145513417728821
 30
0.0
 10
-0.4653329522618699
 20
-7.106521963252435
 30
0.0
 10
-0.44389851486485915
 20
-7.08819892808881
 30
0.0
 10
-0.1000003035335887
 20
-7.101380842832723
 30
0.0
 10
-0.08003137368908649
 20
-7.1212909047360355
 30
0.0
 10
-0.06335431261848307
 20
-7.161677478012327
 30
0.0
 10
-0.039088550961008606
 20
-7.288486918511657
 30
0.0
 10
-0.017559385184788993
 20
-7.376404420477885
 30
0.0
 10
0.0137609171663889
 20
-7.480889205194921
 30
0.0
 10
0.05660648819821101
 20
-7.6011243676177855
 30
0.0
 10
0.11265123013553657
 20
-7.736159903761748
 30
0.0
 10
0.17772247164469507
 20
-7.872786522433717
 30
0.0
 10
0.301953217256448
 20
-7.877548393950551
 30
0.0
 10
0.4254549274547712
 20
-7.863290723955585
 30
0.0
 10
0.4798765714269572
 20
-7.722083840028365
 30
0.0
 10
0.5254199975509292
 20
-7.5831543418730805
 30
0.0
 10
0.5589359393107814
 20
-7.459992176871908
 30
0.0
 10
0.5821661094650091
 20
-7.353416425542914
 30
0.0
 10
0.5969020853016924
 20
-7.264108849452329
 30
0.0
 10
0.6113894784671867
 20
-7.1358139671389935
 30
0.0
 10
0.6249260437158696
 20
-7.094269279533702
 30
0.0
 10
0.643312280387636
 20
-7.072889031050964
 30
0.0
 10
0.9851923602697006
 20
-7.033420643536446
 30
0.0
 10
1.0079665194171594
 20
-7.050049125104365
 30
0.0
 10
1.030613113902105
 20
-7.087416643421592
 30
0.0
 10
1.0739518614407253
 20
-7.209035779869579
 30
0.0
 10
1.1086492582631413
 20
-7.2926365142249026
 30
0.0
 10
1.1555520275425109
 20
-7.391115759808228
 30
0.0
 10
1.2162492781207412
 20
-7.503401471330839
 30
0.0
 10
1.2922502773697093
 20
-7.628299258475637
 30
0.0
 10
1.377414867049816
 20
-7.753391592636847
 30
0.0
 10
1.5009165772481352
 20
-7.739133922641881
 30
0.0
 10
1.6207944766211706
 20
-7.706190898835548
 30
0.0
 10
1.6530231922305574
 20
-7.55833147474888
 30
0.0
 10
1.676825380250474
 20
-7.414078000037686
 30
0.0
 10
1.6911479130460223
 20
-7.28724305889706
 30
0.0
 10
1.6978371232950726
 20
-7.178370261362606
 30
0.0
 10
1.6987676621742165
 20
-7.0878598960532715
 30
0.0
 10
1.6935011472772086
 20
-6.958857085194887
 30
0.0
 10
1.7005373028916622
 20
-6.915732936726514
 30
0.0
 10
1.71544438103405
 20
-6.891796609828041
 30
0.0
 10
2.047292950158592
 20
-6.800603025606578
 30
0.0
 10
2.0723385316210727
 20
-6.813560169324798
 30
0.0
 10
2.100423842539997
 20
-6.847032769724844
 30
0.0
 10
2.161819752449677
 20
-6.960610952642749
 30
0.0
 10
2.208872102744922
 20
-7.037935389030577
 30
0.0
 10
2.270257977793518
 20
-7.128100825430855
 30
0.0
 10
2.3473842158092073
 20
-7.229805204144078
 30
0.0
 10
2.4415600733628824
 20
-7.341637744017493
 30
0.0
 10
2.544821825413994
 20
-7.452263735378542
 30
0.0
 10
2.6646997247870328
 20
-7.419320711572214
 30
0.0
 10
2.7781439769772733
 20
-7.368464490511334
 30
0.0
 10
2.787424350445769
 20
-7.217418225845976
 30
0.0
 10
2.788927397248242
 20
-7.071221953762525
 30
0.0
 10
2.7837208130499755
 20
-6.94368714000247
 30
0.0
 10
2.773712273975122
 20
-6.835069182360462
 30
0.0
 10
2.7608155648540875
 20
-6.745477514082198
 30
0.0
 10
2.735918584540071
 20
-6.618790491227575
 30
0.0
 10
2.736289408996263
 20
-6.575097675385885
 30
0.0
 10
2.7473679193322673
 20
-6.549166317286687
 30
0.0
 10
3.0614067285008115
 20
-6.408385036680331
 30
0.0
 10
3.088136685076485
 20
-6.417367138082063
 30
0.0
 10
3.121002416545454
 20
-6.446160251181613
 30
0.0
 10
3.199016420734671
 20
-6.5490353042262415
 30
0.0
 10
3.2573208572915466
 20
-6.618271023394796
 30
0.0
 10
3.3317510052264865
 20
-6.698009249203487
 30
0.0
 10
3.4234984570297144
 20
-6.786748430670919
 30
0.0
 10
3.5336417706067933
 20
-6.882894463323183
 30
0.0
 10
3.6525803170814344
 20
-6.97646113240881
 30
0.0
 10
3.766024569271684
 20
-6.925604911347926
 30
0.0
 10
3.870376137158675
 20
-6.858027519750422
 30
0.0
 10
3.856490644397863
 20
-6.70733481092926
 30
0.0
 10
3.835659319839767
 20
-6.562622458180975
 30
0.0
 10
3.811045656568395
 20
-6.4373770797425305
 30
0.0
 10
3.7845739598427075
 20
-6.331559874859783
 30
0.0
 10
3.7581522906525477
 20
-6.244986856382658
 30
0.0
 10
3.714208409038383
 20
-6.123585057972567
 30
0.0
 10
3.7079052105253547
 20
-6.080347697328576
 30
0.0
 10
3.7148954821624103
 20
-6.0530291170840975
 30
0.0
 10
4.003763727854998
 20
-5.865959933989582
 30
0.0
 10
4.031551532016991
 20
-5.8707564602308455
 30
0.0
 10
4.068427339146074
 20
-5.894195199862756
 30
0.0
 10
4.1612308554782365
 20
-5.9839558189835955
 30
0.0
 10
4.229420771720399
 20
-6.043479994357041
 30
0.0
 10
4.3151506129581545
 20
-6.110922013144172
 30
0.0
 10
4.419368796040188
 20
-6.184616026164058
 30
0.0
 10
4.5428978997235685
 20
-6.2628219700794
 30
0.0
 10
4.674725421900009
 20
-6.337136193469671
 30
0.0
 10
4.779076989786999
 20
-6.269558801872175
 30
0.0
 10
4.871889961063768
 20
-6.186844196521159
 30
0.0
 10
4.835164066255157
 20
-6.040037152917736
 30
0.0
 10
4.79248663892832
 20
-5.9002006544005345
 30
0.0
 10
4.749042819989352
 20
-5.780180356801237
 30
0.0
 10
4.706728439747711
 20
-5.6796441702737
 30
0.0
 10
4.667401112020276
 20
-5.598118999774927
 30
0.0
 10
4.60544033644589
 20
-5.4848479810687065
 30
0.0
 10
4.592610856594445
 20
-5.443079522709624
 30
0.0
 10
4.595349043490058
 20
-5.415014044686641
 30
0.0
 10
4.852275898861028
 20
-5.186041702203214
 30
0.0
 10
4.880470228031633
 20
-5.186540226774261
 30
0.0
 10
4.9204917731562094
 20
-5.204075208747316
 30
0.0
 10
5.025909565865105
 20
-5.2786174811097455
 30
0.0
 10
5.102386647950931
 20
-5.327034916467678
 30
0.0
 10
5.197406747674134
 20
-5.380599944474087
 30
0.0
 10
5.311652876154766
 20
-5.43752146384139
 30
0.0
 10
5.445672352452522
 20
-5.495954237978719
 30
0.0
 10
5.587298924942775
 20
-5.549274153263181
 30
0.0
 10
5.68011189621954
 20
-5.466559547912171
 30
0.0
 10
5.759210813503982
 20
-5.370646489051424
 30
0.0
 10
5.700505340494457
 20
-5.2311661433399195
 30
0.0
 10
5.636982133123713
 20
-5.099483148059125
 30
0.0
 10
5.575726444811803
 20
-4.9875011053502165
 30
0.0
 10
5.518561194263068
 20
-4.894602420179572
 30
0.0
 10
5.46725000722799
 20
-4.820035978558115
 30
0.0
 10
5.388724645757329
 20
-4.717550716230176
 30
0.0
 10
5.369669596701422
 20
-4.678230177418634
 30
0.0
 10
5.36809151807554
 20
-4.650075632634809
 30
0.0
 10
5.5870548353961
 20
-4.384567048402324
 30
0.0
 10
5.6149948383959645
 20
-4.380755886309738
 30
0.0
 10
5.657224050419003
 20
-4.39197610550845
 30
0.0
 10
5.7727852157915125
 20
-4.449552823427396
 30
0.0
 10
5.85575690573588
 20
-4.485728655121742
 30
0.0
 10
5.957840073342319
 20
-4.524161173490568
 30
0.0
 10
6.079436314800492
 20
-4.562976007035761
 30
0.0
 10
6.220804860777845
 20
-4.600265996694622
 30
0.0
 10
6.368910876759855
 20
-4.631341830250875
 30
0.0
 10
6.448009794044292
 20
-4.535428771390123
 30
0.0
 10
6.511540645756393
 20
-4.428565379827197
 30
0.0
 10
6.432231601076853
 20
-4.2996810330930355
 30
0.0
 10
6.349351543803195
 20
-4.179238078848697
 30
0.0
 10
6.271719767534462
 20
-4.077919055199695
 30
0.0
 10
6.201043551700474
 20
-3.9948353378290706
 30
0.0
 10
6.138951196092511
 20
-3.9289753992769496
 30
0.0
 10
6.045701816643438
 20
-3.839678061013778
 30
0.0
 10
6.020867832582628
 20
-3.803727081852975
 30
0.0
 10
6.0150104772607245
 20
-3.7761433889753566
 30
0.0
 10
6.190877941957582
 20
-3.480321859173581
 30
0.0
 10
6.217908728797237
 20
-3.4722903408266235
 30
0.0
 10
6.261355790780738
 20
-3.4769328048227903
 30
0.0
 10
6.384351673045632
 20
-3.516194418829995
 30
0.0
 10
6.471873184759787
 20
-3.539280716027052
 30
0.0
 10
6.578626677322449
 20
-3.5616798991016227
 30
0.0
 10
6.704722918918579
 20
-3.5814782600243356
 30
0.0
 10
6.850126975676242
 20
-3.596751419452653
 30
0.0
 10
7.001240955664239
 20
-3.604854780080796
 30
0.0
 10
7.064771807376337
 20
-3.4979913885178653
 30
0.0
 10
7.111245484198222
 20
-3.3826824515777854
 30
0.0
 10
7.013191804636706
 20
-3.2674150436711025
 30
0.0
 10
6.91289753575675
 20
-3.161035211227994
 30
0.0
 10
6.82070929456929
 20
-3.0727540386792085
 30
0.0
 10
6.738178704046818
 20
-3.0014327010252786
 30
0.0
 10
6.666760572054378
 20
-2.9458229666818605
 30
0.0
 10
6.560972861046671
 20
-2.871806606407431
 30
0.0
 10
6.530942029519035
 20
-2.84006784737826
 30
0.0
 10
6.520942688945389
 20
-2.813701544789044
 30
0.0
 10
6.649592116704402
 20
-2.4945008753498312
 30
0.0
 10
6.675080108650558
 20
-2.482437252731354
 30
0.0
 10
6.71872665828565
 20
-2.480393146103676
 30
0.0
 10
6.846274338209115
 20
-2.5004193972434123
 30
0.0
 10
6.936294241638271
 20
-2.509875036703919
 30
0.0
 10
7.045215847771553
 20
-2.5157158666176342
 30
0.0
 10
7.172856500476844
 20
-2.5160336981181493
 30
0.0
 10
7.318887920163184
 20
-2.508932037403853
 30
0.0
 10
7.4694678805445
 20
-2.4938729891988434
 30
0.0
 10
7.515941557366368
 20
-2.3785640522587626
 30
0.0
 10
7.544268755702576
 20
-2.257512313692078
 30
0.0
 10
7.429768736401606
 20
-2.158563614958097
 30
0.0
 10
7.3144110685724195
 20
-2.06874035742532
 30
0.0
 10
7.209827176704535
 20
-1.9955662718376428
 30
0.0
 10
7.117376658585739
 20
-1.9376790256058523
 30
0.0
 10
7.038306730691526
 20
-1.8936229405115212
 30
0.0
 10
6.922460262409698
 20
-1.8366224389773087
 30
0.0
 10
6.887936480653291
 20
-1.8098398296908882
 30
0.0
 10
6.8740295308959025
 20
-1.7853089211757251
 30
0.0
 10
6.952445488168598
 20
-1.450210905248788
 30
0.0
 10
6.975793268292658
 20
-1.4343979394483155
 30
0.0
 10
7.018616267448995
 20
-1.4257151743236416
 30
0.0
 10
7.147726135518025
 20
-1.4260366642426567
 30
0.0
 10
7.238134440423137
 20
-1.4216400137918876
 30
0.0
 10
7.3466711299969445
 20
-1.4107855864420276
 30
0.0
 10
7.472864405095185
 20
-1.3916154388193545
 30
0.0
 10
7.616100335003245
 20
-1.3623054148705005
 30
0.0
 10
7.762616809132204
 20
-1.3244369291588085
 30
0.0
  0
LWPOLYLINE
  8
OpenJsCad
  90
31
  70
1
 10
0.08316467632710375
 20
-0.3912590402935223
 30
0.0
 10
2.4492935982947065e-17
 20
-0.4
 30
0.0
 10
-0.08316467632710357
 20
-0.3912590402935223
 30
0.0
 10
-0.16269465723032003
 20
-0.36541818305704044
 30
0.0
 10
-0.23511410091698934
 20
-0.32360679774997897
 30
0.0
 10
-0.29725793019095764
 20
-0.2676522425435434
 30
0.0
 10
-0.34641016151377546
 20
-0.2000000000000001
 30
0.0
 10
-0.3804226065180615
 20
-0.12360679774997893
 30
0.0
 10
-0.39780875814730937
 20
-0.04181138530706122
 30
0.0
 10
-0.3978087581473093
 20
0.04181138530706167
 30
0.0
 10
-0.3804226065180614
 20
0.123606797749979
 30
0.0
 10
-0.34641016151377535
 20
0.20000000000000015
 30
0.0
 10
-0.29725793019095764
 20
0.2676522425435434
 30
0.0
 10
-0.23511410091698925
 20
0.323606797749979
 30
0.0
 10
-0.16269465723032012
 20
0.3654181830570404
 30
0.0
 10
-0.08316467632710366
 20
0.3912590402935223
 30
0.0
 10
2.0212861992297212e-16
 20
0.4
 30
0.0
 10
0.0831646763271037
 20
0.3912590402935223
 30
0.0
 10
0.16269465723032
 20
0.36541818305704044
 30
0.0
 10
0.23511410091698928
 20
0.32360679774997897
 30
0.0
 10
0.2972579301909578
 20
0.2676522425435432
 30
0.0
 10
0.3464101615137755
 20
0.19999999999999996
 30
0.0
 10
0.3804226065180615
 20
0.12360679774997897
 30
0.0
 10
0.39780875814730937
 20
0.04181138530706136
 30
0.0
 10
0.3978087581473093
 20
-0.041811385307061355
 30
0.0
 10
0.3804226065180614
 20
-0.12360679774997896
 30
0.0
 10
0.34641016151377546
 20
-0.20000000000000004
 30
0.0
 10
0.29725793019095764
 20
-0.2676522425435433
 30
0.0
 10
0.23511410091698928
 20
-0.323606797749979
 30
0.0
 10
0.1626946572303201
 20
-0.3654181830570404
 30
0.0
 10
0.08316467632710375
 20
-0.3912590402935223
 30
0.0
  0
ENDSEC
  0
EOF
