999
DXF generated by OpenJsCad
  0
SECTION
  2
HEADER
  0
ENDSEC
  0
SECTION
  2
TABLES
  0
TABLE
  2
LTYPE
  70
1
  0
LTYPE
  2
CONTINUOUS
  3
Solid Line
  72
65
  73
0
  40
0.0
  0
ENDTAB
  0
TABLE
  2
LAYER
  70
1
  0
LAYER
  2
OpenJsCad
  62
7
  6
continuous
  0
ENDTAB
  0
TABLE
  2
STYLE
  70
0
  0
ENDTAB
  0
TABLE
  2
VIEW
  70
0
  0
ENDTAB
  0
ENDSEC
  0
SECTION
  2
BLOCKS
  0
ENDSEC
  0
SECTION
  2
ENTITIES
  0
LWPOLYLINE
  8
OpenJsCad
  90
229
  70
1
 10
2.168742351630049
 20
-1.3605335658361442
 30
0.0
 10
2.222798536380059
 20
-1.2833333333333334
 30
0.0
 10
2.2626278065305527
 20
-1.1979191878567554
 30
0.0
 10
2.213742892894107
 20
-1.0982131890493831
 30
0.0
 10
2.0960672089134964
 20
-0.9369476405659385
 30
0.0
 10
1.9979960839621032
 20
-0.8426319307156199
 30
0.0
 10
1.937813211170933
 20
-0.8022185819876988
 30
0.0
 10
1.9296552680341919
 20
-0.7986065924152087
 30
0.0
 10
1.8584753745716383
 20
-0.7810154466365409
 30
0.0
 10
1.7280844514275964
 20
-0.7093596247056264
 30
0.0
 10
1.6780313385709946
 20
-0.6277726819555888
 30
0.0
 10
1.7671041085266832
 20
-0.29534857891007504
 30
0.0
 10
1.8512448471740186
 20
-0.2497187702996146
 30
0.0
 10
1.9999946100051098
 20
-0.25285846975052106
 30
0.0
 10
2.0704337788716827
 20
-0.2732140373558001
 30
0.0
 10
2.079304759656978
 20
-0.2741649341961956
 30
0.0
 10
2.1516313307308144
 20
-0.26925738394140153
 30
0.0
 10
2.2837212712416117
 20
-0.23661314571079953
 30
0.0
 10
2.4662641772180627
 20
-0.15579092595928565
 30
0.0
 10
2.5584527536928987
 20
-0.09388545490050289
 30
0.0
 10
2.566666666666667
 20
-5.089708088845169e-16
 30
0.0
 10
2.5584527536928987
 20
0.09388545490050253
 30
0.0
 10
2.466264177218242
 20
0.15579092595916502
 30
0.0
 10
2.2837212712416015
 20
0.236613145710754
 30
0.0
 10
2.1516313307308175
 20
0.26925738394139553
 30
0.0
 10
2.0793047596569765
 20
0.2741649341961897
 30
0.0
 10
2.0704337788716844
 20
0.2732140373558001
 30
0.0
 10
1.9999946100051096
 20
0.25285846975052495
 30
0.0
 10
1.8512448471740075
 20
0.2497187702997301
 30
0.0
 10
1.767104108526682
 20
0.2953485789100684
 30
0.0
 10
1.678031338570999
 20
0.6277726819555837
 30
0.0
 10
1.7280844514275484
 20
0.709359624705732
 30
0.0
 10
1.8584753745716367
 20
0.7810154466365445
 30
0.0
 10
1.9296552680341903
 20
0.7986065924152076
 30
0.0
 10
1.9378132111709374
 20
0.8022185819876944
 30
0.0
 10
1.9979960839621034
 20
0.842631930715613
 30
0.0
 10
2.0960672089135284
 20
0.9369476405659042
 30
0.0
 10
2.213742892894012
 20
1.0982131890491893
 30
0.0
 10
2.262627806530553
 20
1.1979191878567554
 30
0.0
 10
2.2227985363800595
 20
1.283333333333333
 30
0.0
 10
2.1687423516300504
 20
1.3605335658361428
 30
0.0
 10
2.057951966934942
 20
1.3680509881688587
 30
0.0
 10
1.8594540632027425
 20
1.3467736306756626
 30
0.0
 10
1.7287387000207077
 20
1.3089994000151974
 30
0.0
 10
1.6636482769747434
 20
1.2770861776692772
 30
0.0
 10
1.656441230678392
 20
1.2718271864564756
 30
0.0
 10
1.6056169048211135
 20
1.2189791633685683
 30
0.0
 10
1.4783656811278665
 20
1.1418852224683809
 30
0.0
 10
1.3826827596609264
 20
1.139331426571093
 30
0.0
 10
1.1393314265710996
 20
1.3826827596609237
 30
0.0
 10
1.1418852224682867
 20
1.4783656811279333
 30
0.0
 10
1.2189791633685654
 20
1.6056169048211153
 30
0.0
 10
1.2718271864564752
 20
1.65644123067839
 30
0.0
 10
1.2770861776692835
 20
1.6636482769747414
 30
0.0
 10
1.3089994000152014
 20
1.7287387000207015
 30
0.0
 10
1.3467736306757074
 20
1.8594540632027283
 30
0.0
 10
1.3680509881688734
 20
2.057951966934726
 30
0.0
 10
1.3605335658361433
 20
2.16874235163005
 30
0.0
 10
1.2833333333333337
 20
2.222798536380059
 30
0.0
 10
1.1979191878567557
 20
2.2626278065305527
 30
0.0
 10
1.0982131890493834
 20
2.213742892894107
 30
0.0
 10
0.9369476405659386
 20
2.0960672089134964
 30
0.0
 10
0.84263193071562
 20
1.9979960839621032
 30
0.0
 10
0.8022185819876989
 20
1.937813211170933
 30
0.0
 10
0.7986065924152088
 20
1.9296552680341919
 30
0.0
 10
0.781015446636541
 20
1.8584753745716383
 30
0.0
 10
0.7093596247056265
 20
1.7280844514275964
 30
0.0
 10
0.6277726819555889
 20
1.6780313385709946
 30
0.0
 10
0.29534857891007515
 20
1.7671041085266832
 30
0.0
 10
0.2497187702996147
 20
1.8512448471740186
 30
0.0
 10
0.2528584697505212
 20
1.9999946100051098
 30
0.0
 10
0.2732140373558002
 20
2.0704337788716827
 30
0.0
 10
0.2741649341961957
 20
2.079304759656978
 30
0.0
 10
0.26925738394140164
 20
2.1516313307308144
 30
0.0
 10
0.23661314571079967
 20
2.2837212712416117
 30
0.0
 10
0.1557909259592858
 20
2.4662641772180627
 30
0.0
 10
0.09388545490050304
 20
2.5584527536928987
 30
0.0
 10
7.310154138095483e-16
 20
2.5666666666666664
 30
0.0
 10
-0.0938854549005023
 20
2.5584527536928983
 30
0.0
 10
-0.1557909259591648
 20
2.466264177218242
 30
0.0
 10
-0.23661314571075379
 20
2.2837212712416015
 30
0.0
 10
-0.2692573839413952
 20
2.1516313307308175
 30
0.0
 10
-0.27416493419618937
 20
2.0793047596569765
 30
0.0
 10
-0.27321403735579974
 20
2.0704337788716844
 30
0.0
 10
-0.2528584697505246
 20
1.9999946100051094
 30
0.0
 10
-0.2497187702997299
 20
1.8512448471740073
 30
0.0
 10
-0.29534857891006816
 20
1.767104108526682
 30
0.0
 10
-0.6277726819555832
 20
1.678031338570999
 30
0.0
 10
-0.7093596247057317
 20
1.7280844514275482
 30
0.0
 10
-0.7810154466365442
 20
1.8584753745716367
 30
0.0
 10
-0.7986065924152074
 20
1.9296552680341903
 30
0.0
 10
-0.8022185819876941
 20
1.9378132111709374
 30
0.0
 10
-0.8426319307156128
 20
1.9979960839621034
 30
0.0
 10
-0.936947640565904
 20
2.0960672089135284
 30
0.0
 10
-1.098213189049189
 20
2.213742892894012
 30
0.0
 10
-1.197919187856755
 20
2.262627806530553
 30
0.0
 10
-1.2833333333333334
 20
2.2227985363800595
 30
0.0
 10
-1.3605335658361433
 20
2.16874235163005
 30
0.0
 10
-1.3680509881688592
 20
2.0579519669349415
 30
0.0
 10
-1.3467736306756632
 20
1.859454063202742
 30
0.0
 10
-1.3089994000151977
 20
1.7287387000207075
 30
0.0
 10
-1.2770861776692777
 20
1.6636482769747432
 30
0.0
 10
-1.2718271864564759
 20
1.6564412306783916
 30
0.0
 10
-1.2189791633685685
 20
1.605616904821113
 30
0.0
 10
-1.141885222468381
 20
1.4783656811278663
 30
0.0
 10
-1.1393314265710934
 20
1.3826827596609261
 30
0.0
 10
-1.382682759660924
 20
1.1393314265710994
 30
0.0
 10
-1.4783656811279335
 20
1.1418852224682865
 30
0.0
 10
-1.6056169048211157
 20
1.2189791633685652
 30
0.0
 10
-1.6564412306783902
 20
1.2718271864564747
 30
0.0
 10
-1.6636482769747416
 20
1.277086177669283
 30
0.0
 10
-1.728738700020702
 20
1.308999400015201
 30
0.0
 10
-1.8594540632027288
 20
1.346773630675707
 30
0.0
 10
-2.057951966934726
 20
1.368050988168873
 30
0.0
 10
-2.16874235163005
 20
1.3605335658361428
 30
0.0
 10
-2.222798536380059
 20
1.2833333333333337
 30
0.0
 10
-2.2626278065305527
 20
1.1979191878567557
 30
0.0
 10
-2.213742892894107
 20
1.0982131890493834
 30
0.0
 10
-2.0960672089134964
 20
0.9369476405659387
 30
0.0
 10
-1.9979960839621032
 20
0.8426319307156201
 30
0.0
 10
-1.937813211170933
 20
0.802218581987699
 30
0.0
 10
-1.9296552680341919
 20
0.7986065924152089
 30
0.0
 10
-1.8584753745716383
 20
0.7810154466365411
 30
0.0
 10
-1.7280844514275964
 20
0.7093596247056266
 30
0.0
 10
-1.6780313385709946
 20
0.627772681955589
 30
0.0
 10
-1.7671041085266832
 20
0.29534857891007527
 30
0.0
 10
-1.8512448471740186
 20
0.2497187702996148
 30
0.0
 10
-1.9999946100051098
 20
0.2528584697505213
 30
0.0
 10
-2.0704337788716827
 20
0.27321403735580035
 30
0.0
 10
-2.079304759656978
 20
0.27416493419619586
 30
0.0
 10
-2.1516313307308144
 20
0.2692573839414018
 30
0.0
 10
-2.2837212712416117
 20
0.2366131457107998
 30
0.0
 10
-2.4662641772180627
 20
0.15579092595928595
 30
0.0
 10
-2.5584527536928987
 20
0.0938854549005032
 30
0.0
 10
-2.566666666666667
 20
-1.57163005890577e-16
 30
0.0
 10
-2.5584527536928987
 20
-0.09388545490050319
 30
0.0
 10
-2.466264177218242
 20
-0.15579092595916558
 30
0.0
 10
-2.283721271241601
 20
-0.23661314571075456
 30
0.0
 10
-2.1516313307308175
 20
-0.269257383941396
 30
0.0
 10
-2.0793047596569765
 20
-0.27416493419619015
 30
0.0
 10
-2.0704337788716844
 20
-0.2732140373558005
 30
0.0
 10
-1.9999946100051094
 20
-0.2528584697505254
 30
0.0
 10
-1.8512448471740077
 20
-0.24971877029973044
 30
0.0
 10
-1.767104108526682
 20
-0.2953485789100688
 30
0.0
 10
-1.6780313385709988
 20
-0.627772681955584
 30
0.0
 10
-1.7280844514275482
 20
-0.7093596247057323
 30
0.0
 10
-1.8584753745716367
 20
-0.7810154466365449
 30
0.0
 10
-1.92965526803419
 20
-0.7986065924152081
 30
0.0
 10
-1.9378132111709372
 20
-0.8022185819876948
 30
0.0
 10
-1.9979960839621034
 20
-0.8426319307156135
 30
0.0
 10
-2.096067208913528
 20
-0.9369476405659047
 30
0.0
 10
-2.213742892894012
 20
-1.0982131890491897
 30
0.0
 10
-2.262627806530553
 20
-1.1979191878567559
 30
0.0
 10
-2.22279853638006
 20
-1.283333333333332
 30
0.0
 10
-2.168742351630051
 20
-1.360533565836142
 30
0.0
 10
-2.0579519669349424
 20
-1.3680509881688578
 30
0.0
 10
-1.859454063202743
 20
-1.346773630675662
 30
0.0
 10
-1.7287387000207082
 20
-1.3089994000151965
 30
0.0
 10
-1.6636482769747438
 20
-1.2770861776692766
 30
0.0
 10
-1.6564412306783924
 20
-1.2718271864564747
 30
0.0
 10
-1.6056169048211137
 20
-1.2189791633685676
 30
0.0
 10
-1.4783656811278667
 20
-1.1418852224683802
 30
0.0
 10
-1.3826827596609268
 20
-1.1393314265710925
 30
0.0
 10
-1.1393314265711003
 20
-1.382682759660923
 30
0.0
 10
-1.1418852224682874
 20
-1.4783656811279329
 30
0.0
 10
-1.218979163368566
 20
-1.6056169048211149
 30
0.0
 10
-1.2718271864564756
 20
-1.6564412306783893
 30
0.0
 10
-1.2770861776692841
 20
-1.663648276974741
 30
0.0
 10
-1.3089994000152019
 20
-1.728738700020701
 30
0.0
 10
-1.346773630675708
 20
-1.8594540632027277
 30
0.0
 10
-1.3680509881688743
 20
-2.0579519669347257
 30
0.0
 10
-1.3605335658361442
 20
-2.168742351630049
 30
0.0
 10
-1.2833333333333339
 20
-2.2227985363800586
 30
0.0
 10
-1.1979191878567559
 20
-2.2626278065305527
 30
0.0
 10
-1.0982131890493836
 20
-2.213742892894107
 30
0.0
 10
-0.9369476405659388
 20
-2.0960672089134964
 30
0.0
 10
-0.8426319307156203
 20
-1.997996083962103
 30
0.0
 10
-0.8022185819876991
 20
-1.9378132111709327
 30
0.0
 10
-0.798606592415209
 20
-1.9296552680341916
 30
0.0
 10
-0.7810154466365412
 20
-1.858475374571638
 30
0.0
 10
-0.7093596247056267
 20
-1.7280844514275961
 30
0.0
 10
-0.6277726819555891
 20
-1.6780313385709944
 30
0.0
 10
-0.2953485789100754
 20
-1.7671041085266832
 30
0.0
 10
-0.24971877029961492
 20
-1.8512448471740186
 30
0.0
 10
-0.25285846975052145
 20
-1.9999946100051098
 30
0.0
 10
-0.27321403735580047
 20
-2.0704337788716827
 30
0.0
 10
-0.274164934196196
 20
-2.079304759656978
 30
0.0
 10
-0.2692573839414019
 20
-2.1516313307308144
 30
0.0
 10
-0.23661314571079994
 20
-2.2837212712416117
 30
0.0
 10
-0.1557909259592861
 20
-2.4662641772180627
 30
0.0
 10
-0.09388545490050336
 20
-2.5584527536928987
 30
0.0
 10
1.57163005890577e-16
 20
-2.566666666666667
 30
0.0
 10
0.09388545490050319
 20
-2.5584527536928987
 30
0.0
 10
0.15579092595916558
 20
-2.466264177218242
 30
0.0
 10
0.23661314571075456
 20
-2.283721271241601
 30
0.0
 10
0.269257383941396
 20
-2.1516313307308175
 30
0.0
 10
0.27416493419619015
 20
-2.0793047596569765
 30
0.0
 10
0.2732140373558005
 20
-2.0704337788716844
 30
0.0
 10
0.2528584697505254
 20
-1.9999946100051094
 30
0.0
 10
0.24971877029973044
 20
-1.8512448471740077
 30
0.0
 10
0.2953485789100688
 20
-1.767104108526682
 30
0.0
 10
0.627772681955584
 20
-1.6780313385709988
 30
0.0
 10
0.7093596247057323
 20
-1.7280844514275482
 30
0.0
 10
0.7810154466365449
 20
-1.8584753745716367
 30
0.0
 10
0.7986065924152081
 20
-1.92965526803419
 30
0.0
 10
0.8022185819876948
 20
-1.9378132111709372
 30
0.0
 10
0.8426319307156135
 20
-1.9979960839621034
 30
0.0
 10
0.9369476405659047
 20
-2.096067208913528
 30
0.0
 10
1.0982131890491897
 20
-2.213742892894012
 30
0.0
 10
1.1979191878567559
 20
-2.262627806530553
 30
0.0
 10
1.283333333333332
 20
-2.22279853638006
 30
0.0
 10
1.360533565836142
 20
-2.168742351630051
 30
0.0
 10
1.3680509881688578
 20
-2.0579519669349424
 30
0.0
 10
1.346773630675662
 20
-1.859454063202743
 30
0.0
 10
1.3089994000151965
 20
-1.7287387000207082
 30
0.0
 10
1.2770861776692766
 20
-1.6636482769747438
 30
0.0
 10
1.2718271864564747
 20
-1.6564412306783924
 30
0.0
 10
1.2189791633685676
 20
-1.6056169048211137
 30
0.0
 10
1.1418852224683802
 20
-1.4783656811278667
 30
0.0
 10
1.1393314265710925
 20
-1.3826827596609268
 30
0.0
 10
1.382682759660923
 20
-1.1393314265711003
 30
0.0
 10
1.4783656811279329
 20
-1.1418852224682874
 30
0.0
 10
1.6056169048211149
 20
-1.218979163368566
 30
0.0
 10
1.6564412306783893
 20
-1.2718271864564756
 30
0.0
 10
1.663648276974741
 20
-1.2770861776692841
 30
0.0
 10
1.728738700020701
 20
-1.3089994000152019
 30
0.0
 10
1.8594540632027277
 20
-1.346773630675708
 30
0.0
 10
2.0579519669347257
 20
-1.3680509881688743
 30
0.0
 10
2.168742351630049
 20
-1.3605335658361442
 30
0.0
  0
LWPOLYLINE
  8
OpenJsCad
  90
31
  70
1
 10
0.08316467632710375
 20
-0.3912590402935223
 30
0.0
 10
2.4492935982947065e-17
 20
-0.4
 30
0.0
 10
-0.08316467632710357
 20
-0.3912590402935223
 30
0.0
 10
-0.16269465723032003
 20
-0.36541818305704044
 30
0.0
 10
-0.23511410091698934
 20
-0.32360679774997897
 30
0.0
 10
-0.29725793019095764
 20
-0.2676522425435434
 30
0.0
 10
-0.34641016151377546
 20
-0.2000000000000001
 30
0.0
 10
-0.3804226065180615
 20
-0.12360679774997893
 30
0.0
 10
-0.39780875814730937
 20
-0.04181138530706122
 30
0.0
 10
-0.3978087581473093
 20
0.04181138530706167
 30
0.0
 10
-0.3804226065180614
 20
0.123606797749979
 30
0.0
 10
-0.34641016151377535
 20
0.20000000000000015
 30
0.0
 10
-0.29725793019095764
 20
0.2676522425435434
 30
0.0
 10
-0.23511410091698925
 20
0.323606797749979
 30
0.0
 10
-0.16269465723032012
 20
0.3654181830570404
 30
0.0
 10
-0.08316467632710366
 20
0.3912590402935223
 30
0.0
 10
2.0212861992297212e-16
 20
0.4
 30
0.0
 10
0.0831646763271037
 20
0.3912590402935223
 30
0.0
 10
0.16269465723032
 20
0.36541818305704044
 30
0.0
 10
0.23511410091698928
 20
0.32360679774997897
 30
0.0
 10
0.2972579301909578
 20
0.2676522425435432
 30
0.0
 10
0.3464101615137755
 20
0.19999999999999996
 30
0.0
 10
0.3804226065180615
 20
0.12360679774997897
 30
0.0
 10
0.39780875814730937
 20
0.04181138530706136
 30
0.0
 10
0.3978087581473093
 20
-0.041811385307061355
 30
0.0
 10
0.3804226065180614
 20
-0.12360679774997896
 30
0.0
 10
0.34641016151377546
 20
-0.20000000000000004
 30
0.0
 10
0.29725793019095764
 20
-0.2676522425435433
 30
0.0
 10
0.23511410091698928
 20
-0.323606797749979
 30
0.0
 10
0.1626946572303201
 20
-0.3654181830570404
 30
0.0
 10
0.08316467632710375
 20
-0.3912590402935223
 30
0.0
  0
ENDSEC
  0
EOF
