999
DXF generated by OpenJsCad
  0
SECTION
  2
HEADER
  0
ENDSEC
  0
SECTION
  2
TABLES
  0
TABLE
  2
LTYPE
  70
1
  0
LTYPE
  2
CONTINUOUS
  3
Solid Line
  72
65
  73
0
  40
0.0
  0
ENDTAB
  0
TABLE
  2
LAYER
  70
1
  0
LAYER
  2
OpenJsCad
  62
7
  6
continuous
  0
ENDTAB
  0
TABLE
  2
STYLE
  70
0
  0
ENDTAB
  0
TABLE
  2
VIEW
  70
0
  0
ENDTAB
  0
ENDSEC
  0
SECTION
  2
BLOCKS
  0
ENDSEC
  0
SECTION
  2
ENTITIES
  0
LWPOLYLINE
  8
OpenJsCad
  90
267
  70
1
 10
2.593499613802267
 20
-1.3581891762804685
 30
0.0
 10
2.642842012513763
 20
-1.2727256347448377
 30
0.0
 10
2.67889561749367
 20
-1.1808625474335013
 30
0.0
 10
2.614007473395659
 20
-1.0791921176339492
 30
0.0
 10
2.4898596997937417
 20
-0.9369704702032273
 30
0.0
 10
2.3874245361470305
 20
-0.8500674930655528
 30
0.0
 10
2.3194908106868506
 20
-0.808047085566867
 30
0.0
 10
2.2961146123377474
 20
-0.7980437569892754
 30
0.0
 10
2.2142359650992303
 20
-0.7767220602360735
 30
0.0
 10
2.102434658814787
 20
-0.7151626920252984
 30
0.0
 10
2.057804637403396
 20
-0.6461810968601523
 30
0.0
 10
2.1343853849784544
 20
-0.31065891915199095
 30
0.0
 10
2.204525637284484
 20
-0.26787289001684744
 30
0.0
 10
2.331964742494596
 20
-0.2609185845400864
 30
0.0
 10
2.414985992114074
 20
-0.27723421317233765
 30
0.0
 10
2.4403875006833937
 20
-0.2783640778945902
 30
0.0
 10
2.5198256439284217
 20
-0.2699803377365498
 30
0.0
 10
2.6498223260135307
 20
-0.23612841262760176
 30
0.0
 10
2.823383265219099
 20
-0.1618568361641916
 30
0.0
 10
2.9259586091863556
 20
-0.09840885471426421
 30
0.0
 10
2.9333333333333336
 20
-4.865189509001487e-16
 30
0.0
 10
2.9259586091863565
 20
0.0984088547142647
 30
0.0
 10
2.823383265218964
 20
0.16185683616427576
 30
0.0
 10
2.6498223260135374
 20
0.23612841262763035
 30
0.0
 10
2.5198256439284195
 20
0.2699803377365568
 30
0.0
 10
2.440387500683394
 20
0.27836407789459755
 30
0.0
 10
2.414985992114073
 20
0.2772342131723436
 30
0.0
 10
2.331964742494595
 20
0.26091858454009925
 30
0.0
 10
2.2045256372844824
 20
0.2678728900168278
 30
0.0
 10
2.1343853849784535
 20
0.3106589191520014
 30
0.0
 10
2.0578046374033923
 20
0.6461810968601621
 30
0.0
 10
2.102434658814797
 20
0.7151626920252815
 30
0.0
 10
2.2142359650992263
 20
0.7767220602360857
 30
0.0
 10
2.296114612337746
 20
0.7980437569892811
 30
0.0
 10
2.3194908106868475
 20
0.8080470855668734
 30
0.0
 10
2.38742453614703
 20
0.8500674930655602
 30
0.0
 10
2.4898596997937235
 20
0.9369704702032501
 30
0.0
 10
2.614007473395745
 20
1.079192117634084
 30
0.0
 10
2.6788956174936693
 20
1.1808625474335017
 30
0.0
 10
2.6428420125137633
 20
1.2727256347448368
 30
0.0
 10
2.5934996138022663
 20
1.3581891762804712
 30
0.0
 10
2.4735533748422713
 20
1.3708480585163392
 30
0.0
 10
2.284955142628202
 20
1.36245916741265
 30
0.0
 10
2.1531443792963136
 20
1.3365552515583894
 30
0.0
 10
2.0779355167810127
 20
1.3096418218176598
 30
0.0
 10
2.0555397782926867
 20
1.297602547360684
 30
0.0
 10
1.9878193029681925
 20
1.2468811036916632
 30
0.0
 10
1.8699832765573317
 20
1.1978529609457196
 30
0.0
 10
1.788224930539617
 20
1.2059691262444878
 30
0.0
 10
1.5736504440729102
 20
1.4750370217480782
 30
0.0
 10
1.5839307114978687
 20
1.5565515320169756
 30
0.0
 10
1.6579505989939445
 20
1.6605233751115678
 30
0.0
 10
1.722469573590208
 20
1.7152593737147894
 30
0.0
 10
1.739190518945793
 20
1.7344146136846605
 30
0.0
 10
1.7821647191412735
 20
1.8017490314724003
 30
0.0
 10
1.8367498239044853
 20
1.9244908602216413
 30
0.0
 10
1.8868954427685551
 20
2.106493837112181
 30
0.0
 10
1.9012444942576907
 20
2.2262496397333216
 30
0.0
 10
1.8289034187856188
 20
2.293372348572887
 30
0.0
 10
1.747366212719222
 20
2.3489634743872054
 30
0.0
 10
1.633805902436735
 20
2.3083260105311147
 30
0.0
 10
1.467524570109546
 20
2.2189381746264654
 30
0.0
 10
1.3600064637616942
 20
2.1384090060346335
 30
0.0
 10
1.3039229195734399
 20
2.0815289412268396
 30
0.0
 10
1.2889687018394291
 20
2.0609647829933575
 30
0.0
 10
1.2499618714850615
 20
1.9858835282638938
 30
0.0
 10
1.1650677940681482
 20
1.8905835622568232
 30
0.0
 10
1.0878845974678677
 20
1.8624223576435304
 30
0.0
 10
0.777815480737626
 20
2.0117437743368822
 30
0.0
 10
0.7517098611334191
 20
2.08964625124094
 30
0.0
 10
0.7732877833281969
 20
2.2154376705634613
 30
0.0
 10
0.8076683110901183
 20
2.2927468352003717
 30
0.0
 10
0.8144222151555761
 20
2.3172600563628873
 30
0.0
 10
0.8239253226936619
 20
2.396572077194377
 30
0.0
 10
0.8198491191326603
 20
2.530842233041639
 30
0.0
 10
0.7860606284470935
 20
2.716578617698686
 30
0.0
 10
0.7470285817004487
 20
2.8307006877238967
 30
0.0
 10
0.6527280729385229
 20
2.859788542400016
 30
0.0
 10
0.5551455031668842
 20
2.8744967482450763
 30
0.0
 10
0.47046313373915966
 20
2.7886116863995127
 30
0.0
 10
0.35943275847296213
 20
2.6359292628646838
 30
0.0
 10
0.29750258869437846
 20
2.516724631000333
 30
0.0
 10
0.27165239657918633
 20
2.441143725548874
 30
0.0
 10
0.26710156582315664
 20
2.416127667279877
 30
0.0
 10
0.26453416157797793
 20
2.3315573648003016
 30
0.0
 10
0.22939634634496517
 20
2.2088609025771864
 30
0.0
 10
0.1720753778385906
 20
2.150000000000004
 30
0.0
 10
-0.1720753778386008
 20
2.1500000000000026
 30
0.0
 10
-0.22939634634494618
 20
2.208860902577192
 30
0.0
 10
-0.26453416157799053
 20
2.3315573648003003
 30
0.0
 10
-0.26710156582316236
 20
2.4161276672798766
 30
0.0
 10
-0.27165239657919305
 20
2.4411437255488724
 30
0.0
 10
-0.2975025886943855
 20
2.5167246310003337
 30
0.0
 10
-0.35943275847298817
 20
2.6359292628646713
 30
0.0
 10
-0.47046313373927146
 20
2.7886116863996264
 30
0.0
 10
-0.5551455031668845
 20
2.8744967482450754
 30
0.0
 10
-0.652728072938523
 20
2.8597885424000165
 30
0.0
 10
-0.7470285817004504
 20
2.8307006877238967
 30
0.0
 10
-0.7860606284471461
 20
2.716578617698535
 30
0.0
 10
-0.8198491191326907
 20
2.530842233041639
 30
0.0
 10
-0.823925322693669
 20
2.396572077194373
 30
0.0
 10
-0.814422215155584
 20
2.3172600563628856
 30
0.0
 10
-0.8076683110901244
 20
2.292746835200369
 30
0.0
 10
-0.7732877833282097
 20
2.2154376705634564
 30
0.0
 10
-0.7517098611334002
 20
2.089646251240943
 30
0.0
 10
-0.7778154807376365
 20
2.0117437743368787
 30
0.0
 10
-1.0878845974678772
 20
1.8624223576435244
 30
0.0
 10
-1.1650677940681349
 20
1.8905835622568365
 30
0.0
 10
-1.2499618714850735
 20
1.9858835282638867
 30
0.0
 10
-1.2889687018394353
 20
2.060964782993355
 30
0.0
 10
-1.3039229195734463
 20
2.0815289412268347
 30
0.0
 10
-1.3600064637617022
 20
2.138409006034631
 30
0.0
 10
-1.4675245701095652
 20
2.218938174626442
 30
0.0
 10
-1.633805902436886
 20
2.3083260105311676
 30
0.0
 10
-1.747366212719223
 20
2.348963474387204
 30
0.0
 10
-1.8289034187856181
 20
2.2933723485728885
 30
0.0
 10
-1.9012444942576912
 20
2.2262496397333216
 30
0.0
 10
-1.8868954427685363
 20
2.106493837112023
 30
0.0
 10
-1.8367498239045115
 20
1.9244908602216284
 30
0.0
 10
-1.7821647191412768
 20
1.8017490314723945
 30
0.0
 10
-1.7391905189457981
 20
1.7344146136846565
 30
0.0
 10
-1.7224695735902114
 20
1.7152593737147854
 30
0.0
 10
-1.657950598993953
 20
1.660523375111559
 30
0.0
 10
-1.5839307114978518
 20
1.5565515320169871
 30
0.0
 10
-1.5736504440729173
 20
1.4750370217480713
 30
0.0
 10
-1.7882249305396218
 20
1.2059691262444794
 30
0.0
 10
-1.8699832765573243
 20
1.197852960945738
 30
0.0
 10
-1.987819302968199
 20
1.2468811036916525
 30
0.0
 10
-2.0555397782926894
 20
1.2976025473606794
 30
0.0
 10
-2.077935516781015
 20
1.3096418218176533
 30
0.0
 10
-2.1531443792963185
 20
1.3365552515583845
 30
0.0
 10
-2.284955142628208
 20
1.3624591674126216
 30
0.0
 10
-2.4735533748424294
 20
1.370848058516322
 30
0.0
 10
-2.593499613802266
 20
1.3581891762804705
 30
0.0
 10
-2.642842012513763
 20
1.272725634744838
 30
0.0
 10
-2.67889561749367
 20
1.1808625474335015
 30
0.0
 10
-2.614007473395659
 20
1.0791921176339494
 30
0.0
 10
-2.4898596997937417
 20
0.9369704702032277
 30
0.0
 10
-2.3874245361470305
 20
0.8500674930655532
 30
0.0
 10
-2.3194908106868506
 20
0.8080470855668673
 30
0.0
 10
-2.2961146123377474
 20
0.7980437569892758
 30
0.0
 10
-2.2142359650992303
 20
0.7767220602360737
 30
0.0
 10
-2.102434658814787
 20
0.7151626920252986
 30
0.0
 10
-2.057804637403396
 20
0.6461810968601526
 30
0.0
 10
-2.1343853849784544
 20
0.31065891915199123
 30
0.0
 10
-2.204525637284484
 20
0.2678728900168477
 30
0.0
 10
-2.331964742494596
 20
0.26091858454008665
 30
0.0
 10
-2.414985992114074
 20
0.27723421317233793
 30
0.0
 10
-2.4403875006833937
 20
0.2783640778945905
 30
0.0
 10
-2.5198256439284217
 20
0.2699803377365501
 30
0.0
 10
-2.6498223260135307
 20
0.2361284126276021
 30
0.0
 10
-2.823383265219099
 20
0.16185683616419194
 30
0.0
 10
-2.9259586091863556
 20
0.09840885471426457
 30
0.0
 10
-2.9333333333333336
 20
9.306081607502113e-16
 30
0.0
 10
-2.925958609186356
 20
-0.09840885471426448
 30
0.0
 10
-2.823383265218964
 20
-0.16185683616427554
 30
0.0
 10
-2.6498223260135374
 20
-0.23612841262763012
 30
0.0
 10
-2.5198256439284195
 20
-0.26998033773655655
 30
0.0
 10
-2.440387500683394
 20
-0.27836407789459733
 30
0.0
 10
-2.414985992114073
 20
-0.27723421317234337
 30
0.0
 10
-2.331964742494595
 20
-0.26091858454009903
 30
0.0
 10
-2.2045256372844824
 20
-0.26787289001682757
 30
0.0
 10
-2.1343853849784535
 20
-0.31065891915200117
 30
0.0
 10
-2.0578046374033923
 20
-0.6461810968601619
 30
0.0
 10
-2.102434658814797
 20
-0.7151626920252813
 30
0.0
 10
-2.2142359650992263
 20
-0.7767220602360853
 30
0.0
 10
-2.2961146123377456
 20
-0.7980437569892809
 30
0.0
 10
-2.3194908106868475
 20
-0.8080470855668732
 30
0.0
 10
-2.38742453614703
 20
-0.8500674930655597
 30
0.0
 10
-2.4898596997937235
 20
-0.9369704702032499
 30
0.0
 10
-2.614007473395745
 20
-1.0791921176340837
 30
0.0
 10
-2.6788956174936693
 20
-1.1808625474335013
 30
0.0
 10
-2.6428420125137624
 20
-1.272725634744839
 30
0.0
 10
-2.5934996138022655
 20
-1.3581891762804728
 30
0.0
 10
-2.47355337484227
 20
-1.370848058516341
 30
0.0
 10
-2.284955142628201
 20
-1.3624591674126518
 30
0.0
 10
-2.1531443792963127
 20
-1.336555251558391
 30
0.0
 10
-2.0779355167810114
 20
-1.3096418218176613
 30
0.0
 10
-2.0555397782926854
 20
-1.2976025473606856
 30
0.0
 10
-1.9878193029681914
 20
-1.2468811036916647
 30
0.0
 10
-1.8699832765573308
 20
-1.197852960945721
 30
0.0
 10
-1.788224930539616
 20
-1.2059691262444892
 30
0.0
 10
-1.573650444072909
 20
-1.4750370217480793
 30
0.0
 10
-1.5839307114978676
 20
-1.556551532016977
 30
0.0
 10
-1.657950598993943
 20
-1.6605233751115689
 30
0.0
 10
-1.7224695735902062
 20
-1.7152593737147908
 30
0.0
 10
-1.7391905189457915
 20
-1.7344146136846619
 30
0.0
 10
-1.7821647191412722
 20
-1.8017490314724016
 30
0.0
 10
-1.8367498239044837
 20
-1.9244908602216424
 30
0.0
 10
-1.8868954427685531
 20
-2.1064938371121826
 30
0.0
 10
-1.9012444942576887
 20
-2.226249639733323
 30
0.0
 10
-1.8289034187856172
 20
-2.2933723485728885
 30
0.0
 10
-1.7473662127192202
 20
-2.3489634743872063
 30
0.0
 10
-1.6338059024367328
 20
-2.3083260105311156
 30
0.0
 10
-1.4675245701095443
 20
-2.2189381746264663
 30
0.0
 10
-1.3600064637616927
 20
-2.1384090060346344
 30
0.0
 10
-1.303922919573438
 20
-2.08152894122684
 30
0.0
 10
-1.2889687018394276
 20
-2.060964782993359
 30
0.0
 10
-1.2499618714850602
 20
-1.985883528263895
 30
0.0
 10
-1.1650677940681466
 20
-1.8905835622568243
 30
0.0
 10
-1.0878845974678661
 20
-1.8624223576435313
 30
0.0
 10
-0.7778154807376244
 20
-2.0117437743368827
 30
0.0
 10
-0.7517098611334174
 20
-2.0896462512409406
 30
0.0
 10
-0.7732877833281953
 20
-2.2154376705634613
 30
0.0
 10
-0.8076683110901165
 20
-2.292746835200372
 30
0.0
 10
-0.8144222151555743
 20
-2.3172600563628873
 30
0.0
 10
-0.8239253226936601
 20
-2.396572077194378
 30
0.0
 10
-0.8198491191326585
 20
-2.5308422330416396
 30
0.0
 10
-0.7860606284470912
 20
-2.716578617698686
 30
0.0
 10
-0.7470285817004465
 20
-2.830700687723897
 30
0.0
 10
-0.6527280729385206
 20
-2.8597885424000165
 30
0.0
 10
-0.5551455031668819
 20
-2.8744967482450763
 30
0.0
 10
-0.47046313373915744
 20
-2.788611686399513
 30
0.0
 10
-0.35943275847296
 20
-2.635929262864684
 30
0.0
 10
-0.29750258869437646
 20
-2.516724631000333
 30
0.0
 10
-0.27165239657918433
 20
-2.441143725548874
 30
0.0
 10
-0.26710156582315475
 20
-2.416127667279877
 30
0.0
 10
-0.26453416157797616
 20
-2.3315573648003016
 30
0.0
 10
-0.22939634634496345
 20
-2.2088609025771864
 30
0.0
 10
-0.17207537783858898
 20
-2.150000000000004
 30
0.0
 10
0.1720753778386024
 20
-2.1500000000000026
 30
0.0
 10
0.2293963463449479
 20
-2.2088609025771917
 30
0.0
 10
0.26453416157799237
 20
-2.3315573648003
 30
0.0
 10
0.26710156582316424
 20
-2.4161276672798766
 30
0.0
 10
0.271652396579195
 20
-2.4411437255488715
 30
0.0
 10
0.29750258869438745
 20
-2.5167246310003333
 30
0.0
 10
0.3594327584729902
 20
-2.6359292628646704
 30
0.0
 10
0.47046313373927356
 20
-2.7886116863996255
 30
0.0
 10
0.5551455031668866
 20
-2.874496748245075
 30
0.0
 10
0.6527280729385214
 20
-2.8597885424000165
 30
0.0
 10
0.7470285817004488
 20
-2.830700687723897
 30
0.0
 10
0.7860606284471446
 20
-2.7165786176985356
 30
0.0
 10
0.8198491191326892
 20
-2.5308422330416396
 30
0.0
 10
0.8239253226936676
 20
-2.3965720771943735
 30
0.0
 10
0.8144222151555827
 20
-2.317260056362886
 30
0.0
 10
0.807668311090123
 20
-2.2927468352003695
 30
0.0
 10
0.7732877833282086
 20
-2.215437670563457
 30
0.0
 10
0.7517098611333991
 20
-2.0896462512409433
 30
0.0
 10
0.7778154807376354
 20
-2.011743774336879
 30
0.0
 10
1.0878845974678761
 20
-1.8624223576435248
 30
0.0
 10
1.1650677940681338
 20
-1.8905835622568372
 30
0.0
 10
1.2499618714850722
 20
-1.9858835282638876
 30
0.0
 10
1.2889687018394342
 20
-2.0609647829933553
 30
0.0
 10
1.3039229195734452
 20
-2.081528941226835
 30
0.0
 10
1.3600064637617009
 20
-2.1384090060346312
 30
0.0
 10
1.4675245701095638
 20
-2.2189381746264427
 30
0.0
 10
1.6338059024368847
 20
-2.3083260105311685
 30
0.0
 10
1.7473662127192218
 20
-2.348963474387205
 30
0.0
 10
1.82890341878562
 20
-2.2933723485728867
 30
0.0
 10
1.901244494257693
 20
-2.2262496397333207
 30
0.0
 10
1.886895442768538
 20
-2.106493837112022
 30
0.0
 10
1.836749823904513
 20
-1.924490860221627
 30
0.0
 10
1.7821647191412784
 20
-1.8017490314723927
 30
0.0
 10
1.7391905189457995
 20
-1.734414613684655
 30
0.0
 10
1.7224695735902125
 20
-1.715259373714784
 30
0.0
 10
1.657950598993954
 20
-1.6605233751115576
 30
0.0
 10
1.5839307114978531
 20
-1.5565515320169858
 30
0.0
 10
1.5736504440729187
 20
-1.4750370217480702
 30
0.0
 10
1.7882249305396227
 20
-1.2059691262444778
 30
0.0
 10
1.8699832765573252
 20
-1.1978529609457367
 30
0.0
 10
1.9878193029682
 20
-1.2468811036916507
 30
0.0
 10
2.0555397782926907
 20
-1.2976025473606778
 30
0.0
 10
2.077935516781016
 20
-1.3096418218176515
 30
0.0
 10
2.15314437929632
 20
-1.3365552515583827
 30
0.0
 10
2.2849551426282093
 20
-1.3624591674126199
 30
0.0
 10
2.4735533748424303
 20
-1.37084805851632
 30
0.0
 10
2.593499613802267
 20
-1.3581891762804685
 30
0.0
  0
LWPOLYLINE
  8
OpenJsCad
  90
31
  70
1
 10
0.08316467632710375
 20
-0.3912590402935223
 30
0.0
 10
2.4492935982947065e-17
 20
-0.4
 30
0.0
 10
-0.08316467632710357
 20
-0.3912590402935223
 30
0.0
 10
-0.16269465723032003
 20
-0.36541818305704044
 30
0.0
 10
-0.23511410091698934
 20
-0.32360679774997897
 30
0.0
 10
-0.29725793019095764
 20
-0.2676522425435434
 30
0.0
 10
-0.34641016151377546
 20
-0.2000000000000001
 30
0.0
 10
-0.3804226065180615
 20
-0.12360679774997893
 30
0.0
 10
-0.39780875814730937
 20
-0.04181138530706122
 30
0.0
 10
-0.3978087581473093
 20
0.04181138530706167
 30
0.0
 10
-0.3804226065180614
 20
0.123606797749979
 30
0.0
 10
-0.34641016151377535
 20
0.20000000000000015
 30
0.0
 10
-0.29725793019095764
 20
0.2676522425435434
 30
0.0
 10
-0.23511410091698925
 20
0.323606797749979
 30
0.0
 10
-0.16269465723032012
 20
0.3654181830570404
 30
0.0
 10
-0.08316467632710366
 20
0.3912590402935223
 30
0.0
 10
2.0212861992297212e-16
 20
0.4
 30
0.0
 10
0.0831646763271037
 20
0.3912590402935223
 30
0.0
 10
0.16269465723032
 20
0.36541818305704044
 30
0.0
 10
0.23511410091698928
 20
0.32360679774997897
 30
0.0
 10
0.2972579301909578
 20
0.2676522425435432
 30
0.0
 10
0.3464101615137755
 20
0.19999999999999996
 30
0.0
 10
0.3804226065180615
 20
0.12360679774997897
 30
0.0
 10
0.39780875814730937
 20
0.04181138530706136
 30
0.0
 10
0.3978087581473093
 20
-0.041811385307061355
 30
0.0
 10
0.3804226065180614
 20
-0.12360679774997896
 30
0.0
 10
0.34641016151377546
 20
-0.20000000000000004
 30
0.0
 10
0.29725793019095764
 20
-0.2676522425435433
 30
0.0
 10
0.23511410091698928
 20
-0.323606797749979
 30
0.0
 10
0.1626946572303201
 20
-0.3654181830570404
 30
0.0
 10
0.08316467632710375
 20
-0.3912590402935223
 30
0.0
  0
ENDSEC
  0
EOF
