999
DXF generated by OpenJsCad
  0
SECTION
  2
HEADER
  0
ENDSEC
  0
SECTION
  2
TABLES
  0
TABLE
  2
LTYPE
  70
1
  0
LTYPE
  2
CONTINUOUS
  3
Solid Line
  72
65
  73
0
  40
0.0
  0
ENDTAB
  0
TABLE
  2
LAYER
  70
1
  0
LAYER
  2
OpenJsCad
  62
7
  6
continuous
  0
ENDTAB
  0
TABLE
  2
STYLE
  70
0
  0
ENDTAB
  0
TABLE
  2
VIEW
  70
0
  0
ENDTAB
  0
ENDSEC
  0
SECTION
  2
BLOCKS
  0
ENDSEC
  0
SECTION
  2
ENTITIES
  0
LWPOLYLINE
  8
OpenJsCad
  90
171
  70
1
 10
1.7233964034466576
 20
-1.359211456879483
 30
0.0
 10
1.7798373876248845
 20
-1.293127555043441
 30
0.0
 10
1.825245689797941
 20
-1.2190279405326847
 30
0.0
 10
1.7956700634716465
 20
-1.1229998817117575
 30
0.0
 10
1.691102635147637
 20
-0.9352702542405092
 30
0.0
 10
1.6000117782186605
 20
-0.8309180668234849
 30
0.0
 10
1.5561189113828755
 20
-0.7979842617659129
 30
0.0
 10
1.50716489047716
 20
-0.7867887298085207
 30
0.0
 10
1.3507831950131668
 20
-0.7010837148051512
 30
0.0
 10
1.2941558486858453
 20
-0.6014274847518676
 30
0.0
 10
1.4005042808170869
 20
-0.2741206659771578
 30
0.0
 10
1.5048932286666312
 20
-0.22678180131635967
 30
0.0
 10
1.681784821772654
 20
-0.2493638419977024
 30
0.0
 10
1.7279700252044905
 20
-0.2690809179119091
 30
0.0
 10
1.7828381053211928
 20
-0.26823648973781294
 30
0.0
 10
1.9178688334170937
 20
-0.23735565903877215
 30
0.0
 10
2.112810366435266
 20
-0.14694239230585518
 30
0.0
 10
2.193181427533736
 20
-0.08663817776479751
 30
0.0
 10
2.2
 20
3.567557528312402e-16
 30
0.0
 10
2.193181427533736
 20
0.08663817776479701
 30
0.0
 10
2.1128103664352653
 20
0.1469423923058555
 30
0.0
 10
1.917868833417098
 20
0.2373556590387702
 30
0.0
 10
1.782838105321192
 20
0.26823648973780645
 30
0.0
 10
1.7279700252044892
 20
0.26908091791190203
 30
0.0
 10
1.6817848217726548
 20
0.24936384199770312
 30
0.0
 10
1.504893228666631
 20
0.22678180131636091
 30
0.0
 10
1.4005042808170858
 20
0.27412066597714885
 30
0.0
 10
1.2941558486858515
 20
0.6014274847518609
 30
0.0
 10
1.3507831950131666
 20
0.7010837148051525
 30
0.0
 10
1.5071648904771593
 20
0.7867887298085211
 30
0.0
 10
1.556118911382881
 20
0.7979842617659081
 30
0.0
 10
1.6000117782186651
 20
0.8309180668234801
 30
0.0
 10
1.691102635147635
 20
0.9352702542405052
 30
0.0
 10
1.7956700634716471
 20
1.1229998817117581
 30
0.0
 10
1.8252456897979417
 20
1.2190279405326845
 30
0.0
 10
1.7798373876248843
 20
1.293127555043441
 30
0.0
 10
1.7233964034466585
 20
1.3592114568794815
 30
0.0
 10
1.6229289212037328
 20
1.3607576668508523
 30
0.0
 10
1.4120743232853377
 20
1.3193197779873707
 30
0.0
 10
1.2846808726294927
 20
1.2649338242422181
 30
0.0
 10
1.2397953209390005
 20
1.2333663326713906
 30
0.0
 10
1.2140201129146795
 20
1.1902679017260627
 30
0.0
 10
1.0841851984090094
 20
1.0680243773649487
 30
0.0
 10
0.971907679065927
 20
1.0449640393216513
 30
0.0
 10
0.6934838690960866
 20
1.2472507780740278
 30
0.0
 10
0.6807198922968495
 20
1.3611590808301341
 30
0.0
 10
0.7568591976699022
 20
1.522414748793247
 30
0.0
 10
0.7898832639494963
 20
1.5602465759366413
 30
0.0
 10
0.806035334236766
 20
1.6126901637245603
 30
0.0
 10
0.818392708716292
 20
1.750654719066665
 30
0.0
 10
0.7926448288425397
 20
1.9639943702775913
 30
0.0
 10
0.7601281363785802
 20
2.0590668187824663
 30
0.0
 10
0.6798373876248844
 20
2.092324335849338
 30
0.0
 10
0.5953325293322838
 20
2.1126121573644667
 30
0.0
 10
0.5131437893975745
 20
2.05480976311083
 30
0.0
 10
0.36691541629958546
 20
1.897348583774761
 30
0.0
 10
0.295819211290202
 20
1.7784694314054883
 30
0.0
 10
0.27806094316789776
 20
1.7265477289302182
 30
0.0
 10
0.2825409839492819
 20
1.6765300787130861
 30
0.0
 10
0.24935527245869502
 20
1.50131794207357
 30
0.0
 10
0.17207537783860885
 20
1.4166666666666647
 30
0.0
 10
-0.17207537783860025
 20
1.4166666666666683
 30
0.0
 10
-0.249355272458696
 20
1.5013179420735705
 30
0.0
 10
-0.2825409839492822
 20
1.6765300787130855
 30
0.0
 10
-0.27806094316789115
 20
1.7265477289302218
 30
0.0
 10
-0.2958192112901957
 20
1.7784694314054912
 30
0.0
 10
-0.3669154162995819
 20
1.897348583774758
 30
0.0
 10
-0.5131437893975747
 20
2.054809763110831
 30
0.0
 10
-0.5953325293322829
 20
2.112612157364467
 30
0.0
 10
-0.6798373876248843
 20
2.092324335849338
 30
0.0
 10
-0.7601281363785796
 20
2.059066818782467
 30
0.0
 10
-0.7926448288425394
 20
1.9639943702775906
 30
0.0
 10
-0.8183927087162913
 20
1.75065471906667
 30
0.0
 10
-0.8060353342367593
 20
1.6126901637245616
 30
0.0
 10
-0.7898832639494888
 20
1.5602465759366424
 30
0.0
 10
-0.7568591976699028
 20
1.5224147487932473
 30
0.0
 10
-0.6807198922968504
 20
1.3611590808301335
 30
0.0
 10
-0.6934838690960777
 20
1.2472507780740298
 30
0.0
 10
-0.9719076790659225
 20
1.0449640393216595
 30
0.0
 10
-1.0841851984090103
 20
1.0680243773649483
 30
0.0
 10
-1.214020112914679
 20
1.1902679017260622
 30
0.0
 10
-1.2397953209389971
 20
1.2333663326713977
 30
0.0
 10
-1.2846808726294894
 20
1.2649338242422241
 30
0.0
 10
-1.4120743232853328
 20
1.31931977798737
 30
0.0
 10
-1.6229289212037337
 20
1.3607576668508532
 30
0.0
 10
-1.7233964034466576
 20
1.3592114568794826
 30
0.0
 10
-1.7798373876248843
 20
1.2931275550434411
 30
0.0
 10
-1.8252456897979408
 20
1.219027940532685
 30
0.0
 10
-1.7956700634716463
 20
1.1229998817117577
 30
0.0
 10
-1.6911026351476368
 20
0.9352702542405095
 30
0.0
 10
-1.6000117782186605
 20
0.8309180668234851
 30
0.0
 10
-1.5561189113828755
 20
0.7979842617659131
 30
0.0
 10
-1.50716489047716
 20
0.7867887298085209
 30
0.0
 10
-1.3507831950131668
 20
0.7010837148051513
 30
0.0
 10
-1.2941558486858453
 20
0.6014274847518677
 30
0.0
 10
-1.4005042808170869
 20
0.27412066597715795
 30
0.0
 10
-1.5048932286666312
 20
0.22678180131635986
 30
0.0
 10
-1.681784821772654
 20
0.2493638419977026
 30
0.0
 10
-1.7279700252044905
 20
0.2690809179119093
 30
0.0
 10
-1.7828381053211928
 20
0.26823648973781317
 30
0.0
 10
-1.9178688334170937
 20
0.23735565903877237
 30
0.0
 10
-2.112810366435266
 20
0.14694239230585543
 30
0.0
 10
-2.193181427533736
 20
0.08663817776479778
 30
0.0
 10
-2.2
 20
8.733345701882243e-17
 30
0.0
 10
-2.1931814275337365
 20
-0.08663817776479668
 30
0.0
 10
-2.1128103664352653
 20
-0.14694239230585518
 30
0.0
 10
-1.917868833417098
 20
-0.23735565903876998
 30
0.0
 10
-1.7828381053211921
 20
-0.2682364897378061
 30
0.0
 10
-1.7279700252044894
 20
-0.2690809179119018
 30
0.0
 10
-1.6817848217726548
 20
-0.24936384199770278
 30
0.0
 10
-1.504893228666631
 20
-0.2267818013163607
 30
0.0
 10
-1.400504280817086
 20
-0.2741206659771487
 30
0.0
 10
-1.2941558486858515
 20
-0.6014274847518608
 30
0.0
 10
-1.3507831950131668
 20
-0.7010837148051524
 30
0.0
 10
-1.5071648904771595
 20
-0.7867887298085208
 30
0.0
 10
-1.556118911382881
 20
-0.7979842617659078
 30
0.0
 10
-1.6000117782186654
 20
-0.8309180668234801
 30
0.0
 10
-1.691102635147635
 20
-0.9352702542405049
 30
0.0
 10
-1.7956700634716474
 20
-1.122999881711758
 30
0.0
 10
-1.8252456897979417
 20
-1.2190279405326843
 30
0.0
 10
-1.7798373876248845
 20
-1.2931275550434407
 30
0.0
 10
-1.7233964034466585
 20
-1.3592114568794815
 30
0.0
 10
-1.6229289212037332
 20
-1.3607576668508523
 30
0.0
 10
-1.4120743232853377
 20
-1.3193197779873707
 30
0.0
 10
-1.284680872629493
 20
-1.264933824242218
 30
0.0
 10
-1.2397953209390007
 20
-1.2333663326713906
 30
0.0
 10
-1.2140201129146795
 20
-1.1902679017260624
 30
0.0
 10
-1.0841851984090096
 20
-1.0680243773649487
 30
0.0
 10
-0.9719076790659271
 20
-1.044964039321651
 30
0.0
 10
-0.6934838690960868
 20
-1.2472507780740278
 30
0.0
 10
-0.6807198922968497
 20
-1.3611590808301341
 30
0.0
 10
-0.7568591976699024
 20
-1.522414748793247
 30
0.0
 10
-0.7898832639494965
 20
-1.5602465759366413
 30
0.0
 10
-0.8060353342367662
 20
-1.6126901637245603
 30
0.0
 10
-0.8183927087162922
 20
-1.750654719066665
 30
0.0
 10
-0.79264482884254
 20
-1.9639943702775913
 30
0.0
 10
-0.7601281363785805
 20
-2.0590668187824663
 30
0.0
 10
-0.6798373876248847
 20
-2.0923243358493377
 30
0.0
 10
-0.595332529332284
 20
-2.1126121573644667
 30
0.0
 10
-0.5131437893975748
 20
-2.05480976311083
 30
0.0
 10
-0.3669154162995856
 20
-1.8973485837747608
 30
0.0
 10
-0.29581921129020217
 20
-1.778469431405488
 30
0.0
 10
-0.278060943167898
 20
-1.726547728930218
 30
0.0
 10
-0.28254098394928207
 20
-1.6765300787130861
 30
0.0
 10
-0.24935527245869518
 20
-1.50131794207357
 30
0.0
 10
-0.17207537783860896
 20
-1.4166666666666647
 30
0.0
 10
0.17207537783860014
 20
-1.4166666666666683
 30
0.0
 10
0.24935527245869582
 20
-1.5013179420735703
 30
0.0
 10
0.28254098394928195
 20
-1.6765300787130855
 30
0.0
 10
0.27806094316789104
 20
-1.7265477289302218
 30
0.0
 10
0.2958192112901955
 20
-1.7784694314054912
 30
0.0
 10
0.3669154162995817
 20
-1.8973485837747577
 30
0.0
 10
0.5131437893975744
 20
-2.054809763110831
 30
0.0
 10
0.5953325293322826
 20
-2.112612157364467
 30
0.0
 10
0.6798373876248842
 20
-2.092324335849338
 30
0.0
 10
0.7601281363785795
 20
-2.0590668187824672
 30
0.0
 10
0.7926448288425393
 20
-1.9639943702775908
 30
0.0
 10
0.8183927087162912
 20
-1.7506547190666701
 30
0.0
 10
0.8060353342367592
 20
-1.6126901637245616
 30
0.0
 10
0.7898832639494887
 20
-1.5602465759366426
 30
0.0
 10
0.7568591976699027
 20
-1.5224147487932473
 30
0.0
 10
0.6807198922968504
 20
-1.3611590808301337
 30
0.0
 10
0.6934838690960777
 20
-1.24725077807403
 30
0.0
 10
0.9719076790659225
 20
-1.0449640393216595
 30
0.0
 10
1.0841851984090103
 20
-1.0680243773649485
 30
0.0
 10
1.214020112914679
 20
-1.1902679017260624
 30
0.0
 10
1.2397953209389971
 20
-1.2333663326713977
 30
0.0
 10
1.2846808726294894
 20
-1.2649338242422243
 30
0.0
 10
1.4120743232853328
 20
-1.3193197779873702
 30
0.0
 10
1.6229289212037334
 20
-1.3607576668508534
 30
0.0
 10
1.7233964034466576
 20
-1.359211456879483
 30
0.0
  0
LWPOLYLINE
  8
OpenJsCad
  90
31
  70
1
 10
0.08316467632710375
 20
-0.3912590402935223
 30
0.0
 10
2.4492935982947065e-17
 20
-0.4
 30
0.0
 10
-0.08316467632710357
 20
-0.3912590402935223
 30
0.0
 10
-0.16269465723032003
 20
-0.36541818305704044
 30
0.0
 10
-0.23511410091698934
 20
-0.32360679774997897
 30
0.0
 10
-0.29725793019095764
 20
-0.2676522425435434
 30
0.0
 10
-0.34641016151377546
 20
-0.2000000000000001
 30
0.0
 10
-0.3804226065180615
 20
-0.12360679774997893
 30
0.0
 10
-0.39780875814730937
 20
-0.04181138530706122
 30
0.0
 10
-0.3978087581473093
 20
0.04181138530706167
 30
0.0
 10
-0.3804226065180614
 20
0.123606797749979
 30
0.0
 10
-0.34641016151377535
 20
0.20000000000000015
 30
0.0
 10
-0.29725793019095764
 20
0.2676522425435434
 30
0.0
 10
-0.23511410091698925
 20
0.323606797749979
 30
0.0
 10
-0.16269465723032012
 20
0.3654181830570404
 30
0.0
 10
-0.08316467632710366
 20
0.3912590402935223
 30
0.0
 10
2.0212861992297212e-16
 20
0.4
 30
0.0
 10
0.0831646763271037
 20
0.3912590402935223
 30
0.0
 10
0.16269465723032
 20
0.36541818305704044
 30
0.0
 10
0.23511410091698928
 20
0.32360679774997897
 30
0.0
 10
0.2972579301909578
 20
0.2676522425435432
 30
0.0
 10
0.3464101615137755
 20
0.19999999999999996
 30
0.0
 10
0.3804226065180615
 20
0.12360679774997897
 30
0.0
 10
0.39780875814730937
 20
0.04181138530706136
 30
0.0
 10
0.3978087581473093
 20
-0.041811385307061355
 30
0.0
 10
0.3804226065180614
 20
-0.12360679774997896
 30
0.0
 10
0.34641016151377546
 20
-0.20000000000000004
 30
0.0
 10
0.29725793019095764
 20
-0.2676522425435433
 30
0.0
 10
0.23511410091698928
 20
-0.323606797749979
 30
0.0
 10
0.1626946572303201
 20
-0.3654181830570404
 30
0.0
 10
0.08316467632710375
 20
-0.3912590402935223
 30
0.0
  0
ENDSEC
  0
EOF
