999
DXF generated by OpenJsCad
  0
SECTION
  2
HEADER
  0
ENDSEC
  0
SECTION
  2
TABLES
  0
TABLE
  2
LTYPE
  70
1
  0
LTYPE
  2
CONTINUOUS
  3
Solid Line
  72
65
  73
0
  40
0.0
  0
ENDTAB
  0
TABLE
  2
LAYER
  70
1
  0
LAYER
  2
OpenJsCad
  62
7
  6
continuous
  0
ENDTAB
  0
TABLE
  2
STYLE
  70
0
  0
ENDTAB
  0
TABLE
  2
VIEW
  70
0
  0
ENDTAB
  0
ENDSEC
  0
SECTION
  2
BLOCKS
  0
ENDSEC
  0
SECTION
  2
ENTITIES
  0
LWPOLYLINE
  8
OpenJsCad
  90
1501
  70
1
 10
11.284481406782005
 20
-1.313894159126594
 30
0.0
 10
11.304398877352707
 20
-1.1881401991423268
 30
0.0
 10
11.311062369748646
 20
-1.060993189917761
 30
0.0
 10
11.304093050654641
 20
-1.0569886117092377
 30
0.0
 10
11.169799405268087
 20
-0.9859386310176043
 30
0.0
 10
11.044519008078161
 20
-0.9251551221773491
 30
0.0
 10
10.928790929755985
 20
-0.8739156608159874
 30
0.0
 10
10.823114570801483
 20
-0.831473193390543
 30
0.0
 10
10.7279486164341
 20
-0.7970579335822813
 30
0.0
 10
10.643710075761708
 20
-0.7698793010152813
 30
0.0
 10
10.638121666003146
 20
-0.7682893279582039
 30
0.0
 10
10.598127055847584
 20
-0.7551724442766509
 30
0.0
 10
10.572017067968916
 20
-0.7406677592977158
 30
0.0
 10
10.559823513374228
 20
-0.7257284247514373
 30
0.0
 10
10.577834972264291
 20
-0.3820493157241423
 30
0.0
 10
10.59152331497372
 20
-0.3684663939403049
 30
0.0
 10
10.61900642203592
 20
-0.35677040404304683
 30
0.0
 10
10.66015302522816
 20
-0.3479059511694284
 30
0.0
 10
10.665877018558366
 20
-0.34690883602469713
 30
0.0
 10
10.752495032363035
 20
-0.328684416065805
 30
0.0
 10
10.850737031894772
 20
-0.3044052376169229
 30
0.0
 10
10.960270930595145
 20
-0.27324146187409676
 30
0.0
 10
11.080721020550358
 20
-0.23437957382718888
 30
0.0
 10
11.211668725388716
 20
-0.1870244108035519
 30
0.0
 10
11.35265344142972
 20
-0.130401157719755
 30
0.0
 10
11.360003174270732
 20
-0.1271470092245638
 30
0.0
 10
11.366666666666672
 20
3.3306690738754696e-16
 30
0.0
 10
11.360003174270725
 20
0.127147009224567
 30
0.0
 10
11.352653441429757
 20
0.1304011577197395
 30
0.0
 10
11.211668725387113
 20
0.18702441080419432
 30
0.0
 10
11.080721020550211
 20
0.234379573827315
 30
0.0
 10
10.960270930595147
 20
0.27324146187413023
 30
0.0
 10
10.850737031894829
 20
0.30440523761695404
 30
0.0
 10
10.752495032362132
 20
0.32868441606563603
 30
0.0
 10
10.665877018533624
 20
0.346908836035292
 30
0.0
 10
10.660153025228151
 20
0.34790595116942846
 30
0.0
 10
10.619006422037634
 20
0.3567704040511821
 30
0.0
 10
10.59152331497347
 20
0.36846639393925806
 30
0.0
 10
10.577834972264318
 20
0.38204931572421075
 30
0.0
 10
10.559823513374193
 20
0.7257284247515023
 30
0.0
 10
10.572017067969275
 20
0.740667759296701
 30
0.0
 10
10.59812705584503
 20
0.7551724442845622
 30
0.0
 10
10.638121666003155
 20
0.7682893279582048
 30
0.0
 10
10.643710075785204
 20
0.7698793010284041
 30
0.0
 10
10.727948616435013
 20
0.7970579335822072
 30
0.0
 10
10.823114570801422
 20
0.8314731933905681
 30
0.0
 10
10.92879092975598
 20
0.8739156608160203
 30
0.0
 10
11.044519008078295
 20
0.9251551221774899
 30
0.0
 10
11.169799405269611
 20
0.9859386310184105
 30
0.0
 10
11.304093050654604
 20
1.0569886117092184
 30
0.0
 10
11.311062369748651
 20
1.0609931899177647
 30
0.0
 10
11.304398877352712
 20
1.1881401991423286
 30
0.0
 10
11.284481406782005
 20
1.3138941591266085
 30
0.0
 10
11.276831785405108
 20
1.3163622247765427
 30
0.0
 10
11.130700656758286
 20
1.3579383740438484
 30
0.0
 10
10.99552033473117
 20
1.391346358174048
 30
0.0
 10
10.871667909534567
 20
1.4174048939285024
 30
0.0
 10
10.759476547404034
 20
1.436948541140229
 30
0.0
 10
10.659234862611365
 20
1.4508256304695024
 30
0.0
 10
10.571186380712229
 20
1.4598961672829214
 30
0.0
 10
10.565389517128324
 20
1.4602894998920477
 30
0.0
 10
10.523541731697884
 20
1.4648044011732233
 30
0.0
 10
10.494986616120428
 20
1.4735635522576833
 30
0.0
 10
10.479953457644008
 20
1.485641243947825
 30
0.0
 10
10.426116418286433
 20
1.8255549327371334
 30
0.0
 10
10.43668158963136
 20
1.841687001568159
 30
0.0
 10
10.461132391829635
 20
1.8588414652825962
 30
0.0
 10
10.499536819635344
 20
1.87606706843385
 30
0.0
 10
10.504928418082217
 20
1.878232479351837
 30
0.0
 10
10.585864550497755
 20
1.9140675497147972
 30
0.0
 10
10.676911801588043
 20
1.9582418300943203
 30
0.0
 10
10.777572808493877
 20
2.011497980647628
 30
0.0
 10
10.887310934139537
 20
2.0745536250624363
 30
0.0
 10
11.005551425435579
 20
2.148099522878013
 30
0.0
 10
11.131682650882968
 20
2.232797792719219
 30
0.0
 10
11.138195198911632
 20
2.2375089256442546
 30
0.0
 10
11.118277728340928
 20
2.363262885628532
 30
0.0
 10
11.085324499571028
 20
2.4862460096712287
 30
0.0
 10
11.077458800510795
 20
2.487900951832189
 30
0.0
 10
10.927782302485154
 20
2.513974480290604
 30
0.0
 10
10.789850427164254
 20
2.533069260662682
 30
0.0
 10
10.663952619814351
 20
2.5460389413539515
 30
0.0
 10
10.55033298629466
 20
2.5537483357459565
 30
0.0
 10
10.44918988511753
 20
2.5570712956611623
 30
0.0
 10
10.360675612740783
 20
2.5568885706188853
 30
0.0
 10
10.35486939052894
 20
2.556673811268626
 30
0.0
 10
10.312778915952968
 20
2.556789694745983
 30
0.0
 10
10.283464647684028
 20
2.562516039934575
 30
0.0
 10
10.267251379870496
 20
2.5729561758123296
 30
0.0
 10
10.178178609914799
 20
2.9053802788577663
 30
0.0
 10
10.18699964378141
 20
2.9225283356526544
 30
0.0
 10
10.209523372196662
 20
2.9421446301994094
 30
0.0
 10
10.24591685070227
 20
2.9632902255154603
 30
0.0
 10
10.25105256633312
 20
2.966007349586076
 30
0.0
 10
10.327799537310671
 20
3.010106241228326
 30
0.0
 10
10.41373055238903
 20
3.063555559519111
 30
0.0
 10
10.50827334418981
 20
3.1270419076702454
 30
0.0
 10
10.610819203290061
 20
3.2012228843029424
 30
0.0
 10
10.720724321124775
 20
3.2867253868462383
 30
0.0
 10
10.837311206533906
 20
3.3841439738692096
 30
0.0
 10
10.84329563065815
 20
3.3895100453525417
 30
0.0
 10
10.810342401888253
 20
3.512493169395239
 30
0.0
 10
10.764714457389461
 20
3.6313580286534664
 30
0.0
 10
10.756718858890805
 20
3.632181715432817
 30
0.0
 10
10.605136878520536
 20
3.6424669560483145
 30
0.0
 10
10.465964660395965
 20
3.6470393262526755
 30
0.0
 10
10.339400833615901
 20
3.6467780533450256
 30
0.0
 10
10.225597769188328
 20
3.642568729179057
 30
0.0
 10
10.124661396608788
 20
3.6353011526359897
 30
0.0
 10
10.036651114645391
 20
3.6258671677118173
 30
0.0
 10
10.030899147991194
 20
3.6250466693505548
 30
0.0
 10
9.989027136317143
 20
3.620762265380465
 30
0.0
 10
9.95927488861428
 20
3.6233930656369897
 30
0.0
 10
9.942059147418645
 20
3.6320812613889397
 30
0.0
 10
9.818726546772135
 20
3.9533736706533245
 30
0.0
 10
9.825706798067468
 20
3.9713498377133676
 30
0.0
 10
9.846056678017788
 20
3.993213042864413
 30
0.0
 10
9.880040472656964
 20
4.0180469547779785
 30
0.0
 10
9.884864037496621
 20
4.02128602262131
 30
0.0
 10
9.956580991161816
 20
4.073165578857732
 30
0.0
 10
10.036454292044825
 20
4.135304333143595
 30
0.0
 10
10.12384303812923
 20
4.208325309176842
 30
0.0
 10
10.218073116792672
 20
4.2928188757240715
 30
0.0
 10
10.318438717695935
 20
4.389341199684674
 30
0.0
 10
10.424203912752892
 20
4.498412765463836
 30
0.0
 10
10.429594646369674
 20
4.504374983703369
 30
0.0
 10
10.383966701870895
 20
4.623239842961594
 30
0.0
 10
10.32616395095142
 20
4.736684129163255
 30
0.0
 10
10.318126054464672
 20
4.736667536076274
 30
0.0
 10
10.16629935564728
 20
4.731051801600345
 30
0.0
 10
10.027411594664473
 20
4.7210516657922
 30
0.0
 10
9.901568408225632
 20
4.7075623018462815
 30
0.0
 10
9.788828763078868
 20
4.691480377358759
 30
0.0
 10
9.689204999117193
 20
4.673701889446864
 30
0.0
 10
9.602662966633673
 20
4.6551200053538135
 30
0.0
 10
9.597028275287462
 20
4.653702757533294
 30
0.0
 10
9.555833485037516
 20
4.6450650069422235
 30
0.0
 10
9.525969229752617
 20
4.644571438668538
 30
0.0
 10
9.507939634438046
 20
4.651412504603905
 30
0.0
 10
9.35169846088241
 20
4.958053073216576
 30
0.0
 10
9.356761452512567
 20
4.976660399893711
 30
0.0
 10
9.374714526454728
 20
5.000530977798243
 30
0.0
 10
9.405916303661838
 20
5.028781120773566
 30
0.0
 10
9.410374869724523
 20
5.032506644484505
 30
0.0
 10
9.47627606012527
 20
5.0915984620404755
 30
0.0
 10
9.549216538213892
 20
5.161745847126092
 30
0.0
 10
9.628493789192555
 20
5.2435014179474075
 30
0.0
 10
9.713375682958437
 20
5.337381845212662
 30
0.0
 10
9.803102140403903
 20
5.443866471810664
 30
0.0
 10
9.89688685949885
 20
5.56339600544665
 30
0.0
 10
9.901624840602585
 20
5.569889047131673
 30
0.0
 10
9.84382208968311
 20
5.683333333333328
 30
0.0
 10
9.774477831378023
 20
5.790114127139051
 30
0.0
 10
9.766485701779134
 20
5.789257435983075
 30
0.0
 10
9.616077729598642
 20
5.767802253577806
 30
0.0
 10
9.478996109131057
 20
5.743339175337732
 30
0.0
 10
9.355252327318444
 20
5.716769512647768
 30
0.0
 10
9.244811300597005
 20
5.688991184768736
 30
0.0
 10
9.14759164405877
 20
5.660896570321962
 30
0.0
 10
9.063466033673102
 20
5.633370374070666
 30
0.0
 10
9.058010352492401
 20
5.63137190445459
 30
0.0
 10
9.017944122409098
 20
5.61847544424558
 30
0.0
 10
8.988295058572566
 20
5.614862915078977
 30
0.0
 10
8.969649145158257
 20
5.619781899047788
 30
0.0
 10
8.782211209686546
 20
5.908411008770361
 30
0.0
 10
8.785301470455721
 20
5.9274456292996796
 30
0.0
 10
8.800661040754694
 20
5.953062048910935
 30
0.0
 10
8.828738947329265
 20
5.9844189084698565
 30
0.0
 10
8.83278366563218
 20
5.988590070431008
 30
0.0
 10
8.89214706553574
 20
6.054246726987628
 30
0.0
 10
8.95735556968826
 20
6.131634193442715
 30
0.0
 10
9.027652747409624
 20
6.221228627909729
 30
0.0
 10
9.102256472487168
 20
6.32346734228615
 30
0.0
 10
9.180360724630594
 20
6.438747603669202
 30
0.0
 10
9.261137442755413
 20
6.567425514578332
 30
0.0
 10
9.265170761033653
 20
6.574378240585393
 30
0.0
 10
9.195826502728563
 20
6.6811590343911105
 30
0.0
 10
9.115700487243071
 20
6.780106423078639
 30
0.0
 10
9.107841687976379
 20
6.778419019941241
 30
0.0
 10
8.960500343650887
 20
6.741359457074851
 30
0.0
 10
8.826726758618543
 20
6.702701459007272
 30
0.0
 10
8.706438144200744
 20
6.663342600357754
 30
0.0
 10
8.599505750904662
 20
6.624172214260444
 30
0.0
 10
8.505755360691424
 20
6.586069283753847
 30
0.0
 10
8.424967870195408
 20
6.549900358110662
 30
0.0
 10
8.419750972764907
 20
6.547342562350349
 30
0.0
 10
8.38125227684944
 20
6.530328688840206
 30
0.0
 10
8.352143245809131
 20
6.523636778406206
 30
0.0
 10
8.333085302824363
 20
6.526579786990736
 30
0.0
 10
8.116504214681507
 20
6.794035156897566
 30
0.0
 10
8.117587887046037
 20
6.813288523993298
 30
0.0
 10
8.13018567103543
 20
6.840370126457436
 30
0.0
 10
8.154832079557353
 20
6.874490150284784
 30
0.0
 10
8.15841863532036
 20
6.879061250372831
 30
0.0
 10
8.210593846894795
 20
6.950563397861328
 30
0.0
 10
8.267355939093964
 20
7.034343072409034
 30
0.0
 10
8.327902852968283
 20
7.130794755148884
 30
0.0
 10
8.391411035333709
 20
7.240271607886936
 30
0.0
 10
8.457037355644244
 20
7.363084469387381
 30
0.0
 10
8.523921066171544
 20
7.49950093545015
 30
0.0
 10
8.527205531745208
 20
7.50683717025816
 30
0.0
 10
8.44707951625971
 20
7.605784558945685
 30
0.0
 10
8.357049620986917
 20
7.6958144542184925
 30
0.0
 10
8.34941025470175
 20
7.693314826641559
 30
0.0
 10
8.206749840832849
 20
7.641056915640023
 30
0.0
 10
8.07774994262728
 20
7.5886275428614764
 30
0.0
 10
7.962234402835871
 20
7.536910712144137
 30
0.0
 10
7.859982216643136
 20
7.486777426775562
 30
0.0
 10
7.7707282416486
 20
7.439083643889322
 30
0.0
 10
7.69416399569398
 20
7.394668263172429
 30
0.0
 10
7.689243039433635
 20
7.391579165013482
 30
0.0
 10
7.652733677454823
 20
7.370634285760767
 30
0.0
 10
7.624483603846273
 20
7.360936312030456
 30
0.0
 10
7.605222434102517
 20
7.361871101012787
 30
0.0
 10
7.361871101012717
 20
7.605222434102543
 30
0.0
 10
7.360936312031401
 20
7.624483603845761
 30
0.0
 10
7.370634285753574
 20
7.652733677458993
 30
0.0
 10
7.3915791650134866
 20
7.689243039433643
 30
0.0
 10
7.394668263181109
 20
7.694163995719456
 30
0.0
 10
7.43908364389005
 20
7.770728241649157
 30
0.0
 10
7.486777426775499
 20
7.8599822166431155
 30
0.0
 10
7.53691071214411
 20
7.962234402835891
 30
0.0
 10
7.58862754286148
 20
8.077749942627472
 30
0.0
 10
7.6410569156406165
 20
8.206749840834467
 30
0.0
 10
7.6933148266415445
 20
8.349410254701711
 30
0.0
 10
7.695814454218491
 20
8.357049620986919
 30
0.0
 10
7.605784558945692
 20
8.447079516259718
 30
0.0
 10
7.506837170258156
 20
8.527205531745203
 30
0.0
 10
7.499500935450186
 20
8.523921066171562
 30
0.0
 10
7.363084469385831
 20
8.457037355643484
 30
0.0
 10
7.240271607886743
 20
8.391411035333682
 30
0.0
 10
7.13079475514886
 20
8.327902852968306
 30
0.0
 10
7.034343072409048
 20
8.267355939094026
 30
0.0
 10
6.950563397860848
 20
8.210593846894012
 30
0.0
 10
6.8790612503484025
 20
8.158418635309062
 30
0.0
 10
6.874490150284777
 20
8.154832079557346
 30
0.0
 10
6.8403701264525365
 20
8.130185671042149
 30
0.0
 10
6.813288523993906
 20
8.117587887045149
 30
0.0
 10
6.794035156897533
 20
8.116504214681573
 30
0.0
 10
6.526579786990663
 20
8.333085302824381
 30
0.0
 10
6.5236367784072
 20
8.352143245808719
 30
0.0
 10
6.530328688832617
 20
8.381252276852834
 30
0.0
 10
6.5473425623503525
 20
8.419750972764914
 30
0.0
 10
6.5499003581166315
 20
8.424967870221648
 30
0.0
 10
6.586069283754512
 20
8.505755360692051
 30
0.0
 10
6.624172214260384
 20
8.599505750904633
 30
0.0
 10
6.663342600357725
 20
8.706438144200762
 30
0.0
 10
6.702701459007256
 20
8.826726758618735
 30
0.0
 10
6.741359457075272
 20
8.96050034365256
 30
0.0
 10
6.77841901994123
 20
9.10784168797634
 30
0.0
 10
6.780106423078633
 20
9.11570048724307
 30
0.0
 10
6.681159034391112
 20
9.195826502728567
 30
0.0
 10
6.574378240585389
 20
9.265170761033655
 30
0.0
 10
6.567425514578367
 20
9.261137442755432
 30
0.0
 10
6.438747603667742
 20
9.180360724629676
 30
0.0
 10
6.323467342285961
 20
9.102256472487122
 30
0.0
 10
6.221228627909703
 20
9.027652747409643
 30
0.0
 10
6.131634193442724
 20
8.957355569688323
 30
0.0
 10
6.054246726987236
 20
8.89214706553491
 30
0.0
 10
5.988590070407895
 20
8.83278366561839
 30
0.0
 10
5.984418908469852
 20
8.828738947329256
 30
0.0
 10
5.953062048905361
 20
8.800661040760861
 30
0.0
 10
5.9274456293003785
 20
8.785301470454899
 30
0.0
 10
5.908411008770322
 20
8.782211209686606
 30
0.0
 10
5.619781899047715
 20
8.969649145158268
 30
0.0
 10
5.61486291508001
 20
8.988295058572259
 30
0.0
 10
5.618475444237677
 20
9.01794412241168
 30
0.0
 10
5.6313719044545945
 20
9.058010352492406
 30
0.0
 10
5.633370374073861
 20
9.063466033699823
 30
0.0
 10
5.660896570322559
 20
9.147591644059466
 30
0.0
 10
5.68899118476868
 20
9.24481130059697
 30
0.0
 10
5.716769512647738
 20
9.355252327318457
 30
0.0
 10
5.743339175337695
 20
9.478996109131245
 30
0.0
 10
5.7678022535780515
 20
9.616077729600349
 30
0.0
 10
5.789257435983069
 20
9.766485701779091
 30
0.0
 10
5.790114127139052
 20
9.77447783137803
 30
0.0
 10
5.6833333333333345
 20
9.843822089683123
 30
0.0
 10
5.569889047131671
 20
9.90162484060259
 30
0.0
 10
5.563396005446683
 20
9.896886859498872
 30
0.0
 10
5.443866471809308
 20
9.803102140402835
 30
0.0
 10
5.33738184521248
 20
9.713375682958372
 30
0.0
 10
5.24350141794738
 20
9.628493789192571
 30
0.0
 10
5.1617458471260935
 20
9.549216538213956
 30
0.0
 10
5.091598462040172
 20
9.476276060124404
 30
0.0
 10
5.032506644462959
 20
9.410374869708392
 30
0.0
 10
5.028781120773562
 20
9.405916303661828
 30
0.0
 10
5.000530977792054
 20
9.374714526460279
 30
0.0
 10
4.9766603998944925
 20
9.356761452511824
 30
0.0
 10
4.958053073216531
 20
9.351698460882469
 30
0.0
 10
4.651412504603832
 20
9.507939634438047
 30
0.0
 10
4.644571438669597
 20
9.52596922975242
 30
0.0
 10
4.645065006934095
 20
9.555833485039255
 30
0.0
 10
4.653702757533298
 20
9.59702827528747
 30
0.0
 10
4.655120005354198
 20
9.602662966660583
 30
0.0
 10
4.673701889447385
 20
9.689204999117946
 30
0.0
 10
4.691480377358707
 20
9.788828763078827
 30
0.0
 10
4.707562301846251
 20
9.901568408225643
 30
0.0
 10
4.721051665792144
 20
10.027411594664658
 30
0.0
 10
4.73105180160041
 20
10.166299355649004
 30
0.0
 10
4.736667536076274
 20
10.31812605446463
 30
0.0
 10
4.736684129163255
 20
10.326163950951429
 30
0.0
 10
4.623239842961599
 20
10.383966701870905
 30
0.0
 10
4.504374983703361
 20
10.429594646369663
 30
0.0
 10
4.498412765463866
 20
10.42420391275292
 30
0.0
 10
4.389341199683435
 20
10.318438717694734
 30
0.0
 10
4.292818875723896
 20
10.218073116792588
 30
0.0
 10
4.208325309176812
 20
10.123843038129246
 30
0.0
 10
4.13530433314359
 20
10.03645429204489
 30
0.0
 10
4.07316557885752
 20
9.956580991160923
 30
0.0
 10
4.0212860226015685
 20
9.884864037478328
 30
0.0
 10
4.018046954777975
 20
9.880040472656955
 30
0.0
 10
3.993213042857679
 20
9.846056678022663
 30
0.0
 10
3.9713498377142225
 20
9.825706798066815
 30
0.0
 10
3.953373670653273
 20
9.818726546772188
 30
0.0
 10
3.632081261388867
 20
9.94205914741864
 30
0.0
 10
3.623393065638063
 20
9.959274888614194
 30
0.0
 10
3.6207622653721994
 20
9.989027136318027
 30
0.0
 10
3.625046669350558
 20
10.030899147991201
 30
0.0
 10
3.6258671677093868
 20
10.036651114672194
 30
0.0
 10
3.63530115263643
 20
10.124661396609593
 30
0.0
 10
3.64256872917901
 20
10.225597769188283
 30
0.0
 10
3.646778053344994
 20
10.339400833615908
 30
0.0
 10
3.647039326252601
 20
10.465964660396144
 30
0.0
 10
3.642466956048199
 20
10.605136878522258
 30
0.0
 10
3.6321817154328206
 20
10.756718858890762
 30
0.0
 10
3.6313580286534624
 20
10.764714457389461
 30
0.0
 10
3.5124931693952357
 20
10.810342401888242
 30
0.0
 10
3.389510045352539
 20
10.84329563065814
 30
0.0
 10
3.384143973869238
 20
10.837311206533938
 30
0.0
 10
3.2867253868451347
 20
10.72072432112345
 30
0.0
 10
3.201222884302779
 20
10.61081920328996
 30
0.0
 10
3.127041907670217
 20
10.50827334418982
 30
0.0
 10
3.0635555595191004
 20
10.413730552389092
 30
0.0
 10
3.0101062412282102
 20
10.327799537309764
 30
0.0
 10
2.9660073495683563
 20
10.251052566312865
 30
0.0
 10
2.9632902255154594
 20
10.24591685070226
 30
0.0
 10
2.942144630192204
 20
10.209523372200806
 30
0.0
 10
2.922528335653574
 20
10.18699964378085
 30
0.0
 10
2.9053802788577117
 20
10.178178609914847
 30
0.0
 10
2.5729561758122586
 20
10.267251379870483
 30
0.0
 10
2.5625160399356535
 20
10.283464647684056
 30
0.0
 10
2.556789694737671
 20
10.312778915952983
 30
0.0
 10
2.5566738112686296
 20
10.354869390528947
 30
0.0
 10
2.5568885706136677
 20
10.360675612767185
 30
0.0
 10
2.557071295661517
 20
10.449189885118377
 30
0.0
 10
2.553748335745916
 20
10.55033298629461
 30
0.0
 10
2.54603894135392
 20
10.663952619814356
 30
0.0
 10
2.5330692606625913
 20
10.78985042716442
 30
0.0
 10
2.5139744802903095
 20
10.927782302486856
 30
0.0
 10
2.4879009518321973
 20
11.077458800510755
 30
0.0
 10
2.486246009671229
 20
11.08532449957103
 30
0.0
 10
2.3632628856285316
 20
11.118277728340928
 30
0.0
 10
2.2375089256442524
 20
11.138195198911637
 30
0.0
 10
2.232797792719241
 20
11.131682650883002
 30
0.0
 10
2.148099522877051
 20
11.005551425434145
 30
0.0
 10
2.074553625062282
 20
10.887310934139418
 30
0.0
 10
2.011497980647596
 20
10.777572808493886
 30
0.0
 10
1.9582418300943016
 20
10.676911801588103
 30
0.0
 10
1.914067549714775
 20
10.585864550496838
 30
0.0
 10
1.8782324793363296
 20
10.50492841806022
 30
0.0
 10
1.876067068433848
 20
10.499536819635331
 30
0.0
 10
1.858841465274995
 20
10.461132391833003
 30
0.0
 10
1.8416870015691307
 20
10.436681589630895
 30
0.0
 10
1.8255549327370721
 20
10.426116418286474
 30
0.0
 10
1.485641243947754
 20
10.479953457643985
 30
0.0
 10
1.4735635522587507
 20
10.494986616120569
 30
0.0
 10
1.4648044011649535
 20
10.52354173169703
 30
0.0
 10
1.4602894998920486
 20
10.565389517128331
 30
0.0
 10
1.4598961672749706
 20
10.571186380737942
 30
0.0
 10
1.4508256304697644
 20
10.659234862612243
 30
0.0
 10
1.4369485411401914
 20
10.759476547403978
 30
0.0
 10
1.4174048939284691
 20
10.871667909534565
 30
0.0
 10
1.3913463581739376
 20
10.995520334731326
 30
0.0
 10
1.3579383740433766
 20
11.130700656759945
 30
0.0
 10
1.3163622247765538
 20
11.276831785405065
 30
0.0
 10
1.3138941591266058
 20
11.284481406782012
 30
0.0
 10
1.1881401991423288
 20
11.304398877352716
 30
0.0
 10
1.0609931899177614
 20
11.311062369748646
 30
0.0
 10
1.0569886117092384
 20
11.304093050654641
 30
0.0
 10
0.9859386310176049
 20
11.169799405268087
 30
0.0
 10
0.9251551221773497
 20
11.044519008078161
 30
0.0
 10
0.873915660815988
 20
10.928790929755985
 30
0.0
 10
0.8314731933905437
 20
10.823114570801483
 30
0.0
 10
0.7970579335822819
 20
10.7279486164341
 30
0.0
 10
0.769879301015282
 20
10.643710075761708
 30
0.0
 10
0.7682893279582046
 20
10.638121666003146
 30
0.0
 10
0.7551724442766515
 20
10.598127055847584
 30
0.0
 10
0.7406677592977164
 20
10.572017067968916
 30
0.0
 10
0.725728424751438
 20
10.559823513374228
 30
0.0
 10
0.38204931572414297
 20
10.577834972264291
 30
0.0
 10
0.36846639394030556
 20
10.59152331497372
 30
0.0
 10
0.3567704040430475
 20
10.61900642203592
 30
0.0
 10
0.3479059511694291
 20
10.66015302522816
 30
0.0
 10
0.3469088360246978
 20
10.665877018558366
 30
0.0
 10
0.3286844160658057
 20
10.752495032363035
 30
0.0
 10
0.30440523761692356
 20
10.850737031894772
 30
0.0
 10
0.2732414618740974
 20
10.960270930595145
 30
0.0
 10
0.23437957382718955
 20
11.080721020550358
 30
0.0
 10
0.1870244108035526
 20
11.211668725388716
 30
0.0
 10
0.1304011577197557
 20
11.35265344142972
 30
0.0
 10
0.1271470092245645
 20
11.360003174270732
 30
0.0
 10
-1.2212453270876722e-15
 20
11.366666666666672
 30
0.0
 10
-0.1271470092245679
 20
11.360003174270725
 30
0.0
 10
-0.1304011577197404
 20
11.352653441429757
 30
0.0
 10
-0.1870244108041952
 20
11.211668725387113
 30
0.0
 10
-0.2343795738273159
 20
11.080721020550211
 30
0.0
 10
-0.2732414618741311
 20
10.960270930595147
 30
0.0
 10
-0.3044052376169549
 20
10.850737031894829
 30
0.0
 10
-0.3286844160656369
 20
10.752495032362132
 30
0.0
 10
-0.3469088360352929
 20
10.665877018533624
 30
0.0
 10
-0.34790595116942935
 20
10.660153025228151
 30
0.0
 10
-0.356770404051183
 20
10.619006422037634
 30
0.0
 10
-0.36846639393925895
 20
10.59152331497347
 30
0.0
 10
-0.38204931572421164
 20
10.577834972264318
 30
0.0
 10
-0.7257284247515032
 20
10.559823513374193
 30
0.0
 10
-0.7406677592967017
 20
10.572017067969275
 30
0.0
 10
-0.7551724442845631
 20
10.59812705584503
 30
0.0
 10
-0.7682893279582057
 20
10.638121666003155
 30
0.0
 10
-0.769879301028405
 20
10.643710075785204
 30
0.0
 10
-0.7970579335822081
 20
10.727948616435013
 30
0.0
 10
-0.831473193390569
 20
10.823114570801422
 30
0.0
 10
-0.8739156608160212
 20
10.92879092975598
 30
0.0
 10
-0.9251551221774907
 20
11.044519008078295
 30
0.0
 10
-0.9859386310184116
 20
11.169799405269611
 30
0.0
 10
-1.0569886117092193
 20
11.304093050654604
 30
0.0
 10
-1.0609931899177656
 20
11.311062369748651
 30
0.0
 10
-1.1881401991423286
 20
11.304398877352712
 30
0.0
 10
-1.3138941591266082
 20
11.284481406782005
 30
0.0
 10
-1.3163622247765427
 20
11.276831785405108
 30
0.0
 10
-1.3579383740438484
 20
11.130700656758286
 30
0.0
 10
-1.391346358174048
 20
10.99552033473117
 30
0.0
 10
-1.4174048939285024
 20
10.871667909534567
 30
0.0
 10
-1.436948541140229
 20
10.759476547404034
 30
0.0
 10
-1.4508256304695024
 20
10.659234862611365
 30
0.0
 10
-1.4598961672829214
 20
10.571186380712229
 30
0.0
 10
-1.4602894998920477
 20
10.565389517128324
 30
0.0
 10
-1.4648044011732233
 20
10.523541731697884
 30
0.0
 10
-1.4735635522576833
 20
10.494986616120428
 30
0.0
 10
-1.485641243947825
 20
10.479953457644008
 30
0.0
 10
-1.8255549327371334
 20
10.426116418286433
 30
0.0
 10
-1.841687001568159
 20
10.43668158963136
 30
0.0
 10
-1.8588414652825962
 20
10.461132391829635
 30
0.0
 10
-1.87606706843385
 20
10.499536819635344
 30
0.0
 10
-1.878232479351837
 20
10.504928418082217
 30
0.0
 10
-1.9140675497147972
 20
10.585864550497755
 30
0.0
 10
-1.9582418300943203
 20
10.676911801588043
 30
0.0
 10
-2.011497980647628
 20
10.777572808493877
 30
0.0
 10
-2.0745536250624363
 20
10.887310934139537
 30
0.0
 10
-2.148099522878013
 20
11.005551425435579
 30
0.0
 10
-2.232797792719219
 20
11.131682650882968
 30
0.0
 10
-2.237508925644254
 20
11.138195198911632
 30
0.0
 10
-2.3632628856285316
 20
11.118277728340928
 30
0.0
 10
-2.486246009671228
 20
11.08532449957103
 30
0.0
 10
-2.487900951832189
 20
11.077458800510795
 30
0.0
 10
-2.513974480290603
 20
10.927782302485156
 30
0.0
 10
-2.5330692606626815
 20
10.789850427164255
 30
0.0
 10
-2.54603894135395
 20
10.663952619814353
 30
0.0
 10
-2.5537483357459556
 20
10.55033298629466
 30
0.0
 10
-2.557071295661162
 20
10.449189885117532
 30
0.0
 10
-2.5568885706188844
 20
10.360675612740783
 30
0.0
 10
-2.556673811268625
 20
10.35486939052894
 30
0.0
 10
-2.5567896947459823
 20
10.31277891595297
 30
0.0
 10
-2.5625160399345748
 20
10.28346464768403
 30
0.0
 10
-2.572956175812329
 20
10.267251379870498
 30
0.0
 10
-2.905380278857766
 20
10.1781786099148
 30
0.0
 10
-2.9225283356526535
 20
10.186999643781412
 30
0.0
 10
-2.942144630199409
 20
10.209523372196664
 30
0.0
 10
-2.96329022551546
 20
10.245916850702272
 30
0.0
 10
-2.9660073495860755
 20
10.251052566333122
 30
0.0
 10
-3.0101062412283253
 20
10.327799537310673
 30
0.0
 10
-3.06355555951911
 20
10.41373055238903
 30
0.0
 10
-3.1270419076702454
 20
10.508273344189812
 30
0.0
 10
-3.201222884302942
 20
10.610819203290061
 30
0.0
 10
-3.286725386846238
 20
10.720724321124777
 30
0.0
 10
-3.3841439738692087
 20
10.837311206533908
 30
0.0
 10
-3.389510045352541
 20
10.843295630658146
 30
0.0
 10
-3.512493169395234
 20
10.81034240188825
 30
0.0
 10
-3.6313580286534632
 20
10.764714457389465
 30
0.0
 10
-3.632181715432815
 20
10.756718858890807
 30
0.0
 10
-3.6424669560483127
 20
10.605136878520538
 30
0.0
 10
-3.6470393262526732
 20
10.465964660395967
 30
0.0
 10
-3.6467780533450234
 20
10.339400833615903
 30
0.0
 10
-3.642568729179055
 20
10.22559776918833
 30
0.0
 10
-3.635301152635988
 20
10.124661396608788
 30
0.0
 10
-3.625867167711815
 20
10.036651114645393
 30
0.0
 10
-3.6250466693505525
 20
10.030899147991196
 30
0.0
 10
-3.6207622653804634
 20
9.989027136317144
 30
0.0
 10
-3.623393065636988
 20
9.95927488861428
 30
0.0
 10
-3.632081261388938
 20
9.942059147418647
 30
0.0
 10
-3.9533736706533227
 20
9.818726546772135
 30
0.0
 10
-3.971349837713366
 20
9.82570679806747
 30
0.0
 10
-3.993213042864411
 20
9.846056678017788
 30
0.0
 10
-4.018046954777977
 20
9.880040472656964
 30
0.0
 10
-4.021286022621308
 20
9.884864037496621
 30
0.0
 10
-4.07316557885773
 20
9.956580991161818
 30
0.0
 10
-4.135304333143593
 20
10.036454292044827
 30
0.0
 10
-4.20832530917684
 20
10.123843038129232
 30
0.0
 10
-4.29281887572407
 20
10.218073116792672
 30
0.0
 10
-4.389341199684672
 20
10.318438717695937
 30
0.0
 10
-4.498412765463834
 20
10.424203912752894
 30
0.0
 10
-4.504374983703367
 20
10.42959464636968
 30
0.0
 10
-4.623239842961594
 20
10.3839667018709
 30
0.0
 10
-4.736684129163249
 20
10.326163950951418
 30
0.0
 10
-4.736667536076272
 20
10.318126054464672
 30
0.0
 10
-4.731051801600343
 20
10.16629935564728
 30
0.0
 10
-4.721051665792198
 20
10.027411594664471
 30
0.0
 10
-4.70756230184628
 20
9.901568408225632
 30
0.0
 10
-4.691480377358757
 20
9.788828763078868
 30
0.0
 10
-4.673701889446862
 20
9.689204999117193
 30
0.0
 10
-4.655120005353812
 20
9.602662966633673
 30
0.0
 10
-4.653702757533292
 20
9.597028275287462
 30
0.0
 10
-4.645065006942222
 20
9.555833485037516
 30
0.0
 10
-4.644571438668536
 20
9.525969229752617
 30
0.0
 10
-4.651412504603903
 20
9.507939634438046
 30
0.0
 10
-4.958053073216575
 20
9.35169846088241
 30
0.0
 10
-4.976660399893709
 20
9.356761452512567
 30
0.0
 10
-5.000530977798241
 20
9.374714526454728
 30
0.0
 10
-5.028781120773564
 20
9.405916303661838
 30
0.0
 10
-5.032506644484503
 20
9.410374869724523
 30
0.0
 10
-5.091598462040474
 20
9.47627606012527
 30
0.0
 10
-5.16174584712609
 20
9.549216538213892
 30
0.0
 10
-5.243501417947406
 20
9.628493789192555
 30
0.0
 10
-5.3373818452126605
 20
9.713375682958437
 30
0.0
 10
-5.443866471810662
 20
9.803102140403903
 30
0.0
 10
-5.5633960054466485
 20
9.89688685949885
 30
0.0
 10
-5.569889047131671
 20
9.901624840602585
 30
0.0
 10
-5.683333333333327
 20
9.84382208968311
 30
0.0
 10
-5.7901141271390495
 20
9.774477831378027
 30
0.0
 10
-5.789257435983074
 20
9.766485701779134
 30
0.0
 10
-5.7678022535778055
 20
9.616077729598642
 30
0.0
 10
-5.74333917533773
 20
9.478996109131057
 30
0.0
 10
-5.716769512647767
 20
9.355252327318444
 30
0.0
 10
-5.688991184768734
 20
9.244811300597005
 30
0.0
 10
-5.6608965703219605
 20
9.14759164405877
 30
0.0
 10
-5.633370374070664
 20
9.063466033673102
 30
0.0
 10
-5.631371904454588
 20
9.058010352492401
 30
0.0
 10
-5.618475444245578
 20
9.017944122409098
 30
0.0
 10
-5.614862915078976
 20
8.988295058572566
 30
0.0
 10
-5.619781899047787
 20
8.969649145158257
 30
0.0
 10
-5.9084110087703605
 20
8.782211209686546
 30
0.0
 10
-5.927445629299679
 20
8.785301470455721
 30
0.0
 10
-5.953062048910933
 20
8.800661040754694
 30
0.0
 10
-5.984418908469856
 20
8.828738947329265
 30
0.0
 10
-5.988590070431007
 20
8.83278366563218
 30
0.0
 10
-6.0542467269876274
 20
8.89214706553574
 30
0.0
 10
-6.131634193442713
 20
8.95735556968826
 30
0.0
 10
-6.221228627909727
 20
9.027652747409624
 30
0.0
 10
-6.323467342286149
 20
9.102256472487168
 30
0.0
 10
-6.438747603669201
 20
9.180360724630594
 30
0.0
 10
-6.56742551457833
 20
9.261137442755413
 30
0.0
 10
-6.574378240585393
 20
9.265170761033657
 30
0.0
 10
-6.68115903439111
 20
9.195826502728567
 30
0.0
 10
-6.780106423078645
 20
9.115700487243078
 30
0.0
 10
-6.778419019941241
 20
9.107841687976379
 30
0.0
 10
-6.741359457074851
 20
8.960500343650887
 30
0.0
 10
-6.702701459007272
 20
8.826726758618543
 30
0.0
 10
-6.663342600357754
 20
8.706438144200744
 30
0.0
 10
-6.624172214260444
 20
8.599505750904662
 30
0.0
 10
-6.586069283753847
 20
8.505755360691424
 30
0.0
 10
-6.549900358110662
 20
8.424967870195408
 30
0.0
 10
-6.547342562350349
 20
8.419750972764907
 30
0.0
 10
-6.530328688840206
 20
8.38125227684944
 30
0.0
 10
-6.523636778406206
 20
8.352143245809131
 30
0.0
 10
-6.526579786990736
 20
8.333085302824363
 30
0.0
 10
-6.794035156897566
 20
8.116504214681507
 30
0.0
 10
-6.813288523993298
 20
8.117587887046037
 30
0.0
 10
-6.840370126457436
 20
8.13018567103543
 30
0.0
 10
-6.874490150284784
 20
8.154832079557353
 30
0.0
 10
-6.879061250372831
 20
8.15841863532036
 30
0.0
 10
-6.950563397861328
 20
8.210593846894795
 30
0.0
 10
-7.034343072409034
 20
8.267355939093964
 30
0.0
 10
-7.130794755148884
 20
8.327902852968283
 30
0.0
 10
-7.240271607886936
 20
8.391411035333709
 30
0.0
 10
-7.363084469387381
 20
8.457037355644244
 30
0.0
 10
-7.49950093545015
 20
8.523921066171544
 30
0.0
 10
-7.506837170258165
 20
8.527205531745214
 30
0.0
 10
-7.605784558945692
 20
8.447079516259713
 30
0.0
 10
-7.695814454218499
 20
8.35704962098692
 30
0.0
 10
-7.6933148266415605
 20
8.349410254701748
 30
0.0
 10
-7.641056915640024
 20
8.206749840832845
 30
0.0
 10
-7.5886275428614764
 20
8.077749942627278
 30
0.0
 10
-7.536910712144139
 20
7.962234402835868
 30
0.0
 10
-7.486777426775562
 20
7.859982216643133
 30
0.0
 10
-7.439083643889323
 20
7.770728241648597
 30
0.0
 10
-7.39466826317243
 20
7.694163995693978
 30
0.0
 10
-7.391579165013484
 20
7.6892430394336335
 30
0.0
 10
-7.370634285760768
 20
7.652733677454822
 30
0.0
 10
-7.360936312030458
 20
7.624483603846271
 30
0.0
 10
-7.361871101012788
 20
7.605222434102514
 30
0.0
 10
-7.605222434102544
 20
7.361871101012715
 30
0.0
 10
-7.6244836038457615
 20
7.3609363120314
 30
0.0
 10
-7.652733677458996
 20
7.370634285753571
 30
0.0
 10
-7.689243039433644
 20
7.391579165013485
 30
0.0
 10
-7.694163995719457
 20
7.394668263181107
 30
0.0
 10
-7.7707282416491585
 20
7.439083643890048
 30
0.0
 10
-7.859982216643117
 20
7.486777426775497
 30
0.0
 10
-7.962234402835893
 20
7.536910712144108
 30
0.0
 10
-8.077749942627472
 20
7.588627542861477
 30
0.0
 10
-8.206749840834469
 20
7.641056915640614
 30
0.0
 10
-8.349410254701713
 20
7.693314826641542
 30
0.0
 10
-8.357049620986922
 20
7.695814454218491
 30
0.0
 10
-8.447079516259716
 20
7.605784558945695
 30
0.0
 10
-8.527205531745208
 20
7.506837170258158
 30
0.0
 10
-8.523921066171562
 20
7.499500935450188
 30
0.0
 10
-8.457037355643482
 20
7.363084469385832
 30
0.0
 10
-8.391411035333682
 20
7.240271607886744
 30
0.0
 10
-8.327902852968304
 20
7.130794755148861
 30
0.0
 10
-8.267355939094024
 20
7.034343072409049
 30
0.0
 10
-8.210593846894012
 20
6.95056339786085
 30
0.0
 10
-8.15841863530906
 20
6.879061250348403
 30
0.0
 10
-8.154832079557345
 20
6.874490150284778
 30
0.0
 10
-8.130185671042147
 20
6.840370126452537
 30
0.0
 10
-8.117587887045147
 20
6.813288523993908
 30
0.0
 10
-8.116504214681573
 20
6.794035156897535
 30
0.0
 10
-8.33308530282438
 20
6.526579786990664
 30
0.0
 10
-8.352143245808717
 20
6.523636778407201
 30
0.0
 10
-8.381252276852834
 20
6.5303286888326175
 30
0.0
 10
-8.419750972764913
 20
6.547342562350354
 30
0.0
 10
-8.424967870221648
 20
6.549900358116633
 30
0.0
 10
-8.50575536069205
 20
6.586069283754513
 30
0.0
 10
-8.599505750904632
 20
6.624172214260385
 30
0.0
 10
-8.70643814420076
 20
6.663342600357726
 30
0.0
 10
-8.826726758618733
 20
6.702701459007257
 30
0.0
 10
-8.960500343652559
 20
6.741359457075273
 30
0.0
 10
-9.107841687976338
 20
6.778419019941231
 30
0.0
 10
-9.11570048724308
 20
6.780106423078641
 30
0.0
 10
-9.19582650272858
 20
6.681159034391117
 30
0.0
 10
-9.265170761033657
 20
6.574378240585387
 30
0.0
 10
-9.261137442755436
 20
6.567425514578366
 30
0.0
 10
-9.180360724629676
 20
6.43874760366774
 30
0.0
 10
-9.102256472487122
 20
6.3234673422859595
 30
0.0
 10
-9.027652747409643
 20
6.221228627909702
 30
0.0
 10
-8.957355569688325
 20
6.131634193442722
 30
0.0
 10
-8.892147065534912
 20
6.054246726987234
 30
0.0
 10
-8.83278366561839
 20
5.988590070407893
 30
0.0
 10
-8.828738947329258
 20
5.98441890846985
 30
0.0
 10
-8.800661040760863
 20
5.953062048905359
 30
0.0
 10
-8.785301470454902
 20
5.927445629300377
 30
0.0
 10
-8.782211209686608
 20
5.908411008770321
 30
0.0
 10
-8.969649145158268
 20
5.619781899047713
 30
0.0
 10
-8.98829505857226
 20
5.614862915080008
 30
0.0
 10
-9.01794412241168
 20
5.618475444237675
 30
0.0
 10
-9.058010352492408
 20
5.631371904454593
 30
0.0
 10
-9.063466033699823
 20
5.633370374073859
 30
0.0
 10
-9.147591644059466
 20
5.660896570322557
 30
0.0
 10
-9.24481130059697
 20
5.688991184768678
 30
0.0
 10
-9.355252327318459
 20
5.716769512647736
 30
0.0
 10
-9.478996109131247
 20
5.743339175337694
 30
0.0
 10
-9.61607772960035
 20
5.76780225357805
 30
0.0
 10
-9.766485701779093
 20
5.7892574359830675
 30
0.0
 10
-9.77447783137803
 20
5.7901141271390495
 30
0.0
 10
-9.843822089683119
 20
5.683333333333337
 30
0.0
 10
-9.901624840602588
 20
5.569889047131674
 30
0.0
 10
-9.89688685949887
 20
5.563396005446685
 30
0.0
 10
-9.803102140402833
 20
5.443866471809311
 30
0.0
 10
-9.71337568295837
 20
5.337381845212483
 30
0.0
 10
-9.628493789192571
 20
5.243501417947383
 30
0.0
 10
-9.549216538213955
 20
5.161745847126096
 30
0.0
 10
-9.476276060124404
 20
5.091598462040174
 30
0.0
 10
-9.410374869708392
 20
5.032506644462962
 30
0.0
 10
-9.405916303661828
 20
5.028781120773565
 30
0.0
 10
-9.374714526460279
 20
5.000530977792057
 30
0.0
 10
-9.356761452511822
 20
4.976660399894494
 30
0.0
 10
-9.351698460882467
 20
4.958053073216534
 30
0.0
 10
-9.507939634438046
 20
4.651412504603834
 30
0.0
 10
-9.525969229752418
 20
4.644571438669599
 30
0.0
 10
-9.555833485039253
 20
4.6450650069340975
 30
0.0
 10
-9.597028275287467
 20
4.6537027575333
 30
0.0
 10
-9.602662966660581
 20
4.6551200053542
 30
0.0
 10
-9.689204999117944
 20
4.673701889447387
 30
0.0
 10
-9.788828763078826
 20
4.69148037735871
 30
0.0
 10
-9.901568408225641
 20
4.707562301846253
 30
0.0
 10
-10.027411594664656
 20
4.721051665792147
 30
0.0
 10
-10.166299355649002
 20
4.731051801600413
 30
0.0
 10
-10.318126054464628
 20
4.7366675360762756
 30
0.0
 10
-10.326163950951422
 20
4.736684129163253
 30
0.0
 10
-10.383966701870897
 20
4.623239842961595
 30
0.0
 10
-10.429594646369683
 20
4.504374983703368
 30
0.0
 10
-10.42420391275292
 20
4.498412765463867
 30
0.0
 10
-10.318438717694733
 20
4.389341199683436
 30
0.0
 10
-10.218073116792588
 20
4.2928188757238965
 30
0.0
 10
-10.123843038129246
 20
4.2083253091768125
 30
0.0
 10
-10.03645429204489
 20
4.135304333143591
 30
0.0
 10
-9.956580991160923
 20
4.0731655788575205
 30
0.0
 10
-9.884864037478328
 20
4.0212860226015685
 30
0.0
 10
-9.880040472656955
 20
4.018046954777975
 30
0.0
 10
-9.846056678022663
 20
3.9932130428576795
 30
0.0
 10
-9.825706798066813
 20
3.971349837714223
 30
0.0
 10
-9.818726546772188
 20
3.953373670653274
 30
0.0
 10
-9.94205914741864
 20
3.6320812613888678
 30
0.0
 10
-9.959274888614194
 20
3.6233930656380635
 30
0.0
 10
-9.989027136318027
 20
3.6207622653722
 30
0.0
 10
-10.030899147991201
 20
3.6250466693505587
 30
0.0
 10
-10.036651114672194
 20
3.6258671677093877
 30
0.0
 10
-10.124661396609593
 20
3.6353011526364303
 30
0.0
 10
-10.225597769188283
 20
3.6425687291790103
 30
0.0
 10
-10.339400833615908
 20
3.646778053344994
 30
0.0
 10
-10.465964660396144
 20
3.6470393262526017
 30
0.0
 10
-10.605136878522258
 20
3.6424669560482
 30
0.0
 10
-10.756718858890762
 20
3.6321817154328215
 30
0.0
 10
-10.764714457389463
 20
3.631358028653463
 30
0.0
 10
-10.810342401888242
 20
3.512493169395234
 30
0.0
 10
-10.843295630658131
 20
3.389510045352535
 30
0.0
 10
-10.83731120653394
 20
3.3841439738692367
 30
0.0
 10
-10.720724321123452
 20
3.286725386845133
 30
0.0
 10
-10.610819203289962
 20
3.2012228843027777
 30
0.0
 10
-10.508273344189822
 20
3.1270419076702156
 30
0.0
 10
-10.413730552389094
 20
3.063555559519099
 30
0.0
 10
-10.327799537309764
 20
3.010106241228209
 30
0.0
 10
-10.251052566312866
 20
2.9660073495683545
 30
0.0
 10
-10.245916850702262
 20
2.963290225515458
 30
0.0
 10
-10.209523372200808
 20
2.9421446301922027
 30
0.0
 10
-10.186999643780851
 20
2.9225283356535727
 30
0.0
 10
-10.178178609914848
 20
2.9053802788577103
 30
0.0
 10
-10.267251379870483
 20
2.572956175812257
 30
0.0
 10
-10.283464647684058
 20
2.562516039935652
 30
0.0
 10
-10.312778915952984
 20
2.55678969473767
 30
0.0
 10
-10.354869390528949
 20
2.5566738112686282
 30
0.0
 10
-10.360675612767187
 20
2.556888570613666
 30
0.0
 10
-10.449189885118377
 20
2.557071295661516
 30
0.0
 10
-10.550332986294611
 20
2.5537483357459143
 30
0.0
 10
-10.663952619814358
 20
2.5460389413539186
 30
0.0
 10
-10.789850427164422
 20
2.5330692606625895
 30
0.0
 10
-10.927782302486856
 20
2.5139744802903077
 30
0.0
 10
-11.077458800510755
 20
2.4879009518321955
 30
0.0
 10
-11.08532449957103
 20
2.486246009671227
 30
0.0
 10
-11.118277728340928
 20
2.363262885628535
 30
0.0
 10
-11.138195198911626
 20
2.2375089256442537
 30
0.0
 10
-11.131682650883002
 20
2.2327977927192446
 30
0.0
 10
-11.005551425434145
 20
2.148099522877054
 30
0.0
 10
-10.887310934139418
 20
2.074553625062285
 30
0.0
 10
-10.777572808493886
 20
2.011497980647599
 30
0.0
 10
-10.676911801588103
 20
1.9582418300943043
 30
0.0
 10
-10.585864550496838
 20
1.914067549714778
 30
0.0
 10
-10.504928418060219
 20
1.8782324793363327
 30
0.0
 10
-10.499536819635331
 20
1.8760670684338512
 30
0.0
 10
-10.461132391833003
 20
1.858841465274998
 30
0.0
 10
-10.436681589630895
 20
1.8416870015691336
 30
0.0
 10
-10.426116418286473
 20
1.8255549327370748
 30
0.0
 10
-10.479953457643985
 20
1.4856412439477569
 30
0.0
 10
-10.494986616120569
 20
1.4735635522587536
 30
0.0
 10
-10.52354173169703
 20
1.4648044011649564
 30
0.0
 10
-10.565389517128331
 20
1.4602894998920515
 30
0.0
 10
-10.571186380737942
 20
1.4598961672749737
 30
0.0
 10
-10.659234862612243
 20
1.4508256304697673
 30
0.0
 10
-10.759476547403978
 20
1.4369485411401945
 30
0.0
 10
-10.871667909534565
 20
1.4174048939284722
 30
0.0
 10
-10.995520334731326
 20
1.3913463581739407
 30
0.0
 10
-11.130700656759945
 20
1.3579383740433797
 30
0.0
 10
-11.276831785405065
 20
1.316362224776557
 30
0.0
 10
-11.28448140678201
 20
1.3138941591266091
 30
0.0
 10
-11.304398877352716
 20
1.1881401991423304
 30
0.0
 10
-11.311062369748646
 20
1.0609931899177623
 30
0.0
 10
-11.304093050654641
 20
1.056988611709239
 30
0.0
 10
-11.169799405268087
 20
0.9859386310176056
 30
0.0
 10
-11.044519008078161
 20
0.9251551221773504
 30
0.0
 10
-10.928790929755985
 20
0.8739156608159887
 30
0.0
 10
-10.823114570801483
 20
0.8314731933905444
 30
0.0
 10
-10.7279486164341
 20
0.7970579335822826
 30
0.0
 10
-10.643710075761708
 20
0.7698793010152827
 30
0.0
 10
-10.638121666003146
 20
0.7682893279582053
 30
0.0
 10
-10.598127055847584
 20
0.7551724442766522
 30
0.0
 10
-10.572017067968916
 20
0.7406677592977171
 30
0.0
 10
-10.559823513374228
 20
0.7257284247514386
 30
0.0
 10
-10.577834972264291
 20
0.3820493157241436
 30
0.0
 10
-10.59152331497372
 20
0.36846639394030617
 30
0.0
 10
-10.61900642203592
 20
0.3567704040430481
 30
0.0
 10
-10.66015302522816
 20
0.34790595116942974
 30
0.0
 10
-10.665877018558366
 20
0.34690883602469846
 30
0.0
 10
-10.752495032363035
 20
0.32868441606580634
 30
0.0
 10
-10.850737031894772
 20
0.30440523761692423
 30
0.0
 10
-10.960270930595145
 20
0.2732414618740981
 30
0.0
 10
-11.080721020550358
 20
0.23437957382719024
 30
0.0
 10
-11.211668725388716
 20
0.18702441080355325
 30
0.0
 10
-11.35265344142972
 20
0.13040115771975638
 30
0.0
 10
-11.360003174270734
 20
0.12714700922456507
 30
0.0
 10
-11.366666666666674
 20
4.440892098500626e-15
 30
0.0
 10
-11.360003174270721
 20
-0.12714700922456168
 30
0.0
 10
-11.352653441429759
 20
-0.13040115771973484
 30
0.0
 10
-11.211668725387115
 20
-0.18702441080418955
 30
0.0
 10
-11.080721020550213
 20
-0.23437957382731023
 30
0.0
 10
-10.960270930595147
 20
-0.27324146187412546
 30
0.0
 10
-10.850737031894829
 20
-0.3044052376169496
 30
0.0
 10
-10.752495032362134
 20
-0.3286844160656315
 30
0.0
 10
-10.665877018533624
 20
-0.34690883603528744
 30
0.0
 10
-10.660153025228151
 20
-0.347905951169424
 30
0.0
 10
-10.619006422037634
 20
-0.35677040405117755
 30
0.0
 10
-10.591523314973468
 20
-0.3684663939392535
 30
0.0
 10
-10.57783497226432
 20
-0.3820493157242063
 30
0.0
 10
-10.559823513374194
 20
-0.7257284247514981
 30
0.0
 10
-10.572017067969275
 20
-0.7406677592966966
 30
0.0
 10
-10.59812705584503
 20
-0.755172444284558
 30
0.0
 10
-10.638121666003155
 20
-0.7682893279582004
 30
0.0
 10
-10.643710075785206
 20
-0.7698793010283996
 30
0.0
 10
-10.727948616435015
 20
-0.7970579335822028
 30
0.0
 10
-10.823114570801424
 20
-0.8314731933905637
 30
0.0
 10
-10.928790929755982
 20
-0.8739156608160157
 30
0.0
 10
-11.044519008078295
 20
-0.9251551221774852
 30
0.0
 10
-11.169799405269613
 20
-0.9859386310184057
 30
0.0
 10
-11.304093050654606
 20
-1.0569886117092138
 30
0.0
 10
-11.311062369748651
 20
-1.0609931899177596
 30
0.0
 10
-11.304398877352712
 20
-1.1881401991423304
 30
0.0
 10
-11.284481406782
 20
-1.3138941591266096
 30
0.0
 10
-11.276831785405106
 20
-1.3163622247765447
 30
0.0
 10
-11.130700656758284
 20
-1.3579383740438502
 30
0.0
 10
-10.995520334731168
 20
-1.3913463581740497
 30
0.0
 10
-10.871667909534565
 20
-1.4174048939285044
 30
0.0
 10
-10.759476547404033
 20
-1.4369485411402307
 30
0.0
 10
-10.659234862611367
 20
-1.4508256304695044
 30
0.0
 10
-10.57118638071223
 20
-1.4598961672829234
 30
0.0
 10
-10.565389517128322
 20
-1.4602894998920497
 30
0.0
 10
-10.523541731697883
 20
-1.464804401173225
 30
0.0
 10
-10.494986616120427
 20
-1.473563552257685
 30
0.0
 10
-10.479953457644006
 20
-1.4856412439478268
 30
0.0
 10
-10.426116418286433
 20
-1.8255549327371352
 30
0.0
 10
-10.436681589631359
 20
-1.8416870015681608
 30
0.0
 10
-10.461132391829633
 20
-1.858841465282598
 30
0.0
 10
-10.499536819635342
 20
-1.8760670684338518
 30
0.0
 10
-10.504928418082216
 20
-1.8782324793518388
 30
0.0
 10
-10.585864550497755
 20
-1.9140675497147992
 30
0.0
 10
-10.67691180158804
 20
-1.958241830094322
 30
0.0
 10
-10.777572808493876
 20
-2.0114979806476296
 30
0.0
 10
-10.887310934139535
 20
-2.074553625062438
 30
0.0
 10
-11.005551425435579
 20
-2.148099522878015
 30
0.0
 10
-11.131682650882968
 20
-2.2327977927192206
 30
0.0
 10
-11.138195198911628
 20
-2.237508925644257
 30
0.0
 10
-11.118277728340924
 20
-2.363262885628536
 30
0.0
 10
-11.08532449957102
 20
-2.4862460096712304
 30
0.0
 10
-11.077458800510795
 20
-2.4879009518321924
 30
0.0
 10
-10.927782302485156
 20
-2.513974480290608
 30
0.0
 10
-10.789850427164254
 20
-2.5330692606626855
 30
0.0
 10
-10.663952619814351
 20
-2.546038941353955
 30
0.0
 10
-10.550332986294661
 20
-2.55374833574596
 30
0.0
 10
-10.44918988511753
 20
-2.557071295661166
 30
0.0
 10
-10.360675612740783
 20
-2.556888570618889
 30
0.0
 10
-10.35486939052894
 20
-2.5566738112686296
 30
0.0
 10
-10.312778915952968
 20
-2.5567896947459867
 30
0.0
 10
-10.28346464768403
 20
-2.5625160399345788
 30
0.0
 10
-10.267251379870498
 20
-2.572956175812333
 30
0.0
 10
-10.178178609914799
 20
-2.90538027885777
 30
0.0
 10
-10.18699964378141
 20
-2.922528335652658
 30
0.0
 10
-10.209523372196664
 20
-2.942144630199413
 30
0.0
 10
-10.24591685070227
 20
-2.963290225515464
 30
0.0
 10
-10.25105256633312
 20
-2.9660073495860795
 30
0.0
 10
-10.327799537310671
 20
-3.0101062412283297
 30
0.0
 10
-10.41373055238903
 20
-3.0635555595191146
 30
0.0
 10
-10.50827334418981
 20
-3.12704190767025
 30
0.0
 10
-10.610819203290061
 20
-3.201222884302946
 30
0.0
 10
-10.720724321124775
 20
-3.286725386846242
 30
0.0
 10
-10.837311206533906
 20
-3.384143973869213
 30
0.0
 10
-10.843295630658146
 20
-3.3895100453525453
 30
0.0
 10
-10.810342401888251
 20
-3.5124931693952384
 30
0.0
 10
-10.764714457389463
 20
-3.6313580286534664
 30
0.0
 10
-10.756718858890805
 20
-3.632181715432817
 30
0.0
 10
-10.605136878520536
 20
-3.6424669560483145
 30
0.0
 10
-10.465964660395965
 20
-3.6470393262526755
 30
0.0
 10
-10.339400833615901
 20
-3.6467780533450256
 30
0.0
 10
-10.225597769188328
 20
-3.642568729179057
 30
0.0
 10
-10.124661396608788
 20
-3.6353011526359897
 30
0.0
 10
-10.036651114645391
 20
-3.6258671677118173
 30
0.0
 10
-10.030899147991194
 20
-3.6250466693505548
 30
0.0
 10
-9.989027136317143
 20
-3.620762265380465
 30
0.0
 10
-9.95927488861428
 20
-3.6233930656369897
 30
0.0
 10
-9.942059147418645
 20
-3.6320812613889397
 30
0.0
 10
-9.818726546772135
 20
-3.9533736706533245
 30
0.0
 10
-9.825706798067468
 20
-3.9713498377133676
 30
0.0
 10
-9.846056678017788
 20
-3.993213042864413
 30
0.0
 10
-9.880040472656964
 20
-4.0180469547779785
 30
0.0
 10
-9.884864037496621
 20
-4.02128602262131
 30
0.0
 10
-9.956580991161816
 20
-4.073165578857732
 30
0.0
 10
-10.036454292044825
 20
-4.135304333143595
 30
0.0
 10
-10.12384303812923
 20
-4.208325309176842
 30
0.0
 10
-10.218073116792672
 20
-4.2928188757240715
 30
0.0
 10
-10.318438717695935
 20
-4.389341199684674
 30
0.0
 10
-10.424203912752892
 20
-4.498412765463836
 30
0.0
 10
-10.429594646369672
 20
-4.504374983703367
 30
0.0
 10
-10.383966701870891
 20
-4.6232398429615955
 30
0.0
 10
-10.326163950951424
 20
-4.736684129163255
 30
0.0
 10
-10.318126054464672
 20
-4.736667536076276
 30
0.0
 10
-10.16629935564728
 20
-4.731051801600347
 30
0.0
 10
-10.027411594664473
 20
-4.721051665792202
 30
0.0
 10
-9.901568408225632
 20
-4.707562301846284
 30
0.0
 10
-9.788828763078866
 20
-4.691480377358761
 30
0.0
 10
-9.689204999117191
 20
-4.673701889446866
 30
0.0
 10
-9.602662966633673
 20
-4.655120005353815
 30
0.0
 10
-9.59702827528746
 20
-4.653702757533296
 30
0.0
 10
-9.555833485037514
 20
-4.645065006942225
 30
0.0
 10
-9.525969229752617
 20
-4.64457143866854
 30
0.0
 10
-9.507939634438044
 20
-4.651412504603908
 30
0.0
 10
-9.35169846088241
 20
-4.958053073216578
 30
0.0
 10
-9.356761452512565
 20
-4.976660399893713
 30
0.0
 10
-9.374714526454728
 20
-5.0005309777982445
 30
0.0
 10
-9.405916303661837
 20
-5.0287811207735675
 30
0.0
 10
-9.410374869724523
 20
-5.032506644484506
 30
0.0
 10
-9.47627606012527
 20
-5.091598462040477
 30
0.0
 10
-9.549216538213892
 20
-5.1617458471260935
 30
0.0
 10
-9.628493789192554
 20
-5.243501417947409
 30
0.0
 10
-9.713375682958436
 20
-5.337381845212665
 30
0.0
 10
-9.803102140403901
 20
-5.443866471810666
 30
0.0
 10
-9.896886859498847
 20
-5.563396005446652
 30
0.0
 10
-9.901624840602606
 20
-5.569889047131684
 30
0.0
 10
-9.843822089683135
 20
-5.68333333333334
 30
0.0
 10
-9.77447783137803
 20
-5.790114127139053
 30
0.0
 10
-9.766485701779136
 20
-5.789257435983074
 30
0.0
 10
-9.616077729598643
 20
-5.7678022535778055
 30
0.0
 10
-9.478996109131058
 20
-5.74333917533773
 30
0.0
 10
-9.355252327318444
 20
-5.716769512647767
 30
0.0
 10
-9.244811300597005
 20
-5.688991184768734
 30
0.0
 10
-9.147591644058771
 20
-5.6608965703219605
 30
0.0
 10
-9.063466033673103
 20
-5.633370374070664
 30
0.0
 10
-9.058010352492403
 20
-5.631371904454588
 30
0.0
 10
-9.0179441224091
 20
-5.618475444245578
 30
0.0
 10
-8.988295058572568
 20
-5.614862915078976
 30
0.0
 10
-8.96964914515826
 20
-5.619781899047787
 30
0.0
 10
-8.782211209686546
 20
-5.9084110087703605
 30
0.0
 10
-8.785301470455721
 20
-5.927445629299679
 30
0.0
 10
-8.800661040754695
 20
-5.953062048910933
 30
0.0
 10
-8.828738947329265
 20
-5.984418908469856
 30
0.0
 10
-8.832783665632181
 20
-5.988590070431007
 30
0.0
 10
-8.892147065535742
 20
-6.0542467269876274
 30
0.0
 10
-8.95735556968826
 20
-6.131634193442713
 30
0.0
 10
-9.027652747409626
 20
-6.221228627909727
 30
0.0
 10
-9.10225647248717
 20
-6.323467342286149
 30
0.0
 10
-9.180360724630596
 20
-6.438747603669201
 30
0.0
 10
-9.261137442755413
 20
-6.56742551457833
 30
0.0
 10
-9.265170761033662
 20
-6.5743782405853946
 30
0.0
 10
-9.19582650272857
 20
-6.681159034391115
 30
0.0
 10
-9.115700487243071
 20
-6.780106423078637
 30
0.0
 10
-9.107841687976379
 20
-6.778419019941241
 30
0.0
 10
-8.960500343650887
 20
-6.741359457074851
 30
0.0
 10
-8.826726758618543
 20
-6.702701459007272
 30
0.0
 10
-8.706438144200744
 20
-6.663342600357754
 30
0.0
 10
-8.599505750904662
 20
-6.624172214260444
 30
0.0
 10
-8.505755360691424
 20
-6.586069283753847
 30
0.0
 10
-8.424967870195408
 20
-6.549900358110662
 30
0.0
 10
-8.419750972764907
 20
-6.547342562350349
 30
0.0
 10
-8.38125227684944
 20
-6.530328688840206
 30
0.0
 10
-8.352143245809131
 20
-6.523636778406206
 30
0.0
 10
-8.333085302824363
 20
-6.526579786990736
 30
0.0
 10
-8.116504214681507
 20
-6.794035156897566
 30
0.0
 10
-8.117587887046037
 20
-6.813288523993298
 30
0.0
 10
-8.13018567103543
 20
-6.840370126457436
 30
0.0
 10
-8.154832079557353
 20
-6.874490150284784
 30
0.0
 10
-8.15841863532036
 20
-6.879061250372831
 30
0.0
 10
-8.210593846894795
 20
-6.950563397861328
 30
0.0
 10
-8.267355939093964
 20
-7.034343072409034
 30
0.0
 10
-8.327902852968283
 20
-7.130794755148884
 30
0.0
 10
-8.391411035333709
 20
-7.240271607886936
 30
0.0
 10
-8.457037355644244
 20
-7.363084469387381
 30
0.0
 10
-8.523921066171544
 20
-7.49950093545015
 30
0.0
 10
-8.527205531745215
 20
-7.506837170258164
 30
0.0
 10
-8.44707951625972
 20
-7.605784558945686
 30
0.0
 10
-8.35704962098692
 20
-7.695814454218489
 30
0.0
 10
-8.349410254701754
 20
-7.693314826641557
 30
0.0
 10
-8.20674984083285
 20
-7.64105691564002
 30
0.0
 10
-8.077749942627282
 20
-7.588627542861473
 30
0.0
 10
-7.962234402835873
 20
-7.5369107121441345
 30
0.0
 10
-7.859982216643139
 20
-7.486777426775558
 30
0.0
 10
-7.7707282416486025
 20
-7.43908364388932
 30
0.0
 10
-7.694163995693982
 20
-7.394668263172426
 30
0.0
 10
-7.689243039433638
 20
-7.3915791650134794
 30
0.0
 10
-7.652733677454826
 20
-7.370634285760764
 30
0.0
 10
-7.624483603846275
 20
-7.3609363120304545
 30
0.0
 10
-7.605222434102519
 20
-7.361871101012785
 30
0.0
 10
-7.36187110101272
 20
-7.60522243410254
 30
0.0
 10
-7.360936312031404
 20
-7.624483603845757
 30
0.0
 10
-7.370634285753576
 20
-7.652733677458992
 30
0.0
 10
-7.391579165013489
 20
-7.689243039433641
 30
0.0
 10
-7.394668263181112
 20
-7.694163995719453
 30
0.0
 10
-7.439083643890052
 20
-7.770728241649155
 30
0.0
 10
-7.486777426775501
 20
-7.859982216643114
 30
0.0
 10
-7.536910712144112
 20
-7.96223440283589
 30
0.0
 10
-7.588627542861482
 20
-8.077749942627468
 30
0.0
 10
-7.641056915640619
 20
-8.206749840834465
 30
0.0
 10
-7.693314826641547
 20
-8.34941025470171
 30
0.0
 10
-7.6958144542184925
 20
-8.357049620986917
 30
0.0
 10
-7.605784558945693
 20
-8.447079516259716
 30
0.0
 10
-7.506837170258163
 20
-8.527205531745215
 30
0.0
 10
-7.499500935450188
 20
-8.523921066171562
 30
0.0
 10
-7.363084469385832
 20
-8.457037355643482
 30
0.0
 10
-7.240271607886744
 20
-8.391411035333682
 30
0.0
 10
-7.130794755148861
 20
-8.327902852968304
 30
0.0
 10
-7.034343072409049
 20
-8.267355939094024
 30
0.0
 10
-6.95056339786085
 20
-8.210593846894012
 30
0.0
 10
-6.879061250348403
 20
-8.15841863530906
 30
0.0
 10
-6.874490150284778
 20
-8.154832079557345
 30
0.0
 10
-6.840370126452537
 20
-8.130185671042147
 30
0.0
 10
-6.813288523993908
 20
-8.117587887045147
 30
0.0
 10
-6.794035156897535
 20
-8.116504214681573
 30
0.0
 10
-6.526579786990664
 20
-8.33308530282438
 30
0.0
 10
-6.523636778407201
 20
-8.352143245808717
 30
0.0
 10
-6.5303286888326175
 20
-8.381252276852834
 30
0.0
 10
-6.547342562350354
 20
-8.419750972764913
 30
0.0
 10
-6.549900358116633
 20
-8.424967870221648
 30
0.0
 10
-6.586069283754513
 20
-8.50575536069205
 30
0.0
 10
-6.624172214260385
 20
-8.599505750904632
 30
0.0
 10
-6.663342600357726
 20
-8.70643814420076
 30
0.0
 10
-6.702701459007257
 20
-8.826726758618733
 30
0.0
 10
-6.741359457075273
 20
-8.960500343652559
 30
0.0
 10
-6.778419019941231
 20
-9.107841687976338
 30
0.0
 10
-6.780106423078647
 20
-9.115700487243085
 30
0.0
 10
-6.681159034391128
 20
-9.19582650272858
 30
0.0
 10
-6.574378240585395
 20
-9.265170761033655
 30
0.0
 10
-6.567425514578371
 20
-9.26113744275543
 30
0.0
 10
-6.438747603667745
 20
-9.18036072462967
 30
0.0
 10
-6.323467342285966
 20
-9.102256472487118
 30
0.0
 10
-6.221228627909706
 20
-9.02765274740964
 30
0.0
 10
-6.131634193442727
 20
-8.957355569688321
 30
0.0
 10
-6.054246726987239
 20
-8.892147065534907
 30
0.0
 10
-5.9885900704078985
 20
-8.832783665618386
 30
0.0
 10
-5.984418908469856
 20
-8.828738947329255
 30
0.0
 10
-5.953062048905364
 20
-8.80066104076086
 30
0.0
 10
-5.927445629300382
 20
-8.785301470454897
 30
0.0
 10
-5.908411008770326
 20
-8.782211209686604
 30
0.0
 10
-5.619781899047719
 20
-8.969649145158266
 30
0.0
 10
-5.614862915080013
 20
-8.988295058572257
 30
0.0
 10
-5.6184754442376805
 20
-9.017944122411677
 30
0.0
 10
-5.631371904454597
 20
-9.058010352492404
 30
0.0
 10
-5.6333703740738645
 20
-9.06346603369982
 30
0.0
 10
-5.660896570322563
 20
-9.147591644059462
 30
0.0
 10
-5.688991184768684
 20
-9.244811300596966
 30
0.0
 10
-5.716769512647741
 20
-9.355252327318455
 30
0.0
 10
-5.7433391753377
 20
-9.478996109131243
 30
0.0
 10
-5.767802253578056
 20
-9.616077729600345
 30
0.0
 10
-5.789257435983074
 20
-9.76648570177909
 30
0.0
 10
-5.79011412713905
 20
-9.774477831378018
 30
0.0
 10
-5.6833333333333265
 20
-9.843822089683112
 30
0.0
 10
-5.569889047131675
 20
-9.9016248406026
 30
0.0
 10
-5.563396005446682
 20
-9.896886859498874
 30
0.0
 10
-5.443866471809306
 20
-9.803102140402837
 30
0.0
 10
-5.337381845212479
 20
-9.713375682958374
 30
0.0
 10
-5.243501417947379
 20
-9.628493789192573
 30
0.0
 10
-5.161745847126092
 20
-9.549216538213958
 30
0.0
 10
-5.091598462040171
 20
-9.476276060124405
 30
0.0
 10
-5.032506644462958
 20
-9.410374869708393
 30
0.0
 10
-5.028781120773561
 20
-9.40591630366183
 30
0.0
 10
-5.000530977792054
 20
-9.37471452646028
 30
0.0
 10
-4.976660399894491
 20
-9.356761452511824
 30
0.0
 10
-4.95805307321653
 20
-9.35169846088247
 30
0.0
 10
-4.65141250460383
 20
-9.507939634438047
 30
0.0
 10
-4.644571438669596
 20
-9.525969229752421
 30
0.0
 10
-4.645065006934094
 20
-9.555833485039257
 30
0.0
 10
-4.6537027575332965
 20
-9.59702827528747
 30
0.0
 10
-4.655120005354197
 20
-9.602662966660583
 30
0.0
 10
-4.673701889447384
 20
-9.689204999117948
 30
0.0
 10
-4.691480377358706
 20
-9.788828763078829
 30
0.0
 10
-4.70756230184625
 20
-9.901568408225645
 30
0.0
 10
-4.721051665792142
 20
-10.027411594664658
 30
0.0
 10
-4.731051801600409
 20
-10.166299355649006
 30
0.0
 10
-4.736667536076272
 20
-10.318126054464631
 30
0.0
 10
-4.7366841291632555
 20
-10.326163950951434
 30
0.0
 10
-4.623239842961602
 20
-10.383966701870907
 30
0.0
 10
-4.504374983703364
 20
-10.429594646369669
 30
0.0
 10
-4.4984127654638675
 20
-10.42420391275292
 30
0.0
 10
-4.389341199683437
 20
-10.318438717694733
 30
0.0
 10
-4.292818875723897
 20
-10.218073116792588
 30
0.0
 10
-4.208325309176813
 20
-10.123843038129246
 30
0.0
 10
-4.135304333143591
 20
-10.03645429204489
 30
0.0
 10
-4.0731655788575205
 20
-9.956580991160923
 30
0.0
 10
-4.021286022601569
 20
-9.884864037478328
 30
0.0
 10
-4.018046954777976
 20
-9.880040472656955
 30
0.0
 10
-3.9932130428576804
 20
-9.846056678022663
 30
0.0
 10
-3.9713498377142233
 20
-9.825706798066813
 30
0.0
 10
-3.9533736706532743
 20
-9.818726546772188
 30
0.0
 10
-3.632081261388868
 20
-9.94205914741864
 30
0.0
 10
-3.6233930656380644
 20
-9.959274888614194
 30
0.0
 10
-3.6207622653722003
 20
-9.989027136318027
 30
0.0
 10
-3.625046669350559
 20
-10.030899147991201
 30
0.0
 10
-3.625867167709388
 20
-10.036651114672194
 30
0.0
 10
-3.635301152636431
 20
-10.124661396609593
 30
0.0
 10
-3.642568729179011
 20
-10.225597769188283
 30
0.0
 10
-3.646778053344995
 20
-10.339400833615908
 30
0.0
 10
-3.647039326252602
 20
-10.465964660396144
 30
0.0
 10
-3.6424669560482004
 20
-10.605136878522258
 30
0.0
 10
-3.632181715432822
 20
-10.756718858890762
 30
0.0
 10
-3.6313580286534632
 20
-10.76471445738946
 30
0.0
 10
-3.5124931693952384
 20
-10.810342401888239
 30
0.0
 10
-3.3895100453525426
 20
-10.84329563065814
 30
0.0
 10
-3.3841439738692416
 20
-10.837311206533938
 30
0.0
 10
-3.2867253868451383
 20
-10.72072432112345
 30
0.0
 10
-3.2012228843027826
 20
-10.61081920328996
 30
0.0
 10
-3.1270419076702205
 20
-10.50827334418982
 30
0.0
 10
-3.0635555595191044
 20
-10.413730552389092
 30
0.0
 10
-3.010106241228214
 20
-10.327799537309762
 30
0.0
 10
-2.96600734956836
 20
-10.251052566312865
 30
0.0
 10
-2.963290225515463
 20
-10.24591685070226
 30
0.0
 10
-2.9421446301922076
 20
-10.209523372200806
 30
0.0
 10
-2.9225283356535776
 20
-10.186999643780847
 30
0.0
 10
-2.905380278857715
 20
-10.178178609914845
 30
0.0
 10
-2.572956175812262
 20
-10.267251379870483
 30
0.0
 10
-2.562516039935657
 20
-10.283464647684056
 30
0.0
 10
-2.5567896947376747
 20
-10.312778915952983
 30
0.0
 10
-2.556673811268633
 20
-10.354869390528947
 30
0.0
 10
-2.5568885706136713
 20
-10.360675612767185
 30
0.0
 10
-2.5570712956615207
 20
-10.449189885118376
 30
0.0
 10
-2.5537483357459196
 20
-10.55033298629461
 30
0.0
 10
-2.546038941353924
 20
-10.663952619814356
 30
0.0
 10
-2.533069260662595
 20
-10.78985042716442
 30
0.0
 10
-2.513974480290313
 20
-10.927782302486856
 30
0.0
 10
-2.487900951832201
 20
-11.077458800510755
 30
0.0
 10
-2.486246009671234
 20
-11.085324499571033
 30
0.0
 10
-2.363262885628531
 20
-11.118277728340933
 30
0.0
 10
-2.237508925644251
 20
-11.138195198911639
 30
0.0
 10
-2.23279779271924
 20
-11.131682650883004
 30
0.0
 10
-2.14809952287705
 20
-11.005551425434147
 30
0.0
 10
-2.074553625062281
 20
-10.88731093413942
 30
0.0
 10
-2.011497980647595
 20
-10.777572808493886
 30
0.0
 10
-1.9582418300943003
 20
-10.676911801588107
 30
0.0
 10
-1.9140675497147743
 20
-10.58586455049684
 30
0.0
 10
-1.8782324793363288
 20
-10.50492841806022
 30
0.0
 10
-1.8760670684338472
 20
-10.499536819635333
 30
0.0
 10
-1.8588414652749943
 20
-10.461132391833003
 30
0.0
 10
-1.8416870015691298
 20
-10.436681589630895
 30
0.0
 10
-1.8255549327370708
 20
-10.426116418286476
 30
0.0
 10
-1.4856412439477529
 20
-10.479953457643987
 30
0.0
 10
-1.4735635522587496
 20
-10.494986616120569
 30
0.0
 10
-1.4648044011649524
 20
-10.52354173169703
 30
0.0
 10
-1.4602894998920475
 20
-10.565389517128331
 30
0.0
 10
-1.4598961672749697
 20
-10.571186380737943
 30
0.0
 10
-1.4508256304697633
 20
-10.659234862612244
 30
0.0
 10
-1.4369485411401905
 20
-10.75947654740398
 30
0.0
 10
-1.417404893928468
 20
-10.871667909534567
 30
0.0
 10
-1.3913463581739365
 20
-10.995520334731326
 30
0.0
 10
-1.3579383740433755
 20
-11.130700656759947
 30
0.0
 10
-1.316362224776553
 20
-11.276831785405067
 30
0.0
 10
-1.3138941591266053
 20
-11.284481406782016
 30
0.0
 10
-1.1881401991423313
 20
-11.30439887735272
 30
0.0
 10
-1.060993189917762
 20
-11.311062369748631
 30
0.0
 10
-1.0569886117092397
 20
-11.304093050654641
 30
0.0
 10
-0.9859386310176063
 20
-11.169799405268087
 30
0.0
 10
-0.9251551221773511
 20
-11.044519008078161
 30
0.0
 10
-0.8739156608159894
 20
-10.928790929755985
 30
0.0
 10
-0.831473193390545
 20
-10.823114570801483
 30
0.0
 10
-0.7970579335822833
 20
-10.7279486164341
 30
0.0
 10
-0.7698793010152833
 20
-10.643710075761708
 30
0.0
 10
-0.7682893279582059
 20
-10.638121666003146
 30
0.0
 10
-0.7551724442766529
 20
-10.598127055847584
 30
0.0
 10
-0.7406677592977177
 20
-10.572017067968916
 30
0.0
 10
-0.7257284247514392
 20
-10.559823513374228
 30
0.0
 10
-0.38204931572414425
 20
-10.577834972264291
 30
0.0
 10
-0.36846639394030684
 20
-10.59152331497372
 30
0.0
 10
-0.35677040404304877
 20
-10.61900642203592
 30
0.0
 10
-0.34790595116943035
 20
-10.66015302522816
 30
0.0
 10
-0.3469088360246991
 20
-10.665877018558366
 30
0.0
 10
-0.328684416065807
 20
-10.752495032363035
 30
0.0
 10
-0.3044052376169249
 20
-10.850737031894772
 30
0.0
 10
-0.27324146187409876
 20
-10.960270930595145
 30
0.0
 10
-0.2343795738271909
 20
-11.080721020550358
 30
0.0
 10
-0.18702441080355395
 20
-11.211668725388716
 30
0.0
 10
-0.13040115771975708
 20
-11.35265344142972
 30
0.0
 10
-0.12714700922456557
 20
-11.360003174270728
 30
0.0
 10
5.10702591327572e-15
 20
-11.36666666666667
 30
0.0
 10
0.12714700922457167
 20
-11.360003174270727
 30
0.0
 10
0.13040115771974417
 20
-11.352653441429757
 30
0.0
 10
0.187024410804199
 20
-11.211668725387113
 30
0.0
 10
0.23437957382731944
 20
-11.080721020550211
 30
0.0
 10
0.2732414618741347
 20
-10.960270930595149
 30
0.0
 10
0.3044052376169585
 20
-10.850737031894829
 30
0.0
 10
0.32868441606564025
 20
-10.752495032362132
 30
0.0
 10
0.3469088360352962
 20
-10.665877018533626
 30
0.0
 10
0.3479059511694327
 20
-10.660153025228151
 30
0.0
 10
0.3567704040511863
 20
-10.619006422037634
 30
0.0
 10
0.3684663939392623
 20
-10.59152331497347
 30
0.0
 10
0.38204931572421497
 20
-10.57783497226432
 30
0.0
 10
0.7257284247515068
 20
-10.559823513374193
 30
0.0
 10
0.7406677592967053
 20
-10.572017067969275
 30
0.0
 10
0.7551724442845666
 20
-10.59812705584503
 30
0.0
 10
0.7682893279582093
 20
-10.638121666003155
 30
0.0
 10
0.7698793010284083
 20
-10.643710075785204
 30
0.0
 10
0.7970579335822117
 20
-10.727948616435013
 30
0.0
 10
0.8314731933905726
 20
-10.823114570801422
 30
0.0
 10
0.8739156608160248
 20
-10.92879092975598
 30
0.0
 10
0.9251551221774943
 20
-11.044519008078295
 30
0.0
 10
0.9859386310184152
 20
-11.169799405269611
 30
0.0
 10
1.0569886117092229
 20
-11.304093050654604
 30
0.0
 10
1.0609931899177694
 20
-11.311062369748653
 30
0.0
 10
1.18814019914233
 20
-11.304398877352714
 30
0.0
 10
1.31389415912661
 20
-11.284481406782009
 30
0.0
 10
1.3163622247765439
 20
-11.276831785405106
 30
0.0
 10
1.3579383740438493
 20
-11.130700656758284
 30
0.0
 10
1.3913463581740488
 20
-10.995520334731168
 30
0.0
 10
1.4174048939285036
 20
-10.871667909534565
 30
0.0
 10
1.4369485411402299
 20
-10.759476547404033
 30
0.0
 10
1.4508256304695035
 20
-10.659234862611365
 30
0.0
 10
1.4598961672829225
 20
-10.571186380712229
 30
0.0
 10
1.4602894998920488
 20
-10.565389517128322
 30
0.0
 10
1.4648044011732242
 20
-10.523541731697883
 30
0.0
 10
1.4735635522576842
 20
-10.494986616120427
 30
0.0
 10
1.485641243947826
 20
-10.479953457644006
 30
0.0
 10
1.8255549327371343
 20
-10.426116418286433
 30
0.0
 10
1.84168700156816
 20
-10.436681589631359
 30
0.0
 10
1.858841465282597
 20
-10.461132391829633
 30
0.0
 10
1.876067068433851
 20
-10.499536819635342
 30
0.0
 10
1.878232479351838
 20
-10.504928418082216
 30
0.0
 10
1.9140675497147983
 20
-10.585864550497755
 30
0.0
 10
1.9582418300943212
 20
-10.67691180158804
 30
0.0
 10
2.0114979806476287
 20
-10.777572808493876
 30
0.0
 10
2.0745536250624372
 20
-10.887310934139535
 30
0.0
 10
2.148099522878014
 20
-11.005551425435579
 30
0.0
 10
2.2327977927192197
 20
-11.131682650882968
 30
0.0
 10
2.2375089256442555
 20
-11.138195198911632
 30
0.0
 10
2.3632628856285303
 20
-11.118277728340928
 30
0.0
 10
2.486246009671227
 20
-11.08532449957103
 30
0.0
 10
2.487900951832187
 20
-11.077458800510795
 30
0.0
 10
2.513974480290602
 20
-10.927782302485156
 30
0.0
 10
2.5330692606626797
 20
-10.789850427164254
 30
0.0
 10
2.5460389413539493
 20
-10.663952619814353
 30
0.0
 10
2.5537483357459547
 20
-10.55033298629466
 30
0.0
 10
2.5570712956611605
 20
-10.449189885117532
 30
0.0
 10
2.5568885706188835
 20
-10.360675612740783
 30
0.0
 10
2.5566738112686243
 20
-10.35486939052894
 30
0.0
 10
2.5567896947459814
 20
-10.31277891595297
 30
0.0
 10
2.5625160399345734
 20
-10.28346464768403
 30
0.0
 10
2.5729561758123274
 20
-10.267251379870498
 30
0.0
 10
2.9053802788577645
 20
-10.1781786099148
 30
0.0
 10
2.9225283356526526
 20
-10.186999643781412
 30
0.0
 10
2.9421446301994076
 20
-10.209523372196664
 30
0.0
 10
2.9632902255154585
 20
-10.245916850702272
 30
0.0
 10
2.966007349586074
 20
-10.251052566333122
 30
0.0
 10
3.0101062412283244
 20
-10.327799537310673
 30
0.0
 10
3.0635555595191093
 20
-10.41373055238903
 30
0.0
 10
3.1270419076702436
 20
-10.508273344189812
 30
0.0
 10
3.20122288430294
 20
-10.610819203290061
 30
0.0
 10
3.2867253868462365
 20
-10.720724321124777
 30
0.0
 10
3.384143973869208
 20
-10.837311206533908
 30
0.0
 10
3.389510045352539
 20
-10.84329563065815
 30
0.0
 10
3.512493169395242
 20
-10.810342401888251
 30
0.0
 10
3.631358028653469
 20
-10.764714457389463
 30
0.0
 10
3.6321817154328215
 20
-10.756718858890803
 30
0.0
 10
3.642466956048318
 20
-10.605136878520534
 30
0.0
 10
3.647039326252679
 20
-10.465964660395963
 30
0.0
 10
3.646778053345029
 20
-10.339400833615901
 30
0.0
 10
3.6425687291790605
 20
-10.225597769188326
 30
0.0
 10
3.6353011526359933
 20
-10.124661396608788
 30
0.0
 10
3.625867167711821
 20
-10.036651114645391
 30
0.0
 10
3.6250466693505583
 20
-10.030899147991194
 30
0.0
 10
3.620762265380469
 20
-9.989027136317143
 30
0.0
 10
3.6233930656369933
 20
-9.959274888614278
 30
0.0
 10
3.6320812613889433
 20
-9.942059147418643
 30
0.0
 10
3.953373670653328
 20
-9.818726546772133
 30
0.0
 10
3.971349837713371
 20
-9.82570679806747
 30
0.0
 10
3.993213042864417
 20
-9.846056678017787
 30
0.0
 10
4.018046954777982
 20
-9.880040472656962
 30
0.0
 10
4.021286022621314
 20
-9.88486403749662
 30
0.0
 10
4.0731655788577354
 20
-9.956580991161815
 30
0.0
 10
4.1353043331435995
 20
-10.036454292044823
 30
0.0
 10
4.208325309176845
 20
-10.123843038129232
 30
0.0
 10
4.292818875724075
 20
-10.21807311679267
 30
0.0
 10
4.389341199684678
 20
-10.318438717695935
 30
0.0
 10
4.49841276546384
 20
-10.42420391275289
 30
0.0
 10
4.504374983703376
 20
-10.429594646369686
 30
0.0
 10
4.623239842961601
 20
-10.383966701870909
 30
0.0
 10
4.736684129163256
 20
-10.326163950951425
 30
0.0
 10
4.736667536076276
 20
-10.318126054464672
 30
0.0
 10
4.731051801600347
 20
-10.16629935564728
 30
0.0
 10
4.721051665792202
 20
-10.027411594664473
 30
0.0
 10
4.707562301846284
 20
-9.901568408225632
 30
0.0
 10
4.691480377358761
 20
-9.788828763078866
 30
0.0
 10
4.673701889446866
 20
-9.689204999117191
 30
0.0
 10
4.655120005353815
 20
-9.602662966633673
 30
0.0
 10
4.653702757533296
 20
-9.59702827528746
 30
0.0
 10
4.645065006942225
 20
-9.555833485037514
 30
0.0
 10
4.64457143866854
 20
-9.525969229752617
 30
0.0
 10
4.651412504603908
 20
-9.507939634438044
 30
0.0
 10
4.958053073216578
 20
-9.35169846088241
 30
0.0
 10
4.976660399893713
 20
-9.356761452512565
 30
0.0
 10
5.0005309777982445
 20
-9.374714526454728
 30
0.0
 10
5.0287811207735675
 20
-9.405916303661837
 30
0.0
 10
5.032506644484506
 20
-9.410374869724523
 30
0.0
 10
5.091598462040477
 20
-9.47627606012527
 30
0.0
 10
5.1617458471260935
 20
-9.549216538213892
 30
0.0
 10
5.243501417947409
 20
-9.628493789192554
 30
0.0
 10
5.337381845212665
 20
-9.713375682958436
 30
0.0
 10
5.443866471810666
 20
-9.803102140403901
 30
0.0
 10
5.563396005446652
 20
-9.896886859498847
 30
0.0
 10
5.569889047131684
 20
-9.901624840602604
 30
0.0
 10
5.683333333333339
 20
-9.843822089683133
 30
0.0
 10
5.790114127139049
 20
-9.774477831378029
 30
0.0
 10
5.789257435983073
 20
-9.766485701779136
 30
0.0
 10
5.767802253577804
 20
-9.616077729598643
 30
0.0
 10
5.743339175337728
 20
-9.478996109131058
 30
0.0
 10
5.716769512647765
 20
-9.355252327318444
 30
0.0
 10
5.688991184768733
 20
-9.244811300597004
 30
0.0
 10
5.66089657032196
 20
-9.147591644058771
 30
0.0
 10
5.6333703740706635
 20
-9.063466033673103
 30
0.0
 10
5.6313719044545865
 20
-9.058010352492403
 30
0.0
 10
5.618475444245577
 20
-9.0179441224091
 30
0.0
 10
5.614862915078975
 20
-8.988295058572568
 30
0.0
 10
5.619781899047786
 20
-8.96964914515826
 30
0.0
 10
5.908411008770359
 20
-8.782211209686546
 30
0.0
 10
5.927445629299677
 20
-8.785301470455721
 30
0.0
 10
5.953062048910932
 20
-8.800661040754695
 30
0.0
 10
5.984418908469855
 20
-8.828738947329265
 30
0.0
 10
5.988590070431006
 20
-8.832783665632181
 30
0.0
 10
6.054246726987627
 20
-8.892147065535742
 30
0.0
 10
6.1316341934427125
 20
-8.95735556968826
 30
0.0
 10
6.221228627909726
 20
-9.027652747409626
 30
0.0
 10
6.323467342286147
 20
-9.10225647248717
 30
0.0
 10
6.438747603669199
 20
-9.180360724630596
 30
0.0
 10
6.567425514578329
 20
-9.261137442755413
 30
0.0
 10
6.574378240585398
 20
-9.265170761033668
 30
0.0
 10
6.681159034391112
 20
-9.19582650272858
 30
0.0
 10
6.780106423078628
 20
-9.115700487243068
 30
0.0
 10
6.778419019941237
 20
-9.107841687976382
 30
0.0
 10
6.741359457074846
 20
-8.96050034365089
 30
0.0
 10
6.702701459007268
 20
-8.826726758618546
 30
0.0
 10
6.663342600357749
 20
-8.706438144200748
 30
0.0
 10
6.6241722142604385
 20
-8.599505750904665
 30
0.0
 10
6.586069283753843
 20
-8.505755360691426
 30
0.0
 10
6.549900358110657
 20
-8.42496787019541
 30
0.0
 10
6.547342562350344
 20
-8.419750972764911
 30
0.0
 10
6.530328688840202
 20
-8.381252276849443
 30
0.0
 10
6.5236367784062015
 20
-8.352143245809135
 30
0.0
 10
6.52657978699073
 20
-8.333085302824367
 30
0.0
 10
6.794035156897562
 20
-8.11650421468151
 30
0.0
 10
6.813288523993292
 20
-8.11758788704604
 30
0.0
 10
6.840370126457431
 20
-8.130185671035434
 30
0.0
 10
6.87449015028478
 20
-8.154832079557357
 30
0.0
 10
6.879061250372827
 20
-8.158418635320363
 30
0.0
 10
6.9505633978613215
 20
-8.210593846894799
 30
0.0
 10
7.034343072409029
 20
-8.267355939093967
 30
0.0
 10
7.130794755148879
 20
-8.327902852968284
 30
0.0
 10
7.240271607886931
 20
-8.391411035333713
 30
0.0
 10
7.363084469387376
 20
-8.457037355644248
 30
0.0
 10
7.499500935450144
 20
-8.523921066171548
 30
0.0
 10
7.506837170258162
 20
-8.527205531745219
 30
0.0
 10
7.605784558945693
 20
-8.447079516259718
 30
0.0
 10
7.695814454218482
 20
-8.357049620986906
 30
0.0
 10
7.693314826641559
 20
-8.34941025470175
 30
0.0
 10
7.641056915640023
 20
-8.206749840832847
 30
0.0
 10
7.5886275428614764
 20
-8.077749942627278
 30
0.0
 10
7.536910712144137
 20
-7.96223440283587
 30
0.0
 10
7.486777426775562
 20
-7.859982216643135
 30
0.0
 10
7.439083643889322
 20
-7.770728241648599
 30
0.0
 10
7.394668263172429
 20
-7.6941639956939785
 30
0.0
 10
7.391579165013483
 20
-7.689243039433635
 30
0.0
 10
7.370634285760767
 20
-7.6527336774548225
 30
0.0
 10
7.360936312030456
 20
-7.624483603846272
 30
0.0
 10
7.361871101012787
 20
-7.605222434102515
 30
0.0
 10
7.605222434102543
 20
-7.361871101012716
 30
0.0
 10
7.624483603845761
 20
-7.360936312031401
 30
0.0
 10
7.652733677458993
 20
-7.370634285753573
 30
0.0
 10
7.689243039433643
 20
-7.391579165013486
 30
0.0
 10
7.694163995719456
 20
-7.394668263181108
 30
0.0
 10
7.770728241649157
 20
-7.439083643890048
 30
0.0
 10
7.8599822166431155
 20
-7.486777426775498
 30
0.0
 10
7.962234402835891
 20
-7.536910712144109
 30
0.0
 10
8.077749942627472
 20
-7.588627542861478
 30
0.0
 10
8.206749840834467
 20
-7.641056915640615
 30
0.0
 10
8.349410254701711
 20
-7.693314826641543
 30
0.0
 10
8.357049620986915
 20
-7.695814454218487
 30
0.0
 10
8.447079516259711
 20
-7.605784558945691
 30
0.0
 10
8.527205531745212
 20
-7.506837170258161
 30
0.0
 10
8.523921066171562
 20
-7.499500935450189
 30
0.0
 10
8.457037355643482
 20
-7.363084469385834
 30
0.0
 10
8.391411035333682
 20
-7.240271607886745
 30
0.0
 10
8.327902852968304
 20
-7.130794755148862
 30
0.0
 10
8.267355939094024
 20
-7.03434307240905
 30
0.0
 10
8.210593846894012
 20
-6.950563397860851
 30
0.0
 10
8.15841863530906
 20
-6.879061250348404
 30
0.0
 10
8.154832079557345
 20
-6.87449015028478
 30
0.0
 10
8.130185671042145
 20
-6.840370126452538
 30
0.0
 10
8.117587887045147
 20
-6.813288523993909
 30
0.0
 10
8.116504214681571
 20
-6.794035156897536
 30
0.0
 10
8.33308530282438
 20
-6.526579786990665
 30
0.0
 10
8.352143245808717
 20
-6.5236367784072025
 30
0.0
 10
8.381252276852834
 20
-6.530328688832618
 30
0.0
 10
8.419750972764913
 20
-6.547342562350355
 30
0.0
 10
8.424967870221648
 20
-6.549900358116634
 30
0.0
 10
8.50575536069205
 20
-6.586069283754514
 30
0.0
 10
8.599505750904632
 20
-6.624172214260387
 30
0.0
 10
8.70643814420076
 20
-6.663342600357728
 30
0.0
 10
8.826726758618733
 20
-6.702701459007258
 30
0.0
 10
8.960500343652559
 20
-6.741359457075275
 30
0.0
 10
9.107841687976338
 20
-6.778419019941233
 30
0.0
 10
9.115700487243084
 20
-6.780106423078646
 30
0.0
 10
9.19582650272858
 20
-6.681159034391126
 30
0.0
 10
9.265170761033655
 20
-6.574378240585395
 30
0.0
 10
9.26113744275543
 20
-6.567425514578371
 30
0.0
 10
9.18036072462967
 20
-6.438747603667745
 30
0.0
 10
9.102256472487118
 20
-6.323467342285966
 30
0.0
 10
9.02765274740964
 20
-6.221228627909706
 30
0.0
 10
8.957355569688321
 20
-6.131634193442727
 30
0.0
 10
8.892147065534907
 20
-6.054246726987239
 30
0.0
 10
8.832783665618386
 20
-5.9885900704078985
 30
0.0
 10
8.828738947329255
 20
-5.984418908469856
 30
0.0
 10
8.80066104076086
 20
-5.953062048905364
 30
0.0
 10
8.785301470454897
 20
-5.927445629300382
 30
0.0
 10
8.782211209686604
 20
-5.908411008770326
 30
0.0
 10
8.969649145158266
 20
-5.619781899047719
 30
0.0
 10
8.988295058572257
 20
-5.614862915080013
 30
0.0
 10
9.017944122411677
 20
-5.6184754442376805
 30
0.0
 10
9.058010352492404
 20
-5.631371904454597
 30
0.0
 10
9.06346603369982
 20
-5.6333703740738645
 30
0.0
 10
9.147591644059462
 20
-5.660896570322563
 30
0.0
 10
9.244811300596966
 20
-5.688991184768684
 30
0.0
 10
9.355252327318455
 20
-5.716769512647741
 30
0.0
 10
9.478996109131243
 20
-5.7433391753377
 30
0.0
 10
9.616077729600345
 20
-5.767802253578056
 30
0.0
 10
9.76648570177909
 20
-5.789257435983074
 30
0.0
 10
9.774477831378018
 20
-5.79011412713905
 30
0.0
 10
9.843822089683112
 20
-5.6833333333333265
 30
0.0
 10
9.901624840602599
 20
-5.569889047131675
 30
0.0
 10
9.896886859498874
 20
-5.563396005446683
 30
0.0
 10
9.803102140402837
 20
-5.443866471809307
 30
0.0
 10
9.713375682958374
 20
-5.337381845212479
 30
0.0
 10
9.628493789192573
 20
-5.243501417947379
 30
0.0
 10
9.549216538213958
 20
-5.161745847126093
 30
0.0
 10
9.476276060124405
 20
-5.091598462040172
 30
0.0
 10
9.410374869708393
 20
-5.032506644462959
 30
0.0
 10
9.40591630366183
 20
-5.028781120773562
 30
0.0
 10
9.37471452646028
 20
-5.000530977792054
 30
0.0
 10
9.356761452511824
 20
-4.976660399894492
 30
0.0
 10
9.35169846088247
 20
-4.958053073216531
 30
0.0
 10
9.507939634438047
 20
-4.651412504603831
 30
0.0
 10
9.52596922975242
 20
-4.644571438669596
 30
0.0
 10
9.555833485039257
 20
-4.645065006934094
 30
0.0
 10
9.59702827528747
 20
-4.653702757533297
 30
0.0
 10
9.602662966660583
 20
-4.655120005354197
 30
0.0
 10
9.689204999117948
 20
-4.6737018894473845
 30
0.0
 10
9.788828763078829
 20
-4.691480377358707
 30
0.0
 10
9.901568408225645
 20
-4.7075623018462505
 30
0.0
 10
10.027411594664658
 20
-4.721051665792143
 30
0.0
 10
10.166299355649006
 20
-4.731051801600409
 30
0.0
 10
10.318126054464631
 20
-4.736667536076273
 30
0.0
 10
10.326163950951438
 20
-4.736684129163257
 30
0.0
 10
10.38396670187091
 20
-4.623239842961605
 30
0.0
 10
10.429594646369669
 20
-4.504374983703364
 30
0.0
 10
10.42420391275292
 20
-4.498412765463868
 30
0.0
 10
10.318438717694733
 20
-4.389341199683437
 30
0.0
 10
10.218073116792588
 20
-4.292818875723898
 30
0.0
 10
10.123843038129246
 20
-4.208325309176813
 30
0.0
 10
10.036454292044889
 20
-4.1353043331435915
 30
0.0
 10
9.956580991160923
 20
-4.073165578857521
 30
0.0
 10
9.884864037478328
 20
-4.02128602260157
 30
0.0
 10
9.880040472656955
 20
-4.018046954777977
 30
0.0
 10
9.846056678022663
 20
-3.993213042857681
 30
0.0
 10
9.825706798066813
 20
-3.9713498377142242
 30
0.0
 10
9.818726546772186
 20
-3.9533736706532747
 30
0.0
 10
9.94205914741864
 20
-3.6320812613888687
 30
0.0
 10
9.959274888614194
 20
-3.623393065638065
 30
0.0
 10
9.989027136318027
 20
-3.620762265372201
 30
0.0
 10
10.030899147991201
 20
-3.6250466693505596
 30
0.0
 10
10.036651114672194
 20
-3.6258671677093885
 30
0.0
 10
10.124661396609593
 20
-3.6353011526364316
 30
0.0
 10
10.225597769188283
 20
-3.6425687291790116
 30
0.0
 10
10.339400833615908
 20
-3.646778053344996
 30
0.0
 10
10.465964660396144
 20
-3.647039326252603
 30
0.0
 10
10.605136878522258
 20
-3.6424669560482013
 30
0.0
 10
10.756718858890762
 20
-3.632181715432823
 30
0.0
 10
10.76471445738946
 20
-3.631358028653464
 30
0.0
 10
10.810342401888239
 20
-3.5124931693952393
 30
0.0
 10
10.8432956306582
 20
-3.3895100453525595
 30
0.0
 10
10.837311206533938
 20
-3.3841439738692425
 30
0.0
 10
10.72072432112345
 20
-3.286725386845139
 30
0.0
 10
10.61081920328996
 20
-3.2012228843027835
 30
0.0
 10
10.50827334418982
 20
-3.1270419076702214
 30
0.0
 10
10.413730552389092
 20
-3.0635555595191053
 30
0.0
 10
10.327799537309762
 20
-3.0101062412282147
 30
0.0
 10
10.251052566312865
 20
-2.9660073495683608
 30
0.0
 10
10.24591685070226
 20
-2.963290225515464
 30
0.0
 10
10.209523372200804
 20
-2.9421446301922085
 30
0.0
 10
10.186999643780847
 20
-2.9225283356535785
 30
0.0
 10
10.178178609914845
 20
-2.905380278857716
 30
0.0
 10
10.267251379870483
 20
-2.572956175812263
 30
0.0
 10
10.283464647684056
 20
-2.562516039935658
 30
0.0
 10
10.312778915952983
 20
-2.5567896947376756
 30
0.0
 10
10.354869390528947
 20
-2.556673811268634
 30
0.0
 10
10.360675612767185
 20
-2.556888570613672
 30
0.0
 10
10.449189885118376
 20
-2.5570712956615216
 30
0.0
 10
10.55033298629461
 20
-2.5537483357459205
 30
0.0
 10
10.663952619814356
 20
-2.546038941353925
 30
0.0
 10
10.78985042716442
 20
-2.5330692606625957
 30
0.0
 10
10.927782302486856
 20
-2.513974480290314
 30
0.0
 10
11.077458800510755
 20
-2.487900951832202
 30
0.0
 10
11.085324499571035
 20
-2.486246009671235
 30
0.0
 10
11.11827772834093
 20
-2.363262885628521
 30
0.0
 10
11.138195198911633
 20
-2.23750892564424
 30
0.0
 10
11.131682650883006
 20
-2.2327977927192304
 30
0.0
 10
11.005551425434147
 20
-2.1480995228770405
 30
0.0
 10
10.887310934139421
 20
-2.074553625062272
 30
0.0
 10
10.777572808493886
 20
-2.0114979806475857
 30
0.0
 10
10.676911801588107
 20
-1.9582418300942914
 30
0.0
 10
10.58586455049684
 20
-1.9140675497147652
 30
0.0
 10
10.50492841806022
 20
-1.8782324793363199
 30
0.0
 10
10.499536819635335
 20
-1.8760670684338383
 30
0.0
 10
10.461132391833003
 20
-1.8588414652749854
 30
0.0
 10
10.436681589630897
 20
-1.841687001569121
 30
0.0
 10
10.426116418286476
 20
-1.8255549327370624
 30
0.0
 10
10.479953457643989
 20
-1.485641243947744
 30
0.0
 10
10.494986616120569
 20
-1.4735635522587407
 30
0.0
 10
10.52354173169703
 20
-1.4648044011649435
 30
0.0
 10
10.565389517128331
 20
-1.4602894998920386
 30
0.0
 10
10.571186380737943
 20
-1.4598961672749609
 30
0.0
 10
10.659234862612244
 20
-1.4508256304697544
 30
0.0
 10
10.75947654740398
 20
-1.4369485411401814
 30
0.0
 10
10.871667909534569
 20
-1.417404893928459
 30
0.0
 10
10.995520334731326
 20
-1.3913463581739274
 30
0.0
 10
11.130700656759947
 20
-1.3579383740433661
 30
0.0
 10
11.276831785405067
 20
-1.3163622247765436
 30
0.0
 10
11.284481406782005
 20
-1.313894159126594
 30
0.0
  0
LWPOLYLINE
  8
OpenJsCad
  90
31
  70
1
 10
0.08316467632710375
 20
-0.3912590402935223
 30
0.0
 10
2.4492935982947065e-17
 20
-0.4
 30
0.0
 10
-0.08316467632710357
 20
-0.3912590402935223
 30
0.0
 10
-0.16269465723032003
 20
-0.36541818305704044
 30
0.0
 10
-0.23511410091698934
 20
-0.32360679774997897
 30
0.0
 10
-0.29725793019095764
 20
-0.2676522425435434
 30
0.0
 10
-0.34641016151377546
 20
-0.2000000000000001
 30
0.0
 10
-0.3804226065180615
 20
-0.12360679774997893
 30
0.0
 10
-0.39780875814730937
 20
-0.04181138530706122
 30
0.0
 10
-0.3978087581473093
 20
0.04181138530706167
 30
0.0
 10
-0.3804226065180614
 20
0.123606797749979
 30
0.0
 10
-0.34641016151377535
 20
0.20000000000000015
 30
0.0
 10
-0.29725793019095764
 20
0.2676522425435434
 30
0.0
 10
-0.23511410091698925
 20
0.323606797749979
 30
0.0
 10
-0.16269465723032012
 20
0.3654181830570404
 30
0.0
 10
-0.08316467632710366
 20
0.3912590402935223
 30
0.0
 10
2.0212861992297212e-16
 20
0.4
 30
0.0
 10
0.0831646763271037
 20
0.3912590402935223
 30
0.0
 10
0.16269465723032
 20
0.36541818305704044
 30
0.0
 10
0.23511410091698928
 20
0.32360679774997897
 30
0.0
 10
0.2972579301909578
 20
0.2676522425435432
 30
0.0
 10
0.3464101615137755
 20
0.19999999999999996
 30
0.0
 10
0.3804226065180615
 20
0.12360679774997897
 30
0.0
 10
0.39780875814730937
 20
0.04181138530706136
 30
0.0
 10
0.3978087581473093
 20
-0.041811385307061355
 30
0.0
 10
0.3804226065180614
 20
-0.12360679774997896
 30
0.0
 10
0.34641016151377546
 20
-0.20000000000000004
 30
0.0
 10
0.29725793019095764
 20
-0.2676522425435433
 30
0.0
 10
0.23511410091698928
 20
-0.323606797749979
 30
0.0
 10
0.1626946572303201
 20
-0.3654181830570404
 30
0.0
 10
0.08316467632710375
 20
-0.3912590402935223
 30
0.0
  0
ENDSEC
  0
EOF
